G04 #@! TF.FileFunction,Soldermask,Top*
%FSLAX46Y46*%
G04 Gerber Fmt 4.6, Leading zero omitted, Abs format (unit mm)*
G04 Created by KiCad (PCBNEW (2016-01-20 BZR 6502, Git 4c1d9af)-product) date 2/15/2016 2:16:01 AM*
%MOMM*%
G01*
G04 APERTURE LIST*
%ADD10C,0.150000*%
%ADD11C,7.152640*%
%ADD12C,5.153660*%
%ADD13O,10.152380X5.153660*%
%ADD14C,1.143010*%
%ADD15C,2.527310*%
%ADD16C,4.140210*%
%ADD17C,1.854210*%
%ADD18C,2.652400*%
%ADD19O,1.802400X2.352400*%
%ADD20O,1.352400X1.352400*%
%ADD21R,1.352400X1.352400*%
%ADD22C,1.952400*%
G04 APERTURE END LIST*
D10*
D11*
X190504000Y-111921000D03*
X252689000Y-150221000D03*
X321940000Y-92920800D03*
D12*
X87109300Y-92920800D03*
D13*
X63748900Y-121521000D03*
X345831000Y-121521000D03*
D14*
X180022000Y-150020000D03*
X172402000Y-149004000D03*
X172402000Y-151036000D03*
D15*
X180022000Y-147480000D03*
X174307000Y-147480000D03*
X180022000Y-152560000D03*
X174307000Y-152560000D03*
D16*
X76200000Y-150020000D03*
D17*
X81280000Y-150020000D03*
X71120000Y-150020000D03*
D18*
X79199547Y-154019954D02*
X80010453Y-152560046D01*
X73660276Y-155099328D02*
X73699724Y-154520672D01*
D16*
X100012000Y-150020000D03*
D17*
X105092000Y-150020000D03*
X94932000Y-150020000D03*
D18*
X103011547Y-154019954D02*
X103822453Y-152560046D01*
X97472276Y-155099328D02*
X97511724Y-154520672D01*
D16*
X123825000Y-150020000D03*
D17*
X128905000Y-150020000D03*
X118745000Y-150020000D03*
D18*
X126824547Y-154019954D02*
X127635453Y-152560046D01*
X121285276Y-155099328D02*
X121324724Y-154520672D01*
D16*
X195262000Y-150020000D03*
D17*
X200342000Y-150020000D03*
X190182000Y-150020000D03*
D18*
X198261547Y-154019954D02*
X199072453Y-152560046D01*
X192722276Y-155099328D02*
X192761724Y-154520672D01*
D16*
X266700000Y-150020000D03*
D17*
X271780000Y-150020000D03*
X261620000Y-150020000D03*
D18*
X269699547Y-154019954D02*
X270510453Y-152560046D01*
X264160276Y-155099328D02*
X264199724Y-154520672D01*
D16*
X290512000Y-150020000D03*
D17*
X295592000Y-150020000D03*
X285432000Y-150020000D03*
D18*
X293511547Y-154019954D02*
X294322453Y-152560046D01*
X287972276Y-155099328D02*
X288011724Y-154520672D01*
D16*
X311931000Y-150020000D03*
D17*
X317011000Y-150020000D03*
X306851000Y-150020000D03*
D18*
X314930547Y-154019954D02*
X315741453Y-152560046D01*
X309391276Y-155099328D02*
X309430724Y-154520672D01*
D16*
X335744000Y-150020000D03*
D17*
X340824000Y-150020000D03*
X330664000Y-150020000D03*
D18*
X338743547Y-154019954D02*
X339554453Y-152560046D01*
X333204276Y-155099328D02*
X333243724Y-154520672D01*
D19*
X76860000Y-68720000D03*
X84160000Y-68720000D03*
X84160000Y-65820000D03*
X76860000Y-65820000D03*
D16*
X328613000Y-73820000D03*
D17*
X333693000Y-73820000D03*
X323533000Y-73820000D03*
D18*
X331612547Y-77819954D02*
X332423453Y-76360046D01*
X326073276Y-78899328D02*
X326112724Y-78320672D01*
D16*
X321469000Y-130970000D03*
D17*
X326549000Y-130970000D03*
X316389000Y-130970000D03*
D18*
X324468547Y-134969954D02*
X325279453Y-133510046D01*
X318929276Y-136049328D02*
X318968724Y-135470672D01*
D20*
X72707500Y-68740000D03*
D21*
X70167500Y-68740000D03*
D20*
X91757500Y-68740000D03*
D21*
X89217500Y-68740000D03*
D20*
X110808000Y-68740000D03*
D21*
X108268000Y-68740000D03*
D20*
X129858000Y-68740000D03*
D21*
X127318000Y-68740000D03*
D20*
X148908000Y-68740000D03*
D21*
X146368000Y-68740000D03*
D20*
X167958000Y-68740000D03*
D21*
X165418000Y-68740000D03*
D20*
X187008000Y-68740000D03*
D21*
X184468000Y-68740000D03*
D20*
X206058000Y-68740000D03*
D21*
X203518000Y-68740000D03*
D20*
X225108000Y-68740000D03*
D21*
X222568000Y-68740000D03*
D20*
X244158000Y-68740000D03*
D21*
X241618000Y-68740000D03*
D20*
X263208000Y-68740000D03*
D21*
X260668000Y-68740000D03*
D20*
X282258000Y-68740000D03*
D21*
X279718000Y-68740000D03*
D20*
X301308000Y-68740000D03*
D21*
X298768000Y-68740000D03*
D20*
X320358000Y-68740000D03*
D21*
X317818000Y-68740000D03*
D20*
X339408000Y-68740000D03*
D21*
X336868000Y-68740000D03*
D20*
X77470000Y-87790000D03*
D21*
X74930000Y-87790000D03*
D20*
X101282000Y-87790000D03*
D21*
X98742000Y-87790000D03*
D20*
X120332000Y-87790000D03*
D21*
X117792000Y-87790000D03*
D20*
X139382000Y-87790000D03*
D21*
X136842000Y-87790000D03*
D20*
X158432000Y-87790000D03*
D21*
X155892000Y-87790000D03*
D20*
X177482000Y-87790000D03*
D21*
X174942000Y-87790000D03*
D20*
X196532000Y-87790000D03*
D21*
X193992000Y-87790000D03*
D20*
X215582000Y-87790000D03*
D21*
X213042000Y-87790000D03*
D20*
X234632000Y-87790000D03*
D21*
X232092000Y-87790000D03*
D20*
X253682000Y-87790000D03*
D21*
X251142000Y-87790000D03*
D20*
X272732000Y-87790000D03*
D21*
X270192000Y-87790000D03*
D20*
X291782000Y-87790000D03*
D21*
X289242000Y-87790000D03*
D20*
X310832000Y-87790000D03*
D21*
X308292000Y-87790000D03*
D20*
X334645000Y-87790000D03*
D21*
X332105000Y-87790000D03*
D20*
X79852500Y-106840000D03*
D21*
X77312500Y-106840000D03*
D20*
X106046000Y-106840000D03*
D21*
X103506000Y-106840000D03*
D20*
X125096000Y-106840000D03*
D21*
X122556000Y-106840000D03*
D20*
X144146000Y-106840000D03*
D21*
X141606000Y-106840000D03*
D20*
X163196000Y-106840000D03*
D21*
X160656000Y-106840000D03*
D20*
X182246000Y-106840000D03*
D21*
X179706000Y-106840000D03*
D20*
X201296000Y-106840000D03*
D21*
X198756000Y-106840000D03*
D20*
X220346000Y-106840000D03*
D21*
X217806000Y-106840000D03*
D20*
X239396000Y-106840000D03*
D21*
X236856000Y-106840000D03*
D20*
X258446000Y-106840000D03*
D21*
X255906000Y-106840000D03*
D20*
X277496000Y-106840000D03*
D21*
X274956000Y-106840000D03*
D20*
X296546000Y-106840000D03*
D21*
X294006000Y-106840000D03*
D20*
X327502000Y-106840000D03*
D21*
X324962000Y-106840000D03*
D20*
X84613800Y-125889000D03*
D21*
X82073800Y-125889000D03*
D20*
X115570000Y-125889000D03*
D21*
X113030000Y-125889000D03*
D20*
X134620000Y-125889000D03*
D21*
X132080000Y-125889000D03*
D20*
X153670000Y-125889000D03*
D21*
X151130000Y-125889000D03*
D20*
X172720000Y-125889000D03*
D21*
X170180000Y-125889000D03*
D20*
X191770000Y-125889000D03*
D21*
X189230000Y-125889000D03*
D20*
X210820000Y-125889000D03*
D21*
X208280000Y-125889000D03*
D20*
X229870000Y-125889000D03*
D21*
X227330000Y-125889000D03*
D20*
X248920000Y-125889000D03*
D21*
X246380000Y-125889000D03*
D20*
X267970000Y-125889000D03*
D21*
X265430000Y-125889000D03*
D20*
X287020000Y-125889000D03*
D21*
X284480000Y-125889000D03*
D20*
X313214000Y-125889000D03*
D21*
X310674000Y-125889000D03*
D20*
X339408000Y-125889000D03*
D21*
X336868000Y-125889000D03*
D20*
X75088800Y-144940000D03*
D21*
X72548800Y-144940000D03*
D20*
X98901200Y-144940000D03*
D21*
X96361200Y-144940000D03*
D20*
X122714000Y-144940000D03*
D21*
X120174000Y-144940000D03*
D20*
X194151000Y-144940000D03*
D21*
X191611000Y-144940000D03*
D20*
X265589000Y-144940000D03*
D21*
X263049000Y-144940000D03*
D20*
X289401000Y-144940000D03*
D21*
X286861000Y-144940000D03*
D20*
X310832000Y-144940000D03*
D21*
X308292000Y-144940000D03*
D20*
X334645000Y-144940000D03*
D21*
X332105000Y-144940000D03*
D20*
X322739000Y-125889000D03*
D21*
X320199000Y-125889000D03*
D20*
X74930000Y-144940000D03*
D21*
X77470000Y-144940000D03*
D20*
X98742000Y-144940000D03*
D21*
X101282000Y-144940000D03*
D20*
X122555000Y-144940000D03*
D21*
X125095000Y-144940000D03*
D20*
X193992000Y-144940000D03*
D21*
X196532000Y-144940000D03*
D20*
X265430000Y-144940000D03*
D21*
X267970000Y-144940000D03*
D20*
X289242000Y-144940000D03*
D21*
X291782000Y-144940000D03*
D20*
X310674000Y-144940000D03*
D21*
X313214000Y-144940000D03*
D20*
X334486000Y-144940000D03*
D21*
X337026000Y-144940000D03*
D16*
X333375000Y-150020000D03*
D17*
X338455000Y-150020000D03*
X328295000Y-150020000D03*
D18*
X336374547Y-154019954D02*
X337185453Y-152560046D01*
X330835276Y-155099328D02*
X330874724Y-154520672D01*
D16*
X309562000Y-150020000D03*
D17*
X314642000Y-150020000D03*
X304482000Y-150020000D03*
D18*
X312561547Y-154019954D02*
X313372453Y-152560046D01*
X307022276Y-155099328D02*
X307061724Y-154520672D01*
D16*
X288131000Y-150020000D03*
D17*
X293211000Y-150020000D03*
X283051000Y-150020000D03*
D18*
X291130547Y-154019954D02*
X291941453Y-152560046D01*
X285591276Y-155099328D02*
X285630724Y-154520672D01*
D16*
X264319000Y-150020000D03*
D17*
X269399000Y-150020000D03*
X259239000Y-150020000D03*
D18*
X267318547Y-154019954D02*
X268129453Y-152560046D01*
X261779276Y-155099328D02*
X261818724Y-154520672D01*
D16*
X192881000Y-150020000D03*
D17*
X197961000Y-150020000D03*
X187801000Y-150020000D03*
D18*
X195880547Y-154019954D02*
X196691453Y-152560046D01*
X190341276Y-155099328D02*
X190380724Y-154520672D01*
D16*
X121444000Y-150020000D03*
D17*
X126524000Y-150020000D03*
X116364000Y-150020000D03*
D18*
X124443547Y-154019954D02*
X125254453Y-152560046D01*
X118904276Y-155099328D02*
X118943724Y-154520672D01*
D16*
X97631200Y-150020000D03*
D17*
X102711200Y-150020000D03*
X92551200Y-150020000D03*
D18*
X100630747Y-154019954D02*
X101441653Y-152560046D01*
X95091476Y-155099328D02*
X95130924Y-154520672D01*
D16*
X73818800Y-150020000D03*
D17*
X78898800Y-150020000D03*
X68738800Y-150020000D03*
D18*
X76818347Y-154019954D02*
X77629253Y-152560046D01*
X71279076Y-155099328D02*
X71318524Y-154520672D01*
D16*
X338138000Y-130970000D03*
D17*
X343218000Y-130970000D03*
X333058000Y-130970000D03*
D18*
X341137547Y-134969954D02*
X341948453Y-133510046D01*
X335598276Y-136049328D02*
X335637724Y-135470672D01*
D16*
X311944000Y-130970000D03*
D17*
X317024000Y-130970000D03*
X306864000Y-130970000D03*
D18*
X314943547Y-134969954D02*
X315754453Y-133510046D01*
X309404276Y-136049328D02*
X309443724Y-135470672D01*
D16*
X285750000Y-130970000D03*
D17*
X290830000Y-130970000D03*
X280670000Y-130970000D03*
D18*
X288749547Y-134969954D02*
X289560453Y-133510046D01*
X283210276Y-136049328D02*
X283249724Y-135470672D01*
D16*
X266700000Y-130970000D03*
D17*
X271780000Y-130970000D03*
X261620000Y-130970000D03*
D18*
X269699547Y-134969954D02*
X270510453Y-133510046D01*
X264160276Y-136049328D02*
X264199724Y-135470672D01*
D16*
X247650000Y-130970000D03*
D17*
X252730000Y-130970000D03*
X242570000Y-130970000D03*
D18*
X250649547Y-134969954D02*
X251460453Y-133510046D01*
X245110276Y-136049328D02*
X245149724Y-135470672D01*
D16*
X228600000Y-130970000D03*
D17*
X233680000Y-130970000D03*
X223520000Y-130970000D03*
D18*
X231599547Y-134969954D02*
X232410453Y-133510046D01*
X226060276Y-136049328D02*
X226099724Y-135470672D01*
D16*
X209550000Y-130970000D03*
D17*
X214630000Y-130970000D03*
X204470000Y-130970000D03*
D18*
X212549547Y-134969954D02*
X213360453Y-133510046D01*
X207010276Y-136049328D02*
X207049724Y-135470672D01*
D16*
X190500000Y-130970000D03*
D17*
X195580000Y-130970000D03*
X185420000Y-130970000D03*
D18*
X193499547Y-134969954D02*
X194310453Y-133510046D01*
X187960276Y-136049328D02*
X187999724Y-135470672D01*
D16*
X171450000Y-130970000D03*
D17*
X176530000Y-130970000D03*
X166370000Y-130970000D03*
D18*
X174449547Y-134969954D02*
X175260453Y-133510046D01*
X168910276Y-136049328D02*
X168949724Y-135470672D01*
D16*
X152400000Y-130970000D03*
D17*
X157480000Y-130970000D03*
X147320000Y-130970000D03*
D18*
X155399547Y-134969954D02*
X156210453Y-133510046D01*
X149860276Y-136049328D02*
X149899724Y-135470672D01*
D16*
X133350000Y-130970000D03*
D17*
X138430000Y-130970000D03*
X128270000Y-130970000D03*
D18*
X136349547Y-134969954D02*
X137160453Y-133510046D01*
X130810276Y-136049328D02*
X130849724Y-135470672D01*
D16*
X114300000Y-130970000D03*
D17*
X119380000Y-130970000D03*
X109220000Y-130970000D03*
D18*
X117299547Y-134969954D02*
X118110453Y-133510046D01*
X111760276Y-136049328D02*
X111799724Y-135470672D01*
D16*
X83343800Y-130969000D03*
D17*
X88423800Y-130969000D03*
X78263800Y-130969000D03*
D18*
X86343347Y-134968954D02*
X87154253Y-133509046D01*
X80804076Y-136048328D02*
X80843524Y-135469672D01*
D16*
X326231000Y-111920000D03*
D17*
X331311000Y-111920000D03*
X321151000Y-111920000D03*
D18*
X329230547Y-115919954D02*
X330041453Y-114460046D01*
X323691276Y-116999328D02*
X323730724Y-116420672D01*
D16*
X295275000Y-111920000D03*
D17*
X300355000Y-111920000D03*
X290195000Y-111920000D03*
D18*
X298274547Y-115919954D02*
X299085453Y-114460046D01*
X292735276Y-116999328D02*
X292774724Y-116420672D01*
D16*
X276225000Y-111920000D03*
D17*
X281305000Y-111920000D03*
X271145000Y-111920000D03*
D18*
X279224547Y-115919954D02*
X280035453Y-114460046D01*
X273685276Y-116999328D02*
X273724724Y-116420672D01*
D16*
X257175000Y-111920000D03*
D17*
X262255000Y-111920000D03*
X252095000Y-111920000D03*
D18*
X260174547Y-115919954D02*
X260985453Y-114460046D01*
X254635276Y-116999328D02*
X254674724Y-116420672D01*
D16*
X238125000Y-111920000D03*
D17*
X243205000Y-111920000D03*
X233045000Y-111920000D03*
D18*
X241124547Y-115919954D02*
X241935453Y-114460046D01*
X235585276Y-116999328D02*
X235624724Y-116420672D01*
D16*
X219075000Y-111920000D03*
D17*
X224155000Y-111920000D03*
X213995000Y-111920000D03*
D18*
X222074547Y-115919954D02*
X222885453Y-114460046D01*
X216535276Y-116999328D02*
X216574724Y-116420672D01*
D16*
X200025000Y-111920000D03*
D17*
X205105000Y-111920000D03*
X194945000Y-111920000D03*
D18*
X203024547Y-115919954D02*
X203835453Y-114460046D01*
X197485276Y-116999328D02*
X197524724Y-116420672D01*
D16*
X180975000Y-111920000D03*
D17*
X186055000Y-111920000D03*
X175895000Y-111920000D03*
D18*
X183974547Y-115919954D02*
X184785453Y-114460046D01*
X178435276Y-116999328D02*
X178474724Y-116420672D01*
D16*
X161925000Y-111920000D03*
D17*
X167005000Y-111920000D03*
X156845000Y-111920000D03*
D18*
X164924547Y-115919954D02*
X165735453Y-114460046D01*
X159385276Y-116999328D02*
X159424724Y-116420672D01*
D16*
X142875000Y-111920000D03*
D17*
X147955000Y-111920000D03*
X137795000Y-111920000D03*
D18*
X145874547Y-115919954D02*
X146685453Y-114460046D01*
X140335276Y-116999328D02*
X140374724Y-116420672D01*
D16*
X123825000Y-111920000D03*
D17*
X128905000Y-111920000D03*
X118745000Y-111920000D03*
D18*
X126824547Y-115919954D02*
X127635453Y-114460046D01*
X121285276Y-116999328D02*
X121324724Y-116420672D01*
D16*
X104775000Y-111920000D03*
D17*
X109855000Y-111920000D03*
X99695000Y-111920000D03*
D18*
X107774547Y-115919954D02*
X108585453Y-114460046D01*
X102235276Y-116999328D02*
X102274724Y-116420672D01*
D16*
X78582500Y-111920000D03*
D17*
X83662500Y-111920000D03*
X73502500Y-111920000D03*
D18*
X81582047Y-115919954D02*
X82392953Y-114460046D01*
X76042776Y-116999328D02*
X76082224Y-116420672D01*
D16*
X333375000Y-92870000D03*
D17*
X338455000Y-92870000D03*
X328295000Y-92870000D03*
D18*
X336374547Y-96869954D02*
X337185453Y-95410046D01*
X330835276Y-97949328D02*
X330874724Y-97370672D01*
D16*
X309562000Y-92870000D03*
D17*
X314642000Y-92870000D03*
X304482000Y-92870000D03*
D18*
X312561547Y-96869954D02*
X313372453Y-95410046D01*
X307022276Y-97949328D02*
X307061724Y-97370672D01*
D16*
X290512000Y-92870000D03*
D17*
X295592000Y-92870000D03*
X285432000Y-92870000D03*
D18*
X293511547Y-96869954D02*
X294322453Y-95410046D01*
X287972276Y-97949328D02*
X288011724Y-97370672D01*
D16*
X271462000Y-92870000D03*
D17*
X276542000Y-92870000D03*
X266382000Y-92870000D03*
D18*
X274461547Y-96869954D02*
X275272453Y-95410046D01*
X268922276Y-97949328D02*
X268961724Y-97370672D01*
D16*
X252412000Y-92870000D03*
D17*
X257492000Y-92870000D03*
X247332000Y-92870000D03*
D18*
X255411547Y-96869954D02*
X256222453Y-95410046D01*
X249872276Y-97949328D02*
X249911724Y-97370672D01*
D16*
X233362000Y-92870000D03*
D17*
X238442000Y-92870000D03*
X228282000Y-92870000D03*
D18*
X236361547Y-96869954D02*
X237172453Y-95410046D01*
X230822276Y-97949328D02*
X230861724Y-97370672D01*
D16*
X214312000Y-92870000D03*
D17*
X219392000Y-92870000D03*
X209232000Y-92870000D03*
D18*
X217311547Y-96869954D02*
X218122453Y-95410046D01*
X211772276Y-97949328D02*
X211811724Y-97370672D01*
D16*
X195262000Y-92870000D03*
D17*
X200342000Y-92870000D03*
X190182000Y-92870000D03*
D18*
X198261547Y-96869954D02*
X199072453Y-95410046D01*
X192722276Y-97949328D02*
X192761724Y-97370672D01*
D16*
X176212000Y-92870000D03*
D17*
X181292000Y-92870000D03*
X171132000Y-92870000D03*
D18*
X179211547Y-96869954D02*
X180022453Y-95410046D01*
X173672276Y-97949328D02*
X173711724Y-97370672D01*
D16*
X157162000Y-92870000D03*
D17*
X162242000Y-92870000D03*
X152082000Y-92870000D03*
D18*
X160161547Y-96869954D02*
X160972453Y-95410046D01*
X154622276Y-97949328D02*
X154661724Y-97370672D01*
D16*
X138112000Y-92870000D03*
D17*
X143192000Y-92870000D03*
X133032000Y-92870000D03*
D18*
X141111547Y-96869954D02*
X141922453Y-95410046D01*
X135572276Y-97949328D02*
X135611724Y-97370672D01*
D16*
X119062000Y-92870000D03*
D17*
X124142000Y-92870000D03*
X113982000Y-92870000D03*
D18*
X122061547Y-96869954D02*
X122872453Y-95410046D01*
X116522276Y-97949328D02*
X116561724Y-97370672D01*
D16*
X100012000Y-92870000D03*
D17*
X105092000Y-92870000D03*
X94932000Y-92870000D03*
D18*
X103011547Y-96869954D02*
X103822453Y-95410046D01*
X97472276Y-97949328D02*
X97511724Y-97370672D01*
D16*
X76200000Y-92870000D03*
D17*
X81280000Y-92870000D03*
X71120000Y-92870000D03*
D18*
X79199547Y-96869954D02*
X80010453Y-95410046D01*
X73660276Y-97949328D02*
X73699724Y-97370672D01*
D16*
X338138000Y-73820000D03*
D17*
X343218000Y-73820000D03*
X333058000Y-73820000D03*
D18*
X341137547Y-77819954D02*
X341948453Y-76360046D01*
X335598276Y-78899328D02*
X335637724Y-78320672D01*
D16*
X319088000Y-73820000D03*
D17*
X324168000Y-73820000D03*
X314008000Y-73820000D03*
D18*
X322087547Y-77819954D02*
X322898453Y-76360046D01*
X316548276Y-78899328D02*
X316587724Y-78320672D01*
D16*
X300038000Y-73820000D03*
D17*
X305118000Y-73820000D03*
X294958000Y-73820000D03*
D18*
X303037547Y-77819954D02*
X303848453Y-76360046D01*
X297498276Y-78899328D02*
X297537724Y-78320672D01*
D16*
X280988000Y-73820000D03*
D17*
X286068000Y-73820000D03*
X275908000Y-73820000D03*
D18*
X283987547Y-77819954D02*
X284798453Y-76360046D01*
X278448276Y-78899328D02*
X278487724Y-78320672D01*
D16*
X261938000Y-73820000D03*
D17*
X267018000Y-73820000D03*
X256858000Y-73820000D03*
D18*
X264937547Y-77819954D02*
X265748453Y-76360046D01*
X259398276Y-78899328D02*
X259437724Y-78320672D01*
D16*
X242888000Y-73820000D03*
D17*
X247968000Y-73820000D03*
X237808000Y-73820000D03*
D18*
X245887547Y-77819954D02*
X246698453Y-76360046D01*
X240348276Y-78899328D02*
X240387724Y-78320672D01*
D16*
X223838000Y-73820000D03*
D17*
X228918000Y-73820000D03*
X218758000Y-73820000D03*
D18*
X226837547Y-77819954D02*
X227648453Y-76360046D01*
X221298276Y-78899328D02*
X221337724Y-78320672D01*
D16*
X204788000Y-73820000D03*
D17*
X209868000Y-73820000D03*
X199708000Y-73820000D03*
D18*
X207787547Y-77819954D02*
X208598453Y-76360046D01*
X202248276Y-78899328D02*
X202287724Y-78320672D01*
D16*
X185738000Y-73820000D03*
D17*
X190818000Y-73820000D03*
X180658000Y-73820000D03*
D18*
X188737547Y-77819954D02*
X189548453Y-76360046D01*
X183198276Y-78899328D02*
X183237724Y-78320672D01*
D16*
X166688000Y-73820000D03*
D17*
X171768000Y-73820000D03*
X161608000Y-73820000D03*
D18*
X169687547Y-77819954D02*
X170498453Y-76360046D01*
X164148276Y-78899328D02*
X164187724Y-78320672D01*
D16*
X147638000Y-73820000D03*
D17*
X152718000Y-73820000D03*
X142558000Y-73820000D03*
D18*
X150637547Y-77819954D02*
X151448453Y-76360046D01*
X145098276Y-78899328D02*
X145137724Y-78320672D01*
D16*
X128588000Y-73820000D03*
D17*
X133668000Y-73820000D03*
X123508000Y-73820000D03*
D18*
X131587547Y-77819954D02*
X132398453Y-76360046D01*
X126048276Y-78899328D02*
X126087724Y-78320672D01*
D16*
X109538000Y-73820000D03*
D17*
X114618000Y-73820000D03*
X104458000Y-73820000D03*
D18*
X112537547Y-77819954D02*
X113348453Y-76360046D01*
X106998276Y-78899328D02*
X107037724Y-78320672D01*
D16*
X90487500Y-73820000D03*
D17*
X95567500Y-73820000D03*
X85407500Y-73820000D03*
D18*
X93487047Y-77819954D02*
X94297953Y-76360046D01*
X87947776Y-78899328D02*
X87987224Y-78320672D01*
D16*
X71437500Y-73820000D03*
D17*
X76517500Y-73820000D03*
X66357500Y-73820000D03*
D18*
X74437047Y-77819954D02*
X75247953Y-76360046D01*
X68897776Y-78899328D02*
X68937224Y-78320672D01*
D20*
X329882000Y-68740000D03*
D21*
X327342000Y-68740000D03*
D22*
X182912000Y-139573000D03*
X180372000Y-139573000D03*
X177832000Y-139573000D03*
X175292000Y-139573000D03*
X172752000Y-139573000D03*
X170212000Y-139573000D03*
X167672000Y-139573000D03*
X165132000Y-139573000D03*
X162592000Y-139573000D03*
X160052000Y-139573000D03*
X157512000Y-139573000D03*
M02*
