M48
;DRILL file {KiCad (2016-01-20 BZR 6502, Git 4c1d9af)-product} date 2/15/2016 2:16:03 AM
;FORMAT={2:4/ absolute / inch / suppress leading zeros}
FMAT,2
INCH,TZ
T1C0.012
T2C0.026
T3C0.028
T4C0.039
T5C0.059
T6C0.098
%
G90
G05
M72
T1
X27486Y-28108
X34276Y-27996
X34769Y-41316
X35425Y-43875
X36370Y-51702
X37182Y-42807
X38438Y-49298
X39149Y-45648
X40417Y-53342
X40779Y-48935
X44563Y-54230
X46993Y-40413
X53451Y-50526
X56698Y-55570
X56755Y-56109
X59239Y-59840
X59997Y-41594
X60383Y-44507
X60526Y-58319
X60594Y-59066
X60845Y-59553
X61152Y-60581
X61181Y-35009
X61227Y-57341
X61421Y-59164
X61466Y-60695
X61472Y-59504
X61797Y-60698
X61979Y-56089
X61991Y-58408
X62249Y-60540
X62332Y-59537
X62384Y-57313
X62451Y-59213
X62850Y-57676
X62875Y-50464
X63004Y-56682
X63004Y-59988
X63357Y-57009
X63361Y-48301
X63839Y-57914
X63865Y-57172
X63996Y-59722
X64288Y-59559
X66917Y-57804
X67255Y-57815
X67276Y-58507
X67928Y-57028
X69119Y-47067
X69132Y-59600
X69538Y-59609
X69556Y-60138
X70017Y-59618
X70020Y-58077
X70675Y-54191
X71050Y-47675
X72804Y-56607
X72848Y-47858
X73642Y-56204
X73871Y-54257
X74269Y-56649
X78552Y-46047
X78641Y-57201
X79584Y-34061
X81628Y-50671
X84810Y-35393
X85813Y-59158
X85868Y-60616
X86327Y-35870
X86405Y-56007
X86480Y-55135
X87098Y-50686
X87100Y-61150
X87221Y-51159
X88432Y-50641
X88494Y-49367
X97396Y-34637
X99481Y-39079
X100780Y-34230
X102742Y-39310
X106959Y-29832
X110741Y-41572
T3
X27625Y-27063
X28563Y-57063
X28625Y-27063
X29500Y-34563
X29500Y-57063
X29563Y-57063
X30438Y-42063
X30500Y-34563
X30500Y-57063
X31438Y-42063
X32313Y-49563
X33313Y-49563
X35125Y-27063
X36125Y-27063
X37937Y-57063
X38875Y-34563
X38875Y-57063
X38937Y-57063
X39875Y-34563
X39875Y-57063
X40750Y-42063
X41750Y-42063
X42625Y-27063
X43625Y-27063
X44500Y-49563
X45500Y-49563
X46375Y-34563
X47313Y-57063
X47375Y-34563
X48250Y-57063
X48250Y-42063
X48313Y-57063
X49250Y-57063
X49250Y-42063
X50125Y-27063
X51125Y-27063
X52000Y-49563
X53000Y-49563
X53875Y-34563
X54875Y-34563
X55750Y-42063
X56750Y-42063
X57625Y-27063
X58625Y-27063
X59500Y-49563
X60500Y-49563
X61375Y-34563
X62375Y-34563
X63250Y-42063
X64250Y-42063
X65125Y-27063
X66125Y-27063
X67000Y-49563
X68000Y-49563
X68875Y-34563
X69875Y-34563
X70750Y-42063
X71750Y-42063
X72625Y-27063
X73625Y-27063
X74500Y-49563
X75437Y-57063
X75500Y-49563
X76375Y-34563
X76375Y-57063
X76437Y-57063
X77375Y-34563
X77375Y-57063
X78250Y-42063
X79250Y-42063
X80125Y-27063
X81125Y-27063
X82000Y-49563
X83000Y-49563
X83875Y-34563
X84875Y-34563
X85750Y-42063
X86750Y-42063
X87625Y-27063
X88625Y-27063
X89500Y-49563
X90500Y-49563
X91375Y-34563
X92375Y-34563
X93250Y-42063
X94250Y-42063
X95125Y-27063
X96125Y-27063
X97000Y-49563
X98000Y-49563
X98875Y-34563
X99875Y-34563
X100750Y-42063
X101750Y-42063
X102625Y-27063
X103563Y-57063
X103625Y-27063
X104500Y-49563
X104500Y-57063
X104563Y-57063
X105500Y-49563
X105500Y-57063
X106375Y-34563
X107375Y-34563
X108250Y-42063
X109250Y-42063
X110125Y-27063
X111125Y-27063
X112000Y-49563
X112937Y-57063
X113000Y-49563
X113875Y-34563
X113875Y-57063
X113937Y-57063
X114875Y-34563
X114875Y-57063
X115750Y-42063
X116750Y-42063
X117625Y-27063
X118625Y-27063
X121375Y-34563
X121375Y-57063
X122313Y-49563
X122313Y-57063
X122375Y-34563
X122375Y-57063
X123313Y-49563
X123313Y-57063
X125125Y-27063
X126063Y-49563
X126125Y-27063
X127063Y-49563
X127938Y-42063
X128875Y-27063
X128938Y-42063
X129875Y-27063
X130750Y-34563
X130750Y-57063
X131687Y-57063
X131750Y-34563
X131750Y-57063
X132625Y-27063
X132625Y-49563
X132687Y-57063
X133625Y-27063
X133625Y-49563
T4
X62013Y-54950
X63013Y-54950
X64013Y-54950
X65013Y-54950
X66013Y-54950
X67013Y-54950
X68013Y-54950
X69013Y-54950
X70013Y-54950
X71013Y-54950
X72013Y-54950
T6
X34295Y-36583
T2
X30260Y-26061G85X30260Y-25766
G05
X30260Y-27203G85X30260Y-26907
G05
X33134Y-26061G85X33134Y-25766
G05
X33134Y-27203G85X33134Y-26907
G05
T5
X27125Y-31063G85X27141Y-30835
G05
X28063Y-61063G85X28078Y-60835
G05
X29000Y-38563G85X29016Y-38335
G05
X29000Y-61063G85X29016Y-60835
G05
X29306Y-30638G85X29625Y-30063
G05
X29938Y-46063G85X29954Y-45835
G05
X30243Y-60638G85X30563Y-60063
G05
X31181Y-38138G85X31500Y-37563
G05
X31181Y-60638G85X31500Y-60063
G05
X31813Y-53562G85X31828Y-53335
G05
X32119Y-45638G85X32438Y-45063
G05
X33993Y-53137G85X34313Y-52563
G05
X34625Y-31063G85X34641Y-30835
G05
X36806Y-30638G85X37125Y-30063
G05
X37438Y-61063G85X37453Y-60835
G05
X38375Y-38563G85X38390Y-38335
G05
X38375Y-61063G85X38390Y-60835
G05
X39618Y-60638G85X39938Y-60063
G05
X40250Y-46063G85X40266Y-45835
G05
X40556Y-38138G85X40875Y-37563
G05
X40556Y-60638G85X40875Y-60063
G05
X42125Y-31063G85X42141Y-30835
G05
X42431Y-45638G85X42750Y-45063
G05
X44000Y-53563G85X44016Y-53335
G05
X44306Y-30638G85X44625Y-30063
G05
X45875Y-38563G85X45890Y-38335
G05
X46181Y-53138G85X46500Y-52563
G05
X46813Y-61063G85X46828Y-60835
G05
X47750Y-46063G85X47766Y-45835
G05
X47750Y-61063G85X47766Y-60835
G05
X48056Y-38138G85X48375Y-37563
G05
X48994Y-60638G85X49313Y-60063
G05
X49625Y-31063G85X49641Y-30835
G05
X49931Y-45638G85X50250Y-45063
G05
X49931Y-60638G85X50250Y-60063
G05
X51500Y-53563G85X51516Y-53335
G05
X51806Y-30638G85X52125Y-30063
G05
X53375Y-38563G85X53390Y-38335
G05
X53681Y-53138G85X54000Y-52563
G05
X55250Y-46063G85X55266Y-45835
G05
X55556Y-38138G85X55875Y-37563
G05
X57125Y-31063G85X57141Y-30835
G05
X57431Y-45638G85X57750Y-45063
G05
X59000Y-53563G85X59016Y-53335
G05
X59306Y-30638G85X59625Y-30063
G05
X60875Y-38563G85X60890Y-38335
G05
X61181Y-53138G85X61500Y-52563
G05
X62750Y-46063G85X62766Y-45835
G05
X63056Y-38138G85X63375Y-37563
G05
X64625Y-31063G85X64641Y-30835
G05
X64931Y-45638G85X65250Y-45063
G05
X66500Y-53563G85X66516Y-53335
G05
X66806Y-30638G85X67125Y-30063
G05
X68375Y-38563G85X68390Y-38335
G05
X68681Y-53138G85X69000Y-52563
G05
X70250Y-46063G85X70266Y-45835
G05
X70556Y-38138G85X70875Y-37563
G05
X72125Y-31063G85X72141Y-30835
G05
X72431Y-45638G85X72750Y-45063
G05
X74000Y-53563G85X74016Y-53335
G05
X74306Y-30638G85X74625Y-30063
G05
X74938Y-61063G85X74953Y-60835
G05
X75875Y-38563G85X75890Y-38335
G05
X75875Y-61063G85X75890Y-60835
G05
X76181Y-53138G85X76500Y-52563
G05
X77118Y-60638G85X77438Y-60063
G05
X77750Y-46063G85X77766Y-45835
G05
X78056Y-38138G85X78375Y-37563
G05
X78056Y-60638G85X78375Y-60063
G05
X79625Y-31063G85X79641Y-30835
G05
X79931Y-45638G85X80250Y-45063
G05
X81500Y-53563G85X81516Y-53335
G05
X81806Y-30638G85X82125Y-30063
G05
X83375Y-38563G85X83390Y-38335
G05
X83681Y-53138G85X84000Y-52563
G05
X85250Y-46063G85X85266Y-45835
G05
X85556Y-38138G85X85875Y-37563
G05
X87125Y-31063G85X87141Y-30835
G05
X87431Y-45638G85X87750Y-45063
G05
X89000Y-53563G85X89016Y-53335
G05
X89306Y-30638G85X89625Y-30063
G05
X90875Y-38563G85X90890Y-38335
G05
X91181Y-53138G85X91500Y-52563
G05
X92750Y-46063G85X92766Y-45835
G05
X93056Y-38138G85X93375Y-37563
G05
X94625Y-31063G85X94641Y-30835
G05
X94931Y-45638G85X95250Y-45063
G05
X96500Y-53563G85X96516Y-53335
G05
X96806Y-30638G85X97125Y-30063
G05
X98375Y-38563G85X98390Y-38335
G05
X98681Y-53138G85X99000Y-52563
G05
X100250Y-46063G85X100266Y-45835
G05
X100556Y-38138G85X100875Y-37563
G05
X102125Y-31063G85X102141Y-30835
G05
X102431Y-45638G85X102750Y-45063
G05
X103063Y-61063G85X103078Y-60835
G05
X104000Y-53563G85X104016Y-53335
G05
X104000Y-61063G85X104016Y-60835
G05
X104306Y-30638G85X104625Y-30063
G05
X105244Y-60638G85X105563Y-60063
G05
X105875Y-38563G85X105890Y-38335
G05
X106181Y-53138G85X106500Y-52563
G05
X106181Y-60638G85X106500Y-60063
G05
X107750Y-46063G85X107766Y-45835
G05
X108056Y-38138G85X108375Y-37563
G05
X109625Y-31063G85X109641Y-30835
G05
X109931Y-45638G85X110250Y-45063
G05
X111500Y-53563G85X111516Y-53335
G05
X111806Y-30638G85X112125Y-30063
G05
X112438Y-61063G85X112453Y-60835
G05
X113375Y-38563G85X113390Y-38335
G05
X113375Y-61063G85X113390Y-60835
G05
X113681Y-53138G85X114000Y-52563
G05
X114618Y-60638G85X114938Y-60063
G05
X115250Y-46063G85X115266Y-45835
G05
X115556Y-38138G85X115875Y-37563
G05
X115556Y-60638G85X115875Y-60063
G05
X117125Y-31063G85X117141Y-30835
G05
X117431Y-45638G85X117750Y-45063
G05
X119306Y-30638G85X119625Y-30063
G05
X120875Y-38563G85X120890Y-38335
G05
X120875Y-61063G85X120890Y-60835
G05
X121808Y-61063G85X121823Y-60835
G05
X121813Y-53563G85X121828Y-53335
G05
X123056Y-38138G85X123375Y-37563
G05
X123056Y-60638G85X123375Y-60063
G05
X123988Y-60638G85X124308Y-60063
G05
X123994Y-53138G85X124313Y-52563
G05
X124625Y-31063G85X124641Y-30835
G05
X125563Y-53563G85X125578Y-53335
G05
X126806Y-30638G85X127125Y-30063
G05
X127438Y-46063G85X127453Y-45835
G05
X127744Y-53138G85X128063Y-52563
G05
X128375Y-31063G85X128391Y-30835
G05
X129618Y-45638G85X129938Y-45063
G05
X130250Y-38563G85X130266Y-38335
G05
X130250Y-61063G85X130266Y-60835
G05
X130556Y-30638G85X130875Y-30063
G05
X131183Y-61063G85X131198Y-60835
G05
X132125Y-31063G85X132141Y-30835
G05
X132125Y-53563G85X132141Y-53335
G05
X132431Y-38138G85X132750Y-37563
G05
X132431Y-60638G85X132750Y-60063
G05
X133364Y-60638G85X133683Y-60063
G05
X134306Y-30638G85X134625Y-30063
G05
X134306Y-53138G85X134625Y-52563
G05
T6
X24212Y-47843G85X25984Y-47843
G05
X74509Y-44063G85X75494Y-44063
G05
X98991Y-59142G85X99976Y-59142
G05
X126256Y-36583G85X127241Y-36583
G05
X135268Y-47843G85X137040Y-47843
G05
T0
M30
