M48
;DRILL file {KiCad (2016-01-20 BZR 6502, Git 4c1d9af)-product} date 2/15/2016 2:16:03 AM
;FORMAT={2:4/ absolute / inch / suppress leading zeros}
FMAT,2
INCH,TZ
T1C0.039
T2C0.067
T3C0.093
T4C0.157
%
G90
G05
M72
T1
X67875Y-58663
X67875Y-59463
X70875Y-59063
T2
X26125Y-29063
X27063Y-59063
X28000Y-36563
X28000Y-59063
X28938Y-44063
X30125Y-29063
X30813Y-51563
X31063Y-59063
X32000Y-36563
X32000Y-59063
X32938Y-44063
X33625Y-29063
X34813Y-51563
X36437Y-59063
X37375Y-36563
X37375Y-59063
X37625Y-29063
X39250Y-44063
X40437Y-59063
X41125Y-29063
X41375Y-36563
X41375Y-59063
X43000Y-51563
X43250Y-44063
X44875Y-36563
X45125Y-29063
X45813Y-59063
X46750Y-44063
X46750Y-59063
X47000Y-51563
X48625Y-29063
X48875Y-36563
X49813Y-59063
X50500Y-51563
X50750Y-44063
X50750Y-59063
X52375Y-36563
X52625Y-29063
X54250Y-44063
X54500Y-51563
X56125Y-29063
X56375Y-36563
X58000Y-51563
X58250Y-44063
X59875Y-36563
X60125Y-29063
X61750Y-44063
X62000Y-51563
X63625Y-29063
X63875Y-36563
X65500Y-51563
X65750Y-44063
X67375Y-36563
X67625Y-29063
X69250Y-44063
X69500Y-51563
X71125Y-29063
X71375Y-36563
X73000Y-51563
X73250Y-44063
X73937Y-59063
X74875Y-36563
X74875Y-59063
X75125Y-29063
X76750Y-44063
X77000Y-51563
X77937Y-59063
X78625Y-29063
X78875Y-36563
X78875Y-59063
X80500Y-51563
X80750Y-44063
X82375Y-36563
X82625Y-29063
X84250Y-44063
X84500Y-51563
X86125Y-29063
X86375Y-36563
X88000Y-51563
X88250Y-44063
X89875Y-36563
X90125Y-29063
X91750Y-44063
X92000Y-51563
X93625Y-29063
X93875Y-36563
X95500Y-51563
X95750Y-44063
X97375Y-36563
X97625Y-29063
X99250Y-44063
X99500Y-51563
X101125Y-29063
X101375Y-36563
X102063Y-59063
X103000Y-51563
X103000Y-59063
X103250Y-44063
X104875Y-36563
X105125Y-29063
X106063Y-59063
X106750Y-44063
X107000Y-51563
X107000Y-59063
X108625Y-29063
X108875Y-36563
X110500Y-51563
X110750Y-44063
X111437Y-59063
X112375Y-36563
X112375Y-59063
X112625Y-29063
X114250Y-44063
X114500Y-51563
X115437Y-59063
X116125Y-29063
X116375Y-36563
X116375Y-59063
X118250Y-44063
X119875Y-36563
X119875Y-59063
X120125Y-29063
X120807Y-59063
X120813Y-51563
X123625Y-29063
X123875Y-36563
X123875Y-59063
X124563Y-51563
X124807Y-59063
X124813Y-51563
X126437Y-44063
X127375Y-29063
X127625Y-29063
X128563Y-51563
X129250Y-36563
X129250Y-59063
X130183Y-59063
X130437Y-44063
X131125Y-29063
X131125Y-51563
X131375Y-29063
X133250Y-36563
X133250Y-59063
X134183Y-59063
X135125Y-29063
X135125Y-51563
T3
X68625Y-58063
X68625Y-60063
X70875Y-58063
X70875Y-60063
T4
X28125Y-29063
X29063Y-59063
X30000Y-36563
X30000Y-59063
X30938Y-44063
X32813Y-51563
X35625Y-29063
X38437Y-59063
X39375Y-36563
X39375Y-59063
X41250Y-44063
X43125Y-29063
X45000Y-51563
X46875Y-36563
X47813Y-59063
X48750Y-44063
X48750Y-59063
X50625Y-29063
X52500Y-51563
X54375Y-36563
X56250Y-44063
X58125Y-29063
X60000Y-51563
X61875Y-36563
X63750Y-44063
X65625Y-29063
X67500Y-51563
X69375Y-36563
X71250Y-44063
X73125Y-29063
X75000Y-51563
X75937Y-59063
X76875Y-36563
X76875Y-59063
X78750Y-44063
X80625Y-29063
X82500Y-51563
X84375Y-36563
X86250Y-44063
X88125Y-29063
X90000Y-51563
X91875Y-36563
X93750Y-44063
X95625Y-29063
X97500Y-51563
X99375Y-36563
X101250Y-44063
X103125Y-29063
X104063Y-59063
X105000Y-51563
X105000Y-59063
X106875Y-36563
X108750Y-44063
X110625Y-29063
X112500Y-51563
X113437Y-59063
X114375Y-36563
X114375Y-59063
X116250Y-44063
X118125Y-29063
X121875Y-36563
X121875Y-59063
X122807Y-59063
X122813Y-51563
X125625Y-29063
X126563Y-51563
X128437Y-44063
X129375Y-29063
X131250Y-36563
X131250Y-59063
X132183Y-59063
X133125Y-29063
X133125Y-51563
T0
M30
