M48
INCH,TZ
T1C0.012
T2C0.026
T3C0.039
T4C0.059
T5C0.098
%
G90
G05
T1
X32691Y-31774
X32948Y-31353
X33480Y-31684
X33663Y-32049
X37275Y-52549
X42716Y-53058
X45215Y-52820
X47731Y-52659
X48444Y-41337
X48996Y-55301
X50430Y-52342
X53474Y-44297
X55806Y-42293
X58975Y-45159
X59222Y-58740
X60239Y-31137
X60663Y-61865
X60798Y-31872
X60833Y-56098
X60893Y-57807
X61102Y-59162
X61105Y-59506
X61121Y-61243
X61256Y-55727
X61331Y-57394
X61540Y-57694
X61622Y-55742
X62272Y-59350
X62607Y-58107
X62614Y-60777
X62659Y-58930
X62892Y-57878
X63585Y-38002
X64273Y-58593
X65450Y-58750
X66385Y-59366
X70244Y-59754
X70780Y-58379
X77007Y-29031
X78478Y-37329
X92617Y-26524
X108390Y-45293
T3
X35672Y-43057
X35672Y-44057
X35672Y-45057
X35672Y-46057
X67396Y-57163
X67396Y-58163
T5
X34295Y-36583
T2
X30260Y-26061G85X30260Y-25766
G05
X30260Y-27203G85X30260Y-26907
G05
X33134Y-26061G85X33134Y-25766
G05
X33134Y-27203G85X33134Y-26907
G05
T4
X26944Y-27488G85X26625Y-28063
G05
X27887Y-57488G85X27567Y-58063
G05
X28819Y-34988G85X28500Y-35563
G05
X28819Y-57488G85X28500Y-58063
G05
X29125Y-27063G85X29109Y-27291
G05
X29757Y-42488G85X29438Y-43063
G05
X30067Y-57063G85X30052Y-57291
G05
X31000Y-34563G85X30984Y-34791
G05
X31000Y-57063G85X30984Y-57291
G05
X31632Y-49988G85X31312Y-50563
G05
X31938Y-42063G85X31922Y-42291
G05
X33812Y-49563G85X33797Y-49791
G05
X34444Y-27488G85X34125Y-28063
G05
X36625Y-27063G85X36609Y-27291
G05
X37257Y-57488G85X36937Y-58063
G05
X38194Y-34988G85X37875Y-35563
G05
X38194Y-57488G85X37875Y-58063
G05
X39437Y-57063G85X39422Y-57291
G05
X40069Y-42488G85X39750Y-43063
G05
X40375Y-34563G85X40359Y-34791
G05
X40375Y-57063G85X40359Y-57291
G05
X41944Y-27488G85X41625Y-28063
G05
X42250Y-42063G85X42234Y-42291
G05
X43819Y-49988G85X43500Y-50563
G05
X44125Y-27063G85X44110Y-27291
G05
X45694Y-34988G85X45375Y-35563
G05
X46000Y-49563G85X45984Y-49791
G05
X46632Y-57488G85X46312Y-58063
G05
X47569Y-57488G85X47249Y-58063
G05
X47569Y-42488G85X47250Y-43063
G05
X47875Y-34563G85X47859Y-34791
G05
X48812Y-57063G85X48797Y-57291
G05
X49444Y-27488G85X49125Y-28063
G05
X49749Y-57063G85X49734Y-57291
G05
X49750Y-42063G85X49734Y-42291
G05
X51319Y-49988G85X51000Y-50563
G05
X51625Y-27063G85X51610Y-27291
G05
X53194Y-34988G85X52875Y-35563
G05
X53500Y-49563G85X53484Y-49791
G05
X55069Y-42488G85X54750Y-43063
G05
X55375Y-34563G85X55359Y-34791
G05
X56944Y-27488G85X56625Y-28063
G05
X57250Y-42063G85X57234Y-42291
G05
X58819Y-49988G85X58500Y-50563
G05
X59125Y-27063G85X59110Y-27291
G05
X60694Y-34988G85X60375Y-35563
G05
X61000Y-49563G85X60984Y-49791
G05
X62569Y-42488G85X62250Y-43063
G05
X62875Y-34563G85X62859Y-34791
G05
X64444Y-27488G85X64125Y-28063
G05
X64750Y-42063G85X64734Y-42291
G05
X66319Y-49988G85X66000Y-50563
G05
X66625Y-27063G85X66610Y-27291
G05
X68194Y-34988G85X67875Y-35563
G05
X68500Y-49563G85X68484Y-49791
G05
X70069Y-42488G85X69750Y-43063
G05
X70375Y-34563G85X70359Y-34791
G05
X71944Y-27488G85X71625Y-28063
G05
X72250Y-42063G85X72234Y-42291
G05
X73819Y-49988G85X73500Y-50563
G05
X74125Y-27063G85X74110Y-27291
G05
X74754Y-57488G85X74435Y-58063
G05
X75694Y-34988G85X75375Y-35563
G05
X75694Y-57488G85X75375Y-58063
G05
X76000Y-49563G85X75984Y-49791
G05
X76935Y-57063G85X76919Y-57291
G05
X77569Y-42488G85X77250Y-43063
G05
X77875Y-34563G85X77859Y-34791
G05
X77875Y-57063G85X77859Y-57291
G05
X79444Y-27488G85X79125Y-28063
G05
X79750Y-42063G85X79734Y-42291
G05
X81319Y-49988G85X81000Y-50563
G05
X81625Y-27063G85X81610Y-27291
G05
X83194Y-34988G85X82875Y-35563
G05
X83500Y-49563G85X83484Y-49791
G05
X85069Y-42488G85X84750Y-43063
G05
X85375Y-34563G85X85359Y-34791
G05
X86944Y-27488G85X86625Y-28063
G05
X87250Y-42063G85X87234Y-42291
G05
X88819Y-49988G85X88500Y-50563
G05
X89125Y-27063G85X89110Y-27291
G05
X90694Y-34988G85X90375Y-35563
G05
X91000Y-49563G85X90984Y-49791
G05
X92569Y-42488G85X92250Y-43063
G05
X92875Y-34563G85X92859Y-34791
G05
X94444Y-27488G85X94125Y-28063
G05
X94750Y-42063G85X94734Y-42291
G05
X96319Y-49988G85X96000Y-50563
G05
X96625Y-27063G85X96610Y-27291
G05
X98194Y-34988G85X97875Y-35563
G05
X98500Y-49563G85X98484Y-49791
G05
X100069Y-42488G85X99750Y-43063
G05
X100375Y-34563G85X100359Y-34791
G05
X101944Y-27488G85X101625Y-28063
G05
X102250Y-42063G85X102234Y-42291
G05
X102877Y-57488G85X102557Y-58063
G05
X103819Y-49988G85X103500Y-50563
G05
X103819Y-57488G85X103500Y-58063
G05
X104125Y-27063G85X104110Y-27291
G05
X105057Y-57063G85X105042Y-57291
G05
X105694Y-34988G85X105375Y-35563
G05
X106000Y-49563G85X105984Y-49791
G05
X106000Y-57063G85X105984Y-57291
G05
X107569Y-42488G85X107250Y-43063
G05
X107875Y-34563G85X107859Y-34791
G05
X109444Y-27488G85X109125Y-28063
G05
X109750Y-42063G85X109734Y-42291
G05
X111319Y-49988G85X111000Y-50563
G05
X111625Y-27063G85X111610Y-27291
G05
X112252Y-57488G85X111932Y-58063
G05
X113194Y-34988G85X112875Y-35563
G05
X113194Y-57488G85X112875Y-58063
G05
X113500Y-49563G85X113484Y-49791
G05
X114433Y-57063G85X114417Y-57291
G05
X115069Y-42488G85X114750Y-43063
G05
X115375Y-34563G85X115359Y-34791
G05
X115375Y-57063G85X115359Y-57291
G05
X116944Y-27488G85X116625Y-28063
G05
X117250Y-42063G85X117234Y-42291
G05
X119125Y-27063G85X119110Y-27291
G05
X120694Y-34988G85X120375Y-35563
G05
X120694Y-57488G85X120375Y-58063
G05
X121627Y-57488G85X121307Y-58063
G05
X121632Y-49988G85X121312Y-50563
G05
X122875Y-34563G85X122859Y-34791
G05
X122875Y-57063G85X122859Y-57291
G05
X123807Y-57063G85X123792Y-57291
G05
X123812Y-49563G85X123797Y-49791
G05
X124444Y-27488G85X124125Y-28063
G05
X126625Y-27063G85X126610Y-27291
G05
X127256Y-42488G85X126937Y-43063
G05
X128194Y-27488G85X127875Y-28063
G05
X129437Y-42063G85X129422Y-42291
G05
X130069Y-34988G85X129750Y-35563
G05
X130069Y-57488G85X129750Y-58063
G05
X130375Y-27063G85X130360Y-27291
G05
X131002Y-57488G85X130682Y-58063
G05
X131944Y-27488G85X131625Y-28063
G05
X131944Y-49988G85X131625Y-50563
G05
X132250Y-34563G85X132234Y-34791
G05
X132250Y-57063G85X132234Y-57291
G05
X133183Y-57063G85X133167Y-57291
G05
X134125Y-27063G85X134110Y-27291
G05
X134125Y-49563G85X134110Y-49791
G05
T5
X24212Y-47843G85X25984Y-47843
G05
X74509Y-44063G85X75494Y-44063
G05
X98991Y-59142G85X99976Y-59142
G05
X126256Y-36583G85X127241Y-36583
G05
X135268Y-47843G85X137040Y-47843
G05
T0
M30
