M48
;DRILL file {KiCad (2016-03-18 BZR 6629, Git 60d93d0)-product} date 7/17/2016 1:38:51 PM
;FORMAT={2:4/ absolute / inch / suppress leading zeros}
FMAT,2
INCH,TZ
T1C0.028
T2C0.033
T3C0.039
T4C0.067
T5C0.093
T6C0.157
%
G90
G05
M72
T1
X45117Y-12810
T2
X7243Y-15203
X23070Y-15203
T3
X40300Y-52650
X40300Y-53450
X43300Y-53050
T4
X8175Y-19530
X8175Y-27029
X8175Y-34529
X8175Y-42029
X10050Y-49529
X12175Y-19530
X12175Y-27029
X12175Y-34529
X12175Y-42029
X14050Y-49529
X17550Y-19530
X17550Y-27029
X17550Y-34529
X17550Y-42029
X17550Y-49529
X21550Y-19530
X21550Y-27029
X21550Y-34529
X21550Y-42029
X21550Y-49529
X25050Y-18279
X25050Y-25779
X25050Y-33279
X25050Y-40779
X25050Y-48279
X29050Y-18279
X29050Y-25779
X29050Y-33279
X29050Y-40779
X29050Y-48279
X32550Y-17650
X32550Y-25150
X32550Y-32650
X32550Y-40150
X32550Y-47650
X36550Y-17650
X36550Y-25150
X36550Y-32650
X36550Y-40150
X36550Y-47650
X40050Y-18279
X40050Y-25779
X40050Y-33279
X40050Y-40779
X40050Y-48279
X44050Y-18279
X44050Y-25779
X44050Y-33279
X44050Y-40779
X44050Y-48279
X47550Y-18780
X47550Y-26279
X47550Y-41279
X47554Y-33775
X51550Y-18780
X51550Y-26279
X51550Y-41279
X51554Y-33775
X52696Y-55224
X54386Y-51599
X55050Y-18780
X57050Y-26154
X57050Y-30154
X57050Y-37404
X57050Y-41404
X59050Y-18780
X59493Y-58395
X61183Y-54769
X63280Y-45541
X63737Y-62305
X66905Y-47231
X66907Y-55507
X67363Y-63995
X70076Y-48710
X70533Y-57197
X73702Y-50400
T5
X41050Y-52050
X41050Y-54050
X43300Y-52050
X43300Y-54050
T6
X10175Y-19530
X10175Y-27029
X10175Y-34529
X10175Y-42029
X12050Y-49529
X19550Y-19530
X19550Y-27029
X19550Y-34529
X19550Y-42029
X19550Y-49529
X27050Y-18279
X27050Y-25779
X27050Y-33279
X27050Y-40779
X27050Y-48279
X34550Y-17650
X34550Y-25150
X34550Y-32650
X34550Y-40150
X34550Y-47650
X42050Y-18279
X42050Y-25779
X42050Y-33279
X42050Y-40779
X42050Y-48279
X49550Y-18780
X49550Y-26279
X49550Y-41279
X49554Y-33775
X53541Y-53412
X57050Y-18780
X57050Y-28154
X57050Y-39404
X60338Y-56582
X65092Y-46386
X65550Y-63150
X68720Y-56352
X71889Y-49555
T1
X42332Y-12810G85X42233Y-12810
G05
T0
M30
