M48
;DRILL file {KiCad (2016-03-18 BZR 6629, Git 60d93d0)-product} date 7/17/2016 1:38:51 PM
;FORMAT={2:4/ absolute / inch / suppress leading zeros}
FMAT,2
INCH,TZ
T1C0.008
T2C0.012
T3C0.016
T4C0.024
T5C0.028
T6C0.031
T7C0.035
T8C0.039
T9C0.059
%
G90
G05
M72
T1
X19757Y-24490
X21381Y-16808
X21717Y-17400
X27476Y-29939
X27657Y-30689
X35349Y-39183
X35371Y-46663
X38844Y-34911
X40613Y-53034
X42087Y-54300
X42174Y-52120
X42189Y-38518
X42346Y-53596
X42800Y-13450
X43021Y-13452
X43195Y-47615
X43391Y-13457
X43519Y-46590
X43637Y-13519
X44350Y-13550
X44600Y-13550
X45063Y-53714
X45612Y-50220
X45956Y-45767
X46043Y-50748
X46310Y-50706
X46927Y-47214
X46928Y-45662
X46928Y-46814
X47051Y-47431
X47220Y-51093
X48188Y-47302
X48267Y-51059
X48346Y-47496
X49226Y-35666
X49307Y-50127
X49418Y-51012
X49743Y-50163
X49961Y-49773
X50685Y-48902
X50861Y-48636
X50874Y-24900
X52075Y-49970
X52200Y-45778
X52314Y-46005
X52550Y-25050
X52573Y-28432
X52970Y-49140
X53093Y-48058
X53304Y-47905
X53311Y-49597
X53770Y-49145
X54094Y-48491
X54206Y-49607
X54301Y-46030
X54400Y-52250
X54424Y-55205
X54600Y-42900
X54785Y-49145
X54800Y-53100
X54850Y-43000
X55050Y-44050
X55094Y-45472
X55100Y-43100
X55149Y-52856
X55202Y-46079
X55205Y-46461
X55250Y-44300
X55563Y-51848
X55676Y-52074
X55716Y-48556
X55822Y-48328
X56060Y-47800
X56063Y-50138
X56136Y-52359
X56213Y-48217
X56264Y-47968
X56904Y-48938
X57339Y-47524
X57735Y-51230
X57758Y-50310
X57780Y-47489
X57785Y-47228
X57983Y-49971
X58033Y-47256
X58095Y-50195
X58235Y-47065
X58267Y-35720
X58554Y-41245
T2
X43163Y-53387
X44637Y-14082
X44850Y-13550
X45386Y-50396
X50816Y-46880
X51160Y-45925
X51795Y-25615
X52039Y-15242
X52773Y-49480
X54095Y-43385
X54400Y-15242
X54715Y-35720
X55693Y-49852
X55883Y-49964
X56017Y-54141
X56153Y-43700
X56542Y-43861
X56700Y-43402
X57244Y-43752
X57380Y-50178
X58644Y-36709
T3
X42598Y-12593
X42755Y-12279
X43070Y-12279
X43169Y-12593
X43385Y-12279
X43543Y-12593
X43857Y-12593
X44015Y-12279
X44231Y-12593
X44330Y-12279
X44645Y-12279
X44802Y-12593
T5
X10432Y-15203
X11022Y-15203
X11613Y-15203
X12204Y-15203
X12794Y-15203
X13385Y-15203
X13975Y-15203
X14566Y-15203
X15156Y-15203
X15747Y-15203
X16337Y-15203
X16928Y-15203
X17519Y-15203
X18109Y-15203
X18700Y-15203
X19290Y-15203
X19881Y-15203
T6
X9675Y-17530
X9675Y-25029
X9675Y-32529
X9675Y-40029
X10675Y-17530
X10675Y-25029
X10675Y-32529
X10675Y-40029
X11550Y-47529
X12550Y-47529
X19050Y-47529
X19050Y-17530
X19050Y-25029
X19050Y-32529
X19050Y-40029
X20050Y-47529
X20050Y-17530
X20050Y-25029
X20050Y-32529
X20050Y-40029
X26550Y-16279
X26550Y-23779
X26550Y-31279
X26550Y-38779
X26550Y-46279
X27550Y-16279
X27550Y-23779
X27550Y-31279
X27550Y-38779
X27550Y-46279
X34050Y-15650
X34050Y-23150
X34050Y-30650
X34050Y-38150
X34050Y-45650
X35050Y-15650
X35050Y-23150
X35050Y-30650
X35050Y-38150
X35050Y-45650
X41550Y-16279
X41550Y-23779
X41550Y-31279
X41550Y-38779
X41550Y-46279
X42550Y-16279
X42550Y-23779
X42550Y-31279
X42550Y-38779
X42550Y-46279
X49050Y-16780
X49050Y-24279
X49050Y-39279
X49054Y-31775
X50050Y-16780
X50050Y-24279
X50050Y-39279
X50054Y-31775
X55142Y-54710
X55564Y-53804
X56550Y-16780
X57550Y-16780
X59050Y-27654
X59050Y-28654
X59050Y-38904
X59050Y-39904
X61939Y-57880
X62361Y-56974
X65485Y-44362
X65942Y-61126
X66391Y-44784
X66848Y-61549
X69112Y-54328
X70018Y-54751
X72282Y-47531
X73188Y-47953
T8
X44150Y-55669
X45056Y-56092
X45962Y-56514
X46868Y-56937
X47775Y-57360
X48681Y-57782
X49587Y-58205
X50494Y-58627
X51400Y-59050
X52306Y-59473
X53213Y-59895
X54119Y-60318
X55025Y-60740
X55932Y-61163
X56838Y-61586
X57744Y-62008
X58650Y-62431
T4
X41417Y-10999G85X41417Y-10605
G05
X41810Y-12633G85X41810Y-12298
G05
X45590Y-12613G85X45590Y-12279
G05
X45983Y-10999G85X45983Y-10605
G05
X50190Y-14708G85X50190Y-14078
G05
X56410Y-14708G85X56410Y-14078
G05
T7
X8129Y-14435G85X8562Y-14435
G05
X9310Y-14435G85X9743Y-14435
G05
X20570Y-14435G85X21003Y-14435
G05
X21751Y-14435G85X22184Y-14435
G05
T9
X9175Y-21530G85X9191Y-21302
G05
X9175Y-29029G85X9191Y-28801
G05
X9175Y-36529G85X9191Y-36301
G05
X9175Y-44029G85X9191Y-43801
G05
X11050Y-51529G85X11066Y-51301
G05
X11356Y-21105G85X11675Y-20530
G05
X11356Y-28604G85X11675Y-28029
G05
X11356Y-36104G85X11675Y-35529
G05
X11356Y-43604G85X11675Y-43029
G05
X13231Y-51104G85X13550Y-50529
G05
X18550Y-21530G85X18566Y-21302
G05
X18550Y-29029G85X18566Y-28801
G05
X18550Y-36529G85X18566Y-36301
G05
X18550Y-44029G85X18566Y-43801
G05
X18550Y-51529G85X18566Y-51301
G05
X20731Y-21105G85X21050Y-20530
G05
X20731Y-28604G85X21050Y-28029
G05
X20731Y-36104G85X21050Y-35529
G05
X20731Y-43604G85X21050Y-43029
G05
X20731Y-51104G85X21050Y-50529
G05
X26050Y-20279G85X26066Y-20051
G05
X26050Y-27779G85X26066Y-27551
G05
X26050Y-35279G85X26066Y-35051
G05
X26050Y-42779G85X26066Y-42551
G05
X26050Y-50279G85X26066Y-50051
G05
X28231Y-19854G85X28550Y-19279
G05
X28231Y-27354G85X28550Y-26779
G05
X28231Y-34854G85X28550Y-34279
G05
X28231Y-42354G85X28550Y-41779
G05
X28231Y-49854G85X28550Y-49279
G05
X33550Y-19650G85X33566Y-19422
G05
X33550Y-27150G85X33566Y-26922
G05
X33550Y-34650G85X33566Y-34422
G05
X33550Y-42150G85X33566Y-41922
G05
X33550Y-49650G85X33566Y-49422
G05
X35731Y-19225G85X36050Y-18650
G05
X35731Y-26725G85X36050Y-26150
G05
X35731Y-34225G85X36050Y-33650
G05
X35731Y-41725G85X36050Y-41150
G05
X35731Y-49225G85X36050Y-48650
G05
X41050Y-20279G85X41066Y-20051
G05
X41050Y-27779G85X41066Y-27551
G05
X41050Y-35279G85X41066Y-35051
G05
X41050Y-42779G85X41066Y-42551
G05
X41050Y-50279G85X41066Y-50051
G05
X43231Y-19854G85X43550Y-19279
G05
X43231Y-27354G85X43550Y-26779
G05
X43231Y-34854G85X43550Y-34279
G05
X43231Y-42354G85X43550Y-41779
G05
X43231Y-49854G85X43550Y-49279
G05
X48550Y-20780G85X48566Y-20552
G05
X48550Y-28279G85X48566Y-28051
G05
X48550Y-43279G85X48566Y-43051
G05
X48554Y-35775G85X48570Y-35547
G05
X50731Y-20355G85X51050Y-19780
G05
X50731Y-27854G85X51050Y-27279
G05
X50731Y-42854G85X51050Y-42279
G05
X50735Y-35350G85X51055Y-34775
G05
X51615Y-53817G85X52001Y-54349
G05
X52151Y-51660G85X52351Y-51771
G05
X55050Y-27154G85X55278Y-27170
G05
X55050Y-38404G85X55278Y-38420
G05
X55475Y-29335G85X56050Y-29654
G05
X55475Y-40585G85X56050Y-40904
G05
X56050Y-20780G85X56066Y-20552
G05
X58231Y-20355G85X58550Y-19780
G05
X58411Y-56987G85X58797Y-57519
G05
X58948Y-54831G85X59148Y-54941
G05
X63341Y-47776G85X63451Y-47576
G05
X63799Y-64540G85X63909Y-64340
G05
X65497Y-48312G85X66029Y-47926
G05
X65955Y-65076G85X66487Y-64690
G05
X66969Y-57742G85X67079Y-57542
G05
X69125Y-58278G85X69657Y-57892
G05
X70138Y-50945G85X70248Y-50745
G05
X72294Y-51481G85X72826Y-51095
G05
T0
M30
