G04 #@! TF.FileFunction,Legend,Top*
%FSLAX46Y46*%
G04 Gerber Fmt 4.6, Leading zero omitted, Abs format (unit mm)*
G04 Created by KiCad (PCBNEW (2015-07-17 BZR 5958)-product) date 8/7/2015 1:38:11 AM*
%MOMM*%
G01*
G04 APERTURE LIST*
%ADD10C,0.150000*%
%ADD11C,0.300000*%
%ADD12C,0.127000*%
%ADD13C,0.200000*%
G04 APERTURE END LIST*
D10*
D11*
X116381000Y-25423000D02*
X116381000Y-29723000D01*
X103831000Y-29723000D02*
X103831000Y-25423000D01*
X103831000Y-29723000D02*
X116381000Y-29723000D01*
D12*
X112310333Y-32106810D02*
X112141000Y-31864905D01*
X112020047Y-32106810D02*
X112020047Y-31598810D01*
X112213571Y-31598810D01*
X112261952Y-31623000D01*
X112286143Y-31647190D01*
X112310333Y-31695571D01*
X112310333Y-31768143D01*
X112286143Y-31816524D01*
X112261952Y-31840714D01*
X112213571Y-31864905D01*
X112020047Y-31864905D01*
X112503857Y-31647190D02*
X112528047Y-31623000D01*
X112576428Y-31598810D01*
X112697381Y-31598810D01*
X112745762Y-31623000D01*
X112769952Y-31647190D01*
X112794143Y-31695571D01*
X112794143Y-31743952D01*
X112769952Y-31816524D01*
X112479666Y-32106810D01*
X112794143Y-32106810D01*
X113834333Y-32106810D02*
X113665000Y-31864905D01*
X113544047Y-32106810D02*
X113544047Y-31598810D01*
X113737571Y-31598810D01*
X113785952Y-31623000D01*
X113810143Y-31647190D01*
X113834333Y-31695571D01*
X113834333Y-31768143D01*
X113810143Y-31816524D01*
X113785952Y-31840714D01*
X113737571Y-31864905D01*
X113544047Y-31864905D01*
X114318143Y-32106810D02*
X114027857Y-32106810D01*
X114173000Y-32106810D02*
X114173000Y-31598810D01*
X114124619Y-31671381D01*
X114076238Y-31719762D01*
X114027857Y-31743952D01*
D13*
X134643905Y-40457381D02*
X134643905Y-39457381D01*
X135024858Y-39457381D01*
X135120096Y-39505000D01*
X135167715Y-39552619D01*
X135215334Y-39647857D01*
X135215334Y-39790714D01*
X135167715Y-39885952D01*
X135120096Y-39933571D01*
X135024858Y-39981190D01*
X134643905Y-39981190D01*
X136072477Y-39790714D02*
X136072477Y-40457381D01*
X135834381Y-39409762D02*
X135596286Y-40124048D01*
X136215334Y-40124048D01*
X108735905Y-31821381D02*
X108735905Y-30821381D01*
X109116858Y-30821381D01*
X109212096Y-30869000D01*
X109259715Y-30916619D01*
X109307334Y-31011857D01*
X109307334Y-31154714D01*
X109259715Y-31249952D01*
X109212096Y-31297571D01*
X109116858Y-31345190D01*
X108735905Y-31345190D01*
X109688286Y-30916619D02*
X109735905Y-30869000D01*
X109831143Y-30821381D01*
X110069239Y-30821381D01*
X110164477Y-30869000D01*
X110212096Y-30916619D01*
X110259715Y-31011857D01*
X110259715Y-31107095D01*
X110212096Y-31249952D01*
X109640667Y-31821381D01*
X110259715Y-31821381D01*
X37028572Y-100807571D02*
X36695238Y-100807571D01*
X36695238Y-101331381D02*
X36695238Y-100331381D01*
X37171429Y-100331381D01*
X37552381Y-101331381D02*
X37552381Y-100331381D01*
X38028571Y-101331381D02*
X38028571Y-100331381D01*
X38266666Y-100331381D01*
X38409524Y-100379000D01*
X38504762Y-100474238D01*
X38552381Y-100569476D01*
X38600000Y-100759952D01*
X38600000Y-100902810D01*
X38552381Y-101093286D01*
X38504762Y-101188524D01*
X38409524Y-101283762D01*
X38266666Y-101331381D01*
X38028571Y-101331381D01*
X39457143Y-100664714D02*
X39457143Y-101331381D01*
X39219047Y-100283762D02*
X38980952Y-100998048D01*
X39600000Y-100998048D01*
X171648572Y-133827571D02*
X171315238Y-133827571D01*
X171315238Y-134351381D02*
X171315238Y-133351381D01*
X171791429Y-133351381D01*
X172172381Y-134351381D02*
X172172381Y-133351381D01*
X172648571Y-134351381D02*
X172648571Y-133351381D01*
X172886666Y-133351381D01*
X173029524Y-133399000D01*
X173124762Y-133494238D01*
X173172381Y-133589476D01*
X173220000Y-133779952D01*
X173220000Y-133922810D01*
X173172381Y-134113286D01*
X173124762Y-134208524D01*
X173029524Y-134303762D01*
X172886666Y-134351381D01*
X172648571Y-134351381D01*
X174077143Y-133351381D02*
X173886666Y-133351381D01*
X173791428Y-133399000D01*
X173743809Y-133446619D01*
X173648571Y-133589476D01*
X173600952Y-133779952D01*
X173600952Y-134160905D01*
X173648571Y-134256143D01*
X173696190Y-134303762D01*
X173791428Y-134351381D01*
X173981905Y-134351381D01*
X174077143Y-134303762D01*
X174124762Y-134256143D01*
X174172381Y-134160905D01*
X174172381Y-133922810D01*
X174124762Y-133827571D01*
X174077143Y-133779952D01*
X173981905Y-133732333D01*
X173791428Y-133732333D01*
X173696190Y-133779952D01*
X173648571Y-133827571D01*
X173600952Y-133922810D01*
X146248572Y-39847571D02*
X145915238Y-39847571D01*
X145915238Y-40371381D02*
X145915238Y-39371381D01*
X146391429Y-39371381D01*
X146772381Y-40371381D02*
X146772381Y-39371381D01*
X147248571Y-40371381D02*
X147248571Y-39371381D01*
X147486666Y-39371381D01*
X147629524Y-39419000D01*
X147724762Y-39514238D01*
X147772381Y-39609476D01*
X147820000Y-39799952D01*
X147820000Y-39942810D01*
X147772381Y-40133286D01*
X147724762Y-40228524D01*
X147629524Y-40323762D01*
X147486666Y-40371381D01*
X147248571Y-40371381D01*
X148200952Y-39466619D02*
X148248571Y-39419000D01*
X148343809Y-39371381D01*
X148581905Y-39371381D01*
X148677143Y-39419000D01*
X148724762Y-39466619D01*
X148772381Y-39561857D01*
X148772381Y-39657095D01*
X148724762Y-39799952D01*
X148153333Y-40371381D01*
X148772381Y-40371381D01*
X60428334Y-33091381D02*
X59952143Y-33091381D01*
X59952143Y-32091381D01*
X61333096Y-32996143D02*
X61285477Y-33043762D01*
X61142620Y-33091381D01*
X61047382Y-33091381D01*
X60904524Y-33043762D01*
X60809286Y-32948524D01*
X60761667Y-32853286D01*
X60714048Y-32662810D01*
X60714048Y-32519952D01*
X60761667Y-32329476D01*
X60809286Y-32234238D01*
X60904524Y-32139000D01*
X61047382Y-32091381D01*
X61142620Y-32091381D01*
X61285477Y-32139000D01*
X61333096Y-32186619D01*
X61761667Y-33091381D02*
X61761667Y-32091381D01*
X61999762Y-32091381D01*
X62142620Y-32139000D01*
X62237858Y-32234238D01*
X62285477Y-32329476D01*
X62333096Y-32519952D01*
X62333096Y-32662810D01*
X62285477Y-32853286D01*
X62237858Y-32948524D01*
X62142620Y-33043762D01*
X61999762Y-33091381D01*
X61761667Y-33091381D01*
X63285477Y-33091381D02*
X62714048Y-33091381D01*
X62999762Y-33091381D02*
X62999762Y-32091381D01*
X62904524Y-32234238D01*
X62809286Y-32329476D01*
X62714048Y-32377095D01*
M02*
