G04 #@! TF.FileFunction,Soldermask,Top*
%FSLAX46Y46*%
G04 Gerber Fmt 4.6, Leading zero omitted, Abs format (unit mm)*
G04 Created by KiCad (PCBNEW (2015-07-17 BZR 5958)-product) date 8/7/2015 1:38:11 AM*
%MOMM*%
G01*
G04 APERTURE LIST*
%ADD10C,0.150000*%
%ADD11R,0.802400X0.752400*%
%ADD12C,1.143010*%
%ADD13C,2.527310*%
%ADD14C,1.952400*%
%ADD15O,1.952400X3.652400*%
%ADD16R,0.852400X1.952400*%
%ADD17R,1.792400X2.352400*%
%ADD18R,1.952400X2.052400*%
%ADD19R,0.552400X1.502400*%
%ADD20R,2.052400X2.052400*%
%ADD21O,1.202400X2.052400*%
%ADD22C,3.000000*%
%ADD23R,2.552400X1.652400*%
%ADD24C,1.352400*%
%ADD25C,1.002410*%
%ADD26O,1.552400X1.552400*%
%ADD27R,1.552400X1.552400*%
%ADD28C,1.552400*%
%ADD29C,4.140210*%
%ADD30C,1.854210*%
%ADD31C,2.652400*%
G04 APERTURE END LIST*
D10*
D11*
X112395000Y-32901000D03*
X112395000Y-33901000D03*
X113919000Y-32901000D03*
X113919000Y-33901000D03*
D12*
X109982000Y-134747000D03*
X102362000Y-133731000D03*
X102362000Y-135763000D03*
D13*
X109982000Y-132207000D03*
X104267000Y-132207000D03*
X109982000Y-137287000D03*
X104267000Y-137287000D03*
D14*
X148972174Y-158574603D03*
X146670152Y-157501153D03*
X144368131Y-156427702D03*
X142066109Y-155354252D03*
X139764087Y-154280802D03*
X137462065Y-153207351D03*
X135160044Y-152133901D03*
X132858022Y-151060450D03*
X130556000Y-149987000D03*
X128253978Y-148913550D03*
X125951956Y-147840099D03*
X123649935Y-146766649D03*
X121347913Y-145693198D03*
X119045891Y-144619748D03*
X116743869Y-143546298D03*
X114441848Y-142472847D03*
X112139826Y-141399397D03*
D15*
X127482000Y-36559000D03*
X143282000Y-36559000D03*
D16*
X135382000Y-37459000D03*
X134382000Y-37459000D03*
X133382000Y-37459000D03*
X132382000Y-37459000D03*
X131382000Y-37459000D03*
X136382000Y-37459000D03*
X137382000Y-37459000D03*
X138382000Y-37459000D03*
X139382000Y-37459000D03*
D17*
X127712000Y-32559000D03*
X143052000Y-32559000D03*
D18*
X108781000Y-26723000D03*
D19*
X106081000Y-29398000D03*
X105431000Y-29398000D03*
X104781000Y-29398000D03*
X106731000Y-29398000D03*
X107381000Y-29398000D03*
X112781000Y-29398000D03*
X112131000Y-29398000D03*
X111481000Y-29398000D03*
X113431000Y-29398000D03*
X114081000Y-29398000D03*
D20*
X113856000Y-26723000D03*
X111706000Y-26723000D03*
D21*
X116381000Y-26723000D03*
D18*
X106281000Y-26723000D03*
D21*
X103831000Y-26723000D03*
D22*
X38100000Y-98679000D03*
X172720000Y-131699000D03*
X147320000Y-37719000D03*
D23*
X21197000Y-36665000D03*
X24197000Y-36665000D03*
D24*
X26497000Y-38615000D03*
X27997000Y-38615000D03*
X29497000Y-38615000D03*
X30997000Y-38615000D03*
X32497000Y-38615000D03*
X33997000Y-38615000D03*
X35497000Y-38615000D03*
X36997000Y-38615000D03*
X38497000Y-38615000D03*
X39997000Y-38615000D03*
X41497000Y-38615000D03*
X42997000Y-38615000D03*
X44497000Y-38615000D03*
X45997000Y-38615000D03*
X47497000Y-38615000D03*
X48997000Y-38615000D03*
X50497000Y-38615000D03*
D23*
X52797000Y-36665000D03*
X55797000Y-36665000D03*
D25*
X58597000Y-38615000D03*
X18397000Y-38615000D03*
D26*
X50927500Y-63573700D03*
D27*
X48387500Y-63573700D03*
D28*
X169794011Y-156334725D02*
X169794011Y-156334725D01*
D10*
G36*
X166460477Y-155636715D02*
X167116549Y-154229763D01*
X168523501Y-154885835D01*
X167867429Y-156292787D01*
X166460477Y-155636715D01*
X166460477Y-155636715D01*
G37*
D26*
X50927500Y-101674000D03*
D27*
X48387500Y-101674000D03*
D26*
X69977000Y-60398700D03*
D27*
X67437000Y-60398700D03*
D26*
X69977000Y-98499000D03*
D27*
X67437000Y-98499000D03*
D26*
X89027000Y-58801000D03*
D27*
X86487000Y-58801000D03*
D26*
X89027000Y-96901000D03*
D27*
X86487000Y-96901000D03*
D26*
X108077000Y-60398700D03*
D27*
X105537000Y-60398700D03*
D26*
X27115000Y-101674000D03*
D27*
X24575000Y-101674000D03*
D26*
X27115000Y-63573700D03*
D27*
X24575000Y-63573700D03*
D28*
X177846011Y-139067725D02*
X177846011Y-139067725D01*
D10*
G36*
X174512477Y-138369715D02*
X175168549Y-136962763D01*
X176575501Y-137618835D01*
X175919429Y-139025787D01*
X174512477Y-138369715D01*
X174512477Y-138369715D01*
G37*
D26*
X127138000Y-80708100D03*
D27*
X124598000Y-80708100D03*
D26*
X108077000Y-98499000D03*
D27*
X105537000Y-98499000D03*
D26*
X108077000Y-79449000D03*
D27*
X105537000Y-79449000D03*
D28*
X157324275Y-147015011D02*
X157324275Y-147015011D01*
D10*
G36*
X158022285Y-143681477D02*
X159429237Y-144337549D01*
X158773165Y-145744501D01*
X157366213Y-145088429D01*
X158022285Y-143681477D01*
X158022285Y-143681477D01*
G37*
D26*
X69977000Y-41348700D03*
D27*
X67437000Y-41348700D03*
D26*
X89027000Y-77851000D03*
D27*
X86487000Y-77851000D03*
D28*
X140060275Y-138964011D02*
X140060275Y-138964011D01*
D10*
G36*
X140758285Y-135630477D02*
X142165237Y-136286549D01*
X141509165Y-137693501D01*
X140102213Y-137037429D01*
X140758285Y-135630477D01*
X140758285Y-135630477D01*
G37*
D26*
X127127000Y-42621200D03*
D27*
X124587000Y-42621200D03*
D26*
X69977000Y-79449000D03*
D27*
X67437000Y-79449000D03*
D26*
X108077000Y-117549000D03*
D27*
X105537000Y-117549000D03*
D26*
X108077000Y-41348700D03*
D27*
X105537000Y-41348700D03*
D26*
X50927500Y-82624000D03*
D27*
X48387500Y-82624000D03*
D26*
X89027000Y-115951000D03*
D27*
X86487000Y-115951000D03*
D26*
X89027000Y-39751000D03*
D27*
X86487000Y-39751000D03*
D26*
X27115000Y-82624000D03*
D27*
X24575000Y-82624000D03*
D26*
X69977000Y-117549000D03*
D27*
X67437000Y-117549000D03*
D26*
X146177000Y-42621200D03*
D27*
X143637000Y-42621200D03*
D28*
X185898011Y-121801725D02*
X185898011Y-121801725D01*
D10*
G36*
X182564477Y-121103715D02*
X183220549Y-119696763D01*
X184627501Y-120352835D01*
X183971429Y-121759787D01*
X182564477Y-121103715D01*
X182564477Y-121103715D01*
G37*
D26*
X50927000Y-120724000D03*
D27*
X48387000Y-120724000D03*
D26*
X50927500Y-44526200D03*
D27*
X48387500Y-44526200D03*
D28*
X168634011Y-113751725D02*
X168634011Y-113751725D01*
D10*
G36*
X165300477Y-113053715D02*
X165956549Y-111646763D01*
X167363501Y-112302835D01*
X166707429Y-113709787D01*
X165300477Y-113053715D01*
X165300477Y-113053715D01*
G37*
D26*
X31877000Y-120724000D03*
D27*
X29337000Y-120724000D03*
D26*
X27115000Y-44526200D03*
D27*
X24575000Y-44526200D03*
D26*
X149987000Y-101356000D03*
D27*
X149987000Y-98816000D03*
D26*
X149987000Y-72781200D03*
D27*
X149987000Y-70241200D03*
D26*
X127127000Y-99769000D03*
D27*
X124587000Y-99769000D03*
D26*
X127127000Y-61668700D03*
D27*
X124587000Y-61668700D03*
D29*
X165334000Y-117820000D03*
D30*
X169938044Y-119966901D03*
X160729956Y-115673099D03*
D31*
X166362059Y-122712853D02*
X167713973Y-121732431D01*
X160885611Y-121350101D02*
X161165915Y-120842331D01*
D29*
X125857000Y-47701200D03*
D30*
X130937000Y-47701200D03*
X120777000Y-47701200D03*
D31*
X128856547Y-51701154D02*
X129667453Y-50241246D01*
X123317276Y-52780528D02*
X123356724Y-52201872D01*
D29*
X68707000Y-65478700D03*
D30*
X73787000Y-65478700D03*
X63627000Y-65478700D03*
D31*
X71706547Y-69478654D02*
X72517453Y-68018746D01*
X66167276Y-70558028D02*
X66206724Y-69979372D01*
D29*
X153258000Y-143718000D03*
D30*
X151111099Y-148322044D03*
X155404901Y-139113956D03*
D31*
X148365147Y-144746059D02*
X149345569Y-146097973D01*
X149727899Y-139269611D02*
X150235669Y-139549915D01*
D29*
X106807000Y-122629000D03*
D30*
X111887000Y-122629000D03*
X101727000Y-122629000D03*
D31*
X109806547Y-126628954D02*
X110617453Y-125169046D01*
X104267276Y-127708328D02*
X104306724Y-127129672D01*
D29*
X87757000Y-121031000D03*
D30*
X92837000Y-121031000D03*
X82677000Y-121031000D03*
D31*
X90756547Y-125030954D02*
X91567453Y-123571046D01*
X85217276Y-126110328D02*
X85256724Y-125531672D01*
D29*
X49657000Y-125804000D03*
D30*
X54737000Y-125804000D03*
X44577000Y-125804000D03*
D31*
X52656547Y-129803954D02*
X53467453Y-128344046D01*
X47117276Y-130883328D02*
X47156724Y-130304672D01*
D29*
X125857000Y-104849000D03*
D30*
X130937000Y-104849000D03*
X120777000Y-104849000D03*
D31*
X128856547Y-108848954D02*
X129667453Y-107389046D01*
X123317276Y-109928328D02*
X123356724Y-109349672D01*
D29*
X106807000Y-103579000D03*
D30*
X111887000Y-103579000D03*
X101727000Y-103579000D03*
D31*
X109806547Y-107578954D02*
X110617453Y-106119046D01*
X104267276Y-108658328D02*
X104306724Y-108079672D01*
D29*
X87757000Y-101981000D03*
D30*
X92837000Y-101981000D03*
X82677000Y-101981000D03*
D31*
X90756547Y-105980954D02*
X91567453Y-104521046D01*
X85217276Y-107060328D02*
X85256724Y-106481672D01*
D29*
X68707000Y-103579000D03*
D30*
X73787000Y-103579000D03*
X63627000Y-103579000D03*
D31*
X71706547Y-107578954D02*
X72517453Y-106119046D01*
X66167276Y-108658328D02*
X66206724Y-108079672D01*
D29*
X49657000Y-106754000D03*
D30*
X54737000Y-106754000D03*
X44577000Y-106754000D03*
D31*
X52656547Y-110753954D02*
X53467453Y-109294046D01*
X47117276Y-111833328D02*
X47156724Y-111254672D01*
D29*
X125868000Y-85788100D03*
D30*
X130948000Y-85788100D03*
X120788000Y-85788100D03*
D31*
X128867547Y-89788054D02*
X129678453Y-88328146D01*
X123328276Y-90867428D02*
X123367724Y-90288772D01*
D29*
X106807000Y-84529000D03*
D30*
X111887000Y-84529000D03*
X101727000Y-84529000D03*
D31*
X109806547Y-88528954D02*
X110617453Y-87069046D01*
X104267276Y-89608328D02*
X104306724Y-89029672D01*
D29*
X87757000Y-82931000D03*
D30*
X92837000Y-82931000D03*
X82677000Y-82931000D03*
D31*
X90756547Y-86930954D02*
X91567453Y-85471046D01*
X85217276Y-88010328D02*
X85256724Y-87431672D01*
D29*
X68707000Y-84529000D03*
D30*
X73787000Y-84529000D03*
X63627000Y-84529000D03*
D31*
X71706547Y-88528954D02*
X72517453Y-87069046D01*
X66167276Y-89608328D02*
X66206724Y-89029672D01*
D29*
X49657000Y-87704000D03*
D30*
X54737000Y-87704000D03*
X44577000Y-87704000D03*
D31*
X52656547Y-91703954D02*
X53467453Y-90244046D01*
X47117276Y-92783328D02*
X47156724Y-92204672D01*
D29*
X106807000Y-65478700D03*
D30*
X111887000Y-65478700D03*
X101727000Y-65478700D03*
D31*
X109806547Y-69478654D02*
X110617453Y-68018746D01*
X104267276Y-70558028D02*
X104306724Y-69979372D01*
D29*
X87757000Y-63881000D03*
D30*
X92837000Y-63881000D03*
X82677000Y-63881000D03*
D31*
X90756547Y-67880954D02*
X91567453Y-66421046D01*
X85217276Y-68960328D02*
X85256724Y-68381672D01*
D29*
X49657000Y-68653700D03*
D30*
X54737000Y-68653700D03*
X44577000Y-68653700D03*
D31*
X52656547Y-72653654D02*
X53467453Y-71193746D01*
X47117276Y-73733028D02*
X47156724Y-73154372D01*
D29*
X68707000Y-122629000D03*
D30*
X73787000Y-122629000D03*
X63627000Y-122629000D03*
D31*
X71706547Y-126628954D02*
X72517453Y-125169046D01*
X66167276Y-127708328D02*
X66206724Y-127129672D01*
D29*
X106807000Y-46428700D03*
D30*
X111887000Y-46428700D03*
X101727000Y-46428700D03*
D31*
X109806547Y-50428654D02*
X110617453Y-48968746D01*
X104267276Y-51508028D02*
X104306724Y-50929372D01*
D29*
X87757000Y-44831000D03*
D30*
X92837000Y-44831000D03*
X82677000Y-44831000D03*
D31*
X90756547Y-48830954D02*
X91567453Y-47371046D01*
X85217276Y-49910328D02*
X85256724Y-49331672D01*
D29*
X68707000Y-46428700D03*
D30*
X73787000Y-46428700D03*
X63627000Y-46428700D03*
D31*
X71706547Y-50428654D02*
X72517453Y-48968746D01*
X66167276Y-51508028D02*
X66206724Y-50929372D01*
D29*
X49657000Y-49606200D03*
D30*
X54737000Y-49606200D03*
X44577000Y-49606200D03*
D31*
X52656547Y-53606154D02*
X53467453Y-52146246D01*
X47117276Y-54685528D02*
X47156724Y-54106872D01*
D29*
X182598000Y-125870000D03*
D30*
X187202044Y-128016901D03*
X177993956Y-123723099D03*
D31*
X183626059Y-130762853D02*
X184977973Y-129782431D01*
X178149611Y-129400101D02*
X178429915Y-128892331D01*
D29*
X166497000Y-160401000D03*
D30*
X171101044Y-162547901D03*
X161892956Y-158254099D03*
D31*
X167525059Y-165293853D02*
X168876973Y-164313431D01*
X162048611Y-163931101D02*
X162328915Y-163423331D01*
D29*
X174549000Y-143134000D03*
D30*
X179153044Y-145280901D03*
X169944956Y-140987099D03*
D31*
X175577059Y-148026853D02*
X176928973Y-147046431D01*
X170100611Y-146664101D02*
X170380915Y-146156331D01*
D29*
X125857000Y-66748700D03*
D30*
X130937000Y-66748700D03*
X120777000Y-66748700D03*
D31*
X128856547Y-70748654D02*
X129667453Y-69288746D01*
X123317276Y-71828028D02*
X123356724Y-71249372D01*
D29*
X30607000Y-125804000D03*
D30*
X35687000Y-125804000D03*
X25527000Y-125804000D03*
D31*
X33606547Y-129803954D02*
X34417453Y-128344046D01*
X28067276Y-130883328D02*
X28106724Y-130304672D01*
D29*
X144907000Y-100086000D03*
D30*
X144907000Y-105166000D03*
X144907000Y-95006000D03*
D31*
X140907046Y-103085547D02*
X142366954Y-103896453D01*
X139827672Y-97546276D02*
X140406328Y-97585724D01*
D29*
X144907000Y-47701200D03*
D30*
X149987000Y-47701200D03*
X139827000Y-47701200D03*
D31*
X147906547Y-51701154D02*
X148717453Y-50241246D01*
X142367276Y-52780528D02*
X142406724Y-52201872D01*
D29*
X144907000Y-71511200D03*
D30*
X144907000Y-76591200D03*
X144907000Y-66431200D03*
D31*
X140907046Y-74510747D02*
X142366954Y-75321653D01*
X139827672Y-68971476D02*
X140406328Y-69010924D01*
D29*
X25845000Y-106754000D03*
D30*
X30925000Y-106754000D03*
X20765000Y-106754000D03*
D31*
X28844547Y-110753954D02*
X29655453Y-109294046D01*
X23305276Y-111833328D02*
X23344724Y-111254672D01*
D29*
X25845000Y-49606200D03*
D30*
X30925000Y-49606200D03*
X20765000Y-49606200D03*
D31*
X28844547Y-53606154D02*
X29655453Y-52146246D01*
X23305276Y-54685528D02*
X23344724Y-54106872D01*
D29*
X25845000Y-68653700D03*
D30*
X30925000Y-68653700D03*
X20765000Y-68653700D03*
D31*
X28844547Y-72653654D02*
X29655453Y-71193746D01*
X23305276Y-73733028D02*
X23344724Y-73154372D01*
D29*
X25845000Y-87704000D03*
D30*
X30925000Y-87704000D03*
X20765000Y-87704000D03*
D31*
X28844547Y-91703954D02*
X29655453Y-90244046D01*
X23305276Y-92783328D02*
X23344724Y-92204672D01*
D29*
X135994000Y-135666000D03*
D30*
X133847099Y-140270044D03*
X138140901Y-131061956D03*
D31*
X131101147Y-136694059D02*
X132081569Y-138045973D01*
X132463899Y-131217611D02*
X132971669Y-131497915D01*
M02*
