G04 #@! TF.FileFunction,Soldermask,Top*
%FSLAX46Y46*%
G04 Gerber Fmt 4.6, Leading zero omitted, Abs format (unit mm)*
G04 Created by KiCad (PCBNEW (2016-03-18 BZR 6629, Git 60d93d0)-product) date 7/17/2016 1:38:49 PM*
%MOMM*%
G01*
G04 APERTURE LIST*
%ADD10C,0.150000*%
%ADD11R,0.701600X0.751600*%
%ADD12C,1.092210*%
%ADD13C,2.476510*%
%ADD14C,1.901600*%
%ADD15O,1.901600X3.601600*%
%ADD16R,0.801600X1.901600*%
%ADD17R,1.741600X2.301600*%
%ADD18C,3.000000*%
%ADD19R,2.501600X1.601600*%
%ADD20C,1.301600*%
%ADD21C,0.951610*%
%ADD22O,1.501600X1.501600*%
%ADD23R,1.501600X1.501600*%
%ADD24C,1.501600*%
%ADD25C,4.089410*%
%ADD26C,1.803410*%
%ADD27C,2.601600*%
%ADD28C,0.801600*%
%ADD29R,0.401600X1.201600*%
%ADD30C,0.701600*%
%ADD31O,1.201600X2.051600*%
%ADD32O,1.201600X2.501600*%
%ADD33O,1.051600X0.801600*%
G04 APERTURE END LIST*
D10*
D11*
X109085000Y-36449000D03*
X108085000Y-36449000D03*
D12*
X109982000Y-134747000D03*
X102362000Y-133731000D03*
X102362000Y-135763000D03*
D13*
X109982000Y-132207000D03*
X104267000Y-132207000D03*
X109982000Y-137287000D03*
X104267000Y-137287000D03*
D14*
X148972174Y-158574603D03*
X146670152Y-157501153D03*
X144368131Y-156427702D03*
X142066109Y-155354252D03*
X139764087Y-154280802D03*
X137462065Y-153207351D03*
X135160044Y-152133901D03*
X132858022Y-151060450D03*
X130556000Y-149987000D03*
X128253978Y-148913550D03*
X125951956Y-147840099D03*
X123649935Y-146766649D03*
X121347913Y-145693198D03*
X119045891Y-144619748D03*
X116743869Y-143546298D03*
X114441848Y-142472847D03*
X112139826Y-141399397D03*
D15*
X127482000Y-36559000D03*
X143282000Y-36559000D03*
D16*
X135382000Y-37459000D03*
X134382000Y-37459000D03*
X133382000Y-37459000D03*
X132382000Y-37459000D03*
X131382000Y-37459000D03*
X136382000Y-37459000D03*
X137382000Y-37459000D03*
X138382000Y-37459000D03*
X139382000Y-37459000D03*
D17*
X127712000Y-32559000D03*
X143052000Y-32559000D03*
D18*
X38100000Y-98679000D03*
X172720000Y-131699000D03*
X147320000Y-37719000D03*
D19*
X21197000Y-36665000D03*
X24197000Y-36665000D03*
D20*
X26497000Y-38615000D03*
X27997000Y-38615000D03*
X29497000Y-38615000D03*
X30997000Y-38615000D03*
X32497000Y-38615000D03*
X33997000Y-38615000D03*
X35497000Y-38615000D03*
X36997000Y-38615000D03*
X38497000Y-38615000D03*
X39997000Y-38615000D03*
X41497000Y-38615000D03*
X42997000Y-38615000D03*
X44497000Y-38615000D03*
X45997000Y-38615000D03*
X47497000Y-38615000D03*
X48997000Y-38615000D03*
X50497000Y-38615000D03*
D19*
X52797000Y-36665000D03*
X55797000Y-36665000D03*
D21*
X58597000Y-38615000D03*
X18397000Y-38615000D03*
D22*
X50927500Y-63573700D03*
D23*
X48387500Y-63573700D03*
D24*
X169794011Y-156334725D02*
X169794011Y-156334725D01*
D10*
G36*
X166494231Y-155624429D02*
X167128835Y-154263517D01*
X168489747Y-154898121D01*
X167855143Y-156259033D01*
X166494231Y-155624429D01*
X166494231Y-155624429D01*
G37*
D22*
X50927500Y-101674000D03*
D23*
X48387500Y-101674000D03*
D22*
X69977000Y-60398700D03*
D23*
X67437000Y-60398700D03*
D22*
X69977000Y-98499000D03*
D23*
X67437000Y-98499000D03*
D22*
X89027000Y-58801000D03*
D23*
X86487000Y-58801000D03*
D22*
X89027000Y-96901000D03*
D23*
X86487000Y-96901000D03*
D22*
X108077000Y-60398700D03*
D23*
X105537000Y-60398700D03*
D22*
X27115000Y-101674000D03*
D23*
X24575000Y-101674000D03*
D22*
X27115000Y-63573700D03*
D23*
X24575000Y-63573700D03*
D24*
X177846011Y-139067725D02*
X177846011Y-139067725D01*
D10*
G36*
X174546231Y-138357429D02*
X175180835Y-136996517D01*
X176541747Y-137631121D01*
X175907143Y-138992033D01*
X174546231Y-138357429D01*
X174546231Y-138357429D01*
G37*
D22*
X127138000Y-80708100D03*
D23*
X124598000Y-80708100D03*
D22*
X108077000Y-98499000D03*
D23*
X105537000Y-98499000D03*
D22*
X108077000Y-79449000D03*
D23*
X105537000Y-79449000D03*
D24*
X157324275Y-147015011D02*
X157324275Y-147015011D01*
D10*
G36*
X158034571Y-143715231D02*
X159395483Y-144349835D01*
X158760879Y-145710747D01*
X157399967Y-145076143D01*
X158034571Y-143715231D01*
X158034571Y-143715231D01*
G37*
D22*
X69977000Y-41348700D03*
D23*
X67437000Y-41348700D03*
D22*
X89027000Y-77851000D03*
D23*
X86487000Y-77851000D03*
D24*
X140060275Y-138964011D02*
X140060275Y-138964011D01*
D10*
G36*
X140770571Y-135664231D02*
X142131483Y-136298835D01*
X141496879Y-137659747D01*
X140135967Y-137025143D01*
X140770571Y-135664231D01*
X140770571Y-135664231D01*
G37*
D22*
X127127000Y-42621200D03*
D23*
X124587000Y-42621200D03*
D22*
X69977000Y-79449000D03*
D23*
X67437000Y-79449000D03*
D22*
X108077000Y-117549000D03*
D23*
X105537000Y-117549000D03*
D22*
X108077000Y-41348700D03*
D23*
X105537000Y-41348700D03*
D22*
X50927500Y-82624000D03*
D23*
X48387500Y-82624000D03*
D22*
X89027000Y-115951000D03*
D23*
X86487000Y-115951000D03*
D22*
X89027000Y-39751000D03*
D23*
X86487000Y-39751000D03*
D22*
X27115000Y-82624000D03*
D23*
X24575000Y-82624000D03*
D22*
X69977000Y-117549000D03*
D23*
X67437000Y-117549000D03*
D22*
X146177000Y-42621200D03*
D23*
X143637000Y-42621200D03*
D24*
X185898011Y-121801725D02*
X185898011Y-121801725D01*
D10*
G36*
X182598231Y-121091429D02*
X183232835Y-119730517D01*
X184593747Y-120365121D01*
X183959143Y-121726033D01*
X182598231Y-121091429D01*
X182598231Y-121091429D01*
G37*
D22*
X50927000Y-120724000D03*
D23*
X48387000Y-120724000D03*
D22*
X50927500Y-44526200D03*
D23*
X48387500Y-44526200D03*
D24*
X168634011Y-113751725D02*
X168634011Y-113751725D01*
D10*
G36*
X165334231Y-113041429D02*
X165968835Y-111680517D01*
X167329747Y-112315121D01*
X166695143Y-113676033D01*
X165334231Y-113041429D01*
X165334231Y-113041429D01*
G37*
D22*
X31877000Y-120724000D03*
D23*
X29337000Y-120724000D03*
D22*
X27115000Y-44526200D03*
D23*
X24575000Y-44526200D03*
D22*
X149987000Y-101356000D03*
D23*
X149987000Y-98816000D03*
D22*
X149987000Y-72781200D03*
D23*
X149987000Y-70241200D03*
D22*
X127127000Y-99769000D03*
D23*
X124587000Y-99769000D03*
D22*
X127127000Y-61668700D03*
D23*
X124587000Y-61668700D03*
D25*
X165334000Y-117820000D03*
D26*
X169938044Y-119966901D03*
X160729956Y-115673099D03*
D27*
X166362059Y-122712853D02*
X167713973Y-121732431D01*
X160885611Y-121350101D02*
X161165915Y-120842331D01*
D25*
X125857000Y-47701200D03*
D26*
X130937000Y-47701200D03*
X120777000Y-47701200D03*
D27*
X128856547Y-51701154D02*
X129667453Y-50241246D01*
X123317276Y-52780528D02*
X123356724Y-52201872D01*
D25*
X68707000Y-65478700D03*
D26*
X73787000Y-65478700D03*
X63627000Y-65478700D03*
D27*
X71706547Y-69478654D02*
X72517453Y-68018746D01*
X66167276Y-70558028D02*
X66206724Y-69979372D01*
D25*
X153258000Y-143718000D03*
D26*
X151111099Y-148322044D03*
X155404901Y-139113956D03*
D27*
X148365147Y-144746059D02*
X149345569Y-146097973D01*
X149727899Y-139269611D02*
X150235669Y-139549915D01*
D25*
X106807000Y-122629000D03*
D26*
X111887000Y-122629000D03*
X101727000Y-122629000D03*
D27*
X109806547Y-126628954D02*
X110617453Y-125169046D01*
X104267276Y-127708328D02*
X104306724Y-127129672D01*
D25*
X87757000Y-121031000D03*
D26*
X92837000Y-121031000D03*
X82677000Y-121031000D03*
D27*
X90756547Y-125030954D02*
X91567453Y-123571046D01*
X85217276Y-126110328D02*
X85256724Y-125531672D01*
D25*
X49657000Y-125804000D03*
D26*
X54737000Y-125804000D03*
X44577000Y-125804000D03*
D27*
X52656547Y-129803954D02*
X53467453Y-128344046D01*
X47117276Y-130883328D02*
X47156724Y-130304672D01*
D25*
X125857000Y-104849000D03*
D26*
X130937000Y-104849000D03*
X120777000Y-104849000D03*
D27*
X128856547Y-108848954D02*
X129667453Y-107389046D01*
X123317276Y-109928328D02*
X123356724Y-109349672D01*
D25*
X106807000Y-103579000D03*
D26*
X111887000Y-103579000D03*
X101727000Y-103579000D03*
D27*
X109806547Y-107578954D02*
X110617453Y-106119046D01*
X104267276Y-108658328D02*
X104306724Y-108079672D01*
D25*
X87757000Y-101981000D03*
D26*
X92837000Y-101981000D03*
X82677000Y-101981000D03*
D27*
X90756547Y-105980954D02*
X91567453Y-104521046D01*
X85217276Y-107060328D02*
X85256724Y-106481672D01*
D25*
X68707000Y-103579000D03*
D26*
X73787000Y-103579000D03*
X63627000Y-103579000D03*
D27*
X71706547Y-107578954D02*
X72517453Y-106119046D01*
X66167276Y-108658328D02*
X66206724Y-108079672D01*
D25*
X49657000Y-106754000D03*
D26*
X54737000Y-106754000D03*
X44577000Y-106754000D03*
D27*
X52656547Y-110753954D02*
X53467453Y-109294046D01*
X47117276Y-111833328D02*
X47156724Y-111254672D01*
D25*
X125868000Y-85788100D03*
D26*
X130948000Y-85788100D03*
X120788000Y-85788100D03*
D27*
X128867547Y-89788054D02*
X129678453Y-88328146D01*
X123328276Y-90867428D02*
X123367724Y-90288772D01*
D25*
X106807000Y-84529000D03*
D26*
X111887000Y-84529000D03*
X101727000Y-84529000D03*
D27*
X109806547Y-88528954D02*
X110617453Y-87069046D01*
X104267276Y-89608328D02*
X104306724Y-89029672D01*
D25*
X87757000Y-82931000D03*
D26*
X92837000Y-82931000D03*
X82677000Y-82931000D03*
D27*
X90756547Y-86930954D02*
X91567453Y-85471046D01*
X85217276Y-88010328D02*
X85256724Y-87431672D01*
D25*
X68707000Y-84529000D03*
D26*
X73787000Y-84529000D03*
X63627000Y-84529000D03*
D27*
X71706547Y-88528954D02*
X72517453Y-87069046D01*
X66167276Y-89608328D02*
X66206724Y-89029672D01*
D25*
X49657000Y-87704000D03*
D26*
X54737000Y-87704000D03*
X44577000Y-87704000D03*
D27*
X52656547Y-91703954D02*
X53467453Y-90244046D01*
X47117276Y-92783328D02*
X47156724Y-92204672D01*
D25*
X106807000Y-65478700D03*
D26*
X111887000Y-65478700D03*
X101727000Y-65478700D03*
D27*
X109806547Y-69478654D02*
X110617453Y-68018746D01*
X104267276Y-70558028D02*
X104306724Y-69979372D01*
D25*
X87757000Y-63881000D03*
D26*
X92837000Y-63881000D03*
X82677000Y-63881000D03*
D27*
X90756547Y-67880954D02*
X91567453Y-66421046D01*
X85217276Y-68960328D02*
X85256724Y-68381672D01*
D25*
X49657000Y-68653700D03*
D26*
X54737000Y-68653700D03*
X44577000Y-68653700D03*
D27*
X52656547Y-72653654D02*
X53467453Y-71193746D01*
X47117276Y-73733028D02*
X47156724Y-73154372D01*
D25*
X68707000Y-122629000D03*
D26*
X73787000Y-122629000D03*
X63627000Y-122629000D03*
D27*
X71706547Y-126628954D02*
X72517453Y-125169046D01*
X66167276Y-127708328D02*
X66206724Y-127129672D01*
D25*
X106807000Y-46428700D03*
D26*
X111887000Y-46428700D03*
X101727000Y-46428700D03*
D27*
X109806547Y-50428654D02*
X110617453Y-48968746D01*
X104267276Y-51508028D02*
X104306724Y-50929372D01*
D25*
X87757000Y-44831000D03*
D26*
X92837000Y-44831000D03*
X82677000Y-44831000D03*
D27*
X90756547Y-48830954D02*
X91567453Y-47371046D01*
X85217276Y-49910328D02*
X85256724Y-49331672D01*
D25*
X68707000Y-46428700D03*
D26*
X73787000Y-46428700D03*
X63627000Y-46428700D03*
D27*
X71706547Y-50428654D02*
X72517453Y-48968746D01*
X66167276Y-51508028D02*
X66206724Y-50929372D01*
D25*
X49657000Y-49606200D03*
D26*
X54737000Y-49606200D03*
X44577000Y-49606200D03*
D27*
X52656547Y-53606154D02*
X53467453Y-52146246D01*
X47117276Y-54685528D02*
X47156724Y-54106872D01*
D25*
X182598000Y-125870000D03*
D26*
X187202044Y-128016901D03*
X177993956Y-123723099D03*
D27*
X183626059Y-130762853D02*
X184977973Y-129782431D01*
X178149611Y-129400101D02*
X178429915Y-128892331D01*
D25*
X166497000Y-160401000D03*
D26*
X171101044Y-162547901D03*
X161892956Y-158254099D03*
D27*
X167525059Y-165293853D02*
X168876973Y-164313431D01*
X162048611Y-163931101D02*
X162328915Y-163423331D01*
D25*
X174549000Y-143134000D03*
D26*
X179153044Y-145280901D03*
X169944956Y-140987099D03*
D27*
X175577059Y-148026853D02*
X176928973Y-147046431D01*
X170100611Y-146664101D02*
X170380915Y-146156331D01*
D25*
X125857000Y-66748700D03*
D26*
X130937000Y-66748700D03*
X120777000Y-66748700D03*
D27*
X128856547Y-70748654D02*
X129667453Y-69288746D01*
X123317276Y-71828028D02*
X123356724Y-71249372D01*
D25*
X30607000Y-125804000D03*
D26*
X35687000Y-125804000D03*
X25527000Y-125804000D03*
D27*
X33606547Y-129803954D02*
X34417453Y-128344046D01*
X28067276Y-130883328D02*
X28106724Y-130304672D01*
D25*
X144907000Y-100086000D03*
D26*
X144907000Y-105166000D03*
X144907000Y-95006000D03*
D27*
X140907046Y-103085547D02*
X142366954Y-103896453D01*
X139827672Y-97546276D02*
X140406328Y-97585724D01*
D25*
X144907000Y-47701200D03*
D26*
X149987000Y-47701200D03*
X139827000Y-47701200D03*
D27*
X147906547Y-51701154D02*
X148717453Y-50241246D01*
X142367276Y-52780528D02*
X142406724Y-52201872D01*
D25*
X144907000Y-71511200D03*
D26*
X144907000Y-76591200D03*
X144907000Y-66431200D03*
D27*
X140907046Y-74510747D02*
X142366954Y-75321653D01*
X139827672Y-68971476D02*
X140406328Y-69010924D01*
D25*
X25845000Y-106754000D03*
D26*
X30925000Y-106754000D03*
X20765000Y-106754000D03*
D27*
X28844547Y-110753954D02*
X29655453Y-109294046D01*
X23305276Y-111833328D02*
X23344724Y-111254672D01*
D25*
X25845000Y-49606200D03*
D26*
X30925000Y-49606200D03*
X20765000Y-49606200D03*
D27*
X28844547Y-53606154D02*
X29655453Y-52146246D01*
X23305276Y-54685528D02*
X23344724Y-54106872D01*
D25*
X25845000Y-68653700D03*
D26*
X30925000Y-68653700D03*
X20765000Y-68653700D03*
D27*
X28844547Y-72653654D02*
X29655453Y-71193746D01*
X23305276Y-73733028D02*
X23344724Y-73154372D01*
D25*
X25845000Y-87704000D03*
D26*
X30925000Y-87704000D03*
X20765000Y-87704000D03*
D27*
X28844547Y-91703954D02*
X29655453Y-90244046D01*
X23305276Y-92783328D02*
X23344724Y-92204672D01*
D25*
X135994000Y-135666000D03*
D26*
X133847099Y-140270044D03*
X138140901Y-131061956D03*
D27*
X131101147Y-136694059D02*
X132081569Y-138045973D01*
X132463899Y-131217611D02*
X132971669Y-131497915D01*
D11*
X112657000Y-36449000D03*
X113657000Y-36449000D03*
D28*
X114598000Y-32537400D03*
D29*
X113748000Y-33197400D03*
X113248000Y-33197400D03*
X112748000Y-33197400D03*
X112248000Y-33197400D03*
X111748000Y-33197400D03*
X111248000Y-33197400D03*
X110748000Y-33197400D03*
X110248000Y-33197400D03*
X109748000Y-33197400D03*
X109248000Y-33197400D03*
X108748000Y-33197400D03*
X108248000Y-33197400D03*
D30*
X108198000Y-31987400D03*
X108598000Y-31187400D03*
X109398000Y-31187400D03*
X109648000Y-31987400D03*
X110198000Y-31187400D03*
X110598000Y-31987400D03*
X111398000Y-31987400D03*
X111798000Y-31187400D03*
X112348000Y-31987400D03*
X112598000Y-31187400D03*
X113398000Y-31187400D03*
X113798000Y-31987400D03*
D31*
X115798000Y-31612400D03*
X106198000Y-31662400D03*
D32*
X116798000Y-27287400D03*
X105198000Y-27287400D03*
D33*
X107398000Y-32537400D03*
M02*
