G04 #@! TF.FileFunction,Profile,NP*
%FSLAX46Y46*%
G04 Gerber Fmt 4.6, Leading zero omitted, Abs format (unit mm)*
G04 Created by KiCad (PCBNEW (2015-07-17 BZR 5958)-product) date 8/7/2015 1:38:11 AM*
%MOMM*%
G01*
G04 APERTURE LIST*
%ADD10C,0.150000*%
%ADD11C,0.127000*%
G04 APERTURE END LIST*
D10*
D11*
X153162000Y-35941000D02*
X144780000Y-27559000D01*
X153162000Y-104267000D02*
X154813000Y-104267000D01*
X153162000Y-35941000D02*
X153162000Y-104267000D01*
X17653000Y-29464000D02*
X19558000Y-27559000D01*
X17653000Y-132207000D02*
X20955000Y-135509000D01*
X17653000Y-29464000D02*
X17653000Y-132207000D01*
X193040000Y-122301000D02*
X192913000Y-122047000D01*
X170053000Y-170815000D02*
X170434000Y-170815000D01*
X193040000Y-122301000D02*
X170434000Y-170815000D01*
X90170000Y-135509000D02*
X94361000Y-135509000D01*
X170053000Y-170815000D02*
X94361000Y-135509000D01*
X192913000Y-122047000D02*
X154813000Y-104267000D01*
X90170000Y-135509000D02*
X20955000Y-135509000D01*
X64897000Y-27559000D02*
X19558000Y-27559000D01*
X64897000Y-32639000D02*
X64897000Y-27559000D01*
X102997000Y-32639000D02*
X64897000Y-32639000D01*
X102997000Y-25273000D02*
X102997000Y-32639000D01*
X117221000Y-25273000D02*
X102997000Y-25273000D01*
X117221000Y-27559000D02*
X117221000Y-25273000D01*
X128651000Y-27559000D02*
X117221000Y-27559000D01*
X128651000Y-36068000D02*
X128651000Y-27559000D01*
X142113000Y-36068000D02*
X128651000Y-36068000D01*
X142113000Y-27559000D02*
X142113000Y-36068000D01*
X144780000Y-27559000D02*
X142113000Y-27559000D01*
M02*
