M48
INCH,TZ
T1C0.012
T2C0.018
T3C0.024
T4C0.028
T5C0.031
T6C0.035
T7C0.039
T8C0.059
%
G90
G05
T1
X19739Y-24455
X20381Y-18530
X21322Y-17203
X21674Y-17410
X27810Y-30694
X35353Y-39114
X35746Y-46726
X38848Y-34906
X42183Y-38461
X42600Y-53550
X43189Y-46963
X43892Y-12142
X44159Y-53343
X44653Y-48261
X44863Y-51773
X45248Y-50132
X45350Y-50608
X45467Y-49877
X45512Y-51193
X45599Y-50163
X45993Y-45846
X46980Y-47208
X47001Y-45550
X47200Y-46727
X47312Y-47548
X47746Y-51449
X48023Y-40258
X48151Y-51512
X48460Y-51988
X48879Y-50465
X48913Y-51710
X48915Y-34689
X49818Y-49611
X50902Y-46834
X50923Y-31006
X50929Y-24975
X51207Y-45907
X51705Y-25027
X51714Y-25409
X51985Y-15292
X52147Y-45714
X52289Y-46023
X52433Y-48514
X52541Y-18972
X52757Y-50304
X52837Y-49811
X53086Y-49333
X53356Y-49526
X53428Y-50006
X53630Y-47798
X53633Y-45944
X53839Y-50121
X53875Y-48733
X53950Y-45842
X54065Y-49573
X54157Y-48565
X54184Y-46264
X54261Y-50109
X54298Y-52141
X54342Y-43766
X54503Y-48893
X54779Y-50483
X54828Y-48880
X55242Y-46165
X55275Y-44606
X55292Y-22125
X55319Y-48991
X55472Y-47928
X55485Y-51790
X55564Y-48243
X55589Y-52103
X55635Y-44388
X55645Y-48914
X55767Y-47742
X55893Y-49919
X55896Y-48172
X56094Y-53818
X56123Y-50252
X56148Y-48620
X56310Y-44399
X56367Y-48365
X56491Y-48922
X56496Y-44131
X56660Y-48503
X56785Y-43971
X57091Y-49919
X57392Y-44211
X57894Y-50170
X58328Y-35605
X58378Y-50185
X58695Y-41164
X58936Y-24165
X59769Y-46654
X60675Y-54429
X62329Y-50114
T4
X10432Y-15203
X11022Y-15203
X11613Y-15203
X12204Y-15203
X12794Y-15203
X13385Y-15203
X13975Y-15203
X14566Y-15203
X15156Y-15203
X15747Y-15203
X16337Y-15203
X16928Y-15203
X17519Y-15203
X18109Y-15203
X18700Y-15203
X19290Y-15203
X19881Y-15203
T5
X9675Y-17530
X9675Y-25029
X9675Y-32529
X9675Y-40029
X10675Y-17530
X10675Y-25029
X10675Y-32529
X10675Y-40029
X11550Y-47529
X12550Y-47529
X19050Y-47529
X19050Y-17530
X19050Y-25029
X19050Y-32529
X19050Y-40029
X20050Y-47529
X20050Y-17530
X20050Y-25029
X20050Y-32529
X20050Y-40029
X26550Y-16279
X26550Y-23779
X26550Y-31279
X26550Y-38779
X26550Y-46279
X27550Y-16279
X27550Y-23779
X27550Y-31279
X27550Y-38779
X27550Y-46279
X34050Y-15650
X34050Y-23150
X34050Y-30650
X34050Y-38150
X34050Y-45650
X35050Y-15650
X35050Y-23150
X35050Y-30650
X35050Y-38150
X35050Y-45650
X41550Y-16279
X41550Y-23779
X41550Y-31279
X41550Y-38779
X41550Y-46279
X42550Y-16279
X42550Y-23779
X42550Y-31279
X42550Y-38779
X42550Y-46279
X49050Y-16780
X49050Y-24279
X49050Y-39279
X49054Y-31775
X50050Y-16780
X50050Y-24279
X50050Y-39279
X50054Y-31775
X55142Y-54710
X55564Y-53804
X56550Y-16780
X57550Y-16780
X59050Y-27654
X59050Y-28654
X59050Y-38904
X59050Y-39904
X61939Y-57880
X62361Y-56974
X65485Y-44362
X65942Y-61126
X66391Y-44784
X66848Y-61549
X69112Y-54328
X70018Y-54751
X72282Y-47531
X73188Y-47953
T7
X44150Y-55669
X45056Y-56092
X45962Y-56514
X46868Y-56937
X47775Y-57360
X48681Y-57782
X49587Y-58205
X50494Y-58627
X51400Y-59050
X52306Y-59473
X53213Y-59895
X54119Y-60318
X55025Y-60740
X55932Y-61163
X56838Y-61586
X57744Y-62008
X58650Y-62431
T2
X40878Y-10669G85X40878Y-10373
G05
X45819Y-10688G85X45819Y-10354
G05
T3
X50190Y-14708G85X50190Y-14078
G05
X56410Y-14708G85X56410Y-14078
G05
T6
X8129Y-14435G85X8562Y-14435
G05
X9310Y-14435G85X9743Y-14435
G05
X20570Y-14435G85X21003Y-14435
G05
X21751Y-14435G85X22184Y-14435
G05
T8
X9175Y-21530G85X9191Y-21302
G05
X9175Y-29029G85X9191Y-28801
G05
X9175Y-36529G85X9191Y-36301
G05
X9175Y-44029G85X9191Y-43801
G05
X11050Y-51529G85X11066Y-51301
G05
X11356Y-21105G85X11675Y-20530
G05
X11356Y-28604G85X11675Y-28029
G05
X11356Y-36104G85X11675Y-35529
G05
X11356Y-43604G85X11675Y-43029
G05
X13231Y-51104G85X13550Y-50529
G05
X18550Y-21530G85X18566Y-21302
G05
X18550Y-29029G85X18566Y-28801
G05
X18550Y-36529G85X18566Y-36301
G05
X18550Y-44029G85X18566Y-43801
G05
X18550Y-51529G85X18566Y-51301
G05
X20731Y-21105G85X21050Y-20530
G05
X20731Y-28604G85X21050Y-28029
G05
X20731Y-36104G85X21050Y-35529
G05
X20731Y-43604G85X21050Y-43029
G05
X20731Y-51104G85X21050Y-50529
G05
X26050Y-20279G85X26066Y-20051
G05
X26050Y-27779G85X26066Y-27551
G05
X26050Y-35279G85X26066Y-35051
G05
X26050Y-42779G85X26066Y-42551
G05
X26050Y-50279G85X26066Y-50051
G05
X28231Y-19854G85X28550Y-19279
G05
X28231Y-27354G85X28550Y-26779
G05
X28231Y-34854G85X28550Y-34279
G05
X28231Y-42354G85X28550Y-41779
G05
X28231Y-49854G85X28550Y-49279
G05
X33550Y-19650G85X33566Y-19422
G05
X33550Y-27150G85X33566Y-26922
G05
X33550Y-34650G85X33566Y-34422
G05
X33550Y-42150G85X33566Y-41922
G05
X33550Y-49650G85X33566Y-49422
G05
X35731Y-19225G85X36050Y-18650
G05
X35731Y-26725G85X36050Y-26150
G05
X35731Y-34225G85X36050Y-33650
G05
X35731Y-41725G85X36050Y-41150
G05
X35731Y-49225G85X36050Y-48650
G05
X41050Y-20279G85X41066Y-20051
G05
X41050Y-27779G85X41066Y-27551
G05
X41050Y-35279G85X41066Y-35051
G05
X41050Y-42779G85X41066Y-42551
G05
X41050Y-50279G85X41066Y-50051
G05
X43231Y-19854G85X43550Y-19279
G05
X43231Y-27354G85X43550Y-26779
G05
X43231Y-34854G85X43550Y-34279
G05
X43231Y-42354G85X43550Y-41779
G05
X43231Y-49854G85X43550Y-49279
G05
X48550Y-20780G85X48566Y-20552
G05
X48550Y-28279G85X48566Y-28051
G05
X48550Y-43279G85X48566Y-43051
G05
X48554Y-35775G85X48570Y-35547
G05
X50731Y-20355G85X51050Y-19780
G05
X50731Y-27854G85X51050Y-27279
G05
X50731Y-42854G85X51050Y-42279
G05
X50735Y-35350G85X51055Y-34775
G05
X51615Y-53817G85X52001Y-54349
G05
X52151Y-51660G85X52351Y-51771
G05
X55050Y-27154G85X55278Y-27170
G05
X55050Y-38404G85X55278Y-38420
G05
X55475Y-29335G85X56050Y-29654
G05
X55475Y-40585G85X56050Y-40904
G05
X56050Y-20780G85X56066Y-20552
G05
X58231Y-20355G85X58550Y-19780
G05
X58411Y-56987G85X58797Y-57519
G05
X58948Y-54831G85X59148Y-54941
G05
X63341Y-47776G85X63451Y-47576
G05
X63799Y-64540G85X63909Y-64340
G05
X65497Y-48312G85X66029Y-47926
G05
X65955Y-65076G85X66487Y-64690
G05
X66969Y-57742G85X67079Y-57542
G05
X69125Y-58278G85X69657Y-57892
G05
X70138Y-50945G85X70248Y-50745
G05
X72294Y-51481G85X72826Y-51095
G05
T0
M30
