G04 #@! TF.FileFunction,Soldermask,Bot*
%FSLAX46Y46*%
G04 Gerber Fmt 4.6, Leading zero omitted, Abs format (unit mm)*
G04 Created by KiCad (PCBNEW (2015-07-17 BZR 5958)-product) date 8/7/2015 1:38:11 AM*
%MOMM*%
G01*
G04 APERTURE LIST*
%ADD10C,0.150000*%
%ADD11R,0.452400X1.652400*%
%ADD12R,1.652400X0.452400*%
%ADD13R,0.752400X0.802400*%
%ADD14R,0.802400X0.752400*%
%ADD15R,0.949960X0.949960*%
%ADD16R,1.352400X1.552400*%
%ADD17C,0.939800*%
%ADD18C,1.143010*%
%ADD19C,2.527310*%
%ADD20C,1.952400*%
%ADD21R,1.102400X2.052400*%
%ADD22R,3.402400X2.052400*%
%ADD23R,1.952400X1.252400*%
%ADD24R,1.582400X0.552400*%
%ADD25O,1.952400X3.652400*%
%ADD26O,1.202400X2.052400*%
%ADD27C,3.000000*%
%ADD28R,2.552400X1.652400*%
%ADD29C,1.352400*%
%ADD30C,1.002410*%
%ADD31O,1.552400X1.552400*%
%ADD32R,1.552400X1.552400*%
%ADD33C,1.552400*%
%ADD34R,1.003300X1.153160*%
%ADD35R,1.153160X1.003300*%
%ADD36C,4.140210*%
%ADD37C,1.854210*%
%ADD38C,2.652400*%
G04 APERTURE END LIST*
D10*
D11*
X141030000Y-114011000D03*
X141530000Y-114011000D03*
X142030000Y-114011000D03*
X142530000Y-114011000D03*
X143030000Y-114011000D03*
X143530000Y-114011000D03*
X144030000Y-114011000D03*
X144530000Y-114011000D03*
X145030000Y-114011000D03*
X145530000Y-114011000D03*
X146030000Y-114011000D03*
X146530000Y-114011000D03*
X147030000Y-114011000D03*
X147530000Y-114011000D03*
X148030000Y-114011000D03*
X148530000Y-114011000D03*
D12*
X150530000Y-116011000D03*
X150530000Y-116511000D03*
X150530000Y-117011000D03*
X150530000Y-117511000D03*
X150530000Y-118011000D03*
X150530000Y-118511000D03*
X150530000Y-119011000D03*
X150530000Y-119511000D03*
X150530000Y-120011000D03*
X150530000Y-120511000D03*
X150530000Y-121011000D03*
X150530000Y-121511000D03*
X150530000Y-122011000D03*
X150530000Y-122511000D03*
X150530000Y-123011000D03*
X150530000Y-123511000D03*
D11*
X148530000Y-125511000D03*
X148030000Y-125511000D03*
X147530000Y-125511000D03*
X147030000Y-125511000D03*
X146530000Y-125511000D03*
X146030000Y-125511000D03*
X145530000Y-125511000D03*
X145030000Y-125511000D03*
X144530000Y-125511000D03*
X144030000Y-125511000D03*
X143530000Y-125511000D03*
X143030000Y-125511000D03*
X142530000Y-125511000D03*
X142030000Y-125511000D03*
X141530000Y-125511000D03*
X141030000Y-125511000D03*
D12*
X139030000Y-123511000D03*
X139030000Y-123011000D03*
X139030000Y-122511000D03*
X139030000Y-122011000D03*
X139030000Y-121511000D03*
X139030000Y-121011000D03*
X139030000Y-120511000D03*
X139030000Y-120011000D03*
X139030000Y-119511000D03*
X139030000Y-119011000D03*
X139030000Y-118511000D03*
X139030000Y-118011000D03*
X139030000Y-117511000D03*
X139030000Y-117011000D03*
X139030000Y-116511000D03*
X139030000Y-116011000D03*
D13*
X39743000Y-47879000D03*
X38743000Y-47879000D03*
X39743000Y-46609000D03*
X38743000Y-46609000D03*
D14*
X55753000Y-40013000D03*
X55753000Y-41013000D03*
D13*
X129278000Y-116459000D03*
X128278000Y-116459000D03*
D14*
X138811000Y-125484000D03*
X138811000Y-126484000D03*
X52832000Y-40013000D03*
X52832000Y-41013000D03*
X154432000Y-116832000D03*
X154432000Y-115832000D03*
X136525000Y-125484000D03*
X136525000Y-126484000D03*
D13*
X114562000Y-120142000D03*
X115562000Y-120142000D03*
X114562000Y-118110000D03*
X115562000Y-118110000D03*
X40267000Y-40513000D03*
X41267000Y-40513000D03*
D14*
X115570000Y-123182000D03*
X115570000Y-122182000D03*
D13*
X39743000Y-45339000D03*
X38743000Y-45339000D03*
D14*
X116332000Y-125611000D03*
X116332000Y-126611000D03*
D13*
X39743000Y-44069000D03*
X38743000Y-44069000D03*
X39743000Y-42799000D03*
X38743000Y-42799000D03*
X35171000Y-40513000D03*
X34171000Y-40513000D03*
X38219000Y-40513000D03*
X37219000Y-40513000D03*
D14*
X147955000Y-129294000D03*
X147955000Y-130294000D03*
D13*
X129278000Y-118110000D03*
X128278000Y-118110000D03*
D14*
X152654000Y-122436000D03*
X152654000Y-123436000D03*
D13*
X140724000Y-127889000D03*
X141724000Y-127889000D03*
D14*
X148844000Y-62603000D03*
X148844000Y-61603000D03*
D13*
X129278000Y-114554000D03*
X128278000Y-114554000D03*
D14*
X139700000Y-62603000D03*
X139700000Y-61603000D03*
D13*
X141740000Y-111506000D03*
X142740000Y-111506000D03*
D15*
X154432000Y-121145300D03*
X154432000Y-119646700D03*
D16*
X151600000Y-128989000D03*
X153200000Y-128989000D03*
X153200000Y-126789000D03*
X151600000Y-126789000D03*
D17*
X106172000Y-134112000D03*
X106172000Y-135382000D03*
X104902000Y-134112000D03*
X104902000Y-135382000D03*
X103632000Y-135382000D03*
X103632000Y-134112000D03*
X107442000Y-134112000D03*
X107442000Y-135382000D03*
X108712000Y-134112000D03*
X108712000Y-135382000D03*
D18*
X109982000Y-134747000D03*
X102362000Y-133731000D03*
X102362000Y-135763000D03*
D19*
X109982000Y-132207000D03*
X104267000Y-132207000D03*
X109982000Y-137287000D03*
X104267000Y-137287000D03*
D20*
X148972174Y-158574603D03*
X146670152Y-157501153D03*
X144368131Y-156427702D03*
X142066109Y-155354252D03*
X139764087Y-154280802D03*
X137462065Y-153207351D03*
X135160044Y-152133901D03*
X132858022Y-151060450D03*
X130556000Y-149987000D03*
X128253978Y-148913550D03*
X125951956Y-147840099D03*
X123649935Y-146766649D03*
X121347913Y-145693198D03*
X119045891Y-144619748D03*
X116743869Y-143546298D03*
X114441848Y-142472847D03*
X112139826Y-141399397D03*
D21*
X144272000Y-62613000D03*
X141972000Y-62613000D03*
X146572000Y-62613000D03*
D22*
X144272000Y-56513000D03*
D13*
X128278000Y-119761000D03*
X129278000Y-119761000D03*
D14*
X24257000Y-40013000D03*
X24257000Y-41013000D03*
D23*
X142696000Y-87448000D03*
X142696000Y-83748000D03*
X148896000Y-87448000D03*
X148896000Y-83748000D03*
D24*
X125715000Y-115536000D03*
X125715000Y-116186000D03*
X125715000Y-116836000D03*
X125715000Y-117486000D03*
X125715000Y-118136000D03*
X125715000Y-118786000D03*
X125715000Y-119436000D03*
X125715000Y-120086000D03*
X125715000Y-120736000D03*
X125715000Y-121386000D03*
X125715000Y-122036000D03*
X125715000Y-122686000D03*
X125715000Y-123336000D03*
X125715000Y-123986000D03*
X118125000Y-123986000D03*
X118125000Y-123336000D03*
X118125000Y-122686000D03*
X118125000Y-122036000D03*
X118125000Y-121386000D03*
X118125000Y-120736000D03*
X118125000Y-120086000D03*
X118125000Y-119436000D03*
X118125000Y-118786000D03*
X118125000Y-118136000D03*
X118125000Y-117486000D03*
X118125000Y-116836000D03*
X118125000Y-116186000D03*
X118125000Y-115536000D03*
D25*
X127482000Y-36559000D03*
X143282000Y-36559000D03*
D26*
X116381000Y-26723000D03*
X103831000Y-26723000D03*
D27*
X147320000Y-37719000D03*
X38100000Y-98679000D03*
X172720000Y-131699000D03*
D28*
X21197000Y-36665000D03*
X24197000Y-36665000D03*
D29*
X26497000Y-38615000D03*
X27997000Y-38615000D03*
X29497000Y-38615000D03*
X30997000Y-38615000D03*
X32497000Y-38615000D03*
X33997000Y-38615000D03*
X35497000Y-38615000D03*
X36997000Y-38615000D03*
X38497000Y-38615000D03*
X39997000Y-38615000D03*
X41497000Y-38615000D03*
X42997000Y-38615000D03*
X44497000Y-38615000D03*
X45997000Y-38615000D03*
X47497000Y-38615000D03*
X48997000Y-38615000D03*
X50497000Y-38615000D03*
D28*
X52797000Y-36665000D03*
X55797000Y-36665000D03*
D30*
X58597000Y-38615000D03*
X18397000Y-38615000D03*
D31*
X50927500Y-63573700D03*
D32*
X48387500Y-63573700D03*
D33*
X169794011Y-156334725D02*
X169794011Y-156334725D01*
D10*
G36*
X166460477Y-155636715D02*
X167116549Y-154229763D01*
X168523501Y-154885835D01*
X167867429Y-156292787D01*
X166460477Y-155636715D01*
X166460477Y-155636715D01*
G37*
D31*
X50927500Y-101674000D03*
D32*
X48387500Y-101674000D03*
D31*
X69977000Y-60398700D03*
D32*
X67437000Y-60398700D03*
D31*
X69977000Y-98499000D03*
D32*
X67437000Y-98499000D03*
D31*
X89027000Y-58801000D03*
D32*
X86487000Y-58801000D03*
D31*
X89027000Y-96901000D03*
D32*
X86487000Y-96901000D03*
D31*
X108077000Y-60398700D03*
D32*
X105537000Y-60398700D03*
D31*
X27115000Y-101674000D03*
D32*
X24575000Y-101674000D03*
D31*
X27115000Y-63573700D03*
D32*
X24575000Y-63573700D03*
D33*
X177846011Y-139067725D02*
X177846011Y-139067725D01*
D10*
G36*
X174512477Y-138369715D02*
X175168549Y-136962763D01*
X176575501Y-137618835D01*
X175919429Y-139025787D01*
X174512477Y-138369715D01*
X174512477Y-138369715D01*
G37*
D31*
X127138000Y-80708100D03*
D32*
X124598000Y-80708100D03*
D31*
X108077000Y-98499000D03*
D32*
X105537000Y-98499000D03*
D31*
X108077000Y-79449000D03*
D32*
X105537000Y-79449000D03*
D33*
X157324275Y-147015011D02*
X157324275Y-147015011D01*
D10*
G36*
X158022285Y-143681477D02*
X159429237Y-144337549D01*
X158773165Y-145744501D01*
X157366213Y-145088429D01*
X158022285Y-143681477D01*
X158022285Y-143681477D01*
G37*
D31*
X69977000Y-41348700D03*
D32*
X67437000Y-41348700D03*
D31*
X89027000Y-77851000D03*
D32*
X86487000Y-77851000D03*
D33*
X140060275Y-138964011D02*
X140060275Y-138964011D01*
D10*
G36*
X140758285Y-135630477D02*
X142165237Y-136286549D01*
X141509165Y-137693501D01*
X140102213Y-137037429D01*
X140758285Y-135630477D01*
X140758285Y-135630477D01*
G37*
D31*
X127127000Y-42621200D03*
D32*
X124587000Y-42621200D03*
D31*
X69977000Y-79449000D03*
D32*
X67437000Y-79449000D03*
D31*
X108077000Y-117549000D03*
D32*
X105537000Y-117549000D03*
D31*
X108077000Y-41348700D03*
D32*
X105537000Y-41348700D03*
D31*
X50927500Y-82624000D03*
D32*
X48387500Y-82624000D03*
D31*
X89027000Y-115951000D03*
D32*
X86487000Y-115951000D03*
D31*
X89027000Y-39751000D03*
D32*
X86487000Y-39751000D03*
D31*
X27115000Y-82624000D03*
D32*
X24575000Y-82624000D03*
D31*
X69977000Y-117549000D03*
D32*
X67437000Y-117549000D03*
D31*
X146177000Y-42621200D03*
D32*
X143637000Y-42621200D03*
D33*
X185898011Y-121801725D02*
X185898011Y-121801725D01*
D10*
G36*
X182564477Y-121103715D02*
X183220549Y-119696763D01*
X184627501Y-120352835D01*
X183971429Y-121759787D01*
X182564477Y-121103715D01*
X182564477Y-121103715D01*
G37*
D31*
X50927000Y-120724000D03*
D32*
X48387000Y-120724000D03*
D31*
X50927500Y-44526200D03*
D32*
X48387500Y-44526200D03*
D33*
X168634011Y-113751725D02*
X168634011Y-113751725D01*
D10*
G36*
X165300477Y-113053715D02*
X165956549Y-111646763D01*
X167363501Y-112302835D01*
X166707429Y-113709787D01*
X165300477Y-113053715D01*
X165300477Y-113053715D01*
G37*
D31*
X31877000Y-120724000D03*
D32*
X29337000Y-120724000D03*
D31*
X27115000Y-44526200D03*
D32*
X24575000Y-44526200D03*
D31*
X149987000Y-101356000D03*
D32*
X149987000Y-98816000D03*
D31*
X149987000Y-72781200D03*
D32*
X149987000Y-70241200D03*
D31*
X127127000Y-99769000D03*
D32*
X124587000Y-99769000D03*
D31*
X127127000Y-61668700D03*
D32*
X124587000Y-61668700D03*
D10*
G36*
X180308705Y-122233040D02*
X181218004Y-122657053D01*
X180730657Y-123702170D01*
X179821358Y-123278157D01*
X180308705Y-122233040D01*
X180308705Y-122233040D01*
G37*
G36*
X178829490Y-125405226D02*
X179738789Y-125829239D01*
X179251442Y-126874356D01*
X178342143Y-126450343D01*
X178829490Y-125405226D01*
X178829490Y-125405226D01*
G37*
D34*
X22733500Y-85951400D03*
X22733500Y-89451520D03*
X46545500Y-85951400D03*
X46545500Y-89451520D03*
X65595500Y-82776400D03*
X65595500Y-86276520D03*
X84645500Y-81178400D03*
X84645500Y-84678520D03*
X103696000Y-82776400D03*
X103696000Y-86276520D03*
X122756000Y-84035500D03*
X122756000Y-87535620D03*
X22733500Y-66901100D03*
X22733500Y-70401220D03*
X46545500Y-66901100D03*
X46545500Y-70401220D03*
X65595500Y-63726100D03*
X65595500Y-67226220D03*
X103696000Y-63726100D03*
X103696000Y-67226220D03*
X122746000Y-64996100D03*
X122746000Y-68496220D03*
D35*
X146659600Y-68399700D03*
X143159480Y-68399700D03*
D34*
X22733500Y-47853600D03*
X22733500Y-51353720D03*
X46545500Y-47853600D03*
X46545500Y-51353720D03*
D10*
G36*
X163043705Y-114182040D02*
X163953004Y-114606053D01*
X163465657Y-115651170D01*
X162556358Y-115227157D01*
X163043705Y-114182040D01*
X163043705Y-114182040D01*
G37*
G36*
X161564490Y-117354226D02*
X162473789Y-117778239D01*
X161986442Y-118823356D01*
X161077143Y-118399343D01*
X161564490Y-117354226D01*
X161564490Y-117354226D01*
G37*
D34*
X122746000Y-45948600D03*
X122746000Y-49448720D03*
X103696000Y-44676100D03*
X103696000Y-48176220D03*
X84645500Y-43078400D03*
X84645500Y-46578520D03*
X65595500Y-44676100D03*
X65595500Y-48176220D03*
X84645500Y-62128400D03*
X84645500Y-65628520D03*
X27495500Y-124051400D03*
X27495500Y-127551520D03*
X46545500Y-124051400D03*
X46545500Y-127551520D03*
X65595500Y-120876400D03*
X65595500Y-124376520D03*
X84645500Y-119278400D03*
X84645500Y-122778520D03*
X103696000Y-120876400D03*
X103696000Y-124376520D03*
X141796000Y-45948600D03*
X141796000Y-49448720D03*
D10*
G36*
X156896960Y-141428705D02*
X156472947Y-142338004D01*
X155427830Y-141850657D01*
X155851843Y-140941358D01*
X156896960Y-141428705D01*
X156896960Y-141428705D01*
G37*
G36*
X153724774Y-139949490D02*
X153300761Y-140858789D01*
X152255644Y-140371442D01*
X152679657Y-139462143D01*
X153724774Y-139949490D01*
X153724774Y-139949490D01*
G37*
G36*
X164207705Y-156762040D02*
X165117004Y-157186053D01*
X164629657Y-158231170D01*
X163720358Y-157807157D01*
X164207705Y-156762040D01*
X164207705Y-156762040D01*
G37*
G36*
X162728490Y-159934226D02*
X163637789Y-160358239D01*
X163150442Y-161403356D01*
X162241143Y-160979343D01*
X162728490Y-159934226D01*
X162728490Y-159934226D01*
G37*
G36*
X172258705Y-139495040D02*
X173168004Y-139919053D01*
X172680657Y-140964170D01*
X171771358Y-140540157D01*
X172258705Y-139495040D01*
X172258705Y-139495040D01*
G37*
G36*
X170779490Y-142667226D02*
X171688789Y-143091239D01*
X171201442Y-144136356D01*
X170292143Y-143712343D01*
X170779490Y-142667226D01*
X170779490Y-142667226D01*
G37*
D34*
X22733500Y-105001400D03*
X22733500Y-108501520D03*
X46545500Y-105001400D03*
X46545500Y-108501520D03*
X65595500Y-101826400D03*
X65595500Y-105326520D03*
X84645500Y-100228400D03*
X84645500Y-103728520D03*
X103696000Y-101826400D03*
X103696000Y-105326520D03*
X122746000Y-103096400D03*
X122746000Y-106596520D03*
D35*
X146659600Y-96974500D03*
X143159480Y-96974500D03*
D10*
G36*
X139632960Y-133376705D02*
X139208947Y-134286004D01*
X138163830Y-133798657D01*
X138587843Y-132889358D01*
X139632960Y-133376705D01*
X139632960Y-133376705D01*
G37*
G36*
X136460774Y-131897490D02*
X136036761Y-132806789D01*
X134991644Y-132319442D01*
X135415657Y-131410143D01*
X136460774Y-131897490D01*
X136460774Y-131897490D01*
G37*
D36*
X165334000Y-117820000D03*
D37*
X169938044Y-119966901D03*
X160729956Y-115673099D03*
D38*
X166362059Y-122712853D02*
X167713973Y-121732431D01*
X160885611Y-121350101D02*
X161165915Y-120842331D01*
D36*
X125857000Y-47701200D03*
D37*
X130937000Y-47701200D03*
X120777000Y-47701200D03*
D38*
X128856547Y-51701154D02*
X129667453Y-50241246D01*
X123317276Y-52780528D02*
X123356724Y-52201872D01*
D36*
X68707000Y-65478700D03*
D37*
X73787000Y-65478700D03*
X63627000Y-65478700D03*
D38*
X71706547Y-69478654D02*
X72517453Y-68018746D01*
X66167276Y-70558028D02*
X66206724Y-69979372D01*
D36*
X153258000Y-143718000D03*
D37*
X151111099Y-148322044D03*
X155404901Y-139113956D03*
D38*
X148365147Y-144746059D02*
X149345569Y-146097973D01*
X149727899Y-139269611D02*
X150235669Y-139549915D01*
D36*
X106807000Y-122629000D03*
D37*
X111887000Y-122629000D03*
X101727000Y-122629000D03*
D38*
X109806547Y-126628954D02*
X110617453Y-125169046D01*
X104267276Y-127708328D02*
X104306724Y-127129672D01*
D36*
X87757000Y-121031000D03*
D37*
X92837000Y-121031000D03*
X82677000Y-121031000D03*
D38*
X90756547Y-125030954D02*
X91567453Y-123571046D01*
X85217276Y-126110328D02*
X85256724Y-125531672D01*
D36*
X49657000Y-125804000D03*
D37*
X54737000Y-125804000D03*
X44577000Y-125804000D03*
D38*
X52656547Y-129803954D02*
X53467453Y-128344046D01*
X47117276Y-130883328D02*
X47156724Y-130304672D01*
D36*
X125857000Y-104849000D03*
D37*
X130937000Y-104849000D03*
X120777000Y-104849000D03*
D38*
X128856547Y-108848954D02*
X129667453Y-107389046D01*
X123317276Y-109928328D02*
X123356724Y-109349672D01*
D36*
X106807000Y-103579000D03*
D37*
X111887000Y-103579000D03*
X101727000Y-103579000D03*
D38*
X109806547Y-107578954D02*
X110617453Y-106119046D01*
X104267276Y-108658328D02*
X104306724Y-108079672D01*
D36*
X87757000Y-101981000D03*
D37*
X92837000Y-101981000D03*
X82677000Y-101981000D03*
D38*
X90756547Y-105980954D02*
X91567453Y-104521046D01*
X85217276Y-107060328D02*
X85256724Y-106481672D01*
D36*
X68707000Y-103579000D03*
D37*
X73787000Y-103579000D03*
X63627000Y-103579000D03*
D38*
X71706547Y-107578954D02*
X72517453Y-106119046D01*
X66167276Y-108658328D02*
X66206724Y-108079672D01*
D36*
X49657000Y-106754000D03*
D37*
X54737000Y-106754000D03*
X44577000Y-106754000D03*
D38*
X52656547Y-110753954D02*
X53467453Y-109294046D01*
X47117276Y-111833328D02*
X47156724Y-111254672D01*
D36*
X125868000Y-85788100D03*
D37*
X130948000Y-85788100D03*
X120788000Y-85788100D03*
D38*
X128867547Y-89788054D02*
X129678453Y-88328146D01*
X123328276Y-90867428D02*
X123367724Y-90288772D01*
D36*
X106807000Y-84529000D03*
D37*
X111887000Y-84529000D03*
X101727000Y-84529000D03*
D38*
X109806547Y-88528954D02*
X110617453Y-87069046D01*
X104267276Y-89608328D02*
X104306724Y-89029672D01*
D36*
X87757000Y-82931000D03*
D37*
X92837000Y-82931000D03*
X82677000Y-82931000D03*
D38*
X90756547Y-86930954D02*
X91567453Y-85471046D01*
X85217276Y-88010328D02*
X85256724Y-87431672D01*
D36*
X68707000Y-84529000D03*
D37*
X73787000Y-84529000D03*
X63627000Y-84529000D03*
D38*
X71706547Y-88528954D02*
X72517453Y-87069046D01*
X66167276Y-89608328D02*
X66206724Y-89029672D01*
D36*
X49657000Y-87704000D03*
D37*
X54737000Y-87704000D03*
X44577000Y-87704000D03*
D38*
X52656547Y-91703954D02*
X53467453Y-90244046D01*
X47117276Y-92783328D02*
X47156724Y-92204672D01*
D36*
X106807000Y-65478700D03*
D37*
X111887000Y-65478700D03*
X101727000Y-65478700D03*
D38*
X109806547Y-69478654D02*
X110617453Y-68018746D01*
X104267276Y-70558028D02*
X104306724Y-69979372D01*
D36*
X87757000Y-63881000D03*
D37*
X92837000Y-63881000D03*
X82677000Y-63881000D03*
D38*
X90756547Y-67880954D02*
X91567453Y-66421046D01*
X85217276Y-68960328D02*
X85256724Y-68381672D01*
D36*
X49657000Y-68653700D03*
D37*
X54737000Y-68653700D03*
X44577000Y-68653700D03*
D38*
X52656547Y-72653654D02*
X53467453Y-71193746D01*
X47117276Y-73733028D02*
X47156724Y-73154372D01*
D36*
X68707000Y-122629000D03*
D37*
X73787000Y-122629000D03*
X63627000Y-122629000D03*
D38*
X71706547Y-126628954D02*
X72517453Y-125169046D01*
X66167276Y-127708328D02*
X66206724Y-127129672D01*
D36*
X106807000Y-46428700D03*
D37*
X111887000Y-46428700D03*
X101727000Y-46428700D03*
D38*
X109806547Y-50428654D02*
X110617453Y-48968746D01*
X104267276Y-51508028D02*
X104306724Y-50929372D01*
D36*
X87757000Y-44831000D03*
D37*
X92837000Y-44831000D03*
X82677000Y-44831000D03*
D38*
X90756547Y-48830954D02*
X91567453Y-47371046D01*
X85217276Y-49910328D02*
X85256724Y-49331672D01*
D36*
X68707000Y-46428700D03*
D37*
X73787000Y-46428700D03*
X63627000Y-46428700D03*
D38*
X71706547Y-50428654D02*
X72517453Y-48968746D01*
X66167276Y-51508028D02*
X66206724Y-50929372D01*
D36*
X49657000Y-49606200D03*
D37*
X54737000Y-49606200D03*
X44577000Y-49606200D03*
D38*
X52656547Y-53606154D02*
X53467453Y-52146246D01*
X47117276Y-54685528D02*
X47156724Y-54106872D01*
D36*
X182598000Y-125870000D03*
D37*
X187202044Y-128016901D03*
X177993956Y-123723099D03*
D38*
X183626059Y-130762853D02*
X184977973Y-129782431D01*
X178149611Y-129400101D02*
X178429915Y-128892331D01*
D36*
X166497000Y-160401000D03*
D37*
X171101044Y-162547901D03*
X161892956Y-158254099D03*
D38*
X167525059Y-165293853D02*
X168876973Y-164313431D01*
X162048611Y-163931101D02*
X162328915Y-163423331D01*
D36*
X174549000Y-143134000D03*
D37*
X179153044Y-145280901D03*
X169944956Y-140987099D03*
D38*
X175577059Y-148026853D02*
X176928973Y-147046431D01*
X170100611Y-146664101D02*
X170380915Y-146156331D01*
D36*
X125857000Y-66748700D03*
D37*
X130937000Y-66748700D03*
X120777000Y-66748700D03*
D38*
X128856547Y-70748654D02*
X129667453Y-69288746D01*
X123317276Y-71828028D02*
X123356724Y-71249372D01*
D36*
X30607000Y-125804000D03*
D37*
X35687000Y-125804000D03*
X25527000Y-125804000D03*
D38*
X33606547Y-129803954D02*
X34417453Y-128344046D01*
X28067276Y-130883328D02*
X28106724Y-130304672D01*
D36*
X144907000Y-100086000D03*
D37*
X144907000Y-105166000D03*
X144907000Y-95006000D03*
D38*
X140907046Y-103085547D02*
X142366954Y-103896453D01*
X139827672Y-97546276D02*
X140406328Y-97585724D01*
D36*
X144907000Y-47701200D03*
D37*
X149987000Y-47701200D03*
X139827000Y-47701200D03*
D38*
X147906547Y-51701154D02*
X148717453Y-50241246D01*
X142367276Y-52780528D02*
X142406724Y-52201872D01*
D36*
X144907000Y-71511200D03*
D37*
X144907000Y-76591200D03*
X144907000Y-66431200D03*
D38*
X140907046Y-74510747D02*
X142366954Y-75321653D01*
X139827672Y-68971476D02*
X140406328Y-69010924D01*
D36*
X25845000Y-106754000D03*
D37*
X30925000Y-106754000D03*
X20765000Y-106754000D03*
D38*
X28844547Y-110753954D02*
X29655453Y-109294046D01*
X23305276Y-111833328D02*
X23344724Y-111254672D01*
D36*
X25845000Y-49606200D03*
D37*
X30925000Y-49606200D03*
X20765000Y-49606200D03*
D38*
X28844547Y-53606154D02*
X29655453Y-52146246D01*
X23305276Y-54685528D02*
X23344724Y-54106872D01*
D36*
X25845000Y-68653700D03*
D37*
X30925000Y-68653700D03*
X20765000Y-68653700D03*
D38*
X28844547Y-72653654D02*
X29655453Y-71193746D01*
X23305276Y-73733028D02*
X23344724Y-73154372D01*
D36*
X25845000Y-87704000D03*
D37*
X30925000Y-87704000D03*
X20765000Y-87704000D03*
D38*
X28844547Y-91703954D02*
X29655453Y-90244046D01*
X23305276Y-92783328D02*
X23344724Y-92204672D01*
D36*
X135994000Y-135666000D03*
D37*
X133847099Y-140270044D03*
X138140901Y-131061956D03*
D38*
X131101147Y-136694059D02*
X132081569Y-138045973D01*
X132463899Y-131217611D02*
X132971669Y-131497915D01*
M02*
