G04 #@! TF.FileFunction,Legend,Top*
%FSLAX46Y46*%
G04 Gerber Fmt 4.6, Leading zero omitted, Abs format (unit mm)*
G04 Created by KiCad (PCBNEW (2016-03-18 BZR 6629, Git 60d93d0)-product) date 7/17/2016 1:38:49 PM*
%MOMM*%
G01*
G04 APERTURE LIST*
%ADD10C,0.150000*%
%ADD11C,0.127000*%
%ADD12C,0.200000*%
G04 APERTURE END LIST*
D10*
D11*
X108258428Y-37694810D02*
X108089095Y-37452905D01*
X107968142Y-37694810D02*
X107968142Y-37186810D01*
X108161666Y-37186810D01*
X108210047Y-37211000D01*
X108234238Y-37235190D01*
X108258428Y-37283571D01*
X108258428Y-37356143D01*
X108234238Y-37404524D01*
X108210047Y-37428714D01*
X108161666Y-37452905D01*
X107968142Y-37452905D01*
X108742238Y-37694810D02*
X108451952Y-37694810D01*
X108597095Y-37694810D02*
X108597095Y-37186810D01*
X108548714Y-37259381D01*
X108500333Y-37307762D01*
X108451952Y-37331952D01*
X109177667Y-37356143D02*
X109177667Y-37694810D01*
X109056714Y-37162619D02*
X108935762Y-37525476D01*
X109250238Y-37525476D01*
D12*
X134643905Y-40457381D02*
X134643905Y-39457381D01*
X135024858Y-39457381D01*
X135120096Y-39505000D01*
X135167715Y-39552619D01*
X135215334Y-39647857D01*
X135215334Y-39790714D01*
X135167715Y-39885952D01*
X135120096Y-39933571D01*
X135024858Y-39981190D01*
X134643905Y-39981190D01*
X136072477Y-39790714D02*
X136072477Y-40457381D01*
X135834381Y-39409762D02*
X135596286Y-40124048D01*
X136215334Y-40124048D01*
X37028572Y-100807571D02*
X36695238Y-100807571D01*
X36695238Y-101331381D02*
X36695238Y-100331381D01*
X37171429Y-100331381D01*
X37552381Y-101331381D02*
X37552381Y-100331381D01*
X38028571Y-101331381D02*
X38028571Y-100331381D01*
X38266666Y-100331381D01*
X38409524Y-100379000D01*
X38504762Y-100474238D01*
X38552381Y-100569476D01*
X38600000Y-100759952D01*
X38600000Y-100902810D01*
X38552381Y-101093286D01*
X38504762Y-101188524D01*
X38409524Y-101283762D01*
X38266666Y-101331381D01*
X38028571Y-101331381D01*
X39457143Y-100664714D02*
X39457143Y-101331381D01*
X39219047Y-100283762D02*
X38980952Y-100998048D01*
X39600000Y-100998048D01*
X171648572Y-133827571D02*
X171315238Y-133827571D01*
X171315238Y-134351381D02*
X171315238Y-133351381D01*
X171791429Y-133351381D01*
X172172381Y-134351381D02*
X172172381Y-133351381D01*
X172648571Y-134351381D02*
X172648571Y-133351381D01*
X172886666Y-133351381D01*
X173029524Y-133399000D01*
X173124762Y-133494238D01*
X173172381Y-133589476D01*
X173220000Y-133779952D01*
X173220000Y-133922810D01*
X173172381Y-134113286D01*
X173124762Y-134208524D01*
X173029524Y-134303762D01*
X172886666Y-134351381D01*
X172648571Y-134351381D01*
X174077143Y-133351381D02*
X173886666Y-133351381D01*
X173791428Y-133399000D01*
X173743809Y-133446619D01*
X173648571Y-133589476D01*
X173600952Y-133779952D01*
X173600952Y-134160905D01*
X173648571Y-134256143D01*
X173696190Y-134303762D01*
X173791428Y-134351381D01*
X173981905Y-134351381D01*
X174077143Y-134303762D01*
X174124762Y-134256143D01*
X174172381Y-134160905D01*
X174172381Y-133922810D01*
X174124762Y-133827571D01*
X174077143Y-133779952D01*
X173981905Y-133732333D01*
X173791428Y-133732333D01*
X173696190Y-133779952D01*
X173648571Y-133827571D01*
X173600952Y-133922810D01*
X146248572Y-39847571D02*
X145915238Y-39847571D01*
X145915238Y-40371381D02*
X145915238Y-39371381D01*
X146391429Y-39371381D01*
X146772381Y-40371381D02*
X146772381Y-39371381D01*
X147248571Y-40371381D02*
X147248571Y-39371381D01*
X147486666Y-39371381D01*
X147629524Y-39419000D01*
X147724762Y-39514238D01*
X147772381Y-39609476D01*
X147820000Y-39799952D01*
X147820000Y-39942810D01*
X147772381Y-40133286D01*
X147724762Y-40228524D01*
X147629524Y-40323762D01*
X147486666Y-40371381D01*
X147248571Y-40371381D01*
X148200952Y-39466619D02*
X148248571Y-39419000D01*
X148343809Y-39371381D01*
X148581905Y-39371381D01*
X148677143Y-39419000D01*
X148724762Y-39466619D01*
X148772381Y-39561857D01*
X148772381Y-39657095D01*
X148724762Y-39799952D01*
X148153333Y-40371381D01*
X148772381Y-40371381D01*
X60428334Y-33091381D02*
X59952143Y-33091381D01*
X59952143Y-32091381D01*
X61333096Y-32996143D02*
X61285477Y-33043762D01*
X61142620Y-33091381D01*
X61047382Y-33091381D01*
X60904524Y-33043762D01*
X60809286Y-32948524D01*
X60761667Y-32853286D01*
X60714048Y-32662810D01*
X60714048Y-32519952D01*
X60761667Y-32329476D01*
X60809286Y-32234238D01*
X60904524Y-32139000D01*
X61047382Y-32091381D01*
X61142620Y-32091381D01*
X61285477Y-32139000D01*
X61333096Y-32186619D01*
X61761667Y-33091381D02*
X61761667Y-32091381D01*
X61999762Y-32091381D01*
X62142620Y-32139000D01*
X62237858Y-32234238D01*
X62285477Y-32329476D01*
X62333096Y-32519952D01*
X62333096Y-32662810D01*
X62285477Y-32853286D01*
X62237858Y-32948524D01*
X62142620Y-33043762D01*
X61999762Y-33091381D01*
X61761667Y-33091381D01*
X63285477Y-33091381D02*
X62714048Y-33091381D01*
X62999762Y-33091381D02*
X62999762Y-32091381D01*
X62904524Y-32234238D01*
X62809286Y-32329476D01*
X62714048Y-32377095D01*
D11*
X112830428Y-37694810D02*
X112661095Y-37452905D01*
X112540142Y-37694810D02*
X112540142Y-37186810D01*
X112733666Y-37186810D01*
X112782047Y-37211000D01*
X112806238Y-37235190D01*
X112830428Y-37283571D01*
X112830428Y-37356143D01*
X112806238Y-37404524D01*
X112782047Y-37428714D01*
X112733666Y-37452905D01*
X112540142Y-37452905D01*
X113314238Y-37694810D02*
X113023952Y-37694810D01*
X113169095Y-37694810D02*
X113169095Y-37186810D01*
X113120714Y-37259381D01*
X113072333Y-37307762D01*
X113023952Y-37331952D01*
X113773857Y-37186810D02*
X113531952Y-37186810D01*
X113507762Y-37428714D01*
X113531952Y-37404524D01*
X113580333Y-37380333D01*
X113701286Y-37380333D01*
X113749667Y-37404524D01*
X113773857Y-37428714D01*
X113798048Y-37477095D01*
X113798048Y-37598048D01*
X113773857Y-37646429D01*
X113749667Y-37670619D01*
X113701286Y-37694810D01*
X113580333Y-37694810D01*
X113531952Y-37670619D01*
X113507762Y-37646429D01*
D12*
X110112286Y-35480257D02*
X110112286Y-34280257D01*
X110569429Y-34280257D01*
X110683715Y-34337400D01*
X110740858Y-34394543D01*
X110798001Y-34508829D01*
X110798001Y-34680257D01*
X110740858Y-34794543D01*
X110683715Y-34851686D01*
X110569429Y-34908829D01*
X110112286Y-34908829D01*
X111255143Y-34394543D02*
X111312286Y-34337400D01*
X111426572Y-34280257D01*
X111712286Y-34280257D01*
X111826572Y-34337400D01*
X111883715Y-34394543D01*
X111940858Y-34508829D01*
X111940858Y-34623114D01*
X111883715Y-34794543D01*
X111198001Y-35480257D01*
X111940858Y-35480257D01*
M02*
