G04 #@! TF.FileFunction,Paste,Top*
%FSLAX46Y46*%
G04 Gerber Fmt 4.6, Leading zero omitted, Abs format (unit mm)*
G04 Created by KiCad (PCBNEW (2016-03-18 BZR 6629, Git 60d93d0)-product) date 7/17/2016 1:38:49 PM*
%MOMM*%
G01*
G04 APERTURE LIST*
%ADD10C,0.150000*%
%ADD11C,0.650000*%
%ADD12R,0.600000X0.650000*%
%ADD13O,1.800000X3.500000*%
%ADD14R,0.700000X1.800000*%
%ADD15R,1.640000X2.200000*%
%ADD16R,0.300000X1.100000*%
G04 APERTURE END LIST*
D10*
D11*
X112598000Y-31187400D02*
X112598000Y-30887400D01*
X109398000Y-31187400D02*
X109398000Y-30887400D01*
X111398000Y-31987400D02*
X111548000Y-31987400D01*
X110598000Y-31987400D02*
X110448000Y-31987400D01*
X109648000Y-31987400D02*
X109398000Y-31987400D01*
X112348000Y-31987400D02*
X112598000Y-31987400D01*
X113798000Y-31987400D02*
X113398000Y-31987400D01*
X108198000Y-31987400D02*
X108598000Y-31987400D01*
X117598000Y-33037400D02*
X117598000Y-30887400D01*
X115448000Y-33037400D02*
X117598000Y-33037400D01*
X115448000Y-30887400D02*
X115448000Y-33037400D01*
X117598000Y-30887400D02*
X115448000Y-30887400D01*
X116998000Y-32987400D02*
X116998000Y-30887400D01*
X116398000Y-33037400D02*
X116398000Y-30887400D01*
X115898000Y-33037400D02*
X115898000Y-30887400D01*
X104848000Y-33037400D02*
X104848000Y-30887400D01*
X105348000Y-33037400D02*
X105348000Y-30887400D01*
X105948000Y-32987400D02*
X105948000Y-30887400D01*
X106548000Y-30887400D02*
X104398000Y-30887400D01*
X104398000Y-30887400D02*
X104398000Y-33037400D01*
X104398000Y-33037400D02*
X106548000Y-33037400D01*
X106548000Y-33037400D02*
X106548000Y-30887400D01*
X104948000Y-28537400D02*
X104948000Y-26287400D01*
X104398000Y-26287400D02*
X104398000Y-28537400D01*
X117048000Y-26287400D02*
X117048000Y-28537400D01*
X117598000Y-28537400D02*
X117598000Y-26287400D01*
X118198000Y-28537400D02*
X118198000Y-26287400D01*
X116448000Y-28537400D02*
X118198000Y-28537400D01*
X116448000Y-26287400D02*
X116448000Y-28537400D01*
X118198000Y-26287400D02*
X116448000Y-26287400D01*
X105548000Y-26287400D02*
X103798000Y-26287400D01*
X103798000Y-26287400D02*
X103798000Y-28537400D01*
X103798000Y-28537400D02*
X105548000Y-28537400D01*
X105548000Y-28537400D02*
X105548000Y-26287400D01*
X113798000Y-31037400D02*
X113398000Y-31037400D01*
X111798000Y-31037400D02*
X111398000Y-31037400D01*
X110598000Y-31037400D02*
X110198000Y-31037400D01*
X108598000Y-31037400D02*
X108198000Y-31037400D01*
X108598000Y-31187400D02*
X108598000Y-31037400D01*
X110198000Y-31187400D02*
X110198000Y-31037400D01*
X111798000Y-31187400D02*
X111798000Y-31037400D01*
X113398000Y-31187400D02*
X113398000Y-31037400D01*
X108198000Y-31987400D02*
X108198000Y-32157400D01*
X109648000Y-31987400D02*
X109648000Y-32157400D01*
X110598000Y-31987400D02*
X110598000Y-32157400D01*
X111398000Y-31987400D02*
X111398000Y-32157400D01*
X112348000Y-31987400D02*
X112348000Y-32157400D01*
X113798000Y-31987400D02*
X113798000Y-32157400D01*
D12*
X109085000Y-36449000D03*
X108085000Y-36449000D03*
D13*
X127482000Y-36559000D03*
X143282000Y-36559000D03*
D14*
X135382000Y-37459000D03*
X134382000Y-37459000D03*
X133382000Y-37459000D03*
X132382000Y-37459000D03*
X131382000Y-37459000D03*
X136382000Y-37459000D03*
X137382000Y-37459000D03*
X138382000Y-37459000D03*
X139382000Y-37459000D03*
D15*
X127712000Y-32559000D03*
X143052000Y-32559000D03*
D12*
X112657000Y-36449000D03*
X113657000Y-36449000D03*
D16*
X113748000Y-33197400D03*
X113248000Y-33197400D03*
X112748000Y-33197400D03*
X112248000Y-33197400D03*
X111748000Y-33197400D03*
X111248000Y-33197400D03*
X110748000Y-33197400D03*
X110248000Y-33197400D03*
X109748000Y-33197400D03*
X109248000Y-33197400D03*
X108748000Y-33197400D03*
X108248000Y-33197400D03*
M02*
