M48
;DRILL file {KiCad (2016-03-18 BZR 6629, Git 60d93d0)-product} date 1/4/2017 12:42:14 AM
;FORMAT={2:4/ absolute / inch / suppress leading zeros}
FMAT,2
INCH,TZ
T1C0.028
T2C0.039
T3C0.093
T4C0.120
T5C0.123
T6C0.157
%
G90
G05
M72
T1
X21417Y-13645
X145167Y-13645
T2
X147550Y-47575
X147950Y-50575
X148350Y-47575
T3
X146950Y-48325
X146950Y-50575
X148950Y-48325
X148950Y-50575
T4
X15250Y-18875
X15250Y-30125
X16187Y-60125
X17125Y-37625
X17750Y-17875
X17750Y-29125
X18063Y-45125
X18687Y-59125
X19625Y-36625
X19937Y-52625
X20563Y-44125
X22437Y-51625
X22750Y-30125
X25250Y-29125
X25563Y-60125
X26500Y-37625
X28063Y-59125
X28375Y-45125
X29000Y-36625
X30250Y-18875
X30250Y-30125
X30875Y-44125
X32125Y-52625
X32750Y-17875
X32750Y-29125
X34000Y-37625
X34625Y-51625
X34937Y-60125
X35875Y-45125
X36500Y-36625
X37437Y-59125
X37750Y-18875
X37750Y-30125
X38375Y-44125
X39625Y-52625
X40250Y-17875
X40250Y-29125
X41500Y-37625
X42125Y-51625
X43375Y-45125
X44000Y-36625
X45250Y-18875
X45250Y-30125
X45875Y-44125
X47125Y-52625
X47750Y-17875
X47750Y-29125
X49000Y-37625
X49625Y-51625
X50875Y-45125
X51500Y-36625
X52750Y-18875
X52750Y-30125
X53375Y-44125
X54625Y-52625
X55250Y-17875
X55250Y-29125
X56500Y-37625
X57125Y-51625
X58375Y-45125
X59000Y-36625
X60250Y-30125
X60875Y-44125
X62125Y-52625
X62750Y-29125
X63063Y-60125
X64000Y-18875
X64000Y-37625
X64625Y-51625
X65563Y-59125
X65875Y-45125
X66500Y-17875
X66500Y-36625
X67750Y-30125
X68375Y-44125
X69625Y-52625
X70250Y-29125
X71500Y-18875
X71500Y-37625
X72125Y-51625
X73375Y-45125
X74000Y-17875
X74000Y-36625
X75250Y-30125
X75875Y-44125
X77125Y-52625
X77750Y-29125
X79000Y-18875
X79000Y-37625
X79625Y-51625
X80875Y-45125
X81500Y-17875
X81500Y-36625
X82750Y-30125
X83375Y-44125
X84625Y-52625
X85250Y-29125
X86500Y-18875
X86500Y-37625
X87125Y-51625
X88375Y-45125
X89000Y-17875
X89000Y-36625
X90250Y-30125
X90875Y-44125
X91187Y-60125
X92125Y-52625
X92750Y-29125
X93687Y-59125
X94000Y-37625
X94625Y-51625
X95875Y-45125
X96500Y-36625
X97750Y-18875
X97750Y-30125
X98375Y-44125
X99625Y-52625
X100250Y-17875
X100250Y-29125
X100563Y-60125
X101500Y-37625
X102125Y-51625
X103063Y-59125
X103375Y-45125
X104000Y-36625
X105250Y-18875
X105250Y-30125
X105875Y-44125
X107750Y-17875
X107750Y-29125
X109000Y-37625
X109937Y-60125
X111500Y-36625
X112437Y-59125
X112750Y-18875
X113687Y-52625
X115250Y-17875
X115563Y-45125
X116187Y-51625
X116500Y-30125
X118063Y-44125
X118375Y-37625
X119000Y-29125
X119313Y-60125
X120250Y-18875
X120875Y-36625
X121813Y-59125
X122750Y-17875
X131500Y-18875
X131500Y-30125
X131500Y-37625
X131500Y-60125
X134000Y-17875
X134000Y-29125
X134000Y-36625
X134000Y-59125
X139000Y-18875
X139000Y-30125
X139000Y-37625
X139000Y-52625
X139000Y-60125
X141500Y-17875
X141500Y-29125
X141500Y-36625
X141500Y-51625
X141500Y-59125
X146500Y-18875
X146500Y-30125
X146500Y-37625
X146500Y-60125
X149000Y-17875
X149000Y-29125
X149000Y-36625
X149000Y-59125
T5
X55625Y-39625
X100625Y-39625
T6
X16250Y-16875
X16250Y-28125
X17187Y-58125
X18125Y-35625
X19063Y-43125
X20937Y-50625
X23750Y-28125
X26563Y-58125
X27500Y-35625
X29375Y-43125
X31250Y-16875
X31250Y-28125
X33125Y-50625
X35000Y-35625
X35937Y-58125
X36875Y-43125
X38750Y-16875
X38750Y-28125
X40625Y-50625
X42500Y-35625
X44375Y-43125
X46250Y-16875
X46250Y-28125
X48125Y-50625
X50000Y-35625
X51875Y-43125
X53750Y-16875
X53750Y-28125
X55625Y-50625
X57500Y-35625
X59375Y-43125
X61250Y-28125
X63125Y-50625
X64063Y-58125
X65000Y-16875
X65000Y-35625
X66875Y-43125
X68750Y-28125
X70625Y-50625
X72500Y-16875
X72500Y-35625
X74375Y-43125
X76250Y-28125
X78125Y-50625
X80000Y-16875
X80000Y-35625
X81875Y-43125
X83750Y-28125
X85625Y-50625
X87500Y-16875
X87500Y-35625
X89375Y-43125
X91250Y-28125
X92187Y-58125
X93125Y-50625
X95000Y-35625
X96875Y-43125
X98750Y-16875
X98750Y-28125
X100625Y-50625
X101563Y-58125
X102500Y-35625
X104375Y-43125
X106250Y-16875
X106250Y-28125
X110000Y-35625
X110937Y-58125
X113750Y-16875
X114687Y-50625
X116563Y-43125
X117500Y-28125
X119375Y-35625
X120313Y-58125
X121250Y-16875
X132500Y-16875
X132500Y-28125
X132500Y-35625
X132500Y-58125
X140000Y-16875
X140000Y-28125
X140000Y-35625
X140000Y-50625
X140000Y-58125
X147500Y-16875
X147500Y-28125
X147500Y-35625
X147500Y-58125
T1
X18632Y-13645G85X18533Y-13645
G05
X142382Y-13645G85X142283Y-13645
G05
T0
M30
