M48
;DRILL file {KiCad (2016-03-18 BZR 6629, Git 60d93d0)-product} date 1/4/2017 12:42:14 AM
;FORMAT={2:4/ absolute / inch / suppress leading zeros}
FMAT,2
INCH,TZ
T1C0.008
T2C0.010
T3C0.012
T4C0.022
T5C0.024
T6C0.039
T7C0.197
%
G90
G05
M72
T1
X12548Y-39221
X12560Y-27369
X12754Y-33887
X12763Y-24396
X12763Y-36505
X12763Y-48267
X12816Y-36150
X13021Y-48235
X13221Y-24459
X13312Y-50368
X13543Y-16328
X13714Y-50177
X14098Y-16345
X15732Y-61301
X16215Y-55512
X17341Y-15830
X17750Y-26270
X18038Y-15557
X18092Y-41738
X18699Y-56694
X18950Y-15150
X19100Y-14750
X19394Y-47988
X19436Y-14772
X19472Y-14490
X19804Y-14530
X19868Y-14284
X19951Y-33453
X20591Y-14294
X20820Y-14968
X20848Y-14312
X21584Y-15288
X21700Y-14300
X21762Y-40546
X21961Y-59357
X22130Y-31591
X22181Y-58176
X22240Y-16800
X22255Y-27298
X22599Y-26738
X22752Y-46222
X22797Y-31394
X23080Y-18000
X23240Y-17600
X23408Y-13338
X23460Y-61612
X23769Y-60990
X23850Y-42119
X24233Y-32811
X24760Y-18560
X24802Y-26744
X24844Y-38305
X25030Y-26870
X25153Y-55529
X25187Y-13780
X25919Y-13336
X26007Y-18363
X26100Y-61812
X26181Y-33014
X26455Y-35813
X26846Y-18577
X28058Y-14827
X28320Y-41738
X28892Y-34229
X29357Y-33089
X29731Y-26284
X30446Y-31903
X30847Y-57786
X31000Y-41979
X31329Y-55075
X31443Y-40699
X31809Y-61402
X32370Y-15488
X32438Y-26829
X32520Y-49593
X32749Y-26555
X32751Y-14297
X33519Y-13858
X33670Y-54321
X33745Y-45713
X33859Y-38989
X34223Y-60789
X34298Y-14401
X34419Y-55694
X34454Y-61596
X34731Y-13356
X34873Y-30435
X34960Y-61354
X35080Y-13338
X35317Y-53159
X35732Y-34996
X35970Y-34238
X36196Y-32837
X36515Y-52932
X36590Y-49427
X36601Y-21711
X36772Y-49243
X36824Y-51292
X36859Y-40070
X37019Y-49149
X37034Y-32833
X37042Y-48884
X37260Y-45319
X37289Y-48978
X37369Y-48340
X37431Y-25514
X37569Y-62066
X37699Y-56241
X38194Y-19762
X38345Y-48730
X38486Y-13265
X38851Y-40887
X39097Y-40465
X39105Y-48170
X39655Y-48012
X39739Y-42442
X39794Y-15858
X40165Y-14108
X40219Y-26672
X40235Y-61561
X41181Y-33014
X41937Y-13631
X42278Y-49658
X42380Y-25427
X42589Y-46545
X42707Y-18593
X43379Y-35120
X43803Y-40255
X43999Y-34056
X44364Y-33104
X44422Y-38424
X44931Y-14264
X45034Y-16101
X45631Y-40307
X45890Y-13338
X46029Y-24636
X46061Y-62238
X46129Y-61003
X46343Y-13338
X46806Y-48014
X47212Y-40273
X47240Y-25000
X47569Y-26736
X47811Y-32268
X47824Y-44476
X47936Y-25870
X48406Y-29689
X48672Y-15376
X48882Y-34466
X49019Y-14283
X49169Y-61499
X49337Y-13971
X49465Y-49425
X49888Y-13721
X49995Y-32755
X50429Y-19513
X50556Y-40514
X50767Y-34768
X50994Y-34238
X52041Y-32952
X52435Y-25513
X53210Y-21057
X54306Y-48014
X54493Y-21111
X54696Y-27134
X55090Y-15690
X55396Y-42791
X56181Y-33014
X56459Y-39660
X56700Y-49238
X57107Y-39929
X57198Y-29579
X57319Y-48297
X57338Y-13342
X57790Y-13338
X58073Y-40512
X58470Y-34238
X58595Y-14065
X59139Y-32991
X59400Y-48960
X59409Y-23748
X59679Y-33104
X59811Y-26113
X60074Y-48616
X60232Y-45558
X60277Y-48220
X60535Y-48186
X60612Y-45791
X60694Y-40490
X61148Y-39855
X61240Y-49600
X61440Y-50600
X61529Y-48570
X61880Y-49320
X62071Y-35945
X62160Y-49600
X62164Y-40523
X62164Y-50747
X62280Y-50080
X62416Y-26974
X62736Y-26700
X62754Y-20681
X62850Y-47570
X63258Y-41396
X64030Y-33012
X64275Y-56995
X64361Y-49964
X64699Y-29367
X64788Y-49590
X65423Y-40558
X65436Y-52279
X65644Y-61956
X65915Y-52260
X65970Y-34238
X66305Y-24069
X66409Y-15472
X66530Y-61605
X66928Y-33317
X67147Y-39025
X67379Y-14562
X67787Y-50354
X68060Y-32266
X68070Y-60557
X68724Y-14149
X68800Y-13368
X69223Y-13338
X69306Y-48014
X69673Y-27147
X69740Y-36375
X70138Y-25280
X70270Y-25726
X70449Y-14890
X70866Y-36321
X70879Y-28664
X71014Y-16915
X71053Y-35410
X71072Y-16444
X71114Y-43015
X71740Y-61612
X71839Y-62238
X71944Y-49237
X71968Y-32755
X72800Y-40880
X73548Y-38759
X73878Y-14152
X73999Y-34056
X74388Y-33076
X74458Y-50442
X74525Y-21447
X74931Y-25514
X74959Y-48170
X75581Y-15480
X75627Y-41821
X76082Y-24011
X76520Y-48240
X76526Y-43510
X77172Y-27147
X77452Y-46478
X77695Y-40615
X77712Y-46462
X77949Y-46086
X77955Y-26253
X78005Y-21562
X78100Y-47755
X78360Y-15320
X78422Y-45898
X78441Y-40052
X78567Y-29759
X79095Y-49238
X79225Y-40606
X79357Y-36344
X79431Y-32755
X79481Y-60388
X80256Y-13397
X80622Y-42724
X80649Y-13338
X80947Y-39720
X80970Y-34238
X81319Y-15486
X81376Y-14146
X81678Y-33625
X82059Y-40070
X82476Y-48103
X82648Y-23645
X82789Y-15701
X83289Y-62238
X83370Y-49997
X83480Y-61800
X83705Y-25255
X83905Y-49164
X83939Y-45881
X84029Y-40840
X84097Y-41495
X84564Y-30494
X84655Y-48012
X85385Y-31625
X85985Y-26925
X86182Y-45725
X86272Y-27685
X86314Y-39175
X86534Y-49647
X86925Y-39572
X87377Y-37692
X87509Y-52310
X87523Y-25544
X88470Y-34238
X88502Y-60106
X88611Y-32725
X88722Y-60884
X88725Y-46832
X88862Y-61128
X88869Y-14188
X88954Y-16349
X89209Y-40070
X89588Y-32626
X89722Y-53193
X90377Y-60990
X90390Y-57415
X91075Y-25255
X91076Y-13904
X91164Y-37886
X91505Y-48862
X91703Y-13383
X92114Y-13338
X92133Y-32297
X92363Y-40621
X92525Y-41040
X92728Y-26658
X92764Y-41200
X92852Y-60437
X93296Y-13965
X93530Y-45563
X93631Y-40020
X93825Y-33012
X94060Y-61170
X94301Y-48012
X94580Y-49732
X94888Y-49898
X94934Y-38046
X95610Y-61399
X95651Y-53802
X95677Y-25509
X96399Y-40255
X96438Y-46640
X96499Y-34092
X96500Y-13242
X96621Y-23095
X97359Y-33053
X97431Y-25514
X97780Y-14262
X98125Y-13142
X98216Y-37852
X98330Y-12904
X98450Y-48767
X98941Y-22146
X99071Y-21891
X99685Y-57414
X99720Y-26738
X99979Y-22238
X100007Y-44780
X100338Y-15742
X100428Y-31480
X100494Y-26250
X100972Y-27867
X101129Y-55255
X101676Y-48012
X102108Y-32755
X102361Y-19273
X102669Y-19388
X102812Y-56738
X102925Y-31989
X103056Y-40514
X103068Y-55994
X103187Y-48252
X103282Y-48773
X103289Y-39528
X103470Y-34238
X103534Y-60099
X103685Y-48518
X103685Y-32804
X103780Y-13338
X104022Y-56473
X104765Y-23185
X104921Y-56526
X104931Y-14264
X105084Y-32491
X106614Y-24885
X106702Y-61354
X107220Y-25512
X107320Y-26738
X107705Y-15659
X107962Y-38492
X108114Y-24236
X108225Y-46352
X108347Y-56583
X108475Y-28239
X108539Y-33604
X109229Y-18510
X109285Y-24108
X109431Y-55959
X109636Y-19120
X110071Y-24272
X110794Y-45940
X111555Y-34690
X112371Y-14213
X112444Y-55955
X112448Y-29566
X112561Y-38463
X112585Y-29854
X112775Y-55650
X113087Y-57407
X113517Y-42911
X113715Y-49238
X113940Y-35071
X114720Y-15488
X115148Y-40531
X115639Y-14769
X115769Y-57218
X115960Y-25920
X116049Y-14981
X116195Y-47754
X116314Y-56831
X116407Y-37146
X116474Y-15166
X116523Y-48753
X116571Y-47499
X116572Y-27490
X116800Y-27280
X116804Y-18510
X117541Y-61231
X117720Y-12860
X118179Y-57563
X118282Y-13431
X118400Y-40831
X118650Y-41410
X119140Y-55492
X119198Y-53196
X119378Y-37061
X119691Y-48635
X119858Y-37501
X120095Y-16472
X120280Y-14262
X120335Y-34953
X120414Y-55070
X120722Y-13423
X120746Y-40849
X120896Y-33858
X121185Y-54555
X121582Y-55093
X121697Y-37260
X121709Y-41215
X121760Y-56145
X121793Y-54934
X122220Y-15488
X122289Y-56126
X122374Y-52249
X122414Y-16231
X122561Y-55984
X122700Y-31050
X122700Y-31700
X122793Y-57959
X122956Y-31761
X122984Y-40191
X123089Y-34760
X123203Y-29128
X123239Y-52341
X123317Y-35100
X123500Y-31000
X123524Y-51394
X123550Y-53711
X123587Y-40343
X123650Y-30300
X123661Y-52402
X123810Y-53762
X123825Y-40920
X123833Y-26775
X123917Y-30370
X123949Y-37030
X123976Y-41506
X123989Y-53129
X123993Y-53578
X124009Y-52459
X124049Y-41035
X124083Y-51776
X124094Y-50406
X124138Y-51538
X124206Y-36974
X124230Y-51123
X124248Y-53523
X124309Y-48900
X124363Y-16038
X124400Y-31600
X124423Y-50765
X124429Y-40826
X124467Y-39676
X124500Y-54250
X124515Y-44052
X124525Y-49846
X124550Y-31350
X124561Y-38260
X124691Y-44242
X124749Y-45678
X124755Y-49689
X124759Y-47950
X124800Y-31300
X124800Y-53700
X124868Y-57414
X124950Y-44069
X124963Y-38022
X124968Y-27548
X124968Y-34101
X125050Y-54000
X125078Y-38258
X125114Y-40380
X125131Y-44517
X125139Y-45477
X125167Y-39935
X125250Y-52800
X125311Y-37215
X125371Y-44556
X125412Y-29594
X125414Y-38765
X125450Y-32100
X125467Y-47942
X125473Y-60002
X125669Y-48940
X125670Y-31499
X125700Y-44800
X125700Y-52850
X125732Y-30360
X125800Y-32400
X125835Y-35058
X125862Y-37527
X125918Y-30545
X125984Y-26775
X126069Y-38346
X126168Y-48875
X126200Y-44935
X126200Y-53300
X126232Y-30774
X126334Y-27160
X126337Y-26373
X126350Y-53100
X126434Y-40915
X126517Y-52822
X126519Y-40322
X126595Y-13338
X126599Y-25793
X126627Y-39310
X126631Y-35795
X126664Y-52601
X126672Y-30866
X126681Y-48835
X126687Y-40915
X126720Y-48440
X126736Y-40668
X126770Y-49080
X126814Y-41129
X126849Y-42969
X126903Y-39447
X126934Y-49282
X126959Y-42264
X126992Y-42770
X127039Y-43464
X127191Y-41669
X127207Y-41069
X127221Y-49622
X127259Y-31852
X127266Y-42159
X127309Y-34590
X127314Y-42403
X127412Y-51641
X127469Y-50661
X127508Y-50410
X127583Y-44724
X127643Y-49763
X127676Y-53358
X127738Y-50288
X127831Y-51484
X127850Y-44700
X127894Y-53213
X128104Y-53055
X128200Y-43100
X128228Y-31493
X128289Y-34240
X128344Y-37544
X128693Y-32888
X128812Y-34694
X128862Y-54563
X128863Y-34434
X129022Y-13457
X129051Y-36517
X129100Y-41550
X129288Y-48116
X129369Y-44181
X129541Y-48055
X129559Y-56355
X129600Y-41900
X129649Y-44019
X129798Y-48014
X129979Y-43453
X130000Y-42050
X130050Y-42300
X130134Y-43242
X130200Y-43000
X130250Y-42600
X130339Y-33497
X130344Y-45995
X130361Y-53260
X130369Y-22722
X130494Y-46555
X130554Y-57415
X130583Y-33946
X130675Y-46726
X130723Y-46148
X130739Y-47303
X130777Y-33277
X130950Y-41250
X131000Y-55858
X131181Y-25494
X131250Y-57100
X131253Y-14262
X131321Y-61080
X131488Y-49823
X131920Y-41873
X132004Y-43126
X132124Y-25255
X132150Y-39850
X132176Y-43539
X132395Y-53731
X132584Y-43358
X133116Y-32276
X133197Y-41259
X133262Y-48385
X133409Y-41660
X133425Y-41112
X133470Y-34319
X133470Y-15488
X133470Y-26738
X133552Y-43037
X133609Y-39008
X133630Y-44518
X133634Y-55512
X133651Y-41605
X133660Y-25492
X133670Y-47093
X133694Y-33012
X133884Y-41115
X133988Y-42054
X134114Y-14711
X134114Y-47898
X134151Y-34065
X134228Y-44989
X134241Y-42050
X134250Y-40900
X134280Y-35120
X134300Y-40100
X134307Y-38719
X134319Y-38455
X134353Y-42653
X134519Y-34961
X134688Y-34764
X134764Y-14294
X134773Y-42050
X134810Y-29759
X134951Y-43994
X134999Y-45659
X135040Y-44407
X135087Y-41043
X135200Y-33600
X135267Y-44302
X135373Y-43093
X135437Y-40039
X135459Y-40847
X135474Y-44101
X135511Y-44350
X135626Y-38149
X135667Y-46675
X135793Y-30165
X136102Y-44160
X136116Y-46689
X136151Y-42201
X136243Y-19897
X136335Y-20637
X136366Y-54103
X136502Y-42454
X136769Y-56873
X136838Y-43543
X137000Y-25227
X137152Y-43033
X137382Y-49273
X137601Y-13156
X137659Y-42133
X137910Y-35498
X137938Y-42065
X138069Y-57414
X138069Y-43807
X138205Y-14398
X138272Y-42185
X138325Y-45454
X138625Y-54709
X138690Y-41704
X138740Y-39706
X138893Y-27287
X139030Y-14262
X139314Y-42667
X139450Y-13595
X139517Y-43358
X139605Y-32755
X140036Y-55255
X140211Y-46523
X140296Y-60954
X140445Y-13450
X140457Y-57275
X140920Y-47080
X141131Y-16008
X141439Y-56138
X141500Y-33825
X141884Y-15698
X141943Y-33153
X142000Y-14350
X142050Y-28469
X142246Y-55204
X142323Y-57527
X142368Y-49927
X142436Y-55026
X142950Y-14850
X143200Y-14850
X143298Y-27567
X143350Y-14300
X143350Y-14650
X143449Y-18009
X143472Y-16568
X143519Y-16285
X143530Y-28029
X143700Y-14300
X143774Y-16232
X143800Y-17200
X143945Y-16902
X144350Y-14550
X144500Y-14850
X145116Y-14386
X145237Y-56662
X145622Y-53537
X145706Y-22945
X147286Y-59259
X147574Y-60276
X148019Y-59422
X148408Y-49312
X148470Y-26738
X148503Y-49661
X148613Y-14045
X148854Y-27361
X148939Y-56113
X149548Y-15725
X150042Y-16167
X150175Y-37280
X150517Y-43349
X150542Y-26100
X150551Y-48133
X150592Y-28392
X150700Y-31450
X150723Y-54821
X150768Y-35921
X150807Y-58417
X150838Y-30906
X150841Y-47981
X150969Y-24375
X150998Y-27194
X151059Y-35949
X151081Y-29908
X151163Y-27392
X151226Y-47554
X151244Y-28766
X151612Y-24186
X151840Y-35960
T2
X124700Y-41925
X124700Y-42358
X124700Y-42791
X124700Y-43224
X125133Y-41925
X125133Y-42358
X125133Y-42791
X125133Y-43224
X125300Y-50225
X125300Y-50658
X125300Y-51091
X125300Y-51524
X125567Y-41925
X125567Y-42358
X125567Y-42791
X125567Y-43224
X125733Y-50225
X125733Y-50658
X125733Y-51091
X125733Y-51524
X126000Y-41925
X126000Y-42358
X126000Y-42791
X126000Y-43224
X126167Y-50225
X126167Y-50658
X126167Y-51091
X126167Y-51524
X126600Y-50225
X126600Y-50658
X126600Y-51091
X126600Y-51524
T3
X18898Y-13428
X19055Y-13114
X19370Y-13114
X19469Y-13428
X19685Y-13114
X19843Y-13428
X20157Y-13428
X20315Y-13114
X20531Y-13428
X20630Y-13114
X20945Y-13114
X21102Y-13428
X142648Y-13428
X142805Y-13114
X143120Y-13114
X143219Y-13428
X143435Y-13114
X143593Y-13428
X143907Y-13428
X144065Y-13114
X144281Y-13428
X144380Y-13114
X144695Y-13114
X144852Y-13428
T4
X18364Y-21496
X149259Y-16650
X149542Y-15044
T6
X144000Y-38937
X144000Y-39937
X144000Y-40937
X144000Y-41937
X144000Y-42937
X144000Y-43937
X144000Y-44937
X144000Y-45937
X144000Y-46937
X144000Y-47937
X144000Y-48937
X144000Y-49937
X144000Y-50937
X144000Y-51937
X144000Y-52937
X144000Y-53937
T7
X15065Y-43126
X16250Y-22500
X40435Y-57339
X59372Y-16878
X93124Y-16878
X106250Y-57339
X147500Y-22500
X149250Y-53623
T5
X17717Y-11834G85X17717Y-11440
G05
X18110Y-13468G85X18110Y-13133
G05
X21890Y-13448G85X21890Y-13114
G05
X22283Y-11834G85X22283Y-11440
G05
X141467Y-11834G85X141467Y-11440
G05
X141860Y-13468G85X141860Y-13133
G05
X145640Y-13448G85X145640Y-13114
G05
X146033Y-11834G85X146033Y-11440
G05
T0
M30
