G04 #@! TF.GenerationSoftware,KiCad,Pcbnew,(2017-04-15 revision 60310b3d3)-makepkg*
G04 #@! TF.CreationDate,2017-04-19T10:34:45-04:00*
G04 #@! TF.ProjectId,KType,4B547970652E6B696361645F70636200,1.01a*
G04 #@! TF.FileFunction,Soldermask,Bot*
G04 #@! TF.FilePolarity,Negative*
%FSLAX46Y46*%
G04 Gerber Fmt 4.6, Leading zero omitted, Abs format (unit mm)*
G04 Created by KiCad (PCBNEW (2017-04-15 revision 60310b3d3)-makepkg) date 04/19/17 10:34:45*
%MOMM*%
%LPD*%
G01*
G04 APERTURE LIST*
%ADD10C,0.150000*%
%ADD11R,1.201600X1.201600*%
%ADD12R,0.301600X0.851600*%
%ADD13R,0.851600X0.301600*%
%ADD14R,2.641600X2.641600*%
%ADD15C,3.149854*%
%ADD16C,4.089425*%
%ADD17R,1.346200X0.901600*%
%ADD18C,0.901600*%
%ADD19R,0.901600X1.346200*%
%ADD20R,2.801620X3.050540*%
%ADD21R,1.201600X1.901600*%
%ADD22R,1.001600X1.001600*%
%ADD23R,0.301600X0.901600*%
%ADD24R,0.901600X0.301600*%
%ADD25R,0.601600X0.901600*%
%ADD26R,1.551600X0.401600*%
%ADD27O,1.051600X0.801600*%
%ADD28O,1.201600X2.501600*%
%ADD29O,1.201600X2.051600*%
%ADD30C,0.701600*%
%ADD31C,0.801600*%
%ADD32C,1.901600*%
%ADD33R,0.401600X1.601600*%
%ADD34R,1.601600X0.401600*%
%ADD35R,0.701600X0.751600*%
%ADD36R,0.751600X0.701600*%
%ADD37R,0.899160X0.899160*%
%ADD38C,3.000000*%
%ADD39C,0.889000*%
%ADD40C,1.092210*%
%ADD41C,2.476510*%
%ADD42R,1.501600X1.301600*%
%ADD43C,7.101600*%
%ADD44C,3.226700*%
G04 APERTURE END LIST*
D10*
D11*
X318263000Y-127572000D03*
X319363000Y-127572000D03*
X321563000Y-127572000D03*
X320463000Y-127572000D03*
D12*
X322113000Y-126297000D03*
X321713000Y-126297000D03*
X321313000Y-126297000D03*
X320913000Y-126297000D03*
X320513000Y-126297000D03*
X320113000Y-126297000D03*
X319713000Y-126297000D03*
X319313000Y-126297000D03*
X318913000Y-126297000D03*
X318513000Y-126297000D03*
X318113000Y-126297000D03*
X317713000Y-126297000D03*
D13*
X316988000Y-128622000D03*
X316988000Y-129022000D03*
X316988000Y-129422000D03*
X316988000Y-129822000D03*
X316988000Y-130222000D03*
X316988000Y-130622000D03*
X316988000Y-131022000D03*
X316988000Y-131422000D03*
D12*
X320913000Y-132147000D03*
X321313000Y-132147000D03*
X321713000Y-132147000D03*
X322113000Y-132147000D03*
X317713000Y-132147000D03*
X318113000Y-132147000D03*
X318513000Y-132147000D03*
X318913000Y-132147000D03*
X319313000Y-132147000D03*
X319713000Y-132147000D03*
X320113000Y-132147000D03*
X320513000Y-132147000D03*
D13*
X316988000Y-127022000D03*
X316988000Y-127422000D03*
X316988000Y-127822000D03*
X316988000Y-128222000D03*
X322838000Y-131422000D03*
X322838000Y-131022000D03*
X322838000Y-130622000D03*
X322838000Y-130222000D03*
X322838000Y-129822000D03*
X322838000Y-129422000D03*
X322838000Y-129022000D03*
X322838000Y-128622000D03*
X322838000Y-128222000D03*
X322838000Y-127822000D03*
X322838000Y-127422000D03*
X322838000Y-127022000D03*
D11*
X320463000Y-128672000D03*
X321563000Y-128672000D03*
X319363000Y-128672000D03*
X318263000Y-128672000D03*
X318263000Y-130872000D03*
X319363000Y-130872000D03*
X321563000Y-130872000D03*
X320463000Y-130872000D03*
X320463000Y-129772000D03*
X321563000Y-129772000D03*
X319363000Y-129772000D03*
X318263000Y-129772000D03*
X320039000Y-109790000D03*
X318939000Y-109790000D03*
X316739000Y-109790000D03*
X317839000Y-109790000D03*
D12*
X316189000Y-111065000D03*
X316589000Y-111065000D03*
X316989000Y-111065000D03*
X317389000Y-111065000D03*
X317789000Y-111065000D03*
X318189000Y-111065000D03*
X318589000Y-111065000D03*
X318989000Y-111065000D03*
X319389000Y-111065000D03*
X319789000Y-111065000D03*
X320189000Y-111065000D03*
X320589000Y-111065000D03*
D13*
X321314000Y-108740000D03*
X321314000Y-108340000D03*
X321314000Y-107940000D03*
X321314000Y-107540000D03*
X321314000Y-107140000D03*
X321314000Y-106740000D03*
X321314000Y-106340000D03*
X321314000Y-105940000D03*
D12*
X317389000Y-105215000D03*
X316989000Y-105215000D03*
X316589000Y-105215000D03*
X316189000Y-105215000D03*
X320589000Y-105215000D03*
X320189000Y-105215000D03*
X319789000Y-105215000D03*
X319389000Y-105215000D03*
X318989000Y-105215000D03*
X318589000Y-105215000D03*
X318189000Y-105215000D03*
X317789000Y-105215000D03*
D13*
X321314000Y-110340000D03*
X321314000Y-109940000D03*
X321314000Y-109540000D03*
X321314000Y-109140000D03*
X315464000Y-105940000D03*
X315464000Y-106340000D03*
X315464000Y-106740000D03*
X315464000Y-107140000D03*
X315464000Y-107540000D03*
X315464000Y-107940000D03*
X315464000Y-108340000D03*
X315464000Y-108740000D03*
X315464000Y-109140000D03*
X315464000Y-109540000D03*
X315464000Y-109940000D03*
X315464000Y-110340000D03*
D11*
X317839000Y-108690000D03*
X316739000Y-108690000D03*
X318939000Y-108690000D03*
X320039000Y-108690000D03*
X320039000Y-106490000D03*
X318939000Y-106490000D03*
X316739000Y-106490000D03*
X317839000Y-106490000D03*
X317839000Y-107590000D03*
X316739000Y-107590000D03*
X318939000Y-107590000D03*
X320039000Y-107590000D03*
D14*
X349785000Y-47942500D03*
X362685000Y-45339000D03*
D15*
X353060000Y-47942500D03*
X359410000Y-45402500D03*
D16*
X355600000Y-42862500D03*
D14*
X297397000Y-95567500D03*
X310297000Y-92964000D03*
D15*
X300672000Y-95567500D03*
X307022000Y-93027500D03*
D16*
X303212000Y-90487500D03*
D14*
X40222500Y-95567500D03*
X53122500Y-92964000D03*
D15*
X43497500Y-95567500D03*
X49847500Y-93027500D03*
D16*
X46037500Y-90487500D03*
D14*
X47366200Y-133668000D03*
X60266200Y-131064500D03*
D15*
X50641200Y-133668000D03*
X56991200Y-131128000D03*
D16*
X53181200Y-128588000D03*
D14*
X290254000Y-114618000D03*
X303154000Y-112014500D03*
D15*
X293529000Y-114618000D03*
X299879000Y-112078000D03*
D16*
X296069000Y-109538000D03*
D14*
X42603800Y-114618000D03*
X55503800Y-112014500D03*
D15*
X45878800Y-114618000D03*
X52228800Y-112078000D03*
D16*
X48418800Y-109538000D03*
D14*
X35460000Y-76517500D03*
X48360000Y-73914000D03*
D15*
X38735000Y-76517500D03*
X45085000Y-73977500D03*
D16*
X41275000Y-71437500D03*
D14*
X54510000Y-76517500D03*
X67410000Y-73914000D03*
D15*
X57785000Y-76517500D03*
X64135000Y-73977500D03*
D16*
X60325000Y-71437500D03*
D14*
X73560000Y-76517500D03*
X86460000Y-73914000D03*
D15*
X76835000Y-76517500D03*
X83185000Y-73977500D03*
D16*
X79375000Y-71437500D03*
D14*
X92610000Y-76517500D03*
X105510000Y-73914000D03*
D15*
X95885000Y-76517500D03*
X102235000Y-73977500D03*
D16*
X98425000Y-71437500D03*
D14*
X111660000Y-76517500D03*
X124560000Y-73914000D03*
D15*
X114935000Y-76517500D03*
X121285000Y-73977500D03*
D16*
X117475000Y-71437500D03*
D14*
X130710000Y-76517500D03*
X143610000Y-73914000D03*
D15*
X133985000Y-76517500D03*
X140335000Y-73977500D03*
D16*
X136525000Y-71437500D03*
D14*
X149760000Y-76517500D03*
X162660000Y-73914000D03*
D15*
X153035000Y-76517500D03*
X159385000Y-73977500D03*
D16*
X155575000Y-71437500D03*
D14*
X168810000Y-76517500D03*
X181710000Y-73914000D03*
D15*
X172085000Y-76517500D03*
X178435000Y-73977500D03*
D16*
X174625000Y-71437500D03*
D14*
X187860000Y-76517500D03*
X200760000Y-73914000D03*
D15*
X191135000Y-76517500D03*
X197485000Y-73977500D03*
D16*
X193675000Y-71437500D03*
D14*
X206910000Y-76517500D03*
X219810000Y-73914000D03*
D15*
X210185000Y-76517500D03*
X216535000Y-73977500D03*
D16*
X212725000Y-71437500D03*
D14*
X225960000Y-76517500D03*
X238860000Y-73914000D03*
D15*
X229235000Y-76517500D03*
X235585000Y-73977500D03*
D16*
X231775000Y-71437500D03*
D14*
X245010000Y-76517500D03*
X257910000Y-73914000D03*
D15*
X248285000Y-76517500D03*
X254635000Y-73977500D03*
D16*
X250825000Y-71437500D03*
D14*
X264060000Y-76517500D03*
X276960000Y-73914000D03*
D15*
X267335000Y-76517500D03*
X273685000Y-73977500D03*
D16*
X269875000Y-71437500D03*
D14*
X64035000Y-95567500D03*
X76935000Y-92964000D03*
D15*
X67310000Y-95567500D03*
X73660000Y-93027500D03*
D16*
X69850000Y-90487500D03*
D14*
X68797500Y-114618000D03*
X81697500Y-112014500D03*
D15*
X72072500Y-114618000D03*
X78422500Y-112078000D03*
D16*
X74612500Y-109538000D03*
D14*
X78322500Y-133668000D03*
X91222500Y-131064500D03*
D15*
X81597500Y-133668000D03*
X87947500Y-131128000D03*
D16*
X84137500Y-128588000D03*
D14*
X83085000Y-95567500D03*
X95985000Y-92964000D03*
D15*
X86360000Y-95567500D03*
X92710000Y-93027500D03*
D16*
X88900000Y-90487500D03*
D14*
X102135000Y-95567500D03*
X115035000Y-92964000D03*
D15*
X105410000Y-95567500D03*
X111760000Y-93027500D03*
D16*
X107950000Y-90487500D03*
D14*
X121185000Y-95567500D03*
X134085000Y-92964000D03*
D15*
X124460000Y-95567500D03*
X130810000Y-93027500D03*
D16*
X127000000Y-90487500D03*
D14*
X140235000Y-95567500D03*
X153135000Y-92964000D03*
D15*
X143510000Y-95567500D03*
X149860000Y-93027500D03*
D16*
X146050000Y-90487500D03*
D14*
X159285000Y-95567500D03*
X172185000Y-92964000D03*
D15*
X162560000Y-95567500D03*
X168910000Y-93027500D03*
D16*
X165100000Y-90487500D03*
D14*
X178335000Y-95567500D03*
X191235000Y-92964000D03*
D15*
X181610000Y-95567500D03*
X187960000Y-93027500D03*
D16*
X184150000Y-90487500D03*
D14*
X197385000Y-95567500D03*
X210285000Y-92964000D03*
D15*
X200660000Y-95567500D03*
X207010000Y-93027500D03*
D16*
X203200000Y-90487500D03*
D14*
X216435000Y-95567500D03*
X229335000Y-92964000D03*
D15*
X219710000Y-95567500D03*
X226060000Y-93027500D03*
D16*
X222250000Y-90487500D03*
D14*
X235485000Y-95567500D03*
X248385000Y-92964000D03*
D15*
X238760000Y-95567500D03*
X245110000Y-93027500D03*
D16*
X241300000Y-90487500D03*
D14*
X254535000Y-95567500D03*
X267435000Y-92964000D03*
D15*
X257810000Y-95567500D03*
X264160000Y-93027500D03*
D16*
X260350000Y-90487500D03*
D14*
X273585000Y-95567500D03*
X286485000Y-92964000D03*
D15*
X276860000Y-95567500D03*
X283210000Y-93027500D03*
D16*
X279400000Y-90487500D03*
D14*
X259297000Y-114618000D03*
X272197000Y-112014500D03*
D15*
X262572000Y-114618000D03*
X268922000Y-112078000D03*
D16*
X265112000Y-109538000D03*
D14*
X240247000Y-114618000D03*
X253147000Y-112014500D03*
D15*
X243522000Y-114618000D03*
X249872000Y-112078000D03*
D16*
X246062000Y-109538000D03*
D14*
X221197000Y-114618000D03*
X234097000Y-112014500D03*
D15*
X224472000Y-114618000D03*
X230822000Y-112078000D03*
D16*
X227012000Y-109538000D03*
D14*
X202147000Y-114618000D03*
X215047000Y-112014500D03*
D15*
X205422000Y-114618000D03*
X211772000Y-112078000D03*
D16*
X207962000Y-109538000D03*
D14*
X183097000Y-114618000D03*
X195997000Y-112014500D03*
D15*
X186372000Y-114618000D03*
X192722000Y-112078000D03*
D16*
X188912000Y-109538000D03*
D14*
X164047000Y-114618000D03*
X176947000Y-112014500D03*
D15*
X167322000Y-114618000D03*
X173672000Y-112078000D03*
D16*
X169862000Y-109538000D03*
D14*
X144997000Y-114618000D03*
X157897000Y-112014500D03*
D15*
X148272000Y-114618000D03*
X154622000Y-112078000D03*
D16*
X150812000Y-109538000D03*
D14*
X125947000Y-114618000D03*
X138847000Y-112014500D03*
D15*
X129222000Y-114618000D03*
X135572000Y-112078000D03*
D16*
X131762000Y-109538000D03*
D14*
X106897000Y-114618000D03*
X119797000Y-112014500D03*
D15*
X110172000Y-114618000D03*
X116522000Y-112078000D03*
D16*
X112712000Y-109538000D03*
D14*
X87847500Y-114618000D03*
X100747500Y-112014500D03*
D15*
X91122500Y-114618000D03*
X97472500Y-112078000D03*
D16*
X93662500Y-109538000D03*
D14*
X97373000Y-133668000D03*
X110273000Y-131064500D03*
D15*
X100648000Y-133668000D03*
X106998000Y-131128000D03*
D16*
X103188000Y-128588000D03*
D14*
X116423000Y-133668000D03*
X129323000Y-131064500D03*
D15*
X119698000Y-133668000D03*
X126048000Y-131128000D03*
D16*
X122238000Y-128588000D03*
D14*
X135473000Y-133668000D03*
X148373000Y-131064500D03*
D15*
X138748000Y-133668000D03*
X145098000Y-131128000D03*
D16*
X141288000Y-128588000D03*
D14*
X154523000Y-133668000D03*
X167423000Y-131064500D03*
D15*
X157798000Y-133668000D03*
X164148000Y-131128000D03*
D16*
X160338000Y-128588000D03*
D14*
X173573000Y-133668000D03*
X186473000Y-131064500D03*
D15*
X176848000Y-133668000D03*
X183198000Y-131128000D03*
D16*
X179388000Y-128588000D03*
D14*
X211673000Y-133668000D03*
X224573000Y-131064500D03*
D15*
X214948000Y-133668000D03*
X221298000Y-131128000D03*
D16*
X217488000Y-128588000D03*
D14*
X230723000Y-133668000D03*
X243623000Y-131064500D03*
D15*
X233998000Y-133668000D03*
X240348000Y-131128000D03*
D16*
X236538000Y-128588000D03*
D14*
X249773000Y-133668000D03*
X262673000Y-131064500D03*
D15*
X253048000Y-133668000D03*
X259398000Y-131128000D03*
D16*
X255588000Y-128588000D03*
D14*
X73560000Y-47942500D03*
X86460000Y-45339000D03*
D15*
X76835000Y-47942500D03*
X83185000Y-45402500D03*
D16*
X79375000Y-42862500D03*
D14*
X92610000Y-47942500D03*
X105510000Y-45339000D03*
D15*
X95885000Y-47942500D03*
X102235000Y-45402500D03*
D16*
X98425000Y-42862500D03*
D14*
X111660000Y-47942500D03*
X124560000Y-45339000D03*
D15*
X114935000Y-47942500D03*
X121285000Y-45402500D03*
D16*
X117475000Y-42862500D03*
D14*
X130710000Y-47942500D03*
X143610000Y-45339000D03*
D15*
X133985000Y-47942500D03*
X140335000Y-45402500D03*
D16*
X136525000Y-42862500D03*
D14*
X302160000Y-47942500D03*
X315060000Y-45339000D03*
D15*
X305435000Y-47942500D03*
X311785000Y-45402500D03*
D16*
X307975000Y-42862500D03*
D14*
X283110000Y-47942500D03*
X296010000Y-45339000D03*
D15*
X286385000Y-47942500D03*
X292735000Y-45402500D03*
D16*
X288925000Y-42862500D03*
D14*
X264060000Y-47942500D03*
X276960000Y-45339000D03*
D15*
X267335000Y-47942500D03*
X273685000Y-45402500D03*
D16*
X269875000Y-42862500D03*
D14*
X245010000Y-47942500D03*
X257910000Y-45339000D03*
D15*
X248285000Y-47942500D03*
X254635000Y-45402500D03*
D16*
X250825000Y-42862500D03*
D14*
X216435000Y-47942500D03*
X229335000Y-45339000D03*
D15*
X219710000Y-47942500D03*
X226060000Y-45402500D03*
D16*
X222250000Y-42862500D03*
D14*
X197385000Y-47942500D03*
X210285000Y-45339000D03*
D15*
X200660000Y-47942500D03*
X207010000Y-45402500D03*
D16*
X203200000Y-42862500D03*
D14*
X178335000Y-47942500D03*
X191235000Y-45339000D03*
D15*
X181610000Y-47942500D03*
X187960000Y-45402500D03*
D16*
X184150000Y-42862500D03*
D14*
X159285000Y-47942500D03*
X172185000Y-45339000D03*
D15*
X162560000Y-47942500D03*
X168910000Y-45402500D03*
D16*
X165100000Y-42862500D03*
D14*
X330735000Y-47942500D03*
X343635000Y-45339000D03*
D15*
X334010000Y-47942500D03*
X340360000Y-45402500D03*
D16*
X336550000Y-42862500D03*
D14*
X330735000Y-76517500D03*
X343635000Y-73914000D03*
D15*
X334010000Y-76517500D03*
X340360000Y-73977500D03*
D16*
X336550000Y-71437500D03*
D14*
X349785000Y-76517500D03*
X362685000Y-73914000D03*
D15*
X353060000Y-76517500D03*
X359410000Y-73977500D03*
D16*
X355600000Y-71437500D03*
D14*
X368835000Y-76517500D03*
X381735000Y-73914000D03*
D15*
X372110000Y-76517500D03*
X378460000Y-73977500D03*
D16*
X374650000Y-71437500D03*
D14*
X368835000Y-95567500D03*
X381735000Y-92964000D03*
D15*
X372110000Y-95567500D03*
X378460000Y-93027500D03*
D16*
X374650000Y-90487500D03*
D14*
X349785000Y-95567500D03*
X362685000Y-92964000D03*
D15*
X353060000Y-95567500D03*
X359410000Y-93027500D03*
D16*
X355600000Y-90487500D03*
D14*
X330735000Y-95567500D03*
X343635000Y-92964000D03*
D15*
X334010000Y-95567500D03*
X340360000Y-93027500D03*
D16*
X336550000Y-90487500D03*
D14*
X368835000Y-47942500D03*
X381735000Y-45339000D03*
D15*
X372110000Y-47942500D03*
X378460000Y-45402500D03*
D16*
X374650000Y-42862500D03*
D14*
X349785000Y-152718000D03*
X362685000Y-150114500D03*
D15*
X353060000Y-152718000D03*
X359410000Y-150178000D03*
D16*
X355600000Y-147638000D03*
D14*
X368835000Y-152718000D03*
X381735000Y-150114500D03*
D15*
X372110000Y-152718000D03*
X378460000Y-150178000D03*
D16*
X374650000Y-147638000D03*
D14*
X330735000Y-152718000D03*
X343635000Y-150114500D03*
D15*
X334010000Y-152718000D03*
X340360000Y-150178000D03*
D16*
X336550000Y-147638000D03*
D14*
X349785000Y-133668000D03*
X362685000Y-131064500D03*
D15*
X353060000Y-133668000D03*
X359410000Y-131128000D03*
D16*
X355600000Y-128588000D03*
D14*
X37841200Y-152718000D03*
X50741200Y-150114500D03*
D15*
X41116200Y-152718000D03*
X47466200Y-150178000D03*
D16*
X43656200Y-147638000D03*
D14*
X61653800Y-152718000D03*
X74553800Y-150114500D03*
D15*
X64928800Y-152718000D03*
X71278800Y-150178000D03*
D16*
X67468800Y-147638000D03*
D14*
X85466200Y-152718000D03*
X98366200Y-150114500D03*
D15*
X88741200Y-152718000D03*
X95091200Y-150178000D03*
D16*
X91281200Y-147638000D03*
D14*
X228341000Y-152718000D03*
X241241000Y-150114500D03*
D15*
X231616000Y-152718000D03*
X237966000Y-150178000D03*
D16*
X234156000Y-147638000D03*
D14*
X252154000Y-152718000D03*
X265054000Y-150114500D03*
D15*
X255429000Y-152718000D03*
X261779000Y-150178000D03*
D16*
X257969000Y-147638000D03*
D14*
X275966000Y-152718000D03*
X288866000Y-150114500D03*
D15*
X279241000Y-152718000D03*
X285591000Y-150178000D03*
D16*
X281781000Y-147638000D03*
D14*
X299779000Y-152718000D03*
X312679000Y-150114500D03*
D15*
X303054000Y-152718000D03*
X309404000Y-150178000D03*
D16*
X305594000Y-147638000D03*
D14*
X156904000Y-152718000D03*
X169804000Y-150114500D03*
D15*
X160179000Y-152718000D03*
X166529000Y-150178000D03*
D16*
X162719000Y-147638000D03*
D14*
X285491000Y-133668000D03*
X298391000Y-131064500D03*
D15*
X288766000Y-133668000D03*
X295116000Y-131128000D03*
D16*
X291306000Y-128588000D03*
D14*
X292635000Y-76517500D03*
X305535000Y-73914000D03*
D15*
X295910000Y-76517500D03*
X302260000Y-73977500D03*
D16*
X298450000Y-71437500D03*
D14*
X192623000Y-133668000D03*
X205523000Y-131064500D03*
D15*
X195898000Y-133668000D03*
X202248000Y-131128000D03*
D16*
X198438000Y-128588000D03*
D14*
X35460000Y-47942500D03*
X48360000Y-45339000D03*
D15*
X38735000Y-47942500D03*
X45085000Y-45402500D03*
D16*
X41275000Y-42862500D03*
D17*
X339331300Y-37032500D03*
X339331300Y-38532500D03*
X333768700Y-38532500D03*
X333768700Y-37032500D03*
X44056300Y-37032500D03*
X44056300Y-38532500D03*
X38493700Y-38532500D03*
X38493700Y-37032500D03*
X82156300Y-37032500D03*
X82156300Y-38532500D03*
X76593700Y-38532500D03*
X76593700Y-37032500D03*
X101206300Y-37032500D03*
X101206300Y-38532500D03*
X95643700Y-38532500D03*
X95643700Y-37032500D03*
X120256300Y-37032500D03*
X120256300Y-38532500D03*
X114693700Y-38532500D03*
X114693700Y-37032500D03*
X139306300Y-37032500D03*
X139306300Y-38532500D03*
X133743700Y-38532500D03*
X133743700Y-37032500D03*
X167881300Y-37032500D03*
X167881300Y-38532500D03*
X162318700Y-38532500D03*
X162318700Y-37032500D03*
X186931300Y-37032500D03*
X186931300Y-38532500D03*
X181368700Y-38532500D03*
X181368700Y-37032500D03*
X205981300Y-37032500D03*
X205981300Y-38532500D03*
X200418700Y-38532500D03*
X200418700Y-37032500D03*
X225031300Y-37032500D03*
X225031300Y-38532500D03*
X219468700Y-38532500D03*
X219468700Y-37032500D03*
X253606300Y-37032500D03*
X253606300Y-38532500D03*
X248043700Y-38532500D03*
X248043700Y-37032500D03*
X272656300Y-37032500D03*
X272656300Y-38532500D03*
X267093700Y-38532500D03*
X267093700Y-37032500D03*
X291706300Y-37032500D03*
X291706300Y-38532500D03*
X286143700Y-38532500D03*
X286143700Y-37032500D03*
X310756300Y-37032500D03*
X310756300Y-38532500D03*
X305193700Y-38532500D03*
X305193700Y-37032500D03*
X358381300Y-37032500D03*
X358381300Y-38532500D03*
X352818700Y-38532500D03*
X352818700Y-37032500D03*
X377431300Y-37032500D03*
X377431300Y-38532500D03*
X371868700Y-38532500D03*
X371868700Y-37032500D03*
X44056300Y-65607500D03*
X44056300Y-67107500D03*
X38493700Y-67107500D03*
X38493700Y-65607500D03*
X63106300Y-65607500D03*
X63106300Y-67107500D03*
X57543700Y-67107500D03*
X57543700Y-65607500D03*
X82156300Y-65607500D03*
X82156300Y-67107500D03*
X76593700Y-67107500D03*
X76593700Y-65607500D03*
X101206300Y-65607500D03*
X101206300Y-67107500D03*
X95643700Y-67107500D03*
X95643700Y-65607500D03*
X120256300Y-65607500D03*
X120256300Y-67107500D03*
X114693700Y-67107500D03*
X114693700Y-65607500D03*
X139306300Y-65607500D03*
X139306300Y-67107500D03*
X133743700Y-67107500D03*
X133743700Y-65607500D03*
X158356300Y-65607500D03*
X158356300Y-67107500D03*
X152793700Y-67107500D03*
X152793700Y-65607500D03*
X177406300Y-65607500D03*
X177406300Y-67107500D03*
X171843700Y-67107500D03*
X171843700Y-65607500D03*
X196456300Y-65607500D03*
X196456300Y-67107500D03*
X190893700Y-67107500D03*
X190893700Y-65607500D03*
X215506300Y-65607500D03*
X215506300Y-67107500D03*
X209943700Y-67107500D03*
X209943700Y-65607500D03*
X234556300Y-65607500D03*
X234556300Y-67107500D03*
X228993700Y-67107500D03*
X228993700Y-65607500D03*
X253606300Y-65607500D03*
X253606300Y-67107500D03*
X248043700Y-67107500D03*
X248043700Y-65607500D03*
X272656300Y-65607500D03*
X272656300Y-67107500D03*
X267093700Y-67107500D03*
X267093700Y-65607500D03*
X301231300Y-65607500D03*
X301231300Y-67107500D03*
X295668700Y-67107500D03*
X295668700Y-65607500D03*
X339331300Y-65607500D03*
X339331300Y-67107500D03*
X333768700Y-67107500D03*
X333768700Y-65607500D03*
X358381300Y-65607500D03*
X358381300Y-67107500D03*
X352818700Y-67107500D03*
X352818700Y-65607500D03*
X377431300Y-65607500D03*
X377431300Y-67107500D03*
X371868700Y-67107500D03*
X371868700Y-65607500D03*
X48818800Y-84657500D03*
X48818800Y-86157500D03*
X43256200Y-86157500D03*
X43256200Y-84657500D03*
X72631300Y-84657500D03*
X72631300Y-86157500D03*
X67068700Y-86157500D03*
X67068700Y-84657500D03*
X91681300Y-84657500D03*
X91681300Y-86157500D03*
X86118700Y-86157500D03*
X86118700Y-84657500D03*
X110731300Y-84657500D03*
X110731300Y-86157500D03*
X105168700Y-86157500D03*
X105168700Y-84657500D03*
X129781300Y-84657500D03*
X129781300Y-86157500D03*
X124218700Y-86157500D03*
X124218700Y-84657500D03*
X148831300Y-84657500D03*
X148831300Y-86157500D03*
X143268700Y-86157500D03*
X143268700Y-84657500D03*
X167881300Y-84657500D03*
X167881300Y-86157500D03*
X162318700Y-86157500D03*
X162318700Y-84657500D03*
X186931300Y-84657500D03*
X186931300Y-86157500D03*
X181368700Y-86157500D03*
X181368700Y-84657500D03*
X205981300Y-84657500D03*
X205981300Y-86157500D03*
X200418700Y-86157500D03*
X200418700Y-84657500D03*
X225031300Y-84657500D03*
X225031300Y-86157500D03*
X219468700Y-86157500D03*
X219468700Y-84657500D03*
X244081300Y-84657500D03*
X244081300Y-86157500D03*
X238518700Y-86157500D03*
X238518700Y-84657500D03*
X263131300Y-84657500D03*
X263131300Y-86157500D03*
X257568700Y-86157500D03*
X257568700Y-84657500D03*
X282181300Y-84657500D03*
X282181300Y-86157500D03*
X276618700Y-86157500D03*
X276618700Y-84657500D03*
X305993300Y-84657500D03*
X305993300Y-86157500D03*
X300430700Y-86157500D03*
X300430700Y-84657500D03*
X339331300Y-84657500D03*
X339331300Y-86157500D03*
X333768700Y-86157500D03*
X333768700Y-84657500D03*
X358381300Y-84657500D03*
X358381300Y-86157500D03*
X352818700Y-86157500D03*
X352818700Y-84657500D03*
X377431300Y-84657500D03*
X377431300Y-86157500D03*
X371868700Y-86157500D03*
X371868700Y-84657500D03*
X51200100Y-103708000D03*
X51200100Y-105208000D03*
X45637500Y-105208000D03*
X45637500Y-103708000D03*
X77393800Y-103708000D03*
X77393800Y-105208000D03*
X71831200Y-105208000D03*
X71831200Y-103708000D03*
X96443800Y-103708000D03*
X96443800Y-105208000D03*
X90881200Y-105208000D03*
X90881200Y-103708000D03*
X115493300Y-103708000D03*
X115493300Y-105208000D03*
X109930700Y-105208000D03*
X109930700Y-103708000D03*
X134543300Y-103708000D03*
X134543300Y-105208000D03*
X128980700Y-105208000D03*
X128980700Y-103708000D03*
X153593300Y-103708000D03*
X153593300Y-105208000D03*
X148030700Y-105208000D03*
X148030700Y-103708000D03*
X172643300Y-103708000D03*
X172643300Y-105208000D03*
X167080700Y-105208000D03*
X167080700Y-103708000D03*
X191693300Y-103708000D03*
X191693300Y-105208000D03*
X186130700Y-105208000D03*
X186130700Y-103708000D03*
X210743300Y-103708000D03*
X210743300Y-105208000D03*
X205180700Y-105208000D03*
X205180700Y-103708000D03*
X229793300Y-103708000D03*
X229793300Y-105208000D03*
X224230700Y-105208000D03*
X224230700Y-103708000D03*
X248843300Y-103708000D03*
X248843300Y-105208000D03*
X243280700Y-105208000D03*
X243280700Y-103708000D03*
X267893300Y-103708000D03*
X267893300Y-105208000D03*
X262330700Y-105208000D03*
X262330700Y-103708000D03*
X298850300Y-103708000D03*
X298850300Y-105208000D03*
X293287700Y-105208000D03*
X293287700Y-103708000D03*
X55962500Y-122758000D03*
X55962500Y-124258000D03*
X50399900Y-124258000D03*
X50399900Y-122758000D03*
X86918800Y-122758000D03*
X86918800Y-124258000D03*
X81356200Y-124258000D03*
X81356200Y-122758000D03*
X105969300Y-122758000D03*
X105969300Y-124258000D03*
X100406700Y-124258000D03*
X100406700Y-122758000D03*
X125019300Y-122758000D03*
X125019300Y-124258000D03*
X119456700Y-124258000D03*
X119456700Y-122758000D03*
X144069300Y-122758000D03*
X144069300Y-124258000D03*
X138506700Y-124258000D03*
X138506700Y-122758000D03*
X163119300Y-122758000D03*
X163119300Y-124258000D03*
X157556700Y-124258000D03*
X157556700Y-122758000D03*
X182169300Y-122758000D03*
X182169300Y-124258000D03*
X176606700Y-124258000D03*
X176606700Y-122758000D03*
X201219300Y-122758000D03*
X201219300Y-124258000D03*
X195656700Y-124258000D03*
X195656700Y-122758000D03*
X220269300Y-122758000D03*
X220269300Y-124258000D03*
X214706700Y-124258000D03*
X214706700Y-122758000D03*
X239319300Y-122758000D03*
X239319300Y-124258000D03*
X233756700Y-124258000D03*
X233756700Y-122758000D03*
X258369300Y-122758000D03*
X258369300Y-124258000D03*
X252806700Y-124258000D03*
X252806700Y-122758000D03*
X294087300Y-122758000D03*
X294087300Y-124258000D03*
X288524700Y-124258000D03*
X288524700Y-122758000D03*
X358381300Y-122758000D03*
X358381300Y-124258000D03*
X352818700Y-124258000D03*
X352818700Y-122758000D03*
X46437500Y-141808000D03*
X46437500Y-143308000D03*
X40874900Y-143308000D03*
X40874900Y-141808000D03*
X70250100Y-141808000D03*
X70250100Y-143308000D03*
X64687500Y-143308000D03*
X64687500Y-141808000D03*
X94062500Y-141808000D03*
X94062500Y-143308000D03*
X88499900Y-143308000D03*
X88499900Y-141808000D03*
X165500300Y-141808000D03*
X165500300Y-143308000D03*
X159937700Y-143308000D03*
X159937700Y-141808000D03*
X236937300Y-141808000D03*
X236937300Y-143308000D03*
X231374700Y-143308000D03*
X231374700Y-141808000D03*
X260750300Y-141808000D03*
X260750300Y-143308000D03*
X255187700Y-143308000D03*
X255187700Y-141808000D03*
X284562300Y-141808000D03*
X284562300Y-143308000D03*
X278999700Y-143308000D03*
X278999700Y-141808000D03*
X308375300Y-141808000D03*
X308375300Y-143308000D03*
X302812700Y-143308000D03*
X302812700Y-141808000D03*
X339331300Y-141808000D03*
X339331300Y-143308000D03*
X333768700Y-143308000D03*
X333768700Y-141808000D03*
X358381300Y-141808000D03*
X358381300Y-143308000D03*
X352818700Y-143308000D03*
X352818700Y-141808000D03*
X377431300Y-141808000D03*
X377431300Y-143308000D03*
X371868700Y-143308000D03*
X371868700Y-141808000D03*
X176034700Y-33071500D03*
X176034700Y-31571500D03*
X181597300Y-31571500D03*
X181597300Y-33071500D03*
D18*
X34900846Y-32491494D03*
D10*
G36*
X35058036Y-31696777D02*
X35695563Y-32334304D01*
X34743656Y-33286211D01*
X34106129Y-32648684D01*
X35058036Y-31696777D01*
X35058036Y-31696777D01*
G37*
D18*
X35961506Y-33552154D03*
D10*
G36*
X36118696Y-32757437D02*
X36756223Y-33394964D01*
X35804316Y-34346871D01*
X35166789Y-33709344D01*
X36118696Y-32757437D01*
X36118696Y-32757437D01*
G37*
D18*
X32028154Y-37485506D03*
D10*
G36*
X32185344Y-36690789D02*
X32822871Y-37328316D01*
X31870964Y-38280223D01*
X31233437Y-37642696D01*
X32185344Y-36690789D01*
X32185344Y-36690789D01*
G37*
D18*
X30967494Y-36424846D03*
D10*
G36*
X31124684Y-35630129D02*
X31762211Y-36267656D01*
X30810304Y-37219563D01*
X30172777Y-36582036D01*
X31124684Y-35630129D01*
X31124684Y-35630129D01*
G37*
D17*
X88785700Y-33071500D03*
X88785700Y-31571500D03*
X94348300Y-31571500D03*
X94348300Y-33071500D03*
X117868700Y-33071500D03*
X117868700Y-31571500D03*
X123431300Y-31571500D03*
X123431300Y-33071500D03*
X146951700Y-33071500D03*
X146951700Y-31571500D03*
X152514300Y-31571500D03*
X152514300Y-33071500D03*
X205117700Y-33071500D03*
X205117700Y-31571500D03*
X210680300Y-31571500D03*
X210680300Y-33071500D03*
X234200700Y-33071500D03*
X234200700Y-31571500D03*
X239763300Y-31571500D03*
X239763300Y-33071500D03*
X263283700Y-33071500D03*
X263283700Y-31571500D03*
X268846300Y-31571500D03*
X268846300Y-33071500D03*
X292366700Y-33071500D03*
X292366700Y-31571500D03*
X297929300Y-31571500D03*
X297929300Y-33071500D03*
X321449700Y-33071500D03*
X321449700Y-31571500D03*
X327012300Y-31571500D03*
X327012300Y-33071500D03*
X350532700Y-33071500D03*
X350532700Y-31571500D03*
X356095300Y-31571500D03*
X356095300Y-33071500D03*
D18*
X384957006Y-36424846D03*
D10*
G36*
X385751723Y-36582036D02*
X385114196Y-37219563D01*
X384162289Y-36267656D01*
X384799816Y-35630129D01*
X385751723Y-36582036D01*
X385751723Y-36582036D01*
G37*
D18*
X383896346Y-37485506D03*
D10*
G36*
X384691063Y-37642696D02*
X384053536Y-38280223D01*
X383101629Y-37328316D01*
X383739156Y-36690789D01*
X384691063Y-37642696D01*
X384691063Y-37642696D01*
G37*
D18*
X379962994Y-33552154D03*
D10*
G36*
X380757711Y-33709344D02*
X380120184Y-34346871D01*
X379168277Y-33394964D01*
X379805804Y-32757437D01*
X380757711Y-33709344D01*
X380757711Y-33709344D01*
G37*
D18*
X381023654Y-32491494D03*
D10*
G36*
X381818371Y-32648684D02*
X381180844Y-33286211D01*
X380228937Y-32334304D01*
X380866464Y-31696777D01*
X381818371Y-32648684D01*
X381818371Y-32648684D01*
G37*
D19*
X384314000Y-62306200D03*
X385814000Y-62306200D03*
X385814000Y-67868800D03*
X384314000Y-67868800D03*
X384314000Y-92405200D03*
X385814000Y-92405200D03*
X385814000Y-97967800D03*
X384314000Y-97967800D03*
X384314000Y-122504700D03*
X385814000Y-122504700D03*
X385814000Y-128067300D03*
X384314000Y-128067300D03*
D18*
X381023654Y-157881006D03*
D10*
G36*
X380866464Y-158675723D02*
X380228937Y-158038196D01*
X381180844Y-157086289D01*
X381818371Y-157723816D01*
X380866464Y-158675723D01*
X380866464Y-158675723D01*
G37*
D18*
X379962994Y-156820346D03*
D10*
G36*
X379805804Y-157615063D02*
X379168277Y-156977536D01*
X380120184Y-156025629D01*
X380757711Y-156663156D01*
X379805804Y-157615063D01*
X379805804Y-157615063D01*
G37*
D18*
X383896346Y-152886994D03*
D10*
G36*
X383739156Y-153681711D02*
X383101629Y-153044184D01*
X384053536Y-152092277D01*
X384691063Y-152729804D01*
X383739156Y-153681711D01*
X383739156Y-153681711D01*
G37*
D18*
X384957006Y-153947654D03*
D10*
G36*
X384799816Y-154742371D02*
X384162289Y-154104844D01*
X385114196Y-153152937D01*
X385751723Y-153790464D01*
X384799816Y-154742371D01*
X384799816Y-154742371D01*
G37*
D17*
X356095300Y-157302000D03*
X356095300Y-158802000D03*
X350532700Y-158802000D03*
X350532700Y-157302000D03*
X327012300Y-157302000D03*
X327012300Y-158802000D03*
X321449700Y-158802000D03*
X321449700Y-157302000D03*
X297929300Y-157302000D03*
X297929300Y-158802000D03*
X292366700Y-158802000D03*
X292366700Y-157302000D03*
X268846300Y-157302000D03*
X268846300Y-158802000D03*
X263283700Y-158802000D03*
X263283700Y-157302000D03*
X239763300Y-157302000D03*
X239763300Y-158802000D03*
X234200700Y-158802000D03*
X234200700Y-157302000D03*
X210680300Y-157302000D03*
X210680300Y-158802000D03*
X205117700Y-158802000D03*
X205117700Y-157302000D03*
X181597300Y-157302000D03*
X181597300Y-158802000D03*
X176034700Y-158802000D03*
X176034700Y-157302000D03*
X152514300Y-157302000D03*
X152514300Y-158802000D03*
X146951700Y-158802000D03*
X146951700Y-157302000D03*
X123431300Y-157302000D03*
X123431300Y-158802000D03*
X117868700Y-158802000D03*
X117868700Y-157302000D03*
X94348300Y-157302000D03*
X94348300Y-158802000D03*
X88785700Y-158802000D03*
X88785700Y-157302000D03*
X65265300Y-157302000D03*
X65265300Y-158802000D03*
X59702700Y-158802000D03*
X59702700Y-157302000D03*
D18*
X30967494Y-153947654D03*
D10*
G36*
X30172777Y-153790464D02*
X30810304Y-153152937D01*
X31762211Y-154104844D01*
X31124684Y-154742371D01*
X30172777Y-153790464D01*
X30172777Y-153790464D01*
G37*
D18*
X32028154Y-152886994D03*
D10*
G36*
X31233437Y-152729804D02*
X31870964Y-152092277D01*
X32822871Y-153044184D01*
X32185344Y-153681711D01*
X31233437Y-152729804D01*
X31233437Y-152729804D01*
G37*
D18*
X35961506Y-156820346D03*
D10*
G36*
X35166789Y-156663156D02*
X35804316Y-156025629D01*
X36756223Y-156977536D01*
X36118696Y-157615063D01*
X35166789Y-156663156D01*
X35166789Y-156663156D01*
G37*
D18*
X34900846Y-157881006D03*
D10*
G36*
X34106129Y-157723816D02*
X34743656Y-157086289D01*
X35695563Y-158038196D01*
X35058036Y-158675723D01*
X34106129Y-157723816D01*
X34106129Y-157723816D01*
G37*
D19*
X31611000Y-128067300D03*
X30111000Y-128067300D03*
X30111000Y-122504700D03*
X31611000Y-122504700D03*
X31611000Y-97967800D03*
X30111000Y-97967800D03*
X30111000Y-92405200D03*
X31611000Y-92405200D03*
X31611000Y-67868800D03*
X30111000Y-67868800D03*
X30111000Y-62306200D03*
X31611000Y-62306200D03*
D17*
X59702700Y-33071500D03*
X59702700Y-31571500D03*
X65265300Y-31571500D03*
X65265300Y-33071500D03*
D20*
X325120000Y-88910160D03*
X325120000Y-82158840D03*
D21*
X376913000Y-107938000D03*
X373213000Y-107938000D03*
X376913000Y-101738000D03*
X373213000Y-101738000D03*
D22*
X316605000Y-77634200D03*
D23*
X316255000Y-78684200D03*
X317855000Y-78684200D03*
X317455000Y-78684200D03*
X316655000Y-78684200D03*
X317055000Y-78684200D03*
X317055000Y-75684200D03*
X316655000Y-75684200D03*
X317455000Y-75684200D03*
X317855000Y-75684200D03*
X316255000Y-75684200D03*
D24*
X318555000Y-76384200D03*
X318555000Y-77984200D03*
X318555000Y-77584200D03*
X318555000Y-76784200D03*
X318555000Y-77184200D03*
X315555000Y-77184200D03*
X315555000Y-76784200D03*
X315555000Y-77584200D03*
X315555000Y-77984200D03*
X315555000Y-76384200D03*
D22*
X317505000Y-77634200D03*
X317505000Y-76734200D03*
X316605000Y-76734200D03*
D25*
X260350000Y-108538000D03*
X260350000Y-110538000D03*
X369888000Y-146638000D03*
X369888000Y-148638000D03*
X350838000Y-146638000D03*
X350838000Y-148638000D03*
X331788000Y-146638000D03*
X331788000Y-148638000D03*
X300831000Y-146638000D03*
X300831000Y-148638000D03*
X277019000Y-146638000D03*
X277019000Y-148638000D03*
X253206000Y-146638000D03*
X253206000Y-148638000D03*
X229394000Y-146638000D03*
X229394000Y-148638000D03*
X157956000Y-146638000D03*
X157956000Y-148638000D03*
X86518800Y-146638000D03*
X86518800Y-148638000D03*
X62706200Y-146638000D03*
X62706200Y-148638000D03*
X38893800Y-146638000D03*
X38893800Y-148638000D03*
X350838000Y-127588000D03*
X350838000Y-129588000D03*
X286512000Y-127651000D03*
X286512000Y-129651000D03*
X250825000Y-127588000D03*
X250825000Y-129588000D03*
X231775000Y-127588000D03*
X231775000Y-129588000D03*
X212725000Y-127588000D03*
X212725000Y-129588000D03*
X193675000Y-127588000D03*
X193675000Y-129588000D03*
X174625000Y-127588000D03*
X174625000Y-129588000D03*
X155575000Y-127588000D03*
X155575000Y-129588000D03*
X136525000Y-127588000D03*
X136525000Y-129588000D03*
X117475000Y-127588000D03*
X117475000Y-129588000D03*
X98425000Y-127588000D03*
X98425000Y-129588000D03*
X79375000Y-127588000D03*
X79375000Y-129588000D03*
X48387000Y-127651000D03*
X48387000Y-129651000D03*
X291305000Y-108538000D03*
X291305000Y-110538000D03*
X241300000Y-108538000D03*
X241300000Y-110538000D03*
X222250000Y-108538000D03*
X222250000Y-110538000D03*
X203200000Y-108538000D03*
X203200000Y-110538000D03*
X184150000Y-108538000D03*
X184150000Y-110538000D03*
X165100000Y-108538000D03*
X165100000Y-110538000D03*
X146050000Y-108538000D03*
X146050000Y-110538000D03*
X127000000Y-108538000D03*
X127000000Y-110538000D03*
X107950000Y-108538000D03*
X107950000Y-110538000D03*
X88900000Y-108538000D03*
X88900000Y-110538000D03*
X69850000Y-108538000D03*
X69850000Y-110538000D03*
X43656200Y-108538000D03*
X43656200Y-110538000D03*
X369888000Y-89487500D03*
X369888000Y-91487500D03*
X350838000Y-89487500D03*
X350838000Y-91487500D03*
X331788000Y-89487500D03*
X331788000Y-91487500D03*
X298450000Y-89487500D03*
X298450000Y-91487500D03*
X274638000Y-89487500D03*
X274638000Y-91487500D03*
X255588000Y-89487500D03*
X255588000Y-91487500D03*
X236538000Y-89487500D03*
X236538000Y-91487500D03*
X217488000Y-89487500D03*
X217488000Y-91487500D03*
X198438000Y-89487500D03*
X198438000Y-91487500D03*
X179388000Y-89487500D03*
X179388000Y-91487500D03*
X160338000Y-89487500D03*
X160338000Y-91487500D03*
X141288000Y-89487500D03*
X141288000Y-91487500D03*
X122238000Y-89487500D03*
X122238000Y-91487500D03*
X103188000Y-89487500D03*
X103188000Y-91487500D03*
X84137500Y-89487500D03*
X84137500Y-91487500D03*
X65087500Y-89487500D03*
X65087500Y-91487500D03*
X41275000Y-89487500D03*
X41275000Y-91487500D03*
X369888000Y-70437500D03*
X369888000Y-72437500D03*
X350838000Y-70437500D03*
X350838000Y-72437500D03*
X331788000Y-70437500D03*
X331788000Y-72437500D03*
X293751000Y-70374000D03*
X293751000Y-72374000D03*
X265112000Y-70437500D03*
X265112000Y-72437500D03*
X246062000Y-70437500D03*
X246062000Y-72437500D03*
X227012000Y-70437500D03*
X227012000Y-72437500D03*
X207962000Y-70437500D03*
X207962000Y-72437500D03*
X188912000Y-70437500D03*
X188912000Y-72437500D03*
X169862000Y-70437500D03*
X169862000Y-72437500D03*
X150812000Y-70437500D03*
X150812000Y-72437500D03*
X131762000Y-70437500D03*
X131762000Y-72437500D03*
X112712000Y-70437500D03*
X112712000Y-72437500D03*
X93662500Y-70437500D03*
X93662500Y-72437500D03*
X74612500Y-70437500D03*
X74612500Y-72437500D03*
X55562500Y-70437500D03*
X55562500Y-72437500D03*
X36385500Y-70437500D03*
X36385500Y-72437500D03*
X369888000Y-41862500D03*
X369888000Y-43862500D03*
X350838000Y-41862500D03*
X350838000Y-43862500D03*
X331788000Y-41862500D03*
X331788000Y-43862500D03*
X303212000Y-41862500D03*
X303212000Y-43862500D03*
X284162000Y-41862500D03*
X284162000Y-43862500D03*
X265112000Y-41862500D03*
X265112000Y-43862500D03*
X246062000Y-41862500D03*
X246062000Y-43862500D03*
X217488000Y-41862500D03*
X217488000Y-43862500D03*
X198438000Y-41862500D03*
X198438000Y-43862500D03*
X179388000Y-41862500D03*
X179388000Y-43862500D03*
X160338000Y-41862500D03*
X160338000Y-43862500D03*
X131762000Y-41862500D03*
X131762000Y-43862500D03*
X112712000Y-41862500D03*
X112712000Y-43862500D03*
X93662500Y-41862500D03*
X93662500Y-43862500D03*
X74612500Y-41862500D03*
X74612500Y-43862500D03*
X36512500Y-41862500D03*
X36512500Y-43862500D03*
D26*
X315236000Y-66952800D03*
X315236000Y-67452800D03*
X315236000Y-65452800D03*
X315236000Y-65952800D03*
X315236000Y-66452800D03*
X319636000Y-67452800D03*
X319636000Y-66952800D03*
X319636000Y-65452800D03*
X319636000Y-65952800D03*
X319636000Y-66452800D03*
D27*
X47200000Y-34658300D03*
D28*
X45000000Y-29408300D03*
X56600000Y-29408300D03*
D29*
X46000000Y-33783300D03*
X55600000Y-33733300D03*
D30*
X53600000Y-34108300D03*
X53200000Y-33308300D03*
X52400000Y-33308300D03*
X52150000Y-34108300D03*
X51600000Y-33308300D03*
X51200000Y-34108300D03*
X50400000Y-34108300D03*
X50000000Y-33308300D03*
X49450000Y-34108300D03*
X49200000Y-33308300D03*
X48400000Y-33308300D03*
X48000000Y-34108300D03*
D31*
X54400000Y-34658300D03*
D27*
X361525000Y-34658300D03*
D28*
X359325000Y-29408300D03*
X370925000Y-29408300D03*
D29*
X360325000Y-33783300D03*
X369925000Y-33733300D03*
D30*
X367925000Y-34108300D03*
X367525000Y-33308300D03*
X366725000Y-33308300D03*
X366475000Y-34108300D03*
X365925000Y-33308300D03*
X365525000Y-34108300D03*
X364725000Y-34108300D03*
X364325000Y-33308300D03*
X363775000Y-34108300D03*
X363525000Y-33308300D03*
X362725000Y-33308300D03*
X362325000Y-34108300D03*
D31*
X368725000Y-34658300D03*
D32*
X365760000Y-98901000D03*
X365760000Y-101441000D03*
X365760000Y-103981000D03*
X365760000Y-106521000D03*
X365760000Y-109061000D03*
X365760000Y-111601000D03*
X365760000Y-114141000D03*
X365760000Y-116681000D03*
X365760000Y-119221000D03*
X365760000Y-121761000D03*
X365760000Y-124301000D03*
X365760000Y-126841000D03*
X365760000Y-129381000D03*
X365760000Y-131921000D03*
X365760000Y-134461000D03*
X365760000Y-137001000D03*
D33*
X347539000Y-105629000D03*
X347039000Y-105629000D03*
X346539000Y-105629000D03*
X346039000Y-105629000D03*
X345539000Y-105629000D03*
X345039000Y-105629000D03*
X344539000Y-105629000D03*
X344039000Y-105629000D03*
X343539000Y-105629000D03*
X343039000Y-105629000D03*
X342539000Y-105629000D03*
X342039000Y-105629000D03*
X341539000Y-105629000D03*
X341039000Y-105629000D03*
X340539000Y-105629000D03*
X340039000Y-105629000D03*
D34*
X338039000Y-107629000D03*
X338039000Y-108129000D03*
X338039000Y-108629000D03*
X338039000Y-109129000D03*
X338039000Y-109629000D03*
X338039000Y-110129000D03*
X338039000Y-110629000D03*
X338039000Y-111129000D03*
X338039000Y-111629000D03*
X338039000Y-112129000D03*
X338039000Y-112629000D03*
X338039000Y-113129000D03*
X338039000Y-113629000D03*
X338039000Y-114129000D03*
X338039000Y-114629000D03*
X338039000Y-115129000D03*
D33*
X340039000Y-117129000D03*
X340539000Y-117129000D03*
X341039000Y-117129000D03*
X341539000Y-117129000D03*
X342039000Y-117129000D03*
X342539000Y-117129000D03*
X343039000Y-117129000D03*
X343539000Y-117129000D03*
X344039000Y-117129000D03*
X344539000Y-117129000D03*
X345039000Y-117129000D03*
X345539000Y-117129000D03*
X346039000Y-117129000D03*
X346539000Y-117129000D03*
X347039000Y-117129000D03*
X347539000Y-117129000D03*
D34*
X349539000Y-115129000D03*
X349539000Y-114629000D03*
X349539000Y-114129000D03*
X349539000Y-113629000D03*
X349539000Y-113129000D03*
X349539000Y-112629000D03*
X349539000Y-112129000D03*
X349539000Y-111629000D03*
X349539000Y-111129000D03*
X349539000Y-110629000D03*
X349539000Y-110129000D03*
X349539000Y-109629000D03*
X349539000Y-109129000D03*
X349539000Y-108629000D03*
X349539000Y-108129000D03*
X349539000Y-107629000D03*
D35*
X352179000Y-110109000D03*
X353179000Y-110109000D03*
X352179000Y-108966000D03*
X353179000Y-108966000D03*
D36*
X339217000Y-123008000D03*
X339217000Y-124008000D03*
X343535000Y-121214000D03*
X343535000Y-120214000D03*
X345059000Y-121214000D03*
X345059000Y-120214000D03*
X321818000Y-66746500D03*
X321818000Y-67746500D03*
D35*
X318000000Y-80899000D03*
X317000000Y-80899000D03*
D36*
X335788000Y-108386000D03*
X335788000Y-107386000D03*
D35*
X334653000Y-114618000D03*
X335653000Y-114618000D03*
X340241000Y-119316000D03*
X341241000Y-119316000D03*
X353179000Y-111188000D03*
X352179000Y-111188000D03*
X353179000Y-107886000D03*
X352179000Y-107886000D03*
X353179000Y-112332000D03*
X352179000Y-112332000D03*
X320032000Y-102426000D03*
X319032000Y-102426000D03*
X320032000Y-101282000D03*
X319032000Y-101282000D03*
D36*
X324104000Y-108514000D03*
X324104000Y-107514000D03*
X325247000Y-108514000D03*
X325247000Y-107514000D03*
X321437000Y-114863500D03*
X321437000Y-113863500D03*
X322453000Y-114863500D03*
X322453000Y-113863500D03*
D35*
X317889000Y-122492000D03*
X318889000Y-122492000D03*
X318270000Y-134810000D03*
X319270000Y-134810000D03*
X318270000Y-135954000D03*
X319270000Y-135954000D03*
D36*
X313944000Y-128850000D03*
X313944000Y-129850000D03*
X312801000Y-128850000D03*
X312801000Y-129850000D03*
X316865000Y-122500000D03*
X316865000Y-123500000D03*
X315722000Y-122500000D03*
X315722000Y-123500000D03*
X318389000Y-113863500D03*
X318389000Y-114863500D03*
X317246000Y-113863500D03*
X317246000Y-114863500D03*
X316103000Y-113863500D03*
X316103000Y-114863500D03*
X314960000Y-114863500D03*
X314960000Y-113863500D03*
X324104000Y-109546000D03*
X324104000Y-110546000D03*
X319913000Y-123500000D03*
X319913000Y-122500000D03*
X321056000Y-123500000D03*
X321056000Y-122500000D03*
X313944000Y-127818000D03*
X313944000Y-126818000D03*
D35*
X320413000Y-114871500D03*
X319413000Y-114871500D03*
D37*
X340995000Y-124003300D03*
X340995000Y-122504700D03*
D38*
X34925000Y-144462000D03*
X34925000Y-56959500D03*
D39*
X376428000Y-124651000D03*
X375158000Y-124651000D03*
X376428000Y-123381000D03*
X375158000Y-123381000D03*
X375158000Y-122111000D03*
X376428000Y-122111000D03*
X376428000Y-125921000D03*
X375158000Y-125921000D03*
X376428000Y-127191000D03*
X375158000Y-127191000D03*
D40*
X375793000Y-128461000D03*
X376809000Y-120841000D03*
X374777000Y-120841000D03*
D41*
X378333000Y-128461000D03*
X378333000Y-122746000D03*
X373253000Y-128461000D03*
X373253000Y-122746000D03*
D42*
X335577000Y-117691000D03*
X335577000Y-119291000D03*
X337777000Y-119291000D03*
X337777000Y-117691000D03*
D38*
X381000000Y-56959500D03*
D43*
X38265000Y-109540000D03*
X102705000Y-145640000D03*
X269875000Y-145640000D03*
X236535000Y-42869500D03*
X150805000Y-42869500D03*
X41275000Y-57149500D03*
X379095000Y-136202000D03*
X374650000Y-57150000D03*
D44*
X255588000Y-100648000D03*
X141288000Y-100648000D03*
M02*
