G04 #@! TF.GenerationSoftware,KiCad,Pcbnew,(2017-04-15 revision 60310b3d3)-makepkg*
G04 #@! TF.CreationDate,2017-04-19T10:34:45-04:00*
G04 #@! TF.ProjectId,KType,4B547970652E6B696361645F70636200,1.01a*
G04 #@! TF.FileFunction,Paste,Top*
G04 #@! TF.FilePolarity,Positive*
%FSLAX46Y46*%
G04 Gerber Fmt 4.6, Leading zero omitted, Abs format (unit mm)*
G04 Created by KiCad (PCBNEW (2017-04-15 revision 60310b3d3)-makepkg) date 04/19/17 10:34:45*
%MOMM*%
%LPD*%
G01*
G04 APERTURE LIST*
%ADD10C,0.150000*%
%ADD11C,0.650000*%
%ADD12R,0.300000X1.100000*%
%ADD13R,0.600000X0.650000*%
%ADD14C,7.000000*%
G04 APERTURE END LIST*
D10*
D11*
X53600000Y-34108300D02*
X53600000Y-34278300D01*
X52150000Y-34108300D02*
X52150000Y-34278300D01*
X51200000Y-34108300D02*
X51200000Y-34278300D01*
X50400000Y-34108300D02*
X50400000Y-34278300D01*
X49450000Y-34108300D02*
X49450000Y-34278300D01*
X48000000Y-34108300D02*
X48000000Y-34278300D01*
X53200000Y-33308300D02*
X53200000Y-33158300D01*
X51600000Y-33308300D02*
X51600000Y-33158300D01*
X50000000Y-33308300D02*
X50000000Y-33158300D01*
X48400000Y-33308300D02*
X48400000Y-33158300D01*
X48400000Y-33158300D02*
X48000000Y-33158300D01*
X50400000Y-33158300D02*
X50000000Y-33158300D01*
X51600000Y-33158300D02*
X51200000Y-33158300D01*
X53600000Y-33158300D02*
X53200000Y-33158300D01*
X45477000Y-30658300D02*
X45477000Y-28408300D01*
X43727000Y-30658300D02*
X45477000Y-30658300D01*
X43727000Y-28408300D02*
X43727000Y-30658300D01*
X45477000Y-28408300D02*
X43727000Y-28408300D01*
X57873000Y-28408300D02*
X56123000Y-28408300D01*
X56123000Y-28408300D02*
X56123000Y-30658300D01*
X56123000Y-30658300D02*
X57873000Y-30658300D01*
X57873000Y-30658300D02*
X57873000Y-28408300D01*
X57273000Y-30658300D02*
X57273000Y-28408300D01*
X56723000Y-28408300D02*
X56723000Y-30658300D01*
X44327000Y-28408300D02*
X44327000Y-30658300D01*
X44877000Y-30658300D02*
X44877000Y-28408300D01*
X46350000Y-35158300D02*
X46350000Y-33008300D01*
X44200000Y-35158300D02*
X46350000Y-35158300D01*
X44200000Y-33008300D02*
X44200000Y-35158300D01*
X46350000Y-33008300D02*
X44200000Y-33008300D01*
X45750000Y-35108300D02*
X45750000Y-33008300D01*
X45150000Y-35158300D02*
X45150000Y-33008300D01*
X44650000Y-35158300D02*
X44650000Y-33008300D01*
X55700000Y-35158300D02*
X55700000Y-33008300D01*
X56200000Y-35158300D02*
X56200000Y-33008300D01*
X56800000Y-35108300D02*
X56800000Y-33008300D01*
X57400000Y-33008300D02*
X55250000Y-33008300D01*
X55250000Y-33008300D02*
X55250000Y-35158300D01*
X55250000Y-35158300D02*
X57400000Y-35158300D01*
X57400000Y-35158300D02*
X57400000Y-33008300D01*
X48000000Y-34108300D02*
X48400000Y-34108300D01*
X53600000Y-34108300D02*
X53200000Y-34108300D01*
X52150000Y-34108300D02*
X52400000Y-34108300D01*
X49450000Y-34108300D02*
X49200000Y-34108300D01*
X50400000Y-34108300D02*
X50250000Y-34108300D01*
X51200000Y-34108300D02*
X51350000Y-34108300D01*
X49200000Y-33308300D02*
X49200000Y-33008300D01*
X52400000Y-33308300D02*
X52400000Y-33008300D01*
X367925000Y-34108300D02*
X367925000Y-34278300D01*
X366475000Y-34108300D02*
X366475000Y-34278300D01*
X365525000Y-34108300D02*
X365525000Y-34278300D01*
X364725000Y-34108300D02*
X364725000Y-34278300D01*
X363775000Y-34108300D02*
X363775000Y-34278300D01*
X362325000Y-34108300D02*
X362325000Y-34278300D01*
X367525000Y-33308300D02*
X367525000Y-33158300D01*
X365925000Y-33308300D02*
X365925000Y-33158300D01*
X364325000Y-33308300D02*
X364325000Y-33158300D01*
X362725000Y-33308300D02*
X362725000Y-33158300D01*
X362725000Y-33158300D02*
X362325000Y-33158300D01*
X364725000Y-33158300D02*
X364325000Y-33158300D01*
X365925000Y-33158300D02*
X365525000Y-33158300D01*
X367925000Y-33158300D02*
X367525000Y-33158300D01*
X359802000Y-30658300D02*
X359802000Y-28408300D01*
X358052000Y-30658300D02*
X359802000Y-30658300D01*
X358052000Y-28408300D02*
X358052000Y-30658300D01*
X359802000Y-28408300D02*
X358052000Y-28408300D01*
X372198000Y-28408300D02*
X370448000Y-28408300D01*
X370448000Y-28408300D02*
X370448000Y-30658300D01*
X370448000Y-30658300D02*
X372198000Y-30658300D01*
X372198000Y-30658300D02*
X372198000Y-28408300D01*
X371598000Y-30658300D02*
X371598000Y-28408300D01*
X371048000Y-28408300D02*
X371048000Y-30658300D01*
X358652000Y-28408300D02*
X358652000Y-30658300D01*
X359202000Y-30658300D02*
X359202000Y-28408300D01*
X360675000Y-35158300D02*
X360675000Y-33008300D01*
X358525000Y-35158300D02*
X360675000Y-35158300D01*
X358525000Y-33008300D02*
X358525000Y-35158300D01*
X360675000Y-33008300D02*
X358525000Y-33008300D01*
X360075000Y-35108300D02*
X360075000Y-33008300D01*
X359475000Y-35158300D02*
X359475000Y-33008300D01*
X358975000Y-35158300D02*
X358975000Y-33008300D01*
X370025000Y-35158300D02*
X370025000Y-33008300D01*
X370525000Y-35158300D02*
X370525000Y-33008300D01*
X371125000Y-35108300D02*
X371125000Y-33008300D01*
X371725000Y-33008300D02*
X369575000Y-33008300D01*
X369575000Y-33008300D02*
X369575000Y-35158300D01*
X369575000Y-35158300D02*
X371725000Y-35158300D01*
X371725000Y-35158300D02*
X371725000Y-33008300D01*
X362325000Y-34108300D02*
X362725000Y-34108300D01*
X367925000Y-34108300D02*
X367525000Y-34108300D01*
X366475000Y-34108300D02*
X366725000Y-34108300D01*
X363775000Y-34108300D02*
X363525000Y-34108300D01*
X364725000Y-34108300D02*
X364575000Y-34108300D01*
X365525000Y-34108300D02*
X365675000Y-34108300D01*
X363525000Y-33308300D02*
X363525000Y-33008300D01*
X366725000Y-33308300D02*
X366725000Y-33008300D01*
D12*
X48050000Y-35318300D03*
X48550000Y-35318300D03*
X49050000Y-35318300D03*
X49550000Y-35318300D03*
X50050000Y-35318300D03*
X50550000Y-35318300D03*
X51050000Y-35318300D03*
X51550000Y-35318300D03*
X52050000Y-35318300D03*
X52550000Y-35318300D03*
X53050000Y-35318300D03*
X53550000Y-35318300D03*
X362375000Y-35318300D03*
X362875000Y-35318300D03*
X363375000Y-35318300D03*
X363875000Y-35318300D03*
X364375000Y-35318300D03*
X364875000Y-35318300D03*
X365375000Y-35318300D03*
X365875000Y-35318300D03*
X366375000Y-35318300D03*
X366875000Y-35318300D03*
X367375000Y-35318300D03*
X367875000Y-35318300D03*
D13*
X367784000Y-39116000D03*
X366784000Y-39116000D03*
X362466000Y-39116000D03*
X363466000Y-39116000D03*
X53586000Y-39116000D03*
X52586000Y-39116000D03*
X48141000Y-39116000D03*
X49141000Y-39116000D03*
D14*
X38265000Y-109540000D03*
X102705000Y-145640000D03*
X269875000Y-145640000D03*
X236535000Y-42869500D03*
X150805000Y-42869500D03*
X41275000Y-57149500D03*
X379095000Y-136202000D03*
X374650000Y-57150000D03*
M02*
