G04 #@! TF.GenerationSoftware,KiCad,Pcbnew,(2017-04-15 revision 60310b3d3)-makepkg*
G04 #@! TF.CreationDate,2017-04-19T10:34:45-04:00*
G04 #@! TF.ProjectId,KType,4B547970652E6B696361645F70636200,1.01a*
G04 #@! TF.FileFunction,Profile,NP*
%FSLAX46Y46*%
G04 Gerber Fmt 4.6, Leading zero omitted, Abs format (unit mm)*
G04 Created by KiCad (PCBNEW (2017-04-15 revision 60310b3d3)-makepkg) date 04/19/17 10:34:45*
%MOMM*%
%LPD*%
G01*
G04 APERTURE LIST*
%ADD10C,0.150000*%
%ADD11C,0.127000*%
G04 APERTURE END LIST*
D10*
D11*
X187642500Y-30670500D02*
X180721000Y-30670500D01*
X386715000Y-33210500D02*
X386715000Y-75247500D01*
X187629800Y-159702500D02*
X31750000Y-159702500D01*
X199059800Y-159702500D02*
X384175000Y-159702500D01*
X386715000Y-86677500D02*
X386715000Y-157162500D01*
X199072500Y-30670500D02*
X205994000Y-30670500D01*
X29210000Y-86664800D02*
X29210000Y-157162500D01*
X29210000Y-75234800D02*
X29210000Y-33210500D01*
X187642500Y-30670500D02*
X192595500Y-33591500D01*
X199072500Y-30670500D02*
X194119500Y-33591500D01*
X192595500Y-33591500D02*
X194119500Y-33591500D01*
X29210000Y-86664800D02*
X32131000Y-81711800D01*
X29210000Y-75234800D02*
X32131000Y-80187800D01*
X32131000Y-81711800D02*
X32131000Y-80187800D01*
X199059800Y-159702500D02*
X194106800Y-156781500D01*
X187629800Y-159702500D02*
X192582800Y-156781500D01*
X194106800Y-156781500D02*
X192582800Y-156781500D01*
X383794000Y-80200500D02*
X383794000Y-81724500D01*
X386715000Y-86677500D02*
X383794000Y-81724500D01*
X386715000Y-75247500D02*
X383794000Y-80200500D01*
X64389000Y-30670500D02*
X89662000Y-30670500D01*
X93472000Y-30670500D02*
X118745000Y-30670500D01*
X122555000Y-30670500D02*
X147828000Y-30670500D01*
X151638000Y-30670500D02*
X176911000Y-30670500D01*
X209804000Y-30670500D02*
X235077000Y-30670500D01*
X238887000Y-30670500D02*
X264160000Y-30670500D01*
X267970000Y-30670500D02*
X293243000Y-30670500D01*
X297053000Y-30670500D02*
X322326000Y-30670500D01*
X326136000Y-30670500D02*
X351409000Y-30670500D01*
X60579000Y-30670500D02*
X57810400Y-27901900D01*
X357987600Y-27901900D02*
X360654600Y-27901900D01*
X355219000Y-30670500D02*
X357987600Y-27901900D01*
X57810400Y-27901900D02*
X55270400Y-27901900D01*
X39497000Y-30670500D02*
X31750000Y-30670500D01*
X42265600Y-27901900D02*
X39497000Y-30670500D01*
X376301000Y-30670500D02*
X384175000Y-30670500D01*
X373532400Y-27901900D02*
X376301000Y-30670500D01*
X46329600Y-27901900D02*
X42265600Y-27901900D01*
X248920000Y-39433500D02*
X248920000Y-36131500D01*
X252730000Y-39433500D02*
X248920000Y-39433500D01*
X252730000Y-36131500D02*
X252730000Y-39433500D01*
X248920000Y-36131500D02*
X252730000Y-36131500D01*
X369595400Y-27901900D02*
X373532400Y-27901900D01*
X33642300Y-32473900D02*
X35979100Y-34810700D01*
X30949900Y-35166300D02*
X33642300Y-32473900D01*
X33286700Y-37503100D02*
X30949900Y-35166300D01*
X35979100Y-34810700D02*
X33286700Y-37503100D01*
X33286700Y-152869900D02*
X35979100Y-155562300D01*
X30949900Y-155206700D02*
X33286700Y-152869900D01*
X33642300Y-157899100D02*
X30949900Y-155206700D01*
X35979100Y-155562300D02*
X33642300Y-157899100D01*
X379945900Y-155562300D02*
X382638300Y-152869900D01*
X382282700Y-157899100D02*
X379945900Y-155562300D01*
X384975100Y-155206700D02*
X382282700Y-157899100D01*
X382638300Y-152869900D02*
X384975100Y-155206700D01*
X379945900Y-34810700D02*
X382282700Y-32473900D01*
X382638300Y-37503100D02*
X379945900Y-34810700D01*
X384975100Y-35166300D02*
X382638300Y-37503100D01*
X382282700Y-32473900D02*
X384975100Y-35166300D01*
X32512000Y-66992500D02*
X29210000Y-66992500D01*
X29210000Y-66992500D02*
X29210000Y-63182500D01*
X29210000Y-63182500D02*
X32512000Y-63182500D01*
X32512000Y-63182500D02*
X32512000Y-66992500D01*
X32512000Y-93281500D02*
X32512000Y-97091500D01*
X29210000Y-93281500D02*
X32512000Y-93281500D01*
X29210000Y-97091500D02*
X29210000Y-93281500D01*
X32512000Y-97091500D02*
X29210000Y-97091500D01*
X32512000Y-127190500D02*
X29210000Y-127190500D01*
X29210000Y-127190500D02*
X29210000Y-123380500D01*
X29210000Y-123380500D02*
X32512000Y-123380500D01*
X32512000Y-123380500D02*
X32512000Y-127190500D01*
X386715000Y-63182500D02*
X386715000Y-66992500D01*
X383413000Y-63182500D02*
X386715000Y-63182500D01*
X383413000Y-66992500D02*
X383413000Y-63182500D01*
X386715000Y-66992500D02*
X383413000Y-66992500D01*
X386715000Y-97091500D02*
X383413000Y-97091500D01*
X383413000Y-97091500D02*
X383413000Y-93281500D01*
X383413000Y-93281500D02*
X386715000Y-93281500D01*
X386715000Y-93281500D02*
X386715000Y-97091500D01*
X386715000Y-123380500D02*
X386715000Y-127190500D01*
X383413000Y-123380500D02*
X386715000Y-123380500D01*
X383413000Y-127190500D02*
X383413000Y-123380500D01*
X386715000Y-127190500D02*
X383413000Y-127190500D01*
X293217600Y-125158500D02*
X293217600Y-121856500D01*
X289394900Y-125158500D02*
X293217600Y-125158500D01*
X289394900Y-121856500D02*
X289394900Y-125158500D01*
X293217600Y-121856500D02*
X289394900Y-121856500D01*
X294157400Y-106108500D02*
X294157400Y-102806500D01*
X297980100Y-106108500D02*
X294157400Y-106108500D01*
X297980100Y-102806500D02*
X297980100Y-106108500D01*
X294157400Y-102806500D02*
X297980100Y-102806500D01*
X301307500Y-87058500D02*
X301307500Y-83756500D01*
X305117500Y-87058500D02*
X301307500Y-87058500D01*
X305117500Y-83756500D02*
X305117500Y-87058500D01*
X301307500Y-83756500D02*
X305117500Y-83756500D01*
X353695000Y-121856500D02*
X357505000Y-121856500D01*
X357505000Y-121856500D02*
X357505000Y-125158500D01*
X357505000Y-125158500D02*
X353695000Y-125158500D01*
X353695000Y-125158500D02*
X353695000Y-121856500D01*
X372745000Y-144208500D02*
X372745000Y-140906500D01*
X376555000Y-144208500D02*
X372745000Y-144208500D01*
X376555000Y-140906500D02*
X376555000Y-144208500D01*
X372745000Y-140906500D02*
X376555000Y-140906500D01*
X353695000Y-140906500D02*
X357505000Y-140906500D01*
X357505000Y-140906500D02*
X357505000Y-144208500D01*
X357505000Y-144208500D02*
X353695000Y-144208500D01*
X353695000Y-144208500D02*
X353695000Y-140906500D01*
X334645000Y-144208500D02*
X334645000Y-140906500D01*
X338455000Y-144208500D02*
X334645000Y-144208500D01*
X338455000Y-140906500D02*
X338455000Y-144208500D01*
X334645000Y-140906500D02*
X338455000Y-140906500D01*
X303682400Y-144208500D02*
X303682400Y-140906500D01*
X307505100Y-144208500D02*
X303682400Y-144208500D01*
X307505100Y-140906500D02*
X307505100Y-144208500D01*
X303682400Y-140906500D02*
X307505100Y-140906500D01*
X232244900Y-140906500D02*
X236067600Y-140906500D01*
X236067600Y-140906500D02*
X236067600Y-144208500D01*
X236067600Y-144208500D02*
X232244900Y-144208500D01*
X232244900Y-144208500D02*
X232244900Y-140906500D01*
X256057400Y-144208500D02*
X256057400Y-140906500D01*
X259880100Y-144208500D02*
X256057400Y-144208500D01*
X259880100Y-140906500D02*
X259880100Y-144208500D01*
X256057400Y-140906500D02*
X259880100Y-140906500D01*
X279869900Y-140906500D02*
X283692600Y-140906500D01*
X283692600Y-140906500D02*
X283692600Y-144208500D01*
X283692600Y-144208500D02*
X279869900Y-144208500D01*
X279869900Y-144208500D02*
X279869900Y-140906500D01*
X160807400Y-140906500D02*
X164630100Y-140906500D01*
X164630100Y-140906500D02*
X164630100Y-144208500D01*
X164630100Y-144208500D02*
X160807400Y-144208500D01*
X160807400Y-144208500D02*
X160807400Y-140906500D01*
X89369900Y-144208500D02*
X89369900Y-140906500D01*
X93192600Y-144208500D02*
X89369900Y-144208500D01*
X93192600Y-140906500D02*
X93192600Y-144208500D01*
X89369900Y-140906500D02*
X93192600Y-140906500D01*
X65557400Y-140906500D02*
X69380100Y-140906500D01*
X69380100Y-140906500D02*
X69380100Y-144208500D01*
X69380100Y-144208500D02*
X65557400Y-144208500D01*
X65557400Y-144208500D02*
X65557400Y-140906500D01*
X41744900Y-144208500D02*
X41744900Y-140906500D01*
X45567600Y-144208500D02*
X41744900Y-144208500D01*
X45567600Y-140906500D02*
X45567600Y-144208500D01*
X41744900Y-140906500D02*
X45567600Y-140906500D01*
X234632500Y-121856500D02*
X238442500Y-121856500D01*
X238442500Y-121856500D02*
X238442500Y-125158500D01*
X238442500Y-125158500D02*
X234632500Y-125158500D01*
X234632500Y-125158500D02*
X234632500Y-121856500D01*
X253682500Y-125158500D02*
X253682500Y-121856500D01*
X257492500Y-125158500D02*
X253682500Y-125158500D01*
X257492500Y-121856500D02*
X257492500Y-125158500D01*
X253682500Y-121856500D02*
X257492500Y-121856500D01*
X158432500Y-121856500D02*
X162242500Y-121856500D01*
X162242500Y-121856500D02*
X162242500Y-125158500D01*
X162242500Y-125158500D02*
X158432500Y-125158500D01*
X158432500Y-125158500D02*
X158432500Y-121856500D01*
X177482500Y-125158500D02*
X177482500Y-121856500D01*
X181292500Y-125158500D02*
X177482500Y-125158500D01*
X181292500Y-121856500D02*
X181292500Y-125158500D01*
X177482500Y-121856500D02*
X181292500Y-121856500D01*
X215582500Y-121856500D02*
X219392500Y-121856500D01*
X219392500Y-121856500D02*
X219392500Y-125158500D01*
X219392500Y-125158500D02*
X215582500Y-125158500D01*
X215582500Y-125158500D02*
X215582500Y-121856500D01*
X196532500Y-125158500D02*
X196532500Y-121856500D01*
X200342500Y-125158500D02*
X196532500Y-125158500D01*
X200342500Y-121856500D02*
X200342500Y-125158500D01*
X196532500Y-121856500D02*
X200342500Y-121856500D01*
X120332500Y-121856500D02*
X124142500Y-121856500D01*
X124142500Y-121856500D02*
X124142500Y-125158500D01*
X124142500Y-125158500D02*
X120332500Y-125158500D01*
X120332500Y-125158500D02*
X120332500Y-121856500D01*
X139382500Y-125158500D02*
X139382500Y-121856500D01*
X143192500Y-125158500D02*
X139382500Y-125158500D01*
X143192500Y-121856500D02*
X143192500Y-125158500D01*
X139382500Y-121856500D02*
X143192500Y-121856500D01*
X101282500Y-121856500D02*
X105092500Y-121856500D01*
X105092500Y-121856500D02*
X105092500Y-125158500D01*
X105092500Y-125158500D02*
X101282500Y-125158500D01*
X101282500Y-125158500D02*
X101282500Y-121856500D01*
X82232500Y-125158500D02*
X82232500Y-121856500D01*
X86042500Y-125158500D02*
X82232500Y-125158500D01*
X86042500Y-121856500D02*
X86042500Y-125158500D01*
X82232500Y-121856500D02*
X86042500Y-121856500D01*
X244157500Y-102806500D02*
X247967500Y-102806500D01*
X247967500Y-102806500D02*
X247967500Y-106108500D01*
X247967500Y-106108500D02*
X244157500Y-106108500D01*
X244157500Y-106108500D02*
X244157500Y-102806500D01*
X263207500Y-106108500D02*
X263207500Y-102806500D01*
X267017500Y-106108500D02*
X263207500Y-106108500D01*
X267017500Y-102806500D02*
X267017500Y-106108500D01*
X263207500Y-102806500D02*
X267017500Y-102806500D01*
X225107500Y-102806500D02*
X228917500Y-102806500D01*
X228917500Y-102806500D02*
X228917500Y-106108500D01*
X228917500Y-106108500D02*
X225107500Y-106108500D01*
X225107500Y-106108500D02*
X225107500Y-102806500D01*
X148907500Y-102806500D02*
X152717500Y-102806500D01*
X152717500Y-102806500D02*
X152717500Y-106108500D01*
X152717500Y-106108500D02*
X148907500Y-106108500D01*
X148907500Y-106108500D02*
X148907500Y-102806500D01*
X167957500Y-106108500D02*
X167957500Y-102806500D01*
X171767500Y-106108500D02*
X167957500Y-106108500D01*
X171767500Y-102806500D02*
X171767500Y-106108500D01*
X167957500Y-102806500D02*
X171767500Y-102806500D01*
X206057500Y-102806500D02*
X209867500Y-102806500D01*
X209867500Y-102806500D02*
X209867500Y-106108500D01*
X209867500Y-106108500D02*
X206057500Y-106108500D01*
X206057500Y-106108500D02*
X206057500Y-102806500D01*
X187007500Y-106108500D02*
X187007500Y-102806500D01*
X190817500Y-106108500D02*
X187007500Y-106108500D01*
X190817500Y-102806500D02*
X190817500Y-106108500D01*
X187007500Y-102806500D02*
X190817500Y-102806500D01*
X110807500Y-102806500D02*
X114617500Y-102806500D01*
X114617500Y-102806500D02*
X114617500Y-106108500D01*
X114617500Y-106108500D02*
X110807500Y-106108500D01*
X110807500Y-106108500D02*
X110807500Y-102806500D01*
X129857500Y-106108500D02*
X129857500Y-102806500D01*
X133667500Y-106108500D02*
X129857500Y-106108500D01*
X133667500Y-102806500D02*
X133667500Y-106108500D01*
X129857500Y-102806500D02*
X133667500Y-102806500D01*
X91757500Y-102806500D02*
X95567500Y-102806500D01*
X95567500Y-102806500D02*
X95567500Y-106108500D01*
X95567500Y-106108500D02*
X91757500Y-106108500D01*
X91757500Y-106108500D02*
X91757500Y-102806500D01*
X72707500Y-106108500D02*
X72707500Y-102806500D01*
X76517500Y-106108500D02*
X72707500Y-106108500D01*
X76517500Y-102806500D02*
X76517500Y-106108500D01*
X72707500Y-102806500D02*
X76517500Y-102806500D01*
X51282600Y-125158500D02*
X55092600Y-125158500D01*
X51282600Y-121856500D02*
X51282600Y-125158500D01*
X55092600Y-121856500D02*
X55092600Y-125158500D01*
X51282600Y-121856500D02*
X55092600Y-121856500D01*
X46512480Y-102806500D02*
X50325020Y-102806500D01*
X46512480Y-106108500D02*
X46512480Y-102806500D01*
X50325020Y-106108500D02*
X46512480Y-106108500D01*
X50325020Y-102806500D02*
X50325020Y-106108500D01*
X44132500Y-87058500D02*
X44132500Y-83756500D01*
X47942500Y-87058500D02*
X44132500Y-87058500D01*
X47942500Y-83756500D02*
X47942500Y-87058500D01*
X44132500Y-83756500D02*
X47942500Y-83756500D01*
X258445000Y-87058500D02*
X262255000Y-87058500D01*
X262255000Y-87058500D02*
X262255000Y-83756500D01*
X262255000Y-83756500D02*
X258445000Y-83756500D01*
X258445000Y-83756500D02*
X258445000Y-87058500D01*
X277495000Y-83756500D02*
X277495000Y-87058500D01*
X281305000Y-83756500D02*
X277495000Y-83756500D01*
X281305000Y-87058500D02*
X281305000Y-83756500D01*
X277495000Y-87058500D02*
X281305000Y-87058500D01*
X239395000Y-87058500D02*
X243205000Y-87058500D01*
X243205000Y-87058500D02*
X243205000Y-83756500D01*
X243205000Y-83756500D02*
X239395000Y-83756500D01*
X239395000Y-83756500D02*
X239395000Y-87058500D01*
X220345000Y-83756500D02*
X220345000Y-87058500D01*
X224155000Y-83756500D02*
X220345000Y-83756500D01*
X224155000Y-87058500D02*
X224155000Y-83756500D01*
X220345000Y-87058500D02*
X224155000Y-87058500D01*
X182245000Y-87058500D02*
X186055000Y-87058500D01*
X186055000Y-87058500D02*
X186055000Y-83756500D01*
X186055000Y-83756500D02*
X182245000Y-83756500D01*
X182245000Y-83756500D02*
X182245000Y-87058500D01*
X201295000Y-83756500D02*
X201295000Y-87058500D01*
X205105000Y-83756500D02*
X201295000Y-83756500D01*
X205105000Y-87058500D02*
X205105000Y-83756500D01*
X201295000Y-87058500D02*
X205105000Y-87058500D01*
X163195000Y-87058500D02*
X167005000Y-87058500D01*
X167005000Y-87058500D02*
X167005000Y-83756500D01*
X167005000Y-83756500D02*
X163195000Y-83756500D01*
X163195000Y-83756500D02*
X163195000Y-87058500D01*
X144145000Y-83756500D02*
X144145000Y-87058500D01*
X147955000Y-83756500D02*
X144145000Y-83756500D01*
X147955000Y-87058500D02*
X147955000Y-83756500D01*
X144145000Y-87058500D02*
X147955000Y-87058500D01*
X67945000Y-87058500D02*
X71755000Y-87058500D01*
X71755000Y-87058500D02*
X71755000Y-83756500D01*
X71755000Y-83756500D02*
X67945000Y-83756500D01*
X67945000Y-83756500D02*
X67945000Y-87058500D01*
X86995000Y-83756500D02*
X86995000Y-87058500D01*
X90805000Y-83756500D02*
X86995000Y-83756500D01*
X90805000Y-87058500D02*
X90805000Y-83756500D01*
X86995000Y-87058500D02*
X90805000Y-87058500D01*
X125095000Y-87058500D02*
X128905000Y-87058500D01*
X128905000Y-87058500D02*
X128905000Y-83756500D01*
X128905000Y-83756500D02*
X125095000Y-83756500D01*
X125095000Y-83756500D02*
X125095000Y-87058500D01*
X106045000Y-83756500D02*
X106045000Y-87058500D01*
X109855000Y-83756500D02*
X106045000Y-83756500D01*
X109855000Y-87058500D02*
X109855000Y-83756500D01*
X106045000Y-87058500D02*
X109855000Y-87058500D01*
X353695000Y-87058500D02*
X357505000Y-87058500D01*
X357505000Y-87058500D02*
X357505000Y-83756500D01*
X357505000Y-83756500D02*
X353695000Y-83756500D01*
X353695000Y-83756500D02*
X353695000Y-87058500D01*
X372745000Y-83756500D02*
X372745000Y-87058500D01*
X376555000Y-83756500D02*
X372745000Y-83756500D01*
X376555000Y-87058500D02*
X376555000Y-83756500D01*
X372745000Y-87058500D02*
X376555000Y-87058500D01*
X334645000Y-87058500D02*
X338455000Y-87058500D01*
X338455000Y-87058500D02*
X338455000Y-83756500D01*
X338455000Y-83756500D02*
X334645000Y-83756500D01*
X334645000Y-83756500D02*
X334645000Y-87058500D01*
X353695000Y-68008500D02*
X357505000Y-68008500D01*
X357505000Y-68008500D02*
X357505000Y-64706500D01*
X357505000Y-64706500D02*
X353695000Y-64706500D01*
X353695000Y-64706500D02*
X353695000Y-68008500D01*
X372745000Y-64706500D02*
X372745000Y-68008500D01*
X376555000Y-64706500D02*
X372745000Y-64706500D01*
X376555000Y-68008500D02*
X376555000Y-64706500D01*
X372745000Y-68008500D02*
X376555000Y-68008500D01*
X334645000Y-68008500D02*
X338455000Y-68008500D01*
X338455000Y-68008500D02*
X338455000Y-64706500D01*
X338455000Y-64706500D02*
X334645000Y-64706500D01*
X334645000Y-64706500D02*
X334645000Y-68008500D01*
X296545000Y-64706500D02*
X296545000Y-68008500D01*
X300355000Y-64706500D02*
X296545000Y-64706500D01*
X300355000Y-68008500D02*
X300355000Y-64706500D01*
X296545000Y-68008500D02*
X300355000Y-68008500D01*
X267970000Y-64706500D02*
X267970000Y-68008500D01*
X271780000Y-64706500D02*
X267970000Y-64706500D01*
X271780000Y-68008500D02*
X271780000Y-64706500D01*
X267970000Y-68008500D02*
X271780000Y-68008500D01*
X191770000Y-68008500D02*
X195580000Y-68008500D01*
X195580000Y-68008500D02*
X195580000Y-64706500D01*
X195580000Y-64706500D02*
X191770000Y-64706500D01*
X191770000Y-64706500D02*
X191770000Y-68008500D01*
X210820000Y-64706500D02*
X210820000Y-68008500D01*
X214630000Y-64706500D02*
X210820000Y-64706500D01*
X214630000Y-68008500D02*
X214630000Y-64706500D01*
X210820000Y-68008500D02*
X214630000Y-68008500D01*
X248920000Y-68008500D02*
X252730000Y-68008500D01*
X252730000Y-68008500D02*
X252730000Y-64706500D01*
X252730000Y-64706500D02*
X248920000Y-64706500D01*
X248920000Y-64706500D02*
X248920000Y-68008500D01*
X229870000Y-64706500D02*
X229870000Y-68008500D01*
X233680000Y-64706500D02*
X229870000Y-64706500D01*
X233680000Y-68008500D02*
X233680000Y-64706500D01*
X229870000Y-68008500D02*
X233680000Y-68008500D01*
X153670000Y-68008500D02*
X157480000Y-68008500D01*
X157480000Y-68008500D02*
X157480000Y-64706500D01*
X157480000Y-64706500D02*
X153670000Y-64706500D01*
X153670000Y-64706500D02*
X153670000Y-68008500D01*
X172720000Y-64706500D02*
X172720000Y-68008500D01*
X176530000Y-64706500D02*
X172720000Y-64706500D01*
X176530000Y-68008500D02*
X176530000Y-64706500D01*
X172720000Y-68008500D02*
X176530000Y-68008500D01*
X134620000Y-68008500D02*
X138430000Y-68008500D01*
X138430000Y-68008500D02*
X138430000Y-64706500D01*
X138430000Y-64706500D02*
X134620000Y-64706500D01*
X134620000Y-64706500D02*
X134620000Y-68008500D01*
X115570000Y-64706500D02*
X115570000Y-68008500D01*
X119380000Y-64706500D02*
X115570000Y-64706500D01*
X119380000Y-68008500D02*
X119380000Y-64706500D01*
X115570000Y-68008500D02*
X119380000Y-68008500D01*
X39370000Y-68008500D02*
X43180000Y-68008500D01*
X43180000Y-68008500D02*
X43180000Y-64706500D01*
X43180000Y-64706500D02*
X39370000Y-64706500D01*
X39370000Y-64706500D02*
X39370000Y-68008500D01*
X58420000Y-64706500D02*
X58420000Y-68008500D01*
X62230000Y-64706500D02*
X58420000Y-64706500D01*
X62230000Y-68008500D02*
X62230000Y-64706500D01*
X58420000Y-68008500D02*
X62230000Y-68008500D01*
X96520000Y-68008500D02*
X100330000Y-68008500D01*
X100330000Y-68008500D02*
X100330000Y-64706500D01*
X100330000Y-64706500D02*
X96520000Y-64706500D01*
X96520000Y-64706500D02*
X96520000Y-68008500D01*
X77470000Y-64706500D02*
X77470000Y-68008500D01*
X81280000Y-64706500D02*
X77470000Y-64706500D01*
X81280000Y-68008500D02*
X81280000Y-64706500D01*
X77470000Y-68008500D02*
X81280000Y-68008500D01*
X334645000Y-39433500D02*
X338455000Y-39433500D01*
X338455000Y-39433500D02*
X338455000Y-36131500D01*
X338455000Y-36131500D02*
X334645000Y-36131500D01*
X334645000Y-36131500D02*
X334645000Y-39433500D01*
X353695000Y-36131500D02*
X353695000Y-39433500D01*
X357505000Y-36131500D02*
X353695000Y-36131500D01*
X357505000Y-39433500D02*
X357505000Y-36131500D01*
X353695000Y-39433500D02*
X357505000Y-39433500D01*
X372745000Y-36131500D02*
X372745000Y-39433500D01*
X376555000Y-36131500D02*
X372745000Y-36131500D01*
X376555000Y-39433500D02*
X376555000Y-36131500D01*
X372745000Y-39433500D02*
X376555000Y-39433500D01*
X306070000Y-39433500D02*
X309880000Y-39433500D01*
X309880000Y-39433500D02*
X309880000Y-36131500D01*
X309880000Y-36131500D02*
X306070000Y-36131500D01*
X306070000Y-36131500D02*
X306070000Y-39433500D01*
X287020000Y-39433500D02*
X290830000Y-39433500D01*
X290830000Y-39433500D02*
X290830000Y-36131500D01*
X290830000Y-36131500D02*
X287020000Y-36131500D01*
X287020000Y-36131500D02*
X287020000Y-39433500D01*
X267970000Y-36131500D02*
X267970000Y-39433500D01*
X271780000Y-36131500D02*
X267970000Y-36131500D01*
X271780000Y-39433500D02*
X271780000Y-36131500D01*
X267970000Y-39433500D02*
X271780000Y-39433500D01*
X163195000Y-39433500D02*
X167005000Y-39433500D01*
X167005000Y-39433500D02*
X167005000Y-36131500D01*
X167005000Y-36131500D02*
X163195000Y-36131500D01*
X163195000Y-36131500D02*
X163195000Y-39433500D01*
X182245000Y-36131500D02*
X182245000Y-39433500D01*
X186055000Y-36131500D02*
X182245000Y-36131500D01*
X186055000Y-39433500D02*
X186055000Y-36131500D01*
X182245000Y-39433500D02*
X186055000Y-39433500D01*
X220345000Y-39433500D02*
X224155000Y-39433500D01*
X224155000Y-39433500D02*
X224155000Y-36131500D01*
X224155000Y-36131500D02*
X220345000Y-36131500D01*
X220345000Y-36131500D02*
X220345000Y-39433500D01*
X201295000Y-36131500D02*
X201295000Y-39433500D01*
X205105000Y-36131500D02*
X201295000Y-36131500D01*
X205105000Y-39433500D02*
X205105000Y-36131500D01*
X201295000Y-39433500D02*
X205105000Y-39433500D01*
X115570000Y-39433500D02*
X119380000Y-39433500D01*
X119380000Y-39433500D02*
X119380000Y-36131500D01*
X119380000Y-36131500D02*
X115570000Y-36131500D01*
X115570000Y-36131500D02*
X115570000Y-39433500D01*
X134620000Y-36131500D02*
X134620000Y-39433500D01*
X138430000Y-36131500D02*
X134620000Y-36131500D01*
X138430000Y-39433500D02*
X138430000Y-36131500D01*
X134620000Y-39433500D02*
X138430000Y-39433500D01*
X96520000Y-39433500D02*
X100330000Y-39433500D01*
X100330000Y-39433500D02*
X100330000Y-36131500D01*
X100330000Y-36131500D02*
X96520000Y-36131500D01*
X96520000Y-36131500D02*
X96520000Y-39433500D01*
X77470000Y-36131500D02*
X77470000Y-39433500D01*
X81280000Y-36131500D02*
X77470000Y-36131500D01*
X81280000Y-39433500D02*
X81280000Y-36131500D01*
X77470000Y-39433500D02*
X81280000Y-39433500D01*
X64389000Y-30670500D02*
X64389000Y-33972500D01*
X64389000Y-33972500D02*
X60579000Y-33972500D01*
X60579000Y-33972500D02*
X60579000Y-30670500D01*
X89662000Y-33972500D02*
X89662000Y-30670500D01*
X93472000Y-33972500D02*
X89662000Y-33972500D01*
X93472000Y-30670500D02*
X93472000Y-33972500D01*
X122555000Y-30670500D02*
X122555000Y-33972500D01*
X122555000Y-33972500D02*
X118745000Y-33972500D01*
X118745000Y-33972500D02*
X118745000Y-30670500D01*
X176911000Y-33972500D02*
X176911000Y-30670500D01*
X180721000Y-33972500D02*
X176911000Y-33972500D01*
X180721000Y-30670500D02*
X180721000Y-33972500D01*
X151638000Y-30670500D02*
X151638000Y-33972500D01*
X151638000Y-33972500D02*
X147828000Y-33972500D01*
X147828000Y-33972500D02*
X147828000Y-30670500D01*
X264160000Y-33972500D02*
X264160000Y-30670500D01*
X267970000Y-33972500D02*
X264160000Y-33972500D01*
X267970000Y-30670500D02*
X267970000Y-33972500D01*
X235077000Y-33972500D02*
X235077000Y-30670500D01*
X238887000Y-33972500D02*
X235077000Y-33972500D01*
X238887000Y-30670500D02*
X238887000Y-33972500D01*
X209804000Y-30670500D02*
X209804000Y-33972500D01*
X209804000Y-33972500D02*
X205994000Y-33972500D01*
X205994000Y-33972500D02*
X205994000Y-30670500D01*
X351409000Y-33972500D02*
X351409000Y-30670500D01*
X355219000Y-33972500D02*
X351409000Y-33972500D01*
X355219000Y-30670500D02*
X355219000Y-33972500D01*
X322326000Y-33972500D02*
X322326000Y-30670500D01*
X326136000Y-33972500D02*
X322326000Y-33972500D01*
X326136000Y-30670500D02*
X326136000Y-33972500D01*
X297053000Y-30670500D02*
X297053000Y-33972500D01*
X297053000Y-33972500D02*
X293243000Y-33972500D01*
X293243000Y-33972500D02*
X293243000Y-30670500D01*
X264160000Y-159702500D02*
X264160000Y-156400500D01*
X267970000Y-159702500D02*
X264160000Y-159702500D01*
X267970000Y-156400500D02*
X267970000Y-159702500D01*
X264160000Y-156400500D02*
X267970000Y-156400500D01*
X293243000Y-156400500D02*
X297053000Y-156400500D01*
X297053000Y-156400500D02*
X297053000Y-159702500D01*
X297053000Y-159702500D02*
X293243000Y-159702500D01*
X293243000Y-159702500D02*
X293243000Y-156400500D01*
X351409000Y-159702500D02*
X351409000Y-156400500D01*
X355219000Y-159702500D02*
X351409000Y-159702500D01*
X355219000Y-156400500D02*
X355219000Y-159702500D01*
X351409000Y-156400500D02*
X355219000Y-156400500D01*
X322326000Y-156400500D02*
X326136000Y-156400500D01*
X326136000Y-156400500D02*
X326136000Y-159702500D01*
X326136000Y-159702500D02*
X322326000Y-159702500D01*
X322326000Y-159702500D02*
X322326000Y-156400500D01*
X176911000Y-159702500D02*
X176911000Y-156400500D01*
X180721000Y-159702500D02*
X176911000Y-159702500D01*
X180721000Y-156400500D02*
X180721000Y-159702500D01*
X176911000Y-156400500D02*
X180721000Y-156400500D01*
X205994000Y-156400500D02*
X209804000Y-156400500D01*
X209804000Y-156400500D02*
X209804000Y-159702500D01*
X209804000Y-159702500D02*
X205994000Y-159702500D01*
X205994000Y-159702500D02*
X205994000Y-156400500D01*
X264160000Y-159702500D02*
X264160000Y-156400500D01*
X267970000Y-159702500D02*
X264160000Y-159702500D01*
X267970000Y-156400500D02*
X267970000Y-159702500D01*
X264160000Y-156400500D02*
X267970000Y-156400500D01*
X235077000Y-156400500D02*
X238887000Y-156400500D01*
X238887000Y-156400500D02*
X238887000Y-159702500D01*
X238887000Y-159702500D02*
X235077000Y-159702500D01*
X235077000Y-159702500D02*
X235077000Y-156400500D01*
X118745000Y-159702500D02*
X118745000Y-156400500D01*
X122555000Y-159702500D02*
X118745000Y-159702500D01*
X122555000Y-156400500D02*
X122555000Y-159702500D01*
X118745000Y-156400500D02*
X122555000Y-156400500D01*
X147828000Y-156400500D02*
X151638000Y-156400500D01*
X151638000Y-156400500D02*
X151638000Y-159702500D01*
X151638000Y-159702500D02*
X147828000Y-159702500D01*
X147828000Y-159702500D02*
X147828000Y-156400500D01*
X89662000Y-159702500D02*
X89662000Y-156400500D01*
X93472000Y-159702500D02*
X89662000Y-159702500D01*
X93472000Y-156400500D02*
X93472000Y-159702500D01*
X89662000Y-156400500D02*
X93472000Y-156400500D01*
X60579000Y-156400500D02*
X64389000Y-156400500D01*
X64389000Y-156400500D02*
X64389000Y-159702500D01*
X64389000Y-159702500D02*
X60579000Y-159702500D01*
X60579000Y-159702500D02*
X60579000Y-156400500D01*
X39370000Y-39433500D02*
X39370000Y-36131500D01*
X43180000Y-39433500D02*
X39370000Y-39433500D01*
X43180000Y-36131500D02*
X43180000Y-39433500D01*
X39370000Y-36131500D02*
X43180000Y-36131500D01*
X55765700Y-32156400D02*
G75*
G03X55270400Y-31661100I-495300J0D01*
G01*
X55270400Y-32651700D02*
G75*
G03X55765700Y-32156400I0J495300D01*
G01*
X45834300Y-32156400D02*
G75*
G03X46329600Y-32651700I495300J0D01*
G01*
X46329600Y-31661100D02*
G75*
G03X45834300Y-32156400I0J-495300D01*
G01*
X370090700Y-32156400D02*
G75*
G03X369595400Y-31661100I-495300J0D01*
G01*
X369595400Y-32651700D02*
G75*
G03X370090700Y-32156400I0J495300D01*
G01*
X360159300Y-32156400D02*
G75*
G03X360654600Y-32651700I495300J0D01*
G01*
X360654600Y-31661100D02*
G75*
G03X360159300Y-32156400I0J-495300D01*
G01*
X369595400Y-31661100D02*
X369595400Y-27901900D01*
X360654600Y-32651700D02*
X369595400Y-32651700D01*
X360654600Y-27901900D02*
X360654600Y-31661100D01*
X55270400Y-31661100D02*
X55270400Y-27901900D01*
X46329600Y-32651700D02*
X55270400Y-32651700D01*
X46329600Y-27901900D02*
X46329600Y-31661100D01*
X384175000Y-159702500D02*
G75*
G03X386715000Y-157162500I0J2540000D01*
G01*
X29210000Y-157162500D02*
G75*
G03X31750000Y-159702500I2540000J0D01*
G01*
X31750000Y-30670500D02*
G75*
G03X29210000Y-33210500I0J-2540000D01*
G01*
X386715000Y-33210500D02*
G75*
G03X384175000Y-30670500I-2540000J0D01*
G01*
M02*
