M48
INCH,TZ
T1C0.016
T2C0.039
T3C0.059
T4C0.098
%
G90
G05
T1
X38012Y-47829
X39245Y-33714
X39720Y-33488
X57322Y-59636
X57952Y-58633
X58009Y-56236
X59330Y-40215
X59384Y-48509
X59499Y-37528
X59545Y-53327
X59919Y-54073
X60399Y-39541
X60913Y-57663
X60943Y-60857
X61464Y-58080
X61591Y-59632
X61873Y-58380
X62088Y-59503
X62678Y-58609
X62713Y-61054
X62794Y-58120
X63667Y-60781
X64308Y-58694
X67298Y-59796
X70119Y-61265
X70698Y-59551
X94907Y-38914
X102146Y-32136
X108435Y-39495
X108944Y-39559
X115858Y-39092
T2
X35672Y-43057
X35672Y-44057
X35672Y-45057
X35672Y-46057
X69900Y-56650
X69900Y-57650
T4
X34295Y-36583
T3
X27125Y-31062G85X27141Y-30834
G05
X27887Y-57488G85X27567Y-58063
G05
X28819Y-34988G85X28500Y-35563
G05
X28819Y-57488G85X28500Y-58063
G05
X29306Y-30637G85X29625Y-30063
G05
X29757Y-42488G85X29438Y-43063
G05
X30067Y-57063G85X30052Y-57291
G05
X31000Y-34563G85X30984Y-34791
G05
X31000Y-57063G85X30984Y-57291
G05
X31632Y-49988G85X31312Y-50563
G05
X31938Y-42063G85X31922Y-42291
G05
X33812Y-49563G85X33797Y-49791
G05
X34625Y-31062G85X34641Y-30834
G05
X36806Y-30637G85X37125Y-30063
G05
X37257Y-57488G85X36937Y-58063
G05
X38194Y-34988G85X37875Y-35563
G05
X38194Y-57488G85X37875Y-58063
G05
X39437Y-57063G85X39422Y-57291
G05
X40069Y-42488G85X39750Y-43063
G05
X40375Y-34563G85X40359Y-34791
G05
X40375Y-57063G85X40359Y-57291
G05
X41944Y-27488G85X41625Y-28063
G05
X42250Y-42063G85X42234Y-42291
G05
X43819Y-49988G85X43500Y-50563
G05
X44125Y-27063G85X44110Y-27291
G05
X45694Y-34988G85X45375Y-35563
G05
X46000Y-49563G85X45984Y-49791
G05
X46632Y-57488G85X46312Y-58063
G05
X47569Y-57488G85X47249Y-58063
G05
X47569Y-42488G85X47250Y-43063
G05
X47875Y-34563G85X47859Y-34791
G05
X48812Y-57063G85X48797Y-57291
G05
X49444Y-27488G85X49125Y-28063
G05
X49749Y-57063G85X49734Y-57291
G05
X49750Y-42063G85X49734Y-42291
G05
X51319Y-49988G85X51000Y-50563
G05
X51625Y-27063G85X51610Y-27291
G05
X53194Y-34988G85X52875Y-35563
G05
X53500Y-49563G85X53484Y-49791
G05
X55069Y-42488G85X54750Y-43063
G05
X55375Y-34563G85X55359Y-34791
G05
X56944Y-27488G85X56625Y-28063
G05
X57250Y-42063G85X57234Y-42291
G05
X58819Y-49988G85X58500Y-50563
G05
X59125Y-27063G85X59110Y-27291
G05
X60694Y-34988G85X60375Y-35563
G05
X61000Y-49563G85X60984Y-49791
G05
X62569Y-42488G85X62250Y-43063
G05
X62875Y-34563G85X62859Y-34791
G05
X64444Y-27488G85X64125Y-28063
G05
X64750Y-42063G85X64734Y-42291
G05
X66319Y-49988G85X66000Y-50563
G05
X66625Y-27063G85X66610Y-27291
G05
X68194Y-34988G85X67875Y-35563
G05
X68500Y-49563G85X68484Y-49791
G05
X70069Y-42488G85X69750Y-43063
G05
X70375Y-34563G85X70359Y-34791
G05
X71944Y-27488G85X71625Y-28063
G05
X72250Y-42063G85X72234Y-42291
G05
X73819Y-49988G85X73500Y-50563
G05
X74125Y-27063G85X74110Y-27291
G05
X74754Y-57488G85X74435Y-58063
G05
X75694Y-34988G85X75375Y-35563
G05
X75694Y-57488G85X75375Y-58063
G05
X76000Y-49563G85X75984Y-49791
G05
X76935Y-57063G85X76919Y-57291
G05
X77569Y-42488G85X77250Y-43063
G05
X77875Y-34563G85X77859Y-34791
G05
X77875Y-57063G85X77859Y-57291
G05
X79444Y-27488G85X79125Y-28063
G05
X79750Y-42063G85X79734Y-42291
G05
X81319Y-49988G85X81000Y-50563
G05
X81625Y-27063G85X81610Y-27291
G05
X83194Y-34988G85X82875Y-35563
G05
X83500Y-49563G85X83484Y-49791
G05
X85069Y-42488G85X84750Y-43063
G05
X85375Y-34563G85X85359Y-34791
G05
X86944Y-27488G85X86625Y-28063
G05
X87250Y-42063G85X87234Y-42291
G05
X88819Y-49988G85X88500Y-50563
G05
X89125Y-27063G85X89110Y-27291
G05
X90694Y-34988G85X90375Y-35563
G05
X91000Y-49563G85X90984Y-49791
G05
X92569Y-42488G85X92250Y-43063
G05
X92875Y-34563G85X92859Y-34791
G05
X94444Y-27488G85X94125Y-28063
G05
X94750Y-42063G85X94734Y-42291
G05
X96319Y-49988G85X96000Y-50563
G05
X96625Y-27063G85X96610Y-27291
G05
X98194Y-34988G85X97875Y-35563
G05
X98500Y-49563G85X98484Y-49791
G05
X100069Y-42488G85X99750Y-43063
G05
X100375Y-34563G85X100359Y-34791
G05
X101944Y-27488G85X101625Y-28063
G05
X102250Y-42063G85X102234Y-42291
G05
X102877Y-57488G85X102557Y-58063
G05
X103819Y-49988G85X103500Y-50563
G05
X103819Y-57488G85X103500Y-58063
G05
X104125Y-27063G85X104110Y-27291
G05
X105057Y-57063G85X105042Y-57291
G05
X105694Y-34988G85X105375Y-35563
G05
X106000Y-49563G85X105984Y-49791
G05
X106000Y-57063G85X105984Y-57291
G05
X107569Y-42488G85X107250Y-43063
G05
X107875Y-34563G85X107859Y-34791
G05
X109444Y-27488G85X109125Y-28063
G05
X109750Y-42063G85X109734Y-42291
G05
X111319Y-49988G85X111000Y-50563
G05
X111625Y-27063G85X111610Y-27291
G05
X112252Y-57488G85X111932Y-58063
G05
X113194Y-34988G85X112875Y-35563
G05
X113194Y-57488G85X112875Y-58063
G05
X113500Y-49563G85X113484Y-49791
G05
X114433Y-57063G85X114417Y-57291
G05
X115069Y-42488G85X114750Y-43063
G05
X115375Y-34563G85X115359Y-34791
G05
X115375Y-57063G85X115359Y-57291
G05
X116944Y-27488G85X116625Y-28063
G05
X117250Y-42063G85X117234Y-42291
G05
X119125Y-27063G85X119110Y-27291
G05
X120694Y-34988G85X120375Y-35563
G05
X120694Y-57488G85X120375Y-58063
G05
X121627Y-57488G85X121307Y-58063
G05
X121632Y-49988G85X121312Y-50563
G05
X122875Y-34563G85X122859Y-34791
G05
X122875Y-57063G85X122859Y-57291
G05
X123807Y-57063G85X123792Y-57291
G05
X123812Y-49563G85X123797Y-49791
G05
X124444Y-27488G85X124125Y-28063
G05
X126625Y-27063G85X126610Y-27291
G05
X127256Y-42488G85X126937Y-43063
G05
X129437Y-42063G85X129422Y-42291
G05
X130069Y-34988G85X129750Y-35563
G05
X130069Y-57488G85X129750Y-58063
G05
X131002Y-57488G85X130682Y-58063
G05
X131944Y-27488G85X131625Y-28063
G05
X131944Y-49988G85X131625Y-50563
G05
X132250Y-34563G85X132234Y-34791
G05
X132250Y-57063G85X132234Y-57291
G05
X133183Y-57063G85X133167Y-57291
G05
X134125Y-27063G85X134110Y-27291
G05
X134125Y-49563G85X134110Y-49791
G05
T4
X24212Y-47843G85X25984Y-47843
G05
X74354Y-44106G85X75339Y-44106
G05
X98991Y-59142G85X99976Y-59142
G05
X126256Y-36583G85X127241Y-36583
G05
X135268Y-47843G85X137040Y-47843
G05
T0
M30
