G04 #@! TF.FileFunction,Soldermask,Bot*
%FSLAX46Y46*%
G04 Gerber Fmt 4.6, Leading zero omitted, Abs format (unit mm)*
G04 Created by KiCad (PCBNEW (2015-02-28 BZR 5464)-product) date 5/23/2015 8:14:39 PM*
%MOMM*%
G01*
G04 APERTURE LIST*
%ADD10C,0.150000*%
%ADD11R,0.600000X0.650000*%
%ADD12R,0.650000X0.600000*%
%ADD13R,0.797560X0.797560*%
%ADD14C,7.000240*%
%ADD15C,5.001260*%
%ADD16O,9.999980X5.001260*%
%ADD17C,1.800000*%
%ADD18C,0.787400*%
%ADD19C,0.990610*%
%ADD20C,2.374910*%
%ADD21C,3.987810*%
%ADD22C,1.701810*%
%ADD23C,2.500000*%
%ADD24R,1.100000X1.600000*%
%ADD25R,1.498600X0.248920*%
%ADD26R,0.248920X1.498600*%
%ADD27R,0.850900X1.000760*%
%ADD28R,2.050000X4.000000*%
%ADD29C,0.900000*%
%ADD30R,2.050000X3.700000*%
%ADD31R,0.500000X3.250000*%
G04 APERTURE END LIST*
D10*
D11*
X169900000Y-147400000D03*
X168900000Y-147400000D03*
X168900000Y-151600000D03*
X169900000Y-151600000D03*
X169900000Y-149500000D03*
X168900000Y-149500000D03*
D12*
X164338000Y-150249000D03*
X164338000Y-151249000D03*
D11*
X169900000Y-145300000D03*
X168900000Y-145300000D03*
D12*
X146668000Y-151038000D03*
X146668000Y-152038000D03*
D13*
X146668000Y-154344700D03*
X146668000Y-155843300D03*
D14*
X190109000Y-112029000D03*
X252689000Y-150221000D03*
X321940000Y-92920800D03*
D15*
X87109300Y-92920800D03*
D16*
X63748900Y-121521000D03*
X345831000Y-121521000D03*
D17*
X90606900Y-109365000D03*
X90606900Y-111905000D03*
X90606900Y-114445000D03*
X90606900Y-116985000D03*
D18*
X177546000Y-152273000D03*
X177546000Y-153543000D03*
X176276000Y-152273000D03*
X176276000Y-153543000D03*
X175006000Y-153543000D03*
X175006000Y-152273000D03*
X178816000Y-152273000D03*
X178816000Y-153543000D03*
X180086000Y-152273000D03*
X180086000Y-153543000D03*
D19*
X181356000Y-152908000D03*
X173736000Y-151892000D03*
X173736000Y-153924000D03*
D20*
X181356000Y-150368000D03*
X175641000Y-150368000D03*
X181356000Y-155448000D03*
X175641000Y-155448000D03*
D12*
X79565500Y-75350800D03*
X79565500Y-76350800D03*
X80825000Y-75350800D03*
X80825000Y-76350800D03*
D11*
X151178000Y-155856000D03*
X152178000Y-155856000D03*
D21*
X71437500Y-73818800D03*
D22*
X76517500Y-73818800D03*
X66357500Y-73818800D03*
D23*
X74437047Y-77818754D02*
X75247953Y-76358846D01*
X68897776Y-78898128D02*
X68937224Y-78319472D01*
D21*
X90487500Y-73818800D03*
D22*
X95567500Y-73818800D03*
X85407500Y-73818800D03*
D23*
X93487047Y-77818754D02*
X94297953Y-76358846D01*
X87947776Y-78898128D02*
X87987224Y-78319472D01*
D21*
X109538000Y-73820000D03*
D22*
X104458000Y-73820000D03*
X114618000Y-73820000D03*
D23*
X106538453Y-69820046D02*
X105727547Y-71279954D01*
X112077724Y-68740672D02*
X112038276Y-69319328D01*
D21*
X128588000Y-73820000D03*
D22*
X123508000Y-73820000D03*
X133668000Y-73820000D03*
D23*
X125588453Y-69820046D02*
X124777547Y-71279954D01*
X131127724Y-68740672D02*
X131088276Y-69319328D01*
D21*
X147638000Y-73820000D03*
D22*
X142558000Y-73820000D03*
X152718000Y-73820000D03*
D23*
X144638453Y-69820046D02*
X143827547Y-71279954D01*
X150177724Y-68740672D02*
X150138276Y-69319328D01*
D21*
X166688000Y-73820000D03*
D22*
X161608000Y-73820000D03*
X171768000Y-73820000D03*
D23*
X163688453Y-69820046D02*
X162877547Y-71279954D01*
X169227724Y-68740672D02*
X169188276Y-69319328D01*
D21*
X185738000Y-73820000D03*
D22*
X180658000Y-73820000D03*
X190818000Y-73820000D03*
D23*
X182738453Y-69820046D02*
X181927547Y-71279954D01*
X188277724Y-68740672D02*
X188238276Y-69319328D01*
D21*
X204788000Y-73820000D03*
D22*
X199708000Y-73820000D03*
X209868000Y-73820000D03*
D23*
X201788453Y-69820046D02*
X200977547Y-71279954D01*
X207327724Y-68740672D02*
X207288276Y-69319328D01*
D21*
X223838000Y-73820000D03*
D22*
X218758000Y-73820000D03*
X228918000Y-73820000D03*
D23*
X220838453Y-69820046D02*
X220027547Y-71279954D01*
X226377724Y-68740672D02*
X226338276Y-69319328D01*
D21*
X242888000Y-73820000D03*
D22*
X237808000Y-73820000D03*
X247968000Y-73820000D03*
D23*
X239888453Y-69820046D02*
X239077547Y-71279954D01*
X245427724Y-68740672D02*
X245388276Y-69319328D01*
D21*
X261938000Y-73820000D03*
D22*
X256858000Y-73820000D03*
X267018000Y-73820000D03*
D23*
X258938453Y-69820046D02*
X258127547Y-71279954D01*
X264477724Y-68740672D02*
X264438276Y-69319328D01*
D21*
X280988000Y-73820000D03*
D22*
X275908000Y-73820000D03*
X286068000Y-73820000D03*
D23*
X277988453Y-69820046D02*
X277177547Y-71279954D01*
X283527724Y-68740672D02*
X283488276Y-69319328D01*
D21*
X300038000Y-73820000D03*
D22*
X294958000Y-73820000D03*
X305118000Y-73820000D03*
D23*
X297038453Y-69820046D02*
X296227547Y-71279954D01*
X302577724Y-68740672D02*
X302538276Y-69319328D01*
D21*
X319088000Y-73820000D03*
D22*
X314008000Y-73820000D03*
X324168000Y-73820000D03*
D23*
X316088453Y-69820046D02*
X315277547Y-71279954D01*
X321627724Y-68740672D02*
X321588276Y-69319328D01*
D21*
X338138000Y-73820000D03*
D22*
X333058000Y-73820000D03*
X343218000Y-73820000D03*
D23*
X335138453Y-69820046D02*
X334327547Y-71279954D01*
X340677724Y-68740672D02*
X340638276Y-69319328D01*
D21*
X76200000Y-92870000D03*
D22*
X71120000Y-92870000D03*
X81280000Y-92870000D03*
D23*
X73200453Y-88870046D02*
X72389547Y-90329954D01*
X78739724Y-87790672D02*
X78700276Y-88369328D01*
D21*
X100012000Y-92870000D03*
D22*
X94932000Y-92870000D03*
X105092000Y-92870000D03*
D23*
X97012453Y-88870046D02*
X96201547Y-90329954D01*
X102551724Y-87790672D02*
X102512276Y-88369328D01*
D21*
X119062000Y-92870000D03*
D22*
X113982000Y-92870000D03*
X124142000Y-92870000D03*
D23*
X116062453Y-88870046D02*
X115251547Y-90329954D01*
X121601724Y-87790672D02*
X121562276Y-88369328D01*
D21*
X138112000Y-92870000D03*
D22*
X133032000Y-92870000D03*
X143192000Y-92870000D03*
D23*
X135112453Y-88870046D02*
X134301547Y-90329954D01*
X140651724Y-87790672D02*
X140612276Y-88369328D01*
D21*
X157162000Y-92870000D03*
D22*
X152082000Y-92870000D03*
X162242000Y-92870000D03*
D23*
X154162453Y-88870046D02*
X153351547Y-90329954D01*
X159701724Y-87790672D02*
X159662276Y-88369328D01*
D21*
X176212000Y-92870000D03*
D22*
X171132000Y-92870000D03*
X181292000Y-92870000D03*
D23*
X173212453Y-88870046D02*
X172401547Y-90329954D01*
X178751724Y-87790672D02*
X178712276Y-88369328D01*
D21*
X195262000Y-92870000D03*
D22*
X190182000Y-92870000D03*
X200342000Y-92870000D03*
D23*
X192262453Y-88870046D02*
X191451547Y-90329954D01*
X197801724Y-87790672D02*
X197762276Y-88369328D01*
D21*
X214312000Y-92870000D03*
D22*
X209232000Y-92870000D03*
X219392000Y-92870000D03*
D23*
X211312453Y-88870046D02*
X210501547Y-90329954D01*
X216851724Y-87790672D02*
X216812276Y-88369328D01*
D21*
X233362000Y-92870000D03*
D22*
X228282000Y-92870000D03*
X238442000Y-92870000D03*
D23*
X230362453Y-88870046D02*
X229551547Y-90329954D01*
X235901724Y-87790672D02*
X235862276Y-88369328D01*
D21*
X252412000Y-92870000D03*
D22*
X247332000Y-92870000D03*
X257492000Y-92870000D03*
D23*
X249412453Y-88870046D02*
X248601547Y-90329954D01*
X254951724Y-87790672D02*
X254912276Y-88369328D01*
D21*
X271462000Y-92870000D03*
D22*
X266382000Y-92870000D03*
X276542000Y-92870000D03*
D23*
X268462453Y-88870046D02*
X267651547Y-90329954D01*
X274001724Y-87790672D02*
X273962276Y-88369328D01*
D21*
X290512000Y-92870000D03*
D22*
X285432000Y-92870000D03*
X295592000Y-92870000D03*
D23*
X287512453Y-88870046D02*
X286701547Y-90329954D01*
X293051724Y-87790672D02*
X293012276Y-88369328D01*
D21*
X309562000Y-92870000D03*
D22*
X304482000Y-92870000D03*
X314642000Y-92870000D03*
D23*
X306562453Y-88870046D02*
X305751547Y-90329954D01*
X312101724Y-87790672D02*
X312062276Y-88369328D01*
D21*
X333375000Y-92868800D03*
D22*
X328295000Y-92868800D03*
X338455000Y-92868800D03*
D23*
X330375453Y-88868846D02*
X329564547Y-90328754D01*
X335914724Y-87789472D02*
X335875276Y-88368128D01*
D21*
X78582500Y-111920000D03*
D22*
X73502500Y-111920000D03*
X83662500Y-111920000D03*
D23*
X75582953Y-107920046D02*
X74772047Y-109379954D01*
X81122224Y-106840672D02*
X81082776Y-107419328D01*
D21*
X104775000Y-111920000D03*
D22*
X99695000Y-111920000D03*
X109855000Y-111920000D03*
D23*
X101775453Y-107920046D02*
X100964547Y-109379954D01*
X107314724Y-106840672D02*
X107275276Y-107419328D01*
D21*
X123825000Y-111920000D03*
D22*
X118745000Y-111920000D03*
X128905000Y-111920000D03*
D23*
X120825453Y-107920046D02*
X120014547Y-109379954D01*
X126364724Y-106840672D02*
X126325276Y-107419328D01*
D21*
X142875000Y-111920000D03*
D22*
X137795000Y-111920000D03*
X147955000Y-111920000D03*
D23*
X139875453Y-107920046D02*
X139064547Y-109379954D01*
X145414724Y-106840672D02*
X145375276Y-107419328D01*
D21*
X161925000Y-111920000D03*
D22*
X156845000Y-111920000D03*
X167005000Y-111920000D03*
D23*
X158925453Y-107920046D02*
X158114547Y-109379954D01*
X164464724Y-106840672D02*
X164425276Y-107419328D01*
D21*
X180975000Y-111920000D03*
D22*
X175895000Y-111920000D03*
X186055000Y-111920000D03*
D23*
X177975453Y-107920046D02*
X177164547Y-109379954D01*
X183514724Y-106840672D02*
X183475276Y-107419328D01*
D21*
X200025000Y-111920000D03*
D22*
X194945000Y-111920000D03*
X205105000Y-111920000D03*
D23*
X197025453Y-107920046D02*
X196214547Y-109379954D01*
X202564724Y-106840672D02*
X202525276Y-107419328D01*
D21*
X219075000Y-111920000D03*
D22*
X213995000Y-111920000D03*
X224155000Y-111920000D03*
D23*
X216075453Y-107920046D02*
X215264547Y-109379954D01*
X221614724Y-106840672D02*
X221575276Y-107419328D01*
D21*
X238125000Y-111920000D03*
D22*
X233045000Y-111920000D03*
X243205000Y-111920000D03*
D23*
X235125453Y-107920046D02*
X234314547Y-109379954D01*
X240664724Y-106840672D02*
X240625276Y-107419328D01*
D21*
X257175000Y-111920000D03*
D22*
X252095000Y-111920000D03*
X262255000Y-111920000D03*
D23*
X254175453Y-107920046D02*
X253364547Y-109379954D01*
X259714724Y-106840672D02*
X259675276Y-107419328D01*
D21*
X276225000Y-111920000D03*
D22*
X271145000Y-111920000D03*
X281305000Y-111920000D03*
D23*
X273225453Y-107920046D02*
X272414547Y-109379954D01*
X278764724Y-106840672D02*
X278725276Y-107419328D01*
D21*
X295275000Y-111920000D03*
D22*
X290195000Y-111920000D03*
X300355000Y-111920000D03*
D23*
X292275453Y-107920046D02*
X291464547Y-109379954D01*
X297814724Y-106840672D02*
X297775276Y-107419328D01*
D21*
X326231000Y-111919000D03*
D22*
X321151000Y-111919000D03*
X331311000Y-111919000D03*
D23*
X323231453Y-107919046D02*
X322420547Y-109378954D01*
X328770724Y-106839672D02*
X328731276Y-107418328D01*
D21*
X83343800Y-130969000D03*
D22*
X78263800Y-130969000D03*
X88423800Y-130969000D03*
D23*
X80344253Y-126969046D02*
X79533347Y-128428954D01*
X85883524Y-125889672D02*
X85844076Y-126468328D01*
D21*
X114300000Y-130970000D03*
D22*
X109220000Y-130970000D03*
X119380000Y-130970000D03*
D23*
X111300453Y-126970046D02*
X110489547Y-128429954D01*
X116839724Y-125890672D02*
X116800276Y-126469328D01*
D21*
X133350000Y-130970000D03*
D22*
X128270000Y-130970000D03*
X138430000Y-130970000D03*
D23*
X130350453Y-126970046D02*
X129539547Y-128429954D01*
X135889724Y-125890672D02*
X135850276Y-126469328D01*
D21*
X152400000Y-130970000D03*
D22*
X147320000Y-130970000D03*
X157480000Y-130970000D03*
D23*
X149400453Y-126970046D02*
X148589547Y-128429954D01*
X154939724Y-125890672D02*
X154900276Y-126469328D01*
D21*
X171450000Y-130970000D03*
D22*
X166370000Y-130970000D03*
X176530000Y-130970000D03*
D23*
X168450453Y-126970046D02*
X167639547Y-128429954D01*
X173989724Y-125890672D02*
X173950276Y-126469328D01*
D21*
X190500000Y-130970000D03*
D22*
X185420000Y-130970000D03*
X195580000Y-130970000D03*
D23*
X187500453Y-126970046D02*
X186689547Y-128429954D01*
X193039724Y-125890672D02*
X193000276Y-126469328D01*
D21*
X209550000Y-130970000D03*
D22*
X204470000Y-130970000D03*
X214630000Y-130970000D03*
D23*
X206550453Y-126970046D02*
X205739547Y-128429954D01*
X212089724Y-125890672D02*
X212050276Y-126469328D01*
D21*
X228600000Y-130970000D03*
D22*
X223520000Y-130970000D03*
X233680000Y-130970000D03*
D23*
X225600453Y-126970046D02*
X224789547Y-128429954D01*
X231139724Y-125890672D02*
X231100276Y-126469328D01*
D21*
X247650000Y-130970000D03*
D22*
X242570000Y-130970000D03*
X252730000Y-130970000D03*
D23*
X244650453Y-126970046D02*
X243839547Y-128429954D01*
X250189724Y-125890672D02*
X250150276Y-126469328D01*
D21*
X266700000Y-130970000D03*
D22*
X261620000Y-130970000D03*
X271780000Y-130970000D03*
D23*
X263700453Y-126970046D02*
X262889547Y-128429954D01*
X269239724Y-125890672D02*
X269200276Y-126469328D01*
D21*
X285750000Y-130970000D03*
D22*
X280670000Y-130970000D03*
X290830000Y-130970000D03*
D23*
X282750453Y-126970046D02*
X281939547Y-128429954D01*
X288289724Y-125890672D02*
X288250276Y-126469328D01*
D21*
X311944000Y-130969000D03*
D22*
X306864000Y-130969000D03*
X317024000Y-130969000D03*
D23*
X308944453Y-126969046D02*
X308133547Y-128428954D01*
X314483724Y-125889672D02*
X314444276Y-126468328D01*
D21*
X338138000Y-130969000D03*
D22*
X333058000Y-130969000D03*
X343218000Y-130969000D03*
D23*
X335138453Y-126969046D02*
X334327547Y-128428954D01*
X340677724Y-125889672D02*
X340638276Y-126468328D01*
D21*
X76200000Y-150019000D03*
D22*
X71120000Y-150019000D03*
X81280000Y-150019000D03*
D23*
X73200453Y-146019046D02*
X72389547Y-147478954D01*
X78739724Y-144939672D02*
X78700276Y-145518328D01*
D21*
X100012000Y-150019000D03*
D22*
X94932000Y-150019000D03*
X105092000Y-150019000D03*
D23*
X97012453Y-146019046D02*
X96201547Y-147478954D01*
X102551724Y-144939672D02*
X102512276Y-145518328D01*
D21*
X123824000Y-150019000D03*
D22*
X118744000Y-150019000D03*
X128904000Y-150019000D03*
D23*
X120824453Y-146019046D02*
X120013547Y-147478954D01*
X126363724Y-144939672D02*
X126324276Y-145518328D01*
D21*
X195262000Y-150019000D03*
D22*
X190182000Y-150019000D03*
X200342000Y-150019000D03*
D23*
X192262453Y-146019046D02*
X191451547Y-147478954D01*
X197801724Y-144939672D02*
X197762276Y-145518328D01*
D21*
X266700000Y-150019000D03*
D22*
X261620000Y-150019000D03*
X271780000Y-150019000D03*
D23*
X263700453Y-146019046D02*
X262889547Y-147478954D01*
X269239724Y-144939672D02*
X269200276Y-145518328D01*
D21*
X290512000Y-150019000D03*
D22*
X285432000Y-150019000D03*
X295592000Y-150019000D03*
D23*
X287512453Y-146019046D02*
X286701547Y-147478954D01*
X293051724Y-144939672D02*
X293012276Y-145518328D01*
D21*
X309562000Y-150019000D03*
D22*
X304482000Y-150019000D03*
X314642000Y-150019000D03*
D23*
X306562453Y-146019046D02*
X305751547Y-147478954D01*
X312101724Y-144939672D02*
X312062276Y-145518328D01*
D21*
X333375000Y-150019000D03*
D22*
X328295000Y-150019000D03*
X338455000Y-150019000D03*
D23*
X330375453Y-146019046D02*
X329564547Y-147478954D01*
X335914724Y-144939672D02*
X335875276Y-145518328D01*
D24*
X94409300Y-115248000D03*
X92708400Y-115248000D03*
X94409300Y-111448000D03*
X92707500Y-111448000D03*
D21*
X73831400Y-150019000D03*
D22*
X68751400Y-150019000D03*
X78911400Y-150019000D03*
D23*
X70831853Y-146019046D02*
X70020947Y-147478954D01*
X76371124Y-144939672D02*
X76331676Y-145518328D01*
D21*
X97631200Y-150019000D03*
D22*
X92551200Y-150019000D03*
X102711200Y-150019000D03*
D23*
X94631653Y-146019046D02*
X93820747Y-147478954D01*
X100170924Y-144939672D02*
X100131476Y-145518328D01*
D21*
X121444000Y-150019000D03*
D22*
X116364000Y-150019000D03*
X126524000Y-150019000D03*
D23*
X118444453Y-146019046D02*
X117633547Y-147478954D01*
X123983724Y-144939672D02*
X123944276Y-145518328D01*
D21*
X192875000Y-150019000D03*
D22*
X187795000Y-150019000D03*
X197955000Y-150019000D03*
D23*
X189875453Y-146019046D02*
X189064547Y-147478954D01*
X195414724Y-144939672D02*
X195375276Y-145518328D01*
D21*
X264306000Y-150019000D03*
D22*
X259226000Y-150019000D03*
X269386000Y-150019000D03*
D23*
X261306453Y-146019046D02*
X260495547Y-147478954D01*
X266845724Y-144939672D02*
X266806276Y-145518328D01*
D21*
X288119000Y-150019000D03*
D22*
X283039000Y-150019000D03*
X293199000Y-150019000D03*
D23*
X285119453Y-146019046D02*
X284308547Y-147478954D01*
X290658724Y-144939672D02*
X290619276Y-145518328D01*
D21*
X311931000Y-150019000D03*
D22*
X306851000Y-150019000D03*
X317011000Y-150019000D03*
D23*
X308931453Y-146019046D02*
X308120547Y-147478954D01*
X314470724Y-144939672D02*
X314431276Y-145518328D01*
D21*
X335744000Y-150019000D03*
D22*
X330664000Y-150019000D03*
X340824000Y-150019000D03*
D23*
X332744453Y-146019046D02*
X331933547Y-147478954D01*
X338283724Y-144939672D02*
X338244276Y-145518328D01*
D25*
X161777680Y-145968720D03*
X161777680Y-146469100D03*
X161777680Y-146969480D03*
X161777680Y-147467320D03*
X161777680Y-147967700D03*
X161777680Y-148468080D03*
X161777680Y-148965920D03*
X161777680Y-149466300D03*
X161777680Y-149966680D03*
X161777680Y-150464520D03*
X161777680Y-150964900D03*
X161777680Y-151465280D03*
D26*
X160228280Y-153014680D03*
X159727900Y-153014680D03*
X159227520Y-153014680D03*
X158729680Y-153014680D03*
X158229300Y-153014680D03*
X157728920Y-153014680D03*
X157231080Y-153014680D03*
X156730700Y-153014680D03*
X156230320Y-153014680D03*
X155732480Y-153014680D03*
X155232100Y-153014680D03*
X154731720Y-153014680D03*
D25*
X153182320Y-151465280D03*
X153182320Y-150964900D03*
X153182320Y-150464520D03*
X153182320Y-149966680D03*
X153182320Y-149466300D03*
X153182320Y-148965920D03*
X153182320Y-148468080D03*
X153182320Y-147967700D03*
X153182320Y-147467320D03*
X153182320Y-146969480D03*
X153182320Y-146469100D03*
X153182320Y-145968720D03*
D26*
X154731720Y-144419320D03*
X155232100Y-144419320D03*
X155732480Y-144419320D03*
X156230320Y-144419320D03*
X156730700Y-144419320D03*
X157231080Y-144419320D03*
X157728920Y-144419320D03*
X158229300Y-144419320D03*
X158729680Y-144419320D03*
X159227520Y-144419320D03*
X159727900Y-144419320D03*
X160228280Y-144419320D03*
D27*
X339598000Y-156692600D03*
X339598000Y-153192480D03*
X315849000Y-156692600D03*
X315849000Y-153192480D03*
X294386000Y-156692600D03*
X294386000Y-153192480D03*
X270637000Y-156692600D03*
X270637000Y-153192480D03*
X199263000Y-156692600D03*
X199263000Y-153192480D03*
X127762000Y-156692600D03*
X127762000Y-153192480D03*
X103886000Y-156692600D03*
X103886000Y-153192480D03*
X80137000Y-156692600D03*
X80137000Y-153192480D03*
X340638000Y-137642600D03*
X340638000Y-134142480D03*
X314444000Y-137642600D03*
X314444000Y-134142480D03*
X288290000Y-137642600D03*
X288290000Y-134142480D03*
X269240000Y-137642600D03*
X269240000Y-134142480D03*
X250190000Y-137642600D03*
X250190000Y-134142480D03*
X231140000Y-137642600D03*
X231140000Y-134142480D03*
X212090000Y-137642600D03*
X212090000Y-134142480D03*
X193040000Y-137642600D03*
X193040000Y-134142480D03*
X173990000Y-137642600D03*
X173990000Y-134142480D03*
X154940000Y-137642600D03*
X154940000Y-134142480D03*
X135890000Y-137642600D03*
X135890000Y-134142480D03*
X116840000Y-137642600D03*
X116840000Y-134142480D03*
X85843800Y-137642600D03*
X85843800Y-134142480D03*
X328731000Y-118592600D03*
X328731000Y-115092480D03*
X297815000Y-118592600D03*
X297815000Y-115092480D03*
X278765000Y-118592600D03*
X278765000Y-115092480D03*
X259715000Y-118592600D03*
X259715000Y-115092480D03*
X240665000Y-118592600D03*
X240665000Y-115092480D03*
X221615000Y-118592600D03*
X221615000Y-115092480D03*
X202565000Y-118592600D03*
X202565000Y-115092480D03*
X183515000Y-118592600D03*
X183515000Y-115092480D03*
X164465000Y-118592600D03*
X164465000Y-115092480D03*
X145415000Y-118592600D03*
X145415000Y-115092480D03*
X126365000Y-118592600D03*
X126365000Y-115092480D03*
X107315000Y-118592600D03*
X107315000Y-115092480D03*
X81082500Y-118592600D03*
X81082500Y-115092480D03*
X335875000Y-99542600D03*
X335875000Y-96042480D03*
X312102000Y-99542600D03*
X312102000Y-96042480D03*
X293052000Y-99542600D03*
X293052000Y-96042480D03*
X274002000Y-99542600D03*
X274002000Y-96042480D03*
X254952000Y-99542600D03*
X254952000Y-96042480D03*
X235902000Y-99542600D03*
X235902000Y-96042480D03*
X216852000Y-99542600D03*
X216852000Y-96042480D03*
X197802000Y-99542600D03*
X197802000Y-96042480D03*
X178752000Y-99542600D03*
X178752000Y-96042480D03*
X159702000Y-99542600D03*
X159702000Y-96042480D03*
X140652000Y-99542600D03*
X140652000Y-96042480D03*
X121602000Y-99542600D03*
X121602000Y-96042480D03*
X102552000Y-99542600D03*
X102552000Y-96042480D03*
X78740000Y-99542600D03*
X78740000Y-96042480D03*
X340678000Y-80492600D03*
X340678000Y-76992480D03*
X321628000Y-80492600D03*
X321628000Y-76992480D03*
X302578000Y-80492600D03*
X302578000Y-76992480D03*
X283528000Y-80492600D03*
X283528000Y-76992480D03*
X264478000Y-80492600D03*
X264478000Y-76992480D03*
X245428000Y-80492600D03*
X245428000Y-76992480D03*
X226378000Y-80492600D03*
X226378000Y-76992480D03*
X207328000Y-80492600D03*
X207328000Y-76992480D03*
X188278000Y-80492600D03*
X188278000Y-76992480D03*
X169228000Y-80492600D03*
X169228000Y-76992480D03*
X150178000Y-80492600D03*
X150178000Y-76992480D03*
X131128000Y-80492600D03*
X131128000Y-76992480D03*
X112078000Y-80492600D03*
X112078000Y-76992480D03*
X84455000Y-80492600D03*
X84455000Y-76992480D03*
X65405000Y-80492600D03*
X65405000Y-76992480D03*
D17*
X177546000Y-146431000D03*
X177546000Y-143891000D03*
D28*
X75565000Y-66928800D03*
X85415000Y-66928800D03*
D29*
X78290000Y-68828800D03*
X82690000Y-68828800D03*
D30*
X75565000Y-71028800D03*
X85415000Y-71028800D03*
D31*
X80490000Y-71678800D03*
X78890000Y-71678800D03*
X79690000Y-71678800D03*
X81290000Y-71678800D03*
X82090000Y-71678800D03*
M02*
