G04 #@! TF.FileFunction,Paste,Bot*
%FSLAX46Y46*%
G04 Gerber Fmt 4.6, Leading zero omitted, Abs format (unit mm)*
G04 Created by KiCad (PCBNEW (2015-02-28 BZR 5464)-product) date 5/23/2015 8:14:35 PM*
%MOMM*%
G01*
G04 APERTURE LIST*
%ADD10C,0.150000*%
%ADD11R,0.600000X0.650000*%
%ADD12R,0.650000X0.600000*%
%ADD13R,0.797560X0.797560*%
%ADD14R,1.100000X1.600000*%
%ADD15R,1.498600X0.248920*%
%ADD16R,0.248920X1.498600*%
%ADD17R,0.850900X1.000760*%
%ADD18R,2.050000X4.000000*%
%ADD19R,2.050000X3.700000*%
%ADD20R,0.500000X3.250000*%
G04 APERTURE END LIST*
D10*
D11*
X169900000Y-147400000D03*
X168900000Y-147400000D03*
X168900000Y-151600000D03*
X169900000Y-151600000D03*
X169900000Y-149500000D03*
X168900000Y-149500000D03*
D12*
X164338000Y-150249000D03*
X164338000Y-151249000D03*
D11*
X169900000Y-145300000D03*
X168900000Y-145300000D03*
D12*
X146668000Y-151038000D03*
X146668000Y-152038000D03*
D13*
X146668000Y-154344700D03*
X146668000Y-155843300D03*
D12*
X79565500Y-75350800D03*
X79565500Y-76350800D03*
X80825000Y-75350800D03*
X80825000Y-76350800D03*
D11*
X151178000Y-155856000D03*
X152178000Y-155856000D03*
D14*
X94409300Y-115248000D03*
X92708400Y-115248000D03*
X94409300Y-111448000D03*
X92707500Y-111448000D03*
D15*
X161777680Y-145968720D03*
X161777680Y-146469100D03*
X161777680Y-146969480D03*
X161777680Y-147467320D03*
X161777680Y-147967700D03*
X161777680Y-148468080D03*
X161777680Y-148965920D03*
X161777680Y-149466300D03*
X161777680Y-149966680D03*
X161777680Y-150464520D03*
X161777680Y-150964900D03*
X161777680Y-151465280D03*
D16*
X160228280Y-153014680D03*
X159727900Y-153014680D03*
X159227520Y-153014680D03*
X158729680Y-153014680D03*
X158229300Y-153014680D03*
X157728920Y-153014680D03*
X157231080Y-153014680D03*
X156730700Y-153014680D03*
X156230320Y-153014680D03*
X155732480Y-153014680D03*
X155232100Y-153014680D03*
X154731720Y-153014680D03*
D15*
X153182320Y-151465280D03*
X153182320Y-150964900D03*
X153182320Y-150464520D03*
X153182320Y-149966680D03*
X153182320Y-149466300D03*
X153182320Y-148965920D03*
X153182320Y-148468080D03*
X153182320Y-147967700D03*
X153182320Y-147467320D03*
X153182320Y-146969480D03*
X153182320Y-146469100D03*
X153182320Y-145968720D03*
D16*
X154731720Y-144419320D03*
X155232100Y-144419320D03*
X155732480Y-144419320D03*
X156230320Y-144419320D03*
X156730700Y-144419320D03*
X157231080Y-144419320D03*
X157728920Y-144419320D03*
X158229300Y-144419320D03*
X158729680Y-144419320D03*
X159227520Y-144419320D03*
X159727900Y-144419320D03*
X160228280Y-144419320D03*
D17*
X339598000Y-156692600D03*
X339598000Y-153192480D03*
X315849000Y-156692600D03*
X315849000Y-153192480D03*
X294386000Y-156692600D03*
X294386000Y-153192480D03*
X270637000Y-156692600D03*
X270637000Y-153192480D03*
X199263000Y-156692600D03*
X199263000Y-153192480D03*
X127762000Y-156692600D03*
X127762000Y-153192480D03*
X103886000Y-156692600D03*
X103886000Y-153192480D03*
X80137000Y-156692600D03*
X80137000Y-153192480D03*
X340638000Y-137642600D03*
X340638000Y-134142480D03*
X314444000Y-137642600D03*
X314444000Y-134142480D03*
X288290000Y-137642600D03*
X288290000Y-134142480D03*
X269240000Y-137642600D03*
X269240000Y-134142480D03*
X250190000Y-137642600D03*
X250190000Y-134142480D03*
X231140000Y-137642600D03*
X231140000Y-134142480D03*
X212090000Y-137642600D03*
X212090000Y-134142480D03*
X193040000Y-137642600D03*
X193040000Y-134142480D03*
X173990000Y-137642600D03*
X173990000Y-134142480D03*
X154940000Y-137642600D03*
X154940000Y-134142480D03*
X135890000Y-137642600D03*
X135890000Y-134142480D03*
X116840000Y-137642600D03*
X116840000Y-134142480D03*
X85843800Y-137642600D03*
X85843800Y-134142480D03*
X328731000Y-118592600D03*
X328731000Y-115092480D03*
X297815000Y-118592600D03*
X297815000Y-115092480D03*
X278765000Y-118592600D03*
X278765000Y-115092480D03*
X259715000Y-118592600D03*
X259715000Y-115092480D03*
X240665000Y-118592600D03*
X240665000Y-115092480D03*
X221615000Y-118592600D03*
X221615000Y-115092480D03*
X202565000Y-118592600D03*
X202565000Y-115092480D03*
X183515000Y-118592600D03*
X183515000Y-115092480D03*
X164465000Y-118592600D03*
X164465000Y-115092480D03*
X145415000Y-118592600D03*
X145415000Y-115092480D03*
X126365000Y-118592600D03*
X126365000Y-115092480D03*
X107315000Y-118592600D03*
X107315000Y-115092480D03*
X81082500Y-118592600D03*
X81082500Y-115092480D03*
X335875000Y-99542600D03*
X335875000Y-96042480D03*
X312102000Y-99542600D03*
X312102000Y-96042480D03*
X293052000Y-99542600D03*
X293052000Y-96042480D03*
X274002000Y-99542600D03*
X274002000Y-96042480D03*
X254952000Y-99542600D03*
X254952000Y-96042480D03*
X235902000Y-99542600D03*
X235902000Y-96042480D03*
X216852000Y-99542600D03*
X216852000Y-96042480D03*
X197802000Y-99542600D03*
X197802000Y-96042480D03*
X178752000Y-99542600D03*
X178752000Y-96042480D03*
X159702000Y-99542600D03*
X159702000Y-96042480D03*
X140652000Y-99542600D03*
X140652000Y-96042480D03*
X121602000Y-99542600D03*
X121602000Y-96042480D03*
X102552000Y-99542600D03*
X102552000Y-96042480D03*
X78740000Y-99542600D03*
X78740000Y-96042480D03*
X340678000Y-80492600D03*
X340678000Y-76992480D03*
X321628000Y-80492600D03*
X321628000Y-76992480D03*
X302578000Y-80492600D03*
X302578000Y-76992480D03*
X283528000Y-80492600D03*
X283528000Y-76992480D03*
X264478000Y-80492600D03*
X264478000Y-76992480D03*
X245428000Y-80492600D03*
X245428000Y-76992480D03*
X226378000Y-80492600D03*
X226378000Y-76992480D03*
X207328000Y-80492600D03*
X207328000Y-76992480D03*
X188278000Y-80492600D03*
X188278000Y-76992480D03*
X169228000Y-80492600D03*
X169228000Y-76992480D03*
X150178000Y-80492600D03*
X150178000Y-76992480D03*
X131128000Y-80492600D03*
X131128000Y-76992480D03*
X112078000Y-80492600D03*
X112078000Y-76992480D03*
X84455000Y-80492600D03*
X84455000Y-76992480D03*
X65405000Y-80492600D03*
X65405000Y-76992480D03*
D18*
X75565000Y-66928800D03*
X85415000Y-66928800D03*
D19*
X75565000Y-71028800D03*
X85415000Y-71028800D03*
D20*
X80490000Y-71678800D03*
X78890000Y-71678800D03*
X79690000Y-71678800D03*
X81290000Y-71678800D03*
X82090000Y-71678800D03*
M02*
