G04 (created by PCBNEW (2013-07-07 BZR 4022)-stable) date 8/30/2014 2:43:21 AM*
%MOIN*%
G04 Gerber Fmt 3.4, Leading zero omitted, Abs format*
%FSLAX34Y34*%
G01*
G70*
G90*
G04 APERTURE LIST*
%ADD10C,0.00590551*%
%ADD11C,0.012*%
%ADD12C,0.015*%
%ADD13C,0.0059*%
%ADD14C,0.008*%
%ADD15C,0.0078*%
%ADD16C,0.0087*%
%ADD17C,0.0001*%
%ADD18C,0.0035*%
%ADD19O,0.4017X0.2049*%
%ADD20C,0.2836*%
%ADD21C,0.2049*%
%ADD22R,0.0513071X0.0709921*%
%ADD23C,0.082*%
%ADD24R,0.031622X0.0335906*%
%ADD25R,0.0335906X0.031622*%
%ADD26R,0.067X0.0178*%
%ADD27R,0.0178X0.067*%
%ADD28R,0.0394X0.0394*%
%ADD29R,0.0415X0.0474*%
%ADD30R,0.0887087X0.16548*%
%ADD31C,0.0434331*%
%ADD32R,0.0887087X0.153669*%
%ADD33R,0.027685X0.135953*%
%ADD34C,0.165*%
%ADD35C,0.075*%
%ADD36C,0.106425*%
G04 APERTURE END LIST*
G54D10*
G54D11*
X85480Y-62013D02*
X85680Y-61632D01*
X85822Y-62013D02*
X85822Y-61213D01*
X85594Y-61213D01*
X85537Y-61251D01*
X85508Y-61290D01*
X85480Y-61366D01*
X85480Y-61480D01*
X85508Y-61556D01*
X85537Y-61594D01*
X85594Y-61632D01*
X85822Y-61632D01*
X84994Y-61975D02*
X85051Y-62013D01*
X85165Y-62013D01*
X85222Y-61975D01*
X85251Y-61899D01*
X85251Y-61594D01*
X85222Y-61518D01*
X85165Y-61480D01*
X85051Y-61480D01*
X84994Y-61518D01*
X84965Y-61594D01*
X84965Y-61670D01*
X85251Y-61747D01*
X84765Y-61480D02*
X84622Y-62013D01*
X84480Y-61480D01*
X83480Y-62013D02*
X83822Y-62013D01*
X83651Y-62013D02*
X83651Y-61213D01*
X83708Y-61328D01*
X83765Y-61404D01*
X83822Y-61442D01*
X83222Y-61937D02*
X83194Y-61975D01*
X83222Y-62013D01*
X83251Y-61975D01*
X83222Y-61937D01*
X83222Y-62013D01*
X82822Y-61213D02*
X82765Y-61213D01*
X82708Y-61251D01*
X82680Y-61290D01*
X82651Y-61366D01*
X82622Y-61518D01*
X82622Y-61709D01*
X82651Y-61861D01*
X82680Y-61937D01*
X82708Y-61975D01*
X82765Y-62013D01*
X82822Y-62013D01*
X82880Y-61975D01*
X82908Y-61937D01*
X82937Y-61861D01*
X82965Y-61709D01*
X82965Y-61518D01*
X82937Y-61366D01*
X82908Y-61290D01*
X82880Y-61251D01*
X82822Y-61213D01*
X82051Y-62013D02*
X82394Y-62013D01*
X82222Y-62013D02*
X82222Y-61213D01*
X82280Y-61328D01*
X82337Y-61404D01*
X82394Y-61442D01*
X81794Y-62013D02*
X81794Y-61213D01*
X81794Y-61518D02*
X81737Y-61480D01*
X81622Y-61480D01*
X81565Y-61518D01*
X81537Y-61556D01*
X81508Y-61632D01*
X81508Y-61861D01*
X81537Y-61937D01*
X81565Y-61975D01*
X81622Y-62013D01*
X81737Y-62013D01*
X81794Y-61975D01*
G54D12*
X35025Y-46562D02*
X37525Y-46562D01*
X35025Y-42562D02*
X37525Y-42562D01*
X37525Y-42562D02*
X37525Y-46562D01*
X35025Y-42562D02*
X35025Y-46562D01*
G54D13*
X37484Y-45775D02*
X37484Y-43475D01*
X37484Y-43475D02*
X36184Y-43475D01*
X36184Y-43475D02*
X36184Y-45775D01*
X36184Y-45775D02*
X37484Y-45775D01*
X63220Y-59849D02*
X63299Y-59770D01*
X63299Y-59770D02*
X63299Y-57330D01*
X63299Y-57330D02*
X63220Y-57251D01*
X63220Y-57251D02*
X60780Y-57251D01*
X60780Y-57251D02*
X60701Y-57330D01*
X60780Y-59849D02*
X63220Y-59849D01*
X60701Y-57330D02*
X60701Y-59770D01*
X63220Y-59889D02*
X63339Y-59770D01*
X60661Y-59770D02*
X60780Y-59889D01*
X60780Y-57211D02*
X60661Y-57330D01*
X63220Y-57211D02*
X63339Y-57330D01*
G54D14*
X63733Y-57092D02*
G75*
G03X63733Y-57092I-41J0D01*
G74*
G01*
G54D15*
X62999Y-57625D02*
G75*
G03X62999Y-57625I-55J0D01*
G74*
G01*
G54D13*
X57683Y-61000D02*
X57743Y-61120D01*
X57743Y-61120D02*
X57803Y-61000D01*
X57803Y-61000D02*
X57683Y-61000D01*
X57493Y-60535D02*
X57493Y-61585D01*
X57493Y-61585D02*
X57993Y-61585D01*
X57993Y-61585D02*
X57993Y-60535D01*
X57993Y-60535D02*
X57493Y-60535D01*
G54D16*
X28971Y-32776D02*
X29641Y-32776D01*
X28971Y-33071D02*
X29070Y-33071D01*
X29641Y-33071D02*
X29542Y-33071D01*
X29641Y-31929D02*
X29542Y-31929D01*
X28971Y-31929D02*
X29070Y-31929D01*
X28971Y-31929D02*
X28971Y-33071D01*
X29641Y-31929D02*
X29641Y-33071D01*
X83165Y-53776D02*
X83835Y-53776D01*
X83165Y-54071D02*
X83264Y-54071D01*
X83835Y-54071D02*
X83736Y-54071D01*
X83835Y-52929D02*
X83736Y-52929D01*
X83165Y-52929D02*
X83264Y-52929D01*
X83165Y-52929D02*
X83165Y-54071D01*
X83835Y-52929D02*
X83835Y-54071D01*
X40565Y-61276D02*
X41235Y-61276D01*
X40565Y-61571D02*
X40664Y-61571D01*
X41235Y-61571D02*
X41136Y-61571D01*
X41235Y-60429D02*
X41136Y-60429D01*
X40565Y-60429D02*
X40664Y-60429D01*
X40565Y-60429D02*
X40565Y-61571D01*
X41235Y-60429D02*
X41235Y-61571D01*
X31215Y-61276D02*
X31885Y-61276D01*
X31215Y-61571D02*
X31314Y-61571D01*
X31885Y-61571D02*
X31786Y-61571D01*
X31885Y-60429D02*
X31786Y-60429D01*
X31215Y-60429D02*
X31314Y-60429D01*
X31215Y-60429D02*
X31215Y-61571D01*
X31885Y-60429D02*
X31885Y-61571D01*
X133774Y-53776D02*
X134444Y-53776D01*
X133774Y-54071D02*
X133873Y-54071D01*
X134444Y-54071D02*
X134345Y-54071D01*
X134444Y-52929D02*
X134345Y-52929D01*
X133774Y-52929D02*
X133873Y-52929D01*
X133774Y-52929D02*
X133774Y-54071D01*
X134444Y-52929D02*
X134444Y-54071D01*
X123461Y-53776D02*
X124131Y-53776D01*
X123461Y-54071D02*
X123560Y-54071D01*
X124131Y-54071D02*
X124032Y-54071D01*
X124131Y-52929D02*
X124032Y-52929D01*
X123461Y-52929D02*
X123560Y-52929D01*
X123461Y-52929D02*
X123461Y-54071D01*
X124131Y-52929D02*
X124131Y-54071D01*
X113165Y-53776D02*
X113835Y-53776D01*
X113165Y-54071D02*
X113264Y-54071D01*
X113835Y-54071D02*
X113736Y-54071D01*
X113835Y-52929D02*
X113736Y-52929D01*
X113165Y-52929D02*
X113264Y-52929D01*
X113165Y-52929D02*
X113165Y-54071D01*
X113835Y-52929D02*
X113835Y-54071D01*
X105665Y-53776D02*
X106335Y-53776D01*
X105665Y-54071D02*
X105764Y-54071D01*
X106335Y-54071D02*
X106236Y-54071D01*
X106335Y-52929D02*
X106236Y-52929D01*
X105665Y-52929D02*
X105764Y-52929D01*
X105665Y-52929D02*
X105665Y-54071D01*
X106335Y-52929D02*
X106335Y-54071D01*
X98165Y-53776D02*
X98835Y-53776D01*
X98165Y-54071D02*
X98264Y-54071D01*
X98835Y-54071D02*
X98736Y-54071D01*
X98835Y-52929D02*
X98736Y-52929D01*
X98165Y-52929D02*
X98264Y-52929D01*
X98165Y-52929D02*
X98165Y-54071D01*
X98835Y-52929D02*
X98835Y-54071D01*
X90665Y-53776D02*
X91335Y-53776D01*
X90665Y-54071D02*
X90764Y-54071D01*
X91335Y-54071D02*
X91236Y-54071D01*
X91335Y-52929D02*
X91236Y-52929D01*
X90665Y-52929D02*
X90764Y-52929D01*
X90665Y-52929D02*
X90665Y-54071D01*
X91335Y-52929D02*
X91335Y-54071D01*
X115565Y-61276D02*
X116235Y-61276D01*
X115565Y-61571D02*
X115664Y-61571D01*
X116235Y-61571D02*
X116136Y-61571D01*
X116235Y-60429D02*
X116136Y-60429D01*
X115565Y-60429D02*
X115664Y-60429D01*
X115565Y-60429D02*
X115565Y-61571D01*
X116235Y-60429D02*
X116235Y-61571D01*
X75665Y-53776D02*
X76335Y-53776D01*
X75665Y-54071D02*
X75764Y-54071D01*
X76335Y-54071D02*
X76236Y-54071D01*
X76335Y-52929D02*
X76236Y-52929D01*
X75665Y-52929D02*
X75764Y-52929D01*
X75665Y-52929D02*
X75665Y-54071D01*
X76335Y-52929D02*
X76335Y-54071D01*
X68165Y-53776D02*
X68835Y-53776D01*
X68165Y-54071D02*
X68264Y-54071D01*
X68835Y-54071D02*
X68736Y-54071D01*
X68835Y-52929D02*
X68736Y-52929D01*
X68165Y-52929D02*
X68264Y-52929D01*
X68165Y-52929D02*
X68165Y-54071D01*
X68835Y-52929D02*
X68835Y-54071D01*
X60665Y-53776D02*
X61335Y-53776D01*
X60665Y-54071D02*
X60764Y-54071D01*
X61335Y-54071D02*
X61236Y-54071D01*
X61335Y-52929D02*
X61236Y-52929D01*
X60665Y-52929D02*
X60764Y-52929D01*
X60665Y-52929D02*
X60665Y-54071D01*
X61335Y-52929D02*
X61335Y-54071D01*
X53165Y-53776D02*
X53835Y-53776D01*
X53165Y-54071D02*
X53264Y-54071D01*
X53835Y-54071D02*
X53736Y-54071D01*
X53835Y-52929D02*
X53736Y-52929D01*
X53165Y-52929D02*
X53264Y-52929D01*
X53165Y-52929D02*
X53165Y-54071D01*
X53835Y-52929D02*
X53835Y-54071D01*
X49965Y-61276D02*
X50635Y-61276D01*
X49965Y-61571D02*
X50064Y-61571D01*
X50635Y-61571D02*
X50536Y-61571D01*
X50635Y-60429D02*
X50536Y-60429D01*
X49965Y-60429D02*
X50064Y-60429D01*
X49965Y-60429D02*
X49965Y-61571D01*
X50635Y-60429D02*
X50635Y-61571D01*
X78115Y-61276D02*
X78785Y-61276D01*
X78115Y-61571D02*
X78214Y-61571D01*
X78785Y-61571D02*
X78686Y-61571D01*
X78785Y-60429D02*
X78686Y-60429D01*
X78115Y-60429D02*
X78214Y-60429D01*
X78115Y-60429D02*
X78115Y-61571D01*
X78785Y-60429D02*
X78785Y-61571D01*
X106215Y-61276D02*
X106885Y-61276D01*
X106215Y-61571D02*
X106314Y-61571D01*
X106885Y-61571D02*
X106786Y-61571D01*
X106885Y-60429D02*
X106786Y-60429D01*
X106215Y-60429D02*
X106314Y-60429D01*
X106215Y-60429D02*
X106215Y-61571D01*
X106885Y-60429D02*
X106885Y-61571D01*
X73790Y-31276D02*
X74460Y-31276D01*
X73790Y-31571D02*
X73889Y-31571D01*
X74460Y-31571D02*
X74361Y-31571D01*
X74460Y-30429D02*
X74361Y-30429D01*
X73790Y-30429D02*
X73889Y-30429D01*
X73790Y-30429D02*
X73790Y-31571D01*
X74460Y-30429D02*
X74460Y-31571D01*
X33461Y-53776D02*
X34131Y-53776D01*
X33461Y-54071D02*
X33560Y-54071D01*
X34131Y-54071D02*
X34032Y-54071D01*
X34131Y-52929D02*
X34032Y-52929D01*
X33461Y-52929D02*
X33560Y-52929D01*
X33461Y-52929D02*
X33461Y-54071D01*
X34131Y-52929D02*
X34131Y-54071D01*
X124015Y-61276D02*
X124685Y-61276D01*
X124015Y-61571D02*
X124114Y-61571D01*
X124685Y-61571D02*
X124586Y-61571D01*
X124685Y-60429D02*
X124586Y-60429D01*
X124015Y-60429D02*
X124114Y-60429D01*
X124015Y-60429D02*
X124015Y-61571D01*
X124685Y-60429D02*
X124685Y-61571D01*
X133365Y-61276D02*
X134035Y-61276D01*
X133365Y-61571D02*
X133464Y-61571D01*
X134035Y-61571D02*
X133936Y-61571D01*
X134035Y-60429D02*
X133936Y-60429D01*
X133365Y-60429D02*
X133464Y-60429D01*
X133365Y-60429D02*
X133365Y-61571D01*
X134035Y-60429D02*
X134035Y-61571D01*
X66290Y-31276D02*
X66960Y-31276D01*
X66290Y-31571D02*
X66389Y-31571D01*
X66960Y-31571D02*
X66861Y-31571D01*
X66960Y-30429D02*
X66861Y-30429D01*
X66290Y-30429D02*
X66389Y-30429D01*
X66290Y-30429D02*
X66290Y-31571D01*
X66960Y-30429D02*
X66960Y-31571D01*
X58790Y-31276D02*
X59460Y-31276D01*
X58790Y-31571D02*
X58889Y-31571D01*
X59460Y-31571D02*
X59361Y-31571D01*
X59460Y-30429D02*
X59361Y-30429D01*
X58790Y-30429D02*
X58889Y-30429D01*
X58790Y-30429D02*
X58790Y-31571D01*
X59460Y-30429D02*
X59460Y-31571D01*
X51290Y-31276D02*
X51960Y-31276D01*
X51290Y-31571D02*
X51389Y-31571D01*
X51960Y-31571D02*
X51861Y-31571D01*
X51960Y-30429D02*
X51861Y-30429D01*
X51290Y-30429D02*
X51389Y-30429D01*
X51290Y-30429D02*
X51290Y-31571D01*
X51960Y-30429D02*
X51960Y-31571D01*
X43790Y-31276D02*
X44460Y-31276D01*
X43790Y-31571D02*
X43889Y-31571D01*
X44460Y-31571D02*
X44361Y-31571D01*
X44460Y-30429D02*
X44361Y-30429D01*
X43790Y-30429D02*
X43889Y-30429D01*
X43790Y-30429D02*
X43790Y-31571D01*
X44460Y-30429D02*
X44460Y-31571D01*
X36471Y-32776D02*
X37141Y-32776D01*
X36471Y-33071D02*
X36570Y-33071D01*
X37141Y-33071D02*
X37042Y-33071D01*
X37141Y-31929D02*
X37042Y-31929D01*
X36471Y-31929D02*
X36570Y-31929D01*
X36471Y-31929D02*
X36471Y-33071D01*
X37141Y-31929D02*
X37141Y-33071D01*
X47539Y-38776D02*
X48209Y-38776D01*
X47539Y-39071D02*
X47638Y-39071D01*
X48209Y-39071D02*
X48110Y-39071D01*
X48209Y-37929D02*
X48110Y-37929D01*
X47539Y-37929D02*
X47638Y-37929D01*
X47539Y-37929D02*
X47539Y-39071D01*
X48209Y-37929D02*
X48209Y-39071D01*
X107539Y-38776D02*
X108209Y-38776D01*
X107539Y-39071D02*
X107638Y-39071D01*
X108209Y-39071D02*
X108110Y-39071D01*
X108209Y-37929D02*
X108110Y-37929D01*
X107539Y-37929D02*
X107638Y-37929D01*
X107539Y-37929D02*
X107539Y-39071D01*
X108209Y-37929D02*
X108209Y-39071D01*
X100039Y-38776D02*
X100709Y-38776D01*
X100039Y-39071D02*
X100138Y-39071D01*
X100709Y-39071D02*
X100610Y-39071D01*
X100709Y-37929D02*
X100610Y-37929D01*
X100039Y-37929D02*
X100138Y-37929D01*
X100039Y-37929D02*
X100039Y-39071D01*
X100709Y-37929D02*
X100709Y-39071D01*
X92539Y-38776D02*
X93209Y-38776D01*
X92539Y-39071D02*
X92638Y-39071D01*
X93209Y-39071D02*
X93110Y-39071D01*
X93209Y-37929D02*
X93110Y-37929D01*
X92539Y-37929D02*
X92638Y-37929D01*
X92539Y-37929D02*
X92539Y-39071D01*
X93209Y-37929D02*
X93209Y-39071D01*
X85039Y-38776D02*
X85709Y-38776D01*
X85039Y-39071D02*
X85138Y-39071D01*
X85709Y-39071D02*
X85610Y-39071D01*
X85709Y-37929D02*
X85610Y-37929D01*
X85039Y-37929D02*
X85138Y-37929D01*
X85039Y-37929D02*
X85039Y-39071D01*
X85709Y-37929D02*
X85709Y-39071D01*
X77539Y-38776D02*
X78209Y-38776D01*
X77539Y-39071D02*
X77638Y-39071D01*
X78209Y-39071D02*
X78110Y-39071D01*
X78209Y-37929D02*
X78110Y-37929D01*
X77539Y-37929D02*
X77638Y-37929D01*
X77539Y-37929D02*
X77539Y-39071D01*
X78209Y-37929D02*
X78209Y-39071D01*
X70039Y-38776D02*
X70709Y-38776D01*
X70039Y-39071D02*
X70138Y-39071D01*
X70709Y-39071D02*
X70610Y-39071D01*
X70709Y-37929D02*
X70610Y-37929D01*
X70039Y-37929D02*
X70138Y-37929D01*
X70039Y-37929D02*
X70039Y-39071D01*
X70709Y-37929D02*
X70709Y-39071D01*
X62539Y-38776D02*
X63209Y-38776D01*
X62539Y-39071D02*
X62638Y-39071D01*
X63209Y-39071D02*
X63110Y-39071D01*
X63209Y-37929D02*
X63110Y-37929D01*
X62539Y-37929D02*
X62638Y-37929D01*
X62539Y-37929D02*
X62539Y-39071D01*
X63209Y-37929D02*
X63209Y-39071D01*
X55039Y-38776D02*
X55709Y-38776D01*
X55039Y-39071D02*
X55138Y-39071D01*
X55709Y-39071D02*
X55610Y-39071D01*
X55709Y-37929D02*
X55610Y-37929D01*
X55039Y-37929D02*
X55138Y-37929D01*
X55039Y-37929D02*
X55039Y-39071D01*
X55709Y-37929D02*
X55709Y-39071D01*
X115039Y-38776D02*
X115709Y-38776D01*
X115039Y-39071D02*
X115138Y-39071D01*
X115709Y-39071D02*
X115610Y-39071D01*
X115709Y-37929D02*
X115610Y-37929D01*
X115039Y-37929D02*
X115138Y-37929D01*
X115039Y-37929D02*
X115039Y-39071D01*
X115709Y-37929D02*
X115709Y-39071D01*
X40039Y-38776D02*
X40709Y-38776D01*
X40039Y-39071D02*
X40138Y-39071D01*
X40709Y-39071D02*
X40610Y-39071D01*
X40709Y-37929D02*
X40610Y-37929D01*
X40039Y-37929D02*
X40138Y-37929D01*
X40039Y-37929D02*
X40039Y-39071D01*
X40709Y-37929D02*
X40709Y-39071D01*
X30665Y-38776D02*
X31335Y-38776D01*
X30665Y-39071D02*
X30764Y-39071D01*
X31335Y-39071D02*
X31236Y-39071D01*
X31335Y-37929D02*
X31236Y-37929D01*
X30665Y-37929D02*
X30764Y-37929D01*
X30665Y-37929D02*
X30665Y-39071D01*
X31335Y-37929D02*
X31335Y-39071D01*
X126290Y-31276D02*
X126960Y-31276D01*
X126290Y-31571D02*
X126389Y-31571D01*
X126960Y-31571D02*
X126861Y-31571D01*
X126960Y-30429D02*
X126861Y-30429D01*
X126290Y-30429D02*
X126389Y-30429D01*
X126290Y-30429D02*
X126290Y-31571D01*
X126960Y-30429D02*
X126960Y-31571D01*
X118790Y-31276D02*
X119460Y-31276D01*
X118790Y-31571D02*
X118889Y-31571D01*
X119460Y-31571D02*
X119361Y-31571D01*
X119460Y-30429D02*
X119361Y-30429D01*
X118790Y-30429D02*
X118889Y-30429D01*
X118790Y-30429D02*
X118790Y-31571D01*
X119460Y-30429D02*
X119460Y-31571D01*
X111290Y-31276D02*
X111960Y-31276D01*
X111290Y-31571D02*
X111389Y-31571D01*
X111960Y-31571D02*
X111861Y-31571D01*
X111960Y-30429D02*
X111861Y-30429D01*
X111290Y-30429D02*
X111389Y-30429D01*
X111290Y-30429D02*
X111290Y-31571D01*
X111960Y-30429D02*
X111960Y-31571D01*
X103790Y-31276D02*
X104460Y-31276D01*
X103790Y-31571D02*
X103889Y-31571D01*
X104460Y-31571D02*
X104361Y-31571D01*
X104460Y-30429D02*
X104361Y-30429D01*
X103790Y-30429D02*
X103889Y-30429D01*
X103790Y-30429D02*
X103790Y-31571D01*
X104460Y-30429D02*
X104460Y-31571D01*
X96290Y-31276D02*
X96960Y-31276D01*
X96290Y-31571D02*
X96389Y-31571D01*
X96960Y-31571D02*
X96861Y-31571D01*
X96960Y-30429D02*
X96861Y-30429D01*
X96290Y-30429D02*
X96389Y-30429D01*
X96290Y-30429D02*
X96290Y-31571D01*
X96960Y-30429D02*
X96960Y-31571D01*
X88790Y-31276D02*
X89460Y-31276D01*
X88790Y-31571D02*
X88889Y-31571D01*
X89460Y-31571D02*
X89361Y-31571D01*
X89460Y-30429D02*
X89361Y-30429D01*
X88790Y-30429D02*
X88889Y-30429D01*
X88790Y-30429D02*
X88790Y-31571D01*
X89460Y-30429D02*
X89460Y-31571D01*
X71915Y-46276D02*
X72585Y-46276D01*
X71915Y-46571D02*
X72014Y-46571D01*
X72585Y-46571D02*
X72486Y-46571D01*
X72585Y-45429D02*
X72486Y-45429D01*
X71915Y-45429D02*
X72014Y-45429D01*
X71915Y-45429D02*
X71915Y-46571D01*
X72585Y-45429D02*
X72585Y-46571D01*
X81290Y-31276D02*
X81960Y-31276D01*
X81290Y-31571D02*
X81389Y-31571D01*
X81960Y-31571D02*
X81861Y-31571D01*
X81960Y-30429D02*
X81861Y-30429D01*
X81290Y-30429D02*
X81389Y-30429D01*
X81290Y-30429D02*
X81290Y-31571D01*
X81960Y-30429D02*
X81960Y-31571D01*
X129086Y-46276D02*
X129756Y-46276D01*
X129086Y-46571D02*
X129185Y-46571D01*
X129756Y-46571D02*
X129657Y-46571D01*
X129756Y-45429D02*
X129657Y-45429D01*
X129086Y-45429D02*
X129185Y-45429D01*
X129086Y-45429D02*
X129086Y-46571D01*
X129756Y-45429D02*
X129756Y-46571D01*
X116915Y-46276D02*
X117585Y-46276D01*
X116915Y-46571D02*
X117014Y-46571D01*
X117585Y-46571D02*
X117486Y-46571D01*
X117585Y-45429D02*
X117486Y-45429D01*
X116915Y-45429D02*
X117014Y-45429D01*
X116915Y-45429D02*
X116915Y-46571D01*
X117585Y-45429D02*
X117585Y-46571D01*
X109415Y-46276D02*
X110085Y-46276D01*
X109415Y-46571D02*
X109514Y-46571D01*
X110085Y-46571D02*
X109986Y-46571D01*
X110085Y-45429D02*
X109986Y-45429D01*
X109415Y-45429D02*
X109514Y-45429D01*
X109415Y-45429D02*
X109415Y-46571D01*
X110085Y-45429D02*
X110085Y-46571D01*
X101915Y-46276D02*
X102585Y-46276D01*
X101915Y-46571D02*
X102014Y-46571D01*
X102585Y-46571D02*
X102486Y-46571D01*
X102585Y-45429D02*
X102486Y-45429D01*
X101915Y-45429D02*
X102014Y-45429D01*
X101915Y-45429D02*
X101915Y-46571D01*
X102585Y-45429D02*
X102585Y-46571D01*
X94415Y-46276D02*
X95085Y-46276D01*
X94415Y-46571D02*
X94514Y-46571D01*
X95085Y-46571D02*
X94986Y-46571D01*
X95085Y-45429D02*
X94986Y-45429D01*
X94415Y-45429D02*
X94514Y-45429D01*
X94415Y-45429D02*
X94415Y-46571D01*
X95085Y-45429D02*
X95085Y-46571D01*
X86915Y-46276D02*
X87585Y-46276D01*
X86915Y-46571D02*
X87014Y-46571D01*
X87585Y-46571D02*
X87486Y-46571D01*
X87585Y-45429D02*
X87486Y-45429D01*
X86915Y-45429D02*
X87014Y-45429D01*
X86915Y-45429D02*
X86915Y-46571D01*
X87585Y-45429D02*
X87585Y-46571D01*
X79415Y-46276D02*
X80085Y-46276D01*
X79415Y-46571D02*
X79514Y-46571D01*
X80085Y-46571D02*
X79986Y-46571D01*
X80085Y-45429D02*
X79986Y-45429D01*
X79415Y-45429D02*
X79514Y-45429D01*
X79415Y-45429D02*
X79415Y-46571D01*
X80085Y-45429D02*
X80085Y-46571D01*
X45665Y-53776D02*
X46335Y-53776D01*
X45665Y-54071D02*
X45764Y-54071D01*
X46335Y-54071D02*
X46236Y-54071D01*
X46335Y-52929D02*
X46236Y-52929D01*
X45665Y-52929D02*
X45764Y-52929D01*
X45665Y-52929D02*
X45665Y-54071D01*
X46335Y-52929D02*
X46335Y-54071D01*
X64415Y-46276D02*
X65085Y-46276D01*
X64415Y-46571D02*
X64514Y-46571D01*
X65085Y-46571D02*
X64986Y-46571D01*
X65085Y-45429D02*
X64986Y-45429D01*
X64415Y-45429D02*
X64514Y-45429D01*
X64415Y-45429D02*
X64415Y-46571D01*
X65085Y-45429D02*
X65085Y-46571D01*
X56915Y-46276D02*
X57585Y-46276D01*
X56915Y-46571D02*
X57014Y-46571D01*
X57585Y-46571D02*
X57486Y-46571D01*
X57585Y-45429D02*
X57486Y-45429D01*
X56915Y-45429D02*
X57014Y-45429D01*
X56915Y-45429D02*
X56915Y-46571D01*
X57585Y-45429D02*
X57585Y-46571D01*
X49415Y-46276D02*
X50085Y-46276D01*
X49415Y-46571D02*
X49514Y-46571D01*
X50085Y-46571D02*
X49986Y-46571D01*
X50085Y-45429D02*
X49986Y-45429D01*
X49415Y-45429D02*
X49514Y-45429D01*
X49415Y-45429D02*
X49415Y-46571D01*
X50085Y-45429D02*
X50085Y-46571D01*
X41915Y-46276D02*
X42585Y-46276D01*
X41915Y-46571D02*
X42014Y-46571D01*
X42585Y-46571D02*
X42486Y-46571D01*
X42585Y-45429D02*
X42486Y-45429D01*
X41915Y-45429D02*
X42014Y-45429D01*
X41915Y-45429D02*
X41915Y-46571D01*
X42585Y-45429D02*
X42585Y-46571D01*
X31587Y-46276D02*
X32257Y-46276D01*
X31587Y-46571D02*
X31686Y-46571D01*
X32257Y-46571D02*
X32158Y-46571D01*
X32257Y-45429D02*
X32158Y-45429D01*
X31587Y-45429D02*
X31686Y-45429D01*
X31587Y-45429D02*
X31587Y-46571D01*
X32257Y-45429D02*
X32257Y-46571D01*
X131899Y-38776D02*
X132569Y-38776D01*
X131899Y-39071D02*
X131998Y-39071D01*
X132569Y-39071D02*
X132470Y-39071D01*
X132569Y-37929D02*
X132470Y-37929D01*
X131899Y-37929D02*
X131998Y-37929D01*
X131899Y-37929D02*
X131899Y-39071D01*
X132569Y-37929D02*
X132569Y-39071D01*
X122539Y-38776D02*
X123209Y-38776D01*
X122539Y-39071D02*
X122638Y-39071D01*
X123209Y-39071D02*
X123110Y-39071D01*
X123209Y-37929D02*
X123110Y-37929D01*
X122539Y-37929D02*
X122638Y-37929D01*
X122539Y-37929D02*
X122539Y-39071D01*
X123209Y-37929D02*
X123209Y-39071D01*
X133790Y-31276D02*
X134460Y-31276D01*
X133790Y-31571D02*
X133889Y-31571D01*
X134460Y-31571D02*
X134361Y-31571D01*
X134460Y-30429D02*
X134361Y-30429D01*
X133790Y-30429D02*
X133889Y-30429D01*
X133790Y-30429D02*
X133790Y-31571D01*
X134460Y-30429D02*
X134460Y-31571D01*
G54D17*
G36*
X88142Y-59624D02*
X88184Y-59868D01*
X88269Y-60093D01*
X88349Y-60225D01*
X88498Y-60376D01*
X88534Y-60396D01*
X88534Y-59508D01*
X88562Y-59276D01*
X88646Y-59081D01*
X88764Y-58938D01*
X88833Y-58881D01*
X88900Y-58851D01*
X88991Y-58839D01*
X89077Y-58838D01*
X89268Y-58860D01*
X89417Y-58929D01*
X89526Y-59047D01*
X89595Y-59216D01*
X89629Y-59439D01*
X89632Y-59555D01*
X89619Y-59769D01*
X89578Y-59932D01*
X89503Y-60055D01*
X89389Y-60149D01*
X89334Y-60180D01*
X89190Y-60238D01*
X89064Y-60248D01*
X88929Y-60212D01*
X88880Y-60191D01*
X88725Y-60086D01*
X88616Y-59932D01*
X88552Y-59731D01*
X88534Y-59508D01*
X88534Y-60396D01*
X88685Y-60484D01*
X88897Y-60547D01*
X89115Y-60558D01*
X89325Y-60515D01*
X89383Y-60492D01*
X89483Y-60436D01*
X89566Y-60373D01*
X89581Y-60358D01*
X89639Y-60316D01*
X89679Y-60337D01*
X89698Y-60417D01*
X89699Y-60446D01*
X89706Y-60491D01*
X89738Y-60513D01*
X89812Y-60521D01*
X89866Y-60521D01*
X90033Y-60521D01*
X90033Y-59071D01*
X90033Y-57621D01*
X89833Y-57621D01*
X89633Y-57621D01*
X89633Y-58208D01*
X89633Y-58796D01*
X89505Y-58680D01*
X89333Y-58567D01*
X89136Y-58507D01*
X88926Y-58498D01*
X88719Y-58540D01*
X88528Y-58631D01*
X88393Y-58743D01*
X88269Y-58920D01*
X88185Y-59135D01*
X88143Y-59375D01*
X88142Y-59624D01*
X88142Y-59624D01*
X88142Y-59624D01*
G37*
G36*
X85923Y-59638D02*
X85968Y-59875D01*
X86058Y-60091D01*
X86192Y-60271D01*
X86335Y-60386D01*
X86335Y-59578D01*
X86340Y-59400D01*
X86366Y-59239D01*
X86373Y-59212D01*
X86454Y-59045D01*
X86578Y-58916D01*
X86733Y-58834D01*
X86905Y-58807D01*
X87011Y-58820D01*
X87166Y-58887D01*
X87291Y-59003D01*
X87383Y-59158D01*
X87440Y-59340D01*
X87458Y-59537D01*
X87436Y-59739D01*
X87369Y-59932D01*
X87317Y-60024D01*
X87203Y-60145D01*
X87055Y-60224D01*
X86892Y-60255D01*
X86732Y-60232D01*
X86673Y-60208D01*
X86522Y-60093D01*
X86407Y-59928D01*
X86385Y-59880D01*
X86350Y-59747D01*
X86335Y-59578D01*
X86335Y-60386D01*
X86377Y-60421D01*
X86583Y-60512D01*
X86820Y-60550D01*
X86900Y-60551D01*
X87040Y-60544D01*
X87169Y-60531D01*
X87259Y-60513D01*
X87261Y-60512D01*
X87389Y-60447D01*
X87525Y-60337D01*
X87651Y-60201D01*
X87748Y-60057D01*
X87770Y-60014D01*
X87811Y-59908D01*
X87835Y-59804D01*
X87846Y-59675D01*
X87848Y-59538D01*
X87830Y-59285D01*
X87775Y-59077D01*
X87679Y-58902D01*
X87548Y-58757D01*
X87400Y-58637D01*
X87255Y-58561D01*
X87090Y-58521D01*
X86883Y-58509D01*
X86649Y-58525D01*
X86456Y-58581D01*
X86289Y-58682D01*
X86203Y-58759D01*
X86065Y-58940D01*
X85972Y-59157D01*
X85925Y-59394D01*
X85923Y-59638D01*
X85923Y-59638D01*
X85923Y-59638D01*
G37*
G36*
X81533Y-60521D02*
X81697Y-60521D01*
X81861Y-60521D01*
X81883Y-60387D01*
X81906Y-60253D01*
X81937Y-60292D01*
X81937Y-59391D01*
X81941Y-59272D01*
X81954Y-59187D01*
X81977Y-59120D01*
X81993Y-59088D01*
X82104Y-58946D01*
X82244Y-58856D01*
X82402Y-58820D01*
X82566Y-58837D01*
X82723Y-58910D01*
X82845Y-59021D01*
X82938Y-59180D01*
X82991Y-59373D01*
X83002Y-59580D01*
X82972Y-59783D01*
X82900Y-59964D01*
X82842Y-60048D01*
X82703Y-60166D01*
X82540Y-60226D01*
X82365Y-60225D01*
X82191Y-60162D01*
X82187Y-60160D01*
X82089Y-60094D01*
X82022Y-60018D01*
X81978Y-59919D01*
X81953Y-59783D01*
X81941Y-59595D01*
X81940Y-59561D01*
X81937Y-59391D01*
X81937Y-60292D01*
X81970Y-60334D01*
X82089Y-60437D01*
X82251Y-60510D01*
X82439Y-60549D01*
X82634Y-60553D01*
X82818Y-60517D01*
X82884Y-60492D01*
X83064Y-60376D01*
X83205Y-60215D01*
X83309Y-60021D01*
X83374Y-59802D01*
X83399Y-59571D01*
X83383Y-59338D01*
X83327Y-59114D01*
X83230Y-58909D01*
X83090Y-58734D01*
X82999Y-58658D01*
X82809Y-58556D01*
X82601Y-58506D01*
X82389Y-58506D01*
X82189Y-58557D01*
X82043Y-58640D01*
X81933Y-58725D01*
X81933Y-58173D01*
X81933Y-57621D01*
X81733Y-57621D01*
X81533Y-57621D01*
X81533Y-59071D01*
X81533Y-60521D01*
X81533Y-60521D01*
X81533Y-60521D01*
G37*
G36*
X94233Y-60521D02*
X94766Y-60521D01*
X94766Y-60088D01*
X94766Y-59938D01*
X94766Y-59788D01*
X94766Y-59521D01*
X94766Y-59371D01*
X94766Y-59221D01*
X94766Y-58921D01*
X94766Y-58771D01*
X94766Y-58621D01*
X94766Y-58355D01*
X94766Y-58205D01*
X94766Y-58055D01*
X94916Y-58055D01*
X95066Y-58055D01*
X95066Y-58205D01*
X95066Y-58355D01*
X94916Y-58355D01*
X94766Y-58355D01*
X94766Y-58621D01*
X94916Y-58621D01*
X95066Y-58621D01*
X95066Y-58771D01*
X95066Y-58921D01*
X94916Y-58921D01*
X94766Y-58921D01*
X94766Y-59221D01*
X94916Y-59221D01*
X95066Y-59221D01*
X95066Y-59371D01*
X95066Y-59521D01*
X94916Y-59521D01*
X94766Y-59521D01*
X94766Y-59788D01*
X94916Y-59788D01*
X95066Y-59788D01*
X95066Y-59938D01*
X95066Y-60088D01*
X94916Y-60088D01*
X94766Y-60088D01*
X94766Y-60521D01*
X95333Y-60521D01*
X95333Y-60088D01*
X95333Y-59938D01*
X95333Y-59788D01*
X95333Y-59521D01*
X95333Y-59371D01*
X95333Y-59221D01*
X95333Y-58921D01*
X95333Y-58771D01*
X95333Y-58621D01*
X95333Y-58355D01*
X95333Y-58205D01*
X95333Y-58055D01*
X95483Y-58055D01*
X95633Y-58055D01*
X95633Y-58205D01*
X95633Y-58355D01*
X95483Y-58355D01*
X95333Y-58355D01*
X95333Y-58621D01*
X95483Y-58621D01*
X95633Y-58621D01*
X95633Y-58771D01*
X95633Y-58921D01*
X95483Y-58921D01*
X95333Y-58921D01*
X95333Y-59221D01*
X95483Y-59221D01*
X95633Y-59221D01*
X95633Y-59371D01*
X95633Y-59521D01*
X95483Y-59521D01*
X95333Y-59521D01*
X95333Y-59788D01*
X95783Y-59788D01*
X95933Y-59788D01*
X95933Y-59521D01*
X95933Y-59371D01*
X95933Y-59221D01*
X95933Y-58921D01*
X95933Y-58771D01*
X95933Y-58621D01*
X95933Y-58355D01*
X95933Y-58205D01*
X95933Y-58055D01*
X96083Y-58055D01*
X96233Y-58055D01*
X96233Y-58205D01*
X96233Y-58355D01*
X96083Y-58355D01*
X95933Y-58355D01*
X95933Y-58621D01*
X96083Y-58621D01*
X96233Y-58621D01*
X96233Y-58771D01*
X96233Y-58921D01*
X96083Y-58921D01*
X95933Y-58921D01*
X95933Y-59221D01*
X96083Y-59221D01*
X96233Y-59221D01*
X96233Y-59371D01*
X96233Y-59521D01*
X96083Y-59521D01*
X95933Y-59521D01*
X95933Y-59788D01*
X96233Y-59788D01*
X96233Y-59938D01*
X96233Y-60088D01*
X95783Y-60088D01*
X95333Y-60088D01*
X95333Y-60521D01*
X95483Y-60521D01*
X96733Y-60521D01*
X96733Y-59071D01*
X96733Y-57621D01*
X95755Y-57621D01*
X95474Y-57621D01*
X95251Y-57620D01*
X95080Y-57618D01*
X94954Y-57614D01*
X94863Y-57608D01*
X94802Y-57600D01*
X94762Y-57588D01*
X94736Y-57573D01*
X94716Y-57555D01*
X94637Y-57504D01*
X94561Y-57488D01*
X94490Y-57500D01*
X94467Y-57543D01*
X94466Y-57555D01*
X94453Y-57600D01*
X94403Y-57619D01*
X94350Y-57621D01*
X94233Y-57621D01*
X94233Y-59071D01*
X94233Y-60521D01*
X94233Y-60521D01*
X94233Y-60521D01*
G37*
G36*
X92200Y-60504D02*
X92230Y-60512D01*
X92311Y-60518D01*
X92425Y-60519D01*
X92441Y-60519D01*
X92683Y-60518D01*
X92999Y-60069D01*
X93105Y-59920D01*
X93199Y-59791D01*
X93273Y-59693D01*
X93320Y-59634D01*
X93334Y-59621D01*
X93365Y-59645D01*
X93416Y-59705D01*
X93427Y-59720D01*
X93460Y-59772D01*
X93482Y-59832D01*
X93494Y-59915D01*
X93499Y-60036D01*
X93500Y-60170D01*
X93500Y-60521D01*
X93683Y-60521D01*
X93866Y-60521D01*
X93866Y-59071D01*
X93866Y-57621D01*
X93684Y-57621D01*
X93501Y-57621D01*
X93492Y-58501D01*
X93483Y-59380D01*
X93120Y-58951D01*
X92756Y-58521D01*
X92545Y-58521D01*
X92423Y-58527D01*
X92350Y-58542D01*
X92333Y-58557D01*
X92355Y-58593D01*
X92415Y-58668D01*
X92504Y-58772D01*
X92616Y-58896D01*
X92675Y-58960D01*
X92795Y-59089D01*
X92898Y-59203D01*
X92975Y-59290D01*
X93020Y-59343D01*
X93026Y-59353D01*
X93010Y-59387D01*
X92959Y-59465D01*
X92879Y-59579D01*
X92776Y-59722D01*
X92655Y-59885D01*
X92618Y-59934D01*
X92493Y-60100D01*
X92383Y-60248D01*
X92294Y-60370D01*
X92231Y-60456D01*
X92202Y-60501D01*
X92200Y-60504D01*
X92200Y-60504D01*
X92200Y-60504D01*
G37*
G36*
X91533Y-60521D02*
X91716Y-60521D01*
X91900Y-60521D01*
X91900Y-59521D01*
X91900Y-58521D01*
X91716Y-58521D01*
X91533Y-58521D01*
X91533Y-59521D01*
X91533Y-60521D01*
X91533Y-60521D01*
X91533Y-60521D01*
G37*
G36*
X90566Y-60521D02*
X90766Y-60521D01*
X90966Y-60521D01*
X90966Y-59520D01*
X90966Y-58518D01*
X90775Y-58528D01*
X90583Y-58538D01*
X90574Y-59530D01*
X90566Y-60521D01*
X90566Y-60521D01*
X90566Y-60521D01*
G37*
G36*
X83800Y-60521D02*
X84000Y-60521D01*
X84200Y-60521D01*
X84201Y-59863D01*
X84201Y-59631D01*
X84204Y-59455D01*
X84210Y-59324D01*
X84219Y-59228D01*
X84233Y-59155D01*
X84252Y-59096D01*
X84266Y-59062D01*
X84356Y-58934D01*
X84481Y-58856D01*
X84628Y-58831D01*
X84783Y-58860D01*
X84908Y-58927D01*
X84969Y-58975D01*
X85016Y-59026D01*
X85050Y-59091D01*
X85073Y-59179D01*
X85088Y-59298D01*
X85096Y-59459D01*
X85099Y-59670D01*
X85100Y-59853D01*
X85100Y-60521D01*
X85300Y-60521D01*
X85500Y-60521D01*
X85500Y-59071D01*
X85500Y-57621D01*
X85300Y-57621D01*
X85100Y-57621D01*
X85100Y-58194D01*
X85100Y-58766D01*
X85025Y-58698D01*
X84850Y-58578D01*
X84656Y-58512D01*
X84456Y-58500D01*
X84263Y-58542D01*
X84090Y-58638D01*
X84031Y-58690D01*
X83960Y-58769D01*
X83906Y-58852D01*
X83865Y-58950D01*
X83835Y-59071D01*
X83816Y-59225D01*
X83805Y-59422D01*
X83800Y-59671D01*
X83800Y-59844D01*
X83800Y-60521D01*
X83800Y-60521D01*
X83800Y-60521D01*
G37*
G36*
X91488Y-58013D02*
X91503Y-58112D01*
X91535Y-58168D01*
X91633Y-58221D01*
X91753Y-58235D01*
X91823Y-58220D01*
X91914Y-58153D01*
X91959Y-58054D01*
X91952Y-57942D01*
X91904Y-57852D01*
X91819Y-57793D01*
X91708Y-57773D01*
X91600Y-57793D01*
X91543Y-57831D01*
X91502Y-57909D01*
X91488Y-58013D01*
X91488Y-58013D01*
X91488Y-58013D01*
G37*
G36*
X90542Y-58042D02*
X90579Y-58136D01*
X90652Y-58205D01*
X90753Y-58236D01*
X90866Y-58217D01*
X90952Y-58167D01*
X90991Y-58091D01*
X90999Y-58005D01*
X90986Y-57900D01*
X90939Y-57832D01*
X90877Y-57793D01*
X90773Y-57758D01*
X90685Y-57779D01*
X90615Y-57836D01*
X90551Y-57937D01*
X90542Y-58042D01*
X90542Y-58042D01*
X90542Y-58042D01*
G37*
G36*
X95644Y-57274D02*
X95650Y-57309D01*
X95709Y-57336D01*
X95789Y-57357D01*
X95997Y-57382D01*
X96141Y-57365D01*
X96187Y-57348D01*
X96193Y-57319D01*
X96160Y-57259D01*
X96146Y-57237D01*
X96103Y-57187D01*
X96044Y-57162D01*
X95947Y-57155D01*
X95918Y-57155D01*
X95796Y-57162D01*
X95719Y-57190D01*
X95683Y-57221D01*
X95644Y-57274D01*
X95644Y-57274D01*
X95644Y-57274D01*
G37*
G36*
X94466Y-57242D02*
X94493Y-57278D01*
X94560Y-57283D01*
X94652Y-57259D01*
X94754Y-57209D01*
X94775Y-57196D01*
X94860Y-57124D01*
X94896Y-57054D01*
X94900Y-57016D01*
X94885Y-56944D01*
X94837Y-56922D01*
X94748Y-56948D01*
X94701Y-56971D01*
X94612Y-57033D01*
X94532Y-57116D01*
X94478Y-57198D01*
X94466Y-57242D01*
X94466Y-57242D01*
X94466Y-57242D01*
G37*
G36*
X96304Y-57084D02*
X96313Y-57132D01*
X96332Y-57169D01*
X96390Y-57241D01*
X96451Y-57246D01*
X96499Y-57206D01*
X96530Y-57132D01*
X96509Y-57069D01*
X96453Y-57031D01*
X96376Y-57033D01*
X96335Y-57052D01*
X96304Y-57084D01*
X96304Y-57084D01*
X96304Y-57084D01*
G37*
G36*
X95100Y-57031D02*
X95112Y-57082D01*
X95158Y-57120D01*
X95253Y-57157D01*
X95264Y-57161D01*
X95362Y-57190D01*
X95420Y-57196D01*
X95461Y-57176D01*
X95503Y-57135D01*
X95577Y-57055D01*
X95430Y-56991D01*
X95303Y-56942D01*
X95197Y-56916D01*
X95128Y-56915D01*
X95108Y-56930D01*
X95102Y-56980D01*
X95100Y-57031D01*
X95100Y-57031D01*
X95100Y-57031D01*
G37*
G54D13*
X38039Y-44168D02*
X38056Y-44218D01*
X38056Y-44302D01*
X38039Y-44336D01*
X38022Y-44353D01*
X37989Y-44370D01*
X37955Y-44370D01*
X37921Y-44353D01*
X37904Y-44336D01*
X37888Y-44302D01*
X37871Y-44235D01*
X37854Y-44201D01*
X37837Y-44184D01*
X37803Y-44168D01*
X37770Y-44168D01*
X37736Y-44184D01*
X37719Y-44201D01*
X37702Y-44235D01*
X37702Y-44319D01*
X37719Y-44370D01*
X37702Y-44673D02*
X37702Y-44606D01*
X37719Y-44572D01*
X37736Y-44555D01*
X37786Y-44522D01*
X37854Y-44505D01*
X37989Y-44505D01*
X38022Y-44522D01*
X38039Y-44538D01*
X38056Y-44572D01*
X38056Y-44640D01*
X38039Y-44673D01*
X38022Y-44690D01*
X37989Y-44707D01*
X37904Y-44707D01*
X37871Y-44690D01*
X37854Y-44673D01*
X37837Y-44640D01*
X37837Y-44572D01*
X37854Y-44538D01*
X37871Y-44522D01*
X37904Y-44505D01*
X37820Y-45010D02*
X38056Y-45010D01*
X37685Y-44926D02*
X37938Y-44842D01*
X37938Y-45061D01*
G54D18*
X34904Y-43408D02*
X34404Y-43408D01*
X34404Y-43598D01*
X34428Y-43646D01*
X34452Y-43669D01*
X34499Y-43693D01*
X34571Y-43693D01*
X34618Y-43669D01*
X34642Y-43646D01*
X34666Y-43598D01*
X34666Y-43408D01*
X34904Y-44169D02*
X34904Y-43884D01*
X34904Y-44027D02*
X34404Y-44027D01*
X34475Y-43979D01*
X34523Y-43931D01*
X34547Y-43884D01*
G54D10*
X67531Y-59630D02*
X67544Y-59616D01*
X67557Y-59577D01*
X67557Y-59551D01*
X67544Y-59511D01*
X67518Y-59485D01*
X67491Y-59472D01*
X67439Y-59459D01*
X67399Y-59459D01*
X67347Y-59472D01*
X67321Y-59485D01*
X67294Y-59511D01*
X67281Y-59551D01*
X67281Y-59577D01*
X67294Y-59616D01*
X67308Y-59630D01*
X67308Y-59735D02*
X67294Y-59748D01*
X67281Y-59774D01*
X67281Y-59840D01*
X67294Y-59866D01*
X67308Y-59879D01*
X67334Y-59892D01*
X67360Y-59892D01*
X67399Y-59879D01*
X67557Y-59721D01*
X67557Y-59892D01*
X31370Y-29206D02*
X31462Y-29075D01*
X31528Y-29206D02*
X31528Y-28930D01*
X31423Y-28930D01*
X31397Y-28943D01*
X31384Y-28957D01*
X31370Y-28983D01*
X31370Y-29022D01*
X31384Y-29048D01*
X31397Y-29061D01*
X31423Y-29075D01*
X31528Y-29075D01*
X31108Y-29206D02*
X31265Y-29206D01*
X31187Y-29206D02*
X31187Y-28930D01*
X31213Y-28970D01*
X31239Y-28996D01*
X31265Y-29009D01*
X31866Y-29206D02*
X31958Y-29075D01*
X32024Y-29206D02*
X32024Y-28930D01*
X31919Y-28930D01*
X31893Y-28943D01*
X31879Y-28957D01*
X31866Y-28983D01*
X31866Y-29022D01*
X31879Y-29048D01*
X31893Y-29061D01*
X31919Y-29075D01*
X32024Y-29075D01*
X31761Y-28957D02*
X31748Y-28943D01*
X31722Y-28930D01*
X31656Y-28930D01*
X31630Y-28943D01*
X31617Y-28957D01*
X31604Y-28983D01*
X31604Y-29009D01*
X31617Y-29048D01*
X31774Y-29206D01*
X31604Y-29206D01*
X67545Y-57985D02*
X67559Y-57972D01*
X67572Y-57933D01*
X67572Y-57906D01*
X67559Y-57867D01*
X67532Y-57841D01*
X67506Y-57828D01*
X67454Y-57814D01*
X67414Y-57814D01*
X67362Y-57828D01*
X67335Y-57841D01*
X67309Y-57867D01*
X67296Y-57906D01*
X67296Y-57933D01*
X67309Y-57972D01*
X67322Y-57985D01*
X67572Y-58248D02*
X67572Y-58090D01*
X67572Y-58169D02*
X67296Y-58169D01*
X67335Y-58143D01*
X67362Y-58116D01*
X67375Y-58090D01*
X67545Y-58812D02*
X67559Y-58799D01*
X67572Y-58759D01*
X67572Y-58733D01*
X67559Y-58694D01*
X67532Y-58667D01*
X67506Y-58654D01*
X67454Y-58641D01*
X67414Y-58641D01*
X67362Y-58654D01*
X67335Y-58667D01*
X67309Y-58694D01*
X67296Y-58733D01*
X67296Y-58759D01*
X67309Y-58799D01*
X67322Y-58812D01*
X67296Y-58904D02*
X67296Y-59074D01*
X67401Y-58982D01*
X67401Y-59022D01*
X67414Y-59048D01*
X67427Y-59061D01*
X67454Y-59074D01*
X67519Y-59074D01*
X67545Y-59061D01*
X67559Y-59048D01*
X67572Y-59022D01*
X67572Y-58943D01*
X67559Y-58917D01*
X67545Y-58904D01*
X57789Y-58978D02*
X57802Y-58991D01*
X57841Y-59004D01*
X57867Y-59004D01*
X57907Y-58991D01*
X57933Y-58965D01*
X57946Y-58938D01*
X57959Y-58886D01*
X57959Y-58846D01*
X57946Y-58794D01*
X57933Y-58768D01*
X57907Y-58741D01*
X57867Y-58728D01*
X57841Y-58728D01*
X57802Y-58741D01*
X57789Y-58755D01*
X57553Y-58728D02*
X57605Y-58728D01*
X57631Y-58741D01*
X57644Y-58755D01*
X57671Y-58794D01*
X57684Y-58846D01*
X57684Y-58951D01*
X57671Y-58978D01*
X57658Y-58991D01*
X57631Y-59004D01*
X57579Y-59004D01*
X57553Y-58991D01*
X57539Y-58978D01*
X57526Y-58951D01*
X57526Y-58886D01*
X57539Y-58860D01*
X57553Y-58846D01*
X57579Y-58833D01*
X57631Y-58833D01*
X57658Y-58846D01*
X57671Y-58860D01*
X57684Y-58886D01*
X59059Y-61314D02*
X58928Y-61222D01*
X59059Y-61157D02*
X58783Y-61157D01*
X58783Y-61262D01*
X58797Y-61288D01*
X58810Y-61301D01*
X58836Y-61314D01*
X58875Y-61314D01*
X58902Y-61301D01*
X58915Y-61288D01*
X58928Y-61262D01*
X58928Y-61157D01*
X58783Y-61406D02*
X58783Y-61577D01*
X58888Y-61485D01*
X58888Y-61524D01*
X58902Y-61550D01*
X58915Y-61564D01*
X58941Y-61577D01*
X59007Y-61577D01*
X59033Y-61564D01*
X59046Y-61550D01*
X59059Y-61524D01*
X59059Y-61445D01*
X59046Y-61419D01*
X59033Y-61406D01*
X67545Y-57158D02*
X67559Y-57145D01*
X67572Y-57106D01*
X67572Y-57080D01*
X67559Y-57040D01*
X67532Y-57014D01*
X67506Y-57001D01*
X67454Y-56988D01*
X67414Y-56988D01*
X67362Y-57001D01*
X67335Y-57014D01*
X67309Y-57040D01*
X67296Y-57080D01*
X67296Y-57106D01*
X67309Y-57145D01*
X67322Y-57158D01*
X67296Y-57408D02*
X67296Y-57276D01*
X67427Y-57263D01*
X67414Y-57276D01*
X67401Y-57303D01*
X67401Y-57368D01*
X67414Y-57395D01*
X67427Y-57408D01*
X67454Y-57421D01*
X67519Y-57421D01*
X67545Y-57408D01*
X67559Y-57395D01*
X67572Y-57368D01*
X67572Y-57303D01*
X67559Y-57276D01*
X67545Y-57263D01*
X65707Y-59393D02*
X65720Y-59380D01*
X65733Y-59340D01*
X65733Y-59314D01*
X65720Y-59275D01*
X65694Y-59249D01*
X65668Y-59235D01*
X65615Y-59222D01*
X65576Y-59222D01*
X65523Y-59235D01*
X65497Y-59249D01*
X65471Y-59275D01*
X65458Y-59314D01*
X65458Y-59340D01*
X65471Y-59380D01*
X65484Y-59393D01*
X65549Y-59629D02*
X65733Y-59629D01*
X65444Y-59564D02*
X65641Y-59498D01*
X65641Y-59669D01*
G54D13*
X62269Y-58339D02*
X62269Y-58625D01*
X62252Y-58659D01*
X62236Y-58676D01*
X62202Y-58693D01*
X62134Y-58693D01*
X62101Y-58676D01*
X62084Y-58659D01*
X62067Y-58625D01*
X62067Y-58339D01*
X61713Y-58693D02*
X61915Y-58693D01*
X61814Y-58693D02*
X61814Y-58339D01*
X61848Y-58389D01*
X61882Y-58423D01*
X61915Y-58440D01*
X58084Y-60379D02*
X58084Y-60025D01*
X58000Y-60025D01*
X57950Y-60042D01*
X57916Y-60076D01*
X57899Y-60109D01*
X57882Y-60177D01*
X57882Y-60227D01*
X57899Y-60295D01*
X57916Y-60328D01*
X57950Y-60362D01*
X58000Y-60379D01*
X58084Y-60379D01*
X57579Y-60025D02*
X57646Y-60025D01*
X57680Y-60042D01*
X57697Y-60059D01*
X57730Y-60109D01*
X57747Y-60177D01*
X57747Y-60312D01*
X57730Y-60345D01*
X57714Y-60362D01*
X57680Y-60379D01*
X57612Y-60379D01*
X57579Y-60362D01*
X57562Y-60345D01*
X57545Y-60312D01*
X57545Y-60227D01*
X57562Y-60194D01*
X57579Y-60177D01*
X57612Y-60160D01*
X57680Y-60160D01*
X57714Y-60177D01*
X57730Y-60194D01*
X57747Y-60227D01*
X57242Y-60143D02*
X57242Y-60379D01*
X57326Y-60008D02*
X57410Y-60261D01*
X57191Y-60261D01*
G54D14*
X28779Y-32106D02*
X28379Y-32106D01*
X28379Y-32201D01*
X28398Y-32258D01*
X28436Y-32296D01*
X28474Y-32315D01*
X28550Y-32334D01*
X28607Y-32334D01*
X28683Y-32315D01*
X28721Y-32296D01*
X28759Y-32258D01*
X28779Y-32201D01*
X28779Y-32106D01*
X28779Y-32715D02*
X28779Y-32487D01*
X28779Y-32601D02*
X28379Y-32601D01*
X28436Y-32563D01*
X28474Y-32525D01*
X28493Y-32487D01*
X82972Y-52915D02*
X82572Y-52915D01*
X82572Y-53011D01*
X82591Y-53068D01*
X82630Y-53106D01*
X82668Y-53125D01*
X82744Y-53144D01*
X82801Y-53144D01*
X82877Y-53125D01*
X82915Y-53106D01*
X82953Y-53068D01*
X82972Y-53011D01*
X82972Y-52915D01*
X82706Y-53487D02*
X82972Y-53487D01*
X82553Y-53392D02*
X82839Y-53296D01*
X82839Y-53544D01*
X82972Y-53715D02*
X82972Y-53792D01*
X82953Y-53830D01*
X82934Y-53849D01*
X82877Y-53887D01*
X82801Y-53906D01*
X82649Y-53906D01*
X82611Y-53887D01*
X82591Y-53868D01*
X82572Y-53830D01*
X82572Y-53753D01*
X82591Y-53715D01*
X82611Y-53696D01*
X82649Y-53677D01*
X82744Y-53677D01*
X82782Y-53696D01*
X82801Y-53715D01*
X82820Y-53753D01*
X82820Y-53830D01*
X82801Y-53868D01*
X82782Y-53887D01*
X82744Y-53906D01*
X40372Y-60415D02*
X39972Y-60415D01*
X39972Y-60511D01*
X39991Y-60568D01*
X40030Y-60606D01*
X40068Y-60625D01*
X40144Y-60644D01*
X40201Y-60644D01*
X40277Y-60625D01*
X40315Y-60606D01*
X40353Y-60568D01*
X40372Y-60511D01*
X40372Y-60415D01*
X39972Y-61006D02*
X39972Y-60815D01*
X40163Y-60796D01*
X40144Y-60815D01*
X40125Y-60853D01*
X40125Y-60949D01*
X40144Y-60987D01*
X40163Y-61006D01*
X40201Y-61025D01*
X40296Y-61025D01*
X40334Y-61006D01*
X40353Y-60987D01*
X40372Y-60949D01*
X40372Y-60853D01*
X40353Y-60815D01*
X40334Y-60796D01*
X39972Y-61158D02*
X39972Y-61425D01*
X40372Y-61253D01*
X31022Y-60415D02*
X30622Y-60415D01*
X30622Y-60511D01*
X30641Y-60568D01*
X30680Y-60606D01*
X30718Y-60625D01*
X30794Y-60644D01*
X30851Y-60644D01*
X30927Y-60625D01*
X30965Y-60606D01*
X31003Y-60568D01*
X31022Y-60511D01*
X31022Y-60415D01*
X30622Y-61006D02*
X30622Y-60815D01*
X30813Y-60796D01*
X30794Y-60815D01*
X30775Y-60853D01*
X30775Y-60949D01*
X30794Y-60987D01*
X30813Y-61006D01*
X30851Y-61025D01*
X30946Y-61025D01*
X30984Y-61006D01*
X31003Y-60987D01*
X31022Y-60949D01*
X31022Y-60853D01*
X31003Y-60815D01*
X30984Y-60796D01*
X30622Y-61368D02*
X30622Y-61292D01*
X30641Y-61253D01*
X30661Y-61234D01*
X30718Y-61196D01*
X30794Y-61177D01*
X30946Y-61177D01*
X30984Y-61196D01*
X31003Y-61215D01*
X31022Y-61253D01*
X31022Y-61330D01*
X31003Y-61368D01*
X30984Y-61387D01*
X30946Y-61406D01*
X30851Y-61406D01*
X30813Y-61387D01*
X30794Y-61368D01*
X30775Y-61330D01*
X30775Y-61253D01*
X30794Y-61215D01*
X30813Y-61196D01*
X30851Y-61177D01*
X133582Y-52915D02*
X133182Y-52915D01*
X133182Y-53011D01*
X133201Y-53068D01*
X133239Y-53106D01*
X133277Y-53125D01*
X133353Y-53144D01*
X133410Y-53144D01*
X133487Y-53125D01*
X133525Y-53106D01*
X133563Y-53068D01*
X133582Y-53011D01*
X133582Y-52915D01*
X133182Y-53506D02*
X133182Y-53315D01*
X133372Y-53296D01*
X133353Y-53315D01*
X133334Y-53353D01*
X133334Y-53449D01*
X133353Y-53487D01*
X133372Y-53506D01*
X133410Y-53525D01*
X133506Y-53525D01*
X133544Y-53506D01*
X133563Y-53487D01*
X133582Y-53449D01*
X133582Y-53353D01*
X133563Y-53315D01*
X133544Y-53296D01*
X133182Y-53887D02*
X133182Y-53696D01*
X133372Y-53677D01*
X133353Y-53696D01*
X133334Y-53734D01*
X133334Y-53830D01*
X133353Y-53868D01*
X133372Y-53887D01*
X133410Y-53906D01*
X133506Y-53906D01*
X133544Y-53887D01*
X133563Y-53868D01*
X133582Y-53830D01*
X133582Y-53734D01*
X133563Y-53696D01*
X133544Y-53677D01*
X123269Y-52915D02*
X122869Y-52915D01*
X122869Y-53011D01*
X122888Y-53068D01*
X122926Y-53106D01*
X122965Y-53125D01*
X123041Y-53144D01*
X123098Y-53144D01*
X123174Y-53125D01*
X123212Y-53106D01*
X123250Y-53068D01*
X123269Y-53011D01*
X123269Y-52915D01*
X122869Y-53506D02*
X122869Y-53315D01*
X123060Y-53296D01*
X123041Y-53315D01*
X123022Y-53353D01*
X123022Y-53449D01*
X123041Y-53487D01*
X123060Y-53506D01*
X123098Y-53525D01*
X123193Y-53525D01*
X123231Y-53506D01*
X123250Y-53487D01*
X123269Y-53449D01*
X123269Y-53353D01*
X123250Y-53315D01*
X123231Y-53296D01*
X123003Y-53868D02*
X123269Y-53868D01*
X122850Y-53773D02*
X123136Y-53677D01*
X123136Y-53925D01*
X112972Y-52915D02*
X112572Y-52915D01*
X112572Y-53011D01*
X112591Y-53068D01*
X112630Y-53106D01*
X112668Y-53125D01*
X112744Y-53144D01*
X112801Y-53144D01*
X112877Y-53125D01*
X112915Y-53106D01*
X112953Y-53068D01*
X112972Y-53011D01*
X112972Y-52915D01*
X112572Y-53506D02*
X112572Y-53315D01*
X112763Y-53296D01*
X112744Y-53315D01*
X112725Y-53353D01*
X112725Y-53449D01*
X112744Y-53487D01*
X112763Y-53506D01*
X112801Y-53525D01*
X112896Y-53525D01*
X112934Y-53506D01*
X112953Y-53487D01*
X112972Y-53449D01*
X112972Y-53353D01*
X112953Y-53315D01*
X112934Y-53296D01*
X112572Y-53658D02*
X112572Y-53906D01*
X112725Y-53773D01*
X112725Y-53830D01*
X112744Y-53868D01*
X112763Y-53887D01*
X112801Y-53906D01*
X112896Y-53906D01*
X112934Y-53887D01*
X112953Y-53868D01*
X112972Y-53830D01*
X112972Y-53715D01*
X112953Y-53677D01*
X112934Y-53658D01*
X105472Y-52915D02*
X105072Y-52915D01*
X105072Y-53011D01*
X105091Y-53068D01*
X105130Y-53106D01*
X105168Y-53125D01*
X105244Y-53144D01*
X105301Y-53144D01*
X105377Y-53125D01*
X105415Y-53106D01*
X105453Y-53068D01*
X105472Y-53011D01*
X105472Y-52915D01*
X105072Y-53506D02*
X105072Y-53315D01*
X105263Y-53296D01*
X105244Y-53315D01*
X105225Y-53353D01*
X105225Y-53449D01*
X105244Y-53487D01*
X105263Y-53506D01*
X105301Y-53525D01*
X105396Y-53525D01*
X105434Y-53506D01*
X105453Y-53487D01*
X105472Y-53449D01*
X105472Y-53353D01*
X105453Y-53315D01*
X105434Y-53296D01*
X105111Y-53677D02*
X105091Y-53696D01*
X105072Y-53734D01*
X105072Y-53830D01*
X105091Y-53868D01*
X105111Y-53887D01*
X105149Y-53906D01*
X105187Y-53906D01*
X105244Y-53887D01*
X105472Y-53658D01*
X105472Y-53906D01*
X97972Y-52915D02*
X97572Y-52915D01*
X97572Y-53011D01*
X97591Y-53068D01*
X97630Y-53106D01*
X97668Y-53125D01*
X97744Y-53144D01*
X97801Y-53144D01*
X97877Y-53125D01*
X97915Y-53106D01*
X97953Y-53068D01*
X97972Y-53011D01*
X97972Y-52915D01*
X97572Y-53506D02*
X97572Y-53315D01*
X97763Y-53296D01*
X97744Y-53315D01*
X97725Y-53353D01*
X97725Y-53449D01*
X97744Y-53487D01*
X97763Y-53506D01*
X97801Y-53525D01*
X97896Y-53525D01*
X97934Y-53506D01*
X97953Y-53487D01*
X97972Y-53449D01*
X97972Y-53353D01*
X97953Y-53315D01*
X97934Y-53296D01*
X97972Y-53906D02*
X97972Y-53677D01*
X97972Y-53792D02*
X97572Y-53792D01*
X97630Y-53753D01*
X97668Y-53715D01*
X97687Y-53677D01*
X90472Y-52915D02*
X90072Y-52915D01*
X90072Y-53011D01*
X90091Y-53068D01*
X90130Y-53106D01*
X90168Y-53125D01*
X90244Y-53144D01*
X90301Y-53144D01*
X90377Y-53125D01*
X90415Y-53106D01*
X90453Y-53068D01*
X90472Y-53011D01*
X90472Y-52915D01*
X90072Y-53506D02*
X90072Y-53315D01*
X90263Y-53296D01*
X90244Y-53315D01*
X90225Y-53353D01*
X90225Y-53449D01*
X90244Y-53487D01*
X90263Y-53506D01*
X90301Y-53525D01*
X90396Y-53525D01*
X90434Y-53506D01*
X90453Y-53487D01*
X90472Y-53449D01*
X90472Y-53353D01*
X90453Y-53315D01*
X90434Y-53296D01*
X90072Y-53773D02*
X90072Y-53811D01*
X90091Y-53849D01*
X90111Y-53868D01*
X90149Y-53887D01*
X90225Y-53906D01*
X90320Y-53906D01*
X90396Y-53887D01*
X90434Y-53868D01*
X90453Y-53849D01*
X90472Y-53811D01*
X90472Y-53773D01*
X90453Y-53734D01*
X90434Y-53715D01*
X90396Y-53696D01*
X90320Y-53677D01*
X90225Y-53677D01*
X90149Y-53696D01*
X90111Y-53715D01*
X90091Y-53734D01*
X90072Y-53773D01*
X115372Y-60415D02*
X114972Y-60415D01*
X114972Y-60511D01*
X114991Y-60568D01*
X115030Y-60606D01*
X115068Y-60625D01*
X115144Y-60644D01*
X115201Y-60644D01*
X115277Y-60625D01*
X115315Y-60606D01*
X115353Y-60568D01*
X115372Y-60511D01*
X115372Y-60415D01*
X114972Y-60987D02*
X114972Y-60911D01*
X114991Y-60873D01*
X115011Y-60853D01*
X115068Y-60815D01*
X115144Y-60796D01*
X115296Y-60796D01*
X115334Y-60815D01*
X115353Y-60834D01*
X115372Y-60873D01*
X115372Y-60949D01*
X115353Y-60987D01*
X115334Y-61006D01*
X115296Y-61025D01*
X115201Y-61025D01*
X115163Y-61006D01*
X115144Y-60987D01*
X115125Y-60949D01*
X115125Y-60873D01*
X115144Y-60834D01*
X115163Y-60815D01*
X115201Y-60796D01*
X115372Y-61406D02*
X115372Y-61177D01*
X115372Y-61292D02*
X114972Y-61292D01*
X115030Y-61253D01*
X115068Y-61215D01*
X115087Y-61177D01*
X75472Y-52915D02*
X75072Y-52915D01*
X75072Y-53011D01*
X75091Y-53068D01*
X75130Y-53106D01*
X75168Y-53125D01*
X75244Y-53144D01*
X75301Y-53144D01*
X75377Y-53125D01*
X75415Y-53106D01*
X75453Y-53068D01*
X75472Y-53011D01*
X75472Y-52915D01*
X75206Y-53487D02*
X75472Y-53487D01*
X75053Y-53392D02*
X75339Y-53296D01*
X75339Y-53544D01*
X75244Y-53753D02*
X75225Y-53715D01*
X75206Y-53696D01*
X75168Y-53677D01*
X75149Y-53677D01*
X75111Y-53696D01*
X75091Y-53715D01*
X75072Y-53753D01*
X75072Y-53830D01*
X75091Y-53868D01*
X75111Y-53887D01*
X75149Y-53906D01*
X75168Y-53906D01*
X75206Y-53887D01*
X75225Y-53868D01*
X75244Y-53830D01*
X75244Y-53753D01*
X75263Y-53715D01*
X75282Y-53696D01*
X75320Y-53677D01*
X75396Y-53677D01*
X75434Y-53696D01*
X75453Y-53715D01*
X75472Y-53753D01*
X75472Y-53830D01*
X75453Y-53868D01*
X75434Y-53887D01*
X75396Y-53906D01*
X75320Y-53906D01*
X75282Y-53887D01*
X75263Y-53868D01*
X75244Y-53830D01*
X67972Y-52915D02*
X67572Y-52915D01*
X67572Y-53011D01*
X67591Y-53068D01*
X67630Y-53106D01*
X67668Y-53125D01*
X67744Y-53144D01*
X67801Y-53144D01*
X67877Y-53125D01*
X67915Y-53106D01*
X67953Y-53068D01*
X67972Y-53011D01*
X67972Y-52915D01*
X67706Y-53487D02*
X67972Y-53487D01*
X67553Y-53392D02*
X67839Y-53296D01*
X67839Y-53544D01*
X67572Y-53658D02*
X67572Y-53925D01*
X67972Y-53753D01*
X60472Y-52915D02*
X60072Y-52915D01*
X60072Y-53011D01*
X60091Y-53068D01*
X60130Y-53106D01*
X60168Y-53125D01*
X60244Y-53144D01*
X60301Y-53144D01*
X60377Y-53125D01*
X60415Y-53106D01*
X60453Y-53068D01*
X60472Y-53011D01*
X60472Y-52915D01*
X60206Y-53487D02*
X60472Y-53487D01*
X60053Y-53392D02*
X60339Y-53296D01*
X60339Y-53544D01*
X60072Y-53868D02*
X60072Y-53792D01*
X60091Y-53753D01*
X60111Y-53734D01*
X60168Y-53696D01*
X60244Y-53677D01*
X60396Y-53677D01*
X60434Y-53696D01*
X60453Y-53715D01*
X60472Y-53753D01*
X60472Y-53830D01*
X60453Y-53868D01*
X60434Y-53887D01*
X60396Y-53906D01*
X60301Y-53906D01*
X60263Y-53887D01*
X60244Y-53868D01*
X60225Y-53830D01*
X60225Y-53753D01*
X60244Y-53715D01*
X60263Y-53696D01*
X60301Y-53677D01*
X52972Y-52915D02*
X52572Y-52915D01*
X52572Y-53011D01*
X52591Y-53068D01*
X52630Y-53106D01*
X52668Y-53125D01*
X52744Y-53144D01*
X52801Y-53144D01*
X52877Y-53125D01*
X52915Y-53106D01*
X52953Y-53068D01*
X52972Y-53011D01*
X52972Y-52915D01*
X52706Y-53487D02*
X52972Y-53487D01*
X52553Y-53392D02*
X52839Y-53296D01*
X52839Y-53544D01*
X52572Y-53887D02*
X52572Y-53696D01*
X52763Y-53677D01*
X52744Y-53696D01*
X52725Y-53734D01*
X52725Y-53830D01*
X52744Y-53868D01*
X52763Y-53887D01*
X52801Y-53906D01*
X52896Y-53906D01*
X52934Y-53887D01*
X52953Y-53868D01*
X52972Y-53830D01*
X52972Y-53734D01*
X52953Y-53696D01*
X52934Y-53677D01*
X49772Y-60415D02*
X49372Y-60415D01*
X49372Y-60511D01*
X49391Y-60568D01*
X49430Y-60606D01*
X49468Y-60625D01*
X49544Y-60644D01*
X49601Y-60644D01*
X49677Y-60625D01*
X49715Y-60606D01*
X49753Y-60568D01*
X49772Y-60511D01*
X49772Y-60415D01*
X49372Y-61006D02*
X49372Y-60815D01*
X49563Y-60796D01*
X49544Y-60815D01*
X49525Y-60853D01*
X49525Y-60949D01*
X49544Y-60987D01*
X49563Y-61006D01*
X49601Y-61025D01*
X49696Y-61025D01*
X49734Y-61006D01*
X49753Y-60987D01*
X49772Y-60949D01*
X49772Y-60853D01*
X49753Y-60815D01*
X49734Y-60796D01*
X49544Y-61253D02*
X49525Y-61215D01*
X49506Y-61196D01*
X49468Y-61177D01*
X49449Y-61177D01*
X49411Y-61196D01*
X49391Y-61215D01*
X49372Y-61253D01*
X49372Y-61330D01*
X49391Y-61368D01*
X49411Y-61387D01*
X49449Y-61406D01*
X49468Y-61406D01*
X49506Y-61387D01*
X49525Y-61368D01*
X49544Y-61330D01*
X49544Y-61253D01*
X49563Y-61215D01*
X49582Y-61196D01*
X49620Y-61177D01*
X49696Y-61177D01*
X49734Y-61196D01*
X49753Y-61215D01*
X49772Y-61253D01*
X49772Y-61330D01*
X49753Y-61368D01*
X49734Y-61387D01*
X49696Y-61406D01*
X49620Y-61406D01*
X49582Y-61387D01*
X49563Y-61368D01*
X49544Y-61330D01*
X77922Y-60415D02*
X77522Y-60415D01*
X77522Y-60511D01*
X77541Y-60568D01*
X77580Y-60606D01*
X77618Y-60625D01*
X77694Y-60644D01*
X77751Y-60644D01*
X77827Y-60625D01*
X77865Y-60606D01*
X77903Y-60568D01*
X77922Y-60511D01*
X77922Y-60415D01*
X77522Y-61006D02*
X77522Y-60815D01*
X77713Y-60796D01*
X77694Y-60815D01*
X77675Y-60853D01*
X77675Y-60949D01*
X77694Y-60987D01*
X77713Y-61006D01*
X77751Y-61025D01*
X77846Y-61025D01*
X77884Y-61006D01*
X77903Y-60987D01*
X77922Y-60949D01*
X77922Y-60853D01*
X77903Y-60815D01*
X77884Y-60796D01*
X77922Y-61215D02*
X77922Y-61292D01*
X77903Y-61330D01*
X77884Y-61349D01*
X77827Y-61387D01*
X77751Y-61406D01*
X77599Y-61406D01*
X77561Y-61387D01*
X77541Y-61368D01*
X77522Y-61330D01*
X77522Y-61253D01*
X77541Y-61215D01*
X77561Y-61196D01*
X77599Y-61177D01*
X77694Y-61177D01*
X77732Y-61196D01*
X77751Y-61215D01*
X77770Y-61253D01*
X77770Y-61330D01*
X77751Y-61368D01*
X77732Y-61387D01*
X77694Y-61406D01*
X106022Y-60415D02*
X105622Y-60415D01*
X105622Y-60511D01*
X105641Y-60568D01*
X105680Y-60606D01*
X105718Y-60625D01*
X105794Y-60644D01*
X105851Y-60644D01*
X105927Y-60625D01*
X105965Y-60606D01*
X106003Y-60568D01*
X106022Y-60511D01*
X106022Y-60415D01*
X105622Y-60987D02*
X105622Y-60911D01*
X105641Y-60873D01*
X105661Y-60853D01*
X105718Y-60815D01*
X105794Y-60796D01*
X105946Y-60796D01*
X105984Y-60815D01*
X106003Y-60834D01*
X106022Y-60873D01*
X106022Y-60949D01*
X106003Y-60987D01*
X105984Y-61006D01*
X105946Y-61025D01*
X105851Y-61025D01*
X105813Y-61006D01*
X105794Y-60987D01*
X105775Y-60949D01*
X105775Y-60873D01*
X105794Y-60834D01*
X105813Y-60815D01*
X105851Y-60796D01*
X105622Y-61273D02*
X105622Y-61311D01*
X105641Y-61349D01*
X105661Y-61368D01*
X105699Y-61387D01*
X105775Y-61406D01*
X105870Y-61406D01*
X105946Y-61387D01*
X105984Y-61368D01*
X106003Y-61349D01*
X106022Y-61311D01*
X106022Y-61273D01*
X106003Y-61234D01*
X105984Y-61215D01*
X105946Y-61196D01*
X105870Y-61177D01*
X105775Y-61177D01*
X105699Y-61196D01*
X105661Y-61215D01*
X105641Y-61234D01*
X105622Y-61273D01*
X73598Y-30606D02*
X73198Y-30606D01*
X73198Y-30701D01*
X73217Y-30758D01*
X73255Y-30796D01*
X73293Y-30815D01*
X73369Y-30834D01*
X73426Y-30834D01*
X73502Y-30815D01*
X73540Y-30796D01*
X73579Y-30758D01*
X73598Y-30701D01*
X73598Y-30606D01*
X73198Y-30968D02*
X73198Y-31234D01*
X73598Y-31063D01*
X33269Y-52915D02*
X32869Y-52915D01*
X32869Y-53011D01*
X32888Y-53068D01*
X32926Y-53106D01*
X32964Y-53125D01*
X33041Y-53144D01*
X33098Y-53144D01*
X33174Y-53125D01*
X33212Y-53106D01*
X33250Y-53068D01*
X33269Y-53011D01*
X33269Y-52915D01*
X33003Y-53487D02*
X33269Y-53487D01*
X32850Y-53392D02*
X33136Y-53296D01*
X33136Y-53544D01*
X32869Y-53658D02*
X32869Y-53906D01*
X33022Y-53773D01*
X33022Y-53830D01*
X33041Y-53868D01*
X33060Y-53887D01*
X33098Y-53906D01*
X33193Y-53906D01*
X33231Y-53887D01*
X33250Y-53868D01*
X33269Y-53830D01*
X33269Y-53715D01*
X33250Y-53677D01*
X33231Y-53658D01*
X123822Y-60415D02*
X123422Y-60415D01*
X123422Y-60511D01*
X123441Y-60568D01*
X123480Y-60606D01*
X123518Y-60625D01*
X123594Y-60644D01*
X123651Y-60644D01*
X123727Y-60625D01*
X123765Y-60606D01*
X123803Y-60568D01*
X123822Y-60511D01*
X123822Y-60415D01*
X123422Y-60987D02*
X123422Y-60911D01*
X123441Y-60873D01*
X123461Y-60853D01*
X123518Y-60815D01*
X123594Y-60796D01*
X123746Y-60796D01*
X123784Y-60815D01*
X123803Y-60834D01*
X123822Y-60873D01*
X123822Y-60949D01*
X123803Y-60987D01*
X123784Y-61006D01*
X123746Y-61025D01*
X123651Y-61025D01*
X123613Y-61006D01*
X123594Y-60987D01*
X123575Y-60949D01*
X123575Y-60873D01*
X123594Y-60834D01*
X123613Y-60815D01*
X123651Y-60796D01*
X123461Y-61177D02*
X123441Y-61196D01*
X123422Y-61234D01*
X123422Y-61330D01*
X123441Y-61368D01*
X123461Y-61387D01*
X123499Y-61406D01*
X123537Y-61406D01*
X123594Y-61387D01*
X123822Y-61158D01*
X123822Y-61406D01*
X133172Y-60415D02*
X132772Y-60415D01*
X132772Y-60511D01*
X132791Y-60568D01*
X132830Y-60606D01*
X132868Y-60625D01*
X132944Y-60644D01*
X133001Y-60644D01*
X133077Y-60625D01*
X133115Y-60606D01*
X133153Y-60568D01*
X133172Y-60511D01*
X133172Y-60415D01*
X132772Y-60987D02*
X132772Y-60911D01*
X132791Y-60873D01*
X132811Y-60853D01*
X132868Y-60815D01*
X132944Y-60796D01*
X133096Y-60796D01*
X133134Y-60815D01*
X133153Y-60834D01*
X133172Y-60873D01*
X133172Y-60949D01*
X133153Y-60987D01*
X133134Y-61006D01*
X133096Y-61025D01*
X133001Y-61025D01*
X132963Y-61006D01*
X132944Y-60987D01*
X132925Y-60949D01*
X132925Y-60873D01*
X132944Y-60834D01*
X132963Y-60815D01*
X133001Y-60796D01*
X132772Y-61158D02*
X132772Y-61406D01*
X132925Y-61273D01*
X132925Y-61330D01*
X132944Y-61368D01*
X132963Y-61387D01*
X133001Y-61406D01*
X133096Y-61406D01*
X133134Y-61387D01*
X133153Y-61368D01*
X133172Y-61330D01*
X133172Y-61215D01*
X133153Y-61177D01*
X133134Y-61158D01*
X66098Y-30606D02*
X65698Y-30606D01*
X65698Y-30701D01*
X65717Y-30758D01*
X65755Y-30796D01*
X65793Y-30815D01*
X65869Y-30834D01*
X65926Y-30834D01*
X66002Y-30815D01*
X66040Y-30796D01*
X66079Y-30758D01*
X66098Y-30701D01*
X66098Y-30606D01*
X65698Y-31177D02*
X65698Y-31101D01*
X65717Y-31063D01*
X65736Y-31044D01*
X65793Y-31006D01*
X65869Y-30987D01*
X66021Y-30987D01*
X66060Y-31006D01*
X66079Y-31025D01*
X66098Y-31063D01*
X66098Y-31139D01*
X66079Y-31177D01*
X66060Y-31196D01*
X66021Y-31215D01*
X65926Y-31215D01*
X65888Y-31196D01*
X65869Y-31177D01*
X65850Y-31139D01*
X65850Y-31063D01*
X65869Y-31025D01*
X65888Y-31006D01*
X65926Y-30987D01*
X58598Y-30606D02*
X58198Y-30606D01*
X58198Y-30701D01*
X58217Y-30758D01*
X58255Y-30796D01*
X58293Y-30815D01*
X58369Y-30834D01*
X58426Y-30834D01*
X58502Y-30815D01*
X58540Y-30796D01*
X58579Y-30758D01*
X58598Y-30701D01*
X58598Y-30606D01*
X58198Y-31196D02*
X58198Y-31006D01*
X58388Y-30987D01*
X58369Y-31006D01*
X58350Y-31044D01*
X58350Y-31139D01*
X58369Y-31177D01*
X58388Y-31196D01*
X58426Y-31215D01*
X58521Y-31215D01*
X58560Y-31196D01*
X58579Y-31177D01*
X58598Y-31139D01*
X58598Y-31044D01*
X58579Y-31006D01*
X58560Y-30987D01*
X51098Y-30606D02*
X50698Y-30606D01*
X50698Y-30701D01*
X50717Y-30758D01*
X50755Y-30796D01*
X50793Y-30815D01*
X50869Y-30834D01*
X50926Y-30834D01*
X51002Y-30815D01*
X51040Y-30796D01*
X51079Y-30758D01*
X51098Y-30701D01*
X51098Y-30606D01*
X50831Y-31177D02*
X51098Y-31177D01*
X50679Y-31082D02*
X50964Y-30987D01*
X50964Y-31234D01*
X43598Y-30606D02*
X43198Y-30606D01*
X43198Y-30701D01*
X43217Y-30758D01*
X43255Y-30796D01*
X43293Y-30815D01*
X43369Y-30834D01*
X43426Y-30834D01*
X43502Y-30815D01*
X43540Y-30796D01*
X43579Y-30758D01*
X43598Y-30701D01*
X43598Y-30606D01*
X43198Y-30968D02*
X43198Y-31215D01*
X43350Y-31082D01*
X43350Y-31139D01*
X43369Y-31177D01*
X43388Y-31196D01*
X43426Y-31215D01*
X43521Y-31215D01*
X43560Y-31196D01*
X43579Y-31177D01*
X43598Y-31139D01*
X43598Y-31025D01*
X43579Y-30987D01*
X43560Y-30968D01*
X36279Y-32106D02*
X35879Y-32106D01*
X35879Y-32201D01*
X35898Y-32258D01*
X35936Y-32296D01*
X35974Y-32315D01*
X36050Y-32334D01*
X36107Y-32334D01*
X36183Y-32315D01*
X36221Y-32296D01*
X36259Y-32258D01*
X36279Y-32201D01*
X36279Y-32106D01*
X35917Y-32487D02*
X35898Y-32506D01*
X35879Y-32544D01*
X35879Y-32639D01*
X35898Y-32677D01*
X35917Y-32696D01*
X35955Y-32715D01*
X35993Y-32715D01*
X36050Y-32696D01*
X36279Y-32468D01*
X36279Y-32715D01*
X47347Y-37915D02*
X46947Y-37915D01*
X46947Y-38011D01*
X46966Y-38068D01*
X47004Y-38106D01*
X47042Y-38125D01*
X47119Y-38144D01*
X47176Y-38144D01*
X47252Y-38125D01*
X47290Y-38106D01*
X47328Y-38068D01*
X47347Y-38011D01*
X47347Y-37915D01*
X47347Y-38525D02*
X47347Y-38296D01*
X47347Y-38411D02*
X46947Y-38411D01*
X47004Y-38373D01*
X47042Y-38334D01*
X47062Y-38296D01*
X47119Y-38753D02*
X47100Y-38715D01*
X47081Y-38696D01*
X47042Y-38677D01*
X47023Y-38677D01*
X46985Y-38696D01*
X46966Y-38715D01*
X46947Y-38753D01*
X46947Y-38830D01*
X46966Y-38868D01*
X46985Y-38887D01*
X47023Y-38906D01*
X47042Y-38906D01*
X47081Y-38887D01*
X47100Y-38868D01*
X47119Y-38830D01*
X47119Y-38753D01*
X47138Y-38715D01*
X47157Y-38696D01*
X47195Y-38677D01*
X47271Y-38677D01*
X47309Y-38696D01*
X47328Y-38715D01*
X47347Y-38753D01*
X47347Y-38830D01*
X47328Y-38868D01*
X47309Y-38887D01*
X47271Y-38906D01*
X47195Y-38906D01*
X47157Y-38887D01*
X47138Y-38868D01*
X47119Y-38830D01*
X107347Y-37915D02*
X106947Y-37915D01*
X106947Y-38011D01*
X106966Y-38068D01*
X107004Y-38106D01*
X107042Y-38125D01*
X107119Y-38144D01*
X107176Y-38144D01*
X107252Y-38125D01*
X107290Y-38106D01*
X107328Y-38068D01*
X107347Y-38011D01*
X107347Y-37915D01*
X106985Y-38296D02*
X106966Y-38315D01*
X106947Y-38353D01*
X106947Y-38449D01*
X106966Y-38487D01*
X106985Y-38506D01*
X107023Y-38525D01*
X107062Y-38525D01*
X107119Y-38506D01*
X107347Y-38277D01*
X107347Y-38525D01*
X106947Y-38868D02*
X106947Y-38792D01*
X106966Y-38753D01*
X106985Y-38734D01*
X107042Y-38696D01*
X107119Y-38677D01*
X107271Y-38677D01*
X107309Y-38696D01*
X107328Y-38715D01*
X107347Y-38753D01*
X107347Y-38830D01*
X107328Y-38868D01*
X107309Y-38887D01*
X107271Y-38906D01*
X107176Y-38906D01*
X107138Y-38887D01*
X107119Y-38868D01*
X107100Y-38830D01*
X107100Y-38753D01*
X107119Y-38715D01*
X107138Y-38696D01*
X107176Y-38677D01*
X99847Y-37915D02*
X99447Y-37915D01*
X99447Y-38011D01*
X99466Y-38068D01*
X99504Y-38106D01*
X99542Y-38125D01*
X99619Y-38144D01*
X99676Y-38144D01*
X99752Y-38125D01*
X99790Y-38106D01*
X99828Y-38068D01*
X99847Y-38011D01*
X99847Y-37915D01*
X99485Y-38296D02*
X99466Y-38315D01*
X99447Y-38353D01*
X99447Y-38449D01*
X99466Y-38487D01*
X99485Y-38506D01*
X99523Y-38525D01*
X99562Y-38525D01*
X99619Y-38506D01*
X99847Y-38277D01*
X99847Y-38525D01*
X99447Y-38887D02*
X99447Y-38696D01*
X99638Y-38677D01*
X99619Y-38696D01*
X99600Y-38734D01*
X99600Y-38830D01*
X99619Y-38868D01*
X99638Y-38887D01*
X99676Y-38906D01*
X99771Y-38906D01*
X99809Y-38887D01*
X99828Y-38868D01*
X99847Y-38830D01*
X99847Y-38734D01*
X99828Y-38696D01*
X99809Y-38677D01*
X92347Y-37915D02*
X91947Y-37915D01*
X91947Y-38011D01*
X91966Y-38068D01*
X92004Y-38106D01*
X92042Y-38125D01*
X92119Y-38144D01*
X92176Y-38144D01*
X92252Y-38125D01*
X92290Y-38106D01*
X92328Y-38068D01*
X92347Y-38011D01*
X92347Y-37915D01*
X91985Y-38296D02*
X91966Y-38315D01*
X91947Y-38353D01*
X91947Y-38449D01*
X91966Y-38487D01*
X91985Y-38506D01*
X92023Y-38525D01*
X92062Y-38525D01*
X92119Y-38506D01*
X92347Y-38277D01*
X92347Y-38525D01*
X92081Y-38868D02*
X92347Y-38868D01*
X91928Y-38773D02*
X92214Y-38677D01*
X92214Y-38925D01*
X84847Y-37915D02*
X84447Y-37915D01*
X84447Y-38011D01*
X84466Y-38068D01*
X84504Y-38106D01*
X84542Y-38125D01*
X84619Y-38144D01*
X84676Y-38144D01*
X84752Y-38125D01*
X84790Y-38106D01*
X84828Y-38068D01*
X84847Y-38011D01*
X84847Y-37915D01*
X84485Y-38296D02*
X84466Y-38315D01*
X84447Y-38353D01*
X84447Y-38449D01*
X84466Y-38487D01*
X84485Y-38506D01*
X84523Y-38525D01*
X84562Y-38525D01*
X84619Y-38506D01*
X84847Y-38277D01*
X84847Y-38525D01*
X84447Y-38658D02*
X84447Y-38906D01*
X84600Y-38773D01*
X84600Y-38830D01*
X84619Y-38868D01*
X84638Y-38887D01*
X84676Y-38906D01*
X84771Y-38906D01*
X84809Y-38887D01*
X84828Y-38868D01*
X84847Y-38830D01*
X84847Y-38715D01*
X84828Y-38677D01*
X84809Y-38658D01*
X77347Y-37915D02*
X76947Y-37915D01*
X76947Y-38011D01*
X76966Y-38068D01*
X77004Y-38106D01*
X77042Y-38125D01*
X77119Y-38144D01*
X77176Y-38144D01*
X77252Y-38125D01*
X77290Y-38106D01*
X77328Y-38068D01*
X77347Y-38011D01*
X77347Y-37915D01*
X76985Y-38296D02*
X76966Y-38315D01*
X76947Y-38353D01*
X76947Y-38449D01*
X76966Y-38487D01*
X76985Y-38506D01*
X77023Y-38525D01*
X77062Y-38525D01*
X77119Y-38506D01*
X77347Y-38277D01*
X77347Y-38525D01*
X76985Y-38677D02*
X76966Y-38696D01*
X76947Y-38734D01*
X76947Y-38830D01*
X76966Y-38868D01*
X76985Y-38887D01*
X77023Y-38906D01*
X77062Y-38906D01*
X77119Y-38887D01*
X77347Y-38658D01*
X77347Y-38906D01*
X69847Y-37915D02*
X69447Y-37915D01*
X69447Y-38011D01*
X69466Y-38068D01*
X69504Y-38106D01*
X69542Y-38125D01*
X69619Y-38144D01*
X69676Y-38144D01*
X69752Y-38125D01*
X69790Y-38106D01*
X69828Y-38068D01*
X69847Y-38011D01*
X69847Y-37915D01*
X69485Y-38296D02*
X69466Y-38315D01*
X69447Y-38353D01*
X69447Y-38449D01*
X69466Y-38487D01*
X69485Y-38506D01*
X69523Y-38525D01*
X69562Y-38525D01*
X69619Y-38506D01*
X69847Y-38277D01*
X69847Y-38525D01*
X69847Y-38906D02*
X69847Y-38677D01*
X69847Y-38792D02*
X69447Y-38792D01*
X69504Y-38753D01*
X69542Y-38715D01*
X69562Y-38677D01*
X62347Y-37915D02*
X61947Y-37915D01*
X61947Y-38011D01*
X61966Y-38068D01*
X62004Y-38106D01*
X62042Y-38125D01*
X62119Y-38144D01*
X62176Y-38144D01*
X62252Y-38125D01*
X62290Y-38106D01*
X62328Y-38068D01*
X62347Y-38011D01*
X62347Y-37915D01*
X61985Y-38296D02*
X61966Y-38315D01*
X61947Y-38353D01*
X61947Y-38449D01*
X61966Y-38487D01*
X61985Y-38506D01*
X62023Y-38525D01*
X62062Y-38525D01*
X62119Y-38506D01*
X62347Y-38277D01*
X62347Y-38525D01*
X61947Y-38773D02*
X61947Y-38811D01*
X61966Y-38849D01*
X61985Y-38868D01*
X62023Y-38887D01*
X62100Y-38906D01*
X62195Y-38906D01*
X62271Y-38887D01*
X62309Y-38868D01*
X62328Y-38849D01*
X62347Y-38811D01*
X62347Y-38773D01*
X62328Y-38734D01*
X62309Y-38715D01*
X62271Y-38696D01*
X62195Y-38677D01*
X62100Y-38677D01*
X62023Y-38696D01*
X61985Y-38715D01*
X61966Y-38734D01*
X61947Y-38773D01*
X54847Y-37915D02*
X54447Y-37915D01*
X54447Y-38011D01*
X54466Y-38068D01*
X54504Y-38106D01*
X54542Y-38125D01*
X54619Y-38144D01*
X54676Y-38144D01*
X54752Y-38125D01*
X54790Y-38106D01*
X54828Y-38068D01*
X54847Y-38011D01*
X54847Y-37915D01*
X54847Y-38525D02*
X54847Y-38296D01*
X54847Y-38411D02*
X54447Y-38411D01*
X54504Y-38373D01*
X54542Y-38334D01*
X54562Y-38296D01*
X54847Y-38715D02*
X54847Y-38792D01*
X54828Y-38830D01*
X54809Y-38849D01*
X54752Y-38887D01*
X54676Y-38906D01*
X54523Y-38906D01*
X54485Y-38887D01*
X54466Y-38868D01*
X54447Y-38830D01*
X54447Y-38753D01*
X54466Y-38715D01*
X54485Y-38696D01*
X54523Y-38677D01*
X54619Y-38677D01*
X54657Y-38696D01*
X54676Y-38715D01*
X54695Y-38753D01*
X54695Y-38830D01*
X54676Y-38868D01*
X54657Y-38887D01*
X54619Y-38906D01*
X114847Y-37915D02*
X114447Y-37915D01*
X114447Y-38011D01*
X114466Y-38068D01*
X114504Y-38106D01*
X114542Y-38125D01*
X114619Y-38144D01*
X114676Y-38144D01*
X114752Y-38125D01*
X114790Y-38106D01*
X114828Y-38068D01*
X114847Y-38011D01*
X114847Y-37915D01*
X114485Y-38296D02*
X114466Y-38315D01*
X114447Y-38353D01*
X114447Y-38449D01*
X114466Y-38487D01*
X114485Y-38506D01*
X114523Y-38525D01*
X114562Y-38525D01*
X114619Y-38506D01*
X114847Y-38277D01*
X114847Y-38525D01*
X114447Y-38658D02*
X114447Y-38925D01*
X114847Y-38753D01*
X39847Y-37915D02*
X39447Y-37915D01*
X39447Y-38011D01*
X39466Y-38068D01*
X39504Y-38106D01*
X39542Y-38125D01*
X39619Y-38144D01*
X39676Y-38144D01*
X39752Y-38125D01*
X39790Y-38106D01*
X39828Y-38068D01*
X39847Y-38011D01*
X39847Y-37915D01*
X39847Y-38525D02*
X39847Y-38296D01*
X39847Y-38411D02*
X39447Y-38411D01*
X39504Y-38373D01*
X39542Y-38334D01*
X39562Y-38296D01*
X39447Y-38658D02*
X39447Y-38925D01*
X39847Y-38753D01*
X30472Y-37915D02*
X30072Y-37915D01*
X30072Y-38011D01*
X30091Y-38068D01*
X30130Y-38106D01*
X30168Y-38125D01*
X30244Y-38144D01*
X30301Y-38144D01*
X30377Y-38125D01*
X30415Y-38106D01*
X30453Y-38068D01*
X30472Y-38011D01*
X30472Y-37915D01*
X30472Y-38525D02*
X30472Y-38296D01*
X30472Y-38411D02*
X30072Y-38411D01*
X30130Y-38373D01*
X30168Y-38334D01*
X30187Y-38296D01*
X30072Y-38868D02*
X30072Y-38792D01*
X30091Y-38753D01*
X30111Y-38734D01*
X30168Y-38696D01*
X30244Y-38677D01*
X30396Y-38677D01*
X30434Y-38696D01*
X30453Y-38715D01*
X30472Y-38753D01*
X30472Y-38830D01*
X30453Y-38868D01*
X30434Y-38887D01*
X30396Y-38906D01*
X30301Y-38906D01*
X30263Y-38887D01*
X30244Y-38868D01*
X30225Y-38830D01*
X30225Y-38753D01*
X30244Y-38715D01*
X30263Y-38696D01*
X30301Y-38677D01*
X126098Y-30415D02*
X125698Y-30415D01*
X125698Y-30511D01*
X125717Y-30568D01*
X125755Y-30606D01*
X125793Y-30625D01*
X125869Y-30644D01*
X125926Y-30644D01*
X126002Y-30625D01*
X126040Y-30606D01*
X126079Y-30568D01*
X126098Y-30511D01*
X126098Y-30415D01*
X126098Y-31025D02*
X126098Y-30796D01*
X126098Y-30911D02*
X125698Y-30911D01*
X125755Y-30873D01*
X125793Y-30834D01*
X125812Y-30796D01*
X125831Y-31368D02*
X126098Y-31368D01*
X125679Y-31273D02*
X125964Y-31177D01*
X125964Y-31425D01*
X118598Y-30415D02*
X118198Y-30415D01*
X118198Y-30511D01*
X118217Y-30568D01*
X118255Y-30606D01*
X118293Y-30625D01*
X118369Y-30644D01*
X118426Y-30644D01*
X118502Y-30625D01*
X118540Y-30606D01*
X118579Y-30568D01*
X118598Y-30511D01*
X118598Y-30415D01*
X118598Y-31025D02*
X118598Y-30796D01*
X118598Y-30911D02*
X118198Y-30911D01*
X118255Y-30873D01*
X118293Y-30834D01*
X118312Y-30796D01*
X118198Y-31158D02*
X118198Y-31406D01*
X118350Y-31273D01*
X118350Y-31330D01*
X118369Y-31368D01*
X118388Y-31387D01*
X118426Y-31406D01*
X118521Y-31406D01*
X118560Y-31387D01*
X118579Y-31368D01*
X118598Y-31330D01*
X118598Y-31215D01*
X118579Y-31177D01*
X118560Y-31158D01*
X111098Y-30415D02*
X110698Y-30415D01*
X110698Y-30511D01*
X110717Y-30568D01*
X110755Y-30606D01*
X110793Y-30625D01*
X110869Y-30644D01*
X110926Y-30644D01*
X111002Y-30625D01*
X111040Y-30606D01*
X111079Y-30568D01*
X111098Y-30511D01*
X111098Y-30415D01*
X111098Y-31025D02*
X111098Y-30796D01*
X111098Y-30911D02*
X110698Y-30911D01*
X110755Y-30873D01*
X110793Y-30834D01*
X110812Y-30796D01*
X110736Y-31177D02*
X110717Y-31196D01*
X110698Y-31234D01*
X110698Y-31330D01*
X110717Y-31368D01*
X110736Y-31387D01*
X110774Y-31406D01*
X110812Y-31406D01*
X110869Y-31387D01*
X111098Y-31158D01*
X111098Y-31406D01*
X103598Y-30415D02*
X103198Y-30415D01*
X103198Y-30511D01*
X103217Y-30568D01*
X103255Y-30606D01*
X103293Y-30625D01*
X103369Y-30644D01*
X103426Y-30644D01*
X103502Y-30625D01*
X103540Y-30606D01*
X103579Y-30568D01*
X103598Y-30511D01*
X103598Y-30415D01*
X103598Y-31025D02*
X103598Y-30796D01*
X103598Y-30911D02*
X103198Y-30911D01*
X103255Y-30873D01*
X103293Y-30834D01*
X103312Y-30796D01*
X103598Y-31406D02*
X103598Y-31177D01*
X103598Y-31292D02*
X103198Y-31292D01*
X103255Y-31253D01*
X103293Y-31215D01*
X103312Y-31177D01*
X96098Y-30415D02*
X95698Y-30415D01*
X95698Y-30511D01*
X95717Y-30568D01*
X95755Y-30606D01*
X95793Y-30625D01*
X95869Y-30644D01*
X95926Y-30644D01*
X96002Y-30625D01*
X96040Y-30606D01*
X96079Y-30568D01*
X96098Y-30511D01*
X96098Y-30415D01*
X96098Y-31025D02*
X96098Y-30796D01*
X96098Y-30911D02*
X95698Y-30911D01*
X95755Y-30873D01*
X95793Y-30834D01*
X95812Y-30796D01*
X95698Y-31273D02*
X95698Y-31311D01*
X95717Y-31349D01*
X95736Y-31368D01*
X95774Y-31387D01*
X95850Y-31406D01*
X95945Y-31406D01*
X96021Y-31387D01*
X96060Y-31368D01*
X96079Y-31349D01*
X96098Y-31311D01*
X96098Y-31273D01*
X96079Y-31234D01*
X96060Y-31215D01*
X96021Y-31196D01*
X95945Y-31177D01*
X95850Y-31177D01*
X95774Y-31196D01*
X95736Y-31215D01*
X95717Y-31234D01*
X95698Y-31273D01*
X88598Y-30606D02*
X88198Y-30606D01*
X88198Y-30701D01*
X88217Y-30758D01*
X88255Y-30796D01*
X88293Y-30815D01*
X88369Y-30834D01*
X88426Y-30834D01*
X88502Y-30815D01*
X88540Y-30796D01*
X88579Y-30758D01*
X88598Y-30701D01*
X88598Y-30606D01*
X88598Y-31025D02*
X88598Y-31101D01*
X88579Y-31139D01*
X88560Y-31158D01*
X88502Y-31196D01*
X88426Y-31215D01*
X88274Y-31215D01*
X88236Y-31196D01*
X88217Y-31177D01*
X88198Y-31139D01*
X88198Y-31063D01*
X88217Y-31025D01*
X88236Y-31006D01*
X88274Y-30987D01*
X88369Y-30987D01*
X88407Y-31006D01*
X88426Y-31025D01*
X88445Y-31063D01*
X88445Y-31139D01*
X88426Y-31177D01*
X88407Y-31196D01*
X88369Y-31215D01*
X71722Y-45415D02*
X71322Y-45415D01*
X71322Y-45511D01*
X71341Y-45568D01*
X71380Y-45606D01*
X71418Y-45625D01*
X71494Y-45644D01*
X71551Y-45644D01*
X71627Y-45625D01*
X71665Y-45606D01*
X71703Y-45568D01*
X71722Y-45511D01*
X71722Y-45415D01*
X71322Y-45777D02*
X71322Y-46025D01*
X71475Y-45892D01*
X71475Y-45949D01*
X71494Y-45987D01*
X71513Y-46006D01*
X71551Y-46025D01*
X71646Y-46025D01*
X71684Y-46006D01*
X71703Y-45987D01*
X71722Y-45949D01*
X71722Y-45834D01*
X71703Y-45796D01*
X71684Y-45777D01*
X71322Y-46387D02*
X71322Y-46196D01*
X71513Y-46177D01*
X71494Y-46196D01*
X71475Y-46234D01*
X71475Y-46330D01*
X71494Y-46368D01*
X71513Y-46387D01*
X71551Y-46406D01*
X71646Y-46406D01*
X71684Y-46387D01*
X71703Y-46368D01*
X71722Y-46330D01*
X71722Y-46234D01*
X71703Y-46196D01*
X71684Y-46177D01*
X81098Y-30606D02*
X80698Y-30606D01*
X80698Y-30701D01*
X80717Y-30758D01*
X80755Y-30796D01*
X80793Y-30815D01*
X80869Y-30834D01*
X80926Y-30834D01*
X81002Y-30815D01*
X81040Y-30796D01*
X81079Y-30758D01*
X81098Y-30701D01*
X81098Y-30606D01*
X80869Y-31063D02*
X80850Y-31025D01*
X80831Y-31006D01*
X80793Y-30987D01*
X80774Y-30987D01*
X80736Y-31006D01*
X80717Y-31025D01*
X80698Y-31063D01*
X80698Y-31139D01*
X80717Y-31177D01*
X80736Y-31196D01*
X80774Y-31215D01*
X80793Y-31215D01*
X80831Y-31196D01*
X80850Y-31177D01*
X80869Y-31139D01*
X80869Y-31063D01*
X80888Y-31025D01*
X80907Y-31006D01*
X80945Y-30987D01*
X81021Y-30987D01*
X81060Y-31006D01*
X81079Y-31025D01*
X81098Y-31063D01*
X81098Y-31139D01*
X81079Y-31177D01*
X81060Y-31196D01*
X81021Y-31215D01*
X80945Y-31215D01*
X80907Y-31196D01*
X80888Y-31177D01*
X80869Y-31139D01*
X128894Y-45415D02*
X128494Y-45415D01*
X128494Y-45511D01*
X128513Y-45568D01*
X128551Y-45606D01*
X128589Y-45625D01*
X128666Y-45644D01*
X128723Y-45644D01*
X128799Y-45625D01*
X128837Y-45606D01*
X128875Y-45568D01*
X128894Y-45511D01*
X128894Y-45415D01*
X128627Y-45987D02*
X128894Y-45987D01*
X128475Y-45892D02*
X128761Y-45796D01*
X128761Y-46044D01*
X128532Y-46177D02*
X128513Y-46196D01*
X128494Y-46234D01*
X128494Y-46330D01*
X128513Y-46368D01*
X128532Y-46387D01*
X128570Y-46406D01*
X128608Y-46406D01*
X128666Y-46387D01*
X128894Y-46158D01*
X128894Y-46406D01*
X116722Y-45415D02*
X116322Y-45415D01*
X116322Y-45511D01*
X116341Y-45568D01*
X116380Y-45606D01*
X116418Y-45625D01*
X116494Y-45644D01*
X116551Y-45644D01*
X116627Y-45625D01*
X116665Y-45606D01*
X116703Y-45568D01*
X116722Y-45511D01*
X116722Y-45415D01*
X116456Y-45987D02*
X116722Y-45987D01*
X116303Y-45892D02*
X116589Y-45796D01*
X116589Y-46044D01*
X116722Y-46406D02*
X116722Y-46177D01*
X116722Y-46292D02*
X116322Y-46292D01*
X116380Y-46253D01*
X116418Y-46215D01*
X116437Y-46177D01*
X109222Y-45415D02*
X108822Y-45415D01*
X108822Y-45511D01*
X108841Y-45568D01*
X108880Y-45606D01*
X108918Y-45625D01*
X108994Y-45644D01*
X109051Y-45644D01*
X109127Y-45625D01*
X109165Y-45606D01*
X109203Y-45568D01*
X109222Y-45511D01*
X109222Y-45415D01*
X108956Y-45987D02*
X109222Y-45987D01*
X108803Y-45892D02*
X109089Y-45796D01*
X109089Y-46044D01*
X108822Y-46273D02*
X108822Y-46311D01*
X108841Y-46349D01*
X108861Y-46368D01*
X108899Y-46387D01*
X108975Y-46406D01*
X109070Y-46406D01*
X109146Y-46387D01*
X109184Y-46368D01*
X109203Y-46349D01*
X109222Y-46311D01*
X109222Y-46273D01*
X109203Y-46234D01*
X109184Y-46215D01*
X109146Y-46196D01*
X109070Y-46177D01*
X108975Y-46177D01*
X108899Y-46196D01*
X108861Y-46215D01*
X108841Y-46234D01*
X108822Y-46273D01*
X101722Y-45415D02*
X101322Y-45415D01*
X101322Y-45511D01*
X101341Y-45568D01*
X101380Y-45606D01*
X101418Y-45625D01*
X101494Y-45644D01*
X101551Y-45644D01*
X101627Y-45625D01*
X101665Y-45606D01*
X101703Y-45568D01*
X101722Y-45511D01*
X101722Y-45415D01*
X101322Y-45777D02*
X101322Y-46025D01*
X101475Y-45892D01*
X101475Y-45949D01*
X101494Y-45987D01*
X101513Y-46006D01*
X101551Y-46025D01*
X101646Y-46025D01*
X101684Y-46006D01*
X101703Y-45987D01*
X101722Y-45949D01*
X101722Y-45834D01*
X101703Y-45796D01*
X101684Y-45777D01*
X101722Y-46215D02*
X101722Y-46292D01*
X101703Y-46330D01*
X101684Y-46349D01*
X101627Y-46387D01*
X101551Y-46406D01*
X101399Y-46406D01*
X101361Y-46387D01*
X101341Y-46368D01*
X101322Y-46330D01*
X101322Y-46253D01*
X101341Y-46215D01*
X101361Y-46196D01*
X101399Y-46177D01*
X101494Y-46177D01*
X101532Y-46196D01*
X101551Y-46215D01*
X101570Y-46253D01*
X101570Y-46330D01*
X101551Y-46368D01*
X101532Y-46387D01*
X101494Y-46406D01*
X94222Y-45415D02*
X93822Y-45415D01*
X93822Y-45511D01*
X93841Y-45568D01*
X93880Y-45606D01*
X93918Y-45625D01*
X93994Y-45644D01*
X94051Y-45644D01*
X94127Y-45625D01*
X94165Y-45606D01*
X94203Y-45568D01*
X94222Y-45511D01*
X94222Y-45415D01*
X93822Y-45777D02*
X93822Y-46025D01*
X93975Y-45892D01*
X93975Y-45949D01*
X93994Y-45987D01*
X94013Y-46006D01*
X94051Y-46025D01*
X94146Y-46025D01*
X94184Y-46006D01*
X94203Y-45987D01*
X94222Y-45949D01*
X94222Y-45834D01*
X94203Y-45796D01*
X94184Y-45777D01*
X93994Y-46253D02*
X93975Y-46215D01*
X93956Y-46196D01*
X93918Y-46177D01*
X93899Y-46177D01*
X93861Y-46196D01*
X93841Y-46215D01*
X93822Y-46253D01*
X93822Y-46330D01*
X93841Y-46368D01*
X93861Y-46387D01*
X93899Y-46406D01*
X93918Y-46406D01*
X93956Y-46387D01*
X93975Y-46368D01*
X93994Y-46330D01*
X93994Y-46253D01*
X94013Y-46215D01*
X94032Y-46196D01*
X94070Y-46177D01*
X94146Y-46177D01*
X94184Y-46196D01*
X94203Y-46215D01*
X94222Y-46253D01*
X94222Y-46330D01*
X94203Y-46368D01*
X94184Y-46387D01*
X94146Y-46406D01*
X94070Y-46406D01*
X94032Y-46387D01*
X94013Y-46368D01*
X93994Y-46330D01*
X86722Y-45415D02*
X86322Y-45415D01*
X86322Y-45511D01*
X86341Y-45568D01*
X86380Y-45606D01*
X86418Y-45625D01*
X86494Y-45644D01*
X86551Y-45644D01*
X86627Y-45625D01*
X86665Y-45606D01*
X86703Y-45568D01*
X86722Y-45511D01*
X86722Y-45415D01*
X86322Y-45777D02*
X86322Y-46025D01*
X86475Y-45892D01*
X86475Y-45949D01*
X86494Y-45987D01*
X86513Y-46006D01*
X86551Y-46025D01*
X86646Y-46025D01*
X86684Y-46006D01*
X86703Y-45987D01*
X86722Y-45949D01*
X86722Y-45834D01*
X86703Y-45796D01*
X86684Y-45777D01*
X86322Y-46158D02*
X86322Y-46425D01*
X86722Y-46253D01*
X79222Y-45415D02*
X78822Y-45415D01*
X78822Y-45511D01*
X78841Y-45568D01*
X78880Y-45606D01*
X78918Y-45625D01*
X78994Y-45644D01*
X79051Y-45644D01*
X79127Y-45625D01*
X79165Y-45606D01*
X79203Y-45568D01*
X79222Y-45511D01*
X79222Y-45415D01*
X78822Y-45777D02*
X78822Y-46025D01*
X78975Y-45892D01*
X78975Y-45949D01*
X78994Y-45987D01*
X79013Y-46006D01*
X79051Y-46025D01*
X79146Y-46025D01*
X79184Y-46006D01*
X79203Y-45987D01*
X79222Y-45949D01*
X79222Y-45834D01*
X79203Y-45796D01*
X79184Y-45777D01*
X78822Y-46368D02*
X78822Y-46292D01*
X78841Y-46253D01*
X78861Y-46234D01*
X78918Y-46196D01*
X78994Y-46177D01*
X79146Y-46177D01*
X79184Y-46196D01*
X79203Y-46215D01*
X79222Y-46253D01*
X79222Y-46330D01*
X79203Y-46368D01*
X79184Y-46387D01*
X79146Y-46406D01*
X79051Y-46406D01*
X79013Y-46387D01*
X78994Y-46368D01*
X78975Y-46330D01*
X78975Y-46253D01*
X78994Y-46215D01*
X79013Y-46196D01*
X79051Y-46177D01*
X45472Y-52915D02*
X45072Y-52915D01*
X45072Y-53011D01*
X45091Y-53068D01*
X45130Y-53106D01*
X45168Y-53125D01*
X45244Y-53144D01*
X45301Y-53144D01*
X45377Y-53125D01*
X45415Y-53106D01*
X45453Y-53068D01*
X45472Y-53011D01*
X45472Y-52915D01*
X45206Y-53487D02*
X45472Y-53487D01*
X45053Y-53392D02*
X45339Y-53296D01*
X45339Y-53544D01*
X45206Y-53868D02*
X45472Y-53868D01*
X45053Y-53773D02*
X45339Y-53677D01*
X45339Y-53925D01*
X64222Y-45415D02*
X63822Y-45415D01*
X63822Y-45511D01*
X63841Y-45568D01*
X63880Y-45606D01*
X63918Y-45625D01*
X63994Y-45644D01*
X64051Y-45644D01*
X64127Y-45625D01*
X64165Y-45606D01*
X64203Y-45568D01*
X64222Y-45511D01*
X64222Y-45415D01*
X63822Y-45777D02*
X63822Y-46025D01*
X63975Y-45892D01*
X63975Y-45949D01*
X63994Y-45987D01*
X64013Y-46006D01*
X64051Y-46025D01*
X64146Y-46025D01*
X64184Y-46006D01*
X64203Y-45987D01*
X64222Y-45949D01*
X64222Y-45834D01*
X64203Y-45796D01*
X64184Y-45777D01*
X63956Y-46368D02*
X64222Y-46368D01*
X63803Y-46273D02*
X64089Y-46177D01*
X64089Y-46425D01*
X56722Y-45415D02*
X56322Y-45415D01*
X56322Y-45511D01*
X56341Y-45568D01*
X56380Y-45606D01*
X56418Y-45625D01*
X56494Y-45644D01*
X56551Y-45644D01*
X56627Y-45625D01*
X56665Y-45606D01*
X56703Y-45568D01*
X56722Y-45511D01*
X56722Y-45415D01*
X56322Y-45777D02*
X56322Y-46025D01*
X56475Y-45892D01*
X56475Y-45949D01*
X56494Y-45987D01*
X56513Y-46006D01*
X56551Y-46025D01*
X56646Y-46025D01*
X56684Y-46006D01*
X56703Y-45987D01*
X56722Y-45949D01*
X56722Y-45834D01*
X56703Y-45796D01*
X56684Y-45777D01*
X56322Y-46158D02*
X56322Y-46406D01*
X56475Y-46273D01*
X56475Y-46330D01*
X56494Y-46368D01*
X56513Y-46387D01*
X56551Y-46406D01*
X56646Y-46406D01*
X56684Y-46387D01*
X56703Y-46368D01*
X56722Y-46330D01*
X56722Y-46215D01*
X56703Y-46177D01*
X56684Y-46158D01*
X49222Y-45415D02*
X48822Y-45415D01*
X48822Y-45511D01*
X48841Y-45568D01*
X48880Y-45606D01*
X48918Y-45625D01*
X48994Y-45644D01*
X49051Y-45644D01*
X49127Y-45625D01*
X49165Y-45606D01*
X49203Y-45568D01*
X49222Y-45511D01*
X49222Y-45415D01*
X48822Y-45777D02*
X48822Y-46025D01*
X48975Y-45892D01*
X48975Y-45949D01*
X48994Y-45987D01*
X49013Y-46006D01*
X49051Y-46025D01*
X49146Y-46025D01*
X49184Y-46006D01*
X49203Y-45987D01*
X49222Y-45949D01*
X49222Y-45834D01*
X49203Y-45796D01*
X49184Y-45777D01*
X48861Y-46177D02*
X48841Y-46196D01*
X48822Y-46234D01*
X48822Y-46330D01*
X48841Y-46368D01*
X48861Y-46387D01*
X48899Y-46406D01*
X48937Y-46406D01*
X48994Y-46387D01*
X49222Y-46158D01*
X49222Y-46406D01*
X41722Y-45415D02*
X41322Y-45415D01*
X41322Y-45511D01*
X41341Y-45568D01*
X41380Y-45606D01*
X41418Y-45625D01*
X41494Y-45644D01*
X41551Y-45644D01*
X41627Y-45625D01*
X41665Y-45606D01*
X41703Y-45568D01*
X41722Y-45511D01*
X41722Y-45415D01*
X41322Y-45777D02*
X41322Y-46025D01*
X41475Y-45892D01*
X41475Y-45949D01*
X41494Y-45987D01*
X41513Y-46006D01*
X41551Y-46025D01*
X41646Y-46025D01*
X41684Y-46006D01*
X41703Y-45987D01*
X41722Y-45949D01*
X41722Y-45834D01*
X41703Y-45796D01*
X41684Y-45777D01*
X41722Y-46406D02*
X41722Y-46177D01*
X41722Y-46292D02*
X41322Y-46292D01*
X41380Y-46253D01*
X41418Y-46215D01*
X41437Y-46177D01*
X31395Y-45415D02*
X30995Y-45415D01*
X30995Y-45511D01*
X31014Y-45568D01*
X31052Y-45606D01*
X31090Y-45625D01*
X31166Y-45644D01*
X31223Y-45644D01*
X31299Y-45625D01*
X31338Y-45606D01*
X31376Y-45568D01*
X31395Y-45511D01*
X31395Y-45415D01*
X30995Y-45777D02*
X30995Y-46025D01*
X31147Y-45892D01*
X31147Y-45949D01*
X31166Y-45987D01*
X31185Y-46006D01*
X31223Y-46025D01*
X31318Y-46025D01*
X31357Y-46006D01*
X31376Y-45987D01*
X31395Y-45949D01*
X31395Y-45834D01*
X31376Y-45796D01*
X31357Y-45777D01*
X30995Y-46273D02*
X30995Y-46311D01*
X31014Y-46349D01*
X31033Y-46368D01*
X31071Y-46387D01*
X31147Y-46406D01*
X31242Y-46406D01*
X31318Y-46387D01*
X31357Y-46368D01*
X31376Y-46349D01*
X31395Y-46311D01*
X31395Y-46273D01*
X31376Y-46234D01*
X31357Y-46215D01*
X31318Y-46196D01*
X31242Y-46177D01*
X31147Y-46177D01*
X31071Y-46196D01*
X31033Y-46215D01*
X31014Y-46234D01*
X30995Y-46273D01*
X131707Y-37915D02*
X131307Y-37915D01*
X131307Y-38011D01*
X131326Y-38068D01*
X131364Y-38106D01*
X131402Y-38125D01*
X131478Y-38144D01*
X131535Y-38144D01*
X131611Y-38125D01*
X131650Y-38106D01*
X131688Y-38068D01*
X131707Y-38011D01*
X131707Y-37915D01*
X131345Y-38296D02*
X131326Y-38315D01*
X131307Y-38353D01*
X131307Y-38449D01*
X131326Y-38487D01*
X131345Y-38506D01*
X131383Y-38525D01*
X131421Y-38525D01*
X131478Y-38506D01*
X131707Y-38277D01*
X131707Y-38525D01*
X131707Y-38715D02*
X131707Y-38792D01*
X131688Y-38830D01*
X131669Y-38849D01*
X131611Y-38887D01*
X131535Y-38906D01*
X131383Y-38906D01*
X131345Y-38887D01*
X131326Y-38868D01*
X131307Y-38830D01*
X131307Y-38753D01*
X131326Y-38715D01*
X131345Y-38696D01*
X131383Y-38677D01*
X131478Y-38677D01*
X131516Y-38696D01*
X131535Y-38715D01*
X131554Y-38753D01*
X131554Y-38830D01*
X131535Y-38868D01*
X131516Y-38887D01*
X131478Y-38906D01*
X122347Y-37915D02*
X121947Y-37915D01*
X121947Y-38011D01*
X121966Y-38068D01*
X122004Y-38106D01*
X122042Y-38125D01*
X122119Y-38144D01*
X122176Y-38144D01*
X122252Y-38125D01*
X122290Y-38106D01*
X122328Y-38068D01*
X122347Y-38011D01*
X122347Y-37915D01*
X121985Y-38296D02*
X121966Y-38315D01*
X121947Y-38353D01*
X121947Y-38449D01*
X121966Y-38487D01*
X121985Y-38506D01*
X122023Y-38525D01*
X122062Y-38525D01*
X122119Y-38506D01*
X122347Y-38277D01*
X122347Y-38525D01*
X122119Y-38753D02*
X122100Y-38715D01*
X122081Y-38696D01*
X122042Y-38677D01*
X122023Y-38677D01*
X121985Y-38696D01*
X121966Y-38715D01*
X121947Y-38753D01*
X121947Y-38830D01*
X121966Y-38868D01*
X121985Y-38887D01*
X122023Y-38906D01*
X122042Y-38906D01*
X122081Y-38887D01*
X122100Y-38868D01*
X122119Y-38830D01*
X122119Y-38753D01*
X122138Y-38715D01*
X122157Y-38696D01*
X122195Y-38677D01*
X122271Y-38677D01*
X122309Y-38696D01*
X122328Y-38715D01*
X122347Y-38753D01*
X122347Y-38830D01*
X122328Y-38868D01*
X122309Y-38887D01*
X122271Y-38906D01*
X122195Y-38906D01*
X122157Y-38887D01*
X122138Y-38868D01*
X122119Y-38830D01*
X133598Y-30415D02*
X133198Y-30415D01*
X133198Y-30511D01*
X133217Y-30568D01*
X133255Y-30606D01*
X133293Y-30625D01*
X133369Y-30644D01*
X133426Y-30644D01*
X133502Y-30625D01*
X133540Y-30606D01*
X133579Y-30568D01*
X133598Y-30511D01*
X133598Y-30415D01*
X133598Y-31025D02*
X133598Y-30796D01*
X133598Y-30911D02*
X133198Y-30911D01*
X133255Y-30873D01*
X133293Y-30834D01*
X133312Y-30796D01*
X133198Y-31387D02*
X133198Y-31196D01*
X133388Y-31177D01*
X133369Y-31196D01*
X133350Y-31234D01*
X133350Y-31330D01*
X133369Y-31368D01*
X133388Y-31387D01*
X133426Y-31406D01*
X133521Y-31406D01*
X133560Y-31387D01*
X133579Y-31368D01*
X133598Y-31330D01*
X133598Y-31234D01*
X133579Y-31196D01*
X133560Y-31177D01*
G54D11*
X31888Y-24811D02*
X31888Y-25240D01*
X31917Y-25325D01*
X31974Y-25383D01*
X32060Y-25411D01*
X32117Y-25411D01*
X31288Y-25411D02*
X31631Y-25411D01*
X31460Y-25411D02*
X31460Y-24811D01*
X31517Y-24897D01*
X31574Y-24954D01*
X31631Y-24983D01*
X132418Y-31377D02*
X132332Y-31405D01*
X132189Y-31405D01*
X132132Y-31377D01*
X132103Y-31348D01*
X132075Y-31291D01*
X132075Y-31234D01*
X132103Y-31177D01*
X132132Y-31148D01*
X132189Y-31120D01*
X132303Y-31091D01*
X132360Y-31062D01*
X132389Y-31034D01*
X132418Y-30977D01*
X132418Y-30920D01*
X132389Y-30862D01*
X132360Y-30834D01*
X132303Y-30805D01*
X132160Y-30805D01*
X132075Y-30834D01*
X131503Y-31405D02*
X131846Y-31405D01*
X131675Y-31405D02*
X131675Y-30805D01*
X131732Y-30891D01*
X131789Y-30948D01*
X131846Y-30977D01*
X130960Y-30805D02*
X131246Y-30805D01*
X131275Y-31091D01*
X131246Y-31062D01*
X131189Y-31034D01*
X131046Y-31034D01*
X130989Y-31062D01*
X130960Y-31091D01*
X130932Y-31148D01*
X130932Y-31291D01*
X130960Y-31348D01*
X130989Y-31377D01*
X131046Y-31405D01*
X131189Y-31405D01*
X131246Y-31377D01*
X131275Y-31348D01*
X59292Y-53877D02*
X59207Y-53905D01*
X59064Y-53905D01*
X59007Y-53877D01*
X58978Y-53848D01*
X58950Y-53791D01*
X58950Y-53734D01*
X58978Y-53677D01*
X59007Y-53648D01*
X59064Y-53620D01*
X59178Y-53591D01*
X59235Y-53562D01*
X59264Y-53534D01*
X59292Y-53477D01*
X59292Y-53420D01*
X59264Y-53362D01*
X59235Y-53334D01*
X59178Y-53305D01*
X59035Y-53305D01*
X58950Y-53334D01*
X58435Y-53505D02*
X58435Y-53905D01*
X58578Y-53277D02*
X58721Y-53705D01*
X58350Y-53705D01*
X57864Y-53305D02*
X57978Y-53305D01*
X58035Y-53334D01*
X58064Y-53362D01*
X58121Y-53448D01*
X58149Y-53562D01*
X58149Y-53791D01*
X58121Y-53848D01*
X58092Y-53877D01*
X58035Y-53905D01*
X57921Y-53905D01*
X57864Y-53877D01*
X57835Y-53848D01*
X57807Y-53791D01*
X57807Y-53648D01*
X57835Y-53591D01*
X57864Y-53562D01*
X57921Y-53534D01*
X58035Y-53534D01*
X58092Y-53562D01*
X58121Y-53591D01*
X58149Y-53648D01*
X38667Y-61376D02*
X38581Y-61405D01*
X38439Y-61405D01*
X38381Y-61376D01*
X38353Y-61348D01*
X38324Y-61291D01*
X38324Y-61234D01*
X38353Y-61176D01*
X38381Y-61148D01*
X38439Y-61119D01*
X38553Y-61091D01*
X38610Y-61062D01*
X38639Y-61034D01*
X38667Y-60976D01*
X38667Y-60919D01*
X38639Y-60862D01*
X38610Y-60834D01*
X38553Y-60805D01*
X38410Y-60805D01*
X38324Y-60834D01*
X37781Y-60805D02*
X38067Y-60805D01*
X38096Y-61091D01*
X38067Y-61062D01*
X38010Y-61034D01*
X37867Y-61034D01*
X37810Y-61062D01*
X37781Y-61091D01*
X37753Y-61148D01*
X37753Y-61291D01*
X37781Y-61348D01*
X37810Y-61376D01*
X37867Y-61405D01*
X38010Y-61405D01*
X38067Y-61376D01*
X38096Y-61348D01*
X37553Y-60805D02*
X37153Y-60805D01*
X37410Y-61405D01*
X111792Y-53877D02*
X111707Y-53905D01*
X111564Y-53905D01*
X111507Y-53877D01*
X111478Y-53848D01*
X111450Y-53791D01*
X111450Y-53734D01*
X111478Y-53677D01*
X111507Y-53648D01*
X111564Y-53620D01*
X111678Y-53591D01*
X111735Y-53562D01*
X111764Y-53534D01*
X111792Y-53477D01*
X111792Y-53420D01*
X111764Y-53362D01*
X111735Y-53334D01*
X111678Y-53305D01*
X111535Y-53305D01*
X111450Y-53334D01*
X110907Y-53305D02*
X111192Y-53305D01*
X111221Y-53591D01*
X111192Y-53562D01*
X111135Y-53534D01*
X110992Y-53534D01*
X110935Y-53562D01*
X110907Y-53591D01*
X110878Y-53648D01*
X110878Y-53791D01*
X110907Y-53848D01*
X110935Y-53877D01*
X110992Y-53905D01*
X111135Y-53905D01*
X111192Y-53877D01*
X111221Y-53848D01*
X110678Y-53305D02*
X110307Y-53305D01*
X110507Y-53534D01*
X110421Y-53534D01*
X110364Y-53562D01*
X110335Y-53591D01*
X110307Y-53648D01*
X110307Y-53791D01*
X110335Y-53848D01*
X110364Y-53877D01*
X110421Y-53905D01*
X110592Y-53905D01*
X110649Y-53877D01*
X110678Y-53848D01*
X104292Y-53877D02*
X104207Y-53905D01*
X104064Y-53905D01*
X104007Y-53877D01*
X103978Y-53848D01*
X103950Y-53791D01*
X103950Y-53734D01*
X103978Y-53677D01*
X104007Y-53648D01*
X104064Y-53620D01*
X104178Y-53591D01*
X104235Y-53562D01*
X104264Y-53534D01*
X104292Y-53477D01*
X104292Y-53420D01*
X104264Y-53362D01*
X104235Y-53334D01*
X104178Y-53305D01*
X104035Y-53305D01*
X103950Y-53334D01*
X103407Y-53305D02*
X103692Y-53305D01*
X103721Y-53591D01*
X103692Y-53562D01*
X103635Y-53534D01*
X103492Y-53534D01*
X103435Y-53562D01*
X103407Y-53591D01*
X103378Y-53648D01*
X103378Y-53791D01*
X103407Y-53848D01*
X103435Y-53877D01*
X103492Y-53905D01*
X103635Y-53905D01*
X103692Y-53877D01*
X103721Y-53848D01*
X103149Y-53362D02*
X103121Y-53334D01*
X103064Y-53305D01*
X102921Y-53305D01*
X102864Y-53334D01*
X102835Y-53362D01*
X102807Y-53420D01*
X102807Y-53477D01*
X102835Y-53562D01*
X103178Y-53905D01*
X102807Y-53905D01*
X96792Y-53877D02*
X96707Y-53905D01*
X96564Y-53905D01*
X96507Y-53877D01*
X96478Y-53848D01*
X96450Y-53791D01*
X96450Y-53734D01*
X96478Y-53677D01*
X96507Y-53648D01*
X96564Y-53620D01*
X96678Y-53591D01*
X96735Y-53562D01*
X96764Y-53534D01*
X96792Y-53477D01*
X96792Y-53420D01*
X96764Y-53362D01*
X96735Y-53334D01*
X96678Y-53305D01*
X96535Y-53305D01*
X96450Y-53334D01*
X95907Y-53305D02*
X96192Y-53305D01*
X96221Y-53591D01*
X96192Y-53562D01*
X96135Y-53534D01*
X95992Y-53534D01*
X95935Y-53562D01*
X95907Y-53591D01*
X95878Y-53648D01*
X95878Y-53791D01*
X95907Y-53848D01*
X95935Y-53877D01*
X95992Y-53905D01*
X96135Y-53905D01*
X96192Y-53877D01*
X96221Y-53848D01*
X95307Y-53905D02*
X95649Y-53905D01*
X95478Y-53905D02*
X95478Y-53305D01*
X95535Y-53391D01*
X95592Y-53448D01*
X95649Y-53477D01*
X89292Y-53877D02*
X89207Y-53905D01*
X89064Y-53905D01*
X89007Y-53877D01*
X88978Y-53848D01*
X88950Y-53791D01*
X88950Y-53734D01*
X88978Y-53677D01*
X89007Y-53648D01*
X89064Y-53620D01*
X89178Y-53591D01*
X89235Y-53562D01*
X89264Y-53534D01*
X89292Y-53477D01*
X89292Y-53420D01*
X89264Y-53362D01*
X89235Y-53334D01*
X89178Y-53305D01*
X89035Y-53305D01*
X88950Y-53334D01*
X88407Y-53305D02*
X88692Y-53305D01*
X88721Y-53591D01*
X88692Y-53562D01*
X88635Y-53534D01*
X88492Y-53534D01*
X88435Y-53562D01*
X88407Y-53591D01*
X88378Y-53648D01*
X88378Y-53791D01*
X88407Y-53848D01*
X88435Y-53877D01*
X88492Y-53905D01*
X88635Y-53905D01*
X88692Y-53877D01*
X88721Y-53848D01*
X88007Y-53305D02*
X87949Y-53305D01*
X87892Y-53334D01*
X87864Y-53362D01*
X87835Y-53420D01*
X87807Y-53534D01*
X87807Y-53677D01*
X87835Y-53791D01*
X87864Y-53848D01*
X87892Y-53877D01*
X87949Y-53905D01*
X88007Y-53905D01*
X88064Y-53877D01*
X88092Y-53848D01*
X88121Y-53791D01*
X88149Y-53677D01*
X88149Y-53534D01*
X88121Y-53420D01*
X88092Y-53362D01*
X88064Y-53334D01*
X88007Y-53305D01*
X81792Y-53877D02*
X81707Y-53905D01*
X81564Y-53905D01*
X81507Y-53877D01*
X81478Y-53848D01*
X81450Y-53791D01*
X81450Y-53734D01*
X81478Y-53677D01*
X81507Y-53648D01*
X81564Y-53620D01*
X81678Y-53591D01*
X81735Y-53562D01*
X81764Y-53534D01*
X81792Y-53477D01*
X81792Y-53420D01*
X81764Y-53362D01*
X81735Y-53334D01*
X81678Y-53305D01*
X81535Y-53305D01*
X81450Y-53334D01*
X80935Y-53505D02*
X80935Y-53905D01*
X81078Y-53277D02*
X81221Y-53705D01*
X80850Y-53705D01*
X80592Y-53905D02*
X80478Y-53905D01*
X80421Y-53877D01*
X80392Y-53848D01*
X80335Y-53762D01*
X80307Y-53648D01*
X80307Y-53420D01*
X80335Y-53362D01*
X80364Y-53334D01*
X80421Y-53305D01*
X80535Y-53305D01*
X80592Y-53334D01*
X80621Y-53362D01*
X80649Y-53420D01*
X80649Y-53562D01*
X80621Y-53620D01*
X80592Y-53648D01*
X80535Y-53677D01*
X80421Y-53677D01*
X80364Y-53648D01*
X80335Y-53620D01*
X80307Y-53562D01*
X74292Y-53877D02*
X74207Y-53905D01*
X74064Y-53905D01*
X74007Y-53877D01*
X73978Y-53848D01*
X73950Y-53791D01*
X73950Y-53734D01*
X73978Y-53677D01*
X74007Y-53648D01*
X74064Y-53620D01*
X74178Y-53591D01*
X74235Y-53562D01*
X74264Y-53534D01*
X74292Y-53477D01*
X74292Y-53420D01*
X74264Y-53362D01*
X74235Y-53334D01*
X74178Y-53305D01*
X74035Y-53305D01*
X73950Y-53334D01*
X73435Y-53505D02*
X73435Y-53905D01*
X73578Y-53277D02*
X73721Y-53705D01*
X73350Y-53705D01*
X73035Y-53562D02*
X73092Y-53534D01*
X73121Y-53505D01*
X73149Y-53448D01*
X73149Y-53420D01*
X73121Y-53362D01*
X73092Y-53334D01*
X73035Y-53305D01*
X72921Y-53305D01*
X72864Y-53334D01*
X72835Y-53362D01*
X72807Y-53420D01*
X72807Y-53448D01*
X72835Y-53505D01*
X72864Y-53534D01*
X72921Y-53562D01*
X73035Y-53562D01*
X73092Y-53591D01*
X73121Y-53620D01*
X73149Y-53677D01*
X73149Y-53791D01*
X73121Y-53848D01*
X73092Y-53877D01*
X73035Y-53905D01*
X72921Y-53905D01*
X72864Y-53877D01*
X72835Y-53848D01*
X72807Y-53791D01*
X72807Y-53677D01*
X72835Y-53620D01*
X72864Y-53591D01*
X72921Y-53562D01*
X66792Y-53877D02*
X66707Y-53905D01*
X66564Y-53905D01*
X66507Y-53877D01*
X66478Y-53848D01*
X66450Y-53791D01*
X66450Y-53734D01*
X66478Y-53677D01*
X66507Y-53648D01*
X66564Y-53620D01*
X66678Y-53591D01*
X66735Y-53562D01*
X66764Y-53534D01*
X66792Y-53477D01*
X66792Y-53420D01*
X66764Y-53362D01*
X66735Y-53334D01*
X66678Y-53305D01*
X66535Y-53305D01*
X66450Y-53334D01*
X65935Y-53505D02*
X65935Y-53905D01*
X66078Y-53277D02*
X66221Y-53705D01*
X65850Y-53705D01*
X65678Y-53305D02*
X65278Y-53305D01*
X65535Y-53905D01*
X51792Y-53877D02*
X51707Y-53905D01*
X51564Y-53905D01*
X51507Y-53877D01*
X51478Y-53848D01*
X51450Y-53791D01*
X51450Y-53734D01*
X51478Y-53677D01*
X51507Y-53648D01*
X51564Y-53620D01*
X51678Y-53591D01*
X51735Y-53562D01*
X51764Y-53534D01*
X51792Y-53477D01*
X51792Y-53420D01*
X51764Y-53362D01*
X51735Y-53334D01*
X51678Y-53305D01*
X51535Y-53305D01*
X51450Y-53334D01*
X50935Y-53505D02*
X50935Y-53905D01*
X51078Y-53277D02*
X51221Y-53705D01*
X50850Y-53705D01*
X50335Y-53305D02*
X50621Y-53305D01*
X50649Y-53591D01*
X50621Y-53562D01*
X50564Y-53534D01*
X50421Y-53534D01*
X50364Y-53562D01*
X50335Y-53591D01*
X50307Y-53648D01*
X50307Y-53791D01*
X50335Y-53848D01*
X50364Y-53877D01*
X50421Y-53905D01*
X50564Y-53905D01*
X50621Y-53877D01*
X50649Y-53848D01*
X44292Y-53877D02*
X44207Y-53905D01*
X44064Y-53905D01*
X44007Y-53877D01*
X43978Y-53848D01*
X43950Y-53791D01*
X43950Y-53734D01*
X43978Y-53677D01*
X44007Y-53648D01*
X44064Y-53620D01*
X44178Y-53591D01*
X44235Y-53562D01*
X44264Y-53534D01*
X44292Y-53477D01*
X44292Y-53420D01*
X44264Y-53362D01*
X44235Y-53334D01*
X44178Y-53305D01*
X44035Y-53305D01*
X43950Y-53334D01*
X43435Y-53505D02*
X43435Y-53905D01*
X43578Y-53277D02*
X43721Y-53705D01*
X43350Y-53705D01*
X42864Y-53505D02*
X42864Y-53905D01*
X43007Y-53277D02*
X43149Y-53705D01*
X42778Y-53705D01*
X32105Y-53876D02*
X32019Y-53905D01*
X31876Y-53905D01*
X31819Y-53876D01*
X31791Y-53848D01*
X31762Y-53791D01*
X31762Y-53734D01*
X31791Y-53676D01*
X31819Y-53648D01*
X31876Y-53619D01*
X31991Y-53591D01*
X32048Y-53562D01*
X32076Y-53534D01*
X32105Y-53476D01*
X32105Y-53419D01*
X32076Y-53362D01*
X32048Y-53334D01*
X31991Y-53305D01*
X31848Y-53305D01*
X31762Y-53334D01*
X31248Y-53505D02*
X31248Y-53905D01*
X31391Y-53276D02*
X31533Y-53705D01*
X31162Y-53705D01*
X30991Y-53305D02*
X30619Y-53305D01*
X30819Y-53534D01*
X30733Y-53534D01*
X30676Y-53562D01*
X30648Y-53591D01*
X30619Y-53648D01*
X30619Y-53791D01*
X30648Y-53848D01*
X30676Y-53876D01*
X30733Y-53905D01*
X30905Y-53905D01*
X30962Y-53876D01*
X30991Y-53848D01*
X127730Y-46376D02*
X127644Y-46405D01*
X127501Y-46405D01*
X127444Y-46376D01*
X127415Y-46348D01*
X127387Y-46291D01*
X127387Y-46234D01*
X127415Y-46176D01*
X127444Y-46148D01*
X127501Y-46119D01*
X127615Y-46091D01*
X127673Y-46062D01*
X127701Y-46034D01*
X127730Y-45976D01*
X127730Y-45919D01*
X127701Y-45862D01*
X127673Y-45834D01*
X127615Y-45805D01*
X127473Y-45805D01*
X127387Y-45834D01*
X126873Y-46005D02*
X126873Y-46405D01*
X127015Y-45776D02*
X127158Y-46205D01*
X126787Y-46205D01*
X126587Y-45862D02*
X126558Y-45834D01*
X126501Y-45805D01*
X126358Y-45805D01*
X126301Y-45834D01*
X126273Y-45862D01*
X126244Y-45919D01*
X126244Y-45976D01*
X126273Y-46062D01*
X126615Y-46405D01*
X126244Y-46405D01*
X115542Y-46377D02*
X115457Y-46405D01*
X115314Y-46405D01*
X115257Y-46377D01*
X115228Y-46348D01*
X115200Y-46291D01*
X115200Y-46234D01*
X115228Y-46177D01*
X115257Y-46148D01*
X115314Y-46120D01*
X115428Y-46091D01*
X115485Y-46062D01*
X115514Y-46034D01*
X115542Y-45977D01*
X115542Y-45920D01*
X115514Y-45862D01*
X115485Y-45834D01*
X115428Y-45805D01*
X115285Y-45805D01*
X115200Y-45834D01*
X114685Y-46005D02*
X114685Y-46405D01*
X114828Y-45777D02*
X114971Y-46205D01*
X114600Y-46205D01*
X114057Y-46405D02*
X114399Y-46405D01*
X114228Y-46405D02*
X114228Y-45805D01*
X114285Y-45891D01*
X114342Y-45948D01*
X114399Y-45977D01*
X108042Y-46377D02*
X107957Y-46405D01*
X107814Y-46405D01*
X107757Y-46377D01*
X107728Y-46348D01*
X107700Y-46291D01*
X107700Y-46234D01*
X107728Y-46177D01*
X107757Y-46148D01*
X107814Y-46120D01*
X107928Y-46091D01*
X107985Y-46062D01*
X108014Y-46034D01*
X108042Y-45977D01*
X108042Y-45920D01*
X108014Y-45862D01*
X107985Y-45834D01*
X107928Y-45805D01*
X107785Y-45805D01*
X107700Y-45834D01*
X107185Y-46005D02*
X107185Y-46405D01*
X107328Y-45777D02*
X107471Y-46205D01*
X107100Y-46205D01*
X106757Y-45805D02*
X106699Y-45805D01*
X106642Y-45834D01*
X106614Y-45862D01*
X106585Y-45920D01*
X106557Y-46034D01*
X106557Y-46177D01*
X106585Y-46291D01*
X106614Y-46348D01*
X106642Y-46377D01*
X106699Y-46405D01*
X106757Y-46405D01*
X106814Y-46377D01*
X106842Y-46348D01*
X106871Y-46291D01*
X106899Y-46177D01*
X106899Y-46034D01*
X106871Y-45920D01*
X106842Y-45862D01*
X106814Y-45834D01*
X106757Y-45805D01*
X100542Y-46377D02*
X100457Y-46405D01*
X100314Y-46405D01*
X100257Y-46377D01*
X100228Y-46348D01*
X100200Y-46291D01*
X100200Y-46234D01*
X100228Y-46177D01*
X100257Y-46148D01*
X100314Y-46120D01*
X100428Y-46091D01*
X100485Y-46062D01*
X100514Y-46034D01*
X100542Y-45977D01*
X100542Y-45920D01*
X100514Y-45862D01*
X100485Y-45834D01*
X100428Y-45805D01*
X100285Y-45805D01*
X100200Y-45834D01*
X100000Y-45805D02*
X99628Y-45805D01*
X99828Y-46034D01*
X99742Y-46034D01*
X99685Y-46062D01*
X99657Y-46091D01*
X99628Y-46148D01*
X99628Y-46291D01*
X99657Y-46348D01*
X99685Y-46377D01*
X99742Y-46405D01*
X99914Y-46405D01*
X99971Y-46377D01*
X100000Y-46348D01*
X99342Y-46405D02*
X99228Y-46405D01*
X99171Y-46377D01*
X99142Y-46348D01*
X99085Y-46262D01*
X99057Y-46148D01*
X99057Y-45920D01*
X99085Y-45862D01*
X99114Y-45834D01*
X99171Y-45805D01*
X99285Y-45805D01*
X99342Y-45834D01*
X99371Y-45862D01*
X99399Y-45920D01*
X99399Y-46062D01*
X99371Y-46120D01*
X99342Y-46148D01*
X99285Y-46177D01*
X99171Y-46177D01*
X99114Y-46148D01*
X99085Y-46120D01*
X99057Y-46062D01*
X93042Y-46377D02*
X92957Y-46405D01*
X92814Y-46405D01*
X92757Y-46377D01*
X92728Y-46348D01*
X92700Y-46291D01*
X92700Y-46234D01*
X92728Y-46177D01*
X92757Y-46148D01*
X92814Y-46120D01*
X92928Y-46091D01*
X92985Y-46062D01*
X93014Y-46034D01*
X93042Y-45977D01*
X93042Y-45920D01*
X93014Y-45862D01*
X92985Y-45834D01*
X92928Y-45805D01*
X92785Y-45805D01*
X92700Y-45834D01*
X92500Y-45805D02*
X92128Y-45805D01*
X92328Y-46034D01*
X92242Y-46034D01*
X92185Y-46062D01*
X92157Y-46091D01*
X92128Y-46148D01*
X92128Y-46291D01*
X92157Y-46348D01*
X92185Y-46377D01*
X92242Y-46405D01*
X92414Y-46405D01*
X92471Y-46377D01*
X92500Y-46348D01*
X91785Y-46062D02*
X91842Y-46034D01*
X91871Y-46005D01*
X91899Y-45948D01*
X91899Y-45920D01*
X91871Y-45862D01*
X91842Y-45834D01*
X91785Y-45805D01*
X91671Y-45805D01*
X91614Y-45834D01*
X91585Y-45862D01*
X91557Y-45920D01*
X91557Y-45948D01*
X91585Y-46005D01*
X91614Y-46034D01*
X91671Y-46062D01*
X91785Y-46062D01*
X91842Y-46091D01*
X91871Y-46120D01*
X91899Y-46177D01*
X91899Y-46291D01*
X91871Y-46348D01*
X91842Y-46377D01*
X91785Y-46405D01*
X91671Y-46405D01*
X91614Y-46377D01*
X91585Y-46348D01*
X91557Y-46291D01*
X91557Y-46177D01*
X91585Y-46120D01*
X91614Y-46091D01*
X91671Y-46062D01*
X130542Y-61376D02*
X130457Y-61405D01*
X130314Y-61405D01*
X130257Y-61376D01*
X130228Y-61348D01*
X130200Y-61291D01*
X130200Y-61234D01*
X130228Y-61176D01*
X130257Y-61148D01*
X130314Y-61119D01*
X130428Y-61091D01*
X130485Y-61062D01*
X130514Y-61034D01*
X130542Y-60976D01*
X130542Y-60919D01*
X130514Y-60862D01*
X130485Y-60834D01*
X130428Y-60805D01*
X130285Y-60805D01*
X130200Y-60834D01*
X129685Y-60805D02*
X129800Y-60805D01*
X129857Y-60834D01*
X129885Y-60862D01*
X129942Y-60948D01*
X129971Y-61062D01*
X129971Y-61291D01*
X129942Y-61348D01*
X129914Y-61376D01*
X129857Y-61405D01*
X129742Y-61405D01*
X129685Y-61376D01*
X129657Y-61348D01*
X129628Y-61291D01*
X129628Y-61148D01*
X129657Y-61091D01*
X129685Y-61062D01*
X129742Y-61034D01*
X129857Y-61034D01*
X129914Y-61062D01*
X129942Y-61091D01*
X129971Y-61148D01*
X129428Y-60805D02*
X129057Y-60805D01*
X129257Y-61034D01*
X129171Y-61034D01*
X129114Y-61062D01*
X129085Y-61091D01*
X129057Y-61148D01*
X129057Y-61291D01*
X129085Y-61348D01*
X129114Y-61376D01*
X129171Y-61405D01*
X129342Y-61405D01*
X129399Y-61376D01*
X129428Y-61348D01*
X121167Y-61376D02*
X121081Y-61405D01*
X120939Y-61405D01*
X120881Y-61376D01*
X120853Y-61348D01*
X120824Y-61291D01*
X120824Y-61234D01*
X120853Y-61176D01*
X120881Y-61148D01*
X120939Y-61119D01*
X121053Y-61091D01*
X121110Y-61062D01*
X121139Y-61034D01*
X121167Y-60976D01*
X121167Y-60919D01*
X121139Y-60862D01*
X121110Y-60834D01*
X121053Y-60805D01*
X120910Y-60805D01*
X120824Y-60834D01*
X120310Y-60805D02*
X120424Y-60805D01*
X120481Y-60834D01*
X120510Y-60862D01*
X120567Y-60948D01*
X120596Y-61062D01*
X120596Y-61291D01*
X120567Y-61348D01*
X120539Y-61376D01*
X120481Y-61405D01*
X120367Y-61405D01*
X120310Y-61376D01*
X120281Y-61348D01*
X120253Y-61291D01*
X120253Y-61148D01*
X120281Y-61091D01*
X120310Y-61062D01*
X120367Y-61034D01*
X120481Y-61034D01*
X120539Y-61062D01*
X120567Y-61091D01*
X120596Y-61148D01*
X120024Y-60862D02*
X119996Y-60834D01*
X119939Y-60805D01*
X119796Y-60805D01*
X119739Y-60834D01*
X119710Y-60862D01*
X119681Y-60919D01*
X119681Y-60976D01*
X119710Y-61062D01*
X120053Y-61405D01*
X119681Y-61405D01*
X113667Y-61376D02*
X113581Y-61405D01*
X113439Y-61405D01*
X113381Y-61376D01*
X113353Y-61348D01*
X113324Y-61291D01*
X113324Y-61234D01*
X113353Y-61176D01*
X113381Y-61148D01*
X113439Y-61119D01*
X113553Y-61091D01*
X113610Y-61062D01*
X113639Y-61034D01*
X113667Y-60976D01*
X113667Y-60919D01*
X113639Y-60862D01*
X113610Y-60834D01*
X113553Y-60805D01*
X113410Y-60805D01*
X113324Y-60834D01*
X112810Y-60805D02*
X112924Y-60805D01*
X112981Y-60834D01*
X113010Y-60862D01*
X113067Y-60948D01*
X113096Y-61062D01*
X113096Y-61291D01*
X113067Y-61348D01*
X113039Y-61376D01*
X112981Y-61405D01*
X112867Y-61405D01*
X112810Y-61376D01*
X112781Y-61348D01*
X112753Y-61291D01*
X112753Y-61148D01*
X112781Y-61091D01*
X112810Y-61062D01*
X112867Y-61034D01*
X112981Y-61034D01*
X113039Y-61062D01*
X113067Y-61091D01*
X113096Y-61148D01*
X112181Y-61405D02*
X112524Y-61405D01*
X112353Y-61405D02*
X112353Y-60805D01*
X112410Y-60891D01*
X112467Y-60948D01*
X112524Y-60976D01*
X104292Y-61376D02*
X104207Y-61405D01*
X104064Y-61405D01*
X104007Y-61376D01*
X103978Y-61348D01*
X103950Y-61291D01*
X103950Y-61234D01*
X103978Y-61176D01*
X104007Y-61148D01*
X104064Y-61119D01*
X104178Y-61091D01*
X104235Y-61062D01*
X104264Y-61034D01*
X104292Y-60976D01*
X104292Y-60919D01*
X104264Y-60862D01*
X104235Y-60834D01*
X104178Y-60805D01*
X104035Y-60805D01*
X103950Y-60834D01*
X103435Y-60805D02*
X103550Y-60805D01*
X103607Y-60834D01*
X103635Y-60862D01*
X103692Y-60948D01*
X103721Y-61062D01*
X103721Y-61291D01*
X103692Y-61348D01*
X103664Y-61376D01*
X103607Y-61405D01*
X103492Y-61405D01*
X103435Y-61376D01*
X103407Y-61348D01*
X103378Y-61291D01*
X103378Y-61148D01*
X103407Y-61091D01*
X103435Y-61062D01*
X103492Y-61034D01*
X103607Y-61034D01*
X103664Y-61062D01*
X103692Y-61091D01*
X103721Y-61148D01*
X103007Y-60805D02*
X102949Y-60805D01*
X102892Y-60834D01*
X102864Y-60862D01*
X102835Y-60919D01*
X102807Y-61034D01*
X102807Y-61176D01*
X102835Y-61291D01*
X102864Y-61348D01*
X102892Y-61376D01*
X102949Y-61405D01*
X103007Y-61405D01*
X103064Y-61376D01*
X103092Y-61348D01*
X103121Y-61291D01*
X103149Y-61176D01*
X103149Y-61034D01*
X103121Y-60919D01*
X103092Y-60862D01*
X103064Y-60834D01*
X103007Y-60805D01*
X76167Y-61376D02*
X76081Y-61405D01*
X75939Y-61405D01*
X75881Y-61376D01*
X75853Y-61348D01*
X75824Y-61291D01*
X75824Y-61234D01*
X75853Y-61176D01*
X75881Y-61148D01*
X75939Y-61119D01*
X76053Y-61091D01*
X76110Y-61062D01*
X76139Y-61034D01*
X76167Y-60976D01*
X76167Y-60919D01*
X76139Y-60862D01*
X76110Y-60834D01*
X76053Y-60805D01*
X75910Y-60805D01*
X75824Y-60834D01*
X75281Y-60805D02*
X75567Y-60805D01*
X75596Y-61091D01*
X75567Y-61062D01*
X75510Y-61034D01*
X75367Y-61034D01*
X75310Y-61062D01*
X75281Y-61091D01*
X75253Y-61148D01*
X75253Y-61291D01*
X75281Y-61348D01*
X75310Y-61376D01*
X75367Y-61405D01*
X75510Y-61405D01*
X75567Y-61376D01*
X75596Y-61348D01*
X74967Y-61405D02*
X74853Y-61405D01*
X74796Y-61376D01*
X74767Y-61348D01*
X74710Y-61262D01*
X74681Y-61148D01*
X74681Y-60919D01*
X74710Y-60862D01*
X74739Y-60834D01*
X74796Y-60805D01*
X74910Y-60805D01*
X74967Y-60834D01*
X74996Y-60862D01*
X75024Y-60919D01*
X75024Y-61062D01*
X74996Y-61119D01*
X74967Y-61148D01*
X74910Y-61176D01*
X74796Y-61176D01*
X74739Y-61148D01*
X74710Y-61119D01*
X74681Y-61062D01*
X48042Y-61376D02*
X47956Y-61405D01*
X47813Y-61405D01*
X47756Y-61376D01*
X47728Y-61348D01*
X47699Y-61291D01*
X47699Y-61234D01*
X47728Y-61176D01*
X47756Y-61148D01*
X47813Y-61119D01*
X47928Y-61091D01*
X47985Y-61062D01*
X48013Y-61034D01*
X48042Y-60976D01*
X48042Y-60919D01*
X48013Y-60862D01*
X47985Y-60834D01*
X47928Y-60805D01*
X47785Y-60805D01*
X47699Y-60834D01*
X47156Y-60805D02*
X47442Y-60805D01*
X47471Y-61091D01*
X47442Y-61062D01*
X47385Y-61034D01*
X47242Y-61034D01*
X47185Y-61062D01*
X47156Y-61091D01*
X47128Y-61148D01*
X47128Y-61291D01*
X47156Y-61348D01*
X47185Y-61376D01*
X47242Y-61405D01*
X47385Y-61405D01*
X47442Y-61376D01*
X47471Y-61348D01*
X46785Y-61062D02*
X46842Y-61034D01*
X46871Y-61005D01*
X46899Y-60948D01*
X46899Y-60919D01*
X46871Y-60862D01*
X46842Y-60834D01*
X46785Y-60805D01*
X46671Y-60805D01*
X46613Y-60834D01*
X46585Y-60862D01*
X46556Y-60919D01*
X46556Y-60948D01*
X46585Y-61005D01*
X46613Y-61034D01*
X46671Y-61062D01*
X46785Y-61062D01*
X46842Y-61091D01*
X46871Y-61119D01*
X46899Y-61176D01*
X46899Y-61291D01*
X46871Y-61348D01*
X46842Y-61376D01*
X46785Y-61405D01*
X46671Y-61405D01*
X46613Y-61376D01*
X46585Y-61348D01*
X46556Y-61291D01*
X46556Y-61176D01*
X46585Y-61119D01*
X46613Y-61091D01*
X46671Y-61062D01*
X29292Y-61376D02*
X29207Y-61405D01*
X29064Y-61405D01*
X29007Y-61376D01*
X28978Y-61348D01*
X28950Y-61291D01*
X28950Y-61234D01*
X28978Y-61176D01*
X29007Y-61148D01*
X29064Y-61119D01*
X29178Y-61091D01*
X29235Y-61062D01*
X29264Y-61034D01*
X29292Y-60976D01*
X29292Y-60919D01*
X29264Y-60862D01*
X29235Y-60834D01*
X29178Y-60805D01*
X29035Y-60805D01*
X28950Y-60834D01*
X28407Y-60805D02*
X28692Y-60805D01*
X28721Y-61091D01*
X28692Y-61062D01*
X28635Y-61034D01*
X28492Y-61034D01*
X28435Y-61062D01*
X28407Y-61091D01*
X28378Y-61148D01*
X28378Y-61291D01*
X28407Y-61348D01*
X28435Y-61376D01*
X28492Y-61405D01*
X28635Y-61405D01*
X28692Y-61376D01*
X28721Y-61348D01*
X27864Y-60805D02*
X27978Y-60805D01*
X28035Y-60834D01*
X28064Y-60862D01*
X28121Y-60948D01*
X28149Y-61062D01*
X28149Y-61291D01*
X28121Y-61348D01*
X28092Y-61376D01*
X28035Y-61405D01*
X27921Y-61405D01*
X27864Y-61376D01*
X27835Y-61348D01*
X27807Y-61291D01*
X27807Y-61148D01*
X27835Y-61091D01*
X27864Y-61062D01*
X27921Y-61034D01*
X28035Y-61034D01*
X28092Y-61062D01*
X28121Y-61091D01*
X28149Y-61148D01*
X53667Y-38877D02*
X53581Y-38905D01*
X53439Y-38905D01*
X53381Y-38877D01*
X53353Y-38848D01*
X53324Y-38791D01*
X53324Y-38734D01*
X53353Y-38677D01*
X53381Y-38648D01*
X53439Y-38620D01*
X53553Y-38591D01*
X53610Y-38562D01*
X53639Y-38534D01*
X53667Y-38477D01*
X53667Y-38420D01*
X53639Y-38362D01*
X53610Y-38334D01*
X53553Y-38305D01*
X53410Y-38305D01*
X53324Y-38334D01*
X52753Y-38905D02*
X53096Y-38905D01*
X52924Y-38905D02*
X52924Y-38305D01*
X52981Y-38391D01*
X53039Y-38448D01*
X53096Y-38477D01*
X52467Y-38905D02*
X52353Y-38905D01*
X52296Y-38877D01*
X52267Y-38848D01*
X52210Y-38762D01*
X52181Y-38648D01*
X52181Y-38420D01*
X52210Y-38362D01*
X52239Y-38334D01*
X52296Y-38305D01*
X52410Y-38305D01*
X52467Y-38334D01*
X52496Y-38362D01*
X52524Y-38420D01*
X52524Y-38562D01*
X52496Y-38620D01*
X52467Y-38648D01*
X52410Y-38677D01*
X52296Y-38677D01*
X52239Y-38648D01*
X52210Y-38620D01*
X52181Y-38562D01*
X46167Y-38877D02*
X46081Y-38905D01*
X45939Y-38905D01*
X45881Y-38877D01*
X45853Y-38848D01*
X45824Y-38791D01*
X45824Y-38734D01*
X45853Y-38677D01*
X45881Y-38648D01*
X45939Y-38620D01*
X46053Y-38591D01*
X46110Y-38562D01*
X46139Y-38534D01*
X46167Y-38477D01*
X46167Y-38420D01*
X46139Y-38362D01*
X46110Y-38334D01*
X46053Y-38305D01*
X45910Y-38305D01*
X45824Y-38334D01*
X45253Y-38905D02*
X45596Y-38905D01*
X45424Y-38905D02*
X45424Y-38305D01*
X45481Y-38391D01*
X45539Y-38448D01*
X45596Y-38477D01*
X44910Y-38562D02*
X44967Y-38534D01*
X44996Y-38505D01*
X45024Y-38448D01*
X45024Y-38420D01*
X44996Y-38362D01*
X44967Y-38334D01*
X44910Y-38305D01*
X44796Y-38305D01*
X44739Y-38334D01*
X44710Y-38362D01*
X44681Y-38420D01*
X44681Y-38448D01*
X44710Y-38505D01*
X44739Y-38534D01*
X44796Y-38562D01*
X44910Y-38562D01*
X44967Y-38591D01*
X44996Y-38620D01*
X45024Y-38677D01*
X45024Y-38791D01*
X44996Y-38848D01*
X44967Y-38877D01*
X44910Y-38905D01*
X44796Y-38905D01*
X44739Y-38877D01*
X44710Y-38848D01*
X44681Y-38791D01*
X44681Y-38677D01*
X44710Y-38620D01*
X44739Y-38591D01*
X44796Y-38562D01*
X38667Y-38877D02*
X38581Y-38905D01*
X38439Y-38905D01*
X38381Y-38877D01*
X38353Y-38848D01*
X38324Y-38791D01*
X38324Y-38734D01*
X38353Y-38677D01*
X38381Y-38648D01*
X38439Y-38620D01*
X38553Y-38591D01*
X38610Y-38562D01*
X38639Y-38534D01*
X38667Y-38477D01*
X38667Y-38420D01*
X38639Y-38362D01*
X38610Y-38334D01*
X38553Y-38305D01*
X38410Y-38305D01*
X38324Y-38334D01*
X37753Y-38905D02*
X38096Y-38905D01*
X37924Y-38905D02*
X37924Y-38305D01*
X37981Y-38391D01*
X38039Y-38448D01*
X38096Y-38477D01*
X37553Y-38305D02*
X37153Y-38305D01*
X37410Y-38905D01*
X29292Y-38877D02*
X29207Y-38905D01*
X29064Y-38905D01*
X29007Y-38877D01*
X28978Y-38848D01*
X28950Y-38791D01*
X28950Y-38734D01*
X28978Y-38677D01*
X29007Y-38648D01*
X29064Y-38620D01*
X29178Y-38591D01*
X29235Y-38562D01*
X29264Y-38534D01*
X29292Y-38477D01*
X29292Y-38420D01*
X29264Y-38362D01*
X29235Y-38334D01*
X29178Y-38305D01*
X29035Y-38305D01*
X28950Y-38334D01*
X28378Y-38905D02*
X28721Y-38905D01*
X28550Y-38905D02*
X28550Y-38305D01*
X28607Y-38391D01*
X28664Y-38448D01*
X28721Y-38477D01*
X27864Y-38305D02*
X27978Y-38305D01*
X28035Y-38334D01*
X28064Y-38362D01*
X28121Y-38448D01*
X28149Y-38562D01*
X28149Y-38791D01*
X28121Y-38848D01*
X28092Y-38877D01*
X28035Y-38905D01*
X27921Y-38905D01*
X27864Y-38877D01*
X27835Y-38848D01*
X27807Y-38791D01*
X27807Y-38648D01*
X27835Y-38591D01*
X27864Y-38562D01*
X27921Y-38534D01*
X28035Y-38534D01*
X28092Y-38562D01*
X28121Y-38591D01*
X28149Y-38648D01*
X117418Y-31377D02*
X117332Y-31405D01*
X117189Y-31405D01*
X117132Y-31377D01*
X117103Y-31348D01*
X117075Y-31291D01*
X117075Y-31234D01*
X117103Y-31177D01*
X117132Y-31148D01*
X117189Y-31120D01*
X117303Y-31091D01*
X117360Y-31062D01*
X117389Y-31034D01*
X117418Y-30977D01*
X117418Y-30920D01*
X117389Y-30862D01*
X117360Y-30834D01*
X117303Y-30805D01*
X117160Y-30805D01*
X117075Y-30834D01*
X116503Y-31405D02*
X116846Y-31405D01*
X116675Y-31405D02*
X116675Y-30805D01*
X116732Y-30891D01*
X116789Y-30948D01*
X116846Y-30977D01*
X116303Y-30805D02*
X115932Y-30805D01*
X116132Y-31034D01*
X116046Y-31034D01*
X115989Y-31062D01*
X115960Y-31091D01*
X115932Y-31148D01*
X115932Y-31291D01*
X115960Y-31348D01*
X115989Y-31377D01*
X116046Y-31405D01*
X116218Y-31405D01*
X116275Y-31377D01*
X116303Y-31348D01*
X109918Y-31377D02*
X109832Y-31405D01*
X109689Y-31405D01*
X109632Y-31377D01*
X109603Y-31348D01*
X109575Y-31291D01*
X109575Y-31234D01*
X109603Y-31177D01*
X109632Y-31148D01*
X109689Y-31120D01*
X109803Y-31091D01*
X109860Y-31062D01*
X109889Y-31034D01*
X109918Y-30977D01*
X109918Y-30920D01*
X109889Y-30862D01*
X109860Y-30834D01*
X109803Y-30805D01*
X109660Y-30805D01*
X109575Y-30834D01*
X109003Y-31405D02*
X109346Y-31405D01*
X109175Y-31405D02*
X109175Y-30805D01*
X109232Y-30891D01*
X109289Y-30948D01*
X109346Y-30977D01*
X108775Y-30862D02*
X108746Y-30834D01*
X108689Y-30805D01*
X108546Y-30805D01*
X108489Y-30834D01*
X108460Y-30862D01*
X108432Y-30920D01*
X108432Y-30977D01*
X108460Y-31062D01*
X108803Y-31405D01*
X108432Y-31405D01*
X94918Y-31377D02*
X94832Y-31405D01*
X94689Y-31405D01*
X94632Y-31377D01*
X94603Y-31348D01*
X94575Y-31291D01*
X94575Y-31234D01*
X94603Y-31177D01*
X94632Y-31148D01*
X94689Y-31120D01*
X94803Y-31091D01*
X94860Y-31062D01*
X94889Y-31034D01*
X94918Y-30977D01*
X94918Y-30920D01*
X94889Y-30862D01*
X94860Y-30834D01*
X94803Y-30805D01*
X94660Y-30805D01*
X94575Y-30834D01*
X94003Y-31405D02*
X94346Y-31405D01*
X94175Y-31405D02*
X94175Y-30805D01*
X94232Y-30891D01*
X94289Y-30948D01*
X94346Y-30977D01*
X93632Y-30805D02*
X93575Y-30805D01*
X93518Y-30834D01*
X93489Y-30862D01*
X93460Y-30920D01*
X93432Y-31034D01*
X93432Y-31177D01*
X93460Y-31291D01*
X93489Y-31348D01*
X93518Y-31377D01*
X93575Y-31405D01*
X93632Y-31405D01*
X93689Y-31377D01*
X93718Y-31348D01*
X93746Y-31291D01*
X93775Y-31177D01*
X93775Y-31034D01*
X93746Y-30920D01*
X93718Y-30862D01*
X93689Y-30834D01*
X93632Y-30805D01*
X87132Y-31377D02*
X87046Y-31405D01*
X86903Y-31405D01*
X86846Y-31377D01*
X86818Y-31348D01*
X86789Y-31291D01*
X86789Y-31234D01*
X86818Y-31177D01*
X86846Y-31148D01*
X86903Y-31120D01*
X87018Y-31091D01*
X87075Y-31062D01*
X87103Y-31034D01*
X87132Y-30977D01*
X87132Y-30920D01*
X87103Y-30862D01*
X87075Y-30834D01*
X87018Y-30805D01*
X86875Y-30805D01*
X86789Y-30834D01*
X86503Y-31405D02*
X86389Y-31405D01*
X86332Y-31377D01*
X86303Y-31348D01*
X86246Y-31262D01*
X86218Y-31148D01*
X86218Y-30920D01*
X86246Y-30862D01*
X86275Y-30834D01*
X86332Y-30805D01*
X86446Y-30805D01*
X86503Y-30834D01*
X86532Y-30862D01*
X86560Y-30920D01*
X86560Y-31062D01*
X86532Y-31120D01*
X86503Y-31148D01*
X86446Y-31177D01*
X86332Y-31177D01*
X86275Y-31148D01*
X86246Y-31120D01*
X86218Y-31062D01*
X79632Y-31377D02*
X79546Y-31405D01*
X79403Y-31405D01*
X79346Y-31377D01*
X79318Y-31348D01*
X79289Y-31291D01*
X79289Y-31234D01*
X79318Y-31177D01*
X79346Y-31148D01*
X79403Y-31120D01*
X79518Y-31091D01*
X79575Y-31062D01*
X79603Y-31034D01*
X79632Y-30977D01*
X79632Y-30920D01*
X79603Y-30862D01*
X79575Y-30834D01*
X79518Y-30805D01*
X79375Y-30805D01*
X79289Y-30834D01*
X78946Y-31062D02*
X79003Y-31034D01*
X79032Y-31005D01*
X79060Y-30948D01*
X79060Y-30920D01*
X79032Y-30862D01*
X79003Y-30834D01*
X78946Y-30805D01*
X78832Y-30805D01*
X78775Y-30834D01*
X78746Y-30862D01*
X78718Y-30920D01*
X78718Y-30948D01*
X78746Y-31005D01*
X78775Y-31034D01*
X78832Y-31062D01*
X78946Y-31062D01*
X79003Y-31091D01*
X79032Y-31120D01*
X79060Y-31177D01*
X79060Y-31291D01*
X79032Y-31348D01*
X79003Y-31377D01*
X78946Y-31405D01*
X78832Y-31405D01*
X78775Y-31377D01*
X78746Y-31348D01*
X78718Y-31291D01*
X78718Y-31177D01*
X78746Y-31120D01*
X78775Y-31091D01*
X78832Y-31062D01*
X72132Y-31377D02*
X72046Y-31405D01*
X71903Y-31405D01*
X71846Y-31377D01*
X71818Y-31348D01*
X71789Y-31291D01*
X71789Y-31234D01*
X71818Y-31177D01*
X71846Y-31148D01*
X71903Y-31120D01*
X72018Y-31091D01*
X72075Y-31062D01*
X72103Y-31034D01*
X72132Y-30977D01*
X72132Y-30920D01*
X72103Y-30862D01*
X72075Y-30834D01*
X72018Y-30805D01*
X71875Y-30805D01*
X71789Y-30834D01*
X71589Y-30805D02*
X71189Y-30805D01*
X71446Y-31405D01*
X64632Y-31377D02*
X64546Y-31405D01*
X64403Y-31405D01*
X64346Y-31377D01*
X64318Y-31348D01*
X64289Y-31291D01*
X64289Y-31234D01*
X64318Y-31177D01*
X64346Y-31148D01*
X64403Y-31120D01*
X64518Y-31091D01*
X64575Y-31062D01*
X64603Y-31034D01*
X64632Y-30977D01*
X64632Y-30920D01*
X64603Y-30862D01*
X64575Y-30834D01*
X64518Y-30805D01*
X64375Y-30805D01*
X64289Y-30834D01*
X63775Y-30805D02*
X63889Y-30805D01*
X63946Y-30834D01*
X63975Y-30862D01*
X64032Y-30948D01*
X64060Y-31062D01*
X64060Y-31291D01*
X64032Y-31348D01*
X64003Y-31377D01*
X63946Y-31405D01*
X63832Y-31405D01*
X63775Y-31377D01*
X63746Y-31348D01*
X63718Y-31291D01*
X63718Y-31148D01*
X63746Y-31091D01*
X63775Y-31062D01*
X63832Y-31034D01*
X63946Y-31034D01*
X64003Y-31062D01*
X64032Y-31091D01*
X64060Y-31148D01*
X57132Y-31377D02*
X57046Y-31405D01*
X56903Y-31405D01*
X56846Y-31377D01*
X56818Y-31348D01*
X56789Y-31291D01*
X56789Y-31234D01*
X56818Y-31177D01*
X56846Y-31148D01*
X56903Y-31120D01*
X57018Y-31091D01*
X57075Y-31062D01*
X57103Y-31034D01*
X57132Y-30977D01*
X57132Y-30920D01*
X57103Y-30862D01*
X57075Y-30834D01*
X57018Y-30805D01*
X56875Y-30805D01*
X56789Y-30834D01*
X56246Y-30805D02*
X56532Y-30805D01*
X56560Y-31091D01*
X56532Y-31062D01*
X56475Y-31034D01*
X56332Y-31034D01*
X56275Y-31062D01*
X56246Y-31091D01*
X56218Y-31148D01*
X56218Y-31291D01*
X56246Y-31348D01*
X56275Y-31377D01*
X56332Y-31405D01*
X56475Y-31405D01*
X56532Y-31377D01*
X56560Y-31348D01*
X49632Y-31377D02*
X49546Y-31405D01*
X49403Y-31405D01*
X49346Y-31377D01*
X49318Y-31348D01*
X49289Y-31291D01*
X49289Y-31234D01*
X49318Y-31177D01*
X49346Y-31148D01*
X49403Y-31120D01*
X49518Y-31091D01*
X49575Y-31062D01*
X49603Y-31034D01*
X49632Y-30977D01*
X49632Y-30920D01*
X49603Y-30862D01*
X49575Y-30834D01*
X49518Y-30805D01*
X49375Y-30805D01*
X49289Y-30834D01*
X48775Y-31005D02*
X48775Y-31405D01*
X48918Y-30777D02*
X49060Y-31205D01*
X48689Y-31205D01*
X42132Y-31377D02*
X42046Y-31405D01*
X41903Y-31405D01*
X41846Y-31377D01*
X41818Y-31348D01*
X41789Y-31291D01*
X41789Y-31234D01*
X41818Y-31177D01*
X41846Y-31148D01*
X41903Y-31120D01*
X42018Y-31091D01*
X42075Y-31062D01*
X42103Y-31034D01*
X42132Y-30977D01*
X42132Y-30920D01*
X42103Y-30862D01*
X42075Y-30834D01*
X42018Y-30805D01*
X41875Y-30805D01*
X41789Y-30834D01*
X41589Y-30805D02*
X41218Y-30805D01*
X41418Y-31034D01*
X41332Y-31034D01*
X41275Y-31062D01*
X41246Y-31091D01*
X41218Y-31148D01*
X41218Y-31291D01*
X41246Y-31348D01*
X41275Y-31377D01*
X41332Y-31405D01*
X41503Y-31405D01*
X41560Y-31377D01*
X41589Y-31348D01*
X37532Y-27176D02*
X37446Y-27205D01*
X37303Y-27205D01*
X37246Y-27176D01*
X37217Y-27148D01*
X37189Y-27091D01*
X37189Y-27033D01*
X37217Y-26976D01*
X37246Y-26948D01*
X37303Y-26919D01*
X37417Y-26891D01*
X37475Y-26862D01*
X37503Y-26833D01*
X37532Y-26776D01*
X37532Y-26719D01*
X37503Y-26662D01*
X37475Y-26633D01*
X37417Y-26605D01*
X37275Y-26605D01*
X37189Y-26633D01*
X36960Y-26662D02*
X36932Y-26633D01*
X36875Y-26605D01*
X36732Y-26605D01*
X36675Y-26633D01*
X36646Y-26662D01*
X36617Y-26719D01*
X36617Y-26776D01*
X36646Y-26862D01*
X36989Y-27205D01*
X36617Y-27205D01*
X30032Y-27176D02*
X29946Y-27205D01*
X29803Y-27205D01*
X29746Y-27176D01*
X29717Y-27148D01*
X29689Y-27091D01*
X29689Y-27033D01*
X29717Y-26976D01*
X29746Y-26948D01*
X29803Y-26919D01*
X29917Y-26891D01*
X29975Y-26862D01*
X30003Y-26833D01*
X30032Y-26776D01*
X30032Y-26719D01*
X30003Y-26662D01*
X29975Y-26633D01*
X29917Y-26605D01*
X29775Y-26605D01*
X29689Y-26633D01*
X29117Y-27205D02*
X29460Y-27205D01*
X29289Y-27205D02*
X29289Y-26605D01*
X29346Y-26691D01*
X29403Y-26748D01*
X29460Y-26776D01*
X85542Y-46377D02*
X85457Y-46405D01*
X85314Y-46405D01*
X85257Y-46377D01*
X85228Y-46348D01*
X85200Y-46291D01*
X85200Y-46234D01*
X85228Y-46177D01*
X85257Y-46148D01*
X85314Y-46120D01*
X85428Y-46091D01*
X85485Y-46062D01*
X85514Y-46034D01*
X85542Y-45977D01*
X85542Y-45920D01*
X85514Y-45862D01*
X85485Y-45834D01*
X85428Y-45805D01*
X85285Y-45805D01*
X85200Y-45834D01*
X85000Y-45805D02*
X84628Y-45805D01*
X84828Y-46034D01*
X84742Y-46034D01*
X84685Y-46062D01*
X84657Y-46091D01*
X84628Y-46148D01*
X84628Y-46291D01*
X84657Y-46348D01*
X84685Y-46377D01*
X84742Y-46405D01*
X84914Y-46405D01*
X84971Y-46377D01*
X85000Y-46348D01*
X84428Y-45805D02*
X84028Y-45805D01*
X84285Y-46405D01*
X78042Y-46377D02*
X77957Y-46405D01*
X77814Y-46405D01*
X77757Y-46377D01*
X77728Y-46348D01*
X77700Y-46291D01*
X77700Y-46234D01*
X77728Y-46177D01*
X77757Y-46148D01*
X77814Y-46120D01*
X77928Y-46091D01*
X77985Y-46062D01*
X78014Y-46034D01*
X78042Y-45977D01*
X78042Y-45920D01*
X78014Y-45862D01*
X77985Y-45834D01*
X77928Y-45805D01*
X77785Y-45805D01*
X77700Y-45834D01*
X77500Y-45805D02*
X77128Y-45805D01*
X77328Y-46034D01*
X77242Y-46034D01*
X77185Y-46062D01*
X77157Y-46091D01*
X77128Y-46148D01*
X77128Y-46291D01*
X77157Y-46348D01*
X77185Y-46377D01*
X77242Y-46405D01*
X77414Y-46405D01*
X77471Y-46377D01*
X77500Y-46348D01*
X76614Y-45805D02*
X76728Y-45805D01*
X76785Y-45834D01*
X76814Y-45862D01*
X76871Y-45948D01*
X76899Y-46062D01*
X76899Y-46291D01*
X76871Y-46348D01*
X76842Y-46377D01*
X76785Y-46405D01*
X76671Y-46405D01*
X76614Y-46377D01*
X76585Y-46348D01*
X76557Y-46291D01*
X76557Y-46148D01*
X76585Y-46091D01*
X76614Y-46062D01*
X76671Y-46034D01*
X76785Y-46034D01*
X76842Y-46062D01*
X76871Y-46091D01*
X76899Y-46148D01*
X70542Y-46377D02*
X70457Y-46405D01*
X70314Y-46405D01*
X70257Y-46377D01*
X70228Y-46348D01*
X70200Y-46291D01*
X70200Y-46234D01*
X70228Y-46177D01*
X70257Y-46148D01*
X70314Y-46120D01*
X70428Y-46091D01*
X70485Y-46062D01*
X70514Y-46034D01*
X70542Y-45977D01*
X70542Y-45920D01*
X70514Y-45862D01*
X70485Y-45834D01*
X70428Y-45805D01*
X70285Y-45805D01*
X70200Y-45834D01*
X70000Y-45805D02*
X69628Y-45805D01*
X69828Y-46034D01*
X69742Y-46034D01*
X69685Y-46062D01*
X69657Y-46091D01*
X69628Y-46148D01*
X69628Y-46291D01*
X69657Y-46348D01*
X69685Y-46377D01*
X69742Y-46405D01*
X69914Y-46405D01*
X69971Y-46377D01*
X70000Y-46348D01*
X69085Y-45805D02*
X69371Y-45805D01*
X69399Y-46091D01*
X69371Y-46062D01*
X69314Y-46034D01*
X69171Y-46034D01*
X69114Y-46062D01*
X69085Y-46091D01*
X69057Y-46148D01*
X69057Y-46291D01*
X69085Y-46348D01*
X69114Y-46377D01*
X69171Y-46405D01*
X69314Y-46405D01*
X69371Y-46377D01*
X69399Y-46348D01*
X63042Y-46377D02*
X62957Y-46405D01*
X62814Y-46405D01*
X62757Y-46377D01*
X62728Y-46348D01*
X62700Y-46291D01*
X62700Y-46234D01*
X62728Y-46177D01*
X62757Y-46148D01*
X62814Y-46120D01*
X62928Y-46091D01*
X62985Y-46062D01*
X63014Y-46034D01*
X63042Y-45977D01*
X63042Y-45920D01*
X63014Y-45862D01*
X62985Y-45834D01*
X62928Y-45805D01*
X62785Y-45805D01*
X62700Y-45834D01*
X62500Y-45805D02*
X62128Y-45805D01*
X62328Y-46034D01*
X62242Y-46034D01*
X62185Y-46062D01*
X62157Y-46091D01*
X62128Y-46148D01*
X62128Y-46291D01*
X62157Y-46348D01*
X62185Y-46377D01*
X62242Y-46405D01*
X62414Y-46405D01*
X62471Y-46377D01*
X62500Y-46348D01*
X61614Y-46005D02*
X61614Y-46405D01*
X61757Y-45777D02*
X61899Y-46205D01*
X61528Y-46205D01*
X55542Y-46377D02*
X55457Y-46405D01*
X55314Y-46405D01*
X55257Y-46377D01*
X55228Y-46348D01*
X55200Y-46291D01*
X55200Y-46234D01*
X55228Y-46177D01*
X55257Y-46148D01*
X55314Y-46120D01*
X55428Y-46091D01*
X55485Y-46062D01*
X55514Y-46034D01*
X55542Y-45977D01*
X55542Y-45920D01*
X55514Y-45862D01*
X55485Y-45834D01*
X55428Y-45805D01*
X55285Y-45805D01*
X55200Y-45834D01*
X55000Y-45805D02*
X54628Y-45805D01*
X54828Y-46034D01*
X54742Y-46034D01*
X54685Y-46062D01*
X54657Y-46091D01*
X54628Y-46148D01*
X54628Y-46291D01*
X54657Y-46348D01*
X54685Y-46377D01*
X54742Y-46405D01*
X54914Y-46405D01*
X54971Y-46377D01*
X55000Y-46348D01*
X54428Y-45805D02*
X54057Y-45805D01*
X54257Y-46034D01*
X54171Y-46034D01*
X54114Y-46062D01*
X54085Y-46091D01*
X54057Y-46148D01*
X54057Y-46291D01*
X54085Y-46348D01*
X54114Y-46377D01*
X54171Y-46405D01*
X54342Y-46405D01*
X54399Y-46377D01*
X54428Y-46348D01*
X48042Y-46377D02*
X47957Y-46405D01*
X47814Y-46405D01*
X47757Y-46377D01*
X47728Y-46348D01*
X47700Y-46291D01*
X47700Y-46234D01*
X47728Y-46177D01*
X47757Y-46148D01*
X47814Y-46120D01*
X47928Y-46091D01*
X47985Y-46062D01*
X48014Y-46034D01*
X48042Y-45977D01*
X48042Y-45920D01*
X48014Y-45862D01*
X47985Y-45834D01*
X47928Y-45805D01*
X47785Y-45805D01*
X47700Y-45834D01*
X47500Y-45805D02*
X47128Y-45805D01*
X47328Y-46034D01*
X47242Y-46034D01*
X47185Y-46062D01*
X47157Y-46091D01*
X47128Y-46148D01*
X47128Y-46291D01*
X47157Y-46348D01*
X47185Y-46377D01*
X47242Y-46405D01*
X47414Y-46405D01*
X47471Y-46377D01*
X47500Y-46348D01*
X46899Y-45862D02*
X46871Y-45834D01*
X46814Y-45805D01*
X46671Y-45805D01*
X46614Y-45834D01*
X46585Y-45862D01*
X46557Y-45920D01*
X46557Y-45977D01*
X46585Y-46062D01*
X46928Y-46405D01*
X46557Y-46405D01*
X40542Y-46377D02*
X40457Y-46405D01*
X40314Y-46405D01*
X40257Y-46377D01*
X40228Y-46348D01*
X40200Y-46291D01*
X40200Y-46234D01*
X40228Y-46177D01*
X40257Y-46148D01*
X40314Y-46120D01*
X40428Y-46091D01*
X40485Y-46062D01*
X40514Y-46034D01*
X40542Y-45977D01*
X40542Y-45920D01*
X40514Y-45862D01*
X40485Y-45834D01*
X40428Y-45805D01*
X40285Y-45805D01*
X40200Y-45834D01*
X40000Y-45805D02*
X39628Y-45805D01*
X39828Y-46034D01*
X39742Y-46034D01*
X39685Y-46062D01*
X39657Y-46091D01*
X39628Y-46148D01*
X39628Y-46291D01*
X39657Y-46348D01*
X39685Y-46377D01*
X39742Y-46405D01*
X39914Y-46405D01*
X39971Y-46377D01*
X40000Y-46348D01*
X39057Y-46405D02*
X39399Y-46405D01*
X39228Y-46405D02*
X39228Y-45805D01*
X39285Y-45891D01*
X39342Y-45948D01*
X39399Y-45977D01*
X130542Y-38876D02*
X130457Y-38905D01*
X130314Y-38905D01*
X130257Y-38876D01*
X130228Y-38848D01*
X130200Y-38791D01*
X130200Y-38733D01*
X130228Y-38676D01*
X130257Y-38648D01*
X130314Y-38619D01*
X130428Y-38591D01*
X130485Y-38562D01*
X130514Y-38533D01*
X130542Y-38476D01*
X130542Y-38419D01*
X130514Y-38362D01*
X130485Y-38333D01*
X130428Y-38305D01*
X130285Y-38305D01*
X130200Y-38333D01*
X129971Y-38362D02*
X129942Y-38333D01*
X129885Y-38305D01*
X129742Y-38305D01*
X129685Y-38333D01*
X129657Y-38362D01*
X129628Y-38419D01*
X129628Y-38476D01*
X129657Y-38562D01*
X130000Y-38905D01*
X129628Y-38905D01*
X129342Y-38905D02*
X129228Y-38905D01*
X129171Y-38876D01*
X129142Y-38848D01*
X129085Y-38762D01*
X129057Y-38648D01*
X129057Y-38419D01*
X129085Y-38362D01*
X129114Y-38333D01*
X129171Y-38305D01*
X129285Y-38305D01*
X129342Y-38333D01*
X129371Y-38362D01*
X129399Y-38419D01*
X129399Y-38562D01*
X129371Y-38619D01*
X129342Y-38648D01*
X129285Y-38676D01*
X129171Y-38676D01*
X129114Y-38648D01*
X129085Y-38619D01*
X129057Y-38562D01*
X121167Y-38877D02*
X121081Y-38905D01*
X120939Y-38905D01*
X120881Y-38877D01*
X120853Y-38848D01*
X120824Y-38791D01*
X120824Y-38734D01*
X120853Y-38677D01*
X120881Y-38648D01*
X120939Y-38620D01*
X121053Y-38591D01*
X121110Y-38562D01*
X121139Y-38534D01*
X121167Y-38477D01*
X121167Y-38420D01*
X121139Y-38362D01*
X121110Y-38334D01*
X121053Y-38305D01*
X120910Y-38305D01*
X120824Y-38334D01*
X120596Y-38362D02*
X120567Y-38334D01*
X120510Y-38305D01*
X120367Y-38305D01*
X120310Y-38334D01*
X120281Y-38362D01*
X120253Y-38420D01*
X120253Y-38477D01*
X120281Y-38562D01*
X120624Y-38905D01*
X120253Y-38905D01*
X119910Y-38562D02*
X119967Y-38534D01*
X119996Y-38505D01*
X120024Y-38448D01*
X120024Y-38420D01*
X119996Y-38362D01*
X119967Y-38334D01*
X119910Y-38305D01*
X119796Y-38305D01*
X119739Y-38334D01*
X119710Y-38362D01*
X119681Y-38420D01*
X119681Y-38448D01*
X119710Y-38505D01*
X119739Y-38534D01*
X119796Y-38562D01*
X119910Y-38562D01*
X119967Y-38591D01*
X119996Y-38620D01*
X120024Y-38677D01*
X120024Y-38791D01*
X119996Y-38848D01*
X119967Y-38877D01*
X119910Y-38905D01*
X119796Y-38905D01*
X119739Y-38877D01*
X119710Y-38848D01*
X119681Y-38791D01*
X119681Y-38677D01*
X119710Y-38620D01*
X119739Y-38591D01*
X119796Y-38562D01*
X113667Y-38877D02*
X113581Y-38905D01*
X113439Y-38905D01*
X113381Y-38877D01*
X113353Y-38848D01*
X113324Y-38791D01*
X113324Y-38734D01*
X113353Y-38677D01*
X113381Y-38648D01*
X113439Y-38620D01*
X113553Y-38591D01*
X113610Y-38562D01*
X113639Y-38534D01*
X113667Y-38477D01*
X113667Y-38420D01*
X113639Y-38362D01*
X113610Y-38334D01*
X113553Y-38305D01*
X113410Y-38305D01*
X113324Y-38334D01*
X113096Y-38362D02*
X113067Y-38334D01*
X113010Y-38305D01*
X112867Y-38305D01*
X112810Y-38334D01*
X112781Y-38362D01*
X112753Y-38420D01*
X112753Y-38477D01*
X112781Y-38562D01*
X113124Y-38905D01*
X112753Y-38905D01*
X112553Y-38305D02*
X112153Y-38305D01*
X112410Y-38905D01*
X106167Y-38877D02*
X106081Y-38905D01*
X105939Y-38905D01*
X105881Y-38877D01*
X105853Y-38848D01*
X105824Y-38791D01*
X105824Y-38734D01*
X105853Y-38677D01*
X105881Y-38648D01*
X105939Y-38620D01*
X106053Y-38591D01*
X106110Y-38562D01*
X106139Y-38534D01*
X106167Y-38477D01*
X106167Y-38420D01*
X106139Y-38362D01*
X106110Y-38334D01*
X106053Y-38305D01*
X105910Y-38305D01*
X105824Y-38334D01*
X105596Y-38362D02*
X105567Y-38334D01*
X105510Y-38305D01*
X105367Y-38305D01*
X105310Y-38334D01*
X105281Y-38362D01*
X105253Y-38420D01*
X105253Y-38477D01*
X105281Y-38562D01*
X105624Y-38905D01*
X105253Y-38905D01*
X104739Y-38305D02*
X104853Y-38305D01*
X104910Y-38334D01*
X104939Y-38362D01*
X104996Y-38448D01*
X105024Y-38562D01*
X105024Y-38791D01*
X104996Y-38848D01*
X104967Y-38877D01*
X104910Y-38905D01*
X104796Y-38905D01*
X104739Y-38877D01*
X104710Y-38848D01*
X104681Y-38791D01*
X104681Y-38648D01*
X104710Y-38591D01*
X104739Y-38562D01*
X104796Y-38534D01*
X104910Y-38534D01*
X104967Y-38562D01*
X104996Y-38591D01*
X105024Y-38648D01*
X98667Y-38877D02*
X98581Y-38905D01*
X98439Y-38905D01*
X98381Y-38877D01*
X98353Y-38848D01*
X98324Y-38791D01*
X98324Y-38734D01*
X98353Y-38677D01*
X98381Y-38648D01*
X98439Y-38620D01*
X98553Y-38591D01*
X98610Y-38562D01*
X98639Y-38534D01*
X98667Y-38477D01*
X98667Y-38420D01*
X98639Y-38362D01*
X98610Y-38334D01*
X98553Y-38305D01*
X98410Y-38305D01*
X98324Y-38334D01*
X98096Y-38362D02*
X98067Y-38334D01*
X98010Y-38305D01*
X97867Y-38305D01*
X97810Y-38334D01*
X97781Y-38362D01*
X97753Y-38420D01*
X97753Y-38477D01*
X97781Y-38562D01*
X98124Y-38905D01*
X97753Y-38905D01*
X97210Y-38305D02*
X97496Y-38305D01*
X97524Y-38591D01*
X97496Y-38562D01*
X97439Y-38534D01*
X97296Y-38534D01*
X97239Y-38562D01*
X97210Y-38591D01*
X97181Y-38648D01*
X97181Y-38791D01*
X97210Y-38848D01*
X97239Y-38877D01*
X97296Y-38905D01*
X97439Y-38905D01*
X97496Y-38877D01*
X97524Y-38848D01*
X91167Y-38877D02*
X91081Y-38905D01*
X90939Y-38905D01*
X90881Y-38877D01*
X90853Y-38848D01*
X90824Y-38791D01*
X90824Y-38734D01*
X90853Y-38677D01*
X90881Y-38648D01*
X90939Y-38620D01*
X91053Y-38591D01*
X91110Y-38562D01*
X91139Y-38534D01*
X91167Y-38477D01*
X91167Y-38420D01*
X91139Y-38362D01*
X91110Y-38334D01*
X91053Y-38305D01*
X90910Y-38305D01*
X90824Y-38334D01*
X90596Y-38362D02*
X90567Y-38334D01*
X90510Y-38305D01*
X90367Y-38305D01*
X90310Y-38334D01*
X90281Y-38362D01*
X90253Y-38420D01*
X90253Y-38477D01*
X90281Y-38562D01*
X90624Y-38905D01*
X90253Y-38905D01*
X89739Y-38505D02*
X89739Y-38905D01*
X89881Y-38277D02*
X90024Y-38705D01*
X89653Y-38705D01*
X83667Y-38877D02*
X83581Y-38905D01*
X83439Y-38905D01*
X83381Y-38877D01*
X83353Y-38848D01*
X83324Y-38791D01*
X83324Y-38734D01*
X83353Y-38677D01*
X83381Y-38648D01*
X83439Y-38620D01*
X83553Y-38591D01*
X83610Y-38562D01*
X83639Y-38534D01*
X83667Y-38477D01*
X83667Y-38420D01*
X83639Y-38362D01*
X83610Y-38334D01*
X83553Y-38305D01*
X83410Y-38305D01*
X83324Y-38334D01*
X83096Y-38362D02*
X83067Y-38334D01*
X83010Y-38305D01*
X82867Y-38305D01*
X82810Y-38334D01*
X82781Y-38362D01*
X82753Y-38420D01*
X82753Y-38477D01*
X82781Y-38562D01*
X83124Y-38905D01*
X82753Y-38905D01*
X82553Y-38305D02*
X82181Y-38305D01*
X82381Y-38534D01*
X82296Y-38534D01*
X82239Y-38562D01*
X82210Y-38591D01*
X82181Y-38648D01*
X82181Y-38791D01*
X82210Y-38848D01*
X82239Y-38877D01*
X82296Y-38905D01*
X82467Y-38905D01*
X82524Y-38877D01*
X82553Y-38848D01*
X76167Y-38877D02*
X76081Y-38905D01*
X75939Y-38905D01*
X75881Y-38877D01*
X75853Y-38848D01*
X75824Y-38791D01*
X75824Y-38734D01*
X75853Y-38677D01*
X75881Y-38648D01*
X75939Y-38620D01*
X76053Y-38591D01*
X76110Y-38562D01*
X76139Y-38534D01*
X76167Y-38477D01*
X76167Y-38420D01*
X76139Y-38362D01*
X76110Y-38334D01*
X76053Y-38305D01*
X75910Y-38305D01*
X75824Y-38334D01*
X75596Y-38362D02*
X75567Y-38334D01*
X75510Y-38305D01*
X75367Y-38305D01*
X75310Y-38334D01*
X75281Y-38362D01*
X75253Y-38420D01*
X75253Y-38477D01*
X75281Y-38562D01*
X75624Y-38905D01*
X75253Y-38905D01*
X75024Y-38362D02*
X74996Y-38334D01*
X74939Y-38305D01*
X74796Y-38305D01*
X74739Y-38334D01*
X74710Y-38362D01*
X74681Y-38420D01*
X74681Y-38477D01*
X74710Y-38562D01*
X75053Y-38905D01*
X74681Y-38905D01*
X68667Y-38877D02*
X68581Y-38905D01*
X68439Y-38905D01*
X68381Y-38877D01*
X68353Y-38848D01*
X68324Y-38791D01*
X68324Y-38734D01*
X68353Y-38677D01*
X68381Y-38648D01*
X68439Y-38620D01*
X68553Y-38591D01*
X68610Y-38562D01*
X68639Y-38534D01*
X68667Y-38477D01*
X68667Y-38420D01*
X68639Y-38362D01*
X68610Y-38334D01*
X68553Y-38305D01*
X68410Y-38305D01*
X68324Y-38334D01*
X68096Y-38362D02*
X68067Y-38334D01*
X68010Y-38305D01*
X67867Y-38305D01*
X67810Y-38334D01*
X67781Y-38362D01*
X67753Y-38420D01*
X67753Y-38477D01*
X67781Y-38562D01*
X68124Y-38905D01*
X67753Y-38905D01*
X67181Y-38905D02*
X67524Y-38905D01*
X67353Y-38905D02*
X67353Y-38305D01*
X67410Y-38391D01*
X67467Y-38448D01*
X67524Y-38477D01*
X61167Y-38877D02*
X61081Y-38905D01*
X60939Y-38905D01*
X60881Y-38877D01*
X60853Y-38848D01*
X60824Y-38791D01*
X60824Y-38734D01*
X60853Y-38677D01*
X60881Y-38648D01*
X60939Y-38620D01*
X61053Y-38591D01*
X61110Y-38562D01*
X61139Y-38534D01*
X61167Y-38477D01*
X61167Y-38420D01*
X61139Y-38362D01*
X61110Y-38334D01*
X61053Y-38305D01*
X60910Y-38305D01*
X60824Y-38334D01*
X60596Y-38362D02*
X60567Y-38334D01*
X60510Y-38305D01*
X60367Y-38305D01*
X60310Y-38334D01*
X60281Y-38362D01*
X60253Y-38420D01*
X60253Y-38477D01*
X60281Y-38562D01*
X60624Y-38905D01*
X60253Y-38905D01*
X59881Y-38305D02*
X59824Y-38305D01*
X59767Y-38334D01*
X59739Y-38362D01*
X59710Y-38420D01*
X59681Y-38534D01*
X59681Y-38677D01*
X59710Y-38791D01*
X59739Y-38848D01*
X59767Y-38877D01*
X59824Y-38905D01*
X59881Y-38905D01*
X59939Y-38877D01*
X59967Y-38848D01*
X59996Y-38791D01*
X60024Y-38677D01*
X60024Y-38534D01*
X59996Y-38420D01*
X59967Y-38362D01*
X59939Y-38334D01*
X59881Y-38305D01*
X132418Y-53876D02*
X132332Y-53905D01*
X132189Y-53905D01*
X132132Y-53876D01*
X132103Y-53848D01*
X132075Y-53791D01*
X132075Y-53734D01*
X132103Y-53676D01*
X132132Y-53648D01*
X132189Y-53619D01*
X132303Y-53591D01*
X132360Y-53562D01*
X132389Y-53534D01*
X132418Y-53476D01*
X132418Y-53419D01*
X132389Y-53362D01*
X132360Y-53334D01*
X132303Y-53305D01*
X132160Y-53305D01*
X132075Y-53334D01*
X131532Y-53305D02*
X131818Y-53305D01*
X131846Y-53591D01*
X131818Y-53562D01*
X131760Y-53534D01*
X131618Y-53534D01*
X131560Y-53562D01*
X131532Y-53591D01*
X131503Y-53648D01*
X131503Y-53791D01*
X131532Y-53848D01*
X131560Y-53876D01*
X131618Y-53905D01*
X131760Y-53905D01*
X131818Y-53876D01*
X131846Y-53848D01*
X130960Y-53305D02*
X131246Y-53305D01*
X131275Y-53591D01*
X131246Y-53562D01*
X131189Y-53534D01*
X131046Y-53534D01*
X130989Y-53562D01*
X130960Y-53591D01*
X130932Y-53648D01*
X130932Y-53791D01*
X130960Y-53848D01*
X130989Y-53876D01*
X131046Y-53905D01*
X131189Y-53905D01*
X131246Y-53876D01*
X131275Y-53848D01*
X102418Y-31377D02*
X102332Y-31405D01*
X102189Y-31405D01*
X102132Y-31377D01*
X102103Y-31348D01*
X102075Y-31291D01*
X102075Y-31234D01*
X102103Y-31177D01*
X102132Y-31148D01*
X102189Y-31120D01*
X102303Y-31091D01*
X102360Y-31062D01*
X102389Y-31034D01*
X102418Y-30977D01*
X102418Y-30920D01*
X102389Y-30862D01*
X102360Y-30834D01*
X102303Y-30805D01*
X102160Y-30805D01*
X102075Y-30834D01*
X101503Y-31405D02*
X101846Y-31405D01*
X101675Y-31405D02*
X101675Y-30805D01*
X101732Y-30891D01*
X101789Y-30948D01*
X101846Y-30977D01*
X100932Y-31405D02*
X101275Y-31405D01*
X101103Y-31405D02*
X101103Y-30805D01*
X101160Y-30891D01*
X101218Y-30948D01*
X101275Y-30977D01*
X122105Y-53876D02*
X122019Y-53905D01*
X121876Y-53905D01*
X121819Y-53876D01*
X121791Y-53848D01*
X121762Y-53791D01*
X121762Y-53734D01*
X121791Y-53676D01*
X121819Y-53648D01*
X121876Y-53619D01*
X121991Y-53591D01*
X122048Y-53562D01*
X122076Y-53534D01*
X122105Y-53476D01*
X122105Y-53419D01*
X122076Y-53362D01*
X122048Y-53334D01*
X121991Y-53305D01*
X121848Y-53305D01*
X121762Y-53334D01*
X121219Y-53305D02*
X121505Y-53305D01*
X121534Y-53591D01*
X121505Y-53562D01*
X121448Y-53534D01*
X121305Y-53534D01*
X121248Y-53562D01*
X121219Y-53591D01*
X121191Y-53648D01*
X121191Y-53791D01*
X121219Y-53848D01*
X121248Y-53876D01*
X121305Y-53905D01*
X121448Y-53905D01*
X121505Y-53876D01*
X121534Y-53848D01*
X120676Y-53505D02*
X120676Y-53905D01*
X120819Y-53276D02*
X120962Y-53705D01*
X120591Y-53705D01*
X30230Y-46377D02*
X30145Y-46405D01*
X30002Y-46405D01*
X29945Y-46377D01*
X29916Y-46348D01*
X29887Y-46291D01*
X29887Y-46234D01*
X29916Y-46177D01*
X29945Y-46148D01*
X30002Y-46120D01*
X30116Y-46091D01*
X30173Y-46062D01*
X30202Y-46034D01*
X30230Y-45977D01*
X30230Y-45920D01*
X30202Y-45862D01*
X30173Y-45834D01*
X30116Y-45805D01*
X29973Y-45805D01*
X29887Y-45834D01*
X29687Y-45805D02*
X29316Y-45805D01*
X29516Y-46034D01*
X29430Y-46034D01*
X29373Y-46062D01*
X29345Y-46091D01*
X29316Y-46148D01*
X29316Y-46291D01*
X29345Y-46348D01*
X29373Y-46377D01*
X29430Y-46405D01*
X29602Y-46405D01*
X29659Y-46377D01*
X29687Y-46348D01*
X28945Y-45805D02*
X28887Y-45805D01*
X28830Y-45834D01*
X28802Y-45862D01*
X28773Y-45920D01*
X28745Y-46034D01*
X28745Y-46177D01*
X28773Y-46291D01*
X28802Y-46348D01*
X28830Y-46377D01*
X28887Y-46405D01*
X28945Y-46405D01*
X29002Y-46377D01*
X29030Y-46348D01*
X29059Y-46291D01*
X29087Y-46177D01*
X29087Y-46034D01*
X29059Y-45920D01*
X29030Y-45862D01*
X29002Y-45834D01*
X28945Y-45805D01*
X124918Y-31377D02*
X124832Y-31405D01*
X124689Y-31405D01*
X124632Y-31377D01*
X124603Y-31348D01*
X124575Y-31291D01*
X124575Y-31234D01*
X124603Y-31177D01*
X124632Y-31148D01*
X124689Y-31120D01*
X124803Y-31091D01*
X124860Y-31062D01*
X124889Y-31034D01*
X124918Y-30977D01*
X124918Y-30920D01*
X124889Y-30862D01*
X124860Y-30834D01*
X124803Y-30805D01*
X124660Y-30805D01*
X124575Y-30834D01*
X124003Y-31405D02*
X124346Y-31405D01*
X124175Y-31405D02*
X124175Y-30805D01*
X124232Y-30891D01*
X124289Y-30948D01*
X124346Y-30977D01*
X123489Y-31005D02*
X123489Y-31405D01*
X123632Y-30777D02*
X123775Y-31205D01*
X123403Y-31205D01*
%LPC*%
G54D19*
X25097Y-47842D03*
X136153Y-47842D03*
G54D20*
X126748Y-36582D03*
X99483Y-59142D03*
X75000Y-44105D03*
G54D21*
X34295Y-36582D03*
G54D22*
X37169Y-45373D03*
X36499Y-45373D03*
X37169Y-43877D03*
X36499Y-43877D03*
G54D23*
X35622Y-43057D03*
X35722Y-44057D03*
X35622Y-45057D03*
X35722Y-46057D03*
G54D24*
X66496Y-59685D03*
X66889Y-59685D03*
G54D25*
X31325Y-29665D03*
X31325Y-30059D03*
X31820Y-29665D03*
X31820Y-30059D03*
G54D24*
X66889Y-58031D03*
X66496Y-58031D03*
X66889Y-58858D03*
X66496Y-58858D03*
G54D25*
X57743Y-59463D03*
X57743Y-59857D03*
G54D24*
X59518Y-61360D03*
X59912Y-61360D03*
X66889Y-57204D03*
X66496Y-57204D03*
G54D25*
X65203Y-59242D03*
X65203Y-59636D03*
G54D26*
X63692Y-57468D03*
X63692Y-57665D03*
X63692Y-57862D03*
X63692Y-58058D03*
X63692Y-58255D03*
X63692Y-58452D03*
X63692Y-58648D03*
X63692Y-58845D03*
X63692Y-59042D03*
X63692Y-59238D03*
X63692Y-59435D03*
X63692Y-59632D03*
G54D27*
X63082Y-60242D03*
X62885Y-60242D03*
X62688Y-60242D03*
X62492Y-60242D03*
X62295Y-60242D03*
X62098Y-60242D03*
X61902Y-60242D03*
X61705Y-60242D03*
X61508Y-60242D03*
X61312Y-60242D03*
X61115Y-60242D03*
X60918Y-60242D03*
G54D26*
X60308Y-59632D03*
X60308Y-59435D03*
X60308Y-59238D03*
X60308Y-59042D03*
X60308Y-58845D03*
X60308Y-58648D03*
X60308Y-58452D03*
X60308Y-58255D03*
X60308Y-58058D03*
X60308Y-57862D03*
X60308Y-57665D03*
X60308Y-57468D03*
G54D27*
X60918Y-56858D03*
X61115Y-56858D03*
X61312Y-56858D03*
X61508Y-56858D03*
X61705Y-56858D03*
X61902Y-56858D03*
X62098Y-56858D03*
X62295Y-56858D03*
X62492Y-56858D03*
X62688Y-56858D03*
X62885Y-56858D03*
X63082Y-56858D03*
G54D28*
X57743Y-60765D03*
X57743Y-61355D03*
G54D29*
X29306Y-33190D03*
X29306Y-31812D03*
X83500Y-54190D03*
X83500Y-52812D03*
X40900Y-61690D03*
X40900Y-60312D03*
X31550Y-61690D03*
X31550Y-60312D03*
X134109Y-54190D03*
X134109Y-52812D03*
X123796Y-54190D03*
X123796Y-52812D03*
X113500Y-54190D03*
X113500Y-52812D03*
X106000Y-54190D03*
X106000Y-52812D03*
X98500Y-54190D03*
X98500Y-52812D03*
X91000Y-54190D03*
X91000Y-52812D03*
X115900Y-61690D03*
X115900Y-60312D03*
X76000Y-54190D03*
X76000Y-52812D03*
X68500Y-54190D03*
X68500Y-52812D03*
X61000Y-54190D03*
X61000Y-52812D03*
X53500Y-54190D03*
X53500Y-52812D03*
X50300Y-61690D03*
X50300Y-60312D03*
X78450Y-61690D03*
X78450Y-60312D03*
X106550Y-61690D03*
X106550Y-60312D03*
X74125Y-31690D03*
X74125Y-30312D03*
X33796Y-54190D03*
X33796Y-52812D03*
X124350Y-61690D03*
X124350Y-60312D03*
X133700Y-61690D03*
X133700Y-60312D03*
X66625Y-31690D03*
X66625Y-30312D03*
X59125Y-31690D03*
X59125Y-30312D03*
X51625Y-31690D03*
X51625Y-30312D03*
X44125Y-31690D03*
X44125Y-30312D03*
X36806Y-33190D03*
X36806Y-31812D03*
X47874Y-39190D03*
X47874Y-37812D03*
X107874Y-39190D03*
X107874Y-37812D03*
X100374Y-39190D03*
X100374Y-37812D03*
X92874Y-39190D03*
X92874Y-37812D03*
X85374Y-39190D03*
X85374Y-37812D03*
X77874Y-39190D03*
X77874Y-37812D03*
X70374Y-39190D03*
X70374Y-37812D03*
X62874Y-39190D03*
X62874Y-37812D03*
X55374Y-39190D03*
X55374Y-37812D03*
X115374Y-39190D03*
X115374Y-37812D03*
X40374Y-39190D03*
X40374Y-37812D03*
X31000Y-39190D03*
X31000Y-37812D03*
X126625Y-31690D03*
X126625Y-30312D03*
X119125Y-31690D03*
X119125Y-30312D03*
X111625Y-31690D03*
X111625Y-30312D03*
X104125Y-31690D03*
X104125Y-30312D03*
X96625Y-31690D03*
X96625Y-30312D03*
X89125Y-31690D03*
X89125Y-30312D03*
X72250Y-46690D03*
X72250Y-45312D03*
X81625Y-31690D03*
X81625Y-30312D03*
X129421Y-46690D03*
X129421Y-45312D03*
X117250Y-46690D03*
X117250Y-45312D03*
X109750Y-46690D03*
X109750Y-45312D03*
X102250Y-46690D03*
X102250Y-45312D03*
X94750Y-46690D03*
X94750Y-45312D03*
X87250Y-46690D03*
X87250Y-45312D03*
X79750Y-46690D03*
X79750Y-45312D03*
X46000Y-54190D03*
X46000Y-52812D03*
X64750Y-46690D03*
X64750Y-45312D03*
X57250Y-46690D03*
X57250Y-45312D03*
X49750Y-46690D03*
X49750Y-45312D03*
X42250Y-46690D03*
X42250Y-45312D03*
X31922Y-46690D03*
X31922Y-45312D03*
X132234Y-39190D03*
X132234Y-37812D03*
X122874Y-39190D03*
X122874Y-37812D03*
X134125Y-31690D03*
X134125Y-30312D03*
G54D30*
X29750Y-26349D03*
X33627Y-26349D03*
G54D31*
X30822Y-27097D03*
X32555Y-27097D03*
G54D32*
X29750Y-27964D03*
X33627Y-27964D03*
G54D33*
X31688Y-28220D03*
X31059Y-28220D03*
X31374Y-28220D03*
X32003Y-28220D03*
X32318Y-28220D03*
G54D34*
X29067Y-59062D03*
G54D35*
X27067Y-59062D03*
X31067Y-59062D03*
G54D36*
X27886Y-57487D02*
X27567Y-58062D01*
X30067Y-57062D02*
X30051Y-57290D01*
G54D34*
X133125Y-29062D03*
G54D35*
X131125Y-29062D03*
X135125Y-29062D03*
G54D36*
X131944Y-27488D02*
X131624Y-28062D01*
X134125Y-27063D02*
X134109Y-27291D01*
G54D34*
X60000Y-51562D03*
G54D35*
X58000Y-51562D03*
X62000Y-51562D03*
G54D36*
X58819Y-49988D02*
X58499Y-50562D01*
X60999Y-49563D02*
X60984Y-49791D01*
G54D34*
X39374Y-59062D03*
G54D35*
X37374Y-59062D03*
X41374Y-59062D03*
G54D36*
X38194Y-57487D02*
X37874Y-58062D01*
X40374Y-57062D02*
X40359Y-57290D01*
G54D34*
X112500Y-51562D03*
G54D35*
X110500Y-51562D03*
X114500Y-51562D03*
G54D36*
X111319Y-49988D02*
X110999Y-50562D01*
X113499Y-49563D02*
X113484Y-49791D01*
G54D34*
X105000Y-51562D03*
G54D35*
X103000Y-51562D03*
X107000Y-51562D03*
G54D36*
X103819Y-49988D02*
X103499Y-50562D01*
X105999Y-49563D02*
X105984Y-49791D01*
G54D34*
X97500Y-51562D03*
G54D35*
X95500Y-51562D03*
X99500Y-51562D03*
G54D36*
X96319Y-49988D02*
X95999Y-50562D01*
X98499Y-49563D02*
X98484Y-49791D01*
G54D34*
X90000Y-51562D03*
G54D35*
X88000Y-51562D03*
X92000Y-51562D03*
G54D36*
X88819Y-49988D02*
X88499Y-50562D01*
X90999Y-49563D02*
X90984Y-49791D01*
G54D34*
X82500Y-51562D03*
G54D35*
X80500Y-51562D03*
X84500Y-51562D03*
G54D36*
X81319Y-49988D02*
X80999Y-50562D01*
X83499Y-49563D02*
X83484Y-49791D01*
G54D34*
X75000Y-51562D03*
G54D35*
X73000Y-51562D03*
X77000Y-51562D03*
G54D36*
X73819Y-49988D02*
X73499Y-50562D01*
X75999Y-49563D02*
X75984Y-49791D01*
G54D34*
X67500Y-51562D03*
G54D35*
X65500Y-51562D03*
X69500Y-51562D03*
G54D36*
X66319Y-49988D02*
X65999Y-50562D01*
X68499Y-49563D02*
X68484Y-49791D01*
G54D34*
X52500Y-51562D03*
G54D35*
X50500Y-51562D03*
X54500Y-51562D03*
G54D36*
X51319Y-49988D02*
X50999Y-50562D01*
X53499Y-49563D02*
X53484Y-49791D01*
G54D34*
X45000Y-51562D03*
G54D35*
X43000Y-51562D03*
X47000Y-51562D03*
G54D36*
X43819Y-49988D02*
X43499Y-50562D01*
X45999Y-49563D02*
X45984Y-49791D01*
G54D34*
X32812Y-51562D03*
G54D35*
X30812Y-51562D03*
X34812Y-51562D03*
G54D36*
X31631Y-49987D02*
X31312Y-50562D01*
X33812Y-49562D02*
X33796Y-49790D01*
G54D34*
X128437Y-44062D03*
G54D35*
X126437Y-44062D03*
X130437Y-44062D03*
G54D36*
X127256Y-42487D02*
X126936Y-43062D01*
X129437Y-42062D02*
X129421Y-42290D01*
G54D34*
X116250Y-44062D03*
G54D35*
X114250Y-44062D03*
X118250Y-44062D03*
G54D36*
X115069Y-42488D02*
X114749Y-43062D01*
X117249Y-42063D02*
X117234Y-42291D01*
G54D34*
X108750Y-44062D03*
G54D35*
X106750Y-44062D03*
X110750Y-44062D03*
G54D36*
X107569Y-42488D02*
X107249Y-43062D01*
X109749Y-42063D02*
X109734Y-42291D01*
G54D34*
X101250Y-44062D03*
G54D35*
X99250Y-44062D03*
X103250Y-44062D03*
G54D36*
X100069Y-42488D02*
X99749Y-43062D01*
X102249Y-42063D02*
X102234Y-42291D01*
G54D34*
X93750Y-44062D03*
G54D35*
X91750Y-44062D03*
X95750Y-44062D03*
G54D36*
X92569Y-42488D02*
X92249Y-43062D01*
X94749Y-42063D02*
X94734Y-42291D01*
G54D34*
X131250Y-59062D03*
G54D35*
X129250Y-59062D03*
X133250Y-59062D03*
G54D36*
X130069Y-57487D02*
X129749Y-58062D01*
X132249Y-57062D02*
X132234Y-57290D01*
G54D34*
X121874Y-59062D03*
G54D35*
X119874Y-59062D03*
X123874Y-59062D03*
G54D36*
X120694Y-57487D02*
X120374Y-58062D01*
X122874Y-57062D02*
X122859Y-57290D01*
G54D34*
X114374Y-59062D03*
G54D35*
X112374Y-59062D03*
X116374Y-59062D03*
G54D36*
X113194Y-57487D02*
X112874Y-58062D01*
X115374Y-57062D02*
X115359Y-57290D01*
G54D34*
X105000Y-59062D03*
G54D35*
X103000Y-59062D03*
X107000Y-59062D03*
G54D36*
X103819Y-57487D02*
X103499Y-58062D01*
X105999Y-57062D02*
X105984Y-57290D01*
G54D34*
X76874Y-59062D03*
G54D35*
X74874Y-59062D03*
X78874Y-59062D03*
G54D36*
X75694Y-57487D02*
X75374Y-58062D01*
X77874Y-57062D02*
X77859Y-57290D01*
G54D34*
X48749Y-59062D03*
G54D35*
X46749Y-59062D03*
X50749Y-59062D03*
G54D36*
X47568Y-57487D02*
X47249Y-58062D01*
X49749Y-57062D02*
X49733Y-57290D01*
G54D34*
X30000Y-59062D03*
G54D35*
X28000Y-59062D03*
X32000Y-59062D03*
G54D36*
X28819Y-57487D02*
X28499Y-58062D01*
X30999Y-57062D02*
X30984Y-57290D01*
G54D34*
X54374Y-36562D03*
G54D35*
X52374Y-36562D03*
X56374Y-36562D03*
G54D36*
X53194Y-34988D02*
X52874Y-35562D01*
X55374Y-34563D02*
X55359Y-34791D01*
G54D34*
X46874Y-36562D03*
G54D35*
X44874Y-36562D03*
X48874Y-36562D03*
G54D36*
X45694Y-34988D02*
X45374Y-35562D01*
X47874Y-34563D02*
X47859Y-34791D01*
G54D34*
X39374Y-36562D03*
G54D35*
X37374Y-36562D03*
X41374Y-36562D03*
G54D36*
X38194Y-34988D02*
X37874Y-35562D01*
X40374Y-34563D02*
X40359Y-34791D01*
G54D34*
X30000Y-36562D03*
G54D35*
X28000Y-36562D03*
X32000Y-36562D03*
G54D36*
X28819Y-34988D02*
X28499Y-35562D01*
X30999Y-34563D02*
X30984Y-34791D01*
G54D34*
X118125Y-29062D03*
G54D35*
X116125Y-29062D03*
X120125Y-29062D03*
G54D36*
X116944Y-27488D02*
X116624Y-28062D01*
X119125Y-27063D02*
X119109Y-27291D01*
G54D34*
X110625Y-29062D03*
G54D35*
X108625Y-29062D03*
X112625Y-29062D03*
G54D36*
X109444Y-27488D02*
X109124Y-28062D01*
X111625Y-27063D02*
X111609Y-27291D01*
G54D34*
X95625Y-29062D03*
G54D35*
X93625Y-29062D03*
X97625Y-29062D03*
G54D36*
X94444Y-27488D02*
X94124Y-28062D01*
X96625Y-27063D02*
X96609Y-27291D01*
G54D34*
X88125Y-29062D03*
G54D35*
X86125Y-29062D03*
X90125Y-29062D03*
G54D36*
X86944Y-27488D02*
X86624Y-28062D01*
X89125Y-27063D02*
X89109Y-27291D01*
G54D34*
X80625Y-29062D03*
G54D35*
X78625Y-29062D03*
X82625Y-29062D03*
G54D36*
X79444Y-27488D02*
X79124Y-28062D01*
X81625Y-27063D02*
X81609Y-27291D01*
G54D34*
X73125Y-29062D03*
G54D35*
X71125Y-29062D03*
X75125Y-29062D03*
G54D36*
X71944Y-27488D02*
X71624Y-28062D01*
X74125Y-27063D02*
X74109Y-27291D01*
G54D34*
X65625Y-29062D03*
G54D35*
X63625Y-29062D03*
X67625Y-29062D03*
G54D36*
X64444Y-27488D02*
X64124Y-28062D01*
X66625Y-27063D02*
X66609Y-27291D01*
G54D34*
X58125Y-29062D03*
G54D35*
X56125Y-29062D03*
X60125Y-29062D03*
G54D36*
X56944Y-27488D02*
X56624Y-28062D01*
X59125Y-27063D02*
X59109Y-27291D01*
G54D34*
X50625Y-29062D03*
G54D35*
X48625Y-29062D03*
X52625Y-29062D03*
G54D36*
X49444Y-27488D02*
X49124Y-28062D01*
X51625Y-27063D02*
X51609Y-27291D01*
G54D34*
X43125Y-29062D03*
G54D35*
X41125Y-29062D03*
X45125Y-29062D03*
G54D36*
X41944Y-27488D02*
X41624Y-28062D01*
X44125Y-27063D02*
X44109Y-27291D01*
G54D34*
X35625Y-29062D03*
G54D35*
X37625Y-29062D03*
X33625Y-29062D03*
G54D36*
X36805Y-30637D02*
X37125Y-30062D01*
X34625Y-31062D02*
X34640Y-30834D01*
G54D34*
X28125Y-29062D03*
G54D35*
X30125Y-29062D03*
X26125Y-29062D03*
G54D36*
X29305Y-30637D02*
X29625Y-30062D01*
X27125Y-31062D02*
X27140Y-30834D01*
G54D34*
X86250Y-44062D03*
G54D35*
X84250Y-44062D03*
X88250Y-44062D03*
G54D36*
X85069Y-42488D02*
X84749Y-43062D01*
X87249Y-42063D02*
X87234Y-42291D01*
G54D34*
X78750Y-44062D03*
G54D35*
X76750Y-44062D03*
X80750Y-44062D03*
G54D36*
X77569Y-42488D02*
X77249Y-43062D01*
X79749Y-42063D02*
X79734Y-42291D01*
G54D34*
X71250Y-44062D03*
G54D35*
X69250Y-44062D03*
X73250Y-44062D03*
G54D36*
X70069Y-42488D02*
X69749Y-43062D01*
X72249Y-42063D02*
X72234Y-42291D01*
G54D34*
X63750Y-44062D03*
G54D35*
X61750Y-44062D03*
X65750Y-44062D03*
G54D36*
X62569Y-42488D02*
X62249Y-43062D01*
X64749Y-42063D02*
X64734Y-42291D01*
G54D34*
X56250Y-44062D03*
G54D35*
X54250Y-44062D03*
X58250Y-44062D03*
G54D36*
X55069Y-42488D02*
X54749Y-43062D01*
X57249Y-42063D02*
X57234Y-42291D01*
G54D34*
X48750Y-44062D03*
G54D35*
X46750Y-44062D03*
X50750Y-44062D03*
G54D36*
X47569Y-42488D02*
X47249Y-43062D01*
X49749Y-42063D02*
X49734Y-42291D01*
G54D34*
X41250Y-44062D03*
G54D35*
X39250Y-44062D03*
X43250Y-44062D03*
G54D36*
X40069Y-42488D02*
X39749Y-43062D01*
X42249Y-42063D02*
X42234Y-42291D01*
G54D34*
X131250Y-36562D03*
G54D35*
X129250Y-36562D03*
X133250Y-36562D03*
G54D36*
X130069Y-34987D02*
X129749Y-35562D01*
X132249Y-34562D02*
X132234Y-34790D01*
G54D34*
X121874Y-36562D03*
G54D35*
X119874Y-36562D03*
X123874Y-36562D03*
G54D36*
X120694Y-34988D02*
X120374Y-35562D01*
X122874Y-34563D02*
X122859Y-34791D01*
G54D34*
X114374Y-36562D03*
G54D35*
X112374Y-36562D03*
X116374Y-36562D03*
G54D36*
X113194Y-34988D02*
X112874Y-35562D01*
X115374Y-34563D02*
X115359Y-34791D01*
G54D34*
X106874Y-36562D03*
G54D35*
X104874Y-36562D03*
X108874Y-36562D03*
G54D36*
X105694Y-34988D02*
X105374Y-35562D01*
X107874Y-34563D02*
X107859Y-34791D01*
G54D34*
X99374Y-36562D03*
G54D35*
X97374Y-36562D03*
X101374Y-36562D03*
G54D36*
X98194Y-34988D02*
X97874Y-35562D01*
X100374Y-34563D02*
X100359Y-34791D01*
G54D34*
X91874Y-36562D03*
G54D35*
X89874Y-36562D03*
X93874Y-36562D03*
G54D36*
X90694Y-34988D02*
X90374Y-35562D01*
X92874Y-34563D02*
X92859Y-34791D01*
G54D34*
X84374Y-36562D03*
G54D35*
X82374Y-36562D03*
X86374Y-36562D03*
G54D36*
X83194Y-34988D02*
X82874Y-35562D01*
X85374Y-34563D02*
X85359Y-34791D01*
G54D34*
X76874Y-36562D03*
G54D35*
X74874Y-36562D03*
X78874Y-36562D03*
G54D36*
X75694Y-34988D02*
X75374Y-35562D01*
X77874Y-34563D02*
X77859Y-34791D01*
G54D34*
X69374Y-36562D03*
G54D35*
X67374Y-36562D03*
X71374Y-36562D03*
G54D36*
X68194Y-34988D02*
X67874Y-35562D01*
X70374Y-34563D02*
X70359Y-34791D01*
G54D34*
X61874Y-36562D03*
G54D35*
X59874Y-36562D03*
X63874Y-36562D03*
G54D36*
X60694Y-34988D02*
X60374Y-35562D01*
X62874Y-34563D02*
X62859Y-34791D01*
G54D34*
X133125Y-51562D03*
G54D35*
X131125Y-51562D03*
X135125Y-51562D03*
G54D36*
X131944Y-49987D02*
X131624Y-50562D01*
X134125Y-49562D02*
X134109Y-49790D01*
G54D34*
X103125Y-29062D03*
G54D35*
X101125Y-29062D03*
X105125Y-29062D03*
G54D36*
X101944Y-27488D02*
X101624Y-28062D01*
X104125Y-27063D02*
X104109Y-27291D01*
G54D34*
X122812Y-51562D03*
G54D35*
X120812Y-51562D03*
X124812Y-51562D03*
G54D36*
X121631Y-49987D02*
X121312Y-50562D01*
X123812Y-49562D02*
X123796Y-49790D01*
G54D34*
X30937Y-44062D03*
G54D35*
X28937Y-44062D03*
X32937Y-44062D03*
G54D36*
X29757Y-42488D02*
X29437Y-43062D01*
X31937Y-42063D02*
X31922Y-42291D01*
G54D34*
X125625Y-29062D03*
G54D35*
X123625Y-29062D03*
X127625Y-29062D03*
G54D36*
X124444Y-27488D02*
X124124Y-28062D01*
X126625Y-27063D02*
X126609Y-27291D01*
G54D34*
X38437Y-59062D03*
G54D35*
X36437Y-59062D03*
X40437Y-59062D03*
G54D36*
X37256Y-57487D02*
X36937Y-58062D01*
X39437Y-57062D02*
X39421Y-57290D01*
G54D34*
X47812Y-59062D03*
G54D35*
X45812Y-59062D03*
X49812Y-59062D03*
G54D36*
X46631Y-57487D02*
X46312Y-58062D01*
X48812Y-57062D02*
X48796Y-57290D01*
G54D34*
X75935Y-59062D03*
G54D35*
X73935Y-59062D03*
X77935Y-59062D03*
G54D36*
X74754Y-57487D02*
X74434Y-58062D01*
X76934Y-57062D02*
X76919Y-57290D01*
G54D34*
X104057Y-59062D03*
G54D35*
X102057Y-59062D03*
X106057Y-59062D03*
G54D36*
X102876Y-57487D02*
X102557Y-58062D01*
X105057Y-57062D02*
X105041Y-57290D01*
G54D34*
X113432Y-59062D03*
G54D35*
X111432Y-59062D03*
X115432Y-59062D03*
G54D36*
X112252Y-57487D02*
X111932Y-58062D01*
X114432Y-57062D02*
X114417Y-57290D01*
G54D34*
X122807Y-59062D03*
G54D35*
X120807Y-59062D03*
X124807Y-59062D03*
G54D36*
X121626Y-57487D02*
X121307Y-58062D01*
X123807Y-57062D02*
X123791Y-57290D01*
G54D34*
X132182Y-59062D03*
G54D35*
X130182Y-59062D03*
X134182Y-59062D03*
G54D36*
X131002Y-57487D02*
X130682Y-58062D01*
X133182Y-57062D02*
X133167Y-57290D01*
M02*
