M48
;DRILL file {KiCad (2017-09-19 revision dddaa7e69)-makepkg} date 11/22/17 14:32:38
;FORMAT={2:4/ absolute / inch / suppress leading zeros}
FMAT,2
INCH,TZ
T1C0.008
T2C0.012
T3C0.016
T4C0.020
T5C0.039
T6C0.041
T7C0.059
T8C0.106
%
G90
G05
M72
T1
X24500Y-54950
X24900Y-57600
X24900Y-59000
X25300Y-60700
X25388Y-59356
X26400Y-54250
X26900Y-34950
X27050Y-37450
X27549Y-31119
X27550Y-43150
X28400Y-46850
X29654Y-42735
X29900Y-48500
X30150Y-41350
X30200Y-40050
X30300Y-38650
X30433Y-50491
X30600Y-42350
X31350Y-36750
X31900Y-44500
X32000Y-46300
X32350Y-45650
X32435Y-33275
X32820Y-39340
X33200Y-42300
X33850Y-37900
X33950Y-44550
X34625Y-33254
X34750Y-43100
X34750Y-51250
X35287Y-43231
X35563Y-55285
X35650Y-53700
X35700Y-44900
X36150Y-37050
X36850Y-34800
X37100Y-45050
X37254Y-40860
X38050Y-49000
X38050Y-63600
X38200Y-46950
X38242Y-55511
X38631Y-59037
X38650Y-57250
X38850Y-41750
X38950Y-52850
X39050Y-40000
X39100Y-51150
X39300Y-43700
X39407Y-46388
X39700Y-47250
X40100Y-49850
X40400Y-55000
X40700Y-35800
X40750Y-49100
X40850Y-37200
X41300Y-41200
X41650Y-44900
X42050Y-47150
X42100Y-48100
X42183Y-46394
X42350Y-45650
X42700Y-36750
X42800Y-52700
X43045Y-55331
X43700Y-41250
X43800Y-38450
X44546Y-51761
X45074Y-39603
X45200Y-54600
X45350Y-41650
X45550Y-53000
X45647Y-48020
X45750Y-40700
X45850Y-51750
X46050Y-43300
X46600Y-39950
X46650Y-36400
X46900Y-56300
X47550Y-45500
X47728Y-39335
X47900Y-51300
X47950Y-49950
X48267Y-53610
X48500Y-48050
X48650Y-35950
X48800Y-41250
X49050Y-47200
X49095Y-40213
X49860Y-48285
X50250Y-43450
X50748Y-40043
X50800Y-37200
X50900Y-48850
X51141Y-40114
X51200Y-39250
X51400Y-45800
X52000Y-51700
X52050Y-56050
X52100Y-58100
X52950Y-56100
X53050Y-48800
X53250Y-44050
X53950Y-40700
X54100Y-39700
X54400Y-59350
X54609Y-47052
X54700Y-52250
X54850Y-37800
X54962Y-62257
X55700Y-47400
X55700Y-48350
X56350Y-40800
X56350Y-50450
X56669Y-55487
X56700Y-56450
X56700Y-59100
X57100Y-58400
X58100Y-45100
X58450Y-43400
X58503Y-60431
X58555Y-55356
X58868Y-61954
X59034Y-61787
X59257Y-60886
X59297Y-60222
X59487Y-60294
X59550Y-57500
X59800Y-63100
X59900Y-59700
X60136Y-44635
X60139Y-60306
X60153Y-49744
X60350Y-56150
X60400Y-59300
X60450Y-52750
X60500Y-41100
X60590Y-55453
X60632Y-57220
X60793Y-63903
X60800Y-48450
X60823Y-37760
X60888Y-60349
X60929Y-40206
X61450Y-41150
X61500Y-42400
X61600Y-66000
X61764Y-54774
X61850Y-51450
X61982Y-55571
X62150Y-55000
X62250Y-49950
X62360Y-52910
X62550Y-61350
X62700Y-49550
X62700Y-53500
X63150Y-47400
X63450Y-44500
X63800Y-40950
X64000Y-59400
X64029Y-49111
X64150Y-64300
X64250Y-52250
X64450Y-56200
X64850Y-54900
X64900Y-50400
X64912Y-62865
X65089Y-49500
X65550Y-58600
X65688Y-55156
X65850Y-61600
X65950Y-40000
X66450Y-57500
X67000Y-50800
X67297Y-40590
X67400Y-59000
X67550Y-54750
X67650Y-53400
X68050Y-39800
X68050Y-48600
X68100Y-46000
X68200Y-38400
X68350Y-44900
X69100Y-52050
X69200Y-55850
X69300Y-47100
X69300Y-66050
X69450Y-57350
X69700Y-48250
X70000Y-51100
X70000Y-61700
X70300Y-62600
X70450Y-42850
X70600Y-49900
X70850Y-44300
X70900Y-36600
X70900Y-46800
X71266Y-47748
X71300Y-55050
X71315Y-40383
X71650Y-65500
X72200Y-54150
X72450Y-66000
X72800Y-63250
X72850Y-43800
X73150Y-47850
X73300Y-49800
X73450Y-54300
X73550Y-38400
X73700Y-56100
X73700Y-57250
X73700Y-60650
X73850Y-53550
X74000Y-55050
X74145Y-45885
X74150Y-37300
X74150Y-43700
X74200Y-53150
X74271Y-40026
X74400Y-44850
X74950Y-52850
X74995Y-60209
X75000Y-58450
X75100Y-64250
X75450Y-42950
X75550Y-44300
X75550Y-48850
X75811Y-54590
X76200Y-57300
X76200Y-58700
X76300Y-53200
X76450Y-51200
X76600Y-55250
X76650Y-38450
X76747Y-40386
X76800Y-56700
X77050Y-62550
X77750Y-63450
X77850Y-51500
X77950Y-40550
X78000Y-47550
X78100Y-37450
X78300Y-45650
X78450Y-42050
X78600Y-65100
X78700Y-40050
X78700Y-58600
X78900Y-41300
X78950Y-57050
X79150Y-64300
X79200Y-60700
X79250Y-55100
X79618Y-55541
X79650Y-63150
X79891Y-54581
X80302Y-57800
X80450Y-43650
X80476Y-49572
X80550Y-56600
X80700Y-57550
X80750Y-47150
X80931Y-47891
X81000Y-56650
X81050Y-36400
X81050Y-40700
X81050Y-55400
X81100Y-52950
X81300Y-41400
X81388Y-40450
X81400Y-44850
X81400Y-62700
X81600Y-38100
X81636Y-64983
X81637Y-64756
X81700Y-56400
X81750Y-58100
X81800Y-60900
X81800Y-65850
X82188Y-60505
X82224Y-62703
X82292Y-57785
X82294Y-64920
X82329Y-65230
X82400Y-52250
X82793Y-61461
X83150Y-58650
X83150Y-65700
X83185Y-62945
X83200Y-40550
X83250Y-36800
X83257Y-62044
X83281Y-62405
X83297Y-63195
X83342Y-63596
X83450Y-62517
X83480Y-61881
X83527Y-63112
X83550Y-48100
X83640Y-62510
X83642Y-63278
X83850Y-57150
X83874Y-62255
X83874Y-64300
X83950Y-41750
X83950Y-51950
X84059Y-59081
X84134Y-62276
X84143Y-62784
X84143Y-63040
X84147Y-64032
X84250Y-46000
X84319Y-64690
X84350Y-53550
X84356Y-59571
X84383Y-63022
X84389Y-61638
X84399Y-62528
X84401Y-62270
X84403Y-64032
X84555Y-64702
X84641Y-64048
X84650Y-48700
X84743Y-65939
X84766Y-64725
X84900Y-48100
X84940Y-41077
X84950Y-47450
X85050Y-38200
X85068Y-64733
X85125Y-62004
X85136Y-40528
X85150Y-66750
X85152Y-64303
X85171Y-61642
X85300Y-57500
X85400Y-64040
X85427Y-63547
X85435Y-64690
X85450Y-44850
X85642Y-65007
X85652Y-64028
X85766Y-66613
X85800Y-42400
X85817Y-60421
X85908Y-63040
X85923Y-63534
X85950Y-58700
X86100Y-35700
X86118Y-34675
X86300Y-41550
X86310Y-65907
X86350Y-55200
X86596Y-63896
X86645Y-62678
X86716Y-66905
X86861Y-62965
X86864Y-63168
X86866Y-63373
X86886Y-63609
X86950Y-33500
X86950Y-55800
X86960Y-47939
X86987Y-60917
X87100Y-45700
X87100Y-52000
X87150Y-50850
X87350Y-49650
X87800Y-46300
X87832Y-44444
X87850Y-62300
X88079Y-62908
X88170Y-42646
X88250Y-48700
X88250Y-57700
X88550Y-46150
X88700Y-59500
X88842Y-62908
X88850Y-57250
X88910Y-41534
X89350Y-50500
X89750Y-52450
X89750Y-63650
X89800Y-62150
X89901Y-40625
X90400Y-66900
X90700Y-48600
X90950Y-62600
X91000Y-54000
X91350Y-63500
X91700Y-55050
X91850Y-49450
X91900Y-39000
X91950Y-42950
X92000Y-61700
X92150Y-51850
X92150Y-57100
X92150Y-63200
X92250Y-48800
X92547Y-49318
X92843Y-61628
X92850Y-42100
X92855Y-62076
X93000Y-47050
X93100Y-51300
X93150Y-40000
X93150Y-60050
X93200Y-38350
X93215Y-63539
X93216Y-64059
X93700Y-63400
X93764Y-42674
X93800Y-41050
X94021Y-39346
X94300Y-63500
X94425Y-53762
X94512Y-56037
X94800Y-58800
X94800Y-64050
X95000Y-64950
X95050Y-66150
X95550Y-49850
X95600Y-44450
X95600Y-48900
X95950Y-59500
X96200Y-41250
X96232Y-55172
X96700Y-56750
X97250Y-37900
X97300Y-38900
X97450Y-59050
X98100Y-48700
X98300Y-42500
X98450Y-54600
X98950Y-53000
X99050Y-44250
X99800Y-53050
X99950Y-36450
X100100Y-39900
X100200Y-48450
X100750Y-48000
X100800Y-47100
X101200Y-41450
X101421Y-39474
X101696Y-57799
X102150Y-48050
X102800Y-58700
X103000Y-65550
X103150Y-48650
X103500Y-52750
X103800Y-56800
X104053Y-57896
X104184Y-40315
X104400Y-55700
X104700Y-62550
X104800Y-60000
X104900Y-64400
X104950Y-57500
X105050Y-64850
X105244Y-56511
X105482Y-48037
X105500Y-54850
X105600Y-48900
X105800Y-39350
X106250Y-46050
X106250Y-57100
X106650Y-44550
X106900Y-55800
X106900Y-56600
X107400Y-61700
X107800Y-62550
X107850Y-59450
X108050Y-47500
X108100Y-49850
X108105Y-40361
X108350Y-48450
X108500Y-48050
X108500Y-52000
X109350Y-55800
X109550Y-53100
X109900Y-65350
X110100Y-63150
X110308Y-62746
X110450Y-55200
X110500Y-43400
X110800Y-48350
X110853Y-46866
X110900Y-63150
X110956Y-46325
X111250Y-56150
X111300Y-39400
X111800Y-66050
X111975Y-39932
X112200Y-58450
X112400Y-53750
X113050Y-44450
X113075Y-47697
X113150Y-51450
X113750Y-42300
X113900Y-60400
X114210Y-40384
X114300Y-65050
X115100Y-47500
X115350Y-39900
X115400Y-43050
X115550Y-60550
X115850Y-54800
X115950Y-48100
X116300Y-50000
X116400Y-45550
X116500Y-48650
X116576Y-36374
X117050Y-48100
X117220Y-52668
X117300Y-39850
X117400Y-51700
X118250Y-48600
X118492Y-40106
X118500Y-58650
X118525Y-55134
X118550Y-57550
X118800Y-44200
X118800Y-45050
X118900Y-41050
X119800Y-44500
X120000Y-50450
X120050Y-39250
X120350Y-54350
X120474Y-53406
X120500Y-48550
X120600Y-45800
X121100Y-56650
X121150Y-48100
X121150Y-54700
X121300Y-50850
X121350Y-45200
X121650Y-53250
X121700Y-40750
X121750Y-43850
X121893Y-47732
X121950Y-46450
X122000Y-36250
X122050Y-51850
X122150Y-58950
X122200Y-39950
X122550Y-47150
X122973Y-54934
X123600Y-62200
X123800Y-38600
X123817Y-54691
X123965Y-47438
X124250Y-59650
X124800Y-46000
X124807Y-47494
X125150Y-48350
X125200Y-52400
X125600Y-55000
X125950Y-50500
X126150Y-46750
X126400Y-49400
X126589Y-48530
X126600Y-31750
X126650Y-48050
X127177Y-55383
X127250Y-46450
X128600Y-49500
X128600Y-55150
X129000Y-44450
X129900Y-56050
X130200Y-54700
X130450Y-47750
X130500Y-46350
X130586Y-48725
X130668Y-48410
X130750Y-52100
X130808Y-48628
X131400Y-60600
X131550Y-45400
X131650Y-42250
X132088Y-55388
X132500Y-47500
X133250Y-37100
X133308Y-45508
X133800Y-59500
X134200Y-46500
X134400Y-40200
X134440Y-61484
X134600Y-47600
X135250Y-44700
X136300Y-59800
X136500Y-50800
X136650Y-47700
X137400Y-40950
X137500Y-51850
X138200Y-45600
T2
X28137Y-32184
X28188Y-31546
X28575Y-32434
X29515Y-43443
X29523Y-42576
X37924Y-47808
X38213Y-47837
X38444Y-47534
X57109Y-59560
X58233Y-60790
X59640Y-60424
X59954Y-61951
X60434Y-65709
X60584Y-64686
X68396Y-60167
X75622Y-57696
X83742Y-65047
X83999Y-60481
X84281Y-66303
X84342Y-60157
X84513Y-59439
X84655Y-63516
X84828Y-60488
X85152Y-62254
X85153Y-63501
X85396Y-62272
X86164Y-64284
X86437Y-63240
X86474Y-64372
X86549Y-63698
X87025Y-60572
X87576Y-61083
X88224Y-63992
X90774Y-63927
X90780Y-65230
X92150Y-63767
T3
X26398Y-30356
X26555Y-30080
X26870Y-30080
X27028Y-30356
X27185Y-30080
X27343Y-30356
X27657Y-30356
X27815Y-30080
X27972Y-30356
X28130Y-30080
X28445Y-30080
X28602Y-30356
T5
X67150Y-59750
X68150Y-59750
X69150Y-59750
X70150Y-59750
X71150Y-59750
X72150Y-59750
X73150Y-59750
X74150Y-59750
X75150Y-59750
X76150Y-59750
X77150Y-59750
T6
X49500Y-39250
X50500Y-39250
X92625Y-54250
X93625Y-54250
X36375Y-61750
X37375Y-61750
X79500Y-39250
X80500Y-39250
X99200Y-61750
X100200Y-61750
X109500Y-39250
X110500Y-39250
X25100Y-61750
X26100Y-61750
X124500Y-31750
X125500Y-31750
X36375Y-46750
X37375Y-46750
X60750Y-31750
X61750Y-31750
X66375Y-46750
X67375Y-46750
X90750Y-31750
X91750Y-31750
X96375Y-46750
X97375Y-46750
X120750Y-31750
X121750Y-31750
X23250Y-31750
X24250Y-31750
X34500Y-39250
X35500Y-39250
X113250Y-61750
X114250Y-61750
X53250Y-31750
X54250Y-31750
X24187Y-54250
X25187Y-54250
X24200Y-61750
X25200Y-61750
X55125Y-54250
X56125Y-54250
X98250Y-61750
X99250Y-61750
X42000Y-39250
X43000Y-39250
X85125Y-54250
X86125Y-54250
X75750Y-61750
X76750Y-61750
X72000Y-39250
X73000Y-39250
X108563Y-61750
X109563Y-61750
X102000Y-39250
X103000Y-39250
X34500Y-61750
X35500Y-61750
X135750Y-39250
X136750Y-39250
X123563Y-46750
X124563Y-46750
X26063Y-46750
X27063Y-46750
X58875Y-46750
X59875Y-46750
X83250Y-31750
X84250Y-31750
X88875Y-46750
X89875Y-46750
X113250Y-31750
X114250Y-31750
X118875Y-46750
X119875Y-46750
X25125Y-39250
X26125Y-39250
X120750Y-61750
X121750Y-61750
X45750Y-31750
X46750Y-31750
X135750Y-46750
X136750Y-46750
X135750Y-54250
X136750Y-54250
X47625Y-54250
X48625Y-54250
X71063Y-61750
X72063Y-61750
X77625Y-54250
X78625Y-54250
X100125Y-61750
X101125Y-61750
X64500Y-39250
X65500Y-39250
X111375Y-61750
X112375Y-61750
X94500Y-39250
X95500Y-39250
X43875Y-61750
X44875Y-61750
X126375Y-39250
X127375Y-39250
X27937Y-54250
X28937Y-54250
X107625Y-54250
X108625Y-54250
X51375Y-46750
X52375Y-46750
X75750Y-31750
X76750Y-31750
X81375Y-46750
X82375Y-46750
X105750Y-31750
X106750Y-31750
X111375Y-46750
X112375Y-46750
X135750Y-31750
X136750Y-31750
X38250Y-31750
X39250Y-31750
X135750Y-61750
X136750Y-61750
X127313Y-47000
X128313Y-47000
X128250Y-54250
X129250Y-54250
X40125Y-54250
X41125Y-54250
X42937Y-61750
X43937Y-61750
X70125Y-54250
X71125Y-54250
X57000Y-39250
X58000Y-39250
X100125Y-54250
X101125Y-54250
X125813Y-44500
X125813Y-45500
X87000Y-39250
X88000Y-39250
X68250Y-61750
X69250Y-61750
X117000Y-39250
X118000Y-39250
X121687Y-54250
X122687Y-54250
X43875Y-46750
X44875Y-46750
X68250Y-31750
X69250Y-31750
X73875Y-46750
X74875Y-46750
X98250Y-31750
X99250Y-31750
X128250Y-61750
X129250Y-61750
X103875Y-46750
X104875Y-46750
X128250Y-31750
X129250Y-31750
X30750Y-31750
X31750Y-31750
X117937Y-54250
X118937Y-54250
X32625Y-54250
X33625Y-54250
X33563Y-61750
X34563Y-61750
X62625Y-54250
X63625Y-54250
X105750Y-61750
X106750Y-61750
T7
X127750Y-65750
X130250Y-64750
X117437Y-58250
X119937Y-57250
X62125Y-58250
X64625Y-57250
X127750Y-58250
X130250Y-57250
X23687Y-65750
X26187Y-64750
X32125Y-58250
X34625Y-57250
X79000Y-43250
X81500Y-42250
X103375Y-50750
X105875Y-49750
X49000Y-43250
X51500Y-42250
X73375Y-50750
X75875Y-49750
X120250Y-35750
X122750Y-34750
X43375Y-50750
X45875Y-49750
X90250Y-35750
X92750Y-34750
X109000Y-43250
X111500Y-42250
X60250Y-35750
X62750Y-34750
X22750Y-35750
X25250Y-34750
X105250Y-65750
X107750Y-64750
X27437Y-58250
X29937Y-57250
X43375Y-65750
X45875Y-64750
X110875Y-65750
X113375Y-64750
X99625Y-65750
X102125Y-64750
X120250Y-65750
X122750Y-64750
X30250Y-35750
X32750Y-34750
X33063Y-65750
X35563Y-64750
X69625Y-58250
X72125Y-57250
X135250Y-58250
X137750Y-57250
X24625Y-43250
X27125Y-42250
X39625Y-58250
X42125Y-57250
X92125Y-58250
X94625Y-57250
X86500Y-43250
X89000Y-42250
X110875Y-50750
X113375Y-49750
X56500Y-43250
X59000Y-42250
X80875Y-50750
X83375Y-49750
X127750Y-35750
X130250Y-34750
X50875Y-50750
X53375Y-49750
X97750Y-35750
X100250Y-34750
X116500Y-43250
X119000Y-42250
X67750Y-35750
X70250Y-34750
X37750Y-35750
X40250Y-34750
X97750Y-65750
X100250Y-64750
X123063Y-50750
X125563Y-49750
X34000Y-65750
X36500Y-64750
X108063Y-65750
X110563Y-64750
X75250Y-65750
X77750Y-64750
X112750Y-65750
X115250Y-64750
X42437Y-65750
X44937Y-64750
X77125Y-58250
X79625Y-57250
X23687Y-58250
X26187Y-57250
X25563Y-50750
X28063Y-49750
X47125Y-58250
X49625Y-57250
X99625Y-58250
X102125Y-57250
X118375Y-50750
X120875Y-49750
X64000Y-43250
X66500Y-42250
X88375Y-50750
X90875Y-49750
X34000Y-43250
X36500Y-42250
X58375Y-50750
X60875Y-49750
X105250Y-35750
X107750Y-34750
X135250Y-43250
X137750Y-42250
X75250Y-35750
X77750Y-34750
X94000Y-43250
X96500Y-42250
X45250Y-35750
X47750Y-34750
X125875Y-43250
X128375Y-42250
X124000Y-35750
X126500Y-34750
X24625Y-65750
X27125Y-64750
X98687Y-65750
X101187Y-64750
X35875Y-65750
X38375Y-64750
X135250Y-65750
X137750Y-64750
X84625Y-58250
X87125Y-57250
X70563Y-65750
X73063Y-64750
X126813Y-50750
X129313Y-49750
X54625Y-58250
X57125Y-57250
X107125Y-58250
X109625Y-57250
X135250Y-50750
X137750Y-49750
X71500Y-43250
X74000Y-42250
X95875Y-50750
X98375Y-49750
X41500Y-43250
X44000Y-42250
X65875Y-50750
X68375Y-49750
X112750Y-35750
X115250Y-34750
X35875Y-50750
X38375Y-49750
X82750Y-35750
X85250Y-34750
X101500Y-43250
X104000Y-42250
X52750Y-35750
X55250Y-34750
X135250Y-35750
X137750Y-34750
X121187Y-58250
X123687Y-57250
X67750Y-65750
X70250Y-64750
X128813Y-43500
X129813Y-46000
T8
X31720Y-48752
T4
X25089Y-27993G85X25089Y-28348
G05
X25819Y-30375G85X25819Y-30730
G05
X29181Y-30375G85X29181Y-30730
G05
X29911Y-27993G85X29911Y-28348
G05
T0
M30
