M48
INCH,TZ
T1C0.020
T2C0.022
T3C0.028
T4C0.033
T5C0.039
T6C0.059
%
G90
G05
T1
X24758Y-32833
X27948Y-33350
X28030Y-42819
X28436Y-32657
X28489Y-47755
X33703Y-47840
X35988Y-55572
X40744Y-40460
X46090Y-40265
X47139Y-47270
X48697Y-57861
X49392Y-54389
X50182Y-57895
X53131Y-55872
X55770Y-54661
X57605Y-60526
X58328Y-61775
X58598Y-60789
X59633Y-60211
X59920Y-63814
X59925Y-65996
X60149Y-60126
X60162Y-59792
X60162Y-60757
X60484Y-60153
X60491Y-65148
X60731Y-64771
X61300Y-39654
X62337Y-60743
X62545Y-40561
X62630Y-60180
X68351Y-60810
X69298Y-40394
X70582Y-58804
X72186Y-58162
X72263Y-48053
X72494Y-58041
X74435Y-60237
X76100Y-54857
X76382Y-60265
X76879Y-60954
X77175Y-57339
X77971Y-60806
X78294Y-57388
X78442Y-61501
X78898Y-62300
X78907Y-50133
X79059Y-48442
X79430Y-55166
X80110Y-60585
X80189Y-62623
X80717Y-61890
X80972Y-60911
X81099Y-62100
X81186Y-61777
X81776Y-61557
X82150Y-56750
X82150Y-57150
X82395Y-55974
X82939Y-38703
X83249Y-63569
X83302Y-65679
X83748Y-61470
X83850Y-59550
X83910Y-66636
X84096Y-66063
X84150Y-60300
X84168Y-63585
X84200Y-59550
X84332Y-63293
X84530Y-63896
X84702Y-40947
X84933Y-63094
X84938Y-64856
X85283Y-66217
X85530Y-62878
X85611Y-66178
X85993Y-64653
X86125Y-63070
X86300Y-58550
X86600Y-64200
X86656Y-40106
X86700Y-63800
X87339Y-35167
X87960Y-63126
X88520Y-63252
X88586Y-48135
X89466Y-63546
X90400Y-59850
X90480Y-47888
X91050Y-63250
X91660Y-63410
X92300Y-65750
X92827Y-61444
X93450Y-64050
X93600Y-63400
X97657Y-47611
X97737Y-40259
X102337Y-54934
X107545Y-40677
X109685Y-40148
X110565Y-39696
X116859Y-54278
X120819Y-54572
X122191Y-55254
T3
X23250Y-31750
X24187Y-54250
X24200Y-61750
X24250Y-31750
X25100Y-61750
X25125Y-39250
X25187Y-54250
X25200Y-61750
X26063Y-46750
X26100Y-61750
X26125Y-39250
X27063Y-46750
X27937Y-54250
X28937Y-54250
X30750Y-31750
X31750Y-31750
X32625Y-54250
X33563Y-61750
X33625Y-54250
X34500Y-39250
X34500Y-61750
X34563Y-61750
X35500Y-39250
X35500Y-61750
X36375Y-61750
X36375Y-46750
X37375Y-61750
X37375Y-46750
X38250Y-31750
X39250Y-31750
X40125Y-54250
X41125Y-54250
X42000Y-39250
X42937Y-61750
X43000Y-39250
X43875Y-61750
X43875Y-46750
X43937Y-61750
X44875Y-61750
X44875Y-46750
X45750Y-31750
X46750Y-31750
X47625Y-54250
X48625Y-54250
X49500Y-39250
X50500Y-39250
X51375Y-46750
X52375Y-46750
X53250Y-31750
X54250Y-31750
X55125Y-54250
X56125Y-54250
X57000Y-39250
X58000Y-39250
X58875Y-46750
X59875Y-46750
X60750Y-31750
X61750Y-31750
X62625Y-54250
X63625Y-54250
X64500Y-39250
X65500Y-39250
X66375Y-46750
X67375Y-46750
X68250Y-31750
X68250Y-61750
X69250Y-31750
X69250Y-61750
X70125Y-54250
X71063Y-61750
X71125Y-54250
X72000Y-39250
X72063Y-61750
X73000Y-39250
X73875Y-46750
X74875Y-46750
X75750Y-31750
X75750Y-61750
X76750Y-31750
X76750Y-61750
X77625Y-54250
X78625Y-54250
X79500Y-39250
X80500Y-39250
X81375Y-46750
X82375Y-46750
X83250Y-31750
X84250Y-31750
X85125Y-54250
X86125Y-54250
X87000Y-39250
X88000Y-39250
X88875Y-46750
X89875Y-46750
X90750Y-31750
X91750Y-31750
X92625Y-54250
X93625Y-54250
X94500Y-39250
X95500Y-39250
X96375Y-46750
X97375Y-46750
X98250Y-31750
X98250Y-61750
X99200Y-61750
X99250Y-31750
X99250Y-61750
X100125Y-54250
X100125Y-61750
X100200Y-61750
X101125Y-54250
X101125Y-61750
X102000Y-39250
X103000Y-39250
X103875Y-46750
X104875Y-46750
X105750Y-31750
X105750Y-61750
X106750Y-31750
X106750Y-61750
X107625Y-54250
X108563Y-61750
X108625Y-54250
X109500Y-39250
X109563Y-61750
X110500Y-39250
X111375Y-61750
X111375Y-46750
X112375Y-61750
X112375Y-46750
X113250Y-31750
X113250Y-61750
X114250Y-31750
X114250Y-61750
X117000Y-39250
X117937Y-54250
X118000Y-39250
X118875Y-46750
X118937Y-54250
X119875Y-46750
X120750Y-31750
X120750Y-61750
X121687Y-54250
X121750Y-31750
X121750Y-61750
X122687Y-54250
X123563Y-46750
X124500Y-31750
X124563Y-46750
X125500Y-31750
X125813Y-44500
X125813Y-45500
X126375Y-39250
X127313Y-47000
X127375Y-39250
X128250Y-31750
X128250Y-54250
X128250Y-61750
X128313Y-47000
X129250Y-31750
X129250Y-54250
X129250Y-61750
X135750Y-31750
X135750Y-39250
X135750Y-46750
X135750Y-54250
X135750Y-61750
X136750Y-31750
X136750Y-39250
X136750Y-46750
X136750Y-54250
X136750Y-61750
T5
X67150Y-59750
X68150Y-59750
X69150Y-59750
X70150Y-59750
X71150Y-59750
X72150Y-59750
X73150Y-59750
X74150Y-59750
X75150Y-59750
X76150Y-59750
X77150Y-59750
T6
X22750Y-35750
X23687Y-58250
X23687Y-65750
X24625Y-43250
X24625Y-65750
X25250Y-34750
X25563Y-50750
X26187Y-57250
X26187Y-64750
X27125Y-42250
X27125Y-64750
X27437Y-58250
X28063Y-49750
X29937Y-57250
X30250Y-35750
X32125Y-58250
X32750Y-34750
X33063Y-65750
X34000Y-43250
X34000Y-65750
X34625Y-57250
X35563Y-64750
X35875Y-50750
X35875Y-65750
X36500Y-42250
X36500Y-64750
X37750Y-35750
X38375Y-49750
X38375Y-64750
X39625Y-58250
X40250Y-34750
X41500Y-43250
X42125Y-57250
X42437Y-65750
X43375Y-50750
X43375Y-65750
X44000Y-42250
X44937Y-64750
X45250Y-35750
X45875Y-49750
X45875Y-64750
X47125Y-58250
X47750Y-34750
X49000Y-43250
X49625Y-57250
X50875Y-50750
X51500Y-42250
X52750Y-35750
X53375Y-49750
X54625Y-58250
X55250Y-34750
X56500Y-43250
X57125Y-57250
X58375Y-50750
X59000Y-42250
X60250Y-35750
X60875Y-49750
X62125Y-58250
X62750Y-34750
X64000Y-43250
X64625Y-57250
X65875Y-50750
X66500Y-42250
X67750Y-35750
X67750Y-65750
X68375Y-49750
X69625Y-58250
X70250Y-34750
X70250Y-64750
X70563Y-65750
X71500Y-43250
X72125Y-57250
X73063Y-64750
X73375Y-50750
X74000Y-42250
X75250Y-35750
X75250Y-65750
X75875Y-49750
X77125Y-58250
X77750Y-34750
X77750Y-64750
X79000Y-43250
X79625Y-57250
X80875Y-50750
X81500Y-42250
X82750Y-35750
X83375Y-49750
X84625Y-58250
X85250Y-34750
X86500Y-43250
X87125Y-57250
X88375Y-50750
X89000Y-42250
X90250Y-35750
X90875Y-49750
X92125Y-58250
X92750Y-34750
X94000Y-43250
X94625Y-57250
X95875Y-50750
X96500Y-42250
X97750Y-35750
X97750Y-65750
X98375Y-49750
X98687Y-65750
X99625Y-58250
X99625Y-65750
X100250Y-34750
X100250Y-64750
X101187Y-64750
X101500Y-43250
X102125Y-57250
X102125Y-64750
X103375Y-50750
X104000Y-42250
X105250Y-35750
X105250Y-65750
X105875Y-49750
X107125Y-58250
X107750Y-34750
X107750Y-64750
X108063Y-65750
X109000Y-43250
X109625Y-57250
X110563Y-64750
X110875Y-50750
X110875Y-65750
X111500Y-42250
X112750Y-35750
X112750Y-65750
X113375Y-49750
X113375Y-64750
X115250Y-34750
X115250Y-64750
X116500Y-43250
X117437Y-58250
X118375Y-50750
X119000Y-42250
X119937Y-57250
X120250Y-35750
X120250Y-65750
X120875Y-49750
X121187Y-58250
X122750Y-34750
X122750Y-64750
X123063Y-50750
X123687Y-57250
X124000Y-35750
X125563Y-49750
X125875Y-43250
X126500Y-34750
X126813Y-50750
X127750Y-35750
X127750Y-58250
X127750Y-65750
X128375Y-42250
X128813Y-43500
X129313Y-49750
X129813Y-46000
X130250Y-34750
X130250Y-57250
X130250Y-64750
X135250Y-35750
X135250Y-43250
X135250Y-50750
X135250Y-58250
X135250Y-65750
X137750Y-34750
X137750Y-42250
X137750Y-49750
X137750Y-57250
X137750Y-64750
T2
X25974Y-30581G85X25974Y-30837
G05
X29026Y-30581G85X29026Y-30837
G05
T4
X26033Y-32096G85X26033Y-32313
G05
X28967Y-32096G85X28967Y-32313
G05
T0
M30
