M48
;DRILL file {KiCad (2017-09-19 revision dddaa7e69)-makepkg} date 11/22/17 14:32:38
;FORMAT={2:4/ absolute / inch / suppress leading zeros}
FMAT,2
INCH,TZ
T1C0.026
T2C0.039
T3C0.067
T4C0.093
T5C0.120
T6C0.157
%
G90
G05
M72
T1
X26083Y-30080
T2
X92450Y-61800
X92850Y-64800
X93250Y-61800
T3
X134250Y-41250
X138250Y-41250
X74250Y-33750
X78250Y-33750
X93000Y-41250
X97000Y-41250
X44250Y-33750
X48250Y-33750
X124875Y-41250
X128875Y-41250
X123000Y-33750
X127000Y-33750
X23625Y-63750
X27625Y-63750
X97687Y-63750
X101687Y-63750
X34875Y-63750
X38875Y-63750
X134250Y-63750
X138250Y-63750
X83625Y-56250
X87625Y-56250
X69563Y-63750
X73563Y-63750
X125813Y-48750
X129813Y-48750
X53625Y-56250
X57625Y-56250
X106125Y-56250
X110125Y-56250
X134250Y-48750
X138250Y-48750
X70500Y-41250
X74500Y-41250
X94875Y-48750
X98875Y-48750
X40500Y-41250
X44500Y-41250
X64875Y-48750
X68875Y-48750
X111750Y-33750
X115750Y-33750
X34875Y-48750
X38875Y-48750
X81750Y-33750
X85750Y-33750
X100500Y-41250
X104500Y-41250
X51750Y-33750
X55750Y-33750
X134250Y-33750
X138250Y-33750
X120187Y-56250
X124187Y-56250
X66750Y-63750
X70750Y-63750
X127813Y-43000
X127813Y-47000
X126750Y-63750
X130750Y-63750
X116437Y-56250
X120437Y-56250
X61125Y-56250
X65125Y-56250
X126750Y-56250
X130750Y-56250
X22687Y-63750
X26687Y-63750
X31125Y-56250
X35125Y-56250
X78000Y-41250
X82000Y-41250
X102375Y-48750
X106375Y-48750
X48000Y-41250
X52000Y-41250
X72375Y-48750
X76375Y-48750
X119250Y-33750
X123250Y-33750
X42375Y-48750
X46375Y-48750
X89250Y-33750
X93250Y-33750
X108000Y-41250
X112000Y-41250
X59250Y-33750
X63250Y-33750
X21750Y-33750
X25750Y-33750
X104250Y-63750
X108250Y-63750
X26437Y-56250
X30437Y-56250
X42375Y-63750
X46375Y-63750
X109875Y-63750
X113875Y-63750
X98625Y-63750
X102625Y-63750
X119250Y-63750
X123250Y-63750
X29250Y-33750
X33250Y-33750
X32063Y-63750
X36063Y-63750
X68625Y-56250
X72625Y-56250
X134250Y-56250
X138250Y-56250
X23625Y-41250
X27625Y-41250
X38625Y-56250
X42625Y-56250
X91125Y-56250
X95125Y-56250
X85500Y-41250
X89500Y-41250
X109875Y-48750
X113875Y-48750
X55500Y-41250
X59500Y-41250
X79875Y-48750
X83875Y-48750
X126750Y-33750
X130750Y-33750
X49875Y-48750
X53875Y-48750
X96750Y-33750
X100750Y-33750
X115500Y-41250
X119500Y-41250
X66750Y-33750
X70750Y-33750
X36750Y-33750
X40750Y-33750
X96750Y-63750
X100750Y-63750
X122063Y-48750
X126063Y-48750
X33000Y-63750
X37000Y-63750
X107063Y-63750
X111063Y-63750
X74250Y-63750
X78250Y-63750
X111750Y-63750
X115750Y-63750
X41437Y-63750
X45437Y-63750
X76125Y-56250
X80125Y-56250
X22687Y-56250
X26687Y-56250
X24563Y-48750
X28563Y-48750
X46125Y-56250
X50125Y-56250
X98625Y-56250
X102625Y-56250
X117375Y-48750
X121375Y-48750
X63000Y-41250
X67000Y-41250
X87375Y-48750
X91375Y-48750
X33000Y-41250
X37000Y-41250
X57375Y-48750
X61375Y-48750
X104250Y-33750
X108250Y-33750
T4
X91850Y-62550
X91850Y-64800
X93850Y-62550
X93850Y-64800
T5
X126750Y-53499
X91250Y-66501
X128750Y-45999
X129687Y-30999
X117500Y-53499
X46375Y-66501
X119375Y-45999
X23750Y-53499
X53750Y-66501
X130564Y-49687
X33125Y-53499
X98750Y-66501
X130564Y-40313
X51875Y-66501
X120313Y-30999
T6
X44375Y-48750
X91250Y-33750
X110000Y-41250
X61250Y-33750
X23750Y-33750
X106250Y-63750
X28437Y-56250
X44375Y-63750
X111875Y-63750
X100625Y-63750
X121250Y-63750
X31250Y-33750
X34063Y-63750
X70625Y-56250
X136250Y-56250
X25625Y-41250
X40625Y-56250
X93125Y-56250
X33125Y-59500
X87500Y-41250
X111875Y-48750
X98750Y-60500
X57500Y-41250
X81875Y-48750
X124563Y-40313
X128750Y-33750
X51875Y-48750
X51875Y-60500
X98750Y-33750
X117500Y-41250
X68750Y-33750
X38750Y-33750
X98750Y-63750
X124063Y-48750
X35000Y-63750
X109063Y-63750
X76250Y-63750
X113750Y-63750
X43437Y-63750
X78125Y-56250
X24687Y-56250
X26563Y-48750
X48125Y-56250
X100625Y-56250
X120313Y-37000
X119375Y-48750
X126750Y-59500
X65000Y-41250
X89375Y-48750
X91250Y-60500
X35000Y-41250
X59375Y-48750
X128750Y-52000
X106250Y-33750
X136250Y-41250
X76250Y-33750
X95000Y-41250
X46250Y-33750
X126875Y-41250
X125000Y-33750
X25625Y-63750
X99687Y-63750
X36875Y-63750
X136250Y-63750
X85625Y-56250
X71563Y-63750
X127813Y-48750
X55625Y-56250
X108125Y-56250
X129687Y-37000
X136250Y-48750
X117500Y-59500
X72500Y-41250
X96875Y-48750
X46375Y-60500
X42500Y-41250
X66875Y-48750
X119375Y-52000
X113750Y-33750
X36875Y-48750
X83750Y-33750
X102500Y-41250
X53750Y-33750
X136250Y-33750
X122187Y-56250
X68750Y-63750
X127813Y-45000
X128750Y-63750
X118437Y-56250
X63125Y-56250
X128750Y-56250
X24687Y-63750
X33125Y-56250
X23750Y-59500
X80000Y-41250
X104375Y-48750
X53750Y-60500
X50000Y-41250
X74375Y-48750
X124563Y-49687
X121250Y-33750
T1
X28888Y-30080G85X28947Y-30080
G05
T0
M30
