%TF.GenerationSoftware,KiCad,Pcbnew,(2017-09-19 revision dddaa7e69)-makepkg*%
%TF.CreationDate,2017-11-22T14:32:36-05:00*%
%TF.ProjectId,WhiteFox,5768697465466F782E6B696361645F70,1.1c*%
%TF.SameCoordinates,Original*%
%TF.FileFunction,Profile,NP*%
%FSLAX46Y46*%
G04 Gerber Fmt 4.6, Leading zero omitted, Abs format (unit mm)*
G04 Created by KiCad (PCBNEW (2017-09-19 revision dddaa7e69)-makepkg) date 11/22/17 14:32:36*
%MOMM*%
%LPD*%
G01*
G04 APERTURE LIST*
%ADD10C,0.127000*%
G04 APERTURE END LIST*
D10*
X149225000Y-76200000D02*
X82727800Y-76200000D01*
X257175000Y-76200000D02*
X352171000Y-76200000D01*
X154178000Y-76200000D02*
X252222000Y-76200000D01*
X150495000Y-77470000D02*
X152908000Y-77470000D01*
X149225000Y-76200000D02*
X150495000Y-77470000D01*
X154178000Y-76200000D02*
X152908000Y-77470000D01*
X253492000Y-77470000D02*
X255905000Y-77470000D01*
X252222000Y-76200000D02*
X253492000Y-77470000D01*
X257175000Y-76200000D02*
X255905000Y-77470000D01*
X149225000Y-171450000D02*
X54229000Y-171450000D01*
X252222000Y-171450000D02*
X154178000Y-171450000D01*
X257175000Y-171450000D02*
X352171000Y-171450000D01*
X149225000Y-171450000D02*
X150495000Y-170180000D01*
X154178000Y-171450000D02*
X152908000Y-170180000D01*
X152908000Y-170180000D02*
X150495000Y-170180000D01*
X255905000Y-170180000D02*
X253492000Y-170180000D01*
X257175000Y-171450000D02*
X255905000Y-170180000D01*
X252222000Y-171450000D02*
X253492000Y-170180000D01*
X73964800Y-75590400D02*
G75*
G03X74472800Y-75082400I0J508000D01*
G01*
X65227200Y-75082400D02*
G75*
G03X65735200Y-75590400I508000J0D01*
G01*
X65227200Y-70307200D02*
X65227200Y-75082400D01*
X62865000Y-70307200D02*
X65227200Y-70307200D01*
X73964800Y-75590400D02*
X65735200Y-75590400D01*
X74472800Y-70307200D02*
X74472800Y-75082400D01*
X76835000Y-70307200D02*
X74472800Y-70307200D01*
X56972200Y-76200000D02*
X54229000Y-76200000D01*
X62865000Y-70307200D02*
X56972200Y-76200000D01*
X76835000Y-70307200D02*
X82727800Y-76200000D01*
X50800000Y-168021000D02*
X50800000Y-79629000D01*
X355600000Y-79629000D02*
X355600000Y-168021000D01*
X54229000Y-76200000D02*
G75*
G03X50800000Y-79629000I0J-3429000D01*
G01*
X50800000Y-168021000D02*
G75*
G03X54229000Y-171450000I3429000J0D01*
G01*
X352171000Y-171450000D02*
G75*
G03X355600000Y-168021000I0J3429000D01*
G01*
X355600000Y-79629000D02*
G75*
G03X352171000Y-76200000I-3429000J0D01*
G01*
M02*
