%TF.GenerationSoftware,KiCad,Pcbnew,(2017-09-19 revision dddaa7e69)-makepkg*%
%TF.CreationDate,2017-11-22T14:32:36-05:00*%
%TF.ProjectId,WhiteFox,5768697465466F782E6B696361645F70,1.1c*%
%TF.SameCoordinates,Original*%
%TF.FileFunction,Soldermask,Top*%
%TF.FilePolarity,Negative*%
%FSLAX46Y46*%
G04 Gerber Fmt 4.6, Leading zero omitted, Abs format (unit mm)*
G04 Created by KiCad (PCBNEW (2017-09-19 revision dddaa7e69)-makepkg) date 11/22/17 14:32:36*
%MOMM*%
%LPD*%
G01*
G04 APERTURE LIST*
%ADD10O,0.952400X0.802400*%
%ADD11O,1.052400X1.952400*%
%ADD12C,0.802400*%
%ADD13R,1.952400X1.952400*%
%ADD14C,1.952400*%
%ADD15C,5.652400*%
%ADD16C,4.142740*%
%ADD17C,2.651760*%
%ADD18C,1.856740*%
%ADD19C,3.200654*%
%ADD20C,4.140454*%
%ADD21C,1.143010*%
%ADD22C,2.527310*%
%ADD23O,1.952400X1.952400*%
G04 APERTURE END LIST*
D10*
%TO.C,J1*%
X73450000Y-76403200D03*
D11*
X75975000Y-71553200D03*
X63725000Y-71553200D03*
X74120000Y-77603200D03*
X65580000Y-77603200D03*
D12*
X67050000Y-77103200D03*
X67450000Y-76403200D03*
X68250000Y-76403200D03*
X68650000Y-77103200D03*
X69050000Y-76403200D03*
X69450000Y-77103200D03*
X70250000Y-77103200D03*
X70650000Y-76403200D03*
X71050000Y-77103200D03*
X71450000Y-76403200D03*
X72250000Y-76403200D03*
X72650000Y-77103200D03*
X66250000Y-76403200D03*
%TD*%
D13*
%TO.C,LED71*%
X347345000Y-156845000D03*
D14*
X344805000Y-156845000D03*
%TD*%
D13*
%TO.C,LED70*%
X328295000Y-156845000D03*
D14*
X325755000Y-156845000D03*
%TD*%
D13*
%TO.C,LED69*%
X309245000Y-156845000D03*
D14*
X306705000Y-156845000D03*
%TD*%
D13*
%TO.C,LED68*%
X290195000Y-156845000D03*
D14*
X287655000Y-156845000D03*
%TD*%
D13*
%TO.C,LED67*%
X271145000Y-156845000D03*
D14*
X268605000Y-156845000D03*
%TD*%
D13*
%TO.C,LED66*%
X252095000Y-156845000D03*
D14*
X249555000Y-156845000D03*
%TD*%
D13*
%TO.C,LED65*%
X183039000Y-156845000D03*
D14*
X180499000Y-156845000D03*
%TD*%
D13*
%TO.C,LED64*%
X111601000Y-156845000D03*
D14*
X109061000Y-156845000D03*
%TD*%
D13*
%TO.C,LED63*%
X87788800Y-156845000D03*
D14*
X85248800Y-156845000D03*
%TD*%
D13*
%TO.C,LED62*%
X64008000Y-156845000D03*
D14*
X61468000Y-156845000D03*
%TD*%
D13*
%TO.C,LED61*%
X347345000Y-137795000D03*
D14*
X344805000Y-137795000D03*
%TD*%
D13*
%TO.C,LED60*%
X328295000Y-137795000D03*
D14*
X325755000Y-137795000D03*
%TD*%
D13*
%TO.C,LED59*%
X302101000Y-137795000D03*
D14*
X299561000Y-137795000D03*
%TD*%
D13*
%TO.C,LED58*%
X275908000Y-137795000D03*
D14*
X273368000Y-137795000D03*
%TD*%
D13*
%TO.C,LED57*%
X256858000Y-137795000D03*
D14*
X254318000Y-137795000D03*
%TD*%
D13*
%TO.C,LED56*%
X237808000Y-137795000D03*
D14*
X235268000Y-137795000D03*
%TD*%
D13*
%TO.C,LED55*%
X218758000Y-137795000D03*
D14*
X216218000Y-137795000D03*
%TD*%
D13*
%TO.C,LED54*%
X199708000Y-137795000D03*
D14*
X197168000Y-137795000D03*
%TD*%
D13*
%TO.C,LED53*%
X180658000Y-137795000D03*
D14*
X178118000Y-137795000D03*
%TD*%
D13*
%TO.C,LED52*%
X161608000Y-137795000D03*
D14*
X159068000Y-137795000D03*
%TD*%
D13*
%TO.C,LED51*%
X142558000Y-137795000D03*
D14*
X140018000Y-137795000D03*
%TD*%
D13*
%TO.C,LED50*%
X123508000Y-137795000D03*
D14*
X120968000Y-137795000D03*
%TD*%
D13*
%TO.C,LED49*%
X104458000Y-137795000D03*
D14*
X101918000Y-137795000D03*
%TD*%
D13*
%TO.C,LED48*%
X85407500Y-137795000D03*
D14*
X82867500Y-137795000D03*
%TD*%
D13*
%TO.C,LED47*%
X63976200Y-137795000D03*
D14*
X61436200Y-137795000D03*
%TD*%
D13*
%TO.C,LED46*%
X347345000Y-118745000D03*
D14*
X344805000Y-118745000D03*
%TD*%
D13*
%TO.C,LED45*%
X325914000Y-119380000D03*
D14*
X323374000Y-119380000D03*
%TD*%
D13*
%TO.C,LED44*%
X304483000Y-118745000D03*
D14*
X301943000Y-118745000D03*
%TD*%
D13*
%TO.C,LED43*%
X285433000Y-118745000D03*
D14*
X282893000Y-118745000D03*
%TD*%
D13*
%TO.C,LED42*%
X266383000Y-118745000D03*
D14*
X263843000Y-118745000D03*
%TD*%
D13*
%TO.C,LED41*%
X247333000Y-118745000D03*
D14*
X244793000Y-118745000D03*
%TD*%
D13*
%TO.C,LED40*%
X228283000Y-118745000D03*
D14*
X225743000Y-118745000D03*
%TD*%
D13*
%TO.C,LED39*%
X209233000Y-118745000D03*
D14*
X206693000Y-118745000D03*
%TD*%
D13*
%TO.C,LED38*%
X190183000Y-118745000D03*
D14*
X187643000Y-118745000D03*
%TD*%
D13*
%TO.C,LED37*%
X171133000Y-118745000D03*
D14*
X168593000Y-118745000D03*
%TD*%
D13*
%TO.C,LED36*%
X152083000Y-118745000D03*
D14*
X149543000Y-118745000D03*
%TD*%
D13*
%TO.C,LED35*%
X133033000Y-118745000D03*
D14*
X130493000Y-118745000D03*
%TD*%
D13*
%TO.C,LED34*%
X113983000Y-118745000D03*
D14*
X111443000Y-118745000D03*
%TD*%
D13*
%TO.C,LED33*%
X94932600Y-118745000D03*
D14*
X92392600Y-118745000D03*
%TD*%
D13*
%TO.C,LED32*%
X68738800Y-118745000D03*
D14*
X66198800Y-118745000D03*
%TD*%
D13*
%TO.C,LED31*%
X347345000Y-99695000D03*
D14*
X344805000Y-99695000D03*
%TD*%
D13*
%TO.C,LED30*%
X323532000Y-99695000D03*
D14*
X320992000Y-99695000D03*
%TD*%
D13*
%TO.C,LED29*%
X299720000Y-99695000D03*
D14*
X297180000Y-99695000D03*
%TD*%
D13*
%TO.C,LED28*%
X280670000Y-99695000D03*
D14*
X278130000Y-99695000D03*
%TD*%
D13*
%TO.C,LED27*%
X261620000Y-99695000D03*
D14*
X259080000Y-99695000D03*
%TD*%
D13*
%TO.C,LED26*%
X242570000Y-99695000D03*
D14*
X240030000Y-99695000D03*
%TD*%
D13*
%TO.C,LED25*%
X223520000Y-99695000D03*
D14*
X220980000Y-99695000D03*
%TD*%
D13*
%TO.C,LED24*%
X204470000Y-99695000D03*
D14*
X201930000Y-99695000D03*
%TD*%
D13*
%TO.C,LED23*%
X185420000Y-99695000D03*
D14*
X182880000Y-99695000D03*
%TD*%
D13*
%TO.C,LED22*%
X166370000Y-99695000D03*
D14*
X163830000Y-99695000D03*
%TD*%
D13*
%TO.C,LED21*%
X147320000Y-99695000D03*
D14*
X144780000Y-99695000D03*
%TD*%
D13*
%TO.C,LED20*%
X128270000Y-99695000D03*
D14*
X125730000Y-99695000D03*
%TD*%
D13*
%TO.C,LED19*%
X109220000Y-99695000D03*
D14*
X106680000Y-99695000D03*
%TD*%
D13*
%TO.C,LED18*%
X90170000Y-99695000D03*
D14*
X87630000Y-99695000D03*
%TD*%
D13*
%TO.C,LED17*%
X66357500Y-99695000D03*
D14*
X63817500Y-99695000D03*
%TD*%
D13*
%TO.C,LED16*%
X347345000Y-80645000D03*
D14*
X344805000Y-80645000D03*
%TD*%
D13*
%TO.C,LED15*%
X328295000Y-80645000D03*
D14*
X325755000Y-80645000D03*
%TD*%
D13*
%TO.C,LED14*%
X309245000Y-80645000D03*
D14*
X306705000Y-80645000D03*
%TD*%
D13*
%TO.C,LED13*%
X290195000Y-80645000D03*
D14*
X287655000Y-80645000D03*
%TD*%
D13*
%TO.C,LED12*%
X271145000Y-80645000D03*
D14*
X268605000Y-80645000D03*
%TD*%
D13*
%TO.C,LED11*%
X252095000Y-80645000D03*
D14*
X249555000Y-80645000D03*
%TD*%
D13*
%TO.C,LED10*%
X233045000Y-80645000D03*
D14*
X230505000Y-80645000D03*
%TD*%
D13*
%TO.C,LED9*%
X213995000Y-80645000D03*
D14*
X211455000Y-80645000D03*
%TD*%
D13*
%TO.C,LED8*%
X194945000Y-80645000D03*
D14*
X192405000Y-80645000D03*
%TD*%
D13*
%TO.C,LED7*%
X175895000Y-80645000D03*
D14*
X173355000Y-80645000D03*
%TD*%
D13*
%TO.C,LED6*%
X156845000Y-80645000D03*
D14*
X154305000Y-80645000D03*
%TD*%
D13*
%TO.C,LED5*%
X137795000Y-80645000D03*
D14*
X135255000Y-80645000D03*
%TD*%
D13*
%TO.C,LED4*%
X118745000Y-80645000D03*
D14*
X116205000Y-80645000D03*
%TD*%
D13*
%TO.C,LED3*%
X99695000Y-80645000D03*
D14*
X97155000Y-80645000D03*
%TD*%
D13*
%TO.C,LED2*%
X80645000Y-80645000D03*
D14*
X78105000Y-80645000D03*
%TD*%
D13*
%TO.C,LED1*%
X61595000Y-80645000D03*
D14*
X59055000Y-80645000D03*
%TD*%
D15*
%TO.C,H1*%
X80568800Y-123830000D03*
%TD*%
D16*
%TO.C,S266*%
X255588000Y-161925000D03*
D17*
X253048000Y-167005000D03*
X259398000Y-164465000D03*
D18*
X260668000Y-161925000D03*
X250508000Y-161925000D03*
%TD*%
D16*
%TO.C,S265*%
X193675000Y-161925000D03*
D17*
X191135000Y-167005000D03*
X197485000Y-164465000D03*
D18*
X198755000Y-161925000D03*
X188595000Y-161925000D03*
%TD*%
D16*
%TO.C,S263*%
X93662500Y-161925000D03*
D17*
X91122500Y-167005000D03*
X97472500Y-164465000D03*
D18*
X98742500Y-161925000D03*
X88582500Y-161925000D03*
%TD*%
D16*
%TO.C,S245*%
X324644000Y-114300000D03*
D17*
X329724000Y-116840000D03*
X327184000Y-110490000D03*
D18*
X324644000Y-109220000D03*
X324644000Y-119380000D03*
%TD*%
D16*
%TO.C,S168*%
X284162000Y-161925000D03*
D17*
X281622000Y-167005000D03*
X287972000Y-164465000D03*
D18*
X289242000Y-161925000D03*
X279082000Y-161925000D03*
%TD*%
D16*
%TO.C,S167*%
X277019000Y-161925000D03*
D17*
X274479000Y-167005000D03*
X280829000Y-164465000D03*
D18*
X282099000Y-161925000D03*
X271939000Y-161925000D03*
%TD*%
D16*
%TO.C,S166*%
X253206000Y-161925000D03*
D17*
X250666000Y-167005000D03*
X257016000Y-164465000D03*
D18*
X258286000Y-161925000D03*
X248126000Y-161925000D03*
%TD*%
D16*
%TO.C,S165*%
X174625000Y-161925000D03*
D17*
X172085000Y-167005000D03*
X178435000Y-164465000D03*
D18*
X179705000Y-161925000D03*
X169545000Y-161925000D03*
%TD*%
D16*
%TO.C,S164*%
X112712000Y-161925000D03*
D17*
X110172000Y-167005000D03*
X116522000Y-164465000D03*
D18*
X117792000Y-161925000D03*
X107632000Y-161925000D03*
%TD*%
D16*
%TO.C,S163*%
X88900000Y-161925000D03*
D17*
X86360000Y-167005000D03*
X92710000Y-164465000D03*
D18*
X93980000Y-161925000D03*
X83820000Y-161925000D03*
%TD*%
D16*
%TO.C,S162*%
X65087500Y-161925000D03*
D17*
X62547500Y-167005000D03*
X68897500Y-164465000D03*
D18*
X70167500Y-161925000D03*
X60007500Y-161925000D03*
%TD*%
D16*
%TO.C,S159*%
X310356000Y-142875000D03*
D17*
X307816000Y-147955000D03*
X314166000Y-145415000D03*
D18*
X315436000Y-142875000D03*
X305276000Y-142875000D03*
%TD*%
D16*
%TO.C,S147*%
X72231200Y-142875000D03*
D17*
X69691200Y-147955000D03*
X76041200Y-145415000D03*
D18*
X77311200Y-142875000D03*
X67151200Y-142875000D03*
%TD*%
D16*
%TO.C,S145*%
X315119000Y-123825000D03*
D17*
X312579000Y-128905000D03*
X318929000Y-126365000D03*
D18*
X320199000Y-123825000D03*
X310039000Y-123825000D03*
%TD*%
D16*
%TO.C,S115*%
X317500000Y-85725000D03*
D17*
X314960000Y-90805000D03*
X321310000Y-88265000D03*
D18*
X322580000Y-85725000D03*
X312420000Y-85725000D03*
%TD*%
D14*
%TO.C,P2*%
X170561000Y-151765000D03*
X173101000Y-151765000D03*
X175641000Y-151765000D03*
X178181000Y-151765000D03*
X180721000Y-151765000D03*
X183261000Y-151765000D03*
X185801000Y-151765000D03*
X188341000Y-151765000D03*
X190881000Y-151765000D03*
X193421000Y-151765000D03*
X195961000Y-151765000D03*
%TD*%
D19*
%TO.C,STAB12*%
X131762000Y-168912540D03*
D20*
X131762000Y-153670000D03*
%TD*%
D19*
%TO.C,STAB6*%
X327025000Y-116837460D03*
D20*
X327025000Y-132080000D03*
%TD*%
D19*
%TO.C,STAB5*%
X303212000Y-116837460D03*
D20*
X303212000Y-132080000D03*
%TD*%
D19*
%TO.C,STAB4*%
X331631540Y-126206000D03*
D20*
X316389000Y-126206000D03*
%TD*%
D19*
%TO.C,STAB3*%
X331631540Y-102394000D03*
D20*
X316389000Y-102394000D03*
%TD*%
D19*
%TO.C,STAB14*%
X231775000Y-168912540D03*
D20*
X231775000Y-153670000D03*
%TD*%
D19*
%TO.C,STAB11*%
X117792000Y-168912540D03*
D20*
X117792000Y-153670000D03*
%TD*%
D19*
%TO.C,STAB13*%
X136525000Y-168912540D03*
D20*
X136525000Y-153670000D03*
%TD*%
D19*
%TO.C,STAB15*%
X250825000Y-168912540D03*
D20*
X250825000Y-153670000D03*
%TD*%
D19*
%TO.C,STAB10*%
X321945000Y-135887460D03*
D20*
X321945000Y-151130000D03*
%TD*%
D19*
%TO.C,STAB9*%
X298450000Y-135887460D03*
D20*
X298450000Y-151130000D03*
%TD*%
D19*
%TO.C,STAB7*%
X60325000Y-135887460D03*
D20*
X60325000Y-151130000D03*
%TD*%
D19*
%TO.C,STAB8*%
X84137500Y-135887460D03*
D20*
X84137500Y-151130000D03*
%TD*%
D19*
%TO.C,STAB1*%
X305594000Y-78737460D03*
D20*
X305594000Y-93980000D03*
%TD*%
D19*
%TO.C,STAB2*%
X329406000Y-78737460D03*
D20*
X329406000Y-93980000D03*
%TD*%
D16*
%TO.C,S62*%
X62706200Y-161925000D03*
D17*
X60166200Y-167005000D03*
X66516200Y-164465000D03*
D18*
X67786200Y-161925000D03*
X57626200Y-161925000D03*
%TD*%
D16*
%TO.C,S17*%
X65087500Y-104775000D03*
D17*
X62547500Y-109855000D03*
X68897500Y-107315000D03*
D18*
X70167500Y-104775000D03*
X60007500Y-104775000D03*
%TD*%
D16*
%TO.C,S32*%
X67468800Y-123825000D03*
D17*
X64928800Y-128905000D03*
X71278800Y-126365000D03*
D18*
X72548800Y-123825000D03*
X62388800Y-123825000D03*
%TD*%
D16*
%TO.C,S45*%
X324644000Y-123825000D03*
D17*
X322104000Y-128905000D03*
X328454000Y-126365000D03*
D18*
X329724000Y-123825000D03*
X319564000Y-123825000D03*
%TD*%
D16*
%TO.C,S59*%
X300831000Y-142875000D03*
D17*
X298291000Y-147955000D03*
X304641000Y-145415000D03*
D18*
X305911000Y-142875000D03*
X295751000Y-142875000D03*
%TD*%
D16*
%TO.C,S63*%
X86518800Y-161925000D03*
D17*
X83978800Y-167005000D03*
X90328800Y-164465000D03*
D18*
X91598800Y-161925000D03*
X81438800Y-161925000D03*
%TD*%
D16*
%TO.C,S64*%
X110331000Y-161925000D03*
D17*
X107791000Y-167005000D03*
X114141000Y-164465000D03*
D18*
X115411000Y-161925000D03*
X105251000Y-161925000D03*
%TD*%
D16*
%TO.C,S71*%
X346075000Y-161925000D03*
D17*
X343535000Y-167005000D03*
X349885000Y-164465000D03*
D18*
X351155000Y-161925000D03*
X340995000Y-161925000D03*
%TD*%
D16*
%TO.C,S70*%
X327025000Y-161925000D03*
D17*
X324485000Y-167005000D03*
X330835000Y-164465000D03*
D18*
X332105000Y-161925000D03*
X321945000Y-161925000D03*
%TD*%
D16*
%TO.C,S69*%
X307975000Y-161925000D03*
D17*
X305435000Y-167005000D03*
X311785000Y-164465000D03*
D18*
X313055000Y-161925000D03*
X302895000Y-161925000D03*
%TD*%
D16*
%TO.C,S68*%
X288925000Y-161925000D03*
D17*
X286385000Y-167005000D03*
X292735000Y-164465000D03*
D18*
X294005000Y-161925000D03*
X283845000Y-161925000D03*
%TD*%
D16*
%TO.C,S67*%
X269875000Y-161925000D03*
D17*
X267335000Y-167005000D03*
X273685000Y-164465000D03*
D18*
X274955000Y-161925000D03*
X264795000Y-161925000D03*
%TD*%
D16*
%TO.C,S66*%
X250825000Y-161925000D03*
D17*
X248285000Y-167005000D03*
X254635000Y-164465000D03*
D18*
X255905000Y-161925000D03*
X245745000Y-161925000D03*
%TD*%
D16*
%TO.C,S30*%
X322262000Y-104775000D03*
D17*
X319722000Y-109855000D03*
X326072000Y-107315000D03*
D18*
X327342000Y-104775000D03*
X317182000Y-104775000D03*
%TD*%
D16*
%TO.C,S16*%
X346075000Y-85725000D03*
D17*
X343535000Y-90805000D03*
X349885000Y-88265000D03*
D18*
X351155000Y-85725000D03*
X340995000Y-85725000D03*
%TD*%
D16*
%TO.C,S1*%
X60325000Y-85725000D03*
D17*
X57785000Y-90805000D03*
X64135000Y-88265000D03*
D18*
X65405000Y-85725000D03*
X55245000Y-85725000D03*
%TD*%
D16*
%TO.C,S3*%
X98425000Y-85725000D03*
D17*
X95885000Y-90805000D03*
X102235000Y-88265000D03*
D18*
X103505000Y-85725000D03*
X93345000Y-85725000D03*
%TD*%
D16*
%TO.C,S4*%
X117475000Y-85725000D03*
D17*
X114935000Y-90805000D03*
X121285000Y-88265000D03*
D18*
X122555000Y-85725000D03*
X112395000Y-85725000D03*
%TD*%
D16*
%TO.C,S5*%
X136525000Y-85725000D03*
D17*
X133985000Y-90805000D03*
X140335000Y-88265000D03*
D18*
X141605000Y-85725000D03*
X131445000Y-85725000D03*
%TD*%
D16*
%TO.C,S6*%
X155575000Y-85725000D03*
D17*
X153035000Y-90805000D03*
X159385000Y-88265000D03*
D18*
X160655000Y-85725000D03*
X150495000Y-85725000D03*
%TD*%
D16*
%TO.C,S7*%
X174625000Y-85725000D03*
D17*
X172085000Y-90805000D03*
X178435000Y-88265000D03*
D18*
X179705000Y-85725000D03*
X169545000Y-85725000D03*
%TD*%
D16*
%TO.C,S8*%
X193675000Y-85725000D03*
D17*
X191135000Y-90805000D03*
X197485000Y-88265000D03*
D18*
X198755000Y-85725000D03*
X188595000Y-85725000D03*
%TD*%
D16*
%TO.C,S9*%
X212725000Y-85725000D03*
D17*
X210185000Y-90805000D03*
X216535000Y-88265000D03*
D18*
X217805000Y-85725000D03*
X207645000Y-85725000D03*
%TD*%
D16*
%TO.C,S10*%
X231775000Y-85725000D03*
D17*
X229235000Y-90805000D03*
X235585000Y-88265000D03*
D18*
X236855000Y-85725000D03*
X226695000Y-85725000D03*
%TD*%
D16*
%TO.C,S11*%
X250825000Y-85725000D03*
D17*
X248285000Y-90805000D03*
X254635000Y-88265000D03*
D18*
X255905000Y-85725000D03*
X245745000Y-85725000D03*
%TD*%
D16*
%TO.C,S12*%
X269875000Y-85725000D03*
D17*
X267335000Y-90805000D03*
X273685000Y-88265000D03*
D18*
X274955000Y-85725000D03*
X264795000Y-85725000D03*
%TD*%
D16*
%TO.C,S13*%
X288925000Y-85725000D03*
D17*
X286385000Y-90805000D03*
X292735000Y-88265000D03*
D18*
X294005000Y-85725000D03*
X283845000Y-85725000D03*
%TD*%
D16*
%TO.C,S14*%
X307975000Y-85725000D03*
D17*
X305435000Y-90805000D03*
X311785000Y-88265000D03*
D18*
X313055000Y-85725000D03*
X302895000Y-85725000D03*
%TD*%
D16*
%TO.C,S15*%
X327025000Y-85725000D03*
D17*
X324485000Y-90805000D03*
X330835000Y-88265000D03*
D18*
X332105000Y-85725000D03*
X321945000Y-85725000D03*
%TD*%
D16*
%TO.C,S18*%
X88900000Y-104775000D03*
D17*
X86360000Y-109855000D03*
X92710000Y-107315000D03*
D18*
X93980000Y-104775000D03*
X83820000Y-104775000D03*
%TD*%
D16*
%TO.C,S19*%
X107950000Y-104775000D03*
D17*
X105410000Y-109855000D03*
X111760000Y-107315000D03*
D18*
X113030000Y-104775000D03*
X102870000Y-104775000D03*
%TD*%
D16*
%TO.C,S20*%
X127000000Y-104775000D03*
D17*
X124460000Y-109855000D03*
X130810000Y-107315000D03*
D18*
X132080000Y-104775000D03*
X121920000Y-104775000D03*
%TD*%
D16*
%TO.C,S21*%
X146050000Y-104775000D03*
D17*
X143510000Y-109855000D03*
X149860000Y-107315000D03*
D18*
X151130000Y-104775000D03*
X140970000Y-104775000D03*
%TD*%
D16*
%TO.C,S22*%
X165100000Y-104775000D03*
D17*
X162560000Y-109855000D03*
X168910000Y-107315000D03*
D18*
X170180000Y-104775000D03*
X160020000Y-104775000D03*
%TD*%
D16*
%TO.C,S23*%
X184150000Y-104775000D03*
D17*
X181610000Y-109855000D03*
X187960000Y-107315000D03*
D18*
X189230000Y-104775000D03*
X179070000Y-104775000D03*
%TD*%
D16*
%TO.C,S24*%
X203200000Y-104775000D03*
D17*
X200660000Y-109855000D03*
X207010000Y-107315000D03*
D18*
X208280000Y-104775000D03*
X198120000Y-104775000D03*
%TD*%
D16*
%TO.C,S25*%
X222250000Y-104775000D03*
D17*
X219710000Y-109855000D03*
X226060000Y-107315000D03*
D18*
X227330000Y-104775000D03*
X217170000Y-104775000D03*
%TD*%
D16*
%TO.C,S26*%
X241300000Y-104775000D03*
D17*
X238760000Y-109855000D03*
X245110000Y-107315000D03*
D18*
X246380000Y-104775000D03*
X236220000Y-104775000D03*
%TD*%
D16*
%TO.C,S27*%
X260350000Y-104775000D03*
D17*
X257810000Y-109855000D03*
X264160000Y-107315000D03*
D18*
X265430000Y-104775000D03*
X255270000Y-104775000D03*
%TD*%
D16*
%TO.C,S28*%
X279400000Y-104775000D03*
D17*
X276860000Y-109855000D03*
X283210000Y-107315000D03*
D18*
X284480000Y-104775000D03*
X274320000Y-104775000D03*
%TD*%
D16*
%TO.C,S29*%
X298450000Y-104775000D03*
D17*
X295910000Y-109855000D03*
X302260000Y-107315000D03*
D18*
X303530000Y-104775000D03*
X293370000Y-104775000D03*
%TD*%
D16*
%TO.C,S31*%
X346075000Y-104775000D03*
D17*
X343535000Y-109855000D03*
X349885000Y-107315000D03*
D18*
X351155000Y-104775000D03*
X340995000Y-104775000D03*
%TD*%
D16*
%TO.C,S33*%
X93662500Y-123825000D03*
D17*
X91122500Y-128905000D03*
X97472500Y-126365000D03*
D18*
X98742500Y-123825000D03*
X88582500Y-123825000D03*
%TD*%
D16*
%TO.C,S34*%
X112712000Y-123825000D03*
D17*
X110172000Y-128905000D03*
X116522000Y-126365000D03*
D18*
X117792000Y-123825000D03*
X107632000Y-123825000D03*
%TD*%
D16*
%TO.C,S35*%
X131762000Y-123825000D03*
D17*
X129222000Y-128905000D03*
X135572000Y-126365000D03*
D18*
X136842000Y-123825000D03*
X126682000Y-123825000D03*
%TD*%
D16*
%TO.C,S36*%
X150812000Y-123825000D03*
D17*
X148272000Y-128905000D03*
X154622000Y-126365000D03*
D18*
X155892000Y-123825000D03*
X145732000Y-123825000D03*
%TD*%
D16*
%TO.C,S37*%
X169862000Y-123825000D03*
D17*
X167322000Y-128905000D03*
X173672000Y-126365000D03*
D18*
X174942000Y-123825000D03*
X164782000Y-123825000D03*
%TD*%
D16*
%TO.C,S38*%
X188912000Y-123825000D03*
D17*
X186372000Y-128905000D03*
X192722000Y-126365000D03*
D18*
X193992000Y-123825000D03*
X183832000Y-123825000D03*
%TD*%
D16*
%TO.C,S39*%
X207962000Y-123825000D03*
D17*
X205422000Y-128905000D03*
X211772000Y-126365000D03*
D18*
X213042000Y-123825000D03*
X202882000Y-123825000D03*
%TD*%
D16*
%TO.C,S40*%
X227012000Y-123825000D03*
D17*
X224472000Y-128905000D03*
X230822000Y-126365000D03*
D18*
X232092000Y-123825000D03*
X221932000Y-123825000D03*
%TD*%
D16*
%TO.C,S41*%
X246062000Y-123825000D03*
D17*
X243522000Y-128905000D03*
X249872000Y-126365000D03*
D18*
X251142000Y-123825000D03*
X240982000Y-123825000D03*
%TD*%
D16*
%TO.C,S42*%
X265112000Y-123825000D03*
D17*
X262572000Y-128905000D03*
X268922000Y-126365000D03*
D18*
X270192000Y-123825000D03*
X260032000Y-123825000D03*
%TD*%
D16*
%TO.C,S43*%
X284162000Y-123825000D03*
D17*
X281622000Y-128905000D03*
X287972000Y-126365000D03*
D18*
X289242000Y-123825000D03*
X279082000Y-123825000D03*
%TD*%
D16*
%TO.C,S44*%
X303212000Y-123825000D03*
D17*
X300672000Y-128905000D03*
X307022000Y-126365000D03*
D18*
X308292000Y-123825000D03*
X298132000Y-123825000D03*
%TD*%
D16*
%TO.C,S46*%
X346075000Y-123825000D03*
D17*
X343535000Y-128905000D03*
X349885000Y-126365000D03*
D18*
X351155000Y-123825000D03*
X340995000Y-123825000D03*
%TD*%
D16*
%TO.C,S48*%
X84137500Y-142875000D03*
D17*
X81597500Y-147955000D03*
X87947500Y-145415000D03*
D18*
X89217500Y-142875000D03*
X79057500Y-142875000D03*
%TD*%
D16*
%TO.C,S49*%
X103188000Y-142875000D03*
D17*
X100648000Y-147955000D03*
X106998000Y-145415000D03*
D18*
X108268000Y-142875000D03*
X98108000Y-142875000D03*
%TD*%
D16*
%TO.C,S50*%
X122238000Y-142875000D03*
D17*
X119698000Y-147955000D03*
X126048000Y-145415000D03*
D18*
X127318000Y-142875000D03*
X117158000Y-142875000D03*
%TD*%
D16*
%TO.C,S51*%
X141288000Y-142875000D03*
D17*
X138748000Y-147955000D03*
X145098000Y-145415000D03*
D18*
X146368000Y-142875000D03*
X136208000Y-142875000D03*
%TD*%
D16*
%TO.C,S52*%
X160338000Y-142875000D03*
D17*
X157798000Y-147955000D03*
X164148000Y-145415000D03*
D18*
X165418000Y-142875000D03*
X155258000Y-142875000D03*
%TD*%
D16*
%TO.C,S53*%
X179388000Y-142875000D03*
D17*
X176848000Y-147955000D03*
X183198000Y-145415000D03*
D18*
X184468000Y-142875000D03*
X174308000Y-142875000D03*
%TD*%
D16*
%TO.C,S54*%
X198438000Y-142875000D03*
D17*
X195898000Y-147955000D03*
X202248000Y-145415000D03*
D18*
X203518000Y-142875000D03*
X193358000Y-142875000D03*
%TD*%
D16*
%TO.C,S55*%
X217488000Y-142875000D03*
D17*
X214948000Y-147955000D03*
X221298000Y-145415000D03*
D18*
X222568000Y-142875000D03*
X212408000Y-142875000D03*
%TD*%
D16*
%TO.C,S56*%
X236538000Y-142875000D03*
D17*
X233998000Y-147955000D03*
X240348000Y-145415000D03*
D18*
X241618000Y-142875000D03*
X231458000Y-142875000D03*
%TD*%
D16*
%TO.C,S57*%
X255588000Y-142875000D03*
D17*
X253048000Y-147955000D03*
X259398000Y-145415000D03*
D18*
X260668000Y-142875000D03*
X250508000Y-142875000D03*
%TD*%
D16*
%TO.C,S58*%
X274638000Y-142875000D03*
D17*
X272098000Y-147955000D03*
X278448000Y-145415000D03*
D18*
X279718000Y-142875000D03*
X269558000Y-142875000D03*
%TD*%
D16*
%TO.C,S60*%
X327025000Y-142875000D03*
D17*
X324485000Y-147955000D03*
X330835000Y-145415000D03*
D18*
X332105000Y-142875000D03*
X321945000Y-142875000D03*
%TD*%
D16*
%TO.C,S61*%
X346075000Y-142875000D03*
D17*
X343535000Y-147955000D03*
X349885000Y-145415000D03*
D18*
X351155000Y-142875000D03*
X340995000Y-142875000D03*
%TD*%
D16*
%TO.C,S47*%
X62706200Y-142875000D03*
D17*
X60166200Y-147955000D03*
X66516200Y-145415000D03*
D18*
X67786200Y-142875000D03*
X57626200Y-142875000D03*
%TD*%
D16*
%TO.C,S65*%
X181769000Y-161925000D03*
D17*
X179229000Y-167005000D03*
X185579000Y-164465000D03*
D18*
X186849000Y-161925000D03*
X176689000Y-161925000D03*
%TD*%
D21*
%TO.C,P1*%
X235839000Y-164592000D03*
X236855000Y-156972000D03*
X234823000Y-156972000D03*
D22*
X238379000Y-164592000D03*
X238379000Y-158877000D03*
X233299000Y-164592000D03*
X233299000Y-158877000D03*
%TD*%
D16*
%TO.C,S2*%
X79375000Y-85725000D03*
D17*
X76835000Y-90805000D03*
X83185000Y-88265000D03*
D18*
X84455000Y-85725000D03*
X74295000Y-85725000D03*
%TD*%
D13*
%TO.C,LED115*%
X318770000Y-80645000D03*
D23*
X316230000Y-80645000D03*
%TD*%
D13*
%TO.C,LED145*%
X316389000Y-118745000D03*
D23*
X313849000Y-118745000D03*
%TD*%
D13*
%TO.C,LED147*%
X73501200Y-137795000D03*
D23*
X70961200Y-137795000D03*
%TD*%
D13*
%TO.C,LED159*%
X311626000Y-137795000D03*
D23*
X309086000Y-137795000D03*
%TD*%
D13*
%TO.C,LED162*%
X63754000Y-156846000D03*
D23*
X66294000Y-156846000D03*
%TD*%
D13*
%TO.C,LED163*%
X87630000Y-156846000D03*
D23*
X90170000Y-156846000D03*
%TD*%
D13*
%TO.C,LED164*%
X111442000Y-156846000D03*
D23*
X113982000Y-156846000D03*
%TD*%
D13*
%TO.C,LED165*%
X175895000Y-156845000D03*
D23*
X173355000Y-156845000D03*
%TD*%
D13*
%TO.C,LED166*%
X251968000Y-156846000D03*
D23*
X254508000Y-156846000D03*
%TD*%
D13*
%TO.C,LED167*%
X278289000Y-156845000D03*
D23*
X275749000Y-156845000D03*
%TD*%
D13*
%TO.C,LED168*%
X285432000Y-156845000D03*
D23*
X282892000Y-156845000D03*
%TD*%
D13*
%TO.C,LED245*%
X319564000Y-115570000D03*
D23*
X319564000Y-113030000D03*
%TD*%
D13*
%TO.C,LED263*%
X94932500Y-156845000D03*
D23*
X92392500Y-156845000D03*
%TD*%
D13*
%TO.C,LED265*%
X194945000Y-156845000D03*
D23*
X192405000Y-156845000D03*
%TD*%
D13*
%TO.C,LED266*%
X256858000Y-156845000D03*
D23*
X254318000Y-156845000D03*
%TD*%
M02*
