G04 #@! TF.FileFunction,Soldermask,Top*
%FSLAX46Y46*%
G04 Gerber Fmt 4.6, Leading zero omitted, Abs format (unit mm)*
G04 Created by KiCad (PCBNEW (2015-09-26 BZR 6224)-product) date 11/12/2015 12:03:04 AM*
%MOMM*%
G01*
G04 APERTURE LIST*
%ADD10C,0.150000*%
%ADD11C,1.143010*%
%ADD12C,2.527310*%
%ADD13O,1.352400X1.352400*%
%ADD14R,1.352400X1.352400*%
%ADD15C,4.142740*%
%ADD16C,2.651760*%
%ADD17C,1.856740*%
%ADD18C,3.200654*%
%ADD19C,4.140454*%
%ADD20C,1.952400*%
%ADD21O,1.302400X1.952400*%
%ADD22O,1.602400X2.152400*%
%ADD23C,0.952400*%
G04 APERTURE END LIST*
D10*
D11*
X235839000Y-164592000D03*
X236855000Y-156972000D03*
X234823000Y-156972000D03*
D12*
X238379000Y-164592000D03*
X238379000Y-158877000D03*
X233299000Y-164592000D03*
X233299000Y-158877000D03*
D13*
X344805000Y-156845000D03*
D14*
X347345000Y-156845000D03*
D13*
X325755000Y-156845000D03*
D14*
X328295000Y-156845000D03*
D13*
X306705000Y-156845000D03*
D14*
X309245000Y-156845000D03*
D13*
X287655000Y-156845000D03*
D14*
X290195000Y-156845000D03*
D13*
X268605000Y-156845000D03*
D14*
X271145000Y-156845000D03*
D13*
X249555000Y-156845000D03*
D14*
X252095000Y-156845000D03*
D13*
X180499000Y-156845000D03*
D14*
X183039000Y-156845000D03*
D13*
X109061000Y-156845000D03*
D14*
X111601000Y-156845000D03*
D13*
X85248800Y-156845000D03*
D14*
X87788800Y-156845000D03*
D13*
X61468000Y-156845000D03*
D14*
X64008000Y-156845000D03*
D13*
X344805000Y-137795000D03*
D14*
X347345000Y-137795000D03*
D13*
X325755000Y-137795000D03*
D14*
X328295000Y-137795000D03*
D13*
X299561000Y-137795000D03*
D14*
X302101000Y-137795000D03*
D13*
X273368000Y-137795000D03*
D14*
X275908000Y-137795000D03*
D13*
X254318000Y-137795000D03*
D14*
X256858000Y-137795000D03*
D13*
X235268000Y-137795000D03*
D14*
X237808000Y-137795000D03*
D13*
X216218000Y-137795000D03*
D14*
X218758000Y-137795000D03*
D13*
X197168000Y-137795000D03*
D14*
X199708000Y-137795000D03*
D13*
X178118000Y-137795000D03*
D14*
X180658000Y-137795000D03*
D13*
X159068000Y-137795000D03*
D14*
X161608000Y-137795000D03*
D13*
X140018000Y-137795000D03*
D14*
X142558000Y-137795000D03*
D13*
X120968000Y-137795000D03*
D14*
X123508000Y-137795000D03*
D13*
X101918000Y-137795000D03*
D14*
X104458000Y-137795000D03*
D13*
X82867500Y-137795000D03*
D14*
X85407500Y-137795000D03*
D13*
X61436200Y-137795000D03*
D14*
X63976200Y-137795000D03*
D13*
X344805000Y-118745000D03*
D14*
X347345000Y-118745000D03*
D13*
X323374000Y-119380000D03*
D14*
X325914000Y-119380000D03*
D13*
X301943000Y-118745000D03*
D14*
X304483000Y-118745000D03*
D13*
X282893000Y-118745000D03*
D14*
X285433000Y-118745000D03*
D13*
X263843000Y-118745000D03*
D14*
X266383000Y-118745000D03*
D13*
X244793000Y-118745000D03*
D14*
X247333000Y-118745000D03*
D13*
X225743000Y-118745000D03*
D14*
X228283000Y-118745000D03*
D13*
X206693000Y-118745000D03*
D14*
X209233000Y-118745000D03*
D13*
X187643000Y-118745000D03*
D14*
X190183000Y-118745000D03*
D13*
X168593000Y-118745000D03*
D14*
X171133000Y-118745000D03*
D13*
X149543000Y-118745000D03*
D14*
X152083000Y-118745000D03*
D13*
X130493000Y-118745000D03*
D14*
X133033000Y-118745000D03*
D13*
X111443000Y-118745000D03*
D14*
X113983000Y-118745000D03*
D13*
X92392600Y-118745000D03*
D14*
X94932600Y-118745000D03*
D13*
X66198800Y-118745000D03*
D14*
X68738800Y-118745000D03*
D13*
X344805000Y-99695000D03*
D14*
X347345000Y-99695000D03*
D13*
X320992000Y-99695000D03*
D14*
X323532000Y-99695000D03*
D13*
X297180000Y-99695000D03*
D14*
X299720000Y-99695000D03*
D13*
X278130000Y-99695000D03*
D14*
X280670000Y-99695000D03*
D13*
X259080000Y-99695000D03*
D14*
X261620000Y-99695000D03*
D13*
X240030000Y-99695000D03*
D14*
X242570000Y-99695000D03*
D13*
X220980000Y-99695000D03*
D14*
X223520000Y-99695000D03*
D13*
X201930000Y-99695000D03*
D14*
X204470000Y-99695000D03*
D13*
X182880000Y-99695000D03*
D14*
X185420000Y-99695000D03*
D13*
X163830000Y-99695000D03*
D14*
X166370000Y-99695000D03*
D13*
X144780000Y-99695000D03*
D14*
X147320000Y-99695000D03*
D13*
X125730000Y-99695000D03*
D14*
X128270000Y-99695000D03*
D13*
X106680000Y-99695000D03*
D14*
X109220000Y-99695000D03*
D13*
X87630000Y-99695000D03*
D14*
X90170000Y-99695000D03*
D13*
X63817500Y-99695000D03*
D14*
X66357500Y-99695000D03*
D13*
X344805000Y-80645000D03*
D14*
X347345000Y-80645000D03*
D13*
X325755000Y-80645000D03*
D14*
X328295000Y-80645000D03*
D13*
X306705000Y-80645000D03*
D14*
X309245000Y-80645000D03*
D13*
X287655000Y-80645000D03*
D14*
X290195000Y-80645000D03*
D13*
X268605000Y-80645000D03*
D14*
X271145000Y-80645000D03*
D13*
X249555000Y-80645000D03*
D14*
X252095000Y-80645000D03*
D13*
X230505000Y-80645000D03*
D14*
X233045000Y-80645000D03*
D13*
X211455000Y-80645000D03*
D14*
X213995000Y-80645000D03*
D13*
X192405000Y-80645000D03*
D14*
X194945000Y-80645000D03*
D13*
X173355000Y-80645000D03*
D14*
X175895000Y-80645000D03*
D13*
X154305000Y-80645000D03*
D14*
X156845000Y-80645000D03*
D13*
X135255000Y-80645000D03*
D14*
X137795000Y-80645000D03*
D13*
X116205000Y-80645000D03*
D14*
X118745000Y-80645000D03*
D13*
X97155000Y-80645000D03*
D14*
X99695000Y-80645000D03*
D13*
X78105000Y-80645000D03*
D14*
X80645000Y-80645000D03*
D13*
X59055000Y-80645000D03*
D14*
X61595000Y-80645000D03*
D15*
X181769000Y-161925000D03*
D16*
X179229000Y-167005000D03*
X185579000Y-164465000D03*
D17*
X186849000Y-161925000D03*
X176689000Y-161925000D03*
D15*
X62706200Y-142875000D03*
D16*
X60166200Y-147955000D03*
X66516200Y-145415000D03*
D17*
X67786200Y-142875000D03*
X57626200Y-142875000D03*
D15*
X346075000Y-142875000D03*
D16*
X343535000Y-147955000D03*
X349885000Y-145415000D03*
D17*
X351155000Y-142875000D03*
X340995000Y-142875000D03*
D15*
X327025000Y-142875000D03*
D16*
X324485000Y-147955000D03*
X330835000Y-145415000D03*
D17*
X332105000Y-142875000D03*
X321945000Y-142875000D03*
D15*
X274638000Y-142875000D03*
D16*
X272098000Y-147955000D03*
X278448000Y-145415000D03*
D17*
X279718000Y-142875000D03*
X269558000Y-142875000D03*
D15*
X255588000Y-142875000D03*
D16*
X253048000Y-147955000D03*
X259398000Y-145415000D03*
D17*
X260668000Y-142875000D03*
X250508000Y-142875000D03*
D15*
X236538000Y-142875000D03*
D16*
X233998000Y-147955000D03*
X240348000Y-145415000D03*
D17*
X241618000Y-142875000D03*
X231458000Y-142875000D03*
D15*
X217488000Y-142875000D03*
D16*
X214948000Y-147955000D03*
X221298000Y-145415000D03*
D17*
X222568000Y-142875000D03*
X212408000Y-142875000D03*
D15*
X198438000Y-142875000D03*
D16*
X195898000Y-147955000D03*
X202248000Y-145415000D03*
D17*
X203518000Y-142875000D03*
X193358000Y-142875000D03*
D15*
X179388000Y-142875000D03*
D16*
X176848000Y-147955000D03*
X183198000Y-145415000D03*
D17*
X184468000Y-142875000D03*
X174308000Y-142875000D03*
D15*
X160338000Y-142875000D03*
D16*
X157798000Y-147955000D03*
X164148000Y-145415000D03*
D17*
X165418000Y-142875000D03*
X155258000Y-142875000D03*
D15*
X141288000Y-142875000D03*
D16*
X138748000Y-147955000D03*
X145098000Y-145415000D03*
D17*
X146368000Y-142875000D03*
X136208000Y-142875000D03*
D15*
X122238000Y-142875000D03*
D16*
X119698000Y-147955000D03*
X126048000Y-145415000D03*
D17*
X127318000Y-142875000D03*
X117158000Y-142875000D03*
D15*
X103188000Y-142875000D03*
D16*
X100648000Y-147955000D03*
X106998000Y-145415000D03*
D17*
X108268000Y-142875000D03*
X98108000Y-142875000D03*
D15*
X84137500Y-142875000D03*
D16*
X81597500Y-147955000D03*
X87947500Y-145415000D03*
D17*
X89217500Y-142875000D03*
X79057500Y-142875000D03*
D15*
X346075000Y-123825000D03*
D16*
X343535000Y-128905000D03*
X349885000Y-126365000D03*
D17*
X351155000Y-123825000D03*
X340995000Y-123825000D03*
D15*
X303212000Y-123825000D03*
D16*
X300672000Y-128905000D03*
X307022000Y-126365000D03*
D17*
X308292000Y-123825000D03*
X298132000Y-123825000D03*
D15*
X284162000Y-123825000D03*
D16*
X281622000Y-128905000D03*
X287972000Y-126365000D03*
D17*
X289242000Y-123825000D03*
X279082000Y-123825000D03*
D15*
X265112000Y-123825000D03*
D16*
X262572000Y-128905000D03*
X268922000Y-126365000D03*
D17*
X270192000Y-123825000D03*
X260032000Y-123825000D03*
D15*
X246062000Y-123825000D03*
D16*
X243522000Y-128905000D03*
X249872000Y-126365000D03*
D17*
X251142000Y-123825000D03*
X240982000Y-123825000D03*
D15*
X227012000Y-123825000D03*
D16*
X224472000Y-128905000D03*
X230822000Y-126365000D03*
D17*
X232092000Y-123825000D03*
X221932000Y-123825000D03*
D15*
X207962000Y-123825000D03*
D16*
X205422000Y-128905000D03*
X211772000Y-126365000D03*
D17*
X213042000Y-123825000D03*
X202882000Y-123825000D03*
D15*
X188912000Y-123825000D03*
D16*
X186372000Y-128905000D03*
X192722000Y-126365000D03*
D17*
X193992000Y-123825000D03*
X183832000Y-123825000D03*
D15*
X169862000Y-123825000D03*
D16*
X167322000Y-128905000D03*
X173672000Y-126365000D03*
D17*
X174942000Y-123825000D03*
X164782000Y-123825000D03*
D15*
X150812000Y-123825000D03*
D16*
X148272000Y-128905000D03*
X154622000Y-126365000D03*
D17*
X155892000Y-123825000D03*
X145732000Y-123825000D03*
D15*
X131762000Y-123825000D03*
D16*
X129222000Y-128905000D03*
X135572000Y-126365000D03*
D17*
X136842000Y-123825000D03*
X126682000Y-123825000D03*
D15*
X112712000Y-123825000D03*
D16*
X110172000Y-128905000D03*
X116522000Y-126365000D03*
D17*
X117792000Y-123825000D03*
X107632000Y-123825000D03*
D15*
X93662500Y-123825000D03*
D16*
X91122500Y-128905000D03*
X97472500Y-126365000D03*
D17*
X98742500Y-123825000D03*
X88582500Y-123825000D03*
D15*
X346075000Y-104775000D03*
D16*
X343535000Y-109855000D03*
X349885000Y-107315000D03*
D17*
X351155000Y-104775000D03*
X340995000Y-104775000D03*
D15*
X298450000Y-104775000D03*
D16*
X295910000Y-109855000D03*
X302260000Y-107315000D03*
D17*
X303530000Y-104775000D03*
X293370000Y-104775000D03*
D15*
X279400000Y-104775000D03*
D16*
X276860000Y-109855000D03*
X283210000Y-107315000D03*
D17*
X284480000Y-104775000D03*
X274320000Y-104775000D03*
D15*
X260350000Y-104775000D03*
D16*
X257810000Y-109855000D03*
X264160000Y-107315000D03*
D17*
X265430000Y-104775000D03*
X255270000Y-104775000D03*
D15*
X241300000Y-104775000D03*
D16*
X238760000Y-109855000D03*
X245110000Y-107315000D03*
D17*
X246380000Y-104775000D03*
X236220000Y-104775000D03*
D15*
X222250000Y-104775000D03*
D16*
X219710000Y-109855000D03*
X226060000Y-107315000D03*
D17*
X227330000Y-104775000D03*
X217170000Y-104775000D03*
D15*
X203200000Y-104775000D03*
D16*
X200660000Y-109855000D03*
X207010000Y-107315000D03*
D17*
X208280000Y-104775000D03*
X198120000Y-104775000D03*
D15*
X184150000Y-104775000D03*
D16*
X181610000Y-109855000D03*
X187960000Y-107315000D03*
D17*
X189230000Y-104775000D03*
X179070000Y-104775000D03*
D15*
X165100000Y-104775000D03*
D16*
X162560000Y-109855000D03*
X168910000Y-107315000D03*
D17*
X170180000Y-104775000D03*
X160020000Y-104775000D03*
D15*
X146050000Y-104775000D03*
D16*
X143510000Y-109855000D03*
X149860000Y-107315000D03*
D17*
X151130000Y-104775000D03*
X140970000Y-104775000D03*
D15*
X127000000Y-104775000D03*
D16*
X124460000Y-109855000D03*
X130810000Y-107315000D03*
D17*
X132080000Y-104775000D03*
X121920000Y-104775000D03*
D15*
X107950000Y-104775000D03*
D16*
X105410000Y-109855000D03*
X111760000Y-107315000D03*
D17*
X113030000Y-104775000D03*
X102870000Y-104775000D03*
D15*
X88900000Y-104775000D03*
D16*
X86360000Y-109855000D03*
X92710000Y-107315000D03*
D17*
X93980000Y-104775000D03*
X83820000Y-104775000D03*
D15*
X327025000Y-85725000D03*
D16*
X324485000Y-90805000D03*
X330835000Y-88265000D03*
D17*
X332105000Y-85725000D03*
X321945000Y-85725000D03*
D15*
X307975000Y-85725000D03*
D16*
X305435000Y-90805000D03*
X311785000Y-88265000D03*
D17*
X313055000Y-85725000D03*
X302895000Y-85725000D03*
D15*
X288925000Y-85725000D03*
D16*
X286385000Y-90805000D03*
X292735000Y-88265000D03*
D17*
X294005000Y-85725000D03*
X283845000Y-85725000D03*
D15*
X269875000Y-85725000D03*
D16*
X267335000Y-90805000D03*
X273685000Y-88265000D03*
D17*
X274955000Y-85725000D03*
X264795000Y-85725000D03*
D15*
X250825000Y-85725000D03*
D16*
X248285000Y-90805000D03*
X254635000Y-88265000D03*
D17*
X255905000Y-85725000D03*
X245745000Y-85725000D03*
D15*
X231775000Y-85725000D03*
D16*
X229235000Y-90805000D03*
X235585000Y-88265000D03*
D17*
X236855000Y-85725000D03*
X226695000Y-85725000D03*
D15*
X212725000Y-85725000D03*
D16*
X210185000Y-90805000D03*
X216535000Y-88265000D03*
D17*
X217805000Y-85725000D03*
X207645000Y-85725000D03*
D15*
X193675000Y-85725000D03*
D16*
X191135000Y-90805000D03*
X197485000Y-88265000D03*
D17*
X198755000Y-85725000D03*
X188595000Y-85725000D03*
D15*
X174625000Y-85725000D03*
D16*
X172085000Y-90805000D03*
X178435000Y-88265000D03*
D17*
X179705000Y-85725000D03*
X169545000Y-85725000D03*
D15*
X155575000Y-85725000D03*
D16*
X153035000Y-90805000D03*
X159385000Y-88265000D03*
D17*
X160655000Y-85725000D03*
X150495000Y-85725000D03*
D15*
X136525000Y-85725000D03*
D16*
X133985000Y-90805000D03*
X140335000Y-88265000D03*
D17*
X141605000Y-85725000D03*
X131445000Y-85725000D03*
D15*
X117475000Y-85725000D03*
D16*
X114935000Y-90805000D03*
X121285000Y-88265000D03*
D17*
X122555000Y-85725000D03*
X112395000Y-85725000D03*
D15*
X98425000Y-85725000D03*
D16*
X95885000Y-90805000D03*
X102235000Y-88265000D03*
D17*
X103505000Y-85725000D03*
X93345000Y-85725000D03*
D15*
X79375000Y-85725000D03*
D16*
X76835000Y-90805000D03*
X83185000Y-88265000D03*
D17*
X84455000Y-85725000D03*
X74295000Y-85725000D03*
D15*
X60325000Y-85725000D03*
D16*
X57785000Y-90805000D03*
X64135000Y-88265000D03*
D17*
X65405000Y-85725000D03*
X55245000Y-85725000D03*
D15*
X346075000Y-85725000D03*
D16*
X343535000Y-90805000D03*
X349885000Y-88265000D03*
D17*
X351155000Y-85725000D03*
X340995000Y-85725000D03*
D15*
X322262000Y-104775000D03*
D16*
X319722000Y-109855000D03*
X326072000Y-107315000D03*
D17*
X327342000Y-104775000D03*
X317182000Y-104775000D03*
D15*
X250825000Y-161925000D03*
D16*
X248285000Y-167005000D03*
X254635000Y-164465000D03*
D17*
X255905000Y-161925000D03*
X245745000Y-161925000D03*
D15*
X269875000Y-161925000D03*
D16*
X267335000Y-167005000D03*
X273685000Y-164465000D03*
D17*
X274955000Y-161925000D03*
X264795000Y-161925000D03*
D15*
X288925000Y-161925000D03*
D16*
X286385000Y-167005000D03*
X292735000Y-164465000D03*
D17*
X294005000Y-161925000D03*
X283845000Y-161925000D03*
D15*
X307975000Y-161925000D03*
D16*
X305435000Y-167005000D03*
X311785000Y-164465000D03*
D17*
X313055000Y-161925000D03*
X302895000Y-161925000D03*
D15*
X327025000Y-161925000D03*
D16*
X324485000Y-167005000D03*
X330835000Y-164465000D03*
D17*
X332105000Y-161925000D03*
X321945000Y-161925000D03*
D15*
X346075000Y-161925000D03*
D16*
X343535000Y-167005000D03*
X349885000Y-164465000D03*
D17*
X351155000Y-161925000D03*
X340995000Y-161925000D03*
D15*
X110331000Y-161925000D03*
D16*
X107791000Y-167005000D03*
X114141000Y-164465000D03*
D17*
X115411000Y-161925000D03*
X105251000Y-161925000D03*
D15*
X86518800Y-161925000D03*
D16*
X83978800Y-167005000D03*
X90328800Y-164465000D03*
D17*
X91598800Y-161925000D03*
X81438800Y-161925000D03*
D15*
X300831000Y-142875000D03*
D16*
X298291000Y-147955000D03*
X304641000Y-145415000D03*
D17*
X305911000Y-142875000D03*
X295751000Y-142875000D03*
D15*
X324644000Y-123825000D03*
D16*
X322104000Y-128905000D03*
X328454000Y-126365000D03*
D17*
X329724000Y-123825000D03*
X319564000Y-123825000D03*
D15*
X67468800Y-123825000D03*
D16*
X64928800Y-128905000D03*
X71278800Y-126365000D03*
D17*
X72548800Y-123825000D03*
X62388800Y-123825000D03*
D15*
X65087500Y-104775000D03*
D16*
X62547500Y-109855000D03*
X68897500Y-107315000D03*
D17*
X70167500Y-104775000D03*
X60007500Y-104775000D03*
D15*
X62706200Y-161925000D03*
D16*
X60166200Y-167005000D03*
X66516200Y-164465000D03*
D17*
X67786200Y-161925000D03*
X57626200Y-161925000D03*
D18*
X329406000Y-78737460D03*
D19*
X329406000Y-93980000D03*
D18*
X305594000Y-78737460D03*
D19*
X305594000Y-93980000D03*
D18*
X84137500Y-135887460D03*
D19*
X84137500Y-151130000D03*
D18*
X60325000Y-135887460D03*
D19*
X60325000Y-151130000D03*
D18*
X298450000Y-135887460D03*
D19*
X298450000Y-151130000D03*
D18*
X321945000Y-135887460D03*
D19*
X321945000Y-151130000D03*
D18*
X250825000Y-168912540D03*
D19*
X250825000Y-153670000D03*
D18*
X136525000Y-168912540D03*
D19*
X136525000Y-153670000D03*
D18*
X117792000Y-168912540D03*
D19*
X117792000Y-153670000D03*
D18*
X231775000Y-168912540D03*
D19*
X231775000Y-153670000D03*
D18*
X331631540Y-102394000D03*
D19*
X316389000Y-102394000D03*
D18*
X331631540Y-126206000D03*
D19*
X316389000Y-126206000D03*
D18*
X303212000Y-116837460D03*
D19*
X303212000Y-132080000D03*
D18*
X327025000Y-116837460D03*
D19*
X327025000Y-132080000D03*
D18*
X131762000Y-168912540D03*
D19*
X131762000Y-153670000D03*
D20*
X170561000Y-151765000D03*
X173101000Y-151765000D03*
X175641000Y-151765000D03*
X178181000Y-151765000D03*
X180721000Y-151765000D03*
X183261000Y-151765000D03*
X185801000Y-151765000D03*
X188341000Y-151765000D03*
X190881000Y-151765000D03*
X193421000Y-151765000D03*
X195961000Y-151765000D03*
D13*
X316230000Y-80645000D03*
D14*
X318770000Y-80645000D03*
D13*
X313849000Y-118745000D03*
D14*
X316389000Y-118745000D03*
D13*
X70961200Y-137795000D03*
D14*
X73501200Y-137795000D03*
D13*
X309086000Y-137795000D03*
D14*
X311626000Y-137795000D03*
D13*
X66294000Y-156845300D03*
D14*
X63754000Y-156845300D03*
D13*
X90170000Y-156845300D03*
D14*
X87630000Y-156845300D03*
D13*
X113982000Y-156845300D03*
D14*
X111442000Y-156845300D03*
D13*
X173355000Y-156845000D03*
D14*
X175895000Y-156845000D03*
D13*
X254508000Y-156845300D03*
D14*
X251968000Y-156845300D03*
D13*
X275749000Y-156845000D03*
D14*
X278289000Y-156845000D03*
D13*
X282892000Y-156845000D03*
D14*
X285432000Y-156845000D03*
D13*
X319564000Y-113030000D03*
D14*
X319564000Y-115570000D03*
D13*
X92392500Y-156845000D03*
D14*
X94932500Y-156845000D03*
D13*
X192405000Y-156845000D03*
D14*
X194945000Y-156845000D03*
D13*
X254318000Y-156845000D03*
D14*
X256858000Y-156845000D03*
D15*
X317500000Y-85725000D03*
D16*
X314960000Y-90805000D03*
X321310000Y-88265000D03*
D17*
X322580000Y-85725000D03*
X312420000Y-85725000D03*
D15*
X315119000Y-123825000D03*
D16*
X312579000Y-128905000D03*
X318929000Y-126365000D03*
D17*
X320199000Y-123825000D03*
X310039000Y-123825000D03*
D15*
X72231200Y-142875000D03*
D16*
X69691200Y-147955000D03*
X76041200Y-145415000D03*
D17*
X77311200Y-142875000D03*
X67151200Y-142875000D03*
D15*
X310356000Y-142875000D03*
D16*
X307816000Y-147955000D03*
X314166000Y-145415000D03*
D17*
X315436000Y-142875000D03*
X305276000Y-142875000D03*
D15*
X65087500Y-161925000D03*
D16*
X62547500Y-167005000D03*
X68897500Y-164465000D03*
D17*
X70167500Y-161925000D03*
X60007500Y-161925000D03*
D15*
X88900000Y-161925000D03*
D16*
X86360000Y-167005000D03*
X92710000Y-164465000D03*
D17*
X93980000Y-161925000D03*
X83820000Y-161925000D03*
D15*
X112712000Y-161925000D03*
D16*
X110172000Y-167005000D03*
X116522000Y-164465000D03*
D17*
X117792000Y-161925000D03*
X107632000Y-161925000D03*
D15*
X174625000Y-161925000D03*
D16*
X172085000Y-167005000D03*
X178435000Y-164465000D03*
D17*
X179705000Y-161925000D03*
X169545000Y-161925000D03*
D15*
X253206000Y-161925000D03*
D16*
X250666000Y-167005000D03*
X257016000Y-164465000D03*
D17*
X258286000Y-161925000D03*
X248126000Y-161925000D03*
D15*
X277019000Y-161925000D03*
D16*
X274479000Y-167005000D03*
X280829000Y-164465000D03*
D17*
X282099000Y-161925000D03*
X271939000Y-161925000D03*
D15*
X284162000Y-161925000D03*
D16*
X281622000Y-167005000D03*
X287972000Y-164465000D03*
D17*
X289242000Y-161925000D03*
X279082000Y-161925000D03*
D15*
X324644000Y-114300000D03*
D16*
X329724000Y-116840000D03*
X327184000Y-110490000D03*
D17*
X324644000Y-109220000D03*
X324644000Y-119380000D03*
D15*
X93662500Y-161925000D03*
D16*
X91122500Y-167005000D03*
X97472500Y-164465000D03*
D17*
X98742500Y-161925000D03*
X88582500Y-161925000D03*
D15*
X193675000Y-161925000D03*
D16*
X191135000Y-167005000D03*
X197485000Y-164465000D03*
D17*
X198755000Y-161925000D03*
X188595000Y-161925000D03*
D15*
X255588000Y-161925000D03*
D16*
X253048000Y-167005000D03*
X259398000Y-164465000D03*
D17*
X260668000Y-161925000D03*
X250508000Y-161925000D03*
D21*
X73725000Y-78000000D03*
X65975000Y-78000000D03*
D22*
X73575000Y-81800000D03*
X66125000Y-81800000D03*
D23*
X67350000Y-80750000D03*
X72350000Y-80750000D03*
M02*
