%TF.GenerationSoftware,KiCad,Pcbnew,(2017-09-19 revision dddaa7e69)-makepkg*%
%TF.CreationDate,2017-11-22T14:32:36-05:00*%
%TF.ProjectId,WhiteFox,5768697465466F782E6B696361645F70,1.1c*%
%TF.SameCoordinates,Original*%
%TF.FileFunction,Paste,Bot*%
%TF.FilePolarity,Positive*%
%FSLAX46Y46*%
G04 Gerber Fmt 4.6, Leading zero omitted, Abs format (unit mm)*
G04 Created by KiCad (PCBNEW (2017-09-19 revision dddaa7e69)-makepkg) date 11/22/17 14:32:36*
%MOMM*%
%LPD*%
G01*
G04 APERTURE LIST*
%ADD10C,0.650000*%
%ADD11R,0.300000X0.900000*%
%ADD12R,0.600000X0.650000*%
%ADD13R,0.650000X0.600000*%
%ADD14C,5.500000*%
%ADD15R,1.500000X0.300000*%
%ADD16R,0.300000X1.500000*%
%ADD17R,1.800000X1.100000*%
%ADD18R,0.850900X1.000760*%
%ADD19R,1.200000X1.400000*%
%ADD20R,0.797560X0.797560*%
%ADD21R,0.400000X1.430000*%
%ADD22R,1.900000X3.250000*%
%ADD23R,1.900000X0.950000*%
%ADD24C,0.250000*%
G04 APERTURE END LIST*
D10*
%TO.C,J1*%
X67450000Y-76403200D02*
X67450000Y-76253200D01*
X69050000Y-76403200D02*
X69050000Y-76253200D01*
X70650000Y-76403200D02*
X70650000Y-76253200D01*
X72250000Y-76403200D02*
X72250000Y-76253200D01*
X72250000Y-76253200D02*
X72650000Y-76253200D01*
X70250000Y-76253200D02*
X70650000Y-76253200D01*
X69050000Y-76253200D02*
X69450000Y-76253200D01*
X67050000Y-76253200D02*
X67450000Y-76253200D01*
X75173000Y-73203200D02*
X75173000Y-70953200D01*
X76923000Y-73203200D02*
X75173000Y-73203200D01*
X76923000Y-70953200D02*
X76923000Y-73203200D01*
X75173000Y-70953200D02*
X76923000Y-70953200D01*
X62777000Y-70953200D02*
X64527000Y-70953200D01*
X64527000Y-70953200D02*
X64527000Y-73203200D01*
X64527000Y-73203200D02*
X62777000Y-73203200D01*
X62777000Y-73203200D02*
X62777000Y-70953200D01*
X63377000Y-73203200D02*
X63377000Y-70953200D01*
X63927000Y-70953200D02*
X63927000Y-73203200D01*
X76323000Y-70953200D02*
X76323000Y-73203200D01*
X75773000Y-73203200D02*
X75773000Y-70953200D01*
X71450000Y-76403200D02*
X71450000Y-76103200D01*
X68250000Y-76403200D02*
X68250000Y-76103200D01*
X64973000Y-79303200D02*
X64973000Y-77053200D01*
X65523000Y-77053200D02*
X65523000Y-79303200D01*
X64373000Y-77053200D02*
X66123000Y-77053200D01*
X66123000Y-77053200D02*
X66123000Y-79303200D01*
X66123000Y-79303200D02*
X64373000Y-79303200D01*
X64373000Y-79303200D02*
X64373000Y-77053200D01*
X73573000Y-79303200D02*
X73573000Y-77053200D01*
X75323000Y-79303200D02*
X73573000Y-79303200D01*
X75323000Y-77053200D02*
X75323000Y-79303200D01*
X73573000Y-77053200D02*
X75323000Y-77053200D01*
X74723000Y-77053200D02*
X74723000Y-79303200D01*
X74173000Y-79303200D02*
X74173000Y-77053200D01*
X71050000Y-77103200D02*
X71050000Y-77303200D01*
X68650000Y-77103200D02*
X68650000Y-77303200D01*
X71050000Y-77103200D02*
X71250000Y-77103200D01*
X68650000Y-77103200D02*
X68450000Y-77103200D01*
X72650000Y-77103200D02*
X72450000Y-77103200D01*
X72650000Y-77103200D02*
X72650000Y-77303200D01*
X67050000Y-77103200D02*
X67250000Y-77103200D01*
X67050000Y-77103200D02*
X67050000Y-77303200D01*
X70250000Y-77103200D02*
X70250000Y-77403200D01*
X69450000Y-77103200D02*
X69450000Y-77403200D01*
%TD*%
D11*
%TO.C,J1*%
X72600000Y-78313200D03*
X72100000Y-78313200D03*
X71600000Y-78313200D03*
X71100000Y-78313200D03*
X70600000Y-78313200D03*
X70100000Y-78313200D03*
X69600000Y-78313200D03*
X69100000Y-78313200D03*
X68600000Y-78313200D03*
X68100000Y-78313200D03*
X67600000Y-78313200D03*
X67100000Y-78313200D03*
%TD*%
D12*
%TO.C,D73*%
X72001000Y-82372200D03*
X71001000Y-82372200D03*
%TD*%
%TO.C,D72*%
X67826000Y-82372200D03*
X68826000Y-82372200D03*
%TD*%
%TO.C,R12*%
X67064000Y-80975200D03*
X68064000Y-80975200D03*
%TD*%
%TO.C,R11*%
X72890000Y-80975200D03*
X71890000Y-80975200D03*
%TD*%
D13*
%TO.C,R10*%
X149606000Y-167124000D03*
X149606000Y-166124000D03*
%TD*%
%TO.C,R9*%
X154559000Y-166124000D03*
X154559000Y-167124000D03*
%TD*%
%TO.C,R8*%
X227902000Y-168775000D03*
X227902000Y-167775000D03*
%TD*%
%TO.C,R7*%
X152908000Y-166124000D03*
X152908000Y-167124000D03*
%TD*%
%TO.C,R6*%
X149987000Y-152900000D03*
X149987000Y-151900000D03*
%TD*%
%TO.C,R5*%
X148336000Y-152900000D03*
X148336000Y-151900000D03*
%TD*%
D12*
%TO.C,R4*%
X226624000Y-160655000D03*
X225624000Y-160655000D03*
%TD*%
%TO.C,R3*%
X226624000Y-159131000D03*
X225624000Y-159131000D03*
%TD*%
D13*
%TO.C,C9*%
X145034000Y-151900000D03*
X145034000Y-152900000D03*
%TD*%
%TO.C,C8*%
X146685000Y-151900000D03*
X146685000Y-152900000D03*
%TD*%
%TO.C,C7*%
X224092000Y-164076000D03*
X224092000Y-163076000D03*
%TD*%
%TO.C,C6*%
X151257000Y-167124000D03*
X151257000Y-166124000D03*
%TD*%
%TO.C,C5*%
X219202000Y-169029000D03*
X219202000Y-168029000D03*
%TD*%
D12*
%TO.C,C4*%
X213733000Y-152273000D03*
X212733000Y-152273000D03*
%TD*%
%TO.C,C3*%
X212717000Y-168148000D03*
X211717000Y-168148000D03*
%TD*%
%TO.C,C2*%
X74684000Y-119634000D03*
X75684000Y-119634000D03*
%TD*%
%TO.C,C1*%
X74684000Y-111252000D03*
X75684000Y-111252000D03*
%TD*%
D13*
%TO.C,R1*%
X216154000Y-152773000D03*
X216154000Y-151773000D03*
%TD*%
%TO.C,R2*%
X214884000Y-152773000D03*
X214884000Y-151773000D03*
%TD*%
D12*
%TO.C,C10*%
X212717000Y-169291000D03*
X211717000Y-169291000D03*
%TD*%
D14*
%TO.C,H1*%
X80568800Y-123830000D03*
%TD*%
D15*
%TO.C,U1*%
X210214000Y-156651000D03*
X210214000Y-157151000D03*
X210214000Y-157651000D03*
X210214000Y-158151000D03*
X210214000Y-158651000D03*
X210214000Y-159151000D03*
X210214000Y-159651000D03*
X210214000Y-160151000D03*
X210214000Y-160651000D03*
X210214000Y-161151000D03*
X210214000Y-161651000D03*
X210214000Y-162151000D03*
X210214000Y-162651000D03*
X210214000Y-163151000D03*
X210214000Y-163651000D03*
X210214000Y-164151000D03*
D16*
X212214000Y-166151000D03*
X212714000Y-166151000D03*
X213214000Y-166151000D03*
X213714000Y-166151000D03*
X214214000Y-166151000D03*
X214714000Y-166151000D03*
X215214000Y-166151000D03*
X215714000Y-166151000D03*
X216214000Y-166151000D03*
X216714000Y-166151000D03*
X217214000Y-166151000D03*
X217714000Y-166151000D03*
X218214000Y-166151000D03*
X218714000Y-166151000D03*
X219214000Y-166151000D03*
X219714000Y-166151000D03*
D15*
X221714000Y-164151000D03*
X221714000Y-163651000D03*
X221714000Y-163151000D03*
X221714000Y-162651000D03*
X221714000Y-162151000D03*
X221714000Y-161651000D03*
X221714000Y-161151000D03*
X221714000Y-160651000D03*
X221714000Y-160151000D03*
X221714000Y-159651000D03*
X221714000Y-159151000D03*
X221714000Y-158651000D03*
X221714000Y-158151000D03*
X221714000Y-157651000D03*
X221714000Y-157151000D03*
X221714000Y-156651000D03*
D16*
X219714000Y-154651000D03*
X219214000Y-154651000D03*
X218714000Y-154651000D03*
X218214000Y-154651000D03*
X217714000Y-154651000D03*
X217214000Y-154651000D03*
X216714000Y-154651000D03*
X216214000Y-154651000D03*
X215714000Y-154651000D03*
X215214000Y-154651000D03*
X214714000Y-154651000D03*
X214214000Y-154651000D03*
X213714000Y-154651000D03*
X213214000Y-154651000D03*
X212714000Y-154651000D03*
X212214000Y-154651000D03*
%TD*%
D17*
%TO.C,S72*%
X228017000Y-148391000D03*
X228017000Y-152091000D03*
X221817000Y-148391000D03*
X221817000Y-152091000D03*
%TD*%
D18*
%TO.C,D1*%
X53181200Y-87472520D03*
X53181200Y-83972400D03*
%TD*%
%TO.C,D2*%
X72231200Y-87472520D03*
X72231200Y-83972400D03*
%TD*%
%TO.C,D3*%
X91281200Y-87472520D03*
X91281200Y-83972400D03*
%TD*%
%TO.C,D4*%
X110331000Y-87472520D03*
X110331000Y-83972400D03*
%TD*%
%TO.C,D5*%
X129381000Y-87472520D03*
X129381000Y-83972400D03*
%TD*%
%TO.C,D6*%
X148431000Y-87472520D03*
X148431000Y-83972400D03*
%TD*%
%TO.C,D7*%
X167481000Y-87472520D03*
X167481000Y-83972400D03*
%TD*%
%TO.C,D8*%
X186531000Y-87472520D03*
X186531000Y-83972400D03*
%TD*%
%TO.C,D9*%
X205581000Y-87472520D03*
X205581000Y-83972400D03*
%TD*%
%TO.C,D10*%
X224631000Y-87472520D03*
X224631000Y-83972400D03*
%TD*%
%TO.C,D11*%
X243681000Y-87472520D03*
X243681000Y-83972400D03*
%TD*%
%TO.C,D12*%
X262731000Y-87472520D03*
X262731000Y-83972400D03*
%TD*%
%TO.C,D13*%
X281781000Y-87472520D03*
X281781000Y-83972400D03*
%TD*%
%TO.C,D14*%
X300831000Y-87472520D03*
X300831000Y-83972400D03*
%TD*%
%TO.C,D15*%
X334169000Y-87472520D03*
X334169000Y-83972400D03*
%TD*%
%TO.C,D16*%
X338931000Y-87472520D03*
X338931000Y-83972400D03*
%TD*%
%TO.C,D17*%
X57943800Y-106522520D03*
X57943800Y-103022400D03*
%TD*%
%TO.C,D18*%
X81756200Y-106522520D03*
X81756200Y-103022400D03*
%TD*%
%TO.C,D19*%
X100806000Y-106522520D03*
X100806000Y-103022400D03*
%TD*%
%TO.C,D20*%
X119856000Y-106522520D03*
X119856000Y-103022400D03*
%TD*%
%TO.C,D21*%
X138906000Y-106522520D03*
X138906000Y-103022400D03*
%TD*%
%TO.C,D22*%
X157956000Y-106522520D03*
X157956000Y-103022400D03*
%TD*%
%TO.C,D23*%
X177006000Y-106522520D03*
X177006000Y-103022400D03*
%TD*%
%TO.C,D24*%
X196056000Y-106522520D03*
X196056000Y-103022400D03*
%TD*%
%TO.C,D25*%
X215106000Y-106522520D03*
X215106000Y-103022400D03*
%TD*%
%TO.C,D26*%
X234156000Y-106522520D03*
X234156000Y-103022400D03*
%TD*%
%TO.C,D27*%
X253206000Y-106522520D03*
X253206000Y-103022400D03*
%TD*%
%TO.C,D28*%
X272256000Y-106522520D03*
X272256000Y-103022400D03*
%TD*%
%TO.C,D29*%
X291306000Y-106522520D03*
X291306000Y-103022400D03*
%TD*%
%TO.C,D30*%
X312738000Y-106522520D03*
X312738000Y-103022400D03*
%TD*%
%TO.C,D31*%
X338931000Y-106522520D03*
X338931000Y-103022400D03*
%TD*%
%TO.C,D32*%
X60325000Y-125572520D03*
X60325000Y-122072400D03*
%TD*%
%TO.C,D33*%
X86518800Y-125572520D03*
X86518800Y-122072400D03*
%TD*%
%TO.C,D34*%
X105569000Y-125572520D03*
X105569000Y-122072400D03*
%TD*%
%TO.C,D35*%
X124619000Y-125572520D03*
X124619000Y-122072400D03*
%TD*%
%TO.C,D36*%
X143669000Y-125572520D03*
X143669000Y-122072400D03*
%TD*%
%TO.C,D37*%
X162719000Y-125572520D03*
X162719000Y-122072400D03*
%TD*%
%TO.C,D38*%
X181769000Y-125572520D03*
X181769000Y-122072400D03*
%TD*%
%TO.C,D39*%
X200819000Y-125572520D03*
X200819000Y-122072400D03*
%TD*%
%TO.C,D40*%
X219869000Y-125572520D03*
X219869000Y-122072400D03*
%TD*%
%TO.C,D41*%
X238919000Y-125572520D03*
X238919000Y-122072400D03*
%TD*%
%TO.C,D42*%
X257969000Y-125572520D03*
X257969000Y-122072400D03*
%TD*%
%TO.C,D43*%
X277019000Y-125572520D03*
X277019000Y-122072400D03*
%TD*%
%TO.C,D44*%
X296069000Y-125572520D03*
X296069000Y-122072400D03*
%TD*%
%TO.C,D45*%
X334169000Y-122077480D03*
X334169000Y-125577600D03*
%TD*%
%TO.C,D46*%
X338931000Y-125572520D03*
X338931000Y-122072400D03*
%TD*%
%TO.C,D47*%
X55562500Y-144622520D03*
X55562500Y-141122400D03*
%TD*%
%TO.C,D48*%
X81089500Y-144622520D03*
X81089500Y-141122400D03*
%TD*%
%TO.C,D49*%
X96043800Y-144622520D03*
X96043800Y-141122400D03*
%TD*%
%TO.C,D50*%
X115094000Y-144622520D03*
X115094000Y-141122400D03*
%TD*%
%TO.C,D51*%
X134144000Y-144622520D03*
X134144000Y-141122400D03*
%TD*%
%TO.C,D52*%
X153194000Y-144622520D03*
X153194000Y-141122400D03*
%TD*%
%TO.C,D53*%
X172244000Y-144622520D03*
X172244000Y-141122400D03*
%TD*%
%TO.C,D54*%
X191294000Y-144622520D03*
X191294000Y-141122400D03*
%TD*%
%TO.C,D55*%
X210344000Y-144622520D03*
X210344000Y-141122400D03*
%TD*%
%TO.C,D56*%
X229394000Y-144622520D03*
X229394000Y-141122400D03*
%TD*%
%TO.C,D57*%
X248444000Y-144622520D03*
X248444000Y-141122400D03*
%TD*%
%TO.C,D58*%
X267494000Y-144622520D03*
X267494000Y-141122400D03*
%TD*%
%TO.C,D59*%
X293688000Y-144622520D03*
X293688000Y-141122400D03*
%TD*%
%TO.C,D60*%
X319881000Y-144622520D03*
X319881000Y-141122400D03*
%TD*%
%TO.C,D61*%
X338931000Y-144622520D03*
X338931000Y-141122400D03*
%TD*%
%TO.C,D62*%
X55562500Y-163672520D03*
X55562500Y-160172400D03*
%TD*%
%TO.C,D63*%
X79375000Y-163672520D03*
X79375000Y-160172400D03*
%TD*%
%TO.C,D64*%
X103188000Y-163672520D03*
X103188000Y-160172400D03*
%TD*%
%TO.C,D65*%
X167481000Y-163672520D03*
X167481000Y-160172400D03*
%TD*%
%TO.C,D67*%
X262731000Y-163672520D03*
X262731000Y-160172400D03*
%TD*%
%TO.C,D68*%
X296069000Y-163672520D03*
X296069000Y-160172400D03*
%TD*%
%TO.C,D69*%
X300831000Y-163672520D03*
X300831000Y-160172400D03*
%TD*%
%TO.C,D70*%
X319881000Y-163672520D03*
X319881000Y-160172400D03*
%TD*%
%TO.C,D71*%
X338931000Y-163672520D03*
X338931000Y-160172400D03*
%TD*%
%TO.C,D66*%
X243681000Y-163672520D03*
X243681000Y-160172400D03*
%TD*%
D19*
%TO.C,X1*%
X222276000Y-166540000D03*
X223876000Y-166540000D03*
X223876000Y-168740000D03*
X222276000Y-168740000D03*
%TD*%
D20*
%TO.C,LED72*%
X227889300Y-162687000D03*
X226390700Y-162687000D03*
%TD*%
D21*
%TO.C,U3*%
X154529000Y-155717000D03*
X153879000Y-155717000D03*
X153229000Y-155717000D03*
X152579000Y-155717000D03*
X151929000Y-155717000D03*
X151279000Y-155717000D03*
X150629000Y-155717000D03*
X149979000Y-155717000D03*
X149329000Y-155717000D03*
X148679000Y-155717000D03*
X148029000Y-155717000D03*
X147379000Y-155717000D03*
X146729000Y-155717000D03*
X146079000Y-155717000D03*
X146079000Y-163307000D03*
X146729000Y-163307000D03*
X147379000Y-163307000D03*
X148029000Y-163307000D03*
X148679000Y-163307000D03*
X149329000Y-163307000D03*
X149979000Y-163307000D03*
X150629000Y-163307000D03*
X151279000Y-163307000D03*
X151929000Y-163307000D03*
X152579000Y-163307000D03*
X153229000Y-163307000D03*
X153879000Y-163307000D03*
X154529000Y-163307000D03*
%TD*%
D22*
%TO.C,Q1*%
X72113600Y-115463000D03*
D23*
X78213600Y-113163000D03*
X78213600Y-117763000D03*
X78213600Y-115463000D03*
%TD*%
D24*
%TO.C,U2*%
X212714000Y-157151000D03*
X213364000Y-157151000D03*
X214014000Y-157151000D03*
X214664000Y-157151000D03*
X215314000Y-157151000D03*
X215964000Y-157151000D03*
X216614000Y-157151000D03*
X217264000Y-157151000D03*
X217914000Y-157151000D03*
X218564000Y-157151000D03*
X219214000Y-157151000D03*
X212714000Y-157801000D03*
X213364000Y-157801000D03*
X214014000Y-157801000D03*
X214664000Y-157801000D03*
X215314000Y-157801000D03*
X215964000Y-157801000D03*
X216614000Y-157801000D03*
X217264000Y-157801000D03*
X217914000Y-157801000D03*
X218564000Y-157801000D03*
X219214000Y-157801000D03*
X212714000Y-158451000D03*
X213364000Y-158451000D03*
X214014000Y-158451000D03*
X214664000Y-158451000D03*
X215314000Y-158451000D03*
X215964000Y-158451000D03*
X216614000Y-158451000D03*
X217264000Y-158451000D03*
X217914000Y-158451000D03*
X218564000Y-158451000D03*
X219214000Y-158451000D03*
X212714000Y-159101000D03*
X213364000Y-159101000D03*
X214014000Y-159101000D03*
X214664000Y-159101000D03*
X215314000Y-159101000D03*
X215964000Y-159101000D03*
X216614000Y-159101000D03*
X217264000Y-159101000D03*
X217914000Y-159101000D03*
X218564000Y-159101000D03*
X219214000Y-159101000D03*
X212714000Y-159751000D03*
X213364000Y-159751000D03*
X214014000Y-159751000D03*
X214664000Y-159751000D03*
X215314000Y-159751000D03*
X215964000Y-159751000D03*
X216614000Y-159751000D03*
X217264000Y-159751000D03*
X217914000Y-159751000D03*
X218564000Y-159751000D03*
X219214000Y-159751000D03*
X212714000Y-160401000D03*
X213364000Y-160401000D03*
X214014000Y-160401000D03*
X214664000Y-160401000D03*
X215314000Y-160401000D03*
X215964000Y-160401000D03*
X216614000Y-160401000D03*
X217264000Y-160401000D03*
X217914000Y-160401000D03*
X218564000Y-160401000D03*
X219214000Y-160401000D03*
X212714000Y-161051000D03*
X213364000Y-161051000D03*
X214014000Y-161051000D03*
X214664000Y-161051000D03*
X215314000Y-161051000D03*
X215964000Y-161051000D03*
X216614000Y-161051000D03*
X217264000Y-161051000D03*
X217914000Y-161051000D03*
X218564000Y-161051000D03*
X219214000Y-161051000D03*
X212714000Y-161701000D03*
X213364000Y-161701000D03*
X214014000Y-161701000D03*
X214664000Y-161701000D03*
X215314000Y-161701000D03*
X215964000Y-161701000D03*
X216614000Y-161701000D03*
X217264000Y-161701000D03*
X217914000Y-161701000D03*
X218564000Y-161701000D03*
X219214000Y-161701000D03*
X212714000Y-162351000D03*
X213364000Y-162351000D03*
X214014000Y-162351000D03*
X214664000Y-162351000D03*
X215314000Y-162351000D03*
X215964000Y-162351000D03*
X216614000Y-162351000D03*
X217264000Y-162351000D03*
X217914000Y-162351000D03*
X218564000Y-162351000D03*
X219214000Y-162351000D03*
X212714000Y-163001000D03*
X213364000Y-163001000D03*
X214014000Y-163001000D03*
X214664000Y-163001000D03*
X215314000Y-163001000D03*
X215964000Y-163001000D03*
X216614000Y-163001000D03*
X217264000Y-163001000D03*
X217914000Y-163001000D03*
X218564000Y-163001000D03*
X219214000Y-163001000D03*
X212714000Y-163651000D03*
X213364000Y-163651000D03*
X214014000Y-163651000D03*
X214664000Y-163651000D03*
X215314000Y-163651000D03*
X215964000Y-163651000D03*
X216614000Y-163651000D03*
X217264000Y-163651000D03*
X217914000Y-163651000D03*
X218564000Y-163651000D03*
X219214000Y-163651000D03*
%TD*%
M02*
