G04 (created by PCBNEW (2013-07-07 BZR 4022)-stable) date 4/22/2014 12:16:29 PM*
%MOIN*%
G04 Gerber Fmt 3.4, Leading zero omitted, Abs format*
%FSLAX34Y34*%
G01*
G70*
G90*
G04 APERTURE LIST*
%ADD10C,0.00590551*%
%ADD11C,0.00393701*%
%ADD12R,0.056X0.056*%
%ADD13C,0.056*%
%ADD14R,0.0629921X0.0629921*%
%ADD15C,0.0629921*%
%ADD16C,0.063*%
%ADD17R,0.0740157X0.0740157*%
%ADD18C,0.0740157*%
%ADD19R,0.393701X0.393701*%
%ADD20C,0.0688976*%
%ADD21R,0.0688976X0.0688976*%
%ADD22C,0.0570866*%
%ADD23C,0.0826772*%
%ADD24R,0.0472441X0.0472441*%
%ADD25C,0.0472441*%
%ADD26C,0.006*%
%ADD27C,0.012*%
G04 APERTURE END LIST*
G54D10*
G54D11*
X7500Y-13900D02*
X7500Y-30800D01*
X64900Y-30800D02*
X64900Y-13900D01*
X7500Y-13900D02*
X64900Y-13900D01*
X64900Y-30800D02*
X7500Y-30800D01*
G54D12*
X18500Y-23650D03*
G54D13*
X18500Y-20650D03*
G54D12*
X25500Y-28600D03*
G54D13*
X25500Y-25600D03*
G54D12*
X25500Y-23665D03*
G54D13*
X25500Y-20665D03*
G54D12*
X24500Y-28600D03*
G54D13*
X24500Y-25600D03*
G54D12*
X18500Y-28600D03*
G54D13*
X18500Y-25600D03*
G54D12*
X19500Y-23650D03*
G54D13*
X19500Y-20650D03*
G54D12*
X19500Y-28600D03*
G54D13*
X19500Y-25600D03*
G54D12*
X20500Y-23650D03*
G54D13*
X20500Y-20650D03*
G54D12*
X20500Y-28600D03*
G54D13*
X20500Y-25600D03*
G54D12*
X21500Y-23683D03*
G54D13*
X21500Y-20683D03*
G54D12*
X21500Y-28600D03*
G54D13*
X21500Y-25600D03*
G54D12*
X22500Y-23670D03*
G54D13*
X22500Y-20670D03*
G54D12*
X22500Y-28600D03*
G54D13*
X22500Y-25600D03*
G54D12*
X24500Y-23676D03*
G54D13*
X24500Y-20676D03*
G54D12*
X23500Y-28600D03*
G54D13*
X23500Y-25600D03*
G54D12*
X23500Y-23667D03*
G54D13*
X23500Y-20667D03*
G54D14*
X32992Y-20640D03*
G54D15*
X32992Y-21640D03*
X32992Y-22640D03*
X32992Y-23640D03*
X32992Y-24640D03*
X32992Y-25640D03*
X32992Y-26640D03*
X32992Y-27640D03*
X32992Y-28640D03*
G54D16*
X34600Y-22141D03*
X34600Y-26141D03*
X36267Y-17610D03*
X36267Y-15610D03*
X37517Y-17610D03*
X37517Y-15610D03*
X38767Y-17610D03*
X38767Y-15610D03*
X40016Y-17610D03*
X40016Y-15610D03*
X41266Y-17610D03*
X41266Y-15610D03*
X43766Y-17610D03*
X43766Y-15610D03*
X45016Y-17610D03*
X45016Y-15610D03*
X42516Y-17610D03*
X42516Y-15610D03*
G54D17*
X15059Y-29800D03*
G54D18*
X16618Y-29800D03*
X18177Y-29800D03*
X19736Y-29800D03*
X21295Y-29800D03*
X22854Y-29800D03*
X24413Y-29800D03*
X25972Y-29800D03*
X27531Y-29800D03*
G54D17*
X29090Y-29800D03*
X30649Y-29800D03*
G54D18*
X32208Y-29800D03*
X33767Y-29800D03*
X35326Y-29800D03*
X36885Y-29800D03*
X38444Y-29800D03*
X40003Y-29800D03*
X41562Y-29800D03*
X43122Y-29800D03*
X44681Y-29800D03*
X46240Y-29800D03*
X47799Y-29800D03*
X49358Y-29800D03*
X50917Y-29800D03*
X52476Y-29800D03*
X54035Y-29800D03*
X55594Y-29800D03*
G54D17*
X13500Y-29800D03*
X57153Y-29800D03*
X58712Y-29800D03*
X15059Y-19500D03*
G54D18*
X16618Y-19500D03*
X18177Y-19500D03*
X19736Y-19500D03*
X21295Y-19500D03*
X22854Y-19500D03*
X24413Y-19500D03*
X25972Y-19500D03*
X27531Y-19500D03*
G54D17*
X29090Y-19500D03*
X30649Y-19500D03*
G54D18*
X32208Y-19500D03*
X33767Y-19500D03*
X35326Y-19500D03*
X36885Y-19500D03*
X38444Y-19500D03*
X40003Y-19500D03*
X41562Y-19500D03*
X43122Y-19500D03*
X44681Y-19500D03*
X46240Y-19500D03*
X47799Y-19500D03*
X49358Y-19500D03*
X50917Y-19500D03*
X52476Y-19500D03*
X54035Y-19500D03*
X55594Y-19500D03*
G54D17*
X13500Y-19500D03*
X57153Y-19500D03*
X58712Y-19500D03*
G54D19*
X10500Y-19500D03*
X61877Y-19500D03*
G54D14*
X16630Y-28070D03*
G54D15*
X16630Y-27070D03*
X16630Y-26070D03*
X16630Y-25070D03*
X16630Y-24070D03*
X16630Y-23070D03*
X16630Y-22070D03*
X13630Y-22070D03*
X13630Y-23070D03*
X13630Y-24070D03*
X13630Y-25070D03*
X13630Y-26070D03*
X13630Y-27070D03*
X13630Y-28070D03*
G54D14*
X28490Y-17850D03*
G54D15*
X29490Y-17850D03*
X30490Y-17850D03*
X31490Y-17850D03*
X32490Y-17850D03*
X33490Y-17850D03*
X34490Y-17850D03*
X34490Y-14850D03*
X33490Y-14850D03*
X32490Y-14850D03*
X31490Y-14850D03*
X30490Y-14850D03*
X29490Y-14850D03*
X28490Y-14850D03*
G54D14*
X26223Y-14850D03*
G54D15*
X25223Y-14850D03*
X24223Y-14850D03*
X23223Y-14850D03*
X22223Y-14850D03*
X21223Y-14850D03*
X20223Y-14850D03*
X20223Y-17850D03*
X21223Y-17850D03*
X22223Y-17850D03*
X23223Y-17850D03*
X24223Y-17850D03*
X25223Y-17850D03*
X26223Y-17850D03*
G54D14*
X27153Y-21580D03*
G54D15*
X27153Y-22580D03*
X27153Y-23580D03*
X27153Y-24580D03*
X27153Y-25580D03*
X27153Y-26580D03*
X27153Y-27580D03*
X30153Y-27580D03*
X30153Y-26580D03*
X30153Y-25580D03*
X30153Y-24580D03*
X30153Y-23580D03*
X30153Y-22580D03*
X30153Y-21580D03*
G54D20*
X56111Y-20819D03*
X55111Y-20819D03*
X54111Y-20819D03*
X53111Y-20819D03*
X52111Y-20819D03*
X51111Y-20819D03*
X50111Y-20819D03*
X49111Y-20819D03*
X48111Y-20819D03*
X47111Y-20819D03*
X46111Y-20819D03*
X45111Y-20819D03*
X44111Y-20819D03*
X43111Y-20819D03*
X42111Y-20819D03*
X41111Y-20819D03*
X40111Y-20819D03*
X39111Y-20819D03*
X38111Y-20819D03*
X37111Y-20819D03*
X37111Y-26819D03*
X38111Y-26819D03*
X39111Y-26819D03*
X40111Y-26819D03*
X41111Y-26819D03*
X42111Y-26819D03*
X43111Y-26819D03*
X44111Y-26819D03*
X45111Y-26819D03*
X46111Y-26819D03*
X47111Y-26819D03*
X48111Y-26819D03*
X49111Y-26819D03*
X50111Y-26819D03*
X51111Y-26819D03*
X52111Y-26819D03*
X53111Y-26819D03*
X54111Y-26819D03*
X55111Y-26819D03*
G54D21*
X56111Y-26819D03*
X37111Y-22819D03*
G54D20*
X37111Y-23819D03*
X37111Y-24819D03*
G54D22*
X31250Y-24048D03*
X31250Y-21095D03*
X31250Y-25785D03*
X31250Y-28737D03*
X26400Y-25609D03*
X26400Y-28561D03*
X26400Y-23876D03*
X26400Y-20923D03*
X12719Y-25883D03*
X12719Y-28836D03*
X16752Y-20495D03*
X13800Y-20495D03*
X17600Y-24126D03*
X17600Y-21173D03*
X17600Y-25592D03*
X17600Y-28545D03*
G54D23*
X58129Y-17539D03*
X58129Y-14980D03*
X56358Y-17539D03*
X56358Y-14980D03*
G54D24*
X46309Y-17700D03*
G54D25*
X46900Y-17700D03*
G54D26*
X16630Y-25070D02*
X27153Y-24580D01*
X29309Y-14415D02*
X28490Y-14850D01*
X31266Y-14264D02*
X29309Y-14415D01*
X31713Y-14264D02*
X31266Y-14264D01*
X34713Y-14264D02*
X31713Y-14264D01*
X45240Y-15025D02*
X34713Y-14264D01*
X55797Y-19009D02*
X45240Y-15025D01*
X56084Y-19296D02*
X55797Y-19009D01*
X56111Y-20819D02*
X56084Y-19296D01*
X34670Y-18285D02*
X36267Y-17610D01*
X34309Y-18285D02*
X34670Y-18285D01*
X34116Y-18281D02*
X34309Y-18285D01*
X32311Y-18281D02*
X34116Y-18281D01*
X32058Y-18028D02*
X32311Y-18281D01*
X31925Y-17669D02*
X32058Y-18028D01*
X31670Y-17415D02*
X31925Y-17669D01*
X25859Y-15285D02*
X31670Y-17415D01*
X25223Y-14850D02*
X25859Y-15285D01*
X36447Y-18045D02*
X37517Y-17610D01*
X34713Y-18435D02*
X36447Y-18045D01*
X34266Y-18435D02*
X34713Y-18435D01*
X34087Y-18427D02*
X34266Y-18435D01*
X32268Y-18427D02*
X34087Y-18427D01*
X31309Y-18285D02*
X32268Y-18427D01*
X31055Y-18030D02*
X31309Y-18285D01*
X30925Y-17669D02*
X31055Y-18030D01*
X30670Y-17415D02*
X30925Y-17669D01*
X25043Y-15285D02*
X30670Y-17415D01*
X24223Y-14850D02*
X25043Y-15285D01*
X37857Y-18308D02*
X38767Y-17610D01*
X37770Y-18345D02*
X37857Y-18308D01*
X34802Y-18885D02*
X37770Y-18345D01*
X34177Y-18885D02*
X34802Y-18885D01*
X34000Y-18867D02*
X34177Y-18885D01*
X32180Y-18867D02*
X34000Y-18867D01*
X27837Y-18499D02*
X32180Y-18867D01*
X23043Y-18285D02*
X27837Y-18499D01*
X22788Y-18030D02*
X23043Y-18285D01*
X22658Y-17669D02*
X22788Y-18030D01*
X22403Y-17415D02*
X22658Y-17669D01*
X22043Y-17415D02*
X22403Y-17415D01*
X21223Y-17850D02*
X22043Y-17415D01*
X22967Y-18421D02*
X22223Y-17850D01*
X23000Y-18435D02*
X22967Y-18421D01*
X27807Y-18649D02*
X23000Y-18435D01*
X32151Y-19013D02*
X27807Y-18649D01*
X33969Y-19013D02*
X32151Y-19013D01*
X34147Y-19035D02*
X33969Y-19013D01*
X34832Y-19035D02*
X34147Y-19035D01*
X37799Y-18495D02*
X34832Y-19035D01*
X38947Y-18045D02*
X37799Y-18495D01*
X40016Y-17610D02*
X38947Y-18045D01*
X40197Y-17175D02*
X41266Y-17610D01*
X38947Y-17175D02*
X40197Y-17175D01*
X38586Y-17175D02*
X38947Y-17175D01*
X38332Y-17430D02*
X38586Y-17175D01*
X38088Y-17866D02*
X38332Y-17430D01*
X37772Y-18181D02*
X38088Y-17866D01*
X37740Y-18195D02*
X37772Y-18181D01*
X34772Y-18735D02*
X37740Y-18195D01*
X34207Y-18735D02*
X34772Y-18735D01*
X34029Y-18720D02*
X34207Y-18735D01*
X32210Y-18720D02*
X34029Y-18720D01*
X31237Y-18585D02*
X32210Y-18720D01*
X30309Y-18285D02*
X31237Y-18585D01*
X29490Y-17850D02*
X30309Y-18285D01*
X41447Y-17175D02*
X42516Y-17610D01*
X40240Y-17025D02*
X41447Y-17175D01*
X38990Y-17025D02*
X40240Y-17025D01*
X38543Y-17025D02*
X38990Y-17025D01*
X38511Y-17038D02*
X38543Y-17025D01*
X38195Y-17354D02*
X38511Y-17038D01*
X37952Y-17790D02*
X38195Y-17354D01*
X37697Y-18045D02*
X37952Y-17790D01*
X34743Y-18585D02*
X37697Y-18045D01*
X34237Y-18585D02*
X34743Y-18585D01*
X34058Y-18574D02*
X34237Y-18585D01*
X32239Y-18574D02*
X34058Y-18574D01*
X31266Y-18435D02*
X32239Y-18574D01*
X31234Y-18421D02*
X31266Y-18435D01*
X30490Y-17850D02*
X31234Y-18421D01*
X43947Y-17175D02*
X45016Y-17610D01*
X37336Y-16045D02*
X43947Y-17175D01*
X36447Y-15175D02*
X37336Y-16045D01*
X36086Y-15175D02*
X36447Y-15175D01*
X34670Y-15285D02*
X36086Y-15175D01*
X34309Y-15285D02*
X34670Y-15285D01*
X33309Y-15285D02*
X34309Y-15285D01*
X32490Y-14850D02*
X33309Y-15285D01*
X22223Y-14850D02*
X24223Y-17850D01*
X31309Y-14415D02*
X30490Y-14850D01*
X31670Y-14415D02*
X31309Y-14415D01*
X34670Y-14415D02*
X31670Y-14415D01*
X45197Y-15175D02*
X34670Y-14415D01*
X51120Y-19009D02*
X45197Y-15175D01*
X51407Y-19296D02*
X51120Y-19009D01*
X52111Y-20819D02*
X51407Y-19296D01*
X16618Y-19500D02*
X18500Y-20650D01*
X18177Y-19500D02*
X19500Y-20650D01*
X19736Y-19500D02*
X20500Y-20650D01*
X16808Y-22498D02*
X20500Y-20650D01*
X16410Y-22498D02*
X16808Y-22498D01*
X16382Y-22510D02*
X16410Y-22498D01*
X13630Y-24070D02*
X16382Y-22510D01*
X21295Y-19500D02*
X21500Y-20683D01*
X21250Y-28440D02*
X21500Y-28600D01*
X21220Y-28440D02*
X21250Y-28440D01*
X21170Y-28440D02*
X21220Y-28440D01*
X20829Y-28199D02*
X21170Y-28440D01*
X16450Y-27505D02*
X20829Y-28199D01*
X13630Y-26070D02*
X16450Y-27505D01*
X22854Y-19500D02*
X22500Y-20670D01*
X24413Y-19500D02*
X23500Y-20667D01*
X23750Y-28440D02*
X23500Y-28600D01*
X23780Y-28440D02*
X23750Y-28440D01*
X23829Y-28440D02*
X23780Y-28440D01*
X27153Y-25580D02*
X23829Y-28440D01*
X25972Y-19500D02*
X24500Y-20676D01*
X24750Y-28440D02*
X24500Y-28600D01*
X24780Y-28440D02*
X24750Y-28440D01*
X24829Y-28440D02*
X24780Y-28440D01*
X25170Y-28199D02*
X24829Y-28440D01*
X26972Y-27145D02*
X25170Y-28199D01*
X27333Y-27015D02*
X26972Y-27145D01*
X30153Y-25580D02*
X27333Y-27015D01*
X27531Y-19500D02*
X25500Y-20665D01*
X16630Y-27070D02*
X17600Y-25592D01*
X31082Y-21501D02*
X32992Y-21640D01*
X30333Y-21145D02*
X31082Y-21501D01*
X26887Y-21145D02*
X30333Y-21145D01*
X26788Y-21145D02*
X26887Y-21145D01*
X26567Y-21329D02*
X26788Y-21145D01*
X16851Y-22642D02*
X26567Y-21329D01*
X16453Y-22642D02*
X16851Y-22642D01*
X16202Y-22893D02*
X16453Y-22642D01*
X16195Y-23890D02*
X16202Y-22893D01*
X16195Y-24890D02*
X16195Y-23890D01*
X16195Y-25250D02*
X16195Y-24890D01*
X16450Y-25505D02*
X16195Y-25250D01*
X17600Y-25592D02*
X16450Y-25505D01*
X18099Y-23320D02*
X17600Y-24126D01*
X18170Y-23249D02*
X18099Y-23320D01*
X26972Y-22145D02*
X18170Y-23249D01*
X27333Y-22145D02*
X26972Y-22145D01*
X30333Y-22145D02*
X27333Y-22145D01*
X32992Y-22640D02*
X30333Y-22145D01*
X16630Y-23070D02*
X17600Y-24126D01*
X33427Y-22820D02*
X32992Y-23640D01*
X33427Y-22460D02*
X33427Y-22820D01*
X33427Y-21460D02*
X33427Y-22460D01*
X33172Y-21205D02*
X33427Y-21460D01*
X32627Y-21075D02*
X33172Y-21205D01*
X31417Y-20690D02*
X32627Y-21075D01*
X28670Y-19990D02*
X31417Y-20690D01*
X28600Y-19919D02*
X28670Y-19990D01*
X28021Y-19296D02*
X28600Y-19919D01*
X27734Y-19009D02*
X28021Y-19296D01*
X16821Y-19009D02*
X27734Y-19009D01*
X16415Y-19009D02*
X16821Y-19009D01*
X16127Y-19296D02*
X16415Y-19009D01*
X16127Y-19703D02*
X16127Y-19296D01*
X16752Y-20495D02*
X16127Y-19703D01*
X34781Y-25706D02*
X32992Y-24640D01*
X35035Y-25960D02*
X34781Y-25706D01*
X35035Y-26321D02*
X35035Y-25960D01*
X34781Y-26576D02*
X35035Y-26321D01*
X33172Y-28075D02*
X34781Y-26576D01*
X31082Y-28332D02*
X33172Y-28075D01*
X26567Y-28967D02*
X31082Y-28332D01*
X25829Y-29000D02*
X26567Y-28967D01*
X25730Y-29000D02*
X25829Y-29000D01*
X18170Y-29000D02*
X25730Y-29000D01*
X17432Y-28951D02*
X18170Y-29000D01*
X16266Y-28505D02*
X17432Y-28951D01*
X13630Y-27070D02*
X16266Y-28505D01*
X26400Y-23876D02*
X27153Y-22580D01*
X30333Y-24145D02*
X32992Y-25640D01*
X26972Y-24015D02*
X30333Y-24145D01*
X26400Y-23876D02*
X26972Y-24015D01*
X31417Y-25379D02*
X32992Y-26640D01*
X30330Y-25152D02*
X31417Y-25379D01*
X29975Y-25152D02*
X30330Y-25152D01*
X27153Y-26580D02*
X29975Y-25152D01*
X30153Y-26580D02*
X31250Y-25785D01*
X31250Y-25785D02*
X32992Y-27640D01*
X30153Y-22580D02*
X31250Y-24048D01*
X24750Y-23671D02*
X24500Y-23676D01*
X24780Y-23671D02*
X24750Y-23671D01*
X25220Y-23671D02*
X24780Y-23671D01*
X25250Y-23671D02*
X25220Y-23671D01*
X25500Y-23665D02*
X25250Y-23671D01*
X18750Y-23650D02*
X18500Y-23650D01*
X18780Y-23650D02*
X18750Y-23650D01*
X19220Y-23650D02*
X18780Y-23650D01*
X19250Y-23650D02*
X19220Y-23650D01*
X19500Y-23650D02*
X19250Y-23650D01*
X19750Y-23650D02*
X19500Y-23650D01*
X19780Y-23650D02*
X19750Y-23650D01*
X20220Y-23650D02*
X19780Y-23650D01*
X20250Y-23650D02*
X20220Y-23650D01*
X20500Y-23650D02*
X20250Y-23650D01*
X20750Y-23666D02*
X20500Y-23650D01*
X20780Y-23666D02*
X20750Y-23666D01*
X21220Y-23666D02*
X20780Y-23666D01*
X21250Y-23666D02*
X21220Y-23666D01*
X21500Y-23683D02*
X21250Y-23666D01*
X21750Y-23677D02*
X21500Y-23683D01*
X21780Y-23677D02*
X21750Y-23677D01*
X22220Y-23677D02*
X21780Y-23677D01*
X22250Y-23677D02*
X22220Y-23677D01*
X22500Y-23670D02*
X22250Y-23677D01*
X23750Y-23671D02*
X23500Y-23667D01*
X23780Y-23671D02*
X23750Y-23671D01*
X24220Y-23671D02*
X23780Y-23671D01*
X24250Y-23671D02*
X24220Y-23671D01*
X24500Y-23676D02*
X24250Y-23671D01*
X22750Y-23668D02*
X22500Y-23670D01*
X22780Y-23668D02*
X22750Y-23668D01*
X23220Y-23668D02*
X22780Y-23668D01*
X23250Y-23668D02*
X23220Y-23668D01*
X23500Y-23667D02*
X23250Y-23668D01*
X34165Y-22321D02*
X37111Y-26819D01*
X33427Y-20275D02*
X34165Y-22321D01*
X33356Y-20205D02*
X33427Y-20275D01*
X32208Y-19500D02*
X33356Y-20205D01*
X36646Y-25012D02*
X38111Y-26819D01*
X33767Y-19500D02*
X36646Y-25012D01*
X47646Y-20627D02*
X47111Y-26819D01*
X47799Y-19500D02*
X47646Y-20627D01*
X48646Y-20627D02*
X48111Y-26819D01*
X49358Y-19500D02*
X48646Y-20627D01*
X50575Y-21012D02*
X49111Y-26819D01*
X50646Y-20627D02*
X50575Y-21012D01*
X50917Y-19500D02*
X50646Y-20627D01*
X52575Y-21012D02*
X50111Y-26819D01*
X52575Y-20627D02*
X52575Y-21012D01*
X52476Y-19500D02*
X52575Y-20627D01*
X53575Y-21012D02*
X51111Y-26819D01*
X53646Y-20627D02*
X53575Y-21012D01*
X54035Y-19500D02*
X53646Y-20627D01*
X55575Y-21012D02*
X52111Y-26819D01*
X55594Y-19500D02*
X55575Y-21012D01*
X37575Y-22425D02*
X39111Y-26819D01*
X35326Y-19500D02*
X37575Y-22425D01*
X37646Y-21012D02*
X40111Y-26819D01*
X37575Y-20627D02*
X37646Y-21012D01*
X36885Y-19500D02*
X37575Y-20627D01*
X38646Y-21012D02*
X41111Y-26819D01*
X38444Y-19500D02*
X38646Y-21012D01*
X40646Y-21012D02*
X42111Y-26819D01*
X40575Y-20627D02*
X40646Y-21012D01*
X40003Y-19500D02*
X40575Y-20627D01*
X41646Y-21012D02*
X43111Y-26819D01*
X41562Y-19500D02*
X41646Y-21012D01*
X42646Y-21012D02*
X44111Y-26819D01*
X42646Y-20627D02*
X42646Y-21012D01*
X43122Y-19500D02*
X42646Y-20627D01*
X44646Y-21012D02*
X45111Y-26819D01*
X44646Y-20627D02*
X44646Y-21012D01*
X44681Y-19500D02*
X44646Y-20627D01*
X45646Y-21012D02*
X46111Y-26819D01*
X45646Y-20627D02*
X45646Y-21012D01*
X46240Y-19500D02*
X45646Y-20627D01*
G54D27*
X36267Y-15610D02*
X34490Y-17850D01*
X41266Y-15610D02*
X40016Y-15610D01*
X56305Y-27104D02*
X56111Y-26819D01*
X56305Y-27164D02*
X56305Y-27104D01*
X56305Y-27226D02*
X56305Y-27164D01*
X56933Y-29367D02*
X56305Y-27226D01*
X56933Y-29429D02*
X56933Y-29367D01*
X56933Y-29489D02*
X56933Y-29429D01*
X57153Y-29800D02*
X56933Y-29489D01*
X57463Y-29800D02*
X57153Y-29800D01*
X57523Y-29800D02*
X57463Y-29800D01*
X58342Y-29800D02*
X57523Y-29800D01*
X58402Y-29800D02*
X58342Y-29800D01*
X58712Y-29800D02*
X58402Y-29800D01*
X30339Y-19500D02*
X30649Y-19500D01*
X30279Y-19500D02*
X30339Y-19500D01*
X29460Y-19500D02*
X30279Y-19500D01*
X29400Y-19500D02*
X29460Y-19500D01*
X29090Y-19500D02*
X29400Y-19500D01*
X32737Y-20475D02*
X32992Y-20640D01*
X32677Y-20475D02*
X32737Y-20475D01*
X32615Y-20475D02*
X32677Y-20475D01*
X30957Y-20020D02*
X32615Y-20475D01*
X30869Y-19932D02*
X30957Y-20020D01*
X30869Y-19870D02*
X30869Y-19932D01*
X30869Y-19810D02*
X30869Y-19870D01*
X30649Y-19500D02*
X30869Y-19810D01*
X14748Y-19500D02*
X15059Y-19500D01*
X14688Y-19500D02*
X14748Y-19500D01*
X13870Y-19500D02*
X14688Y-19500D01*
X13810Y-19500D02*
X13870Y-19500D01*
X13500Y-19500D02*
X13810Y-19500D01*
X56305Y-26535D02*
X56111Y-26819D01*
X56305Y-26475D02*
X56305Y-26535D01*
X56305Y-26413D02*
X56305Y-26475D01*
X56933Y-19932D02*
X56305Y-26413D01*
X56933Y-19870D02*
X56933Y-19932D01*
X56933Y-19810D02*
X56933Y-19870D01*
X57153Y-19500D02*
X56933Y-19810D01*
X57463Y-19500D02*
X57153Y-19500D01*
X57523Y-19500D02*
X57463Y-19500D01*
X58342Y-19500D02*
X57523Y-19500D01*
X58402Y-19500D02*
X58342Y-19500D01*
X58712Y-19500D02*
X58402Y-19500D01*
X13189Y-19500D02*
X13500Y-19500D01*
X13129Y-19500D02*
X13189Y-19500D01*
X10500Y-19500D02*
X13129Y-19500D01*
X13165Y-24263D02*
X13630Y-25070D01*
X10500Y-19500D02*
X13165Y-24263D01*
X59022Y-19500D02*
X58712Y-19500D01*
X59082Y-19500D02*
X59022Y-19500D01*
X61877Y-19500D02*
X59082Y-19500D01*
X13279Y-29489D02*
X13500Y-29800D01*
X13279Y-29429D02*
X13279Y-29489D01*
X13279Y-29367D02*
X13279Y-29429D01*
X13165Y-28263D02*
X13279Y-29367D01*
X13165Y-27877D02*
X13165Y-28263D01*
X13165Y-25877D02*
X13165Y-27877D01*
X13630Y-25070D02*
X13165Y-25877D01*
X28780Y-19279D02*
X29090Y-19500D01*
X28720Y-19279D02*
X28780Y-19279D01*
X28658Y-19279D02*
X28720Y-19279D01*
X27835Y-18856D02*
X28658Y-19279D01*
X27771Y-18829D02*
X27835Y-18856D01*
X22964Y-18615D02*
X27771Y-18829D01*
X21031Y-18315D02*
X22964Y-18615D01*
X20758Y-18042D02*
X21031Y-18315D01*
X20223Y-14850D02*
X20758Y-18042D01*
X15369Y-19279D02*
X15059Y-19500D01*
X15429Y-19279D02*
X15369Y-19279D01*
X15491Y-19279D02*
X15429Y-19279D01*
X20223Y-14850D02*
X15491Y-19279D01*
G54D26*
X24500Y-25600D02*
X25500Y-25600D01*
X18500Y-25600D02*
X19500Y-25600D01*
X19500Y-25600D02*
X20500Y-25600D01*
X20500Y-25600D02*
X21500Y-25600D01*
X21500Y-25600D02*
X22500Y-25600D01*
X22500Y-25600D02*
X23500Y-25600D01*
X23500Y-25600D02*
X24500Y-25600D01*
X26232Y-25203D02*
X25500Y-25600D01*
X26972Y-25145D02*
X26232Y-25203D01*
X29932Y-25008D02*
X26972Y-25145D01*
X30373Y-25008D02*
X29932Y-25008D01*
X31467Y-25229D02*
X30373Y-25008D01*
X31489Y-25238D02*
X31467Y-25229D01*
X32811Y-26075D02*
X31489Y-25238D01*
X34600Y-26141D02*
X32811Y-26075D01*
X17600Y-21173D02*
X16630Y-22070D01*
X26400Y-28561D02*
X27153Y-27580D01*
M02*
