M48
INCH,TZ
T1C0.022
T2C0.024
T3C0.024
T4C0.028
T5C0.031
T6C0.039
T7C0.177
%
G90
G05
T1
X12720Y-25884
X12720Y-28836
X13800Y-20496
X16753Y-20496
X17600Y-21173
X17600Y-24126
X17600Y-25593
X17600Y-28546
X26400Y-20924
X26400Y-23876
X26400Y-25609
X26400Y-28562
X31250Y-21096
X31250Y-24049
X31250Y-25785
X31250Y-28738
T2
X46309Y-17700
X46900Y-17700
T3
X18500Y-20650
X18500Y-23650
X18500Y-25600
X18500Y-28600
X19500Y-20650
X19500Y-23650
X19500Y-25600
X19500Y-28600
X20500Y-20650
X20500Y-23650
X20500Y-25600
X20500Y-28600
X21500Y-20684
X21500Y-23684
X21500Y-25600
X21500Y-28600
X22500Y-20671
X22500Y-23671
X22500Y-25600
X22500Y-28600
X23500Y-20667
X23500Y-23667
X23500Y-25600
X23500Y-28600
X24500Y-20676
X24500Y-23676
X24500Y-25600
X24500Y-28600
X25500Y-20666
X25500Y-23666
X25500Y-25600
X25500Y-28600
T4
X34601Y-22141
X34601Y-26141
X36267Y-15610
X36267Y-17610
X37517Y-15610
X37517Y-17610
X38767Y-15610
X38767Y-17610
X40017Y-15610
X40017Y-17610
X41267Y-15610
X41267Y-17610
X42517Y-15610
X42517Y-17610
X43767Y-15610
X43767Y-17610
X45017Y-15610
X45017Y-17610
T5
X13631Y-22071
X13631Y-23071
X13631Y-24071
X13631Y-25071
X13631Y-26071
X13631Y-27071
X13631Y-28071
X16631Y-22071
X16631Y-23071
X16631Y-24071
X16631Y-25071
X16631Y-26071
X16631Y-27071
X16631Y-28071
X20224Y-14850
X20224Y-17850
X21224Y-14850
X21224Y-17850
X22224Y-14850
X22224Y-17850
X23224Y-14850
X23224Y-17850
X24224Y-14850
X24224Y-17850
X25224Y-14850
X25224Y-17850
X26224Y-14850
X26224Y-17850
X27153Y-21580
X27153Y-22580
X27153Y-23580
X27153Y-24580
X27153Y-25580
X27153Y-26580
X27153Y-27580
X28490Y-14850
X28490Y-17850
X29490Y-14850
X29490Y-17850
X30153Y-21580
X30153Y-22580
X30153Y-23580
X30153Y-24580
X30153Y-25580
X30153Y-26580
X30153Y-27580
X30490Y-14850
X30490Y-17850
X31490Y-14850
X31490Y-17850
X32490Y-14850
X32490Y-17850
X32992Y-20640
X32992Y-21640
X32992Y-22640
X32992Y-23640
X32992Y-24640
X32992Y-25640
X32992Y-26640
X32992Y-27640
X32992Y-28640
X33490Y-14850
X33490Y-17850
X34490Y-14850
X34490Y-17850
T6
X13500Y-19500
X13500Y-29800
X15059Y-19500
X15059Y-29800
X16618Y-19500
X16618Y-29800
X18177Y-19500
X18177Y-29800
X19736Y-19500
X19736Y-29800
X21295Y-19500
X21295Y-29800
X22854Y-19500
X22854Y-29800
X24413Y-19500
X24413Y-29800
X25972Y-19500
X25972Y-29800
X27531Y-19500
X27531Y-29800
X29091Y-19500
X29091Y-29800
X30650Y-19500
X30650Y-29800
X32209Y-19500
X32209Y-29800
X33768Y-19500
X33768Y-29800
X35327Y-19500
X35327Y-29800
X36886Y-19500
X36886Y-29800
X37111Y-20820
X37111Y-22820
X37111Y-23820
X37111Y-24820
X37111Y-26820
X38111Y-20820
X38111Y-26820
X38445Y-19500
X38445Y-29800
X39111Y-20820
X39111Y-26820
X40004Y-19500
X40004Y-29800
X40111Y-20820
X40111Y-26820
X41111Y-20820
X41111Y-26820
X41563Y-19500
X41563Y-29800
X42111Y-20820
X42111Y-26820
X43111Y-20820
X43111Y-26820
X43122Y-19500
X43122Y-29800
X44111Y-20820
X44111Y-26820
X44681Y-19500
X44681Y-29800
X45111Y-20820
X45111Y-26820
X46111Y-20820
X46111Y-26820
X46240Y-19500
X46240Y-29800
X47111Y-20820
X47111Y-26820
X47799Y-19500
X47799Y-29800
X48111Y-20820
X48111Y-26820
X49111Y-20820
X49111Y-26820
X49358Y-19500
X49358Y-29800
X50111Y-20820
X50111Y-26820
X50917Y-19500
X50917Y-29800
X51111Y-20820
X51111Y-26820
X52111Y-20820
X52111Y-26820
X52476Y-19500
X52476Y-29800
X53111Y-20820
X53111Y-26820
X54035Y-19500
X54035Y-29800
X54111Y-20820
X54111Y-26820
X55111Y-20820
X55111Y-26820
X55594Y-19500
X55594Y-29800
X56111Y-20820
X56111Y-26820
X56358Y-14980
X56358Y-17539
X57154Y-19500
X57154Y-29800
X58130Y-14980
X58130Y-17539
X58713Y-19500
X58713Y-29800
T7
X10500Y-19500
X61878Y-19500
T0
M30
