G04 (created by PCBNEW (2013-07-07 BZR 4022)-stable) date 4/22/2014 12:16:29 PM*
%MOIN*%
G04 Gerber Fmt 3.4, Leading zero omitted, Abs format*
%FSLAX34Y34*%
G01*
G70*
G90*
G04 APERTURE LIST*
%ADD10C,0.00590551*%
%ADD11C,0.00393701*%
%ADD12C,0.015*%
%ADD13C,0.009*%
G04 APERTURE END LIST*
G54D10*
G54D11*
X7500Y-13900D02*
X7500Y-30800D01*
X64900Y-30800D02*
X64900Y-13900D01*
X7500Y-13900D02*
X64900Y-13900D01*
X64900Y-30800D02*
X7500Y-30800D01*
G54D12*
X36611Y-22319D02*
X37611Y-22319D01*
X37611Y-22319D02*
X37611Y-25319D01*
X37611Y-25319D02*
X36611Y-25319D01*
X56611Y-22819D02*
X54111Y-22819D01*
X54111Y-22819D02*
X54111Y-24819D01*
X54111Y-24819D02*
X56611Y-24819D01*
X36611Y-26319D02*
X56611Y-26319D01*
X56611Y-21319D02*
X36611Y-21319D01*
X56611Y-20319D02*
X36611Y-20319D01*
X36611Y-20319D02*
X36611Y-27319D01*
X36611Y-27319D02*
X56611Y-27319D01*
X56611Y-27319D02*
X56611Y-20319D01*
G54D13*
X52357Y-25770D02*
X52357Y-26062D01*
X52340Y-26096D01*
X52323Y-26113D01*
X52289Y-26130D01*
X52220Y-26130D01*
X52186Y-26113D01*
X52169Y-26096D01*
X52151Y-26062D01*
X52151Y-25770D01*
X51911Y-25770D02*
X51877Y-25770D01*
X51843Y-25787D01*
X51826Y-25804D01*
X51809Y-25839D01*
X51791Y-25907D01*
X51791Y-25993D01*
X51809Y-26062D01*
X51826Y-26096D01*
X51843Y-26113D01*
X51877Y-26130D01*
X51911Y-26130D01*
X51946Y-26113D01*
X51963Y-26096D01*
X51980Y-26062D01*
X51997Y-25993D01*
X51997Y-25907D01*
X51980Y-25839D01*
X51963Y-25804D01*
X51946Y-25787D01*
X51911Y-25770D01*
X56353Y-25509D02*
X56147Y-25509D01*
X56250Y-26109D02*
X56250Y-25509D01*
X56027Y-25795D02*
X55907Y-25795D01*
X55856Y-26109D02*
X56027Y-26109D01*
X56027Y-25509D01*
X55856Y-25509D01*
X55702Y-25795D02*
X55582Y-25795D01*
X55530Y-26109D02*
X55702Y-26109D01*
X55702Y-25509D01*
X55530Y-25509D01*
X55376Y-26109D02*
X55376Y-25509D01*
X55170Y-26109D01*
X55170Y-25509D01*
X55016Y-26081D02*
X54965Y-26109D01*
X54879Y-26109D01*
X54845Y-26081D01*
X54827Y-26052D01*
X54810Y-25995D01*
X54810Y-25938D01*
X54827Y-25881D01*
X54845Y-25852D01*
X54879Y-25824D01*
X54947Y-25795D01*
X54982Y-25766D01*
X54999Y-25738D01*
X55016Y-25681D01*
X55016Y-25624D01*
X54999Y-25566D01*
X54982Y-25538D01*
X54947Y-25509D01*
X54862Y-25509D01*
X54810Y-25538D01*
X54587Y-25824D02*
X54587Y-26109D01*
X54707Y-25509D02*
X54587Y-25824D01*
X54467Y-25509D01*
X54347Y-26109D02*
X54347Y-25509D01*
X54210Y-25509D01*
X54176Y-25538D01*
X54159Y-25566D01*
X54142Y-25624D01*
X54142Y-25709D01*
X54159Y-25766D01*
X54176Y-25795D01*
X54210Y-25824D01*
X54347Y-25824D01*
X53987Y-26109D02*
X53987Y-25509D01*
X53850Y-25509D01*
X53816Y-25538D01*
X53799Y-25566D01*
X53782Y-25624D01*
X53782Y-25709D01*
X53799Y-25766D01*
X53816Y-25795D01*
X53850Y-25824D01*
X53987Y-25824D01*
X53645Y-25566D02*
X53627Y-25538D01*
X53593Y-25509D01*
X53507Y-25509D01*
X53473Y-25538D01*
X53456Y-25566D01*
X53439Y-25624D01*
X53439Y-25681D01*
X53456Y-25766D01*
X53662Y-26109D01*
X53439Y-26109D01*
M02*
