G04 #@! TF.FileFunction,Paste,Top*
%FSLAX46Y46*%
G04 Gerber Fmt 4.6, Leading zero omitted, Abs format (unit mm)*
G04 Created by KiCad (PCBNEW (2016-03-18 BZR 6629, Git 60d93d0)-product) date 7/17/2016 1:37:33 PM*
%MOMM*%
G01*
G04 APERTURE LIST*
%ADD10C,0.150000*%
%ADD11C,0.650000*%
%ADD12R,0.300000X1.100000*%
%ADD13O,1.800000X3.500000*%
%ADD14R,0.700000X1.800000*%
%ADD15R,1.640000X2.200000*%
%ADD16R,0.600000X0.650000*%
G04 APERTURE END LIST*
D10*
D11*
X107899000Y-48586400D02*
X107899000Y-48286400D01*
X104699000Y-48586400D02*
X104699000Y-48286400D01*
X106699000Y-49386400D02*
X106849000Y-49386400D01*
X105899000Y-49386400D02*
X105749000Y-49386400D01*
X104949000Y-49386400D02*
X104699000Y-49386400D01*
X107649000Y-49386400D02*
X107899000Y-49386400D01*
X109099000Y-49386400D02*
X108699000Y-49386400D01*
X103499000Y-49386400D02*
X103899000Y-49386400D01*
X112899000Y-50436400D02*
X112899000Y-48286400D01*
X110749000Y-50436400D02*
X112899000Y-50436400D01*
X110749000Y-48286400D02*
X110749000Y-50436400D01*
X112899000Y-48286400D02*
X110749000Y-48286400D01*
X112299000Y-50386400D02*
X112299000Y-48286400D01*
X111699000Y-50436400D02*
X111699000Y-48286400D01*
X111199000Y-50436400D02*
X111199000Y-48286400D01*
X100149000Y-50436400D02*
X100149000Y-48286400D01*
X100649000Y-50436400D02*
X100649000Y-48286400D01*
X101249000Y-50386400D02*
X101249000Y-48286400D01*
X101849000Y-48286400D02*
X99699000Y-48286400D01*
X99699000Y-48286400D02*
X99699000Y-50436400D01*
X99699000Y-50436400D02*
X101849000Y-50436400D01*
X101849000Y-50436400D02*
X101849000Y-48286400D01*
X100249000Y-45936400D02*
X100249000Y-43686400D01*
X99699000Y-43686400D02*
X99699000Y-45936400D01*
X112349000Y-43686400D02*
X112349000Y-45936400D01*
X112899000Y-45936400D02*
X112899000Y-43686400D01*
X113499000Y-45936400D02*
X113499000Y-43686400D01*
X111749000Y-45936400D02*
X113499000Y-45936400D01*
X111749000Y-43686400D02*
X111749000Y-45936400D01*
X113499000Y-43686400D02*
X111749000Y-43686400D01*
X100849000Y-43686400D02*
X99099000Y-43686400D01*
X99099000Y-43686400D02*
X99099000Y-45936400D01*
X99099000Y-45936400D02*
X100849000Y-45936400D01*
X100849000Y-45936400D02*
X100849000Y-43686400D01*
X109099000Y-48436400D02*
X108699000Y-48436400D01*
X107099000Y-48436400D02*
X106699000Y-48436400D01*
X105899000Y-48436400D02*
X105499000Y-48436400D01*
X103899000Y-48436400D02*
X103499000Y-48436400D01*
X103899000Y-48586400D02*
X103899000Y-48436400D01*
X105499000Y-48586400D02*
X105499000Y-48436400D01*
X107099000Y-48586400D02*
X107099000Y-48436400D01*
X108699000Y-48586400D02*
X108699000Y-48436400D01*
X103499000Y-49386400D02*
X103499000Y-49556400D01*
X104949000Y-49386400D02*
X104949000Y-49556400D01*
X105899000Y-49386400D02*
X105899000Y-49556400D01*
X106699000Y-49386400D02*
X106699000Y-49556400D01*
X107649000Y-49386400D02*
X107649000Y-49556400D01*
X109099000Y-49386400D02*
X109099000Y-49556400D01*
D12*
X109049000Y-50596400D03*
X108549000Y-50596400D03*
X108049000Y-50596400D03*
X107549000Y-50596400D03*
X107049000Y-50596400D03*
X106549000Y-50596400D03*
X106049000Y-50596400D03*
X105549000Y-50596400D03*
X105049000Y-50596400D03*
X104549000Y-50596400D03*
X104049000Y-50596400D03*
X103549000Y-50596400D03*
D13*
X74015000Y-53958000D03*
X89815000Y-53958000D03*
D14*
X81915000Y-54858000D03*
X80915000Y-54858000D03*
X79915000Y-54858000D03*
X78915000Y-54858000D03*
X77915000Y-54858000D03*
X82915000Y-54858000D03*
X83915000Y-54858000D03*
X84915000Y-54858000D03*
X85915000Y-54858000D03*
D15*
X74245000Y-49958000D03*
X89585000Y-49958000D03*
D16*
X104513000Y-53848000D03*
X103513000Y-53848000D03*
X107831000Y-53848000D03*
X108831000Y-53848000D03*
M02*
