M48
INCH,TZ
T1C0.033
T2C0.039
T3C0.067
T4C0.093
T5C0.157
%
G90
G05
T1
X62480Y-22053
X78307Y-22053
T2
X42250Y-59900
X45250Y-59500
X45250Y-60300
T3
X11848Y-57250
X15017Y-64047
X15474Y-55560
X18187Y-70845
X18643Y-62357
X18645Y-54081
X21813Y-69155
X22271Y-52391
X24367Y-61619
X26057Y-65245
X26500Y-25630
X28500Y-33004
X28500Y-37004
X28500Y-44254
X28500Y-48254
X30500Y-25630
X31164Y-58449
X32854Y-62074
X34000Y-25630
X34000Y-33129
X34000Y-40629
X34000Y-48129
X38000Y-25630
X38000Y-33129
X38000Y-40629
X38000Y-48129
X41500Y-25129
X41500Y-32629
X41500Y-40129
X41500Y-47629
X41500Y-55129
X45500Y-25129
X45500Y-32629
X45500Y-40129
X45500Y-47629
X45500Y-55129
X49000Y-24500
X49000Y-32000
X49000Y-39500
X49000Y-47000
X49000Y-54500
X53000Y-24500
X53000Y-32000
X53000Y-39500
X53000Y-47000
X53000Y-54500
X56500Y-25129
X56500Y-32629
X56500Y-40129
X56500Y-47629
X56500Y-55129
X60500Y-25129
X60500Y-32629
X60500Y-40129
X60500Y-47629
X60500Y-55129
X64000Y-26380
X64000Y-33879
X64000Y-41379
X64000Y-48879
X64000Y-56379
X68000Y-26380
X68000Y-33879
X68000Y-41379
X68000Y-48879
X68000Y-56379
X71500Y-56379
X73375Y-26380
X73375Y-33879
X73375Y-41379
X73375Y-48879
X75500Y-56379
X77375Y-26380
X77375Y-33879
X77375Y-41379
X77375Y-48879
T4
X42250Y-58900
X42250Y-60900
X44500Y-58900
X44500Y-60900
T5
X13661Y-56405
X16830Y-63202
X20000Y-70000
X20458Y-53236
X25212Y-63432
X28500Y-25630
X28500Y-35004
X28500Y-46254
X32009Y-60262
X36000Y-25630
X36000Y-33129
X36000Y-40629
X36000Y-48129
X43500Y-25129
X43500Y-32629
X43500Y-40129
X43500Y-47629
X43500Y-55129
X51000Y-24500
X51000Y-32000
X51000Y-39500
X51000Y-47000
X51000Y-54500
X58500Y-25129
X58500Y-32629
X58500Y-40129
X58500Y-47629
X58500Y-55129
X66000Y-26380
X66000Y-33879
X66000Y-41379
X66000Y-48879
X66000Y-56379
X73500Y-56379
X75375Y-26380
X75375Y-33879
X75375Y-41379
X75375Y-48879
T0
M30
