G04 #@! TF.FileFunction,Paste,Bot*
%FSLAX46Y46*%
G04 Gerber Fmt 4.6, Leading zero omitted, Abs format (unit mm)*
G04 Created by KiCad (PCBNEW (2015-07-17 BZR 5958)-product) date 8/7/2015 1:36:20 AM*
%MOMM*%
G01*
G04 APERTURE LIST*
%ADD10C,0.150000*%
%ADD11R,0.300000X1.500000*%
%ADD12R,1.500000X0.300000*%
%ADD13R,1.200000X1.400000*%
%ADD14R,0.650000X0.600000*%
%ADD15R,0.600000X0.650000*%
%ADD16R,1.430000X0.400000*%
%ADD17R,0.797560X0.797560*%
%ADD18R,1.800000X1.100000*%
%ADD19R,0.950000X1.900000*%
%ADD20R,3.250000X1.900000*%
%ADD21R,1.000760X0.850900*%
%ADD22R,0.850900X1.000760*%
G04 APERTURE END LIST*
D10*
D11*
X76267000Y-142910000D03*
X75767000Y-142910000D03*
X75267000Y-142910000D03*
X74767000Y-142910000D03*
X74267000Y-142910000D03*
X73767000Y-142910000D03*
X73267000Y-142910000D03*
X72767000Y-142910000D03*
X72267000Y-142910000D03*
X71767000Y-142910000D03*
X71267000Y-142910000D03*
X70767000Y-142910000D03*
X70267000Y-142910000D03*
X69767000Y-142910000D03*
X69267000Y-142910000D03*
X68767000Y-142910000D03*
D12*
X66767000Y-140910000D03*
X66767000Y-140410000D03*
X66767000Y-139910000D03*
X66767000Y-139410000D03*
X66767000Y-138910000D03*
X66767000Y-138410000D03*
X66767000Y-137910000D03*
X66767000Y-137410000D03*
X66767000Y-136910000D03*
X66767000Y-136410000D03*
X66767000Y-135910000D03*
X66767000Y-135410000D03*
X66767000Y-134910000D03*
X66767000Y-134410000D03*
X66767000Y-133910000D03*
X66767000Y-133410000D03*
D11*
X68767000Y-131410000D03*
X69267000Y-131410000D03*
X69767000Y-131410000D03*
X70267000Y-131410000D03*
X70767000Y-131410000D03*
X71267000Y-131410000D03*
X71767000Y-131410000D03*
X72267000Y-131410000D03*
X72767000Y-131410000D03*
X73267000Y-131410000D03*
X73767000Y-131410000D03*
X74267000Y-131410000D03*
X74767000Y-131410000D03*
X75267000Y-131410000D03*
X75767000Y-131410000D03*
X76267000Y-131410000D03*
D12*
X78267000Y-133410000D03*
X78267000Y-133910000D03*
X78267000Y-134410000D03*
X78267000Y-134910000D03*
X78267000Y-135410000D03*
X78267000Y-135910000D03*
X78267000Y-136410000D03*
X78267000Y-136910000D03*
X78267000Y-137410000D03*
X78267000Y-137910000D03*
X78267000Y-138410000D03*
X78267000Y-138910000D03*
X78267000Y-139410000D03*
X78267000Y-139910000D03*
X78267000Y-140410000D03*
X78267000Y-140910000D03*
D13*
X66078000Y-127424000D03*
X64478000Y-127424000D03*
X64478000Y-129624000D03*
X66078000Y-129624000D03*
D14*
X62357000Y-143518000D03*
X62357000Y-144518000D03*
X164465000Y-57412000D03*
X164465000Y-58412000D03*
X194657000Y-57412000D03*
X194657000Y-58412000D03*
X196100000Y-57412000D03*
X196100000Y-58412000D03*
D15*
X178554000Y-57912000D03*
X177554000Y-57912000D03*
X178554000Y-65278000D03*
X177554000Y-65278000D03*
X175633000Y-57912000D03*
X174633000Y-57912000D03*
X178554000Y-64008000D03*
X177554000Y-64008000D03*
X178554000Y-62738000D03*
X177554000Y-62738000D03*
X178554000Y-61468000D03*
X177554000Y-61468000D03*
X178554000Y-60198000D03*
X177554000Y-60198000D03*
D14*
X64389000Y-134358000D03*
X64389000Y-133358000D03*
D15*
X102481000Y-135382000D03*
X101481000Y-135382000D03*
D14*
X69215000Y-127754000D03*
X69215000Y-126754000D03*
D15*
X75557000Y-145161000D03*
X74557000Y-145161000D03*
D14*
X77597000Y-80002000D03*
X77597000Y-79002000D03*
D15*
X76573000Y-128524000D03*
X75573000Y-128524000D03*
D14*
X68453000Y-80002000D03*
X68453000Y-79002000D03*
X64897000Y-143518000D03*
X64897000Y-144518000D03*
D15*
X87257000Y-138176000D03*
X88257000Y-138176000D03*
X88527000Y-136779000D03*
X89527000Y-136779000D03*
X102481000Y-131826000D03*
X101481000Y-131826000D03*
D14*
X90297000Y-143264000D03*
X90297000Y-144264000D03*
X89281000Y-140454000D03*
X89281000Y-139454000D03*
D15*
X102481000Y-133858000D03*
X101481000Y-133858000D03*
D14*
X62357000Y-133088000D03*
X62357000Y-132088000D03*
D15*
X101481000Y-136906000D03*
X102481000Y-136906000D03*
D16*
X99172000Y-132935000D03*
X99172000Y-133585000D03*
X99172000Y-134235000D03*
X99172000Y-134885000D03*
X99172000Y-135535000D03*
X99172000Y-136185000D03*
X99172000Y-136835000D03*
X99172000Y-137485000D03*
X99172000Y-138135000D03*
X99172000Y-138785000D03*
X99172000Y-139435000D03*
X99172000Y-140085000D03*
X99172000Y-140735000D03*
X99172000Y-141385000D03*
X91582000Y-141385000D03*
X91582000Y-140735000D03*
X91582000Y-140085000D03*
X91582000Y-139435000D03*
X91582000Y-138785000D03*
X91582000Y-138135000D03*
X91582000Y-137485000D03*
X91582000Y-136835000D03*
X91582000Y-136185000D03*
X91582000Y-135535000D03*
X91582000Y-134885000D03*
X91582000Y-134235000D03*
X91582000Y-133585000D03*
X91582000Y-132935000D03*
D17*
X62212500Y-135669700D03*
X62212500Y-137168300D03*
D15*
X180475000Y-57912000D03*
X181475000Y-57912000D03*
D18*
X68401000Y-104847000D03*
X68401000Y-101147000D03*
X74601000Y-104847000D03*
X74601000Y-101147000D03*
D19*
X73025000Y-80012000D03*
X70725000Y-80012000D03*
X75325000Y-80012000D03*
D20*
X73025000Y-73912000D03*
D10*
G36*
X80756510Y-157222739D02*
X80396904Y-156451562D01*
X81303900Y-156028623D01*
X81663506Y-156799800D01*
X80756510Y-157222739D01*
X80756510Y-157222739D01*
G37*
G36*
X83928696Y-155743524D02*
X83569090Y-154972347D01*
X84476086Y-154549408D01*
X84835692Y-155320585D01*
X83928696Y-155743524D01*
X83928696Y-155743524D01*
G37*
D21*
X70637400Y-120596000D03*
X74137520Y-120596000D03*
D22*
X88328500Y-120495400D03*
X88328500Y-123995520D03*
X107378000Y-119225400D03*
X107378000Y-122725520D03*
X126428000Y-117627400D03*
X126428000Y-121127520D03*
X145478000Y-119225400D03*
X145478000Y-122725520D03*
X164528000Y-122400400D03*
X164528000Y-125900520D03*
X188340000Y-122400400D03*
X188340000Y-125900520D03*
D10*
G36*
X38591061Y-159986910D02*
X39362238Y-159627304D01*
X39785177Y-160534300D01*
X39014000Y-160893906D01*
X38591061Y-159986910D01*
X38591061Y-159986910D01*
G37*
G36*
X40070276Y-163159096D02*
X40841453Y-162799490D01*
X41264392Y-163706486D01*
X40493215Y-164066092D01*
X40070276Y-163159096D01*
X40070276Y-163159096D01*
G37*
G36*
X46642861Y-177253910D02*
X47414038Y-176894304D01*
X47836977Y-177801300D01*
X47065800Y-178160906D01*
X46642861Y-177253910D01*
X46642861Y-177253910D01*
G37*
G36*
X48122076Y-180426096D02*
X48893253Y-180066490D01*
X49316192Y-180973486D01*
X48545015Y-181333092D01*
X48122076Y-180426096D01*
X48122076Y-180426096D01*
G37*
G36*
X63492110Y-165274739D02*
X63132504Y-164503562D01*
X64039500Y-164080623D01*
X64399106Y-164851800D01*
X63492110Y-165274739D01*
X63492110Y-165274739D01*
G37*
G36*
X66664296Y-163795524D02*
X66304690Y-163024347D01*
X67211686Y-162601408D01*
X67571292Y-163372585D01*
X66664296Y-163795524D01*
X66664296Y-163795524D01*
G37*
D22*
X69278500Y-63347600D03*
X69278500Y-66847720D03*
X107378000Y-138275400D03*
X107378000Y-141775520D03*
X126428000Y-136677400D03*
X126428000Y-140177520D03*
X145478000Y-138275400D03*
X145478000Y-141775520D03*
X164528000Y-141450400D03*
X164528000Y-144950520D03*
X183578000Y-141450400D03*
X183578000Y-144950520D03*
X126428000Y-79527400D03*
X126428000Y-83027520D03*
X145478000Y-62075100D03*
X145478000Y-65575220D03*
X126428000Y-60477400D03*
X126428000Y-63977520D03*
X107378000Y-62075100D03*
X107378000Y-65575220D03*
X88328500Y-63347600D03*
X88328500Y-66847720D03*
D10*
G36*
X47806161Y-134670910D02*
X48577338Y-134311304D01*
X49000277Y-135218300D01*
X48229100Y-135577906D01*
X47806161Y-134670910D01*
X47806161Y-134670910D01*
G37*
G36*
X49285376Y-137843096D02*
X50056553Y-137483490D01*
X50479492Y-138390486D01*
X49708315Y-138750092D01*
X49285376Y-137843096D01*
X49285376Y-137843096D01*
G37*
D22*
X164528000Y-65252600D03*
X164528000Y-68752720D03*
X188340000Y-65252600D03*
X188340000Y-68752720D03*
D21*
X70637400Y-92021700D03*
X74137520Y-92021700D03*
D22*
X88328500Y-82395100D03*
X88328500Y-85895220D03*
X107378000Y-81125100D03*
X107378000Y-84625220D03*
X145478000Y-81125100D03*
X145478000Y-84625220D03*
X164528000Y-84300100D03*
X164528000Y-87800220D03*
X188340000Y-84300100D03*
X188340000Y-87800220D03*
X88328500Y-101445400D03*
X88328500Y-104945520D03*
X107378000Y-100175400D03*
X107378000Y-103675520D03*
X126428000Y-98577400D03*
X126428000Y-102077520D03*
X145478000Y-100175400D03*
X145478000Y-103675520D03*
X164528000Y-103350400D03*
X164528000Y-106850520D03*
X188340000Y-103350400D03*
X188340000Y-106850520D03*
D10*
G36*
X30541761Y-142722910D02*
X31312938Y-142363304D01*
X31735877Y-143270300D01*
X30964700Y-143629906D01*
X30541761Y-142722910D01*
X30541761Y-142722910D01*
G37*
G36*
X32020976Y-145895096D02*
X32792153Y-145535490D01*
X33215092Y-146442486D01*
X32443915Y-146802092D01*
X32020976Y-145895096D01*
X32020976Y-145895096D01*
G37*
M02*
