M48
INCH,TZ
T1C0.012
T2C0.018
T3C0.024
T4C0.028
T5C0.031
T6C0.035
T7C0.039
T8C0.059
%
G90
G05
T1
X20792Y-67717
X24767Y-52957
X24986Y-53576
X25099Y-59794
X25707Y-65662
X25781Y-53275
X25781Y-54848
X25904Y-52270
X26015Y-46784
X26334Y-49475
X26799Y-52730
X27078Y-52911
X27562Y-36863
X27914Y-52470
X27932Y-53674
X27972Y-50922
X28098Y-51228
X28423Y-51245
X28459Y-48973
X28829Y-51061
X28869Y-57148
X29476Y-49466
X29485Y-55778
X29690Y-52391
X29846Y-25085
X29850Y-35097
X29925Y-50290
X30049Y-51194
X30292Y-54208
X30308Y-54540
X30309Y-53577
X30866Y-31409
X30950Y-63475
X31178Y-22140
X31290Y-55308
X31429Y-46476
X31461Y-49109
X31692Y-47008
X31785Y-54389
X32349Y-49354
X32411Y-48843
X32439Y-64214
X32580Y-52357
X33433Y-46689
X33500Y-22250
X33668Y-46404
X33833Y-51469
X33987Y-59000
X34032Y-54840
X34120Y-46153
X34186Y-52606
X34251Y-55087
X34293Y-52925
X34590Y-52044
X34756Y-53513
X35000Y-52713
X35334Y-51864
X35335Y-54229
X35438Y-52793
X35587Y-53486
X36393Y-64009
X36413Y-63680
X36527Y-52669
X36572Y-53887
X36767Y-45423
X37029Y-54113
X37041Y-52081
X37392Y-52382
X37688Y-32167
X37777Y-52724
X37838Y-52404
X37981Y-32005
X38051Y-52167
X39426Y-62075
X39515Y-52555
X39708Y-52998
X40862Y-62329
X40865Y-56114
X40959Y-25695
X41169Y-61843
X41534Y-61362
X41834Y-59525
X42818Y-19244
X43739Y-18879
X43850Y-59200
X43908Y-31716
X44919Y-46906
X45070Y-59904
X50380Y-50846
X51411Y-38431
X52117Y-39728
X58401Y-31268
X59117Y-23600
X66076Y-47353
X66147Y-45336
X76277Y-24881
T4
X65669Y-22053
X66260Y-22053
X66850Y-22053
X67441Y-22053
X68031Y-22053
X68622Y-22053
X69213Y-22053
X69803Y-22053
X70394Y-22053
X70984Y-22053
X71575Y-22053
X72165Y-22053
X72756Y-22053
X73346Y-22053
X73937Y-22053
X74528Y-22053
X75118Y-22053
T5
X12363Y-54805
X13269Y-54382
X15532Y-61601
X16438Y-61179
X18702Y-68399
X19160Y-51635
X19608Y-67977
X20066Y-51213
X23189Y-63825
X23611Y-64731
X26500Y-34504
X26500Y-35504
X26500Y-45754
X26500Y-46754
X28000Y-23630
X29000Y-23630
X29985Y-60653
X30407Y-61559
X35500Y-23630
X35500Y-31129
X35500Y-38629
X35500Y-46129
X36500Y-23630
X36500Y-31129
X36500Y-38629
X36500Y-46129
X43000Y-23129
X43000Y-30629
X43000Y-38129
X43000Y-45629
X43000Y-53129
X44000Y-23129
X44000Y-30629
X44000Y-38129
X44000Y-45629
X44000Y-53129
X50500Y-22500
X50500Y-30000
X50500Y-37500
X50500Y-45000
X50500Y-52500
X51500Y-22500
X51500Y-30000
X51500Y-37500
X51500Y-45000
X51500Y-52500
X58000Y-23129
X58000Y-30629
X58000Y-38129
X58000Y-45629
X58000Y-53129
X59000Y-23129
X59000Y-30629
X59000Y-38129
X59000Y-45629
X59000Y-53129
X65500Y-24380
X65500Y-31879
X65500Y-39379
X65500Y-46879
X65500Y-54379
X66500Y-24380
X66500Y-31879
X66500Y-39379
X66500Y-46879
X66500Y-54379
X73000Y-54379
X74000Y-54379
X74875Y-24380
X74875Y-31879
X74875Y-39379
X74875Y-46879
X75875Y-24380
X75875Y-31879
X75875Y-39379
X75875Y-46879
T7
X26900Y-69281
X27806Y-68858
X28712Y-68436
X29618Y-68013
X30525Y-67590
X31431Y-67168
X32337Y-66745
X33244Y-66323
X34150Y-65900
X35056Y-65477
X35963Y-65055
X36869Y-64632
X37775Y-64210
X38682Y-63787
X39588Y-63364
X40494Y-62942
X41400Y-62519
T2
X39733Y-17519G85X39733Y-17223
G05
X44674Y-17538G85X44674Y-17204
G05
T3
X29140Y-21558G85X29140Y-20928
G05
X35360Y-21558G85X35360Y-20928
G05
T6
X63366Y-21285G85X63799Y-21285
G05
X64547Y-21285G85X64980Y-21285
G05
X75807Y-21285G85X76240Y-21285
G05
X76988Y-21285G85X77421Y-21285
G05
T8
X13600Y-58640G85X13518Y-58427
G05
X15397Y-57333G85X15443Y-56677
G05
X16769Y-65437G85X16687Y-65224
G05
X18566Y-64130G85X18612Y-63474
G05
X19939Y-72235G85X19857Y-72022
G05
X20397Y-55471G85X20315Y-55258
G05
X21736Y-70928G85X21782Y-70272
G05
X22194Y-54164G85X22240Y-53508
G05
X26140Y-61696G85X25484Y-61650
G05
X27447Y-63493G85X27234Y-63575
G05
X27500Y-27630G85X27516Y-27402
G05
X30075Y-33823G85X29500Y-33504
G05
X30075Y-45073G85X29500Y-44754
G05
X29681Y-27205G85X30000Y-26630
G05
X30500Y-36004G85X30272Y-35988
G05
X30500Y-47254G85X30272Y-47238
G05
X32937Y-58526G85X32281Y-58480
G05
X34244Y-60323G85X34031Y-60405
G05
X35000Y-27630G85X35016Y-27402
G05
X35000Y-35129G85X35016Y-34901
G05
X35000Y-42629G85X35016Y-42401
G05
X35000Y-50129G85X35016Y-49901
G05
X37181Y-27205G85X37500Y-26630
G05
X37181Y-34704G85X37500Y-34129
G05
X37181Y-42204G85X37500Y-41629
G05
X37181Y-49704G85X37500Y-49129
G05
X42500Y-27129G85X42516Y-26901
G05
X42500Y-34629G85X42516Y-34401
G05
X42500Y-42129G85X42516Y-41901
G05
X42500Y-49629G85X42516Y-49401
G05
X42500Y-57129G85X42516Y-56901
G05
X44681Y-26704G85X45000Y-26129
G05
X44681Y-34204G85X45000Y-33629
G05
X44681Y-41704G85X45000Y-41129
G05
X44681Y-49204G85X45000Y-48629
G05
X44681Y-56704G85X45000Y-56129
G05
X50000Y-26500G85X50016Y-26272
G05
X50000Y-34000G85X50016Y-33772
G05
X50000Y-41500G85X50016Y-41272
G05
X50000Y-49000G85X50016Y-48772
G05
X50000Y-56500G85X50016Y-56272
G05
X52181Y-26075G85X52500Y-25500
G05
X52181Y-33575G85X52500Y-33000
G05
X52181Y-41075G85X52500Y-40500
G05
X52181Y-48575G85X52500Y-48000
G05
X52181Y-56075G85X52500Y-55500
G05
X57500Y-27129G85X57516Y-26901
G05
X57500Y-34629G85X57516Y-34401
G05
X57500Y-42129G85X57516Y-41901
G05
X57500Y-49629G85X57516Y-49401
G05
X57500Y-57129G85X57516Y-56901
G05
X59681Y-26704G85X60000Y-26129
G05
X59681Y-34204G85X60000Y-33629
G05
X59681Y-41704G85X60000Y-41129
G05
X59681Y-49204G85X60000Y-48629
G05
X59681Y-56704G85X60000Y-56129
G05
X65000Y-28380G85X65016Y-28152
G05
X65000Y-35879G85X65016Y-35651
G05
X65000Y-43379G85X65016Y-43151
G05
X65000Y-50879G85X65016Y-50651
G05
X65000Y-58379G85X65016Y-58151
G05
X67181Y-27955G85X67500Y-27380
G05
X67181Y-35454G85X67500Y-34879
G05
X67181Y-42954G85X67500Y-42379
G05
X67181Y-50454G85X67500Y-49879
G05
X67181Y-57954G85X67500Y-57379
G05
X72500Y-58379G85X72516Y-58151
G05
X74375Y-28380G85X74390Y-28152
G05
X74375Y-35879G85X74390Y-35651
G05
X74375Y-43379G85X74390Y-43151
G05
X74375Y-50879G85X74390Y-50651
G05
X74681Y-57954G85X75000Y-57379
G05
X76556Y-27955G85X76875Y-27380
G05
X76556Y-35454G85X76875Y-34879
G05
X76556Y-42954G85X76875Y-42379
G05
X76556Y-50454G85X76875Y-49879
G05
T0
M30
