G04 #@! TF.FileFunction,Profile,NP*
%FSLAX46Y46*%
G04 Gerber Fmt 4.6, Leading zero omitted, Abs format (unit mm)*
G04 Created by KiCad (PCBNEW (2015-07-17 BZR 5958)-product) date 8/7/2015 1:36:20 AM*
%MOMM*%
G01*
G04 APERTURE LIST*
%ADD10C,0.150000*%
%ADD11C,0.127000*%
G04 APERTURE END LIST*
D10*
D11*
X64135000Y-53340000D02*
X72517000Y-44958000D01*
X64135000Y-121666000D02*
X62484000Y-121666000D01*
X64135000Y-53340000D02*
X64135000Y-121666000D01*
X199644000Y-46863000D02*
X197739000Y-44958000D01*
X199644000Y-149606000D02*
X196342000Y-152908000D01*
X199644000Y-46863000D02*
X199644000Y-149606000D01*
X24257000Y-139700000D02*
X24384000Y-139446000D01*
X47244000Y-188214000D02*
X46863000Y-188214000D01*
X24257000Y-139700000D02*
X46863000Y-188214000D01*
X127127000Y-152908000D02*
X122936000Y-152908000D01*
X47244000Y-188214000D02*
X122936000Y-152908000D01*
X24384000Y-139446000D02*
X62484000Y-121666000D01*
X127127000Y-152908000D02*
X196342000Y-152908000D01*
X152400000Y-44958000D02*
X197739000Y-44958000D01*
X152400000Y-50038000D02*
X152400000Y-44958000D01*
X114300000Y-50038000D02*
X152400000Y-50038000D01*
X114300000Y-42672000D02*
X114300000Y-50038000D01*
X100076000Y-42672000D02*
X114300000Y-42672000D01*
X100076000Y-44958000D02*
X100076000Y-42672000D01*
X88646000Y-44958000D02*
X100076000Y-44958000D01*
X88646000Y-53467000D02*
X88646000Y-44958000D01*
X75184000Y-53467000D02*
X88646000Y-53467000D01*
X75184000Y-44958000D02*
X75184000Y-53467000D01*
X72517000Y-44958000D02*
X75184000Y-44958000D01*
M02*
