G04 #@! TF.FileFunction,Legend,Top*
%FSLAX46Y46*%
G04 Gerber Fmt 4.6, Leading zero omitted, Abs format (unit mm)*
G04 Created by KiCad (PCBNEW (2016-03-18 BZR 6629, Git 60d93d0)-product) date 7/17/2016 1:37:34 PM*
%MOMM*%
G01*
G04 APERTURE LIST*
%ADD10C,0.150000*%
%ADD11C,0.200000*%
%ADD12C,0.127000*%
G04 APERTURE END LIST*
D10*
D11*
X105413286Y-52879257D02*
X105413286Y-51679257D01*
X105870429Y-51679257D01*
X105984715Y-51736400D01*
X106041858Y-51793543D01*
X106099001Y-51907829D01*
X106099001Y-52079257D01*
X106041858Y-52193543D01*
X105984715Y-52250686D01*
X105870429Y-52307829D01*
X105413286Y-52307829D01*
X106556143Y-51793543D02*
X106613286Y-51736400D01*
X106727572Y-51679257D01*
X107013286Y-51679257D01*
X107127572Y-51736400D01*
X107184715Y-51793543D01*
X107241858Y-51907829D01*
X107241858Y-52022114D01*
X107184715Y-52193543D01*
X106499001Y-52879257D01*
X107241858Y-52879257D01*
X81176905Y-57856381D02*
X81176905Y-56856381D01*
X81557858Y-56856381D01*
X81653096Y-56904000D01*
X81700715Y-56951619D01*
X81748334Y-57046857D01*
X81748334Y-57189714D01*
X81700715Y-57284952D01*
X81653096Y-57332571D01*
X81557858Y-57380190D01*
X81176905Y-57380190D01*
X82605477Y-57189714D02*
X82605477Y-57856381D01*
X82367381Y-56808762D02*
X82129286Y-57523048D01*
X82748334Y-57523048D01*
X154535334Y-50490381D02*
X154059143Y-50490381D01*
X154059143Y-49490381D01*
X155440096Y-50395143D02*
X155392477Y-50442762D01*
X155249620Y-50490381D01*
X155154382Y-50490381D01*
X155011524Y-50442762D01*
X154916286Y-50347524D01*
X154868667Y-50252286D01*
X154821048Y-50061810D01*
X154821048Y-49918952D01*
X154868667Y-49728476D01*
X154916286Y-49633238D01*
X155011524Y-49538000D01*
X155154382Y-49490381D01*
X155249620Y-49490381D01*
X155392477Y-49538000D01*
X155440096Y-49585619D01*
X155868667Y-50490381D02*
X155868667Y-49490381D01*
X156106762Y-49490381D01*
X156249620Y-49538000D01*
X156344858Y-49633238D01*
X156392477Y-49728476D01*
X156440096Y-49918952D01*
X156440096Y-50061810D01*
X156392477Y-50252286D01*
X156344858Y-50347524D01*
X156249620Y-50442762D01*
X156106762Y-50490381D01*
X155868667Y-50490381D01*
X157392477Y-50490381D02*
X156821048Y-50490381D01*
X157106762Y-50490381D02*
X157106762Y-49490381D01*
X157011524Y-49633238D01*
X156916286Y-49728476D01*
X156821048Y-49776095D01*
X43505572Y-151226571D02*
X43172238Y-151226571D01*
X43172238Y-151750381D02*
X43172238Y-150750381D01*
X43648429Y-150750381D01*
X44029381Y-151750381D02*
X44029381Y-150750381D01*
X44505571Y-151750381D02*
X44505571Y-150750381D01*
X44743666Y-150750381D01*
X44886524Y-150798000D01*
X44981762Y-150893238D01*
X45029381Y-150988476D01*
X45077000Y-151178952D01*
X45077000Y-151321810D01*
X45029381Y-151512286D01*
X44981762Y-151607524D01*
X44886524Y-151702762D01*
X44743666Y-151750381D01*
X44505571Y-151750381D01*
X45934143Y-150750381D02*
X45743666Y-150750381D01*
X45648428Y-150798000D01*
X45600809Y-150845619D01*
X45505571Y-150988476D01*
X45457952Y-151178952D01*
X45457952Y-151559905D01*
X45505571Y-151655143D01*
X45553190Y-151702762D01*
X45648428Y-151750381D01*
X45838905Y-151750381D01*
X45934143Y-151702762D01*
X45981762Y-151655143D01*
X46029381Y-151559905D01*
X46029381Y-151321810D01*
X45981762Y-151226571D01*
X45934143Y-151178952D01*
X45838905Y-151131333D01*
X45648428Y-151131333D01*
X45553190Y-151178952D01*
X45505571Y-151226571D01*
X45457952Y-151321810D01*
X178125572Y-118206571D02*
X177792238Y-118206571D01*
X177792238Y-118730381D02*
X177792238Y-117730381D01*
X178268429Y-117730381D01*
X178649381Y-118730381D02*
X178649381Y-117730381D01*
X179125571Y-118730381D02*
X179125571Y-117730381D01*
X179363666Y-117730381D01*
X179506524Y-117778000D01*
X179601762Y-117873238D01*
X179649381Y-117968476D01*
X179697000Y-118158952D01*
X179697000Y-118301810D01*
X179649381Y-118492286D01*
X179601762Y-118587524D01*
X179506524Y-118682762D01*
X179363666Y-118730381D01*
X179125571Y-118730381D01*
X180554143Y-118063714D02*
X180554143Y-118730381D01*
X180316047Y-117682762D02*
X180077952Y-118397048D01*
X180697000Y-118397048D01*
X68905572Y-57246571D02*
X68572238Y-57246571D01*
X68572238Y-57770381D02*
X68572238Y-56770381D01*
X69048429Y-56770381D01*
X69429381Y-57770381D02*
X69429381Y-56770381D01*
X69905571Y-57770381D02*
X69905571Y-56770381D01*
X70143666Y-56770381D01*
X70286524Y-56818000D01*
X70381762Y-56913238D01*
X70429381Y-57008476D01*
X70477000Y-57198952D01*
X70477000Y-57341810D01*
X70429381Y-57532286D01*
X70381762Y-57627524D01*
X70286524Y-57722762D01*
X70143666Y-57770381D01*
X69905571Y-57770381D01*
X70857952Y-56865619D02*
X70905571Y-56818000D01*
X71000809Y-56770381D01*
X71238905Y-56770381D01*
X71334143Y-56818000D01*
X71381762Y-56865619D01*
X71429381Y-56960857D01*
X71429381Y-57056095D01*
X71381762Y-57198952D01*
X70810333Y-57770381D01*
X71429381Y-57770381D01*
D12*
X103686428Y-55093810D02*
X103517095Y-54851905D01*
X103396142Y-55093810D02*
X103396142Y-54585810D01*
X103589666Y-54585810D01*
X103638047Y-54610000D01*
X103662238Y-54634190D01*
X103686428Y-54682571D01*
X103686428Y-54755143D01*
X103662238Y-54803524D01*
X103638047Y-54827714D01*
X103589666Y-54851905D01*
X103396142Y-54851905D01*
X104170238Y-55093810D02*
X103879952Y-55093810D01*
X104025095Y-55093810D02*
X104025095Y-54585810D01*
X103976714Y-54658381D01*
X103928333Y-54706762D01*
X103879952Y-54730952D01*
X104605667Y-54755143D02*
X104605667Y-55093810D01*
X104484714Y-54561619D02*
X104363762Y-54924476D01*
X104678238Y-54924476D01*
X108004428Y-55093810D02*
X107835095Y-54851905D01*
X107714142Y-55093810D02*
X107714142Y-54585810D01*
X107907666Y-54585810D01*
X107956047Y-54610000D01*
X107980238Y-54634190D01*
X108004428Y-54682571D01*
X108004428Y-54755143D01*
X107980238Y-54803524D01*
X107956047Y-54827714D01*
X107907666Y-54851905D01*
X107714142Y-54851905D01*
X108488238Y-55093810D02*
X108197952Y-55093810D01*
X108343095Y-55093810D02*
X108343095Y-54585810D01*
X108294714Y-54658381D01*
X108246333Y-54706762D01*
X108197952Y-54730952D01*
X108947857Y-54585810D02*
X108705952Y-54585810D01*
X108681762Y-54827714D01*
X108705952Y-54803524D01*
X108754333Y-54779333D01*
X108875286Y-54779333D01*
X108923667Y-54803524D01*
X108947857Y-54827714D01*
X108972048Y-54876095D01*
X108972048Y-54997048D01*
X108947857Y-55045429D01*
X108923667Y-55069619D01*
X108875286Y-55093810D01*
X108754333Y-55093810D01*
X108705952Y-55069619D01*
X108681762Y-55045429D01*
M02*
