M48
;DRILL file {KiCad (2016-03-18 BZR 6629, Git 60d93d0)-product} date 7/17/2016 1:37:36 PM
;FORMAT={2:4/ absolute / inch / suppress leading zeros}
FMAT,2
INCH,TZ
T1C0.008
T2C0.012
T3C0.016
T4C0.024
T5C0.028
T6C0.031
T7C0.035
T8C0.039
T9C0.059
%
G90
G05
M72
T1
X21850Y-62300
X25778Y-54220
X26721Y-54255
X26759Y-58745
X27487Y-49648
X28149Y-52865
X28254Y-55013
X28284Y-55663
X28678Y-56726
X28689Y-51302
X28714Y-65905
X28927Y-57165
X29150Y-42850
X29470Y-64952
X29550Y-34650
X29550Y-35250
X29609Y-35597
X30950Y-46050
X31125Y-48684
X31206Y-48447
X31350Y-48150
X31491Y-46468
X31631Y-55159
X32358Y-52723
X32445Y-55248
X32640Y-55405
X33195Y-53765
X33715Y-33911
X34101Y-62089
X34647Y-56533
X34750Y-29950
X34750Y-48350
X35030Y-57870
X35073Y-29994
X35091Y-59866
X35110Y-56600
X35340Y-59000
X35560Y-58960
X35606Y-54024
X35610Y-53481
X35632Y-57833
X35634Y-53185
X35735Y-58080
X36070Y-56550
X36098Y-31951
X36110Y-59500
X36542Y-59819
X36685Y-54822
X36788Y-59869
X36863Y-54645
X36990Y-57717
X37031Y-61041
X37191Y-51272
X37233Y-59976
X37309Y-52446
X37486Y-52270
X37521Y-51547
X40033Y-61263
X40900Y-20450
X41100Y-20300
X41500Y-20300
X41750Y-20250
X42531Y-50983
X42550Y-20300
X42944Y-20451
X43350Y-61000
X43567Y-46407
X43700Y-61300
X46939Y-37975
X50296Y-50877
X56526Y-50663
X57043Y-30215
X61900Y-26650
X62000Y-27050
X66050Y-24650
X71950Y-23200
X74500Y-25000
X75400Y-23200
X76500Y-25250
T2
X24756Y-55325
X25600Y-52940
X25852Y-54723
X26930Y-59095
X27050Y-31850
X28033Y-53924
X28837Y-55787
X29470Y-60963
X29474Y-56880
X29646Y-56698
X29861Y-43763
X29880Y-50868
X30650Y-45950
X31082Y-22092
X32097Y-27820
X32299Y-54194
X32548Y-54232
X35330Y-56010
X36200Y-56190
X40033Y-53598
X40150Y-52358
X40187Y-53004
X40251Y-53634
X40500Y-20050
X40532Y-53551
X40691Y-20971
X42461Y-59619
X42638Y-58388
X42800Y-20950
T3
X40748Y-19443
X40905Y-19129
X41220Y-19129
X41319Y-19443
X41535Y-19129
X41693Y-19443
X42007Y-19443
X42165Y-19129
X42381Y-19443
X42480Y-19129
X42795Y-19129
X42952Y-19443
T5
X65669Y-22053
X66260Y-22053
X66850Y-22053
X67441Y-22053
X68031Y-22053
X68622Y-22053
X69213Y-22053
X69803Y-22053
X70394Y-22053
X70984Y-22053
X71575Y-22053
X72165Y-22053
X72756Y-22053
X73346Y-22053
X73937Y-22053
X74528Y-22053
X75118Y-22053
T6
X12363Y-54805
X13269Y-54382
X15532Y-61601
X16438Y-61179
X18702Y-68399
X19160Y-51635
X19608Y-67977
X20066Y-51213
X23189Y-63825
X23611Y-64731
X26500Y-34504
X26500Y-35504
X26500Y-45754
X26500Y-46754
X28000Y-23630
X29000Y-23630
X29985Y-60653
X30407Y-61559
X35500Y-23630
X35500Y-31129
X35500Y-38629
X35500Y-46129
X36500Y-23630
X36500Y-31129
X36500Y-38629
X36500Y-46129
X43000Y-23129
X43000Y-30629
X43000Y-38129
X43000Y-45629
X43000Y-53129
X44000Y-23129
X44000Y-30629
X44000Y-38129
X44000Y-45629
X44000Y-53129
X50500Y-22500
X50500Y-30000
X50500Y-37500
X50500Y-45000
X50500Y-52500
X51500Y-22500
X51500Y-30000
X51500Y-37500
X51500Y-45000
X51500Y-52500
X58000Y-23129
X58000Y-30629
X58000Y-38129
X58000Y-45629
X58000Y-53129
X59000Y-23129
X59000Y-30629
X59000Y-38129
X59000Y-45629
X59000Y-53129
X65500Y-24380
X65500Y-31879
X65500Y-39379
X65500Y-46879
X65500Y-54379
X66500Y-24380
X66500Y-31879
X66500Y-39379
X66500Y-46879
X66500Y-54379
X73000Y-54379
X74000Y-54379
X74875Y-24380
X74875Y-31879
X74875Y-39379
X74875Y-46879
X75875Y-24380
X75875Y-31879
X75875Y-39379
X75875Y-46879
T8
X26900Y-69281
X27806Y-68858
X28712Y-68436
X29618Y-68013
X30525Y-67590
X31431Y-67168
X32337Y-66745
X33244Y-66323
X34150Y-65900
X35056Y-65477
X35963Y-65055
X36869Y-64632
X37775Y-64210
X38682Y-63787
X39588Y-63364
X40494Y-62942
X41400Y-62519
T4
X29140Y-21558G85X29140Y-20928
G05
X35360Y-21558G85X35360Y-20928
G05
X39567Y-17849G85X39567Y-17455
G05
X39960Y-19483G85X39960Y-19148
G05
X43740Y-19463G85X43740Y-19129
G05
X44133Y-17849G85X44133Y-17455
G05
T7
X63366Y-21285G85X63799Y-21285
G05
X64547Y-21285G85X64980Y-21285
G05
X75807Y-21285G85X76240Y-21285
G05
X76988Y-21285G85X77421Y-21285
G05
T9
X13600Y-58640G85X13518Y-58427
G05
X15397Y-57333G85X15443Y-56677
G05
X16769Y-65437G85X16687Y-65224
G05
X18566Y-64130G85X18612Y-63474
G05
X19939Y-72235G85X19857Y-72022
G05
X20397Y-55471G85X20315Y-55258
G05
X21736Y-70928G85X21782Y-70272
G05
X22194Y-54164G85X22240Y-53508
G05
X26140Y-61696G85X25484Y-61650
G05
X27447Y-63493G85X27234Y-63575
G05
X27500Y-27630G85X27516Y-27402
G05
X30075Y-33823G85X29500Y-33504
G05
X30075Y-45073G85X29500Y-44754
G05
X29681Y-27205G85X30000Y-26630
G05
X30500Y-36004G85X30272Y-35988
G05
X30500Y-47254G85X30272Y-47238
G05
X32937Y-58526G85X32281Y-58480
G05
X34244Y-60323G85X34031Y-60405
G05
X35000Y-27630G85X35016Y-27402
G05
X35000Y-35129G85X35016Y-34901
G05
X35000Y-42629G85X35016Y-42401
G05
X35000Y-50129G85X35016Y-49901
G05
X37181Y-27205G85X37500Y-26630
G05
X37181Y-34704G85X37500Y-34129
G05
X37181Y-42204G85X37500Y-41629
G05
X37181Y-49704G85X37500Y-49129
G05
X42500Y-27129G85X42516Y-26901
G05
X42500Y-34629G85X42516Y-34401
G05
X42500Y-42129G85X42516Y-41901
G05
X42500Y-49629G85X42516Y-49401
G05
X42500Y-57129G85X42516Y-56901
G05
X44681Y-26704G85X45000Y-26129
G05
X44681Y-34204G85X45000Y-33629
G05
X44681Y-41704G85X45000Y-41129
G05
X44681Y-49204G85X45000Y-48629
G05
X44681Y-56704G85X45000Y-56129
G05
X50000Y-26500G85X50016Y-26272
G05
X50000Y-34000G85X50016Y-33772
G05
X50000Y-41500G85X50016Y-41272
G05
X50000Y-49000G85X50016Y-48772
G05
X50000Y-56500G85X50016Y-56272
G05
X52181Y-26075G85X52500Y-25500
G05
X52181Y-33575G85X52500Y-33000
G05
X52181Y-41075G85X52500Y-40500
G05
X52181Y-48575G85X52500Y-48000
G05
X52181Y-56075G85X52500Y-55500
G05
X57500Y-27129G85X57516Y-26901
G05
X57500Y-34629G85X57516Y-34401
G05
X57500Y-42129G85X57516Y-41901
G05
X57500Y-49629G85X57516Y-49401
G05
X57500Y-57129G85X57516Y-56901
G05
X59681Y-26704G85X60000Y-26129
G05
X59681Y-34204G85X60000Y-33629
G05
X59681Y-41704G85X60000Y-41129
G05
X59681Y-49204G85X60000Y-48629
G05
X59681Y-56704G85X60000Y-56129
G05
X65000Y-28380G85X65016Y-28152
G05
X65000Y-35879G85X65016Y-35651
G05
X65000Y-43379G85X65016Y-43151
G05
X65000Y-50879G85X65016Y-50651
G05
X65000Y-58379G85X65016Y-58151
G05
X67181Y-27955G85X67500Y-27380
G05
X67181Y-35454G85X67500Y-34879
G05
X67181Y-42954G85X67500Y-42379
G05
X67181Y-50454G85X67500Y-49879
G05
X67181Y-57954G85X67500Y-57379
G05
X72500Y-58379G85X72516Y-58151
G05
X74375Y-28380G85X74390Y-28152
G05
X74375Y-35879G85X74390Y-35651
G05
X74375Y-43379G85X74390Y-43151
G05
X74375Y-50879G85X74390Y-50651
G05
X74681Y-57954G85X75000Y-57379
G05
X76556Y-27955G85X76875Y-27380
G05
X76556Y-35454G85X76875Y-34879
G05
X76556Y-42954G85X76875Y-42379
G05
X76556Y-50454G85X76875Y-49879
G05
T0
M30
