G04 #@! TF.FileFunction,Legend,Top*
%FSLAX46Y46*%
G04 Gerber Fmt 4.6, Leading zero omitted, Abs format (unit mm)*
G04 Created by KiCad (PCBNEW (2015-07-17 BZR 5958)-product) date 8/7/2015 1:36:20 AM*
%MOMM*%
G01*
G04 APERTURE LIST*
%ADD10C,0.150000*%
%ADD11C,0.300000*%
%ADD12C,0.127000*%
%ADD13C,0.200000*%
G04 APERTURE END LIST*
D10*
D11*
X113471000Y-42822000D02*
X113471000Y-47122000D01*
X100921000Y-47122000D02*
X100921000Y-42822000D01*
X100921000Y-47122000D02*
X113471000Y-47122000D01*
D12*
X109516333Y-48997810D02*
X109347000Y-48755905D01*
X109226047Y-48997810D02*
X109226047Y-48489810D01*
X109419571Y-48489810D01*
X109467952Y-48514000D01*
X109492143Y-48538190D01*
X109516333Y-48586571D01*
X109516333Y-48659143D01*
X109492143Y-48707524D01*
X109467952Y-48731714D01*
X109419571Y-48755905D01*
X109226047Y-48755905D01*
X109709857Y-48538190D02*
X109734047Y-48514000D01*
X109782428Y-48489810D01*
X109903381Y-48489810D01*
X109951762Y-48514000D01*
X109975952Y-48538190D01*
X110000143Y-48586571D01*
X110000143Y-48634952D01*
X109975952Y-48707524D01*
X109685666Y-48997810D01*
X110000143Y-48997810D01*
X110786333Y-48997810D02*
X110617000Y-48755905D01*
X110496047Y-48997810D02*
X110496047Y-48489810D01*
X110689571Y-48489810D01*
X110737952Y-48514000D01*
X110762143Y-48538190D01*
X110786333Y-48586571D01*
X110786333Y-48659143D01*
X110762143Y-48707524D01*
X110737952Y-48731714D01*
X110689571Y-48755905D01*
X110496047Y-48755905D01*
X111270143Y-48997810D02*
X110979857Y-48997810D01*
X111125000Y-48997810D02*
X111125000Y-48489810D01*
X111076619Y-48562381D01*
X111028238Y-48610762D01*
X110979857Y-48634952D01*
D13*
X105814905Y-49220381D02*
X105814905Y-48220381D01*
X106195858Y-48220381D01*
X106291096Y-48268000D01*
X106338715Y-48315619D01*
X106386334Y-48410857D01*
X106386334Y-48553714D01*
X106338715Y-48648952D01*
X106291096Y-48696571D01*
X106195858Y-48744190D01*
X105814905Y-48744190D01*
X106767286Y-48315619D02*
X106814905Y-48268000D01*
X106910143Y-48220381D01*
X107148239Y-48220381D01*
X107243477Y-48268000D01*
X107291096Y-48315619D01*
X107338715Y-48410857D01*
X107338715Y-48506095D01*
X107291096Y-48648952D01*
X106719667Y-49220381D01*
X107338715Y-49220381D01*
X81176905Y-57856381D02*
X81176905Y-56856381D01*
X81557858Y-56856381D01*
X81653096Y-56904000D01*
X81700715Y-56951619D01*
X81748334Y-57046857D01*
X81748334Y-57189714D01*
X81700715Y-57284952D01*
X81653096Y-57332571D01*
X81557858Y-57380190D01*
X81176905Y-57380190D01*
X82605477Y-57189714D02*
X82605477Y-57856381D01*
X82367381Y-56808762D02*
X82129286Y-57523048D01*
X82748334Y-57523048D01*
X154535334Y-50490381D02*
X154059143Y-50490381D01*
X154059143Y-49490381D01*
X155440096Y-50395143D02*
X155392477Y-50442762D01*
X155249620Y-50490381D01*
X155154382Y-50490381D01*
X155011524Y-50442762D01*
X154916286Y-50347524D01*
X154868667Y-50252286D01*
X154821048Y-50061810D01*
X154821048Y-49918952D01*
X154868667Y-49728476D01*
X154916286Y-49633238D01*
X155011524Y-49538000D01*
X155154382Y-49490381D01*
X155249620Y-49490381D01*
X155392477Y-49538000D01*
X155440096Y-49585619D01*
X155868667Y-50490381D02*
X155868667Y-49490381D01*
X156106762Y-49490381D01*
X156249620Y-49538000D01*
X156344858Y-49633238D01*
X156392477Y-49728476D01*
X156440096Y-49918952D01*
X156440096Y-50061810D01*
X156392477Y-50252286D01*
X156344858Y-50347524D01*
X156249620Y-50442762D01*
X156106762Y-50490381D01*
X155868667Y-50490381D01*
X157392477Y-50490381D02*
X156821048Y-50490381D01*
X157106762Y-50490381D02*
X157106762Y-49490381D01*
X157011524Y-49633238D01*
X156916286Y-49728476D01*
X156821048Y-49776095D01*
X43505572Y-151226571D02*
X43172238Y-151226571D01*
X43172238Y-151750381D02*
X43172238Y-150750381D01*
X43648429Y-150750381D01*
X44029381Y-151750381D02*
X44029381Y-150750381D01*
X44505571Y-151750381D02*
X44505571Y-150750381D01*
X44743666Y-150750381D01*
X44886524Y-150798000D01*
X44981762Y-150893238D01*
X45029381Y-150988476D01*
X45077000Y-151178952D01*
X45077000Y-151321810D01*
X45029381Y-151512286D01*
X44981762Y-151607524D01*
X44886524Y-151702762D01*
X44743666Y-151750381D01*
X44505571Y-151750381D01*
X45934143Y-150750381D02*
X45743666Y-150750381D01*
X45648428Y-150798000D01*
X45600809Y-150845619D01*
X45505571Y-150988476D01*
X45457952Y-151178952D01*
X45457952Y-151559905D01*
X45505571Y-151655143D01*
X45553190Y-151702762D01*
X45648428Y-151750381D01*
X45838905Y-151750381D01*
X45934143Y-151702762D01*
X45981762Y-151655143D01*
X46029381Y-151559905D01*
X46029381Y-151321810D01*
X45981762Y-151226571D01*
X45934143Y-151178952D01*
X45838905Y-151131333D01*
X45648428Y-151131333D01*
X45553190Y-151178952D01*
X45505571Y-151226571D01*
X45457952Y-151321810D01*
X178125572Y-118206571D02*
X177792238Y-118206571D01*
X177792238Y-118730381D02*
X177792238Y-117730381D01*
X178268429Y-117730381D01*
X178649381Y-118730381D02*
X178649381Y-117730381D01*
X179125571Y-118730381D02*
X179125571Y-117730381D01*
X179363666Y-117730381D01*
X179506524Y-117778000D01*
X179601762Y-117873238D01*
X179649381Y-117968476D01*
X179697000Y-118158952D01*
X179697000Y-118301810D01*
X179649381Y-118492286D01*
X179601762Y-118587524D01*
X179506524Y-118682762D01*
X179363666Y-118730381D01*
X179125571Y-118730381D01*
X180554143Y-118063714D02*
X180554143Y-118730381D01*
X180316047Y-117682762D02*
X180077952Y-118397048D01*
X180697000Y-118397048D01*
X68905572Y-57246571D02*
X68572238Y-57246571D01*
X68572238Y-57770381D02*
X68572238Y-56770381D01*
X69048429Y-56770381D01*
X69429381Y-57770381D02*
X69429381Y-56770381D01*
X69905571Y-57770381D02*
X69905571Y-56770381D01*
X70143666Y-56770381D01*
X70286524Y-56818000D01*
X70381762Y-56913238D01*
X70429381Y-57008476D01*
X70477000Y-57198952D01*
X70477000Y-57341810D01*
X70429381Y-57532286D01*
X70381762Y-57627524D01*
X70286524Y-57722762D01*
X70143666Y-57770381D01*
X69905571Y-57770381D01*
X70857952Y-56865619D02*
X70905571Y-56818000D01*
X71000809Y-56770381D01*
X71238905Y-56770381D01*
X71334143Y-56818000D01*
X71381762Y-56865619D01*
X71429381Y-56960857D01*
X71429381Y-57056095D01*
X71381762Y-57198952D01*
X70810333Y-57770381D01*
X71429381Y-57770381D01*
M02*
