G04 #@! TF.FileFunction,Soldermask,Top*
%FSLAX46Y46*%
G04 Gerber Fmt 4.6, Leading zero omitted, Abs format (unit mm)*
G04 Created by KiCad (PCBNEW (2015-07-17 BZR 5958)-product) date 8/7/2015 1:36:20 AM*
%MOMM*%
G01*
G04 APERTURE LIST*
%ADD10C,0.150000*%
%ADD11C,1.952400*%
%ADD12C,1.143010*%
%ADD13C,2.527310*%
%ADD14R,0.802400X0.752400*%
%ADD15R,1.952400X2.052400*%
%ADD16R,0.552400X1.502400*%
%ADD17R,2.052400X2.052400*%
%ADD18O,1.202400X2.052400*%
%ADD19O,1.952400X3.652400*%
%ADD20R,0.852400X1.952400*%
%ADD21R,1.792400X2.352400*%
%ADD22R,2.552400X1.652400*%
%ADD23C,1.352400*%
%ADD24C,1.002410*%
%ADD25C,3.000000*%
%ADD26O,1.552400X1.552400*%
%ADD27R,1.552400X1.552400*%
%ADD28C,1.552400*%
%ADD29C,4.140210*%
%ADD30C,1.854210*%
%ADD31C,2.652400*%
G04 APERTURE END LIST*
D10*
D11*
X68324826Y-175973603D03*
X70626848Y-174900153D03*
X72928869Y-173826702D03*
X75230891Y-172753252D03*
X77532913Y-171679802D03*
X79834935Y-170606351D03*
X82136956Y-169532901D03*
X84438978Y-168459450D03*
X86741000Y-167386000D03*
X89043022Y-166312550D03*
X91345044Y-165239099D03*
X93647065Y-164165649D03*
X95949087Y-163092198D03*
X98251109Y-162018748D03*
X100553131Y-160945298D03*
X102855152Y-159871847D03*
X105157174Y-158798397D03*
D12*
X107315000Y-152146000D03*
X114935000Y-153162000D03*
X114935000Y-151130000D03*
D13*
X107315000Y-154686000D03*
X113030000Y-154686000D03*
X107315000Y-149606000D03*
X113030000Y-149606000D03*
D14*
X109601000Y-49792000D03*
X109601000Y-50792000D03*
X110871000Y-49792000D03*
X110871000Y-50792000D03*
D15*
X105871000Y-44122000D03*
D16*
X103171000Y-46797000D03*
X102521000Y-46797000D03*
X101871000Y-46797000D03*
X103821000Y-46797000D03*
X104471000Y-46797000D03*
X109871000Y-46797000D03*
X109221000Y-46797000D03*
X108571000Y-46797000D03*
X110521000Y-46797000D03*
X111171000Y-46797000D03*
D17*
X110946000Y-44122000D03*
X108796000Y-44122000D03*
D18*
X113471000Y-44122000D03*
D15*
X103371000Y-44122000D03*
D18*
X100921000Y-44122000D03*
D19*
X74015000Y-53958000D03*
X89815000Y-53958000D03*
D20*
X81915000Y-54858000D03*
X80915000Y-54858000D03*
X79915000Y-54858000D03*
X78915000Y-54858000D03*
X77915000Y-54858000D03*
X82915000Y-54858000D03*
X83915000Y-54858000D03*
X84915000Y-54858000D03*
X85915000Y-54858000D03*
D21*
X74245000Y-49958000D03*
X89585000Y-49958000D03*
D22*
X161500000Y-54064000D03*
X164500000Y-54064000D03*
D23*
X166800000Y-56014000D03*
X168300000Y-56014000D03*
X169800000Y-56014000D03*
X171300000Y-56014000D03*
X172800000Y-56014000D03*
X174300000Y-56014000D03*
X175800000Y-56014000D03*
X177300000Y-56014000D03*
X178800000Y-56014000D03*
X180300000Y-56014000D03*
X181800000Y-56014000D03*
X183300000Y-56014000D03*
X184800000Y-56014000D03*
X186300000Y-56014000D03*
X187800000Y-56014000D03*
X189300000Y-56014000D03*
X190800000Y-56014000D03*
D22*
X193100000Y-54064000D03*
X196100000Y-54064000D03*
D24*
X198900000Y-56014000D03*
X158700000Y-56014000D03*
D25*
X44577000Y-149098000D03*
X179197000Y-116078000D03*
X69977000Y-55118000D03*
D26*
X168910000Y-80972700D03*
D27*
X166370000Y-80972700D03*
D28*
X49804711Y-172661275D02*
X49804711Y-172661275D01*
D10*
G36*
X47127249Y-174766237D02*
X46471177Y-173359285D01*
X47878129Y-172703213D01*
X48534201Y-174110165D01*
X47127249Y-174766237D01*
X47127249Y-174766237D01*
G37*
D26*
X168910000Y-119073000D03*
D27*
X166370000Y-119073000D03*
D26*
X149860000Y-77797700D03*
D27*
X147320000Y-77797700D03*
D26*
X149860000Y-115898000D03*
D27*
X147320000Y-115898000D03*
D26*
X130810000Y-76200000D03*
D27*
X128270000Y-76200000D03*
D26*
X130810000Y-114300000D03*
D27*
X128270000Y-114300000D03*
D26*
X111760000Y-77797700D03*
D27*
X109220000Y-77797700D03*
D26*
X192722000Y-119073000D03*
D27*
X190182000Y-119073000D03*
D26*
X192722000Y-80972700D03*
D27*
X190182000Y-80972700D03*
D28*
X41752911Y-155394275D02*
X41752911Y-155394275D01*
D10*
G36*
X39075449Y-157499237D02*
X38419377Y-156092285D01*
X39826329Y-155436213D01*
X40482401Y-156843165D01*
X39075449Y-157499237D01*
X39075449Y-157499237D01*
G37*
D26*
X92710000Y-98118000D03*
D27*
X90170000Y-98118000D03*
D26*
X111760000Y-115898000D03*
D27*
X109220000Y-115898000D03*
D26*
X111760000Y-96848000D03*
D27*
X109220000Y-96848000D03*
D28*
X58899275Y-162114989D02*
X58899275Y-162114989D01*
D10*
G36*
X61004237Y-164792451D02*
X59597285Y-165448523D01*
X58941213Y-164041571D01*
X60348165Y-163385499D01*
X61004237Y-164792451D01*
X61004237Y-164792451D01*
G37*
D26*
X149860000Y-58747700D03*
D27*
X147320000Y-58747700D03*
D26*
X130810000Y-95250000D03*
D27*
X128270000Y-95250000D03*
D28*
X76161075Y-154058989D02*
X76161075Y-154058989D01*
D10*
G36*
X78266037Y-156736451D02*
X76859085Y-157392523D01*
X76203013Y-155985571D01*
X77609965Y-155329499D01*
X78266037Y-156736451D01*
X78266037Y-156736451D01*
G37*
D26*
X92710000Y-60020200D03*
D27*
X90170000Y-60020200D03*
D26*
X149860000Y-96848000D03*
D27*
X147320000Y-96848000D03*
D26*
X111760000Y-134948000D03*
D27*
X109220000Y-134948000D03*
D26*
X111760000Y-58747700D03*
D27*
X109220000Y-58747700D03*
D26*
X168910000Y-100023000D03*
D27*
X166370000Y-100023000D03*
D26*
X130810000Y-133350000D03*
D27*
X128270000Y-133350000D03*
D26*
X130810000Y-57150000D03*
D27*
X128270000Y-57150000D03*
D26*
X192722000Y-100023000D03*
D27*
X190182000Y-100023000D03*
D26*
X149860000Y-134948000D03*
D27*
X147320000Y-134948000D03*
D26*
X73660000Y-60020200D03*
D27*
X71120000Y-60020200D03*
D28*
X33703611Y-138130275D02*
X33703611Y-138130275D01*
D10*
G36*
X31026149Y-140235237D02*
X30370077Y-138828285D01*
X31777029Y-138172213D01*
X32433101Y-139579165D01*
X31026149Y-140235237D01*
X31026149Y-140235237D01*
G37*
D26*
X168910000Y-138123000D03*
D27*
X166370000Y-138123000D03*
D26*
X168910000Y-61925200D03*
D27*
X166370000Y-61925200D03*
D28*
X50968011Y-130080275D02*
X50968011Y-130080275D01*
D10*
G36*
X48290549Y-132185237D02*
X47634477Y-130778285D01*
X49041429Y-130122213D01*
X49697501Y-131529165D01*
X48290549Y-132185237D01*
X48290549Y-132185237D01*
G37*
D26*
X187960000Y-138123000D03*
D27*
X185420000Y-138123000D03*
D26*
X192722000Y-61925200D03*
D27*
X190182000Y-61925200D03*
D26*
X67310000Y-116215000D03*
D27*
X67310000Y-118755000D03*
D26*
X67310000Y-87640200D03*
D27*
X67310000Y-90180200D03*
D26*
X92710000Y-117168000D03*
D27*
X90170000Y-117168000D03*
D26*
X92710000Y-79067700D03*
D27*
X90170000Y-79067700D03*
D29*
X81302900Y-153065000D03*
D30*
X79155999Y-148460956D03*
X83449801Y-157669044D03*
D31*
X83660426Y-148656034D02*
X81994596Y-148538086D01*
X86979669Y-153220155D02*
X86438555Y-153428953D01*
D29*
X51963300Y-135219000D03*
D30*
X56567344Y-133072099D03*
X47359256Y-137365901D03*
D31*
X56372266Y-137576526D02*
X56490214Y-135910696D01*
X51808145Y-140895769D02*
X51599347Y-140354655D01*
D29*
X91440000Y-65100200D03*
D30*
X96520000Y-65100200D03*
X86360000Y-65100200D03*
D31*
X94439547Y-69100154D02*
X95250453Y-67640246D01*
X88900276Y-70179528D02*
X88939724Y-69600872D01*
D29*
X148590000Y-82877700D03*
D30*
X153670000Y-82877700D03*
X143510000Y-82877700D03*
D31*
X151589547Y-86877654D02*
X152400453Y-85417746D01*
X146050276Y-87957028D02*
X146089724Y-87378372D01*
D29*
X64038500Y-161117000D03*
D30*
X61891599Y-156512956D03*
X66185401Y-165721044D03*
D31*
X66396026Y-156708034D02*
X64730196Y-156590086D01*
X69715269Y-161272155D02*
X69174155Y-161480953D01*
D29*
X110490000Y-140028000D03*
D30*
X115570000Y-140028000D03*
X105410000Y-140028000D03*
D31*
X113489547Y-144027954D02*
X114300453Y-142568046D01*
X107950276Y-145107328D02*
X107989724Y-144528672D01*
D29*
X129540000Y-138430000D03*
D30*
X134620000Y-138430000D03*
X124460000Y-138430000D03*
D31*
X132539547Y-142429954D02*
X133350453Y-140970046D01*
X127000276Y-143509328D02*
X127039724Y-142930672D01*
D29*
X167640000Y-143203000D03*
D30*
X172720000Y-143203000D03*
X162560000Y-143203000D03*
D31*
X170639547Y-147202954D02*
X171450453Y-145743046D01*
X165100276Y-148282328D02*
X165139724Y-147703672D01*
D29*
X91440000Y-122248000D03*
D30*
X96520000Y-122248000D03*
X86360000Y-122248000D03*
D31*
X94439547Y-126247954D02*
X95250453Y-124788046D01*
X88900276Y-127327328D02*
X88939724Y-126748672D01*
D29*
X110490000Y-120978000D03*
D30*
X115570000Y-120978000D03*
X105410000Y-120978000D03*
D31*
X113489547Y-124977954D02*
X114300453Y-123518046D01*
X107950276Y-126057328D02*
X107989724Y-125478672D01*
D29*
X129540000Y-119380000D03*
D30*
X134620000Y-119380000D03*
X124460000Y-119380000D03*
D31*
X132539547Y-123379954D02*
X133350453Y-121920046D01*
X127000276Y-124459328D02*
X127039724Y-123880672D01*
D29*
X148590000Y-120978000D03*
D30*
X153670000Y-120978000D03*
X143510000Y-120978000D03*
D31*
X151589547Y-124977954D02*
X152400453Y-123518046D01*
X146050276Y-126057328D02*
X146089724Y-125478672D01*
D29*
X167640000Y-124153000D03*
D30*
X172720000Y-124153000D03*
X162560000Y-124153000D03*
D31*
X170639547Y-128152954D02*
X171450453Y-126693046D01*
X165100276Y-129232328D02*
X165139724Y-128653672D01*
D29*
X91440000Y-103198000D03*
D30*
X96520000Y-103198000D03*
X86360000Y-103198000D03*
D31*
X94439547Y-107197954D02*
X95250453Y-105738046D01*
X88900276Y-108277328D02*
X88939724Y-107698672D01*
D29*
X110490000Y-101928000D03*
D30*
X115570000Y-101928000D03*
X105410000Y-101928000D03*
D31*
X113489547Y-105927954D02*
X114300453Y-104468046D01*
X107950276Y-107007328D02*
X107989724Y-106428672D01*
D29*
X129540000Y-100330000D03*
D30*
X134620000Y-100330000D03*
X124460000Y-100330000D03*
D31*
X132539547Y-104329954D02*
X133350453Y-102870046D01*
X127000276Y-105409328D02*
X127039724Y-104830672D01*
D29*
X148590000Y-101928000D03*
D30*
X153670000Y-101928000D03*
X143510000Y-101928000D03*
D31*
X151589547Y-105927954D02*
X152400453Y-104468046D01*
X146050276Y-107007328D02*
X146089724Y-106428672D01*
D29*
X167640000Y-105103000D03*
D30*
X172720000Y-105103000D03*
X162560000Y-105103000D03*
D31*
X170639547Y-109102954D02*
X171450453Y-107643046D01*
X165100276Y-110182328D02*
X165139724Y-109603672D01*
D29*
X110490000Y-82877700D03*
D30*
X115570000Y-82877700D03*
X105410000Y-82877700D03*
D31*
X113489547Y-86877654D02*
X114300453Y-85417746D01*
X107950276Y-87957028D02*
X107989724Y-87378372D01*
D29*
X129540000Y-81280000D03*
D30*
X134620000Y-81280000D03*
X124460000Y-81280000D03*
D31*
X132539547Y-85279954D02*
X133350453Y-83820046D01*
X127000276Y-86359328D02*
X127039724Y-85780672D01*
D29*
X167640000Y-86052700D03*
D30*
X172720000Y-86052700D03*
X162560000Y-86052700D03*
D31*
X170639547Y-90052654D02*
X171450453Y-88592746D01*
X165100276Y-91132028D02*
X165139724Y-90553372D01*
D29*
X148590000Y-140028000D03*
D30*
X153670000Y-140028000D03*
X143510000Y-140028000D03*
D31*
X151589547Y-144027954D02*
X152400453Y-142568046D01*
X146050276Y-145107328D02*
X146089724Y-144528672D01*
D29*
X110490000Y-63827700D03*
D30*
X115570000Y-63827700D03*
X105410000Y-63827700D03*
D31*
X113489547Y-67827654D02*
X114300453Y-66367746D01*
X107950276Y-68907028D02*
X107989724Y-68328372D01*
D29*
X129540000Y-62230000D03*
D30*
X134620000Y-62230000D03*
X124460000Y-62230000D03*
D31*
X132539547Y-66229954D02*
X133350453Y-64770046D01*
X127000276Y-67309328D02*
X127039724Y-66730672D01*
D29*
X148590000Y-63827700D03*
D30*
X153670000Y-63827700D03*
X143510000Y-63827700D03*
D31*
X151589547Y-67827654D02*
X152400453Y-66367746D01*
X146050276Y-68907028D02*
X146089724Y-68328372D01*
D29*
X167640000Y-67005200D03*
D30*
X172720000Y-67005200D03*
X162560000Y-67005200D03*
D31*
X170639547Y-71005154D02*
X171450453Y-69545246D01*
X165100276Y-72084528D02*
X165139724Y-71505872D01*
D29*
X34698900Y-143269000D03*
D30*
X39302944Y-141122099D03*
X30094856Y-145415901D03*
D31*
X39107866Y-145626526D02*
X39225814Y-143960696D01*
X34543745Y-148945769D02*
X34334947Y-148404655D01*
D29*
X50800000Y-177800000D03*
D30*
X55404044Y-175653099D03*
X46195956Y-179946901D03*
D31*
X55208966Y-180157526D02*
X55326914Y-178491696D01*
X50644845Y-183476769D02*
X50436047Y-182935655D01*
D29*
X42748200Y-160533000D03*
D30*
X47352244Y-158386099D03*
X38144156Y-162679901D03*
D31*
X47157166Y-162890526D02*
X47275114Y-161224696D01*
X42593045Y-166209769D02*
X42384247Y-165668655D01*
D29*
X91440000Y-84147700D03*
D30*
X96520000Y-84147700D03*
X86360000Y-84147700D03*
D31*
X94439547Y-88147654D02*
X95250453Y-86687746D01*
X88900276Y-89227028D02*
X88939724Y-88648372D01*
D29*
X186690000Y-143203000D03*
D30*
X191770000Y-143203000D03*
X181610000Y-143203000D03*
D31*
X189689547Y-147202954D02*
X190500453Y-145743046D01*
X184150276Y-148282328D02*
X184189724Y-147703672D01*
D29*
X72390000Y-117485000D03*
D30*
X72390000Y-112405000D03*
X72390000Y-122565000D03*
D31*
X76389954Y-114485453D02*
X74930046Y-113674547D01*
X77469328Y-120024724D02*
X76890672Y-119985276D01*
D29*
X72390000Y-65100200D03*
D30*
X77470000Y-65100200D03*
X67310000Y-65100200D03*
D31*
X75389547Y-69100154D02*
X76200453Y-67640246D01*
X69850276Y-70179528D02*
X69889724Y-69600872D01*
D29*
X72390000Y-88910200D03*
D30*
X72390000Y-83830200D03*
X72390000Y-93990200D03*
D31*
X76389954Y-85910653D02*
X74930046Y-85099747D01*
X77469328Y-91449924D02*
X76890672Y-91410476D01*
D29*
X191452000Y-124153000D03*
D30*
X196532000Y-124153000D03*
X186372000Y-124153000D03*
D31*
X194451547Y-128152954D02*
X195262453Y-126693046D01*
X188912276Y-129232328D02*
X188951724Y-128653672D01*
D29*
X191452000Y-67005200D03*
D30*
X196532000Y-67005200D03*
X186372000Y-67005200D03*
D31*
X194451547Y-71005154D02*
X195262453Y-69545246D01*
X188912276Y-72084528D02*
X188951724Y-71505872D01*
D29*
X191452000Y-86052700D03*
D30*
X196532000Y-86052700D03*
X186372000Y-86052700D03*
D31*
X194451547Y-90052654D02*
X195262453Y-88592746D01*
X188912276Y-91132028D02*
X188951724Y-90553372D01*
D29*
X191452000Y-105103000D03*
D30*
X196532000Y-105103000D03*
X186372000Y-105103000D03*
D31*
X194451547Y-109102954D02*
X195262453Y-107643046D01*
X188912276Y-110182328D02*
X188951724Y-109603672D01*
M02*
