M48
;DRILL file {KiCad (6.0.0-rc1-dev-711-gaf8715da8)} date 11/26/2018 1:45:58 AM
;FORMAT={2:4/ absolute / inch / suppress leading zeros}
FMAT,2
INCH,TZ
T1C0.0390
T2C0.0690
T3C0.0886
T4C0.0935
T5C0.1200
T6C0.1570
%
G90
G05
M72
T1
X86682Y-59055
X87082Y-56055
X87482Y-59055
T2
X49875Y-43125
X53875Y-43125
X66750Y-20625
X70750Y-20625
X108000Y-35625
X112000Y-35625
X21750Y-28125
X25750Y-28125
X91125Y-58125
X95125Y-58125
X46125Y-50625
X50125Y-50625
X119250Y-50625
X123250Y-50625
X44250Y-20625
X48250Y-20625
X24563Y-58125
X28563Y-58125
X134250Y-35625
X138250Y-35625
X141750Y-20625
X145750Y-20625
X111750Y-58125
X115750Y-58125
X96750Y-28125
X100750Y-28125
X114563Y-43125
X118563Y-43125
X33937Y-58125
X37937Y-58125
X21750Y-20625
X25750Y-20625
X38625Y-50625
X42625Y-50625
X68625Y-50625
X72625Y-50625
X119250Y-20625
X123250Y-20625
X141750Y-58125
X145750Y-58125
X74250Y-28125
X78250Y-28125
X94875Y-43125
X98875Y-43125
X91125Y-50625
X95125Y-50625
X134250Y-43125
X138250Y-43125
X62063Y-58125
X66063Y-58125
X96750Y-20625
X100750Y-20625
X151250Y-37375
X151250Y-41375
X51750Y-28125
X55750Y-28125
X70500Y-35625
X74500Y-35625
X53625Y-50625
X57625Y-50625
X126750Y-43125
X130750Y-43125
X74250Y-20625
X78250Y-20625
X93000Y-35625
X97000Y-35625
X29250Y-28125
X33250Y-28125
X15187Y-58125
X19187Y-58125
X78000Y-35625
X82000Y-35625
X108937Y-50625
X112937Y-50625
X126750Y-58125
X130750Y-58125
X51750Y-20625
X55750Y-20625
X40500Y-35625
X44500Y-35625
X126750Y-35625
X130750Y-35625
X149250Y-20625
X153250Y-20625
X119250Y-58125
X123250Y-58125
X104250Y-28125
X108250Y-28125
X48000Y-35625
X52000Y-35625
X134250Y-50625
X138250Y-50625
X29250Y-20625
X33250Y-20625
X72375Y-43125
X76375Y-43125
X126750Y-20625
X130750Y-20625
X81750Y-28125
X85750Y-28125
X134250Y-28125
X138250Y-28125
X27375Y-43125
X31375Y-43125
X34875Y-43125
X38875Y-43125
X83625Y-50625
X87625Y-50625
X104250Y-20625
X108250Y-20625
X17063Y-43125
X21063Y-43125
X59250Y-28125
X63250Y-28125
X16125Y-35625
X20125Y-35625
X61125Y-50625
X65125Y-50625
X141750Y-43125
X145750Y-43125
X79875Y-43125
X83875Y-43125
X81750Y-20625
X85750Y-20625
X85500Y-35625
X89500Y-35625
X36750Y-28125
X40750Y-28125
X149250Y-28125
X153250Y-28125
X151250Y-52375
X151250Y-56375
X98625Y-50625
X102625Y-50625
X134250Y-58125
X138250Y-58125
X59250Y-20625
X63250Y-20625
X102375Y-43125
X106375Y-43125
X117375Y-35625
X121375Y-35625
X14250Y-28125
X18250Y-28125
X100500Y-35625
X104500Y-35625
X115500Y-28125
X119500Y-28125
X42375Y-43125
X46375Y-43125
X126750Y-50625
X130750Y-50625
X36750Y-20625
X40750Y-20625
X141750Y-28125
X145750Y-28125
X141750Y-35625
X145750Y-35625
X134250Y-20625
X138250Y-20625
X102375Y-58125
X106375Y-58125
X89250Y-28125
X93250Y-28125
X87375Y-43125
X91375Y-43125
X126750Y-28125
X130750Y-28125
X14250Y-20625
X18250Y-20625
X63000Y-35625
X67000Y-35625
X76125Y-50625
X80125Y-50625
X111750Y-20625
X115750Y-20625
X33000Y-35625
X37000Y-35625
X66750Y-28125
X70750Y-28125
X25500Y-35625
X29500Y-35625
X31125Y-50625
X35125Y-50625
X18937Y-50625
X22937Y-50625
X57375Y-43125
X61375Y-43125
X89250Y-20625
X93250Y-20625
X64875Y-43125
X68875Y-43125
X44250Y-28125
X48250Y-28125
X55500Y-35625
X59500Y-35625
X141750Y-50625
X145750Y-50625
T3
X85625Y-41150
X40630Y-41140
X132490Y-41140
T4
X86082Y-56055
X86082Y-58305
X88082Y-56055
X88082Y-58305
T5
X152250Y-37875
X153250Y-40375
X52750Y-30125
X55250Y-29125
X71500Y-37625
X74000Y-36625
X54625Y-52625
X57125Y-51625
X127750Y-45125
X130250Y-44125
X75250Y-22625
X77750Y-21625
X94000Y-37625
X96500Y-36625
X30250Y-30125
X32750Y-29125
X16187Y-60125
X18687Y-59125
X79000Y-37625
X81500Y-36625
X109937Y-52625
X112437Y-51625
X127750Y-60125
X130250Y-59125
X52750Y-22625
X55250Y-21625
X41500Y-37625
X44000Y-36625
X127750Y-37625
X130250Y-36625
X150250Y-22625
X152750Y-21625
X120250Y-60125
X122750Y-59125
X105250Y-30125
X107750Y-29125
X49000Y-37625
X51500Y-36625
X135250Y-52625
X137750Y-51625
X30250Y-22625
X32750Y-21625
X73375Y-45125
X75875Y-44125
X127750Y-22625
X130250Y-21625
X82750Y-30125
X85250Y-29125
X135250Y-30125
X137750Y-29125
X28375Y-45125
X30875Y-44125
X35875Y-45125
X38375Y-44125
X84625Y-52625
X87125Y-51625
X105250Y-22625
X107750Y-21625
X18063Y-45125
X20563Y-44125
X60250Y-30125
X62750Y-29125
X17125Y-37625
X19625Y-36625
X62125Y-52625
X64625Y-51625
X142750Y-45125
X145250Y-44125
X80875Y-45125
X83375Y-44125
X82750Y-22625
X85250Y-21625
X86500Y-37625
X89000Y-36625
X37750Y-30125
X40250Y-29125
X150250Y-30125
X152750Y-29125
X152250Y-52875
X153250Y-55375
X99625Y-52625
X102125Y-51625
X135250Y-60125
X137750Y-59125
X60250Y-22625
X62750Y-21625
X103375Y-45125
X105875Y-44125
X118375Y-37625
X120875Y-36625
X15250Y-30125
X17750Y-29125
X101500Y-37625
X104000Y-36625
X116500Y-30125
X119000Y-29125
X43375Y-45125
X45875Y-44125
X127750Y-52625
X130250Y-51625
X37750Y-22625
X40250Y-21625
X142750Y-30125
X145250Y-29125
X142750Y-37625
X145250Y-36625
X135250Y-22625
X137750Y-21625
X103375Y-60125
X105875Y-59125
X90250Y-30125
X92750Y-29125
X88375Y-45125
X90875Y-44125
X127750Y-30125
X130250Y-29125
X15250Y-22625
X17750Y-21625
X64000Y-37625
X66500Y-36625
X77125Y-52625
X79625Y-51625
X112750Y-22625
X115250Y-21625
X34000Y-37625
X36500Y-36625
X67750Y-30125
X70250Y-29125
X26500Y-37625
X29000Y-36625
X32125Y-52625
X34625Y-51625
X19937Y-52625
X22437Y-51625
X58375Y-45125
X60875Y-44125
X90250Y-22625
X92750Y-21625
X65875Y-45125
X68375Y-44125
X45250Y-30125
X47750Y-29125
X56500Y-37625
X59000Y-36625
X142750Y-52625
X145250Y-51625
X50875Y-45125
X53375Y-44125
X67750Y-22625
X70250Y-21625
X109000Y-37625
X111500Y-36625
X22750Y-30125
X25250Y-29125
X92125Y-60125
X94625Y-59125
X47125Y-52625
X49625Y-51625
X120250Y-52625
X122750Y-51625
X45250Y-22625
X47750Y-21625
X25563Y-60125
X28063Y-59125
X135250Y-37625
X137750Y-36625
X142750Y-22625
X145250Y-21625
X112750Y-60125
X115250Y-59125
X97750Y-30125
X100250Y-29125
X115563Y-45125
X118063Y-44125
X34937Y-60125
X37437Y-59125
X22750Y-22625
X25250Y-21625
X39625Y-52625
X42125Y-51625
X69625Y-52625
X72125Y-51625
X120250Y-22625
X122750Y-21625
X142750Y-60125
X145250Y-59125
X75250Y-30125
X77750Y-29125
X95875Y-45125
X98375Y-44125
X92125Y-52625
X94625Y-51625
X135250Y-45125
X137750Y-44125
X63063Y-60125
X65563Y-59125
X97750Y-22625
X100250Y-21625
T6
X42500Y-35625
X128750Y-35625
X151250Y-20625
X121250Y-58125
X106250Y-28125
X50000Y-35625
X136250Y-50625
X31250Y-20625
X74375Y-43125
X128750Y-20625
X83750Y-28125
X136250Y-28125
X29375Y-43125
X36875Y-43125
X85625Y-50625
X106250Y-20625
X19063Y-43125
X61250Y-28125
X18125Y-35625
X63125Y-50625
X143750Y-43125
X81875Y-43125
X83750Y-20625
X87500Y-35625
X38750Y-28125
X151250Y-28125
X151250Y-54375
X100625Y-50625
X136250Y-58125
X61250Y-20625
X104375Y-43125
X119375Y-35625
X16250Y-28125
X102500Y-35625
X117500Y-28125
X44375Y-43125
X128750Y-50625
X38750Y-20625
X143750Y-28125
X143750Y-35625
X136250Y-20625
X104375Y-58125
X91250Y-28125
X89375Y-43125
X128750Y-28125
X16250Y-20625
X65000Y-35625
X78125Y-50625
X113750Y-20625
X35000Y-35625
X68750Y-28125
X27500Y-35625
X33125Y-50625
X20937Y-50625
X59375Y-43125
X91250Y-20625
X66875Y-43125
X46250Y-28125
X57500Y-35625
X143750Y-50625
X51875Y-43125
X68750Y-20625
X110000Y-35625
X23750Y-28125
X93125Y-58125
X48125Y-50625
X121250Y-50625
X46250Y-20625
X26563Y-58125
X136250Y-35625
X143750Y-20625
X113750Y-58125
X98750Y-28125
X116563Y-43125
X35937Y-58125
X23750Y-20625
X40625Y-50625
X70625Y-50625
X121250Y-20625
X143750Y-58125
X76250Y-28125
X96875Y-43125
X93125Y-50625
X136250Y-43125
X64063Y-58125
X98750Y-20625
X151250Y-39375
X53750Y-28125
X72500Y-35625
X55625Y-50625
X128750Y-43125
X76250Y-20625
X95000Y-35625
X31250Y-28125
X17187Y-58125
X80000Y-35625
X110937Y-50625
X128750Y-58125
X53750Y-20625
T0
M30
