M48
;DRILL file {KiCad (6.0.0-rc1-dev-711-gaf8715da8)} date 11/26/2018 1:45:58 AM
;FORMAT={2:4/ absolute / inch / suppress leading zeros}
FMAT,2
INCH,TZ
T1C0.0080
T2C0.0100
T3C0.0394
T4C0.1063
%
G90
G05
M72
T1
X14480Y-19125
X14490Y-26605
X14690Y-40385
X14790Y-45755
X15010Y-49655
X15790Y-36745
X15790Y-52855
X16670Y-24345
X16750Y-44125
X16860Y-36165
X18100Y-25625
X18250Y-26025
X18250Y-26625
X18280Y-57725
X18760Y-27135
X18830Y-39685
X18920Y-55435
X19096Y-47457
X19342Y-55781
X19390Y-32825
X19410Y-47765
X19575Y-34048
X19578Y-18106
X19740Y-18625
X19780Y-50485
X19789Y-27653
X19795Y-26554
X19810Y-17405
X19850Y-30275
X19880Y-47585
X19987Y-26162
X20006Y-25423
X20110Y-40135
X20132Y-19179
X20150Y-25850
X20205Y-31397
X20280Y-19735
X20510Y-41221
X20650Y-37925
X21014Y-38704
X21120Y-58055
X21320Y-61155
X21400Y-32115
X21610Y-39615
X21710Y-26165
X21750Y-26975
X22280Y-53495
X22376Y-49228
X22470Y-55655
X22570Y-59565
X22800Y-41175
X22860Y-19713
X22930Y-24375
X23000Y-57005
X23150Y-33445
X23670Y-54655
X24370Y-45415
X24491Y-53731
X24870Y-57570
X25052Y-18062
X25078Y-25563
X25100Y-43475
X25239Y-54933
X25250Y-58425
X25304Y-40166
X25536Y-32667
X25660Y-55361
X25923Y-53753
X26091Y-26652
X26250Y-18875
X26394Y-48042
X26405Y-33062
X26680Y-27055
X27033Y-25597
X27097Y-25154
X27130Y-54485
X27149Y-28610
X27560Y-52715
X28380Y-48495
X28510Y-55675
X28820Y-26225
X28850Y-17935
X28970Y-33193
X28980Y-33960
X29050Y-25475
X29150Y-27125
X29300Y-49545
X29400Y-19575
X29430Y-45795
X29580Y-18265
X30320Y-56075
X30380Y-56845
X30432Y-57894
X30546Y-40562
X30620Y-55010
X30825Y-41479
X30870Y-59055
X30899Y-36747
X30910Y-33665
X31000Y-39075
X31110Y-24075
X31500Y-40925
X31590Y-32075
X31842Y-19463
X31872Y-54953
X32002Y-56079
X32020Y-57055
X32300Y-59415
X32380Y-58305
X32510Y-45695
X32580Y-18063
X32710Y-57745
X32750Y-54125
X32847Y-26546
X32980Y-43800
X33100Y-25625
X33243Y-47786
X33311Y-40556
X33450Y-26425
X33690Y-32945
X33900Y-27135
X34063Y-49188
X34300Y-18575
X34310Y-46685
X34402Y-25483
X34440Y-52555
X34500Y-31525
X34500Y-39325
X34519Y-24049
X34594Y-55562
X34649Y-28921
X34840Y-54475
X34900Y-58805
X35000Y-26425
X35350Y-17275
X35549Y-25454
X35650Y-61475
X35900Y-25445
X36038Y-33000
X36060Y-34320
X36070Y-24095
X36158Y-55286
X36320Y-37955
X36550Y-19575
X36600Y-50405
X36700Y-26135
X36700Y-34625
X36719Y-40286
X36740Y-54745
X36750Y-49075
X36800Y-27075
X36880Y-53255
X37230Y-57815
X37330Y-55245
X37420Y-25563
X38110Y-41153
X38220Y-33795
X38399Y-36663
X38452Y-49976
X38480Y-48605
X38770Y-58095
X39030Y-41585
X39160Y-49975
X39260Y-51195
X39341Y-19463
X39380Y-56325
X39505Y-49208
X39640Y-55155
X39660Y-49565
X39910Y-46435
X40080Y-18063
X40100Y-34445
X40100Y-57075
X40150Y-58795
X40250Y-55446
X40274Y-43817
X40280Y-54685
X40310Y-56015
X40340Y-60445
X40450Y-53185
X40590Y-25955
X40730Y-39765
X40790Y-36515
X40890Y-44115
X41122Y-33590
X41150Y-52255
X41160Y-31715
X41230Y-55265
X41241Y-56614
X41490Y-57795
X41572Y-53907
X41700Y-49336
X41824Y-54095
X41849Y-53792
X42000Y-40975
X42006Y-34650
X42047Y-53758
X42068Y-25459
X42095Y-48773
X42149Y-28610
X42180Y-52675
X42290Y-43905
X42330Y-41835
X42340Y-49665
X42710Y-37345
X42800Y-26325
X42820Y-55825
X42830Y-52885
X42850Y-18575
X42850Y-27125
X42905Y-41568
X42975Y-50990
X43180Y-44115
X43420Y-59465
X43430Y-41960
X43430Y-49115
X43437Y-41097
X43450Y-48375
X43450Y-57715
X43530Y-46625
X43565Y-57217
X43570Y-34925
X43620Y-24175
X43630Y-56470
X43690Y-61365
X43692Y-54791
X43816Y-55366
X43870Y-26175
X44056Y-54933
X44060Y-39505
X44064Y-34060
X44140Y-34845
X44194Y-33900
X44346Y-34681
X44400Y-19625
X44430Y-49705
X44440Y-52795
X44590Y-44615
X44600Y-55775
X44647Y-34268
X44650Y-54175
X44800Y-48375
X44920Y-25563
X45074Y-55403
X45154Y-55594
X45200Y-42105
X45246Y-58827
X45316Y-55713
X45388Y-42353
X45483Y-42588
X45484Y-59926
X45522Y-41688
X45683Y-59947
X45750Y-48475
X45750Y-54545
X45800Y-39415
X45830Y-45355
X45912Y-60098
X46028Y-49121
X46220Y-32185
X46271Y-55173
X46450Y-55650
X46470Y-49605
X46536Y-60025
X46540Y-37075
X46785Y-59880
X46844Y-40183
X46909Y-19463
X47100Y-54175
X47181Y-53655
X47300Y-51425
X47300Y-54925
X47328Y-18062
X47400Y-59100
X47523Y-56013
X47550Y-20375
X47560Y-56515
X47630Y-22685
X47670Y-25130
X47700Y-40625
X47700Y-25695
X47747Y-43528
X47761Y-54709
X47790Y-46535
X47800Y-33315
X47810Y-33855
X48060Y-56105
X48110Y-52865
X48129Y-54839
X48160Y-25925
X48200Y-26575
X48200Y-41175
X48210Y-25370
X48224Y-55021
X48300Y-57500
X48330Y-39675
X48350Y-27175
X48350Y-54275
X48474Y-55251
X48503Y-56521
X48640Y-59985
X49000Y-52925
X49000Y-57180
X49070Y-56262
X49209Y-49250
X49309Y-54835
X49310Y-27705
X49413Y-59586
X49570Y-60685
X49590Y-49945
X49598Y-24017
X49620Y-56455
X49631Y-54820
X49649Y-28610
X49680Y-48340
X49699Y-54516
X49730Y-41485
X49804Y-54346
X49837Y-54786
X49990Y-25895
X50000Y-42125
X50100Y-21275
X50105Y-26285
X50280Y-52885
X50530Y-60155
X50576Y-26098
X50590Y-48615
X50620Y-43955
X50774Y-54347
X50798Y-49465
X50990Y-32475
X51110Y-37765
X51153Y-34188
X51240Y-49685
X51300Y-19425
X51355Y-47895
X51530Y-50385
X51610Y-18775
X51680Y-60725
X51720Y-24145
X51780Y-26155
X51790Y-27175
X51790Y-49509
X52057Y-32905
X52220Y-56895
X52240Y-52065
X52437Y-35990
X52500Y-25375
X52780Y-54015
X52814Y-41688
X52850Y-48545
X52922Y-43296
X53550Y-33575
X53623Y-25287
X53850Y-61545
X54150Y-27063
X54160Y-31695
X54200Y-49525
X54300Y-41325
X54310Y-46015
X54341Y-19463
X54520Y-42125
X54630Y-51235
X54639Y-40497
X55080Y-18063
X55410Y-60785
X55930Y-51685
X56170Y-33063
X56270Y-52445
X56300Y-26375
X56490Y-56035
X56761Y-49188
X56780Y-53965
X56840Y-47955
X56938Y-25491
X56939Y-27645
X56940Y-46445
X57550Y-18675
X57660Y-57345
X57900Y-24145
X57992Y-41096
X58340Y-52815
X58390Y-46965
X58440Y-50365
X58798Y-32550
X59003Y-33191
X59020Y-54885
X59200Y-19475
X59260Y-49615
X59482Y-33724
X59630Y-58705
X59700Y-27075
X59700Y-44825
X59920Y-25563
X60070Y-48805
X60200Y-28625
X60350Y-60005
X60400Y-41835
X60576Y-42277
X60825Y-41517
X60899Y-36895
X60990Y-40875
X61365Y-55784
X61575Y-48078
X61950Y-46485
X62000Y-42725
X62031Y-48062
X62300Y-33845
X62580Y-18063
X62635Y-19811
X62720Y-25731
X62760Y-34555
X62960Y-26415
X63080Y-26005
X63330Y-52725
X63370Y-31665
X63450Y-27025
X63510Y-32955
X63610Y-25755
X63700Y-36225
X64000Y-46935
X64230Y-60045
X64462Y-49207
X64649Y-28607
X64659Y-23856
X64699Y-59535
X64800Y-20475
X64860Y-39825
X64900Y-41975
X65073Y-55334
X65080Y-41365
X65242Y-55226
X65594Y-54655
X65630Y-24425
X65690Y-40215
X65700Y-43775
X65765Y-32563
X65790Y-55585
X65883Y-32842
X65900Y-18725
X65900Y-34495
X66021Y-54220
X66082Y-32815
X66184Y-35033
X66230Y-48715
X66236Y-55203
X66290Y-26130
X66410Y-55665
X66570Y-53675
X66800Y-19775
X66800Y-26175
X66850Y-25575
X66930Y-39145
X67130Y-26705
X67170Y-51115
X67200Y-57585
X67520Y-60635
X67650Y-31425
X67727Y-40205
X67814Y-41688
X67880Y-46915
X67950Y-45475
X68030Y-56325
X68100Y-42725
X68100Y-59825
X68197Y-35224
X68254Y-56916
X68409Y-19563
X68526Y-56675
X68530Y-22015
X68600Y-38975
X68700Y-41295
X68810Y-59685
X68875Y-25287
X68880Y-58465
X68910Y-55835
X69000Y-36575
X69100Y-47295
X69250Y-40275
X69264Y-53654
X69295Y-48063
X69295Y-49188
X69330Y-55175
X69511Y-53447
X69550Y-30625
X69660Y-55585
X69768Y-58727
X69771Y-57269
X69900Y-26915
X69905Y-56362
X69946Y-57801
X70030Y-54665
X70080Y-18063
X70090Y-34065
X70126Y-57873
X70153Y-56984
X70200Y-58869
X70261Y-55434
X70280Y-58510
X70281Y-56161
X70281Y-57241
X70490Y-54425
X70500Y-42925
X70590Y-55050
X70600Y-42125
X70674Y-41531
X70700Y-31075
X71000Y-32925
X71000Y-44325
X71050Y-34775
X71056Y-41268
X71130Y-55380
X71189Y-52565
X71196Y-47686
X71273Y-58999
X71410Y-50000
X71450Y-26175
X71450Y-54050
X71473Y-27398
X71700Y-18625
X71750Y-49565
X71771Y-42688
X71804Y-52880
X71840Y-50735
X71848Y-54243
X71850Y-46325
X71960Y-58170
X72030Y-55180
X72050Y-43975
X72200Y-42175
X72210Y-53685
X72222Y-54223
X72290Y-56260
X72332Y-59829
X72375Y-55310
X72428Y-53589
X72434Y-54220
X72500Y-47275
X72548Y-53740
X72610Y-56629
X72633Y-54212
X72752Y-60395
X72817Y-52179
X72820Y-60170
X72827Y-40062
X72850Y-28925
X72851Y-53899
X72890Y-42800
X72900Y-37375
X72900Y-61270
X72913Y-58442
X72980Y-48795
X73000Y-31775
X73040Y-47835
X73044Y-41153
X73079Y-54265
X73155Y-55648
X73170Y-38585
X73170Y-59580
X73210Y-43975
X73222Y-56961
X73228Y-58443
X73273Y-39675
X73280Y-36835
X73286Y-60847
X73296Y-56281
X73310Y-55970
X73370Y-42325
X73400Y-61575
X73425Y-54266
X73438Y-34252
X73450Y-46065
X73450Y-59800
X73472Y-39690
X73538Y-33000
X73657Y-54264
X73689Y-59524
X73729Y-52318
X73730Y-37855
X73760Y-56610
X73966Y-59659
X73996Y-59957
X74020Y-19695
X74040Y-40145
X74070Y-60870
X74106Y-55959
X74170Y-56290
X74180Y-52667
X74200Y-34625
X74240Y-59530
X74345Y-52550
X74373Y-59816
X74409Y-58613
X74410Y-33058
X74552Y-54679
X74575Y-58496
X74590Y-47815
X74590Y-29618
X74657Y-57063
X74670Y-59245
X74684Y-35128
X74700Y-45575
X74750Y-19275
X74770Y-54400
X74850Y-37475
X74920Y-25563
X74940Y-54920
X74980Y-21235
X74980Y-47835
X75000Y-26785
X75000Y-34605
X75000Y-44475
X75050Y-28575
X75261Y-54889
X75329Y-49964
X75350Y-59175
X75480Y-48715
X75485Y-40562
X75494Y-54446
X75509Y-58508
X75544Y-56560
X75544Y-56358
X75544Y-55619
X75547Y-57347
X75564Y-55420
X75585Y-56011
X75686Y-54390
X75714Y-58492
X75740Y-31555
X75750Y-42725
X75810Y-57510
X75844Y-32976
X75870Y-27063
X76049Y-49103
X76080Y-56735
X76084Y-55051
X76200Y-35775
X76250Y-57216
X76250Y-34725
X76250Y-59575
X76257Y-54171
X76350Y-33775
X76380Y-54422
X76400Y-41275
X76450Y-45725
X76490Y-53035
X76550Y-29375
X76574Y-55217
X76650Y-36925
X76659Y-55653
X76660Y-48380
X76700Y-44925
X76720Y-50245
X76723Y-19463
X76790Y-51315
X76880Y-31485
X77010Y-43385
X77166Y-27135
X77260Y-35650
X77458Y-27507
X77580Y-18063
X77623Y-32888
X77650Y-55775
X77700Y-25977
X77781Y-57734
X77823Y-42510
X77960Y-57642
X78060Y-52595
X78150Y-34475
X78150Y-56875
X78150Y-59325
X78200Y-43075
X78218Y-47546
X78226Y-54433
X78300Y-58575
X78350Y-44525
X78350Y-51835
X78400Y-26375
X78400Y-42125
X78500Y-25015
X78500Y-36675
X78550Y-33186
X78610Y-31425
X78640Y-55145
X78660Y-18645
X78750Y-54165
X78825Y-25951
X78900Y-36025
X78990Y-28065
X79080Y-52705
X79158Y-50261
X79250Y-47795
X79455Y-49188
X79540Y-54225
X79550Y-38775
X79750Y-19955
X79750Y-47865
X79888Y-26975
X79910Y-23675
X79920Y-28205
X80010Y-49605
X80120Y-52855
X80143Y-25680
X80254Y-26736
X80333Y-61257
X80340Y-31585
X80410Y-27955
X80530Y-60425
X80550Y-57075
X80610Y-50895
X80700Y-43175
X80850Y-58975
X80860Y-27999
X81155Y-26963
X81310Y-46625
X81360Y-34485
X81370Y-48715
X81380Y-49675
X81490Y-26115
X81570Y-52805
X81670Y-50615
X81700Y-60835
X81840Y-25595
X81930Y-26895
X82080Y-52166
X82200Y-53275
X82244Y-34781
X82300Y-49605
X82330Y-33065
X82380Y-33915
X82590Y-18025
X82610Y-51905
X82660Y-47735
X82760Y-60255
X82800Y-45125
X82850Y-55685
X83010Y-54915
X83040Y-51835
X83061Y-50687
X83100Y-57325
X83188Y-40562
X83263Y-40377
X83310Y-46585
X83390Y-49545
X83560Y-31265
X83650Y-36375
X83690Y-51655
X83780Y-23845
X83929Y-25287
X84000Y-40885
X84150Y-52005
X84150Y-56220
X84207Y-53347
X84250Y-47795
X84320Y-47255
X84342Y-19463
X84350Y-41475
X84380Y-49505
X84420Y-51125
X84422Y-53430
X84490Y-55045
X84600Y-55885
X84724Y-53624
X84750Y-57825
X84820Y-25515
X84951Y-59007
X84970Y-30145
X85052Y-18062
X85270Y-53055
X85280Y-47295
X85290Y-33655
X85425Y-31976
X85499Y-40406
X85541Y-59342
X85600Y-39375
X85600Y-55005
X85610Y-57515
X85700Y-43475
X85757Y-26760
X85800Y-42025
X85810Y-58875
X85827Y-59433
X85971Y-31504
X86000Y-34525
X86005Y-31990
X86030Y-51805
X86200Y-36325
X86250Y-18825
X86400Y-32725
X86401Y-55435
X86460Y-50045
X86536Y-52754
X86542Y-52954
X86690Y-30435
X86740Y-55065
X86875Y-46395
X86880Y-52475
X86923Y-48062
X86950Y-41095
X87015Y-47777
X87030Y-50225
X87050Y-25325
X87160Y-49395
X87200Y-27025
X87350Y-40525
X87450Y-57315
X87550Y-54965
X87870Y-40910
X87875Y-25606
X87950Y-50130
X88070Y-48275
X88270Y-24145
X88290Y-49560
X88350Y-39625
X88430Y-57345
X88438Y-34188
X88477Y-27464
X88604Y-32975
X88730Y-54245
X88780Y-55505
X89000Y-53165
X89050Y-26245
X89150Y-32425
X89250Y-19625
X89320Y-51875
X89385Y-33142
X89550Y-60075
X89620Y-53730
X89700Y-57175
X89800Y-38875
X89810Y-28855
X89810Y-53105
X89876Y-51495
X89940Y-51270
X90030Y-44855
X90214Y-54678
X90260Y-26735
X90287Y-52004
X90432Y-54557
X90460Y-41120
X90740Y-48925
X90899Y-36644
X91200Y-55535
X91400Y-49575
X91710Y-47925
X91799Y-42692
X91841Y-19463
X92000Y-51275
X92329Y-25171
X92410Y-27775
X92580Y-18063
X92700Y-43225
X92800Y-39125
X93030Y-30335
X93230Y-26285
X93240Y-52465
X93273Y-42749
X93420Y-54845
X93639Y-25318
X93690Y-53255
X93730Y-59285
X93750Y-51915
X93800Y-53690
X93962Y-32990
X94010Y-28105
X94090Y-24155
X94148Y-50561
X94400Y-61405
X94470Y-31955
X94568Y-49133
X94590Y-17265
X94595Y-56421
X94680Y-41105
X94740Y-53085
X94800Y-27925
X94810Y-27275
X94835Y-57625
X95000Y-25965
X95000Y-48285
X95050Y-41825
X95100Y-47325
X95250Y-44075
X95361Y-37479
X95380Y-48975
X95660Y-50525
X95709Y-27554
X95823Y-40562
X96040Y-32942
X96430Y-27305
X96450Y-33815
X96491Y-33057
X96650Y-18655
X96710Y-26125
X96750Y-26645
X96800Y-57875
X96870Y-52045
X96900Y-19575
X96920Y-25615
X97000Y-38775
X97080Y-54675
X97120Y-24045
X97350Y-45325
X97350Y-53600
X97450Y-58625
X97510Y-27885
X98030Y-42745
X98200Y-48865
X98250Y-48010
X98296Y-40398
X98464Y-48417
X98490Y-49495
X98533Y-19556
X98920Y-55515
X98940Y-41015
X99010Y-48605
X99100Y-38575
X99378Y-48062
X99469Y-27263
X99940Y-27995
X100078Y-27524
X100080Y-18063
X100117Y-26916
X100350Y-58825
X100400Y-33625
X100450Y-34575
X100450Y-56275
X100490Y-61425
X100710Y-43485
X100750Y-60025
X100900Y-42175
X101000Y-26125
X101010Y-30175
X101120Y-18665
X101150Y-42725
X101350Y-45975
X101590Y-28185
X101681Y-24361
X101897Y-27513
X102149Y-28610
X102260Y-29605
X102470Y-41235
X102580Y-28865
X102618Y-26687
X102648Y-49473
X102790Y-51260
X102921Y-54982
X103110Y-40060
X103120Y-43745
X103210Y-54585
X103280Y-50635
X103449Y-55402
X103449Y-32766
X103470Y-52440
X103499Y-33062
X103890Y-23955
X104018Y-33718
X104060Y-19755
X104150Y-26925
X104220Y-51005
X104500Y-44845
X104547Y-34924
X104800Y-25731
X104890Y-19255
X104890Y-59255
X105050Y-27975
X105090Y-38895
X105130Y-37315
X105416Y-55504
X105470Y-31675
X105480Y-48415
X105523Y-37330
X105560Y-38980
X105660Y-55505
X105909Y-19563
X105930Y-55905
X106115Y-57183
X106330Y-36535
X106380Y-41675
X106410Y-40115
X106420Y-51735
X106600Y-37612
X106700Y-53875
X107188Y-26688
X107300Y-47475
X107470Y-27855
X107580Y-18063
X107630Y-49525
X107708Y-26611
X107709Y-55235
X107770Y-33635
X108400Y-60075
X108420Y-31595
X108490Y-36585
X108500Y-32925
X108600Y-26125
X108750Y-43975
X108800Y-59225
X108900Y-61275
X108920Y-28265
X108940Y-35975
X109350Y-18775
X109400Y-57975
X109450Y-39175
X109607Y-48063
X109770Y-28845
X109830Y-51005
X110131Y-27729
X110270Y-56955
X110300Y-37575
X110391Y-23481
X110510Y-26505
X110540Y-29061
X110938Y-33653
X111038Y-32956
X111440Y-19755
X111600Y-31955
X111650Y-54955
X111690Y-25817
X111760Y-23845
X111910Y-33805
X111960Y-26599
X112030Y-50275
X112090Y-33115
X112100Y-44225
X112240Y-29585
X112250Y-41545
X112250Y-45725
X112280Y-31265
X112381Y-55561
X112450Y-19235
X112600Y-28195
X112600Y-34565
X112800Y-46925
X112990Y-53065
X113120Y-48225
X113200Y-42025
X113220Y-27855
X113390Y-49319
X113586Y-33675
X113690Y-31305
X113810Y-36535
X113887Y-34900
X113974Y-49355
X114002Y-32178
X114096Y-33739
X114156Y-49442
X114260Y-27745
X114300Y-41205
X114337Y-52020
X114350Y-38625
X114400Y-33325
X114440Y-31035
X114453Y-33943
X114520Y-50085
X114703Y-19521
X115080Y-18063
X115100Y-23065
X115190Y-34315
X115210Y-49195
X115230Y-29145
X115240Y-27045
X115253Y-40562
X115290Y-26145
X115312Y-36499
X115370Y-32815
X115425Y-47023
X115620Y-25595
X115690Y-37920
X115700Y-51265
X115710Y-32105
X115890Y-38265
X115898Y-55115
X115991Y-57240
X116020Y-47365
X116106Y-54654
X116116Y-54064
X116130Y-34495
X116270Y-55415
X116300Y-54711
X116380Y-36855
X116520Y-56475
X116527Y-35499
X116562Y-25562
X116850Y-52885
X117060Y-24335
X117260Y-45895
X117270Y-31675
X117284Y-40186
X117390Y-48895
X117470Y-42525
X117500Y-18765
X117500Y-60075
X117520Y-46875
X117600Y-36525
X117650Y-58275
X117750Y-59175
X117930Y-56455
X117990Y-55165
X118045Y-34187
X118052Y-33062
X118131Y-41884
X118193Y-50074
X118233Y-41712
X118340Y-47385
X118415Y-41955
X118880Y-40615
X118930Y-26965
X118953Y-47358
X118972Y-25797
X119020Y-49095
X119250Y-19625
X119320Y-30675
X119410Y-42015
X119550Y-38375
X119570Y-47475
X119617Y-46111
X119730Y-27376
X119850Y-39675
X119856Y-27541
X119921Y-28396
X119940Y-55355
X119950Y-51285
X120080Y-19235
X120142Y-45767
X120180Y-41585
X120190Y-45245
X120259Y-38575
X120330Y-38085
X120410Y-47135
X120435Y-39854
X120470Y-39435
X120490Y-35305
X120568Y-33632
X120620Y-44295
X120627Y-39781
X120678Y-45275
X120762Y-55199
X120870Y-38675
X120940Y-40755
X120960Y-44915
X121070Y-37540
X121082Y-40172
X121130Y-33335
X121130Y-40630
X121140Y-34125
X121179Y-45428
X121194Y-38695
X121220Y-28435
X121237Y-38493
X121250Y-41000
X121280Y-24145
X121426Y-44410
X121644Y-37208
X121654Y-44157
X121707Y-19562
X121920Y-46645
X121930Y-44916
X121987Y-57077
X122000Y-39850
X122035Y-27749
X122070Y-34955
X122071Y-27492
X122110Y-28435
X122110Y-28645
X122191Y-49188
X122300Y-39700
X122350Y-40000
X122390Y-32105
X122440Y-53855
X122441Y-39279
X122442Y-44567
X122470Y-32515
X122487Y-26081
X122570Y-32925
X122580Y-18063
X122707Y-44276
X122718Y-34663
X122760Y-37265
X122776Y-39899
X122870Y-33145
X122930Y-34915
X122987Y-33788
X123072Y-39919
X123158Y-34575
X123160Y-34285
X123186Y-33772
X123311Y-38972
X123330Y-33602
X123400Y-33285
X123512Y-38404
X123550Y-33830
X123630Y-33310
X123711Y-43152
X123740Y-38859
X123798Y-39999
X123808Y-39047
X123860Y-33310
X123919Y-38391
X123940Y-40765
X123940Y-48385
X124320Y-36025
X124330Y-40145
X124460Y-37915
X124498Y-41549
X124560Y-45345
X124612Y-42382
X124613Y-42171
X124629Y-41846
X124649Y-51869
X124670Y-46855
X124690Y-41480
X124739Y-38562
X124800Y-60425
X124920Y-26105
X124942Y-38534
X124967Y-38331
X125025Y-42462
X125040Y-28075
X125060Y-27005
X125120Y-40795
X125150Y-58075
X125150Y-59125
X125170Y-37555
X125250Y-34485
X125290Y-54195
X125310Y-49655
X125520Y-41255
X125590Y-42615
X125610Y-46425
X125630Y-40541
X125700Y-43945
X125993Y-40415
X126020Y-31695
X126031Y-42460
X126140Y-18705
X126231Y-17909
X126240Y-56435
X126244Y-49083
X126304Y-41553
X126380Y-42595
X126400Y-19775
X126400Y-42005
X126410Y-33775
X126630Y-33315
X126820Y-43875
X126970Y-36495
X126970Y-41175
X127190Y-39165
X127250Y-40085
X127428Y-48617
X127430Y-41895
X127660Y-55495
X127727Y-40472
X127830Y-42695
X127908Y-53860
X127920Y-38745
X128020Y-54185
X128250Y-40165
X128340Y-38365
X128860Y-32005
X129050Y-52275
X129050Y-54195
X129100Y-55005
X129200Y-59275
X129270Y-19595
X129580Y-46435
X129590Y-37495
X129688Y-56688
X129691Y-41688
X129720Y-38750
X129800Y-26895
X129995Y-38250
X130000Y-60175
X130020Y-27446
X130055Y-45504
X130100Y-57725
X130113Y-40505
X130189Y-38152
X130210Y-54705
X130220Y-31165
X130280Y-26685
X130400Y-33345
X130593Y-26961
X130600Y-23105
X130820Y-27485
X130938Y-26918
X130954Y-49160
X131000Y-38150
X131147Y-25815
X131175Y-40661
X131180Y-26605
X131250Y-41325
X131290Y-20875
X131380Y-34645
X131400Y-24075
X131400Y-37700
X131450Y-35475
X131468Y-26793
X131620Y-31895
X131750Y-58390
X132149Y-51703
X132200Y-20525
X132250Y-18875
X132250Y-36455
X132300Y-48555
X132400Y-50775
X132519Y-55127
X132600Y-49675
X132600Y-53925
X132640Y-17425
X132700Y-42825
X132700Y-56025
X132730Y-29365
X132750Y-23625
X132750Y-60125
X132830Y-37585
X132920Y-57325
X133171Y-35232
X133400Y-41375
X133542Y-34964
X133643Y-27549
X133691Y-20075
X133780Y-31225
X133850Y-23625
X134030Y-48905
X134080Y-31825
X134170Y-36555
X134200Y-25755
X134210Y-29095
X134480Y-56805
X134550Y-39525
X134710Y-23485
X134804Y-33733
X134810Y-34485
X134840Y-35095
X135050Y-42975
X135100Y-20425
X135210Y-36255
X135263Y-18062
X135550Y-46775
X135660Y-21635
X135753Y-27310
X136286Y-38586
X136373Y-49517
X136700Y-32075
X136870Y-22865
X136880Y-37325
X136960Y-27485
X137043Y-57316
X137159Y-30124
X137174Y-55403
X137210Y-34745
X137250Y-53075
X137261Y-19984
X137312Y-55108
X137350Y-26895
X137490Y-19575
X137490Y-42905
X137650Y-55295
X137700Y-50325
X137720Y-33888
X137795Y-19787
X137850Y-31425
X138043Y-54805
X138550Y-25925
X138550Y-48725
X138652Y-37472
X138800Y-33375
X138850Y-53575
X139040Y-30160
X139180Y-30000
X139290Y-43325
X139750Y-18825
X139750Y-37975
X139750Y-55175
X139789Y-54099
X139800Y-58325
X139927Y-42089
X140060Y-28065
X140110Y-31725
X140130Y-35585
X140133Y-42352
X140180Y-24465
X140250Y-56575
X140450Y-46075
X140630Y-20265
X140843Y-50499
X140853Y-27464
X141119Y-35760
X141146Y-35324
X141270Y-48785
X141380Y-41665
X141500Y-55425
X141550Y-57475
X141640Y-21875
X141900Y-58865
X142000Y-19475
X142039Y-53585
X142060Y-54495
X142321Y-48108
X142348Y-42351
X142378Y-27358
X142394Y-55564
X142420Y-18063
X142460Y-28925
X142950Y-39375
X143663Y-31067
X143858Y-31009
X143900Y-31925
X144200Y-46775
X144250Y-23175
X144250Y-37275
X144650Y-24125
X144650Y-54475
X144770Y-19365
X144850Y-52775
X144990Y-27505
X145127Y-19428
X145210Y-41460
X145220Y-42585
X145310Y-18295
X145350Y-26010
X145350Y-57445
X145419Y-34058
X145430Y-26345
X145453Y-47872
X145463Y-53901
X145740Y-26250
X145750Y-45825
X145790Y-44695
X145853Y-47582
X145890Y-33705
X145900Y-31585
X145910Y-25655
X145923Y-27562
X145939Y-26492
X146020Y-26830
X146105Y-26613
X146300Y-41575
X146300Y-48575
X146310Y-34675
X146330Y-24135
X146340Y-58460
X146390Y-20855
X146450Y-44975
X146510Y-28355
X146639Y-40086
X146660Y-35685
X146680Y-37345
X146700Y-52925
X146934Y-45493
X147004Y-45689
X147082Y-56412
X147100Y-42175
X147149Y-43930
X147232Y-45990
X147500Y-20775
X147545Y-39178
X147550Y-19425
X147650Y-55575
X147670Y-23965
X147817Y-39045
X147832Y-39437
X147850Y-50925
X148000Y-32085
X148050Y-35875
X148290Y-39625
X148580Y-24255
X148590Y-40485
X148766Y-20227
X149000Y-21575
X149030Y-37315
X149090Y-52585
X149240Y-26125
X149275Y-24792
X149430Y-17915
X149510Y-25405
X149710Y-41315
X149800Y-18375
X149950Y-47275
X150300Y-44875
X150550Y-21725
X150550Y-32475
X150700Y-24325
X150770Y-59995
X151360Y-19540
X151950Y-23925
X152100Y-49375
X152290Y-55475
X152350Y-47125
X152380Y-40655
X152550Y-20005
X152700Y-31175
X153400Y-26825
X153480Y-18165
X154010Y-49125
X154210Y-20645
X154260Y-35175
X154760Y-19685
X155230Y-17485
X155360Y-21945
X156480Y-21110
X156560Y-18815
X156600Y-22355
X156740Y-21325
T2
X45611Y-57142
X45611Y-57575
X45611Y-58008
X45611Y-58441
X46044Y-57142
X46044Y-57575
X46044Y-58008
X46044Y-58441
X46478Y-57142
X46478Y-57575
X46478Y-58008
X46478Y-58441
X46911Y-57142
X46911Y-57575
X46911Y-58008
X46911Y-58441
X121768Y-41432
X121768Y-41865
X121768Y-42298
X121768Y-42731
X122201Y-41432
X122201Y-41865
X122201Y-42298
X122201Y-42731
X122634Y-41432
X122634Y-41865
X122634Y-42298
X122634Y-42731
X123067Y-41432
X123067Y-41865
X123067Y-42298
X123067Y-42731
T3
X81200Y-60575
X82200Y-60575
X74813Y-46875
X75813Y-46875
X76813Y-46875
X77813Y-46875
X78813Y-46875
X79813Y-46875
X80813Y-46875
X81813Y-46875
X82813Y-46875
X83813Y-46875
X84813Y-46875
X85813Y-46875
X86813Y-46875
X87813Y-46875
X88813Y-46875
X89813Y-46875
X90813Y-46875
T4
X108880Y-41145
X125000Y-24375
X63115Y-40560
T0
M30
