G04 #@! TF.GenerationSoftware,KiCad,Pcbnew,(6.0.0-rc1-dev-711-gaf8715da8)*
G04 #@! TF.CreationDate,2018-11-26T01:45:55-05:00*
G04 #@! TF.ProjectId,Kira,4B6972612E6B696361645F7063620000,1.02c*
G04 #@! TF.SameCoordinates,Original*
G04 #@! TF.FileFunction,Legend,Top*
G04 #@! TF.FilePolarity,Positive*
%FSLAX46Y46*%
G04 Gerber Fmt 4.6, Leading zero omitted, Abs format (unit mm)*
G04 Created by KiCad (PCBNEW (6.0.0-rc1-dev-711-gaf8715da8)) date 11/26/2018 1:45:55 AM*
%MOMM*%
%LPD*%
G01*
G04 APERTURE LIST*
%ADD10C,0.100000*%
%ADD11C,0.250000*%
%ADD12C,0.150000*%
%ADD13C,0.200000*%
G04 APERTURE END LIST*
D10*
G04 #@! TO.C,LED128*
X397763900Y-57441200D02*
X397763900Y-58941200D01*
X397763900Y-58941200D02*
X396163900Y-58941200D01*
X396163900Y-58941200D02*
X396163900Y-57441200D01*
X396163900Y-57441200D02*
X397763900Y-57441200D01*
D11*
X396128900Y-59204800D02*
G75*
G03X396128900Y-59204800I-127000J0D01*
G01*
D10*
G04 #@! TO.C,LED127*
X397763900Y-51446800D02*
X397763900Y-52946800D01*
X397763900Y-52946800D02*
X396163900Y-52946800D01*
X396163900Y-52946800D02*
X396163900Y-51446800D01*
X396163900Y-51446800D02*
X397763900Y-51446800D01*
D11*
X396128900Y-53210400D02*
G75*
G03X396128900Y-53210400I-127000J0D01*
G01*
D10*
G04 #@! TO.C,LED126*
X397763900Y-45452400D02*
X397763900Y-46952400D01*
X397763900Y-46952400D02*
X396163900Y-46952400D01*
X396163900Y-46952400D02*
X396163900Y-45452400D01*
X396163900Y-45452400D02*
X397763900Y-45452400D01*
D11*
X396128900Y-47216000D02*
G75*
G03X396128900Y-47216000I-127000J0D01*
G01*
G04 #@! TO.C,LED128*
D12*
X395422380Y-60300928D02*
X395422380Y-60777119D01*
X394422380Y-60777119D01*
X394898571Y-59967595D02*
X394898571Y-59634261D01*
X395422380Y-59491404D02*
X395422380Y-59967595D01*
X394422380Y-59967595D01*
X394422380Y-59491404D01*
X395422380Y-59062833D02*
X394422380Y-59062833D01*
X394422380Y-58824738D01*
X394470000Y-58681880D01*
X394565238Y-58586642D01*
X394660476Y-58539023D01*
X394850952Y-58491404D01*
X394993809Y-58491404D01*
X395184285Y-58539023D01*
X395279523Y-58586642D01*
X395374761Y-58681880D01*
X395422380Y-58824738D01*
X395422380Y-59062833D01*
X395422380Y-57539023D02*
X395422380Y-58110452D01*
X395422380Y-57824738D02*
X394422380Y-57824738D01*
X394565238Y-57919976D01*
X394660476Y-58015214D01*
X394708095Y-58110452D01*
X394517619Y-57158071D02*
X394470000Y-57110452D01*
X394422380Y-57015214D01*
X394422380Y-56777119D01*
X394470000Y-56681880D01*
X394517619Y-56634261D01*
X394612857Y-56586642D01*
X394708095Y-56586642D01*
X394850952Y-56634261D01*
X395422380Y-57205690D01*
X395422380Y-56586642D01*
X394850952Y-56015214D02*
X394803333Y-56110452D01*
X394755714Y-56158071D01*
X394660476Y-56205690D01*
X394612857Y-56205690D01*
X394517619Y-56158071D01*
X394470000Y-56110452D01*
X394422380Y-56015214D01*
X394422380Y-55824738D01*
X394470000Y-55729500D01*
X394517619Y-55681880D01*
X394612857Y-55634261D01*
X394660476Y-55634261D01*
X394755714Y-55681880D01*
X394803333Y-55729500D01*
X394850952Y-55824738D01*
X394850952Y-56015214D01*
X394898571Y-56110452D01*
X394946190Y-56158071D01*
X395041428Y-56205690D01*
X395231904Y-56205690D01*
X395327142Y-56158071D01*
X395374761Y-56110452D01*
X395422380Y-56015214D01*
X395422380Y-55824738D01*
X395374761Y-55729500D01*
X395327142Y-55681880D01*
X395231904Y-55634261D01*
X395041428Y-55634261D01*
X394946190Y-55681880D01*
X394898571Y-55729500D01*
X394850952Y-55824738D01*
G04 #@! TO.C,LED127*
X395422380Y-54331928D02*
X395422380Y-54808119D01*
X394422380Y-54808119D01*
X394898571Y-53998595D02*
X394898571Y-53665261D01*
X395422380Y-53522404D02*
X395422380Y-53998595D01*
X394422380Y-53998595D01*
X394422380Y-53522404D01*
X395422380Y-53093833D02*
X394422380Y-53093833D01*
X394422380Y-52855738D01*
X394470000Y-52712880D01*
X394565238Y-52617642D01*
X394660476Y-52570023D01*
X394850952Y-52522404D01*
X394993809Y-52522404D01*
X395184285Y-52570023D01*
X395279523Y-52617642D01*
X395374761Y-52712880D01*
X395422380Y-52855738D01*
X395422380Y-53093833D01*
X395422380Y-51570023D02*
X395422380Y-52141452D01*
X395422380Y-51855738D02*
X394422380Y-51855738D01*
X394565238Y-51950976D01*
X394660476Y-52046214D01*
X394708095Y-52141452D01*
X394517619Y-51189071D02*
X394470000Y-51141452D01*
X394422380Y-51046214D01*
X394422380Y-50808119D01*
X394470000Y-50712880D01*
X394517619Y-50665261D01*
X394612857Y-50617642D01*
X394708095Y-50617642D01*
X394850952Y-50665261D01*
X395422380Y-51236690D01*
X395422380Y-50617642D01*
X394422380Y-50284309D02*
X394422380Y-49617642D01*
X395422380Y-50046214D01*
G04 #@! TO.C,LED126*
X395422380Y-48235928D02*
X395422380Y-48712119D01*
X394422380Y-48712119D01*
X394898571Y-47902595D02*
X394898571Y-47569261D01*
X395422380Y-47426404D02*
X395422380Y-47902595D01*
X394422380Y-47902595D01*
X394422380Y-47426404D01*
X395422380Y-46997833D02*
X394422380Y-46997833D01*
X394422380Y-46759738D01*
X394470000Y-46616880D01*
X394565238Y-46521642D01*
X394660476Y-46474023D01*
X394850952Y-46426404D01*
X394993809Y-46426404D01*
X395184285Y-46474023D01*
X395279523Y-46521642D01*
X395374761Y-46616880D01*
X395422380Y-46759738D01*
X395422380Y-46997833D01*
X395422380Y-45474023D02*
X395422380Y-46045452D01*
X395422380Y-45759738D02*
X394422380Y-45759738D01*
X394565238Y-45854976D01*
X394660476Y-45950214D01*
X394708095Y-46045452D01*
X394517619Y-45093071D02*
X394470000Y-45045452D01*
X394422380Y-44950214D01*
X394422380Y-44712119D01*
X394470000Y-44616880D01*
X394517619Y-44569261D01*
X394612857Y-44521642D01*
X394708095Y-44521642D01*
X394850952Y-44569261D01*
X395422380Y-45140690D01*
X395422380Y-44521642D01*
X394422380Y-43664500D02*
X394422380Y-43854976D01*
X394470000Y-43950214D01*
X394517619Y-43997833D01*
X394660476Y-44093071D01*
X394850952Y-44140690D01*
X395231904Y-44140690D01*
X395327142Y-44093071D01*
X395374761Y-44045452D01*
X395422380Y-43950214D01*
X395422380Y-43759738D01*
X395374761Y-43664500D01*
X395327142Y-43616880D01*
X395231904Y-43569261D01*
X394993809Y-43569261D01*
X394898571Y-43616880D01*
X394850952Y-43664500D01*
X394803333Y-43759738D01*
X394803333Y-43950214D01*
X394850952Y-44045452D01*
X394898571Y-44093071D01*
X394993809Y-44140690D01*
G04 #@! TO.C,FID3*
D13*
X35441071Y-135540571D02*
X35107738Y-135540571D01*
X35107738Y-136064380D02*
X35107738Y-135064380D01*
X35583928Y-135064380D01*
X35964880Y-136064380D02*
X35964880Y-135064380D01*
X36441071Y-136064380D02*
X36441071Y-135064380D01*
X36679166Y-135064380D01*
X36822023Y-135112000D01*
X36917261Y-135207238D01*
X36964880Y-135302476D01*
X37012500Y-135492952D01*
X37012500Y-135635809D01*
X36964880Y-135826285D01*
X36917261Y-135921523D01*
X36822023Y-136016761D01*
X36679166Y-136064380D01*
X36441071Y-136064380D01*
X37345833Y-135064380D02*
X37964880Y-135064380D01*
X37631547Y-135445333D01*
X37774404Y-135445333D01*
X37869642Y-135492952D01*
X37917261Y-135540571D01*
X37964880Y-135635809D01*
X37964880Y-135873904D01*
X37917261Y-135969142D01*
X37869642Y-136016761D01*
X37774404Y-136064380D01*
X37488690Y-136064380D01*
X37393452Y-136016761D01*
X37345833Y-135969142D01*
G04 #@! TO.C,FID1*
X33941071Y-62983928D02*
X33941071Y-63317261D01*
X34464880Y-63317261D02*
X33464880Y-63317261D01*
X33464880Y-62841071D01*
X34464880Y-62460119D02*
X33464880Y-62460119D01*
X34464880Y-61983928D02*
X33464880Y-61983928D01*
X33464880Y-61745833D01*
X33512500Y-61602976D01*
X33607738Y-61507738D01*
X33702976Y-61460119D01*
X33893452Y-61412500D01*
X34036309Y-61412500D01*
X34226785Y-61460119D01*
X34322023Y-61507738D01*
X34417261Y-61602976D01*
X34464880Y-61745833D01*
X34464880Y-61983928D01*
X34464880Y-60460119D02*
X34464880Y-61031547D01*
X34464880Y-60745833D02*
X33464880Y-60745833D01*
X33607738Y-60841071D01*
X33702976Y-60936309D01*
X33750595Y-61031547D01*
G04 #@! TO.C,FID2*
X391366571Y-62983928D02*
X391366571Y-63317261D01*
X391890380Y-63317261D02*
X390890380Y-63317261D01*
X390890380Y-62841071D01*
X391890380Y-62460119D02*
X390890380Y-62460119D01*
X391890380Y-61983928D02*
X390890380Y-61983928D01*
X390890380Y-61745833D01*
X390938000Y-61602976D01*
X391033238Y-61507738D01*
X391128476Y-61460119D01*
X391318952Y-61412500D01*
X391461809Y-61412500D01*
X391652285Y-61460119D01*
X391747523Y-61507738D01*
X391842761Y-61602976D01*
X391890380Y-61745833D01*
X391890380Y-61983928D01*
X390985619Y-61031547D02*
X390938000Y-60983928D01*
X390890380Y-60888690D01*
X390890380Y-60650595D01*
X390938000Y-60555357D01*
X390985619Y-60507738D01*
X391080857Y-60460119D01*
X391176095Y-60460119D01*
X391318952Y-60507738D01*
X391890380Y-61079166D01*
X391890380Y-60460119D01*
G04 #@! TD*
M02*
