G04 #@! TF.GenerationSoftware,KiCad,Pcbnew,(6.0.0-rc1-dev-711-gaf8715da8)*
G04 #@! TF.CreationDate,2018-11-26T01:45:56-05:00*
G04 #@! TF.ProjectId,Kira,4B6972612E6B696361645F7063620000,1.02c*
G04 #@! TF.SameCoordinates,Original*
G04 #@! TF.FileFunction,Profile,NP*
%FSLAX46Y46*%
G04 Gerber Fmt 4.6, Leading zero omitted, Abs format (unit mm)*
G04 Created by KiCad (PCBNEW (6.0.0-rc1-dev-711-gaf8715da8)) date 11/26/2018 1:45:56 AM*
%MOMM*%
%LPD*%
G01*
G04 APERTURE LIST*
%ADD10C,0.127000*%
G04 APERTURE END LIST*
D10*
X370840000Y-42862500D02*
X372033800Y-42862500D01*
X217932000Y-42862500D02*
X219125800Y-42862500D01*
X226314000Y-42862500D02*
X225120200Y-42862500D01*
X73914000Y-42862500D02*
X72720200Y-42862500D01*
X65532000Y-42862500D02*
X66725800Y-42862500D01*
X75184000Y-157162500D02*
X76377800Y-157162500D01*
X83566000Y-157162500D02*
X82372200Y-157162500D01*
X247192800Y-157162500D02*
X245999000Y-157162500D01*
X254381000Y-157162500D02*
X253187200Y-157162500D01*
X351409000Y-157162500D02*
X352602800Y-157162500D01*
X359791000Y-157162500D02*
X358597200Y-157162500D01*
X379222000Y-42862500D02*
X378028200Y-42862500D01*
X375031000Y-45859700D02*
G75*
G02X372033800Y-42862500I0J2997200D01*
G01*
X378028200Y-42862500D02*
G75*
G02X375031000Y-45859700I-2997200J0D01*
G01*
X222123000Y-45859700D02*
G75*
G02X219125800Y-42862500I0J2997200D01*
G01*
X225120200Y-42862500D02*
G75*
G02X222123000Y-45859700I-2997200J0D01*
G01*
X72720200Y-42862500D02*
G75*
G02X69723000Y-45859700I-2997200J0D01*
G01*
X69723000Y-45859700D02*
G75*
G02X66725800Y-42862500I0J2997200D01*
G01*
X79375000Y-154165300D02*
G75*
G02X82372200Y-157162500I0J-2997200D01*
G01*
X76377800Y-157162500D02*
G75*
G02X79375000Y-154165300I2997200J0D01*
G01*
X250190000Y-154165300D02*
G75*
G02X253187200Y-157162500I0J-2997200D01*
G01*
X247192800Y-157162500D02*
G75*
G02X250190000Y-154165300I2997200J0D01*
G01*
X355600000Y-154165300D02*
G75*
G02X358597200Y-157162500I0J-2997200D01*
G01*
X352602800Y-157162500D02*
G75*
G02X355600000Y-154165300I2997200J0D01*
G01*
X379222000Y-42862500D02*
X397129000Y-42862500D01*
X226314000Y-42862500D02*
X370840000Y-42862500D01*
X73914000Y-42862500D02*
X217932000Y-42862500D01*
X34290000Y-42862500D02*
X65532000Y-42862500D01*
X75184000Y-157162500D02*
X34290000Y-157162500D01*
X245999000Y-157162500D02*
X83566000Y-157162500D01*
X351409000Y-157162500D02*
X254381000Y-157162500D01*
X359791000Y-157162500D02*
X391160000Y-157162500D01*
X393700000Y-154622500D02*
X393700000Y-63436500D01*
X391160000Y-157162500D02*
G75*
G03X393700000Y-154622500I0J2540000D01*
G01*
X31750000Y-154622500D02*
X31750000Y-45402500D01*
X31750000Y-154622500D02*
G75*
G03X34290000Y-157162500I2540000J0D01*
G01*
X34290000Y-42862500D02*
G75*
G03X31750000Y-45402500I0J-2540000D01*
G01*
X395224000Y-61912500D02*
X397129000Y-61912500D01*
X398653000Y-44386500D02*
X398653000Y-60388500D01*
X398653000Y-44386500D02*
G75*
G03X397129000Y-42862500I-1524000J0D01*
G01*
X397129000Y-61912500D02*
G75*
G03X398653000Y-60388500I0J1524000D01*
G01*
X395224000Y-61912500D02*
G75*
G03X393700000Y-63436500I0J-1524000D01*
G01*
X77470000Y-45656500D02*
X77470000Y-48958500D01*
X81280000Y-45656500D02*
X77470000Y-45656500D01*
X81280000Y-48958500D02*
X81280000Y-45656500D01*
X77470000Y-48958500D02*
X81280000Y-48958500D01*
X377444000Y-98101150D02*
X377444000Y-101923850D01*
X377444000Y-101923850D02*
X380746000Y-101923850D01*
X380746000Y-101923850D02*
X380746000Y-98101150D01*
X380746000Y-98101150D02*
X377444000Y-98101150D01*
X377444000Y-136201150D02*
X377444000Y-140023850D01*
X377444000Y-140023850D02*
X380746000Y-140023850D01*
X380746000Y-140023850D02*
X380746000Y-136201150D01*
X380746000Y-136201150D02*
X377444000Y-136201150D01*
X347986350Y-102806500D02*
X344163650Y-102806500D01*
X344163650Y-102806500D02*
X344163650Y-106108500D01*
X344163650Y-106108500D02*
X347986350Y-106108500D01*
X347986350Y-106108500D02*
X347986350Y-102806500D01*
X347986350Y-45656500D02*
X344163650Y-45656500D01*
X344163650Y-45656500D02*
X344163650Y-48958500D01*
X344163650Y-48958500D02*
X347986350Y-48958500D01*
X347986350Y-48958500D02*
X347986350Y-45656500D01*
X367036350Y-45656500D02*
X363213650Y-45656500D01*
X363213650Y-45656500D02*
X363213650Y-48958500D01*
X363213650Y-48958500D02*
X367036350Y-48958500D01*
X367036350Y-48958500D02*
X367036350Y-45656500D01*
X386086350Y-45656500D02*
X382263650Y-45656500D01*
X382263650Y-45656500D02*
X382263650Y-48958500D01*
X382263650Y-48958500D02*
X386086350Y-48958500D01*
X386086350Y-48958500D02*
X386086350Y-45656500D01*
X386086350Y-64706500D02*
X382263650Y-64706500D01*
X382263650Y-64706500D02*
X382263650Y-68008500D01*
X382263650Y-68008500D02*
X386086350Y-68008500D01*
X386086350Y-68008500D02*
X386086350Y-64706500D01*
X283692600Y-121856500D02*
X279869900Y-121856500D01*
X279869900Y-121856500D02*
X279869900Y-125158500D01*
X279869900Y-125158500D02*
X283692600Y-125158500D01*
X283692600Y-125158500D02*
X283692600Y-121856500D01*
X309886350Y-121856500D02*
X306063650Y-121856500D01*
X306063650Y-121856500D02*
X306063650Y-125158500D01*
X306063650Y-125158500D02*
X309886350Y-125158500D01*
X309886350Y-125158500D02*
X309886350Y-121856500D01*
X328936350Y-102806500D02*
X325113650Y-102806500D01*
X325113650Y-102806500D02*
X325113650Y-106108500D01*
X325113650Y-106108500D02*
X328936350Y-106108500D01*
X328936350Y-106108500D02*
X328936350Y-102806500D01*
X367036350Y-102806500D02*
X363213650Y-102806500D01*
X363213650Y-102806500D02*
X363213650Y-106108500D01*
X363213650Y-106108500D02*
X367036350Y-106108500D01*
X367036350Y-106108500D02*
X367036350Y-102806500D01*
X347986350Y-121856500D02*
X344163650Y-121856500D01*
X344163650Y-121856500D02*
X344163650Y-125158500D01*
X344163650Y-125158500D02*
X347986350Y-125158500D01*
X347986350Y-125158500D02*
X347986350Y-121856500D01*
X367036350Y-121856500D02*
X363213650Y-121856500D01*
X363213650Y-121856500D02*
X363213650Y-125158500D01*
X363213650Y-125158500D02*
X367036350Y-125158500D01*
X367036350Y-125158500D02*
X367036350Y-121856500D01*
X210820000Y-48958500D02*
X210820000Y-45656500D01*
X214630000Y-48958500D02*
X210820000Y-48958500D01*
X214630000Y-45656500D02*
X214630000Y-48958500D01*
X210820000Y-45656500D02*
X214630000Y-45656500D01*
X294157400Y-106108500D02*
X294157400Y-102806500D01*
X297980100Y-106108500D02*
X294157400Y-106108500D01*
X297980100Y-102806500D02*
X297980100Y-106108500D01*
X294157400Y-102806500D02*
X297980100Y-102806500D01*
X301307500Y-87058500D02*
X301307500Y-83756500D01*
X305117500Y-87058500D02*
X301307500Y-87058500D01*
X305117500Y-83756500D02*
X305117500Y-87058500D01*
X301307500Y-83756500D02*
X305117500Y-83756500D01*
X325120000Y-121856500D02*
X328930000Y-121856500D01*
X328930000Y-121856500D02*
X328930000Y-125158500D01*
X328930000Y-125158500D02*
X325120000Y-125158500D01*
X325120000Y-125158500D02*
X325120000Y-121856500D01*
X363220000Y-144208500D02*
X363220000Y-140906500D01*
X367030000Y-144208500D02*
X363220000Y-144208500D01*
X367030000Y-140906500D02*
X367030000Y-144208500D01*
X363220000Y-140906500D02*
X367030000Y-140906500D01*
X344170000Y-140906500D02*
X347980000Y-140906500D01*
X347980000Y-140906500D02*
X347980000Y-144208500D01*
X347980000Y-144208500D02*
X344170000Y-144208500D01*
X344170000Y-144208500D02*
X344170000Y-140906500D01*
X325120000Y-144208500D02*
X325120000Y-140906500D01*
X328930000Y-144208500D02*
X325120000Y-144208500D01*
X328930000Y-140906500D02*
X328930000Y-144208500D01*
X325120000Y-140906500D02*
X328930000Y-140906500D01*
X306063650Y-144208500D02*
X306063650Y-140906500D01*
X309886350Y-144208500D02*
X306063650Y-144208500D01*
X309886350Y-140906500D02*
X309886350Y-144208500D01*
X306063650Y-140906500D02*
X309886350Y-140906500D01*
X234626150Y-140906500D02*
X238448850Y-140906500D01*
X238448850Y-140906500D02*
X238448850Y-144208500D01*
X238448850Y-144208500D02*
X234626150Y-144208500D01*
X234626150Y-144208500D02*
X234626150Y-140906500D01*
X263201150Y-144208500D02*
X263201150Y-140906500D01*
X267023850Y-144208500D02*
X263201150Y-144208500D01*
X267023850Y-140906500D02*
X267023850Y-144208500D01*
X263201150Y-140906500D02*
X267023850Y-140906500D01*
X287013650Y-140906500D02*
X290836350Y-140906500D01*
X290836350Y-140906500D02*
X290836350Y-144208500D01*
X290836350Y-144208500D02*
X287013650Y-144208500D01*
X287013650Y-144208500D02*
X287013650Y-140906500D01*
X160807400Y-140906500D02*
X164630100Y-140906500D01*
X164630100Y-140906500D02*
X164630100Y-144208500D01*
X164630100Y-144208500D02*
X160807400Y-144208500D01*
X160807400Y-144208500D02*
X160807400Y-140906500D01*
X89369900Y-144208500D02*
X89369900Y-140906500D01*
X93192600Y-144208500D02*
X89369900Y-144208500D01*
X93192600Y-140906500D02*
X93192600Y-144208500D01*
X89369900Y-140906500D02*
X93192600Y-140906500D01*
X65557400Y-140906500D02*
X69380100Y-140906500D01*
X69380100Y-140906500D02*
X69380100Y-144208500D01*
X69380100Y-144208500D02*
X65557400Y-144208500D01*
X65557400Y-144208500D02*
X65557400Y-140906500D01*
X41744900Y-144208500D02*
X41744900Y-140906500D01*
X45567600Y-144208500D02*
X41744900Y-144208500D01*
X45567600Y-140906500D02*
X45567600Y-144208500D01*
X41744900Y-140906500D02*
X45567600Y-140906500D01*
X234632500Y-121856500D02*
X238442500Y-121856500D01*
X238442500Y-121856500D02*
X238442500Y-125158500D01*
X238442500Y-125158500D02*
X234632500Y-125158500D01*
X234632500Y-125158500D02*
X234632500Y-121856500D01*
X253682500Y-125158500D02*
X253682500Y-121856500D01*
X257492500Y-125158500D02*
X253682500Y-125158500D01*
X257492500Y-121856500D02*
X257492500Y-125158500D01*
X253682500Y-121856500D02*
X257492500Y-121856500D01*
X158432500Y-121856500D02*
X162242500Y-121856500D01*
X162242500Y-121856500D02*
X162242500Y-125158500D01*
X162242500Y-125158500D02*
X158432500Y-125158500D01*
X158432500Y-125158500D02*
X158432500Y-121856500D01*
X177482500Y-125158500D02*
X177482500Y-121856500D01*
X181292500Y-125158500D02*
X177482500Y-125158500D01*
X181292500Y-121856500D02*
X181292500Y-125158500D01*
X177482500Y-121856500D02*
X181292500Y-121856500D01*
X215582500Y-121856500D02*
X219392500Y-121856500D01*
X219392500Y-121856500D02*
X219392500Y-125158500D01*
X219392500Y-125158500D02*
X215582500Y-125158500D01*
X215582500Y-125158500D02*
X215582500Y-121856500D01*
X196532500Y-125158500D02*
X196532500Y-121856500D01*
X200342500Y-125158500D02*
X196532500Y-125158500D01*
X200342500Y-121856500D02*
X200342500Y-125158500D01*
X196532500Y-121856500D02*
X200342500Y-121856500D01*
X120332500Y-121856500D02*
X124142500Y-121856500D01*
X124142500Y-121856500D02*
X124142500Y-125158500D01*
X124142500Y-125158500D02*
X120332500Y-125158500D01*
X120332500Y-125158500D02*
X120332500Y-121856500D01*
X139382500Y-125158500D02*
X139382500Y-121856500D01*
X143192500Y-125158500D02*
X139382500Y-125158500D01*
X143192500Y-121856500D02*
X143192500Y-125158500D01*
X139382500Y-121856500D02*
X143192500Y-121856500D01*
X101282500Y-121856500D02*
X105092500Y-121856500D01*
X105092500Y-121856500D02*
X105092500Y-125158500D01*
X105092500Y-125158500D02*
X101282500Y-125158500D01*
X101282500Y-125158500D02*
X101282500Y-121856500D01*
X82232500Y-125158500D02*
X82232500Y-121856500D01*
X86042500Y-125158500D02*
X82232500Y-125158500D01*
X86042500Y-121856500D02*
X86042500Y-125158500D01*
X82232500Y-121856500D02*
X86042500Y-121856500D01*
X244157500Y-102806500D02*
X247967500Y-102806500D01*
X247967500Y-102806500D02*
X247967500Y-106108500D01*
X247967500Y-106108500D02*
X244157500Y-106108500D01*
X244157500Y-106108500D02*
X244157500Y-102806500D01*
X263207500Y-106108500D02*
X263207500Y-102806500D01*
X267017500Y-106108500D02*
X263207500Y-106108500D01*
X267017500Y-102806500D02*
X267017500Y-106108500D01*
X263207500Y-102806500D02*
X267017500Y-102806500D01*
X225107500Y-102806500D02*
X228917500Y-102806500D01*
X228917500Y-102806500D02*
X228917500Y-106108500D01*
X228917500Y-106108500D02*
X225107500Y-106108500D01*
X225107500Y-106108500D02*
X225107500Y-102806500D01*
X148907500Y-102806500D02*
X152717500Y-102806500D01*
X152717500Y-102806500D02*
X152717500Y-106108500D01*
X152717500Y-106108500D02*
X148907500Y-106108500D01*
X148907500Y-106108500D02*
X148907500Y-102806500D01*
X167957500Y-106108500D02*
X167957500Y-102806500D01*
X171767500Y-106108500D02*
X167957500Y-106108500D01*
X171767500Y-102806500D02*
X171767500Y-106108500D01*
X167957500Y-102806500D02*
X171767500Y-102806500D01*
X206057500Y-102806500D02*
X209867500Y-102806500D01*
X209867500Y-102806500D02*
X209867500Y-106108500D01*
X209867500Y-106108500D02*
X206057500Y-106108500D01*
X206057500Y-106108500D02*
X206057500Y-102806500D01*
X187007500Y-106108500D02*
X187007500Y-102806500D01*
X190817500Y-106108500D02*
X187007500Y-106108500D01*
X190817500Y-102806500D02*
X190817500Y-106108500D01*
X187007500Y-102806500D02*
X190817500Y-102806500D01*
X110807500Y-102806500D02*
X114617500Y-102806500D01*
X114617500Y-102806500D02*
X114617500Y-106108500D01*
X114617500Y-106108500D02*
X110807500Y-106108500D01*
X110807500Y-106108500D02*
X110807500Y-102806500D01*
X129857500Y-106108500D02*
X129857500Y-102806500D01*
X133667500Y-106108500D02*
X129857500Y-106108500D01*
X133667500Y-102806500D02*
X133667500Y-106108500D01*
X129857500Y-102806500D02*
X133667500Y-102806500D01*
X91757500Y-102806500D02*
X95567500Y-102806500D01*
X95567500Y-102806500D02*
X95567500Y-106108500D01*
X95567500Y-106108500D02*
X91757500Y-106108500D01*
X91757500Y-106108500D02*
X91757500Y-102806500D01*
X72707500Y-106108500D02*
X72707500Y-102806500D01*
X76517500Y-106108500D02*
X72707500Y-106108500D01*
X76517500Y-102806500D02*
X76517500Y-106108500D01*
X72707500Y-102806500D02*
X76517500Y-102806500D01*
X51282600Y-125158500D02*
X55092600Y-125158500D01*
X51282600Y-121856500D02*
X51282600Y-125158500D01*
X55092600Y-121856500D02*
X55092600Y-125158500D01*
X51282600Y-121856500D02*
X55092600Y-121856500D01*
X46512480Y-102806500D02*
X50325020Y-102806500D01*
X46512480Y-106108500D02*
X46512480Y-102806500D01*
X50325020Y-106108500D02*
X46512480Y-106108500D01*
X50325020Y-102806500D02*
X50325020Y-106108500D01*
X44132500Y-87058500D02*
X44132500Y-83756500D01*
X47942500Y-87058500D02*
X44132500Y-87058500D01*
X47942500Y-83756500D02*
X47942500Y-87058500D01*
X44132500Y-83756500D02*
X47942500Y-83756500D01*
X258445000Y-87058500D02*
X262255000Y-87058500D01*
X262255000Y-87058500D02*
X262255000Y-83756500D01*
X262255000Y-83756500D02*
X258445000Y-83756500D01*
X258445000Y-83756500D02*
X258445000Y-87058500D01*
X277495000Y-83756500D02*
X277495000Y-87058500D01*
X281305000Y-83756500D02*
X277495000Y-83756500D01*
X281305000Y-87058500D02*
X281305000Y-83756500D01*
X277495000Y-87058500D02*
X281305000Y-87058500D01*
X239395000Y-87058500D02*
X243205000Y-87058500D01*
X243205000Y-87058500D02*
X243205000Y-83756500D01*
X243205000Y-83756500D02*
X239395000Y-83756500D01*
X239395000Y-83756500D02*
X239395000Y-87058500D01*
X220345000Y-83756500D02*
X220345000Y-87058500D01*
X224155000Y-83756500D02*
X220345000Y-83756500D01*
X224155000Y-87058500D02*
X224155000Y-83756500D01*
X220345000Y-87058500D02*
X224155000Y-87058500D01*
X182245000Y-87058500D02*
X186055000Y-87058500D01*
X186055000Y-87058500D02*
X186055000Y-83756500D01*
X186055000Y-83756500D02*
X182245000Y-83756500D01*
X182245000Y-83756500D02*
X182245000Y-87058500D01*
X201295000Y-83756500D02*
X201295000Y-87058500D01*
X205105000Y-83756500D02*
X201295000Y-83756500D01*
X205105000Y-87058500D02*
X205105000Y-83756500D01*
X201295000Y-87058500D02*
X205105000Y-87058500D01*
X163195000Y-87058500D02*
X167005000Y-87058500D01*
X167005000Y-87058500D02*
X167005000Y-83756500D01*
X167005000Y-83756500D02*
X163195000Y-83756500D01*
X163195000Y-83756500D02*
X163195000Y-87058500D01*
X144145000Y-83756500D02*
X144145000Y-87058500D01*
X147955000Y-83756500D02*
X144145000Y-83756500D01*
X147955000Y-87058500D02*
X147955000Y-83756500D01*
X144145000Y-87058500D02*
X147955000Y-87058500D01*
X67945000Y-87058500D02*
X71755000Y-87058500D01*
X71755000Y-87058500D02*
X71755000Y-83756500D01*
X71755000Y-83756500D02*
X67945000Y-83756500D01*
X67945000Y-83756500D02*
X67945000Y-87058500D01*
X86995000Y-83756500D02*
X86995000Y-87058500D01*
X90805000Y-83756500D02*
X86995000Y-83756500D01*
X90805000Y-87058500D02*
X90805000Y-83756500D01*
X86995000Y-87058500D02*
X90805000Y-87058500D01*
X125095000Y-87058500D02*
X128905000Y-87058500D01*
X128905000Y-87058500D02*
X128905000Y-83756500D01*
X128905000Y-83756500D02*
X125095000Y-83756500D01*
X125095000Y-83756500D02*
X125095000Y-87058500D01*
X106045000Y-83756500D02*
X106045000Y-87058500D01*
X109855000Y-83756500D02*
X106045000Y-83756500D01*
X109855000Y-87058500D02*
X109855000Y-83756500D01*
X106045000Y-87058500D02*
X109855000Y-87058500D01*
X344170000Y-87058500D02*
X347980000Y-87058500D01*
X347980000Y-87058500D02*
X347980000Y-83756500D01*
X347980000Y-83756500D02*
X344170000Y-83756500D01*
X344170000Y-83756500D02*
X344170000Y-87058500D01*
X363220000Y-83756500D02*
X363220000Y-87058500D01*
X367030000Y-83756500D02*
X363220000Y-83756500D01*
X367030000Y-87058500D02*
X367030000Y-83756500D01*
X363220000Y-87058500D02*
X367030000Y-87058500D01*
X325120000Y-87058500D02*
X328930000Y-87058500D01*
X328930000Y-87058500D02*
X328930000Y-83756500D01*
X328930000Y-83756500D02*
X325120000Y-83756500D01*
X325120000Y-83756500D02*
X325120000Y-87058500D01*
X344170000Y-68008500D02*
X347980000Y-68008500D01*
X347980000Y-68008500D02*
X347980000Y-64706500D01*
X347980000Y-64706500D02*
X344170000Y-64706500D01*
X344170000Y-64706500D02*
X344170000Y-68008500D01*
X363220000Y-64706500D02*
X363220000Y-68008500D01*
X367030000Y-64706500D02*
X363220000Y-64706500D01*
X367030000Y-68008500D02*
X367030000Y-64706500D01*
X363220000Y-68008500D02*
X367030000Y-68008500D01*
X325120000Y-68008500D02*
X328930000Y-68008500D01*
X328930000Y-68008500D02*
X328930000Y-64706500D01*
X328930000Y-64706500D02*
X325120000Y-64706500D01*
X325120000Y-64706500D02*
X325120000Y-68008500D01*
X296545000Y-64706500D02*
X296545000Y-68008500D01*
X300355000Y-64706500D02*
X296545000Y-64706500D01*
X300355000Y-68008500D02*
X300355000Y-64706500D01*
X296545000Y-68008500D02*
X300355000Y-68008500D01*
X267970000Y-64706500D02*
X267970000Y-68008500D01*
X271780000Y-64706500D02*
X267970000Y-64706500D01*
X271780000Y-68008500D02*
X271780000Y-64706500D01*
X267970000Y-68008500D02*
X271780000Y-68008500D01*
X191770000Y-68008500D02*
X195580000Y-68008500D01*
X195580000Y-68008500D02*
X195580000Y-64706500D01*
X195580000Y-64706500D02*
X191770000Y-64706500D01*
X191770000Y-64706500D02*
X191770000Y-68008500D01*
X210820000Y-64706500D02*
X210820000Y-68008500D01*
X214630000Y-64706500D02*
X210820000Y-64706500D01*
X214630000Y-68008500D02*
X214630000Y-64706500D01*
X210820000Y-68008500D02*
X214630000Y-68008500D01*
X248920000Y-68008500D02*
X252730000Y-68008500D01*
X252730000Y-68008500D02*
X252730000Y-64706500D01*
X252730000Y-64706500D02*
X248920000Y-64706500D01*
X248920000Y-64706500D02*
X248920000Y-68008500D01*
X229870000Y-64706500D02*
X229870000Y-68008500D01*
X233680000Y-64706500D02*
X229870000Y-64706500D01*
X233680000Y-68008500D02*
X233680000Y-64706500D01*
X229870000Y-68008500D02*
X233680000Y-68008500D01*
X153670000Y-68008500D02*
X157480000Y-68008500D01*
X157480000Y-68008500D02*
X157480000Y-64706500D01*
X157480000Y-64706500D02*
X153670000Y-64706500D01*
X153670000Y-64706500D02*
X153670000Y-68008500D01*
X172720000Y-64706500D02*
X172720000Y-68008500D01*
X176530000Y-64706500D02*
X172720000Y-64706500D01*
X176530000Y-68008500D02*
X176530000Y-64706500D01*
X172720000Y-68008500D02*
X176530000Y-68008500D01*
X134620000Y-68008500D02*
X138430000Y-68008500D01*
X138430000Y-68008500D02*
X138430000Y-64706500D01*
X138430000Y-64706500D02*
X134620000Y-64706500D01*
X134620000Y-64706500D02*
X134620000Y-68008500D01*
X115570000Y-64706500D02*
X115570000Y-68008500D01*
X119380000Y-64706500D02*
X115570000Y-64706500D01*
X119380000Y-68008500D02*
X119380000Y-64706500D01*
X115570000Y-68008500D02*
X119380000Y-68008500D01*
X39370000Y-68008500D02*
X43180000Y-68008500D01*
X43180000Y-68008500D02*
X43180000Y-64706500D01*
X43180000Y-64706500D02*
X39370000Y-64706500D01*
X39370000Y-64706500D02*
X39370000Y-68008500D01*
X58420000Y-64706500D02*
X58420000Y-68008500D01*
X62230000Y-64706500D02*
X58420000Y-64706500D01*
X62230000Y-68008500D02*
X62230000Y-64706500D01*
X58420000Y-68008500D02*
X62230000Y-68008500D01*
X96520000Y-68008500D02*
X100330000Y-68008500D01*
X100330000Y-68008500D02*
X100330000Y-64706500D01*
X100330000Y-64706500D02*
X96520000Y-64706500D01*
X96520000Y-64706500D02*
X96520000Y-68008500D01*
X77470000Y-64706500D02*
X77470000Y-68008500D01*
X81280000Y-64706500D02*
X77470000Y-64706500D01*
X81280000Y-68008500D02*
X81280000Y-64706500D01*
X77470000Y-68008500D02*
X81280000Y-68008500D01*
X287020000Y-48958500D02*
X290830000Y-48958500D01*
X290830000Y-48958500D02*
X290830000Y-45656500D01*
X290830000Y-45656500D02*
X287020000Y-45656500D01*
X287020000Y-45656500D02*
X287020000Y-48958500D01*
X306070000Y-45656500D02*
X306070000Y-48958500D01*
X309880000Y-45656500D02*
X306070000Y-45656500D01*
X309880000Y-48958500D02*
X309880000Y-45656500D01*
X306070000Y-48958500D02*
X309880000Y-48958500D01*
X325120000Y-45656500D02*
X325120000Y-48958500D01*
X328930000Y-45656500D02*
X325120000Y-45656500D01*
X328930000Y-48958500D02*
X328930000Y-45656500D01*
X325120000Y-48958500D02*
X328930000Y-48958500D01*
X267970000Y-48958500D02*
X271780000Y-48958500D01*
X271780000Y-48958500D02*
X271780000Y-45656500D01*
X271780000Y-45656500D02*
X267970000Y-45656500D01*
X267970000Y-45656500D02*
X267970000Y-48958500D01*
X248920000Y-48958500D02*
X252730000Y-48958500D01*
X252730000Y-48958500D02*
X252730000Y-45656500D01*
X252730000Y-45656500D02*
X248920000Y-45656500D01*
X248920000Y-45656500D02*
X248920000Y-48958500D01*
X229870000Y-45656500D02*
X229870000Y-48958500D01*
X233680000Y-45656500D02*
X229870000Y-45656500D01*
X233680000Y-48958500D02*
X233680000Y-45656500D01*
X229870000Y-48958500D02*
X233680000Y-48958500D01*
X134620000Y-48958500D02*
X138430000Y-48958500D01*
X138430000Y-48958500D02*
X138430000Y-45656500D01*
X138430000Y-45656500D02*
X134620000Y-45656500D01*
X134620000Y-45656500D02*
X134620000Y-48958500D01*
X153670000Y-45656500D02*
X153670000Y-48958500D01*
X157480000Y-45656500D02*
X153670000Y-45656500D01*
X157480000Y-48958500D02*
X157480000Y-45656500D01*
X153670000Y-48958500D02*
X157480000Y-48958500D01*
X191770000Y-48958500D02*
X195580000Y-48958500D01*
X195580000Y-48958500D02*
X195580000Y-45656500D01*
X195580000Y-45656500D02*
X191770000Y-45656500D01*
X191770000Y-45656500D02*
X191770000Y-48958500D01*
X172720000Y-45656500D02*
X172720000Y-48958500D01*
X176530000Y-45656500D02*
X172720000Y-45656500D01*
X176530000Y-48958500D02*
X176530000Y-45656500D01*
X172720000Y-48958500D02*
X176530000Y-48958500D01*
X96520000Y-48958500D02*
X100330000Y-48958500D01*
X100330000Y-48958500D02*
X100330000Y-45656500D01*
X100330000Y-45656500D02*
X96520000Y-45656500D01*
X96520000Y-45656500D02*
X96520000Y-48958500D01*
X115570000Y-45656500D02*
X115570000Y-48958500D01*
X119380000Y-45656500D02*
X115570000Y-45656500D01*
X119380000Y-48958500D02*
X119380000Y-45656500D01*
X115570000Y-48958500D02*
X119380000Y-48958500D01*
X58420000Y-45656500D02*
X58420000Y-48958500D01*
X62230000Y-45656500D02*
X58420000Y-45656500D01*
X62230000Y-48958500D02*
X62230000Y-45656500D01*
X58420000Y-48958500D02*
X62230000Y-48958500D01*
X39370000Y-48958500D02*
X39370000Y-45656500D01*
X43180000Y-48958500D02*
X39370000Y-48958500D01*
X43180000Y-45656500D02*
X43180000Y-48958500D01*
X39370000Y-45656500D02*
X43180000Y-45656500D01*
M02*
